<!-- Generated by IcoMoon.io -->
<svg version="1.1" xmlns="http://www.w3.org/2000/svg" width="64" height="32" viewBox="0 0 64 32">
<title>acana</title>
<path fill="#231f20" d="M26.61 18.927l0.038-0.144c0.008-0.032-0.001-0.039-0.028-0.019-0.038 0.027-0.053 0.080-0.043 0.158-0.024 0.016-0.052 0.036-0.063 0.065-0.407 1.036-1.102 2.269-1.998 2.943-1.114 0.839-2.651 0.932-3.898 0.31-1.171-0.583-2.1-1.775-2.631-2.96-0.004-0.008-0.010-0.015-0.019-0.018s-0.018-0.004-0.026-0.001c-0.033 0.013-0.047 0.042-0.042 0.087 0.082 0.696 0.16 1.393 0.233 2.090 0.067 0.643 0.095 1.039-0.667 1.039-1.249-0.001-2.498-0.002-3.746-0.002-0.355 0-0.613-0.148-0.617-0.522-0.008-0.77-0.009-1.541-0.004-2.31 0.002-0.36 0.168-0.614 0.545-0.622 0.011-0 0.021-0.003 0.031-0.007s0.018-0.011 0.025-0.019c0.007-0.008 0.012-0.017 0.015-0.027s0.004-0.021 0.002-0.031l-0.054-0.412c-0.001-0.011-0.005-0.022-0.011-0.032s-0.014-0.018-0.023-0.025c-0.009-0.007-0.020-0.011-0.031-0.014s-0.023-0.003-0.034-0l-1.595 0.307c-0.022 0.004-0.042 0.014-0.058 0.029s-0.028 0.034-0.035 0.055l-0.093 0.301c-0.007 0.023 0.001 0.036 0.025 0.038 0.411 0.033 0.52 0.289 0.521 0.678 0.001 0.651 0.001 1.303-0.002 1.955-0.001 0.441-0.19 0.658-0.626 0.659-1.114 0.002-2.227 0.002-3.341 0-0.441-0.001-0.648-0.21-0.631-0.642 0.019-0.51 0.040-1.020 0.063-1.53 0.021-0.45 0.246-0.657 0.706-0.661 0.129-0.001 0.139-0.122 0.168-0.214 0.532-1.687 1.061-3.373 1.587-5.058 0.016-0.052-0.002-0.084-0.055-0.097-0.284-0.069-0.428-0.256-0.431-0.563-0.005-0.532-0.002-1.064 0.009-1.596 0.006-0.297 0.133-0.451 0.392-0.61 1.865-1.138 3.81-2.118 5.835-2.942 0.481-0.196 0.91-0.16 0.912 0.472 0.002 0.744 0.003 1.488 0.001 2.233-0.001 0.5-0.391 0.58-0.763 0.729-0.017 0.007-0.032 0.020-0.041 0.036s-0.013 0.035-0.010 0.053l0.961 6.509c0.011 0.076 0.055 0.107 0.13 0.092 0.174-0.033 0.336-0.003 0.486 0.090 0.007 0.004 0.015 0.006 0.023 0.006s0.016-0.004 0.022-0.009c0.006-0.005 0.011-0.012 0.013-0.020s0.002-0.016-0.001-0.023c-0.769-1.979-0.74-4.107-0.311-6.163 0.267-1.28 0.688-2.406 1.263-3.378 1.087-1.837 3.136-3.453 5.354-2.324 0.010 0.005 0.022 0.008 0.033 0.007s0.023-0.004 0.032-0.009 0.018-0.014 0.024-0.024c0.006-0.010 0.009-0.021 0.009-0.032 0.020-0.422 0.089-0.717 0.563-0.796 0.837-0.14 1.395-0.225 1.673-0.255 0.747-0.081 0.726 0.458 0.719 1.039-0.020 1.568-0.040 3.137-0.062 4.706-0.012 0.903-0.031 1.013-0.912 1.118-0.521 0.062-1.041 0.123-1.561 0.182-0.451 0.052-0.664-0.066-0.783-0.491-0.263-0.935-0.925-2.292-2.051-1.118-0.557 0.58-0.896 1.583-1.052 2.402-0.215 1.131-0.098 2.333 0.256 3.426 0.16 0.492 0.384 0.857 0.795 1.128 1.147 0.758 1.823-1.18 1.999-1.926 0.090-0.383 0.322-0.486 0.71-0.51 0.722-0.044 1.445-0.087 2.167-0.128 0.513-0.029 0.74 0.24 0.653 0.74-0.114 0.656-0.269 1.298-0.467 1.926-0.003 0.010-0.003 0.021-0 0.031s0.010 0.019 0.018 0.025 0.019 0.010 0.029 0.010c0.011 0 0.021-0.003 0.030-0.009 0.222-0.151 0.374-0.059 0.591-0.141 0.021-0.008 0.034-0.022 0.038-0.045l1.549-8.35c0.002-0.012 0.002-0.025-0.002-0.037s-0.010-0.023-0.018-0.032c-0.008-0.009-0.019-0.016-0.030-0.021s-0.024-0.006-0.036-0.005c-0.257 0.025-0.56-0.070-0.676-0.298-0.044-0.087-0.067-0.248-0.069-0.481-0.007-0.907-0.006-1.814 0.003-2.721 0.005-0.452 0.208-0.647 0.641-0.671 1.939-0.105 3.947-0.065 6.032 0.008 0.545 0.019 0.782 0.162 0.784 0.741 0.002 0.93 0.002 1.859-0.001 2.789-0.001 0.164-0.021 0.286-0.062 0.368-0.175 0.351-0.456 0.31-0.795 0.314-0.006 0-0.011 0.001-0.016 0.004s-0.010 0.006-0.013 0.010c-0.004 0.004-0.006 0.009-0.008 0.015s-0.002 0.011-0.001 0.017l1.392 8.296c0.005 0.030 0.022 0.058 0.046 0.076s0.055 0.027 0.086 0.024c0.266-0.029 0.467 0.069 0.603 0.294 0.004 0.007 0.010 0.012 0.016 0.016s0.014 0.006 0.022 0.006c0.008 0 0.015-0.002 0.022-0.005s0.012-0.009 0.017-0.015c0.152-0.227 0.369-0.313 0.65-0.258 0.012 0.003 0.025 0.002 0.037-0.001s0.023-0.009 0.033-0.017c0.010-0.008 0.017-0.018 0.023-0.029s0.008-0.024 0.008-0.036v-8.35c0-0.008-0.002-0.015-0.007-0.021s-0.011-0.010-0.019-0.011c-0.534-0.109-1.023-0.081-1.025-0.794-0.002-0.864-0.002-1.727-0.001-2.591 0.001-0.557 0.239-0.771 0.783-0.694 1.182 0.168 2.353 0.42 3.52 0.67 0.215 0.046 0.34 0.283 0.413 0.504 0.286 0.862 0.565 1.722 0.836 2.579 0.003 0.009 0.009 0.017 0.017 0.022s0.018 0.007 0.027 0.005c0.010-0.002 0.018-0.006 0.024-0.014s0.010-0.017 0.009-0.026c-0.007-0.618-0.010-1.238-0.009-1.859 0.001-0.607 0.195-0.884 0.824-0.723 1.116 0.286 2.219 0.62 3.307 1.001 0.454 0.159 0.739 0.219 0.739 0.788-0.001 0.723-0.001 1.445-0.001 2.165 0 0.378-0.102 0.644-0.503 0.678-0.078 0.006-0.18-0.033-0.274-0.029-0.027 0.002-0.040 0.016-0.040 0.043v7.065c0 0.050 0.025 0.079 0.074 0.086 0.19 0.028 0.322 0.129 0.396 0.304 0.002 0.005 0.006 0.010 0.010 0.013s0.010 0.005 0.015 0.006c0.006 0 0.011-0 0.016-0.003s0.010-0.006 0.013-0.011c0.155-0.218 0.368-0.301 0.639-0.249 0.012 0.002 0.024 0.002 0.036-0s0.023-0.007 0.032-0.014c0.010-0.007 0.018-0.016 0.024-0.026s0.011-0.021 0.012-0.033l1.033-6.519c0.003-0.021-0.004-0.036-0.023-0.045-0.276-0.135-0.783-0.285-0.785-0.668-0.002-0.668-0.002-1.336-0.002-2.004 0.001-0.688 0.291-0.884 0.923-0.626 2.101 0.858 4.070 1.857 5.907 2.996 0.255 0.158 0.317 0.389 0.317 0.699 0.001 0.454 0 0.907-0.001 1.36-0.001 0.216-0.058 0.355-0.222 0.478-0.060 0.045-0.153 0.054-0.224 0.101-0.018 0.011-0.023 0.027-0.017 0.047l1.543 5.106c0.008 0.027 0.025 0.051 0.048 0.068s0.050 0.025 0.079 0.025c0.544-0.007 0.643 0.368 0.681 0.85 0.033 0.413 0.067 0.826 0.102 1.239 0.041 0.491-0.134 0.76-0.635 0.761-1.166 0.001-2.332 0-3.498-0.001-0.465-0.001-0.681-0.19-0.682-0.648-0.001-0.69-0.001-1.38 0-2.070 0.001-0.335 0.166-0.536 0.496-0.604 0.004-0.001 0.009-0.003 0.012-0.006s0.007-0.006 0.009-0.010c0.002-0.004 0.004-0.008 0.004-0.013s0-0.009-0.002-0.014l-0.123-0.384c-0.003-0.010-0.009-0.018-0.016-0.025s-0.017-0.011-0.027-0.013l-1.7-0.323c-0.008-0.002-0.017-0.002-0.025 0s-0.016 0.005-0.023 0.010-0.013 0.011-0.018 0.018c-0.005 0.007-0.008 0.015-0.009 0.024l-0.075 0.462c-0.002 0.012-0.001 0.024 0.002 0.035s0.009 0.022 0.017 0.031c0.008 0.009 0.017 0.016 0.028 0.021s0.022 0.007 0.034 0.007c0.586-0.014 0.661 0.367 0.661 0.874 0 0.605-0 1.21-0.001 1.815 0 0.603-0.156 0.815-0.757 0.815-1.059-0.001-2.118-0.001-3.176-0.001-0.265 0-0.442-0.048-0.592-0.253-0.005-0.007-0.012-0.013-0.020-0.016s-0.017-0.006-0.025-0.005c-0.009 0-0.017 0.003-0.025 0.008s-0.014 0.011-0.018 0.018c-0.097 0.162-0.25 0.244-0.46 0.245-0.824 0.004-1.648 0.005-2.472 0.003-0.307-0.001-0.598-0.107-0.697-0.396-0.709-2.063-1.416-4.12-2.119-6.172-0.003-0.009-0.010-0.017-0.019-0.022s-0.019-0.007-0.029-0.005c-0.010 0.002-0.019 0.007-0.025 0.014s-0.010 0.017-0.010 0.027v2.337c0 0.010 0.002 0.020 0.006 0.029s0.010 0.017 0.018 0.023c0.008 0.006 0.017 0.011 0.026 0.014s0.020 0.003 0.029 0.001c0.469-0.082 0.714 0.206 0.71 0.641-0.009 0.892-0.008 1.783 0.002 2.674 0.007 0.617-0.127 0.837-0.752 0.837-1.151 0-2.302 0-3.453-0.001-0.254-0-0.44-0.071-0.569-0.28-0.005-0.009-0.013-0.016-0.022-0.020s-0.019-0.007-0.029-0.007c-0.010 0-0.020 0.004-0.029 0.009s-0.016 0.013-0.020 0.022c-0.117 0.23-0.32 0.274-0.581 0.275-1.238 0.003-2.477 0.003-3.716 0-0.407-0.001-0.653-0.174-0.652-0.59 0-1.018-0-2.037-0.002-3.055-0.001-0.45 0.167-0.759 0.672-0.682 0.014 0.002 0.028 0.001 0.042-0.004s0.026-0.012 0.036-0.022 0.018-0.022 0.023-0.036c0.005-0.014 0.006-0.028 0.004-0.042l-0.148-1.173c-0.002-0.018-0.011-0.034-0.024-0.046s-0.030-0.018-0.048-0.018l-1.392 0.001c-0.022 0-0.043 0.008-0.059 0.021s-0.028 0.033-0.033 0.054l-0.244 1.22c-0.001 0.005-0.001 0.009 0 0.014s0.003 0.009 0.007 0.012c0.003 0.004 0.007 0.006 0.011 0.008s0.009 0.003 0.014 0.002c0.588-0.043 0.67 0.334 0.668 0.837-0.005 0.939-0.008 1.879-0.009 2.819 0 0.479-0.191 0.679-0.657 0.68-1.269 0.001-2.538 0.001-3.807 0.001-0.809-0.001-0.696-0.503-0.627-1.13 0.085-0.776 0.171-1.552 0.26-2.327 0.004-0.036 0.001-0.066-0.011-0.091zM29.309 9.528l-1.639 8.842c-0.005 0.028-0.022 0.042-0.051 0.039-0.254-0.021-0.699-0.058-0.74 0.299-0.109 0.964-0.218 1.928-0.325 2.893-0.038 0.342-0.091 0.664 0.352 0.668 0.568 0.005 1.881 0.005 3.939-0 0.409-0.001 0.379-0.292 0.38-0.631 0.002-0.953 0.002-1.906-0.001-2.859-0.001-0.519-0.326-0.424-0.709-0.421-0.022 0-0.030-0.011-0.026-0.032l0.342-1.697c0.004-0.020 0.016-0.030 0.036-0.030l1.835-0.009c0.013 0 0.026 0.005 0.036 0.014s0.016 0.021 0.018 0.034l0.205 1.663c0.003 0.025-0.008 0.038-0.034 0.038-0.31 0.003-0.779-0.087-0.778 0.377 0.002 0.781 0.003 1.561 0.003 2.342 0 0.189-0.023 0.467-0.008 0.702 0.023 0.356 0.053 0.5 0.467 0.504 1.225 0.011 2.45 0.012 3.675 0.001 0.311-0.003 0.439-0.089 0.454-0.416 0.018-0.388-0.005-0.839-0.002-1.158 0.006-0.654 0.008-1.308 0.008-1.961-0.001-0.396-0.45-0.358-0.704-0.345-0.013 0.001-0.026-0.004-0.036-0.012s-0.017-0.020-0.019-0.033l-1.474-8.79c-0.001-0.006-0.001-0.011 0.001-0.017s0.004-0.011 0.008-0.015 0.008-0.008 0.013-0.010c0.005-0.002 0.011-0.003 0.016-0.003 0.304 0.008 0.863 0.148 0.878-0.377 0.030-1.036 0.030-2.072 0-3.109-0.004-0.16-0.16-0.255-0.309-0.265-1.58-0.108-3.187-0.082-4.77-0.075-0.762 0.003-1.318 0.025-1.669 0.066-0.175 0.021-0.247 0.199-0.248 0.37-0.008 0.945-0.009 1.889-0.004 2.833 0.002 0.329 0.029 0.456 0.396 0.5 0.152 0.018 0.305 0.033 0.459 0.043 0.021 0.002 0.030 0.013 0.026 0.034zM43.269 13.336c-0.678-2.099-1.364-4.217-2.058-6.355-0.065-0.202-0.123-0.387-0.305-0.432-0.917-0.225-2.081-0.449-3.491-0.672-0.379-0.060-0.52 0.075-0.52 0.45 0 0.881 0.001 1.763 0.001 2.644 0.001 0.241 0.050 0.399 0.299 0.442 0.239 0.042 0.479 0.096 0.718 0.16 0.023 0.006 0.035 0.021 0.035 0.045v8.77c0 0.005-0.001 0.010-0.003 0.014s-0.005 0.009-0.008 0.012c-0.004 0.003-0.008 0.006-0.012 0.008s-0.009 0.003-0.014 0.002c-0.34-0.012-0.8-0.125-0.795 0.405 0.010 1.021 0.017 2.043 0.020 3.065 0.001 0.239 0.109 0.362 0.325 0.368 0.68 0.021 1.882 0.021 3.606 0.001 0.268-0.003 0.476-0.096 0.476-0.386 0.003-0.963 0.003-1.925 0.001-2.888-0.001-0.558-0.368-0.46-0.771-0.478-0.019-0.001-0.029-0.011-0.029-0.030v-4.064c0-0.003 0.001-0.005 0.003-0.007s0.004-0.003 0.007-0.004c0.002-0 0.005 0 0.008 0.001s0.004 0.004 0.005 0.006c0.866 2.525 1.731 5.041 2.594 7.548 0.075 0.217 0.255 0.297 0.486 0.301 0.788 0.015 1.576 0.014 2.364-0.001 0.27-0.006 0.45-0.074 0.45-0.368 0.002-0.852 0.004-1.704 0.005-2.558 0.001-0.329-0.097-0.583-0.477-0.512-0.009 0.002-0.018 0.001-0.027-0.001s-0.017-0.007-0.024-0.012c-0.007-0.006-0.013-0.013-0.017-0.021s-0.006-0.017-0.006-0.026v-7.589c0-0.024 0.012-0.034 0.036-0.030 0.347 0.061 0.795 0.273 0.796-0.303 0.001-0.751 0.001-1.503-0.001-2.255 0-0.233-0.070-0.377-0.286-0.453-1.169-0.413-2.353-0.775-3.552-1.086-0.288-0.075-0.577-0.116-0.587 0.279-0.012 0.466-0.010 1.137 0.006 2.011 0.005 0.297-0.132 0.882 0.276 0.973 0.156 0.035 0.312 0.074 0.47 0.119 0.020 0.005 0.030 0.019 0.030 0.040l0.002 2.864c0 0.078-0.012 0.080-0.037 0.006zM24.284 7.241c-1.172-0.69-2.29-0.715-3.355-0.075-2.886 1.733-3.907 6.435-3.501 9.495 0.263 1.986 1.373 4.368 3.213 5.342 0.969 0.513 2.161 0.561 3.156 0.104 1.938-0.89 2.936-3.936 3.248-5.918 0.044-0.278-0.121-0.391-0.383-0.379-0.673 0.031-1.457 0.077-2.352 0.138-0.196 0.013-0.315 0.094-0.363 0.298-0.222 0.943-0.928 2.772-2.175 2.173-1.202-0.577-1.417-2.555-1.43-3.675-0.014-1.232 0.569-3.816 2.027-4.181 0.983-0.246 1.463 1.101 1.662 1.828 0.018 0.068 0.060 0.126 0.118 0.166s0.128 0.057 0.198 0.049c0.67-0.075 1.346-0.153 2.030-0.236 0.24-0.030 0.427-0.102 0.429-0.364 0.020-1.88 0.044-3.759 0.074-5.639 0.006-0.338-0.201-0.428-0.508-0.385-0.904 0.124-1.475 0.211-1.711 0.26-0.385 0.081-0.3 0.678-0.336 0.981-0.003 0.027-0.017 0.033-0.040 0.019zM13.954 19.194c-0.242 0.023-0.65 0.025-0.65 0.374 0 0.741 0 1.483 0 2.225 0 0.294 0.074 0.468 0.393 0.465 1.014-0.010 2.235-0.007 3.661 0.011 0.369 0.004 0.637-0.013 0.591-0.465-0.086-0.846-0.177-1.692-0.271-2.539-0.055-0.493-0.41-0.368-0.75-0.34-0.010 0.001-0.020-0.002-0.028-0.008s-0.013-0.015-0.015-0.025l-1.031-6.967c-0.003-0.023 0.006-0.039 0.027-0.048l0.643-0.274c0.049-0.021 0.090-0.055 0.12-0.099s0.046-0.095 0.048-0.148c0.023-0.75 0.029-1.521 0.019-2.312-0.004-0.337-0.165-0.461-0.494-0.329-2.076 0.833-4.068 1.833-5.976 3-0.109 0.066-0.232 0.18-0.232 0.297-0.002 0.556-0.003 1.112-0.001 1.669 0.001 0.44 0.218 0.402 0.557 0.329 0.025-0.005 0.033 0.004 0.026 0.028l-1.791 5.712c-0.006 0.018-0.016 0.033-0.030 0.045s-0.031 0.019-0.050 0.022c-0.351 0.044-0.679 0.025-0.697 0.442-0.020 0.445-0.040 0.89-0.060 1.336-0.017 0.362-0.055 0.671 0.396 0.675 0.816 0.007 1.928 0.011 3.334 0.013 0.281 0 0.421-0.123 0.421-0.371-0.001-0.693-0.001-1.386-0.001-2.078 0.001-0.482-0.233-0.436-0.614-0.384-0.005 0.001-0.010 0-0.014-0.002s-0.008-0.005-0.012-0.008c-0.003-0.004-0.005-0.008-0.006-0.013s-0.001-0.010 0.001-0.014l0.258-0.797c0.003-0.009 0.008-0.018 0.016-0.024s0.016-0.011 0.026-0.013l2.025-0.393c0.005-0.001 0.010-0.001 0.015 0s0.010 0.003 0.014 0.006c0.004 0.003 0.008 0.007 0.011 0.011s0.005 0.009 0.005 0.014l0.148 0.942c0.001 0.004 0 0.009-0.001 0.013s-0.003 0.008-0.006 0.011c-0.003 0.003-0.006 0.006-0.010 0.008s-0.008 0.003-0.012 0.004zM48.895 11.96l-1.091 6.903c-0.004 0.027-0.020 0.041-0.048 0.042-0.349 0.009-0.729-0.15-0.729 0.394 0 0.723 0.005 1.447-0.014 2.17-0.016 0.624-0.016 0.797 0.664 0.8 1.054 0.005 2.108 0.004 3.161-0.001 0.24-0.001 0.334-0.199 0.334-0.424 0-0.8 0-1.586 0-2.355 0-0.068-0.024-0.134-0.069-0.185s-0.106-0.085-0.173-0.094l-0.496-0.069c-0.027-0.004-0.038-0.019-0.033-0.045l0.173-0.97c0.003-0.017 0.013-0.024 0.031-0.021l2.056 0.383c0.019 0.004 0.037 0.012 0.052 0.025s0.025 0.030 0.031 0.048l0.249 0.807c0.007 0.023-0.002 0.033-0.026 0.032-0.298-0.016-0.577-0.073-0.582 0.343-0.008 0.699-0.005 1.399 0.008 2.102 0.006 0.322 0.136 0.423 0.447 0.424 1.108 0.004 2.217 0.005 3.327 0.003 0.632-0.001 0.612-0.156 0.574-0.72-0.047-0.681-0.087-1.152-0.122-1.413-0.040-0.299-0.448-0.296-0.669-0.352-0.011-0.003-0.021-0.008-0.029-0.016s-0.014-0.018-0.018-0.029l-1.706-5.644c-0.002-0.005-0.002-0.010-0-0.014s0.004-0.009 0.008-0.012c0.004-0.003 0.009-0.005 0.013-0.005s0.010 0.001 0.014 0.003c0.319 0.175 0.539 0.049 0.54-0.299 0.001-0.473 0-0.947-0.002-1.42-0.001-0.14-0.036-0.295-0.143-0.37-0.17-0.119-0.512-0.325-1.026-0.62-1.608-0.923-3.27-1.737-4.985-2.441-0.291-0.119-0.55-0.114-0.548 0.282 0.004 0.739 0.009 1.463 0.016 2.173 0 0.053 0.016 0.104 0.044 0.148s0.069 0.079 0.117 0.101l0.624 0.287c0.022 0.010 0.031 0.027 0.028 0.051zM43.034 10.588l-0.376-0.1c-0.009-0.002-0.019-0.002-0.028 0s-0.018 0.008-0.024 0.015c-0.007 0.007-0.011 0.016-0.013 0.025s-0.001 0.019 0.002 0.028c0.143 0.424 0.277 0.847 0.403 1.268 0.007 0.022 0.020 0.036 0.040 0.043 0.005 0.002 0.011 0.002 0.016 0.002s0.011-0.003 0.015-0.006c0.004-0.003 0.008-0.007 0.011-0.012s0.004-0.010 0.004-0.016v-1.183c0-0.015-0.005-0.029-0.014-0.040s-0.022-0.020-0.036-0.024z"></path>
<path fill="#fff" d="M29.283 9.494c-0.153-0.011-0.306-0.025-0.459-0.043-0.366-0.043-0.394-0.171-0.396-0.5-0.005-0.944-0.004-1.889 0.004-2.833 0.001-0.17 0.074-0.349 0.248-0.37 0.351-0.041 0.908-0.063 1.669-0.066 1.583-0.006 3.19-0.033 4.77 0.075 0.149 0.010 0.305 0.105 0.309 0.265 0.030 1.036 0.030 2.073 0 3.109-0.014 0.525-0.574 0.384-0.878 0.377-0.006-0-0.011 0.001-0.016 0.003s-0.010 0.006-0.013 0.010-0.006 0.009-0.008 0.015c-0.002 0.005-0.002 0.011-0.001 0.017l1.474 8.79c0.002 0.013 0.009 0.025 0.019 0.033s0.023 0.012 0.036 0.012c0.253-0.013 0.703-0.052 0.704 0.344 0.001 0.654-0.002 1.308-0.008 1.962-0.002 0.318 0.021 0.77 0.002 1.157-0.015 0.326-0.143 0.413-0.454 0.416-1.225 0.011-2.45 0.010-3.675-0.001-0.414-0.004-0.444-0.148-0.467-0.504-0.015-0.236 0.008-0.514 0.008-0.702-0.001-0.78-0.002-1.561-0.003-2.342-0.001-0.463 0.469-0.374 0.778-0.377 0.026 0 0.037-0.013 0.034-0.038l-0.205-1.663c-0.002-0.013-0.008-0.025-0.018-0.034s-0.022-0.014-0.036-0.014l-1.835 0.009c-0.020 0-0.033 0.010-0.036 0.030l-0.342 1.697c-0.005 0.021 0.004 0.032 0.026 0.032 0.383-0.003 0.708-0.097 0.709 0.421 0.002 0.953 0.002 1.906 0.001 2.859-0.001 0.338 0.029 0.63-0.38 0.631-2.057 0.006-3.37 0.006-3.939 0.001-0.443-0.004-0.39-0.326-0.352-0.668 0.108-0.965 0.216-1.929 0.325-2.893 0.040-0.357 0.486-0.32 0.74-0.299 0.029 0.003 0.046-0.010 0.051-0.039l1.639-8.842c0.004-0.021-0.005-0.032-0.026-0.034zM30.212 18.548l0.43-2.136c0.003-0.014 0.011-0.027 0.022-0.036s0.025-0.014 0.039-0.014h2.193c0.015 0 0.029 0.005 0.040 0.015s0.018 0.023 0.020 0.038l0.266 2.128c0.003 0.023-0.007 0.035-0.031 0.035h-0.773c-0.013 0-0.024 0.005-0.033 0.014s-0.014 0.021-0.014 0.033v3.301c0 0.029 0.012 0.057 0.032 0.078s0.049 0.032 0.078 0.032h3.941c0.025 0 0.050-0.010 0.068-0.028s0.028-0.043 0.028-0.068v-3.245c0-0.019-0.008-0.037-0.021-0.051s-0.031-0.022-0.050-0.022l-0.583-0.018c-0.018-0-0.036-0.007-0.050-0.019s-0.023-0.029-0.026-0.047l-1.54-9.184c-0.007-0.042 0.011-0.064 0.054-0.064l0.82-0.004c0.025-0 0.048-0.010 0.065-0.027s0.027-0.041 0.027-0.066v-3.125c0-0.024-0.009-0.047-0.026-0.064s-0.040-0.028-0.064-0.029c-2.11-0.085-4.253-0.142-6.348-0.011-0.035 0.002-0.067 0.018-0.091 0.043s-0.037 0.059-0.037 0.093l0.001 3.006c0 0.066 0.033 0.102 0.099 0.109l0.77 0.077c0.008 0.001 0.017 0.003 0.024 0.008s0.014 0.010 0.019 0.016c0.005 0.007 0.009 0.014 0.011 0.022s0.002 0.017 0.001 0.025l-1.708 9.21c-0.003 0.014-0.010 0.027-0.021 0.037s-0.025 0.015-0.040 0.016l-0.645 0.020c-0.012 0-0.023 0.005-0.031 0.013s-0.014 0.018-0.015 0.029l-0.366 3.254c-0.001 0.012-0 0.024 0.003 0.035s0.010 0.022 0.017 0.030 0.018 0.016 0.028 0.021c0.011 0.005 0.023 0.007 0.034 0.007h4.051c0.083 0 0.125-0.042 0.125-0.126l-0.001-3.274c0-0.024-0.012-0.036-0.036-0.037l-0.732-0.021c-0.019-0.001-0.027-0.011-0.023-0.029z"></path>
<path fill="#fff" d="M43.269 13.336c0.024 0.075 0.037 0.073 0.037-0.006l-0.002-2.864c0-0.021-0.010-0.034-0.030-0.040-0.157-0.044-0.314-0.084-0.47-0.119-0.408-0.091-0.271-0.676-0.276-0.973-0.016-0.874-0.018-1.544-0.006-2.011 0.009-0.394 0.298-0.354 0.587-0.279 1.199 0.311 2.383 0.674 3.552 1.086 0.217 0.076 0.286 0.221 0.286 0.453 0.002 0.752 0.002 1.504 0.001 2.255-0.001 0.576-0.449 0.364-0.796 0.303-0.024-0.004-0.036 0.006-0.036 0.030v7.589c0 0.009 0.002 0.018 0.006 0.026s0.009 0.015 0.016 0.021 0.015 0.010 0.024 0.012c0.009 0.002 0.018 0.003 0.027 0.001 0.38-0.071 0.477 0.183 0.477 0.512-0.001 0.853-0.003 1.706-0.005 2.558-0.001 0.295-0.181 0.363-0.45 0.368-0.788 0.015-1.576 0.016-2.364 0.001-0.232-0.004-0.411-0.084-0.486-0.301-0.863-2.507-1.728-5.023-2.594-7.548-0.001-0.003-0.003-0.005-0.005-0.006s-0.005-0.002-0.008-0.001c-0.003 0-0.005 0.002-0.007 0.004s-0.003 0.005-0.003 0.007v4.064c0 0.019 0.010 0.029 0.029 0.030 0.403 0.018 0.77-0.080 0.771 0.479 0.002 0.962 0.002 1.925-0.001 2.888-0.001 0.289-0.208 0.382-0.476 0.385-1.724 0.020-2.926 0.019-3.606-0.001-0.216-0.007-0.324-0.13-0.325-0.368-0.003-1.022-0.010-2.043-0.020-3.065-0.005-0.531 0.455-0.417 0.795-0.405 0.005 0 0.010-0.001 0.014-0.002s0.009-0.004 0.012-0.008c0.003-0.003 0.006-0.007 0.008-0.012s0.003-0.009 0.003-0.014v-8.77c0-0.024-0.012-0.039-0.035-0.045-0.24-0.064-0.479-0.117-0.718-0.16-0.249-0.043-0.298-0.201-0.299-0.442-0-0.881-0.001-1.763-0.001-2.644-0.001-0.375 0.14-0.511 0.52-0.45 1.41 0.223 2.574 0.447 3.491 0.672 0.182 0.045 0.24 0.23 0.305 0.432 0.694 2.138 1.38 4.256 2.058 6.355zM40.573 13.16l3.006 8.749c0.013 0.037 0.037 0.069 0.068 0.091s0.070 0.035 0.109 0.035h2.6c0.022 0 0.044-0.009 0.060-0.025s0.025-0.037 0.025-0.060l0.004-2.771c0-0.080-0.040-0.124-0.12-0.132l-0.371-0.034c-0.016-0.002-0.031-0.009-0.042-0.021s-0.017-0.027-0.017-0.043v-8.064c0-0.025 0.012-0.035 0.037-0.030l0.682 0.153c0.015 0.003 0.029 0.003 0.044-0s0.028-0.010 0.039-0.020c0.011-0.009 0.020-0.021 0.026-0.035s0.009-0.028 0.008-0.043c-0.040-0.822 0.023-1.633-0.013-2.441-0.001-0.023-0.009-0.045-0.023-0.064s-0.033-0.032-0.054-0.040c-1.253-0.447-2.525-0.833-3.816-1.158-0.008-0.002-0.017-0.002-0.025-0.001s-0.017 0.005-0.023 0.011c-0.007 0.005-0.012 0.012-0.016 0.020s-0.006 0.016-0.006 0.025v2.754c0 0.025 0.012 0.041 0.037 0.047l0.663 0.169c0.059 0.015 0.089 0.054 0.089 0.116l-0.016 4.31c0 0.008-0.002 0.015-0.007 0.022s-0.012 0.010-0.020 0.011-0.016-0-0.022-0.005c-0.007-0.004-0.011-0.011-0.014-0.018-0.838-2.586-1.672-5.159-2.502-7.72-0.029-0.092-0.053-0.169-0.155-0.192-1.054-0.243-2.201-0.462-3.44-0.658-0.064-0.011-0.128-0.010-0.193 0.003-0.022 0.004-0.035 0.017-0.037 0.040-0.014 0.13-0.021 0.231-0.021 0.301-0 0.878-0 1.755 0.001 2.632 0 0.026 0.009 0.050 0.025 0.070s0.039 0.034 0.064 0.039l0.921 0.194c0.028 0.006 0.042 0.023 0.042 0.052v9.077c0 0.098-0.049 0.146-0.147 0.143l-0.566-0.016c-0.071-0.002-0.107 0.033-0.107 0.105l0.014 3.198c0 0.025 0.010 0.050 0.028 0.068s0.043 0.028 0.068 0.028h3.74c0.029 0 0.057-0.012 0.078-0.032s0.032-0.049 0.032-0.078v-3.102c0-0.014-0.006-0.028-0.015-0.039s-0.023-0.017-0.038-0.017l-0.672-0.033c-0.017-0.001-0.032-0.008-0.044-0.020s-0.018-0.028-0.018-0.045l0.002-5.5c-0-0.006 0.002-0.012 0.006-0.017s0.009-0.008 0.015-0.009c0.006-0.001 0.012 0 0.017 0.003s0.009 0.008 0.011 0.014z"></path>
<path fill="#231f20" d="M30.236 18.577l0.732 0.021c0.024 0.001 0.036 0.013 0.036 0.037l0.001 3.274c0 0.084-0.042 0.126-0.125 0.126h-4.051c-0.012 0-0.023-0.003-0.034-0.007s-0.020-0.012-0.028-0.021-0.014-0.019-0.017-0.030c-0.004-0.011-0.005-0.023-0.003-0.035l0.366-3.254c0.001-0.011 0.007-0.022 0.015-0.029s0.019-0.012 0.031-0.013l0.645-0.020c0.015-0.001 0.029-0.006 0.040-0.016s0.019-0.023 0.021-0.037l1.708-9.21c0.002-0.008 0.001-0.017-0.001-0.025s-0.006-0.016-0.011-0.022-0.011-0.012-0.019-0.016c-0.007-0.004-0.016-0.007-0.024-0.008l-0.77-0.077c-0.066-0.006-0.099-0.043-0.099-0.109l-0.001-3.006c0-0.035 0.013-0.068 0.037-0.093s0.056-0.041 0.091-0.043c2.095-0.131 4.238-0.074 6.348 0.011 0.024 0.001 0.047 0.011 0.064 0.029s0.026 0.040 0.026 0.064v3.125c0 0.025-0.010 0.048-0.027 0.066s-0.041 0.027-0.065 0.027l-0.82 0.004c-0.043 0-0.061 0.022-0.054 0.064l1.54 9.184c0.003 0.018 0.012 0.035 0.026 0.047s0.032 0.019 0.050 0.019l0.583 0.018c0.019 0 0.037 0.008 0.050 0.022s0.021 0.032 0.021 0.051v3.245c0 0.025-0.010 0.050-0.028 0.068s-0.043 0.028-0.068 0.028h-3.941c-0.029 0-0.057-0.012-0.078-0.032s-0.032-0.049-0.032-0.078v-3.301c0-0.013 0.005-0.024 0.014-0.033s0.021-0.014 0.033-0.014h0.773c0.023 0 0.034-0.012 0.031-0.035l-0.266-2.128c-0.002-0.015-0.009-0.028-0.020-0.038s-0.025-0.015-0.040-0.015h-2.193c-0.014 0-0.028 0.005-0.039 0.014s-0.019 0.022-0.022 0.036l-0.43 2.136c-0.004 0.018 0.004 0.028 0.023 0.029zM31.066 13.581c-0.001 0.005-0 0.010 0.001 0.015s0.004 0.009 0.007 0.013 0.007 0.007 0.012 0.009c0.005 0.002 0.009 0.003 0.014 0.003l1.45 0.002c0.005-0 0.010-0.001 0.014-0.003s0.008-0.005 0.012-0.009c0.003-0.004 0.006-0.008 0.007-0.013s0.002-0.010 0.001-0.015l-0.718-4.141c-0.001-0.008-0.005-0.016-0.011-0.021s-0.014-0.008-0.022-0.009c-0.008-0-0.016 0.003-0.022 0.008s-0.010 0.013-0.012 0.021l-0.732 4.139z"></path>
<path fill="#fff" d="M24.324 7.221c0.036-0.304-0.049-0.9 0.336-0.981 0.237-0.049 0.807-0.136 1.711-0.26 0.307-0.043 0.514 0.048 0.508 0.385-0.029 1.879-0.054 3.759-0.074 5.639-0.003 0.262-0.189 0.334-0.429 0.364-0.684 0.083-1.36 0.161-2.030 0.236-0.070 0.008-0.14-0.009-0.198-0.049s-0.1-0.098-0.118-0.166c-0.199-0.727-0.679-2.075-1.662-1.828-1.458 0.366-2.041 2.95-2.027 4.181 0.013 1.12 0.228 3.098 1.43 3.675 1.247 0.599 1.952-1.23 2.175-2.173 0.048-0.204 0.167-0.285 0.363-0.298 0.895-0.061 1.679-0.107 2.352-0.138 0.263-0.012 0.427 0.101 0.383 0.379-0.312 1.982-1.31 5.029-3.248 5.918-0.994 0.457-2.187 0.409-3.156-0.104-1.84-0.974-2.95-3.356-3.213-5.342-0.406-3.060 0.615-7.762 3.501-9.495 1.065-0.64 2.183-0.614 3.355 0.075 0.023 0.014 0.036 0.007 0.040-0.019zM24.482 7.643c-0.379-0.237-0.631-0.383-0.754-0.439-2.189-0.998-4.157 1.026-4.98 2.82-0.848 1.85-1.233 3.796-1.156 5.839 0.075 1.985 0.891 4.101 2.408 5.427 1.463 1.278 3.669 1.232 4.895-0.355 1.066-1.38 1.674-3.082 1.928-4.808 0.002-0.013 0.001-0.026-0.003-0.038s-0.010-0.024-0.019-0.034c-0.009-0.010-0.020-0.017-0.032-0.022s-0.025-0.007-0.038-0.006l-2.463 0.145c-0.026 0.001-0.050 0.011-0.070 0.028s-0.033 0.040-0.038 0.065c-0.15 0.754-0.595 1.889-1.267 2.309-0.916 0.573-1.959-0.275-2.284-1.114-0.764-1.973-0.661-4.287 0.458-6.123 0.391-0.642 1.194-1.275 1.957-0.942 0.695 0.303 1.027 1.249 1.221 1.919 0.014 0.049 0.047 0.071 0.098 0.065l2.137-0.248c0.027-0.003 0.052-0.016 0.070-0.037s0.028-0.046 0.028-0.073l0.064-5.748c0-0.013-0.003-0.025-0.008-0.036s-0.013-0.022-0.022-0.030c-0.009-0.008-0.020-0.014-0.032-0.018s-0.024-0.004-0.037-0.003l-1.821 0.268c-0.077 0.011-0.118 0.056-0.123 0.133l-0.072 1.032c-0.003 0.034-0.018 0.042-0.047 0.024z"></path>
<path fill="#231f20" d="M40.573 13.16c-0.002-0.006-0.006-0.011-0.011-0.014s-0.011-0.004-0.017-0.003c-0.006 0.001-0.012 0.004-0.015 0.009s-0.006 0.011-0.006 0.017l-0.002 5.5c0 0.017 0.006 0.033 0.018 0.045s0.027 0.019 0.044 0.020l0.672 0.033c0.014 0.001 0.028 0.007 0.038 0.017s0.016 0.024 0.015 0.039v3.103c0 0.029-0.012 0.057-0.032 0.078s-0.049 0.032-0.078 0.032h-3.74c-0.025 0-0.050-0.010-0.068-0.028s-0.028-0.042-0.028-0.068l-0.014-3.198c0-0.072 0.036-0.107 0.107-0.105l0.566 0.016c0.098 0.003 0.147-0.045 0.147-0.143v-9.077c0-0.029-0.014-0.046-0.042-0.052l-0.921-0.194c-0.025-0.005-0.048-0.019-0.064-0.039s-0.025-0.045-0.025-0.070c-0.001-0.877-0.001-1.754-0.001-2.632 0-0.070 0.007-0.171 0.021-0.301 0.002-0.023 0.015-0.036 0.037-0.040 0.065-0.012 0.129-0.013 0.193-0.003 1.239 0.195 2.386 0.415 3.44 0.658 0.102 0.023 0.126 0.1 0.155 0.192 0.83 2.561 1.664 5.134 2.502 7.72 0.002 0.008 0.007 0.014 0.014 0.018s0.015 0.006 0.022 0.005 0.015-0.005 0.020-0.011c0.005-0.006 0.008-0.014 0.007-0.022l0.016-4.31c0-0.062-0.030-0.1-0.089-0.116l-0.663-0.169c-0.024-0.006-0.036-0.022-0.036-0.047v-2.754c0-0.009 0.002-0.017 0.006-0.025s0.009-0.015 0.016-0.020c0.007-0.005 0.015-0.009 0.023-0.011s0.017-0.002 0.025 0.001c1.291 0.325 2.563 0.711 3.816 1.158 0.022 0.008 0.041 0.022 0.054 0.040s0.022 0.041 0.023 0.064c0.035 0.808-0.028 1.62 0.013 2.441 0.001 0.015-0.002 0.029-0.008 0.043s-0.015 0.025-0.026 0.035c-0.011 0.009-0.025 0.016-0.039 0.020s-0.029 0.004-0.044 0l-0.682-0.153c-0.025-0.005-0.037 0.004-0.037 0.030v8.064c0 0.016 0.006 0.031 0.017 0.043s0.026 0.019 0.042 0.021l0.371 0.034c0.080 0.008 0.12 0.052 0.12 0.132l-0.004 2.771c0 0.022-0.009 0.044-0.025 0.060s-0.038 0.025-0.060 0.025h-2.6c-0.039 0-0.077-0.012-0.109-0.035s-0.056-0.055-0.068-0.092l-3.006-8.749z"></path>
<path fill="#231f20" d="M24.529 7.619l0.072-1.032c0.005-0.078 0.046-0.122 0.123-0.133l1.821-0.268c0.012-0.002 0.025-0.001 0.037 0.003s0.023 0.010 0.032 0.018c0.009 0.008 0.017 0.018 0.022 0.030s0.008 0.024 0.008 0.036l-0.064 5.748c-0 0.027-0.010 0.053-0.028 0.073s-0.043 0.033-0.070 0.037l-2.137 0.248c-0.051 0.006-0.084-0.016-0.098-0.065-0.194-0.67-0.526-1.616-1.221-1.919-0.763-0.333-1.566 0.3-1.957 0.942-1.119 1.836-1.222 4.15-0.458 6.123 0.326 0.839 1.368 1.687 2.284 1.114 0.672-0.421 1.118-1.555 1.267-2.309 0.005-0.025 0.018-0.048 0.038-0.065s0.044-0.027 0.070-0.028l2.463-0.145c0.013-0.001 0.026 0.002 0.038 0.006s0.023 0.012 0.032 0.022c0.009 0.010 0.015 0.021 0.019 0.034s0.005 0.026 0.003 0.038c-0.253 1.726-0.861 3.428-1.928 4.808-1.226 1.587-3.432 1.633-4.896 0.355-1.517-1.326-2.333-3.442-2.408-5.427-0.077-2.043 0.308-3.99 1.156-5.839 0.822-1.794 2.791-3.819 4.98-2.82 0.123 0.056 0.374 0.203 0.754 0.439 0.029 0.018 0.045 0.010 0.047-0.024z"></path>
<path fill="#fff" d="M13.982 19.158l-0.148-0.942c-0.001-0.005-0.003-0.010-0.005-0.014s-0.006-0.008-0.011-0.011c-0.004-0.003-0.009-0.005-0.014-0.006s-0.010-0.001-0.015-0l-2.025 0.393c-0.010 0.002-0.018 0.006-0.026 0.013s-0.013 0.015-0.016 0.024l-0.258 0.797c-0.001 0.005-0.002 0.010-0.001 0.014s0.003 0.009 0.006 0.013c0.003 0.004 0.007 0.007 0.012 0.008s0.009 0.002 0.014 0.002c0.381-0.052 0.614-0.097 0.614 0.384-0 0.693-0 1.386 0.001 2.078 0 0.248-0.14 0.371-0.421 0.371-1.406-0.002-2.517-0.007-3.334-0.013-0.452-0.003-0.413-0.312-0.396-0.675 0.021-0.445 0.041-0.891 0.060-1.336 0.019-0.417 0.346-0.398 0.697-0.442 0.018-0.002 0.035-0.010 0.050-0.021s0.025-0.027 0.030-0.045l1.791-5.712c0.008-0.024-0.001-0.033-0.026-0.028-0.339 0.072-0.555 0.111-0.557-0.329-0.002-0.557-0.001-1.113 0.001-1.669 0-0.116 0.123-0.231 0.232-0.297 1.908-1.167 3.9-2.167 5.976-3 0.33-0.132 0.491-0.008 0.494 0.329 0.010 0.791 0.004 1.562-0.019 2.312-0.002 0.053-0.018 0.104-0.048 0.148s-0.071 0.078-0.12 0.099l-0.643 0.274c-0.021 0.009-0.030 0.025-0.027 0.048l1.031 6.967c0.002 0.010 0.007 0.019 0.015 0.025s0.018 0.009 0.028 0.008c0.34-0.028 0.695-0.153 0.75 0.34 0.095 0.846 0.185 1.692 0.271 2.539 0.047 0.452-0.222 0.47-0.591 0.465-1.426-0.018-2.646-0.022-3.661-0.011-0.319 0.004-0.393-0.17-0.393-0.465 0-0.742 0-1.483 0-2.225 0-0.349 0.408-0.351 0.65-0.374 0.004-0 0.008-0.002 0.012-0.004s0.007-0.005 0.010-0.008 0.005-0.007 0.006-0.011c0.001-0.004 0.001-0.008 0.001-0.013zM8.909 20.010l-0.601 0.102c-0.016 0.003-0.031 0.011-0.041 0.023s-0.017 0.028-0.018 0.044l-0.072 1.77c-0.001 0.011 0.001 0.022 0.005 0.033s0.010 0.020 0.017 0.028 0.017 0.014 0.027 0.019c0.010 0.004 0.021 0.007 0.032 0.007h3.538c0.011 0 0.022-0.002 0.032-0.007s0.019-0.010 0.027-0.018c0.008-0.008 0.014-0.017 0.018-0.027s0.006-0.021 0.006-0.032l-0.006-2.279c0-0.025-0.012-0.036-0.037-0.033l-0.575 0.059c-0.086 0.009-0.116-0.028-0.090-0.111l0.357-1.122c0.007-0.023 0.021-0.044 0.040-0.061s0.041-0.027 0.065-0.032l2.323-0.449c0.008-0.002 0.017-0.001 0.025 0s0.016 0.005 0.022 0.010c0.007 0.005 0.012 0.011 0.017 0.018s0.007 0.015 0.008 0.023l0.206 1.339c0.007 0.044-0.011 0.069-0.055 0.075l-0.588 0.081c-0.015 0.002-0.028 0.009-0.038 0.020s-0.015 0.025-0.015 0.040v2.427c0 0.021 0.008 0.041 0.023 0.056s0.035 0.023 0.056 0.023h4.034c0.012-0 0.023-0.003 0.034-0.007s0.020-0.012 0.028-0.020 0.014-0.019 0.017-0.030c0.004-0.011 0.005-0.023 0.004-0.034l-0.293-2.75c-0.005-0.050-0.033-0.074-0.083-0.071l-0.586 0.040c-0.021 0.001-0.042-0.005-0.059-0.019s-0.028-0.033-0.031-0.054l-1.074-7.261c-0.008-0.051 0.012-0.087 0.060-0.107l0.765-0.324c0.013-0.006 0.024-0.015 0.032-0.027s0.012-0.026 0.012-0.040v-2.415c-0-0.007-0.002-0.014-0.005-0.020s-0.008-0.011-0.014-0.015c-0.006-0.004-0.012-0.006-0.019-0.007s-0.014 0-0.020 0.003c-2.121 0.846-4.155 1.864-6.102 3.055-0.028 0.017-0.051 0.041-0.067 0.070s-0.024 0.061-0.025 0.094l0.002 1.696c-0 0.010 0.002 0.020 0.007 0.029s0.011 0.017 0.020 0.022c0.008 0.006 0.018 0.009 0.028 0.011s0.020 0 0.030-0.004l0.613-0.231c0.003-0.001 0.007-0.002 0.010-0.001s0.007 0.002 0.009 0.005c0.003 0.002 0.005 0.005 0.005 0.009s0.001 0.007 0 0.010l-1.98 6.318c-0.004 0.013-0.012 0.025-0.022 0.035s-0.023 0.015-0.037 0.018z"></path>
<path fill="#fff" d="M48.868 11.909l-0.624-0.287c-0.048-0.022-0.088-0.057-0.117-0.101s-0.044-0.095-0.044-0.148c-0.007-0.71-0.013-1.435-0.016-2.173-0.002-0.395 0.258-0.401 0.549-0.282 1.715 0.705 3.376 1.518 4.985 2.441 0.514 0.295 0.856 0.501 1.026 0.62 0.107 0.074 0.142 0.23 0.143 0.37 0.002 0.474 0.003 0.947 0.002 1.42-0.001 0.348-0.221 0.475-0.54 0.299-0.004-0.002-0.009-0.003-0.014-0.003s-0.010 0.002-0.013 0.005c-0.004 0.003-0.007 0.007-0.008 0.012s-0.001 0.010 0 0.014l1.706 5.644c0.004 0.011 0.010 0.021 0.018 0.029s0.018 0.013 0.029 0.016c0.221 0.055 0.63 0.053 0.669 0.352 0.034 0.261 0.075 0.732 0.122 1.413 0.038 0.564 0.058 0.72-0.574 0.72-1.11 0.002-2.219 0.001-3.327-0.003-0.31-0.001-0.44-0.102-0.447-0.424-0.013-0.702-0.016-1.403-0.008-2.102 0.005-0.416 0.284-0.359 0.582-0.343 0.024 0.001 0.032-0.010 0.026-0.032l-0.249-0.807c-0.006-0.019-0.016-0.035-0.031-0.048s-0.032-0.022-0.052-0.025l-2.056-0.383c-0.018-0.003-0.028 0.004-0.031 0.021l-0.173 0.97c-0.005 0.026 0.006 0.041 0.033 0.045l0.496 0.069c0.067 0.010 0.129 0.043 0.173 0.094s0.069 0.117 0.069 0.185c0 0.77 0 1.554 0 2.355 0 0.226-0.094 0.423-0.334 0.424-1.053 0.005-2.107 0.005-3.161 0.001-0.68-0.003-0.68-0.177-0.664-0.8 0.019-0.723 0.014-1.447 0.014-2.17 0-0.544 0.38-0.384 0.729-0.394 0.028-0.001 0.044-0.015 0.048-0.042l1.091-6.903c0.004-0.024-0.006-0.041-0.028-0.051zM50.132 19.295l0.246-1.369c0.011-0.061 0.046-0.086 0.107-0.074l2.298 0.429c0.036 0.007 0.070 0.023 0.097 0.048s0.047 0.056 0.058 0.090l0.37 1.202c0.001 0.005 0.002 0.010 0.001 0.015s-0.003 0.010-0.007 0.014c-0.003 0.004-0.007 0.007-0.012 0.009s-0.010 0.003-0.015 0.002l-0.581-0.064c-0.009-0.001-0.019 0-0.028 0.003s-0.018 0.008-0.025 0.014c-0.007 0.006-0.013 0.014-0.017 0.023s-0.006 0.018-0.006 0.028v2.29c0 0.021 0.009 0.042 0.024 0.057s0.036 0.024 0.057 0.024h3.736c0.016 0 0.032-0.003 0.046-0.010s0.028-0.016 0.038-0.027c0.011-0.012 0.019-0.026 0.024-0.041s0.007-0.031 0.006-0.047l-0.151-1.72c-0.002-0.024-0.012-0.047-0.028-0.066s-0.038-0.030-0.062-0.035l-0.481-0.089c-0.027-0.005-0.052-0.017-0.072-0.036s-0.035-0.042-0.043-0.068l-1.869-6.188c-0.002-0.007-0.002-0.014-0-0.021s0.006-0.013 0.011-0.018c0.005-0.005 0.012-0.008 0.019-0.009s0.014 0 0.021 0.003l0.569 0.257c0.010 0.004 0.020 0.006 0.030 0.005s0.020-0.004 0.029-0.010c0.009-0.006 0.016-0.013 0.021-0.023s0.008-0.019 0.008-0.030c0.002-0.511 0.002-1.014-0.001-1.508-0.001-0.077-0.035-0.189-0.094-0.226-1.939-1.193-3.963-2.213-6.071-3.058-0.057-0.023-0.085-0.004-0.085 0.058v2.231c0 0.011 0.003 0.021 0.009 0.030s0.014 0.016 0.023 0.021l0.782 0.36c0.012 0.005 0.021 0.014 0.027 0.025s0.008 0.024 0.006 0.036l-1.146 7.239c-0.003 0.022-0.015 0.042-0.033 0.056s-0.040 0.021-0.063 0.020l-0.567-0.038c-0.012-0.001-0.023 0.001-0.035 0.005s-0.021 0.010-0.030 0.018-0.015 0.018-0.020 0.028c-0.005 0.011-0.007 0.022-0.007 0.034v2.712c0 0.033 0.013 0.065 0.037 0.089s0.055 0.037 0.089 0.037h3.471c0.029 0 0.057-0.012 0.078-0.032s0.032-0.048 0.032-0.077l0.001-2.406c0-0.022-0.008-0.044-0.023-0.060s-0.035-0.027-0.057-0.030l-0.711-0.092c-0.025-0.003-0.035-0.017-0.031-0.042z"></path>
<path fill="#231f20" d="M8.969 19.958l1.98-6.318c0.001-0.003 0.001-0.007-0-0.010s-0.003-0.006-0.005-0.009c-0.003-0.002-0.006-0.004-0.009-0.005s-0.007-0-0.010 0.001l-0.613 0.231c-0.009 0.004-0.020 0.005-0.030 0.004s-0.020-0.005-0.028-0.011c-0.008-0.006-0.015-0.013-0.020-0.022s-0.007-0.019-0.007-0.029l-0.002-1.696c0-0.033 0.008-0.065 0.025-0.094s0.039-0.053 0.067-0.070c1.948-1.191 3.982-2.209 6.102-3.055 0.006-0.003 0.013-0.004 0.020-0.003s0.013 0.003 0.019 0.007c0.006 0.004 0.010 0.009 0.014 0.015s0.005 0.013 0.005 0.020v2.415c-0 0.014-0.004 0.028-0.012 0.040s-0.019 0.021-0.032 0.027l-0.765 0.324c-0.047 0.020-0.067 0.056-0.060 0.107l1.074 7.261c0.003 0.021 0.014 0.041 0.031 0.054s0.038 0.020 0.059 0.019l0.586-0.040c0.050-0.003 0.078 0.020 0.083 0.071l0.293 2.75c0.001 0.012 0 0.023-0.004 0.034s-0.010 0.021-0.017 0.030c-0.008 0.009-0.017 0.016-0.028 0.020s-0.022 0.007-0.034 0.007h-4.034c-0.021 0-0.041-0.008-0.056-0.023s-0.023-0.035-0.023-0.056v-2.427c0-0.015 0.005-0.029 0.015-0.040s0.023-0.018 0.038-0.020l0.588-0.081c0.044-0.006 0.062-0.031 0.055-0.075l-0.206-1.339c-0.001-0.008-0.004-0.016-0.008-0.023s-0.010-0.013-0.017-0.018c-0.007-0.005-0.014-0.008-0.022-0.010s-0.016-0.002-0.025-0l-2.323 0.449c-0.024 0.005-0.047 0.016-0.065 0.032s-0.032 0.037-0.040 0.061l-0.357 1.122c-0.026 0.083 0.004 0.119 0.090 0.111l0.575-0.059c0.025-0.003 0.037 0.008 0.037 0.033l0.006 2.279c0 0.011-0.002 0.022-0.006 0.032s-0.010 0.019-0.018 0.027-0.017 0.014-0.027 0.018c-0.010 0.004-0.021 0.007-0.032 0.007h-3.538c-0.011 0-0.022-0.002-0.032-0.007s-0.019-0.011-0.027-0.019c-0.008-0.008-0.014-0.018-0.017-0.028s-0.006-0.021-0.005-0.033l0.072-1.77c0.001-0.016 0.007-0.032 0.018-0.044s0.025-0.020 0.041-0.023l0.601-0.102c0.014-0.003 0.027-0.009 0.037-0.018s0.018-0.021 0.022-0.035zM13.283 12.815c-0.001-0.008-0.005-0.016-0.012-0.022s-0.014-0.009-0.023-0.010c-0.009-0.001-0.017 0.002-0.024 0.007s-0.012 0.012-0.015 0.020l-1.032 3.596c-0.002 0.006-0.002 0.013-0.001 0.019s0.005 0.012 0.009 0.017c0.004 0.005 0.010 0.008 0.016 0.010s0.013 0.002 0.019 0.001l1.524-0.303c0.010-0.002 0.018-0.007 0.024-0.015s0.008-0.018 0.006-0.027l-0.492-3.293z"></path>
<path fill="#231f20" d="M50.162 19.337l0.711 0.092c0.022 0.003 0.042 0.014 0.057 0.030s0.023 0.038 0.023 0.060l-0.001 2.406c0 0.029-0.012 0.057-0.032 0.077s-0.049 0.032-0.078 0.032h-3.471c-0.033 0-0.065-0.013-0.089-0.037s-0.037-0.055-0.037-0.089v-2.712c0-0.012 0.002-0.023 0.007-0.034s0.011-0.020 0.020-0.028c0.009-0.008 0.019-0.014 0.030-0.018s0.023-0.006 0.035-0.005l0.567 0.038c0.023 0.001 0.045-0.006 0.063-0.020s0.029-0.034 0.033-0.056l1.146-7.239c0.002-0.012-0-0.025-0.006-0.036s-0.016-0.020-0.027-0.025l-0.782-0.36c-0.010-0.005-0.018-0.012-0.023-0.021s-0.009-0.019-0.009-0.030v-2.231c0-0.062 0.028-0.081 0.085-0.058 2.108 0.845 4.132 1.865 6.071 3.058 0.059 0.036 0.093 0.148 0.094 0.226 0.002 0.495 0.002 0.997 0.001 1.508 0 0.010-0.003 0.021-0.008 0.030s-0.012 0.017-0.021 0.022c-0.009 0.006-0.019 0.009-0.029 0.010s-0.021-0.001-0.030-0.005l-0.569-0.257c-0.007-0.003-0.014-0.004-0.021-0.003s-0.014 0.004-0.019 0.009c-0.005 0.005-0.009 0.011-0.011 0.018s-0.002 0.014 0 0.021l1.869 6.188c0.008 0.026 0.023 0.049 0.043 0.068s0.045 0.030 0.072 0.036l0.481 0.089c0.024 0.005 0.046 0.017 0.062 0.035s0.026 0.041 0.028 0.066l0.151 1.72c0.002 0.016-0.001 0.032-0.006 0.047s-0.013 0.029-0.024 0.041-0.024 0.021-0.038 0.028c-0.015 0.006-0.030 0.010-0.046 0.010h-3.736c-0.021 0-0.042-0.008-0.057-0.024s-0.024-0.036-0.024-0.057v-2.29c0-0.010 0.002-0.019 0.006-0.028s0.010-0.016 0.017-0.023c0.007-0.006 0.015-0.011 0.025-0.014s0.019-0.004 0.028-0.003l0.581 0.064c0.005 0 0.010-0 0.015-0.002s0.009-0.005 0.012-0.009c0.003-0.004 0.006-0.009 0.007-0.014s0.001-0.010-0.001-0.015l-0.37-1.202c-0.011-0.035-0.031-0.066-0.058-0.091s-0.061-0.041-0.097-0.048l-2.298-0.429c-0.060-0.011-0.096 0.013-0.107 0.074l-0.246 1.369c-0.005 0.025 0.006 0.039 0.031 0.042zM50.783 16.078l1.467 0.286c0.006 0.001 0.012 0.001 0.018-0.001s0.011-0.005 0.016-0.010c0.004-0.005 0.007-0.010 0.009-0.016s0.001-0.012-0.001-0.018l-0.973-3.479c-0.002-0.007-0.006-0.012-0.011-0.016-0.039-0.033-0.063-0.017-0.075 0.048-0.181 1.045-0.358 2.076-0.53 3.092-0.004 0.025 0.001 0.051 0.016 0.073s0.037 0.036 0.063 0.041z"></path>
<path fill="#fff" d="M31.066 13.581l0.732-4.139c0.001-0.008 0.005-0.016 0.012-0.021s0.014-0.008 0.022-0.008 0.016 0.003 0.022 0.009c0.006 0.005 0.010 0.013 0.011 0.021l0.718 4.14c0.001 0.005 0.001 0.010-0.001 0.015s-0.004 0.009-0.007 0.013-0.007 0.007-0.012 0.009c-0.005 0.002-0.009 0.003-0.014 0.003l-1.45-0.002c-0.005-0-0.010-0.001-0.014-0.003s-0.008-0.005-0.012-0.009c-0.003-0.004-0.006-0.008-0.007-0.013s-0.002-0.010-0.001-0.015zM31.333 13.366c-0 0.003-0 0.006 0 0.008s0.002 0.005 0.004 0.008 0.004 0.004 0.007 0.005 0.005 0.002 0.008 0.002l0.941 0.003c0.003 0 0.006-0.001 0.008-0.002s0.005-0.003 0.007-0.005 0.003-0.005 0.004-0.007 0.001-0.006 0.001-0.008l-0.461-2.689c-0.001-0.005-0.003-0.009-0.007-0.011s-0.008-0.005-0.012-0.005c-0.005 0-0.009 0.002-0.013 0.005s-0.006 0.007-0.007 0.011l-0.48 2.686z"></path>
<path fill="#231f20" d="M31.333 13.367l0.479-2.686c0.001-0.005 0.003-0.009 0.007-0.011s0.008-0.005 0.013-0.005c0.005 0 0.009 0.002 0.012 0.005s0.006 0.007 0.007 0.011l0.461 2.689c0 0.003 0 0.006-0.001 0.008s-0.002 0.005-0.004 0.007c-0.002 0.002-0.004 0.004-0.007 0.005s-0.006 0.002-0.008 0.002l-0.94-0.003c-0.003-0-0.006-0.001-0.008-0.002s-0.005-0.003-0.007-0.005-0.003-0.005-0.004-0.008-0.001-0.006-0-0.008zM31.595 13.13c-0.001 0.007-0.001 0.014 0.001 0.021s0.005 0.013 0.010 0.018c0.004 0.005 0.010 0.010 0.016 0.013s0.013 0.004 0.020 0.004l0.361 0.001c0.007 0 0.014-0.001 0.020-0.004s0.012-0.007 0.017-0.012c0.005-0.005 0.008-0.012 0.010-0.018s0.002-0.014 0.001-0.021l-0.178-1.025c-0.002-0.011-0.008-0.021-0.016-0.028s-0.019-0.011-0.030-0.011-0.022 0.004-0.030 0.011c-0.009 0.007-0.014 0.017-0.017 0.027l-0.185 1.024z"></path>
<path fill="#231f20" d="M56.103 12.906c0 0.111-0.044 0.218-0.123 0.296s-0.185 0.123-0.296 0.123c-0.111 0-0.218-0.044-0.296-0.123s-0.123-0.185-0.123-0.296c0-0.111 0.044-0.218 0.123-0.296s0.185-0.123 0.296-0.123c0.111 0 0.218 0.044 0.296 0.123s0.123 0.185 0.123 0.296zM55.875 13.161c0.156-0.085 0.152-0.323 0.070-0.452-0.215-0.337-0.694-0.024-0.554 0.326 0.079 0.197 0.318 0.27 0.484 0.126z"></path>
<path fill="#fff" d="M55.875 13.162l-0.082-0.179c-0.002-0.005-0.003-0.011-0.003-0.017s0.003-0.011 0.006-0.016l0.090-0.123c0.007-0.009 0.010-0.020 0.009-0.031s-0.005-0.021-0.012-0.030c-0.091-0.101-0.202-0.127-0.333-0.080-0.010 0.004-0.019 0.011-0.025 0.019s-0.010 0.019-0.009 0.030l0.002 0.387c-0 0.006 0.002 0.012 0.005 0.018s0.008 0.010 0.014 0.012c0.006 0.003 0.012 0.003 0.018 0.002s0.012-0.004 0.017-0.008c0.050-0.046 0.061-0.1 0.033-0.162-0.003-0.007-0.004-0.014-0.002-0.021s0.006-0.013 0.012-0.018c0.006-0.004 0.013-0.007 0.020-0.006s0.014 0.003 0.020 0.008c0.093 0.077 0.081 0.182 0.221 0.213-0.166 0.143-0.405 0.070-0.484-0.126-0.141-0.35 0.339-0.663 0.554-0.326 0.082 0.129 0.086 0.367-0.070 0.452z"></path>
<path fill="#231f20" d="M55.875 13.162c-0.14-0.031-0.128-0.136-0.221-0.213-0.005-0.005-0.012-0.007-0.019-0.008s-0.014 0.002-0.020 0.006c-0.006 0.004-0.010 0.011-0.012 0.018s-0.001 0.014 0.002 0.021c0.028 0.062 0.017 0.116-0.033 0.162-0.005 0.004-0.010 0.007-0.017 0.008s-0.013 0-0.018-0.002c-0.006-0.003-0.011-0.007-0.014-0.012s-0.005-0.011-0.005-0.018l-0.002-0.387c0-0.011 0.003-0.021 0.010-0.030s0.015-0.016 0.025-0.019c0.131-0.047 0.242-0.021 0.333 0.080 0.007 0.008 0.012 0.019 0.012 0.030s-0.003 0.022-0.009 0.031l-0.090 0.123c-0.003 0.005-0.006 0.010-0.006 0.016s0.001 0.012 0.003 0.017l0.082 0.179zM55.785 12.813c0.001-0.008-0.001-0.017-0.006-0.025s-0.011-0.015-0.019-0.022c-0.008-0.006-0.018-0.012-0.029-0.016s-0.023-0.006-0.035-0.007c-0.025-0.002-0.049 0.004-0.067 0.014s-0.029 0.026-0.030 0.043c-0.001 0.008 0.001 0.017 0.006 0.025s0.011 0.015 0.019 0.022c0.008 0.006 0.018 0.012 0.029 0.016s0.023 0.006 0.036 0.007c0.025 0.002 0.049-0.004 0.067-0.014s0.029-0.026 0.030-0.043z"></path>
<path fill="#fff" d="M55.688 12.87c0.052 0.003 0.095-0.022 0.097-0.057s-0.038-0.066-0.089-0.069-0.095 0.022-0.097 0.057c-0.002 0.035 0.038 0.066 0.089 0.069z"></path>
<path fill="#fff" d="M13.283 12.814l0.492 3.293c0.002 0.010-0.001 0.020-0.006 0.027s-0.014 0.013-0.024 0.015l-1.524 0.303c-0.006 0.001-0.013 0.001-0.019-0.001s-0.012-0.006-0.016-0.010c-0.004-0.005-0.008-0.011-0.009-0.017s-0.001-0.013 0.001-0.019l1.032-3.596c0.002-0.008 0.008-0.015 0.015-0.020s0.016-0.007 0.024-0.007c0.009 0.001 0.017 0.004 0.023 0.010s0.010 0.014 0.012 0.022zM13.198 13.795c-0-0.004-0.002-0.009-0.006-0.012s-0.007-0.005-0.012-0.005c-0.004-0-0.009 0.001-0.012 0.004s-0.006 0.006-0.007 0.011l-0.669 2.346c-0.001 0.003-0.001 0.006-0 0.010s0.002 0.006 0.005 0.009c0.002 0.002 0.005 0.004 0.008 0.005s0.006 0.001 0.010 0l0.991-0.196c0.005-0.001 0.009-0.004 0.012-0.008s0.004-0.009 0.003-0.014l-0.322-2.151z"></path>
<path fill="#fff" d="M50.783 16.079c-0.025-0.005-0.048-0.020-0.063-0.041s-0.020-0.047-0.016-0.073c0.172-1.016 0.348-2.047 0.53-3.092 0.011-0.065 0.036-0.081 0.075-0.048 0.005 0.004 0.009 0.010 0.011 0.016l0.973 3.478c0.002 0.006 0.002 0.012 0.001 0.018s-0.004 0.012-0.009 0.016c-0.004 0.005-0.010 0.008-0.016 0.010s-0.012 0.002-0.018 0.001l-1.467-0.286zM51.315 13.742l-0.363 2.111c-0.002 0.008 0 0.017 0.005 0.023s0.012 0.012 0.020 0.013l0.981 0.187c0.003 0.001 0.007 0 0.010-0.001s0.006-0.003 0.009-0.005 0.004-0.005 0.005-0.009c0.001-0.003 0.001-0.007-0-0.010l-0.649-2.31c-0.001-0.002-0.002-0.004-0.004-0.005s-0.004-0.002-0.006-0.002c-0.002 0-0.004 0.001-0.006 0.002s-0.003 0.003-0.003 0.005z"></path>
<path fill="#231f20" d="M50.953 15.852l0.363-2.111c0-0.002 0.001-0.004 0.003-0.005s0.004-0.002 0.006-0.002c0.002-0 0.004 0 0.006 0.002s0.003 0.003 0.004 0.005l0.649 2.31c0.001 0.003 0.001 0.007 0 0.010s-0.002 0.006-0.005 0.009-0.005 0.004-0.009 0.005c-0.003 0.001-0.007 0.001-0.010 0.001l-0.981-0.187c-0.008-0.002-0.015-0.006-0.020-0.013s-0.007-0.015-0.005-0.023zM51.347 14.867l-0.141 0.788c-0.003 0.016 0.001 0.032 0.010 0.045s0.023 0.022 0.038 0.025l0.364 0.067c0.009 0.002 0.017 0.001 0.026-0.002s0.015-0.008 0.021-0.014c0.006-0.007 0.010-0.015 0.011-0.023s0.001-0.017-0.002-0.026c-0.091-0.272-0.167-0.549-0.227-0.831-0.009-0.044-0.031-0.064-0.066-0.060-0.008 0.001-0.016 0.004-0.022 0.010s-0.010 0.013-0.012 0.021z"></path>
<path fill="#231f20" d="M13.198 13.795l0.322 2.151c0.001 0.005-0 0.010-0.003 0.014s-0.007 0.007-0.012 0.008l-0.991 0.196c-0.003 0.001-0.007 0.001-0.010-0s-0.006-0.003-0.008-0.005c-0.002-0.002-0.004-0.005-0.005-0.009s-0.001-0.007 0-0.010l0.669-2.346c0.001-0.004 0.004-0.008 0.007-0.011s0.008-0.004 0.012-0.004c0.004 0 0.009 0.002 0.012 0.005s0.005 0.007 0.006 0.012zM13.138 14.876c-0.001-0.007-0.005-0.013-0.010-0.018s-0.012-0.007-0.019-0.008c-0.007-0-0.014 0.002-0.020 0.005s-0.010 0.010-0.012 0.017l-0.275 0.967c-0.002 0.005-0.002 0.011-0 0.016s0.004 0.010 0.007 0.014c0.004 0.004 0.008 0.007 0.013 0.009s0.010 0.002 0.016 0.001l0.413-0.077c0.008-0.001 0.015-0.006 0.020-0.013s0.007-0.015 0.006-0.023l-0.138-0.89z"></path>
<path fill="#fff" d="M26.61 18.927l-0.033-0.005c-0.009-0.079 0.005-0.132 0.043-0.159 0.027-0.019 0.037-0.013 0.028 0.020l-0.038 0.144z"></path>
</svg>
