<!-- Generated by IcoMoon.io -->
<svg version="1.1" xmlns="http://www.w3.org/2000/svg" width="58" height="32" viewBox="0 0 58 32">
<title>beaphar</title>
<path fill="#fff" d="M0 0h57.6v32h-57.6v-32zM2.972 13.428l-0.467 5.036q0.027 2.074 1.528 3.498l0.872 0.66c1.393 0.819 2.748 0.89 4.344 0.847h44.899q0.034 0 0.037-0.034 0.449-4.709 0.886-9.402 0.046-0.492 0.027-0.883c-0.141-2.032-1.491-3.663-3.392-4.329q-0.963-0.341-1.834-0.341-4.368 0-8.736 0l-37.684 0.001c-0.011-0-0.019 0.008-0.020 0.018v0l-0.46 4.929z"></path>
<path fill="#f08200" d="M7.537 8.481q-0.014 0.013-0.047 0.017c-0.004 0-0.007 0.003-0.007 0.007s0.003 0.007 0.007 0.007c0 0 0 0 0 0h0.044q0.044 0 0.021 0.037-0.035 0.054-0.060 0.175c-0.023 0.112-0.153 0.286-0.241 0.401q-0.025 0.033 0.013 0.015l0.12-0.056c0.002-0.001 0.004-0.001 0.006-0.001 0.008 0 0.015 0.007 0.015 0.015 0 0.004-0.002 0.008-0.005 0.011v0c-0.694 0.61-1.354 1.312-1.985 1.915q-0.48 0.459-0.858 0.85c-0.109 0.114-0.24 0.203-0.332 0.307-0.331 0.374-0.609 0.652-1.039 0.817q-0.029 0.012-0.042 0.040l-0.177 0.39 0.46-4.929c0.001-0.010 0.010-0.018 0.020-0.018h4.085z"></path>
<path fill="#ee670a" d="M7.537 8.481h5.183l0.157 0.015q0.010 0.001 0.002 0.007-0.055 0.041-0.119 0.057-0.024 0.006-0.032 0.028c-0.060 0.157-0.081 0.31-0.204 0.429q-0.18 0.174-0.403 0.3c-0.014 0.008-0.025 0.018-0.032 0.032l-0 0q-0.115 0.192-0.328 0.211-0.035 0.003-0.059 0.028c-0.114 0.115-0.202 0.285-0.335 0.372q-0.083 0.054-0.131 0.106-0.408 0.44-0.867 0.829c-0.014 0.013-0.021 0.032-0.016 0.051l0 0q0.020 0.079-0.049 0.103-0.030 0.010-0.030-0.022v-0.052q0-0.036-0.030-0.015-0.156 0.11-0.326 0.131-0.588-0.056-1.204-0.039c-0.231 0.006-0.38 0.063-0.403 0.308q-0.084 0.909-0.163 1.826-0.453 0.347-0.735 0.657-0.033 0.035-0.031 0.1 0.001 0.031-0.029 0.040-0.145 0.037-0.262 0.179-0.13 0.159-0.517 0.584c-0.047 0.052-0.090 0.158-0.131 0.191-0.487 0.401-0.868 0.863-1.347 1.289-0.117 0.104-0.216 0.259-0.369 0.356q-0.030 0.019-0.042 0.052-0.012 0.030-0.037 0.049-0.123 0.092-0.19 0.232-0.013 0.026-0.036 0.043-0.252 0.186-0.472 0.407c-0.273 0.275-0.589 0.522-0.839 0.827q-0.019 0.023-0.047 0.031-0.221 0.059-0.425 0.173-0.022 0.012-0.015 0.036l0.010 0.034q0.014 0.044-0.019 0.012l-0.022-0.022q-0.016-0.016-0.034-0.003-0.022 0.017-0.053 0.010l0.467-5.036 0.177-0.39q0.013-0.028 0.042-0.040c0.43-0.164 0.708-0.442 1.039-0.817 0.092-0.104 0.223-0.193 0.332-0.307q0.378-0.391 0.858-0.85c0.63-0.603 1.29-1.305 1.985-1.915 0.003-0.003 0.005-0.007 0.005-0.011 0-0.008-0.007-0.015-0.015-0.015-0.002 0-0.004 0.001-0.006 0.001l0-0-0.12 0.056q-0.038 0.018-0.013-0.015c0.088-0.115 0.218-0.289 0.241-0.401q0.026-0.121 0.060-0.175 0.023-0.037-0.021-0.037h-0.044c-0 0-0 0-0 0-0.004 0-0.007-0.003-0.007-0.007s0.003-0.007 0.007-0.007h0q0.033-0.004 0.047-0.017z"></path>
<path fill="#ed4f14" d="M12.719 8.481l4.16 0.001 0.199 0.015c0.011 0.001 0.019 0.010 0.019 0.021 0 0.008-0.004 0.014-0.010 0.018l-0 0-0.057 0.032q-0.026 0.015-0.017 0.044c0.080 0.253-0.244 0.446-0.445 0.58q-0.113 0.075-0.374 0.326-0.003 0.003-0.237 0.249c-0.154 0.162-0.339 0.272-0.479 0.465-0.148 0.202-0.362 0.328-0.515 0.54q-0.106 0.146-0.534 0.445-0.028 0.019-0.028 0.052v0.028q0 0.033-0.025 0.054-0.258 0.217-0.34 0.333-0.145 0.209-0.316 0.281-0.029 0.012-0.045 0.038-0.127 0.203-0.308 0.355c-0.25 0.21-0.417 0.443-0.705 0.612-0.017 0.010-0.030 0.027-0.035 0.046l-0 0.001-0.079 0.3c-0.892-0.526-2.040-0.291-2.709 0.491-0.003 0.003-0.007 0.006-0.012 0.006-0.009 0-0.016-0.007-0.016-0.016 0-0 0-0.001 0-0.001v0q0.109-1.182 0.212-2.373c0.013-0.146-0.029-0.212-0.106-0.328q0.17-0.020 0.326-0.131 0.030-0.021 0.030 0.015v0.052q0 0.032 0.030 0.022 0.070-0.024 0.049-0.103c-0.005-0.019 0.002-0.039 0.016-0.051l0-0q0.46-0.389 0.867-0.829 0.048-0.052 0.131-0.106c0.133-0.088 0.221-0.257 0.335-0.372q0.024-0.025 0.059-0.028 0.212-0.019 0.328-0.211c0.008-0.014 0.019-0.024 0.032-0.032l0-0q0.223-0.125 0.403-0.3c0.123-0.119 0.144-0.272 0.204-0.429q0.008-0.022 0.032-0.028 0.064-0.016 0.119-0.057 0.008-0.006-0.002-0.007l-0.157-0.015z"></path>
<path fill="#ec4318" d="M16.879 8.481l2.624-0.001q0.061 0.013 0.102 0.037 0.034 0.020-0.005 0.026l-0.024 0.003q-0.035 0.005-0.019 0.036 0.072 0.136-0.028 0.227-0.39 0.361-0.533 0.524-0.029 0.033-0.020 0.113 0.004 0.037-0.024 0.062l-0.41 0.359q-0.030 0.026-0.030 0.067v0.034q0 0.032-0.032 0.032h-0.079q-0.034 0-0.056 0.026c-0.145 0.163-0.249 0.305-0.428 0.465q-0.203 0.18-0.325 0.433-0.014 0.030-0.042 0.049-0.48 0.312-0.842 0.757-0.022 0.027-0.024 0.062-0.011 0.258-0.245 0.332-0.030 0.010-0.038 0.040c-0.022 0.092-0.176 0.201-0.238 0.293-0.093 0.14-0.198 0.182-0.23 0.369q-0.005 0.031-0.028 0.052-0.214 0.209-0.505 0.276-0.040 0.009-0.042 0.050-0.005 0.081-0.079 0.094c-0.022 0.004-0.042 0.015-0.058 0.030l-0 0c-0.204 0.198-0.399 0.394-0.585 0.608q-0.098 0.113-0.226 0.198c-0.001 0.001-0.002 0.001-0.003 0.001-0.003 0-0.005-0.002-0.006-0.004v-0q-0.003-0.008-0.006-0.017c-0-0-0-0-0-0-0.001-0.001-0.004-0-0.006 0.002-0 0-0.001 0-0.001 0.001l0-0-0.262 0.225q-0.027 0.023-0.032 0.058-0.015 0.094-0.11 0.13-0.026 0.010-0.039-0.015l-0.017-0.032q-0.017-0.033-0.055-0.031-0.129 0.007-0.123 0.143c0 0 0 0.001 0 0.001 0 0.019-0.015 0.034-0.034 0.034-0.002 0-0.005-0-0.007-0.001l0 0-0.127-0.024q-0.022-0.004-0.019-0.026 0.009-0.056-0.060-0.054c-0.001 0-0.001 0-0.002 0-0.018 0.002-0.032 0.018-0.030 0.037 0 0.001 0 0.001 0 0.002v-0q0.010 0.062-0.070 0.079-0.198-0.841-0.856-1.328l0.079-0.3c0.005-0.019 0.018-0.036 0.035-0.046l0-0c0.288-0.169 0.454-0.402 0.705-0.612q0.181-0.152 0.308-0.355 0.017-0.026 0.045-0.038 0.171-0.072 0.316-0.281 0.082-0.116 0.34-0.333 0.025-0.021 0.025-0.054v-0.028q0-0.033 0.028-0.052 0.428-0.299 0.534-0.445c0.154-0.212 0.367-0.337 0.515-0.54 0.141-0.193 0.326-0.303 0.479-0.465q0.234-0.246 0.237-0.249 0.262-0.251 0.374-0.326c0.201-0.134 0.525-0.326 0.445-0.58q-0.009-0.029 0.017-0.044l0.057-0.032c0.006-0.004 0.010-0.010 0.010-0.018 0-0.011-0.008-0.020-0.018-0.021h-0l-0.199-0.015z"></path>
<path fill="#eb351d" d="M19.503 8.481h3.424l0.259 0.028c0.007 0.001 0.012 0.007 0.012 0.014s-0.004 0.012-0.010 0.014l-0 0-0.056 0.011c-0.002 0-0.005 0.001-0.007 0.003-0.013 0.007-0.018 0.022-0.011 0.035 0.001 0.002 0.003 0.004 0.005 0.006l-0-0q0.086 0.088 0 0.189c-0.32 0.376-0.731 0.673-1.026 1.087q-0.093 0.131-0.223 0.226-0.428 0.314-0.746 0.742-0.039 0.052-0.159 0.106c-0.019 0.009-0.035 0.023-0.047 0.040l-0 0.001c-0.18 0.267-0.444 0.459-0.652 0.675q-0.158 0.164-0.342 0.3-0.024 0.018-0.029 0.047-0.019 0.097-0.111 0.108-0.028 0.003-0.040 0.028c-0.125 0.243-0.357 0.373-0.506 0.51q-0.342 0.316-0.743 0.586-0.639-0.263-1.359-0.196c-2.084 0.196-3.104 2.195-2.59 4.095q-0.070 0.040-0.125 0.012-0.018-0.010-0.019 0.011-0.003 0.063-0.088 0.081-0.030 0.006-0.033 0.036l-0.012 0.111q-0.003 0.028-0.024 0.046l-0.447 0.383q-0.026 0.022-0.023 0.054 0.008 0.133-0.109 0.132-0.031 0-0.056 0.019-0.208 0.152-0.307 0.388-0.014 0.035-0.044 0.058l-0.135 0.104q-0.022 0.018-0.051 0.022-0.061 0.008-0.072 0.078-0.005 0.029-0.029 0.045-0.2 0.134-0.335 0.335c-0.036 0.053-0.067 0.064-0.129 0.052-0.003-0.001-0.006-0.001-0.010-0.001-0.022 0-0.041 0.013-0.050 0.031l-0.122 0.244q-0.012 0.024-0.038 0.028-0.114 0.017-0.063 0.13 0.013 0.028-0.013 0.045-0.243 0.156-0.376 0.41-0.006 0.011 0.006 0.011h0.032c0.017 0 0.030 0.014 0.030 0.030 0 0.008-0.003 0.016-0.009 0.021v0l-0.017 0.018q-0.011 0.011-0.025 0.004-0.053-0.022-0.097 0.013-0.023 0.019-0.026 0.048-0.006 0.073-0.063 0.106-0.014 0.008 0.001 0.014 0.019 0.008 0.031 0.017 0.024 0.018 0.015 0.047c-0 0-0 0.001-0 0.001-0.005 0.014-0.021 0.022-0.035 0.017-0.001-0-0.001-0-0.001-0.001l0 0-0.076-0.032q-0.031-0.013-0.048 0.017-0.067 0.117-0.157 0.032c-0.005-0.005-0.012-0.008-0.020-0.008-0.014 0-0.026 0.010-0.028 0.024l-0 0q-0.014 0.092-0.098 0.114c-0.002 0.001-0.004 0.001-0.007 0.001-0.016 0-0.029-0.013-0.029-0.029 0-0.002 0-0.004 0.001-0.006l-0 0 0.017-0.083c0-0.002 0.001-0.005 0.001-0.007 0-0.022-0.018-0.040-0.040-0.040-0.011 0-0.021 0.005-0.029 0.012v0q-0.106 0.111 0.008 0.216c0.001 0.001 0.001 0.002 0.001 0.003s-0.001 0.003-0.002 0.004h-0q-0.009 0.003-0.018 0.006-0.011 0.003-0.009 0.015l0.004 0.024q0.004 0.026-0.020 0.035-0.266 0.094-0.313 0.376-0.004 0.029-0.025 0.049l-0.879 0.886q-0.021 0.020-0.018 0.050 0.012 0.108-0.133 0.147c-0.195 0.054-0.346 0.173-0.474 0.358q-0.227 0.331-0.588 0.508-0.028 0.014-0.035 0.044-0.019 0.087 0.058 0.072 0.015-0.003 0.024 0.010l0.009 0.015q0.013 0.022-0.012 0.017-0.061-0.012-0.122-0.001-0.053 0.009-0.016 0.047 0.052 0.056 0.116 0.023c0.012-0.006 0.025-0.002 0.032 0.009l0 0 0.009 0.015c0.001 0.002 0.001 0.003 0.001 0.005 0 0.005-0.004 0.010-0.009 0.011h-0l-0.077 0.012q-0.029 0.004-0.008 0.026l0.014 0.014q0.022 0.023-0.003 0.042l-0.024 0.017c-0.012 0.009-0.019 0.023-0.019 0.038 0 0.026 0.021 0.048 0.048 0.048v0l0.568-0.003c-1.596 0.042-2.951-0.028-4.344-0.847q-0.029-0.28 0.346 0.041c0.005 0.004 0.010 0.006 0.017 0.006 0.013 0 0.024-0.010 0.026-0.022l0-0 0.004-0.026q0.008-0.058 0.065-0.065l0.208-0.024q0.035-0.004 0.045-0.037 0.095-0.297 0.358-0.478 0.027-0.018 0.058-0.018h0.124q0.030 0 0.047-0.026c0.294-0.465 0.757-0.78 1.124-1.19 0.104-0.116 0.211-0.146 0.347-0.211 0.012-0.006 0.021-0.015 0.027-0.027l0-0 0.162-0.33q0.013-0.026 0.011-0.054l-0.001-0.035q-0.003-0.058 0.045-0.026l0.047 0.031q0.029 0.020 0.042-0.013l0.020-0.056q0.006-0.017 0.024-0.013 0.010 0.001 0.015 0.006 0.019 0.020 0.043 0.007 0.182-0.098 0.203-0.293 0.004-0.032 0.031-0.050 0.033-0.021 0.053-0.064c0.001-0.002 0.002-0.004 0.004-0.006 0.008-0.008 0.021-0.008 0.029 0.001 0.002 0.002 0.003 0.004 0.004 0.006l-0-0 0.010 0.022q0.011 0.024 0.034 0.011c0.169-0.095 0.34-0.051 0.483-0.109q0.436-0.179 0.3-0.734c2.703 0.502 4.67-1.557 4.144-4.204q0.080-0.017 0.070-0.079c-0-0.001-0-0.001-0-0.002-0.002-0.019 0.012-0.035 0.030-0.037 0.001-0 0.002-0 0.002-0h-0q0.068-0.002 0.060 0.054-0.003 0.022 0.019 0.026l0.127 0.024c0.002 0 0.004 0.001 0.006 0.001 0.019 0 0.034-0.015 0.034-0.034 0-0 0-0.001-0-0.001v0q-0.006-0.136 0.123-0.143 0.038-0.002 0.055 0.031l0.017 0.032q0.013 0.025 0.039 0.015 0.095-0.036 0.11-0.13 0.005-0.035 0.032-0.058l0.262-0.225c0-0 0-0 0.001-0.001 0.002-0.002 0.005-0.003 0.006-0.002 0 0 0 0 0 0v0q0.003 0.009 0.006 0.017c0.001 0.002 0.003 0.004 0.006 0.004 0.001 0 0.002-0 0.003-0.001h-0q0.128-0.085 0.226-0.198c0.186-0.214 0.381-0.41 0.585-0.608 0.016-0.016 0.036-0.026 0.058-0.031l0.001-0q0.074-0.013 0.079-0.094 0.003-0.041 0.042-0.050 0.291-0.067 0.505-0.276 0.022-0.022 0.028-0.052c0.032-0.188 0.137-0.23 0.23-0.369 0.062-0.092 0.216-0.201 0.238-0.293q0.008-0.031 0.038-0.040 0.234-0.074 0.245-0.332 0.002-0.035 0.024-0.062 0.362-0.445 0.842-0.757 0.028-0.019 0.042-0.049 0.122-0.252 0.325-0.433c0.179-0.159 0.283-0.302 0.428-0.465q0.022-0.026 0.056-0.026h0.079q0.032 0 0.032-0.032v-0.034q0-0.040 0.030-0.067l0.41-0.359q0.028-0.025 0.024-0.062-0.009-0.079 0.020-0.113 0.143-0.163 0.533-0.524 0.1-0.092 0.028-0.227-0.017-0.031 0.019-0.036l0.024-0.003q0.039-0.006 0.005-0.026-0.042-0.024-0.102-0.037z"></path>
<path fill="#e81b28" d="M22.927 8.481l5.441-0.001q0.013 0.016 0.059 0.017c0.010 0 0.018 0.008 0.018 0.019 0 0.007-0.004 0.014-0.010 0.017l-0 0q-0.049 0.023-0.132 0.008-0.097-0.017-0.090 0.092 0.001 0.008 0.010 0.008 0.012 0 0.023 0 0.023 0 0.019 0.022-0.024 0.122-0.145 0.145c-0.001 0-0.002 0-0.002 0-0.011 0-0.019-0.009-0.019-0.019 0-0.007 0.003-0.013 0.009-0.016l0-0q0.041-0.023 0.017-0.080-0.017-0.038-0.042-0.005-0.083 0.111-0.177 0.048-0.039-0.026-0.030 0.020 0.020 0.105 0.092 0.171c0 0 0.001 0.001 0.001 0.001 0.015 0.016 0.015 0.041-0.001 0.057-0.001 0.001-0.001 0.001-0.002 0.002l0-0q-0.102 0.085-0.079 0.211 0.004 0.023-0.019 0.026-0.080 0.010-0.148-0.006-0.022-0.005-0.038 0.011-0.065 0.063-0.138 0.038-0.026-0.009-0.047 0.006-0.139 0.097-0.172 0.262-0.006 0.030-0.033 0.045c-0.067 0.036-0.123 0.038-0.177 0.093q-0.145 0.148-0.28 0.309-0.020 0.024-0.051 0.018-0.058-0.012-0.044 0.047c0.005 0.023-0.007 0.045-0.028 0.053l-0 0q-0.195 0.070-0.163 0.275c0 0.001 0 0.001 0 0.002 0 0.006-0.005 0.011-0.011 0.011-0.002 0-0.004-0.001-0.006-0.002l0 0-0.025-0.015c-0.017-0.010-0.038-0.008-0.052 0.006l-0 0-0.131 0.121c-0.009 0.009-0.015 0.021-0.015 0.034v0l-0.005 0.168q-0.001 0.032-0.031 0.039l-0.263 0.064q-0.021 0.005-0.041-0.004-0.070-0.033-0.149-0.028-0.026 0.002-0.024 0.028l0.019 0.245c0 0.001 0 0.003 0 0.005 0 0.026-0.017 0.048-0.041 0.055l-0 0-0.15 0.044q-0.022 0.007-0.019 0.030 0.012 0.065-0.038 0.109-0.021 0.019-0.049 0.012-0.098-0.023-0.18 0.056-0.023 0.022-0.034-0.007l-0.024-0.063q-0.010-0.026-0.020 0.046-0.007 0.047-0.040 0.090c-0.003 0.004-0.005 0.009-0.005 0.014 0 0.013 0.011 0.024 0.024 0.024 0.002 0 0.003-0 0.004-0l-0 0q0.122-0.022 0.102 0.114-0.004 0.031-0.019 0.059l-0.076 0.141c-0.008 0.015-0.026 0.021-0.042 0.015l-0-0-0.152-0.065c-0.002-0.001-0.005-0.001-0.008-0.001-0.014 0-0.026 0.011-0.026 0.026 0 0.010 0.005 0.018 0.013 0.022l0 0q0.14 0.066 0.051 0.207-0.016 0.026-0.046 0.026h-0.026q-0.027 0-0.008-0.019l0.022-0.021c0.008-0.007 0.012-0.017 0.012-0.028 0-0.021-0.017-0.037-0.037-0.037-0.010 0-0.018 0.004-0.025 0.010l0-0q-0.116 0.095-0.17 0.231-0.003 0.006-0.037 0.038-0.030 0.029-0.062 0.010-0.026-0.015-0.051 0.001t-0.008 0.035q0.024 0.029-0.012 0.042l-0.351 0.12c-0.018 0.007-0.031 0.024-0.031 0.044 0 0.009 0.002 0.017 0.007 0.024l-0-0 0.030 0.053q0.019 0.031-0.017 0.037-0.054 0.008-0.045 0.045c0 0 0 0.001 0 0.001 0.002 0.005 0.007 0.007 0.012 0.005 0.001-0 0.001-0.001 0.002-0.001l-0 0 0.020-0.012c0.004-0.002 0.009-0.004 0.014-0.004 0.015 0 0.027 0.012 0.027 0.027 0 0.001-0 0.003-0 0.004l0-0q-0.016 0.103 0.064 0.176c0.006 0.005 0.010 0.012 0.010 0.021 0 0.015-0.012 0.027-0.027 0.027-0.007 0-0.013-0.002-0.017-0.006l0 0-0.12-0.091c-0.014-0.010-0.031-0.017-0.050-0.017-0.016 0-0.031 0.005-0.043 0.012l0-0q-0.115 0.071-0.162 0.2-0.008 0.020-0.001 0.027 0.006 0.006 0.012 0.013 0.029 0.031-0.013 0.036l-0.017 0.002c-0.005 0-0.008 0.004-0.008 0.009s0.004 0.009 0.009 0.009c0 0 0 0 0.001-0h-0l0.338 0.018c-2.018-0.094-3.644 0.813-4.022 2.893q-0.122 0.668 0.056 1.434l-0.080 0.049q-0.031 0.019-0.043-0.015l-0.017-0.048q-0.015-0.038-0.051-0.019c-0.068 0.036-0.076 0.104-0.052 0.177q0.043 0.132 0.026 0.267-0.004 0.035-0.040 0.037-0.156 0.010-0.143 0.171 0.002 0.029-0.015 0.053-0.107 0.143-0.25 0.253c-0.060 0.045-0.147 0.059-0.203 0.132q-0.021 0.028-0.056 0.023-0.026-0.003-0.028-0.023c-0-0-0-0.001-0-0.001-0.002-0.010-0.012-0.017-0.022-0.015-0 0-0.001 0-0.001 0h0q-0.056 0.015-0.036 0.076 0.009 0.026 0.029 0.045 0.019 0.018 0.015 0.042-0.007 0.039-0.029 0.006-0.025-0.036-0.084-0.037c-0.013-0-0.025 0.003-0.035 0.011-0.034 0.026-0.028 0.089 0.012 0.142 0.012 0.016 0.025 0.028 0.039 0.038l-0.001-0c0.118 0.083-0.010 0.217-0.112 0.218q-0.023 0-0.024 0.023l-0.010 0.337c0 0-0 0.001-0 0.001-0.001 0.008-0.007 0.013-0.015 0.013-0-0-0.001-0-0.001-0h0l-0.035-0.004q-0.013-0.002-0.024 0.006-0.162 0.121-0.257 0.3c-0.010 0.018-0.027 0.031-0.047 0.034l-0 0q-0.145 0.025-0.214 0.175-0.021 0.045-0.062 0.035-0.024-0.006-0.040 0.012l-0.058 0.063q-0.025 0.027-0.054 0.004-0.097-0.077-0.186 0-0.022 0.019-0.049 0.011-0.098-0.026-0.113 0.084c-0.003 0.019-0.019 0.034-0.039 0.034-0.002 0-0.004-0-0.006-0.001l0 0q-0.071-0.012-0.095 0.050c-0.006 0.015-0.020 0.025-0.036 0.025-0.003 0-0.005-0-0.008-0.001l0 0-0.054-0.011q-0.028-0.005-0.026 0.023l0.007 0.176q0.002 0.049-0.042 0.028-0.076-0.036-0.033-0.108 0.008-0.013-0.004-0.022l-0.028-0.020c-0.002-0.002-0.006-0.003-0.009-0.003-0.008 0-0.014 0.006-0.014 0.014 0 0.002 0 0.004 0.001 0.006l-0-0q0.026 0.067-0.033 0.083c-0.001 0-0.003 0.001-0.004 0.001-0.021 0.008-0.032 0.032-0.024 0.053 0.001 0.002 0.001 0.003 0.002 0.004l-0-0 0.047 0.093q0.018 0.035-0.019 0.021-0.154-0.056-0.068-0.196c0.003-0.005 0.005-0.011 0.005-0.017 0-0.018-0.015-0.033-0.033-0.033-0.008 0-0.016 0.003-0.022 0.008l0-0q-0.113 0.105-0.024 0.231 0.022 0.031 0.019 0.067l-0.002 0.020c-0.003 0.019-0.019 0.033-0.038 0.033-0.021 0-0.038-0.016-0.039-0.036v-0q0.001-0.067-0.049-0.115-0.025-0.024-0.032 0.010-0.011 0.056 0.016 0.102 0.013 0.021 0.008 0.045l-0.044 0.23q-0.002 0.012 0.010 0.014 0.008 0.001 0.015 0.008c0.005 0.004 0.008 0.009 0.008 0.016 0 0.011-0.009 0.020-0.020 0.020-0.005 0-0.009-0.002-0.012-0.004l0 0-0.033-0.020q-0.026-0.016-0.025-0.046l0.007-0.203q0.001-0.021-0.020-0.022-0.012 0-0.025 0c-0 0-0 0-0 0-0.017 0-0.030 0.013-0.030 0.030 0 0.002 0 0.003 0 0.005l-0-0q0.018 0.134-0.095 0.208c-0.012 0.008-0.019 0.023-0.017 0.037l0 0 0.009 0.065c0 0.001 0 0.002 0 0.003 0 0.011-0.009 0.019-0.019 0.019-0.005 0-0.009-0.002-0.012-0.005l0 0-0.15-0.127q-0.015-0.013-0.026 0.004l-0.011 0.019q-0.005 0.009 0.001 0.017l0.131 0.172c0.014 0.018 0.011 0.044-0.007 0.059l-0 0-0.679 0.562q-0.021 0.017-0.024 0.044-0.017 0.173-0.195 0.182-0.038 0.002-0.057 0.036l-0.086 0.163c-0.007 0.014-0.022 0.023-0.038 0.023-0.001 0-0.001 0-0.002-0h0q-0.118-0.005-0.152 0.109-0.009 0.033-0.039 0.049-0.107 0.058-0.189 0.148c-0.074 0.080-0.046 0.194-0.202 0.22-0.022 0.004-0.040 0.019-0.045 0.040l-0 0q-0.044 0.152-0.209 0.125-0.052-0.009-0.052 0.044v0.065c0 0 0 0 0 0 0 0.012-0.010 0.022-0.022 0.022-0 0-0 0-0.001 0h0q-0.042-0.001-0.064-0.038-0.028-0.047-0.053 0.001-0.061 0.116 0.038 0.174 0.060 0.035-0.020 0.037-0.051 0.001-0.073 0.052-0.008 0.020 0.009 0.035 0.045 0.036 0.034 0.095c-0.002 0.011 0.002 0.021 0.010 0.027l0 0 0.089 0.067c0.004 0.003 0.007 0.006 0.009 0.011 0.009 0.016 0.003 0.036-0.013 0.045-0.004 0.002-0.009 0.004-0.014 0.004l0-0-0.243 0.017-5.944 0.001c-0.027 0-0.048-0.021-0.048-0.048 0-0.016 0.008-0.030 0.019-0.038l0-0 0.024-0.017q0.026-0.019 0.003-0.042l-0.014-0.014q-0.021-0.021 0.008-0.026l0.077-0.012c0.005-0.001 0.009-0.005 0.009-0.011 0-0.002-0.001-0.004-0.001-0.005l0 0-0.009-0.015c-0.007-0.011-0.020-0.015-0.032-0.009l-0 0q-0.063 0.033-0.116-0.023-0.037-0.038 0.016-0.047 0.061-0.011 0.122 0.001 0.025 0.005 0.012-0.017l-0.009-0.015q-0.008-0.013-0.024-0.010-0.077 0.015-0.058-0.072 0.006-0.030 0.035-0.044 0.361-0.177 0.588-0.508c0.128-0.186 0.279-0.305 0.474-0.358q0.145-0.040 0.133-0.147-0.003-0.029 0.018-0.050l0.879-0.886q0.020-0.020 0.025-0.049 0.047-0.282 0.313-0.376 0.024-0.009 0.020-0.035l-0.004-0.024q-0.002-0.012 0.009-0.015 0.009-0.003 0.018-0.006c0.001-0.001 0.002-0.002 0.002-0.004s-0-0.002-0.001-0.003v0q-0.113-0.105-0.008-0.216c0.007-0.007 0.018-0.012 0.029-0.012 0.022 0 0.040 0.018 0.040 0.040 0 0.002-0 0.005-0.001 0.007l0-0-0.017 0.083c-0 0.002-0.001 0.003-0.001 0.005 0 0.016 0.013 0.029 0.029 0.029 0.002 0 0.005-0 0.007-0.001l-0 0q0.084-0.022 0.098-0.114c0.002-0.014 0.014-0.024 0.028-0.024 0.008 0 0.014 0.003 0.020 0.008l-0-0q0.090 0.085 0.157-0.032 0.017-0.029 0.048-0.017l0.076 0.032c0 0 0.001 0 0.001 0.001 0.014 0.005 0.029-0.002 0.035-0.017 0-0 0-0.001 0-0.001l-0 0q0.009-0.029-0.015-0.047-0.013-0.009-0.031-0.017-0.015-0.006-0.001-0.014 0.056-0.033 0.063-0.106 0.003-0.029 0.026-0.048 0.044-0.035 0.097-0.013 0.014 0.006 0.025-0.004l0.017-0.018c0.005-0.005 0.009-0.013 0.009-0.021 0-0.017-0.013-0.030-0.030-0.030h-0.032q-0.012 0-0.006-0.011 0.134-0.255 0.376-0.41 0.026-0.017 0.013-0.045-0.051-0.113 0.063-0.13 0.026-0.004 0.038-0.028l0.122-0.243c0.009-0.019 0.028-0.032 0.051-0.032 0.003 0 0.007 0 0.010 0.001l-0-0c0.063 0.012 0.093 0.001 0.129-0.052q0.135-0.2 0.335-0.335 0.024-0.016 0.029-0.045 0.012-0.070 0.072-0.078 0.029-0.004 0.051-0.022l0.135-0.104q0.030-0.023 0.044-0.058 0.099-0.237 0.307-0.388 0.025-0.019 0.056-0.019 0.117 0.001 0.109-0.132-0.003-0.033 0.023-0.054l0.447-0.383q0.022-0.018 0.024-0.046l0.012-0.111q0.003-0.031 0.033-0.036 0.084-0.018 0.088-0.081 0.001-0.020 0.019-0.011 0.054 0.028 0.125-0.012c0.547 1.99 2.804 2.038 4.375 1.487 0.231-0.081 0.343-0.193 0.28-0.445-0.079-0.319-0.035-0.912-0.616-0.717-0.905 0.305-2.236 0.377-2.531-0.798-0.001-0.002-0.001-0.005-0.001-0.007-0.002-0.026 0.017-0.049 0.044-0.051 0.003-0 0.005-0 0.008-0h-0c1.225 0.086 3.895-0.097 3.446-2.092q-0.191-0.847-1.057-1.276 0.401-0.269 0.743-0.586c0.149-0.137 0.381-0.268 0.506-0.51q0.013-0.025 0.040-0.028 0.092-0.011 0.111-0.108 0.006-0.029 0.029-0.047 0.184-0.136 0.342-0.3c0.209-0.216 0.472-0.408 0.652-0.675 0.012-0.018 0.028-0.031 0.047-0.040l0.001-0q0.12-0.053 0.159-0.106 0.317-0.429 0.746-0.742 0.129-0.095 0.223-0.226c0.295-0.414 0.706-0.711 1.026-1.087q0.086-0.101 0-0.189c-0.002-0.002-0.003-0.004-0.005-0.006-0.007-0.012-0.002-0.028 0.011-0.035 0.002-0.001 0.005-0.002 0.007-0.003l-0 0 0.056-0.011c0.006-0.002 0.011-0.007 0.011-0.014s-0.005-0.013-0.012-0.014h-0l-0.259-0.028z"></path>
<path fill="#e60433" d="M28.368 8.48h12.768l-0.36 0.033q-0.004 0-0.004 0.004 0 0.002 0 0.004t0.013 0.003l0.169 0.017c0.004 0 0.008 0.001 0.011 0.003 0.018 0.008 0.026 0.030 0.017 0.048-0.002 0.004-0.004 0.007-0.007 0.010l0-0-0.435 0.462q-0.025 0.027-0.061 0.035-0.081 0.018-0.113 0.1c-0.021 0.054-0.124 0.108-0.166 0.189q-0.079 0.153-0.191 0.287-0.018 0.022-0.046 0.018-0.076-0.011-0.072 0.070c0 0 0 0.001 0 0.002 0 0.017-0.014 0.031-0.031 0.031-0.001 0-0.003-0-0.004-0l0 0-0.027-0.004q-0.035-0.004-0.038 0.031-0.017 0.209-0.176 0.34-0.020 0.017-0.019 0.042l0.004 0.17c0 0 0 0.001 0 0.001 0 0.025-0.020 0.045-0.045 0.045-0.001 0-0.002-0-0.003-0h0q-0.12-0.006-0.077 0.091c0.001 0.003 0.002 0.007 0.003 0.011 0.002 0.019-0.012 0.036-0.031 0.038-0.004 0-0.008-0-0.012-0.001l0 0q-0.064-0.017-0.064 0.038c0 0.023-0.019 0.042-0.042 0.042v0h-0.079q-0.024 0-0.032 0.022-0.003 0.009 0.001 0.020 0.011 0.034-0.016 0.058-0.032 0.029-0.059-0.003c-0.001-0.001-0.003-0.003-0.005-0.004-0.011-0.008-0.026-0.005-0.033 0.005-0.001 0.002-0.002 0.004-0.003 0.006l0-0-0.083 0.234c-0.002 0.005-0.006 0.008-0.012 0.008s-0.010-0.003-0.011-0.008l-0-0q-0.003-0.009-0.005-0.018-0.006-0.022-0.017-0.001-0.034 0.072-0.111 0.084-0.020 0.003-0.027 0.023l-0.015 0.049c-0.004 0.013-0.016 0.022-0.030 0.022-0.007 0-0.014-0.002-0.019-0.006l0 0-0.033-0.024c-0.004-0.003-0.008-0.005-0.014-0.005-0.012 0-0.021 0.009-0.021 0.021 0 0.004 0.001 0.008 0.003 0.011l-0-0q0.035 0.060 0.029 0.1-0.017 0.106-0.13 0.074c-0.002-0.001-0.004-0.001-0.007-0.001-0.018-0.001-0.033 0.012-0.035 0.030-0 0.002-0 0.005 0 0.007l-0-0 0.010 0.061q0.005 0.035-0.030 0.035h-0.054c-0 0-0 0-0 0-0.019 0-0.035 0.014-0.039 0.032l-0 0-0.012 0.063c-0.003 0.017-0.018 0.029-0.035 0.029-0.009 0-0.018-0.004-0.024-0.010l0 0-0.049-0.044c-0.004-0.003-0.009-0.005-0.015-0.005-0.013 0-0.023 0.010-0.023 0.023 0 0.004 0.001 0.008 0.003 0.012l-0-0q0.021 0.032 0.023 0.070 0.001 0.022-0.021 0.017l-0.093-0.021c-0.003-0.001-0.006-0.001-0.009-0-0.014 0.002-0.023 0.015-0.021 0.028 0.001 0.003 0.002 0.006 0.003 0.009l-0-0 0.012 0.019q0.006 0.010-0.002 0.019-0.117 0.139-0.218 0.053c-0.006-0.005-0.014-0.009-0.023-0.009-0.016 0-0.030 0.011-0.034 0.025l-0 0-0.109 0.356q-0.013 0.042-0.051 0.019l-0.067-0.042q-0.041-0.026-0.054 0.021-0.045 0.156-0.186 0.232-0.026 0.014-0.031 0.044-0.033 0.225-0.203 0.38-0.026 0.024-0.008 0.054l0.011 0.019q0.021 0.036-0.019 0.027-0.047-0.010-0.105 0.041-0.079 0.068-0.196 0.155-0.889 0.090-1.476 0.805c-0.006 0.008-0.015 0.013-0.026 0.013-0.018 0-0.033-0.015-0.033-0.033 0-0.001 0-0.003 0-0.004v0q0.101-1.122 0.198-2.262c0.029-0.344-0.005-0.504-0.4-0.502q-0.438 0.001-0.876 0.001c-0.3 0-0.401 0.094-0.427 0.384q-0.212 2.344-0.422 4.687-0.045 0.075-0.040 0.188 0.001 0.025-0.023 0.017-0.051-0.017-0.081 0.048-0.051 0.113-0.012 0.246 0.008 0.024-0.017 0.029-0.060 0.012-0.091-0.036-0.016-0.026-0.044-0.013c-0.26 0.123-0.612 0.157-0.681 0.489q-0.007 0.034-0.033 0.058-0.26 0.236-0.424 0.552-0.014 0.028-0.008 0.058 0.010 0.045-0.014 0.076c-0.038 0.047-0.1 0.022-0.145 0.094-0.103 0.164-0.289 0.326-0.429 0.458-0.15 0.142-0.192 0.334-0.39 0.461-0.174 0.113-0.232 0.231-0.317 0.401-0.010 0.020-0.027 0.034-0.047 0.040l-0.001 0c-0.157 0.046-0.252 0.198-0.393 0.143-0.017-0.006-0.036-0.006-0.053 0.001l-0 0-0.044 0.020q-0.023 0.010-0.048 0.005-0.136-0.026-0.259 0.061-0.054 0.038-0.090-0.004-0.021-0.025-0.044-0.002l-0.023 0.023c-0.006 0.005-0.009 0.013-0.009 0.021 0 0.013 0.008 0.024 0.020 0.028l0 0c0.161 0.054 0.106 0.33 0.198 0.48 0.005 0.008 0.008 0.018 0.008 0.029 0 0.030-0.024 0.054-0.054 0.054-0.009 0-0.018-0.002-0.026-0.006l0 0q-0.1-0.054-0.2 0.002-0.037 0.020-0.012 0.055 0.065 0.090-0.013 0.172-0.019 0.019 0.008 0.022l0.031 0.004c0.017 0.003 0.030 0.017 0.030 0.034 0 0.001-0 0.002-0 0.002v-0q-0.008 0.109-0.122 0.138c-0.002 0.001-0.004 0.001-0.007 0.001-0.015 0-0.027-0.012-0.027-0.027 0-0.006 0.002-0.012 0.006-0.016l-0 0 0.053-0.069c0.002-0.002 0.003-0.005 0.003-0.009 0.001-0.010-0.006-0.019-0.015-0.020-0.003-0-0.007 0-0.009 0.002l0-0c-0.087 0.040-0.107 0.093-0.112 0.187q-0.003 0.056-0.064 0.079-0.195 0.072-0.183 0.268 0.006 0.095-0.102 0.084-0.031-0.003-0.048 0.022l-0.147 0.217q-0.024 0.036-0.068 0.040-0.178 0.015-0.243 0.182c-0 0.001-0.001 0.003-0.002 0.004-0.009 0.017-0.030 0.023-0.047 0.014-0.001-0.001-0.003-0.002-0.004-0.003l0 0-0.111-0.079c-0.008-0.006-0.018-0.010-0.029-0.010-0.028 0-0.050 0.022-0.050 0.050 0 0.009 0.003 0.018 0.007 0.026l-0-0q0.058 0.097-0.029 0.177-0.019 0.018-0.029 0.044l-0.058 0.162q-0.024 0.067-0.048 0-0.036-0.101-0.14-0.056-0.023 0.010-0.030 0.035-0.023 0.076-0.109 0.070-0.031-0.002-0.043 0.028-0.018 0.047-0.006 0.103 0.004 0.021-0.001 0.034-0.011 0.024-0.038 0.037c-0.005 0.003-0.008 0.007-0.008 0.013s0.003 0.010 0.007 0.013l0 0 0.038 0.022q0.012 0.007 0.010 0.020-0.020 0.154-0.166 0.129-0.046-0.008-0.046 0.039v0.184q0 0.031-0.026 0.048-0.055 0.036-0.124 0.033-0.035-0.001-0.042 0.033-0.016 0.075-0.085 0.094-0.035 0.010-0.064 0.030l-0.223 0.148c-0.013 0.009-0.022 0.024-0.022 0.041 0 0.007 0.002 0.014 0.005 0.021l-0-0 0.036 0.079c0.001 0.002 0.002 0.004 0.002 0.006 0.006 0.021-0.006 0.043-0.027 0.049-0.002 0.001-0.004 0.001-0.007 0.001l0-0q-0.081 0.008-0.109 0.084-0.008 0.022-0.031 0.025l-0.020 0.003q-0.045 0.006-0.025-0.035l0.033-0.067q0.019-0.040-0.020-0.020-0.141 0.070-0.098 0.209 0.003 0.008 0.012 0.008t0.017 0c0-0 0.001-0 0.001-0 0.004 0 0.007 0.002 0.009 0.005l0 0q0.017 0.022 0.013 0.044-0.003 0.013 0.010 0.016 0.045 0.008 0.084-0.012 0.004-0.002 0.007 0.001l0.014 0.014c0.002 0.002 0.003 0.004 0.003 0.006 0 0.005-0.004 0.009-0.009 0.009-0 0-0 0-0 0v0l-1.525 0.012-10.816 0.001 0.243-0.017c0.005-0 0.009-0.001 0.014-0.004 0.016-0.009 0.022-0.029 0.013-0.045-0.002-0.004-0.006-0.008-0.009-0.011l0 0-0.089-0.067c-0.008-0.006-0.012-0.017-0.010-0.027l0-0q0.011-0.058-0.034-0.095-0.017-0.015-0.009-0.035 0.022-0.051 0.073-0.052 0.081-0.002 0.020-0.037-0.1-0.058-0.038-0.174 0.026-0.048 0.053-0.001 0.022 0.037 0.064 0.038c0 0 0 0 0.001 0 0.012 0 0.022-0.010 0.022-0.022 0 0 0 0 0 0v0-0.065q0-0.052 0.052-0.044 0.165 0.028 0.209-0.125c0.006-0.021 0.024-0.037 0.045-0.040l0-0c0.156-0.026 0.129-0.14 0.202-0.22q0.083-0.090 0.189-0.148 0.030-0.016 0.039-0.049 0.033-0.114 0.152-0.109c0.001 0 0.001 0 0.002 0 0.017 0 0.031-0.009 0.038-0.023l0-0 0.086-0.163q0.019-0.035 0.057-0.036 0.178-0.009 0.195-0.182 0.003-0.027 0.024-0.044l0.679-0.562c0.018-0.015 0.021-0.041 0.007-0.059v-0l-0.131-0.172q-0.006-0.008-0.001-0.017l0.011-0.019q0.010-0.017 0.026-0.004l0.15 0.127c0.003 0.003 0.008 0.004 0.012 0.004 0.011 0 0.019-0.009 0.019-0.019 0-0.001-0-0.002-0-0.003v0l-0.009-0.065c-0.002-0.014 0.005-0.029 0.017-0.037l0-0q0.113-0.074 0.095-0.208c-0-0.001-0-0.003-0-0.004 0-0.017 0.013-0.030 0.030-0.030 0 0 0 0 0 0h-0q0.013 0 0.025 0 0.021 0.001 0.020 0.022l-0.007 0.203q-0.001 0.030 0.025 0.046l0.033 0.020c0.003 0.003 0.008 0.004 0.012 0.004 0.011 0 0.020-0.009 0.020-0.020 0-0.006-0.003-0.012-0.008-0.016l-0-0q-0.006-0.006-0.015-0.008-0.012-0.002-0.010-0.014l0.044-0.23q0.004-0.024-0.008-0.045-0.027-0.045-0.016-0.102 0.007-0.035 0.032-0.010 0.050 0.049 0.049 0.115c0.001 0.020 0.018 0.036 0.039 0.036 0.019 0 0.035-0.014 0.038-0.032l0-0 0.002-0.020q0.003-0.036-0.019-0.067-0.090-0.126 0.024-0.231c0.006-0.005 0.013-0.008 0.022-0.008 0.018 0 0.033 0.015 0.033 0.033 0 0.006-0.002 0.012-0.005 0.017l0-0q-0.086 0.14 0.068 0.196 0.037 0.013 0.019-0.021l-0.047-0.093c-0.001-0.001-0.001-0.003-0.002-0.004-0.008-0.021 0.003-0.045 0.024-0.053 0.001-0.001 0.003-0.001 0.004-0.001l-0 0q0.059-0.015 0.033-0.083c-0.001-0.002-0.001-0.004-0.001-0.006 0-0.008 0.006-0.014 0.014-0.014 0.003 0 0.006 0.001 0.009 0.003l-0-0 0.028 0.020q0.012 0.009 0.004 0.022-0.043 0.071 0.033 0.108 0.044 0.021 0.042-0.028l-0.007-0.176q-0.001-0.028 0.026-0.023l0.054 0.011c0.002 0 0.005 0.001 0.008 0.001 0.016 0 0.030-0.010 0.036-0.025l0-0q0.024-0.062 0.095-0.050c0.002 0 0.004 0 0.006 0 0.020 0 0.036-0.015 0.039-0.034l0-0q0.015-0.111 0.113-0.084 0.028 0.008 0.049-0.011 0.088-0.077 0.186 0 0.029 0.023 0.054-0.004l0.058-0.063q0.016-0.018 0.040-0.012 0.041 0.011 0.062-0.035 0.070-0.15 0.214-0.175c0.020-0.003 0.038-0.016 0.047-0.034l0-0q0.095-0.179 0.257-0.3 0.010-0.008 0.024-0.006l0.035 0.004c0 0 0.001 0 0.001 0 0.007 0.001 0.014-0.005 0.015-0.013 0-0 0-0.001 0-0.001v0l0.010-0.337q0.001-0.023 0.024-0.023c0.102-0.001 0.23-0.136 0.112-0.218-0.014-0.009-0.027-0.022-0.039-0.038-0.040-0.053-0.046-0.117-0.012-0.142 0.010-0.008 0.022-0.011 0.035-0.011l-0.001 0q0.059 0.001 0.084 0.037 0.022 0.033 0.029-0.006 0.004-0.024-0.015-0.042-0.020-0.019-0.029-0.045-0.020-0.061 0.036-0.076c0-0 0.001-0 0.001-0 0.010-0.002 0.020 0.005 0.022 0.015 0 0 0 0.001 0 0.001v-0q0.002 0.020 0.028 0.023 0.035 0.004 0.056-0.023c0.056-0.074 0.143-0.087 0.203-0.132q0.143-0.11 0.25-0.253 0.017-0.024 0.015-0.053-0.012-0.161 0.143-0.171 0.036-0.002 0.040-0.037 0.017-0.134-0.026-0.267c-0.024-0.073-0.016-0.141 0.052-0.177q0.036-0.020 0.051 0.019l0.017 0.048q0.012 0.033 0.043 0.015l0.080-0.049c0.282 1.092 1.226 1.767 2.327 1.501 0.689-0.167 1.004-0.586 1.356-1.172 0.002-0.003 0.005-0.006 0.008-0.008 0.011-0.006 0.025-0.003 0.031 0.008 0.002 0.003 0.003 0.007 0.003 0.011v-0l0.028 0.786c0.006 0.167 0.142 0.301 0.31 0.303h0c0.224 0.002 0.691 0.049 0.874-0.060 0.18-0.108 0.162-0.287 0.177-0.48q0.189-2.297 0.417-4.589c0.018-0.175-0.001-0.369-0.183-0.417q-0.539-0.141-1.382-0.209l-0.338-0.018c-0 0-0 0-0.001 0-0.005 0-0.009-0.004-0.009-0.009s0.004-0.009 0.008-0.009h0l0.017-0.002q0.042-0.006 0.013-0.036-0.006-0.007-0.012-0.013-0.007-0.006 0.001-0.027 0.047-0.129 0.162-0.2c0.012-0.008 0.027-0.012 0.043-0.012 0.019 0 0.036 0.006 0.050 0.017l-0-0 0.12 0.091c0.005 0.004 0.011 0.006 0.017 0.006 0.015 0 0.027-0.012 0.027-0.027 0-0.008-0.004-0.016-0.010-0.021l-0-0q-0.080-0.073-0.064-0.176c0-0.001 0-0.002 0-0.004 0-0.015-0.012-0.027-0.027-0.027-0.005 0-0.010 0.001-0.014 0.004l0-0-0.020 0.012c-0 0-0.001 0.001-0.002 0.001-0.005 0.002-0.010-0-0.012-0.005-0-0-0-0.001-0-0.001v0q-0.010-0.038 0.045-0.045 0.036-0.006 0.017-0.037l-0.030-0.053c-0.004-0.007-0.006-0.015-0.006-0.024 0-0.020 0.013-0.038 0.031-0.044l0-0 0.351-0.12q0.036-0.012 0.012-0.042-0.016-0.019 0.008-0.035t0.051-0.001q0.032 0.019 0.062-0.010 0.035-0.032 0.037-0.038 0.053-0.136 0.17-0.231c0.007-0.006 0.015-0.010 0.025-0.010 0.021 0 0.037 0.017 0.037 0.037 0 0.011-0.005 0.021-0.012 0.027l-0 0-0.022 0.021q-0.019 0.019 0.008 0.019h0.026q0.030 0 0.046-0.026 0.090-0.141-0.051-0.207c-0.008-0.004-0.013-0.013-0.013-0.022 0-0.014 0.011-0.026 0.026-0.026 0.003 0 0.006 0.001 0.008 0.001l-0-0 0.152 0.065c0.016 0.007 0.034 0 0.042-0.015l0-0 0.076-0.141q0.015-0.028 0.019-0.059 0.020-0.136-0.102-0.114c-0.001 0-0.003 0-0.004 0-0.013 0-0.024-0.011-0.024-0.024 0-0.005 0.002-0.011 0.005-0.015l-0 0q0.033-0.043 0.040-0.090 0.011-0.072 0.020-0.046l0.024 0.063q0.011 0.029 0.034 0.007 0.082-0.079 0.18-0.056 0.028 0.006 0.049-0.012 0.050-0.044 0.038-0.109-0.004-0.023 0.019-0.030l0.15-0.044c0.024-0.007 0.042-0.029 0.042-0.055 0-0.002-0-0.003-0-0.005v0l-0.019-0.245q-0.002-0.026 0.024-0.028 0.079-0.005 0.149 0.028 0.020 0.010 0.041 0.004l0.263-0.064q0.031-0.007 0.031-0.039l0.005-0.168c0-0.013 0.006-0.025 0.015-0.034l0-0 0.131-0.121c0.014-0.014 0.036-0.016 0.052-0.006l0 0 0.025 0.015c0.002 0.001 0.004 0.002 0.006 0.002 0.006 0 0.011-0.005 0.011-0.011 0-0.001-0-0.001-0-0.002v0q-0.031-0.204 0.163-0.275c0.021-0.008 0.034-0.031 0.028-0.053l-0-0q-0.014-0.059 0.044-0.047 0.031 0.006 0.051-0.018 0.135-0.161 0.28-0.309c0.054-0.056 0.111-0.058 0.177-0.093q0.028-0.015 0.033-0.045 0.033-0.166 0.172-0.262 0.022-0.015 0.047-0.006 0.073 0.024 0.138-0.038 0.016-0.016 0.038-0.011 0.068 0.016 0.148 0.006 0.023-0.003 0.019-0.026-0.022-0.125 0.079-0.211c0.001-0 0.001-0.001 0.002-0.002 0.016-0.015 0.016-0.040 0.001-0.057-0-0.001-0.001-0.001-0.001-0.001l0 0q-0.071-0.066-0.092-0.171-0.009-0.045 0.030-0.020 0.094 0.063 0.177-0.048 0.025-0.033 0.042 0.005 0.024 0.057-0.017 0.080c-0.005 0.003-0.009 0.009-0.009 0.016 0 0.011 0.009 0.019 0.019 0.019 0.001 0 0.002-0 0.003-0h-0q0.12-0.023 0.145-0.145 0.004-0.022-0.019-0.022-0.011 0-0.023 0-0.009 0-0.010-0.008-0.006-0.109 0.090-0.092 0.083 0.015 0.132-0.008c0.006-0.003 0.010-0.009 0.010-0.017 0-0.010-0.008-0.018-0.018-0.019h-0q-0.045-0.001-0.059-0.017zM28.575 13.936c-0.009-0.372 0.134-0.831-0.389-0.833q-0.386-0.001-0.732 0.001c-0.156 0.001-0.286 0.12-0.301 0.276l-0 0.001q-0.329 3.484-0.655 6.958c-0.026 0.276-0.067 0.552 0.314 0.556q0.536 0.004 1.059 0c0.154-0.002 0.282-0.119 0.297-0.272l0-0.001 0.18-1.9q0.003-0.035 0.036-0.022c1.493 0.604 3.067-0.064 3.707-1.521 0.461-1.050 0.503-2.574-0.268-3.478-0.722-0.846-1.99-0.87-2.814-0.18-0.139 0.116-0.271 0.275-0.395 0.429q-0.036 0.045-0.037-0.013z"></path>
<path fill="#e7184a" d="M41.136 8.48q4.368 0 8.736 0 0.87 0 1.834 0.341 0.076 0.223 0.081 0.408 0.002 0.070-0.033 0.010-0.074-0.125-0.116-0.265-0.009-0.031-0.017 0-0.020 0.074 0.012 0.133 0.195 0.366 0.137 0.746-0.001 0.003 0.001 0.030 0.001 0.023-0.026 0.035-0.025 0.011-0.017 0.036l0.018 0.058q0.015 0.049-0.022 0.013l-0.226-0.212c-0.005-0.005-0.013-0.008-0.021-0.008-0.017-0-0.032 0.013-0.032 0.030-0 0.008 0.003 0.016 0.008 0.021l-0-0 0.175 0.202q0.016 0.019 0.001 0.038l-0.118 0.145q-0.048 0.060-0.039-0.017 0.009-0.079 0.084-0.112c0.014-0.006 0.023-0.020 0.023-0.036s-0.008-0.027-0.020-0.034l-0-0q-0.142-0.079-0.194-0.227-0.007-0.019-0.026-0.019h-0.026c-0 0-0 0-0 0-0.018 0-0.032 0.014-0.032 0.032 0 0.009 0.004 0.017 0.010 0.023v0l0.17 0.164c0.008 0.008 0.013 0.018 0.013 0.030 0 0.010-0.004 0.019-0.010 0.027l0-0-0.074 0.092q-0.021 0.026-0.045 0.002l-0.027-0.026c-0.004-0.005-0.011-0.008-0.018-0.008-0.012 0-0.022 0.009-0.024 0.020l-0 0q-0.008 0.044-0.036 0.073-0.038 0.041-0.038-0.015v-0.034q0-0.052-0.048-0.032-0.098 0.042-0.154-0.079c-0.003-0.006-0.010-0.010-0.017-0.010-0.009 0-0.017 0.007-0.019 0.016l-0 0-0.003 0.022c-0 0.001-0 0.001-0 0.002 0 0.008 0.007 0.015 0.015 0.015 0.001 0 0.002-0 0.003-0h-0q0.012-0.003 0.021 0.004 0.013 0.010 0.010 0.028-0.003 0.014-0.013 0.023-0.013 0.012-0.039-0.003-0.012-0.007-0.024-0.031c-0.007-0.016-0.018-0.026-0.031-0.028-0.026-0.003-0.052 0.030-0.058 0.074-0.003 0.022-0 0.043 0.007 0.058v0q0.035 0.083-0.003 0.168c-0.003 0.006-0.009 0.009-0.015 0.009-0.009 0-0.017-0.008-0.017-0.017v0l0.006-0.152c0-0 0-0.001 0-0.002 0-0.007-0.006-0.013-0.013-0.013-0.005 0-0.009 0.003-0.012 0.007l-0 0q-0.067 0.099-0.001 0.194c0.008 0.011 0.012 0.024 0.012 0.039 0 0.027-0.016 0.051-0.039 0.062l-0 0-0.131 0.059q-0.044 0.020-0.010-0.014l0.014-0.014q0.039-0.038-0.019-0.026-0.019 0.004-0.024-0.025c-0.003-0.010-0.012-0.018-0.023-0.018s-0.022 0.008-0.024 0.020l-0 0-0.009 0.065q-0.003 0.026-0.025 0.012-0.058-0.038-0.106 0.016-0.122 0.138-0.234 0.221-0.026 0.019-0.016 0.051 0.086 0.266-0.051 0.412c-0.445-1.148-2.072-0.332-1.405 0.705-0.137 0.143-0.211 0.335-0.339 0.453-0.182 0.168-0.412 0.24-0.411 0.535q0 0.033-0.029 0.049l-0.225 0.126-0.815-0.003c-0 0-0 0-0.001 0-0.147 0-0.268 0.112-0.281 0.256l-0 0.001-0.136 1.469q-0.028 0.12-0.106 0.185-0.027 0.022-0.027 0.058v0.143c0 0.001 0 0.001 0 0.002 0 0.022-0.017 0.039-0.039 0.039s-0.038-0.016-0.039-0.037v-0q-0.004-0.043-0.002-0.085 0.003-0.045-0.040-0.031l-0.021 0.007c-0.014 0.004-0.023 0.019-0.019 0.033v0l0.038 0.146q0.008 0.030-0.022 0.034l-0.031 0.004q-0.037 0.005-0.034-0.032l0.004-0.054q0.003-0.033-0.029-0.027l-0.053 0.011q-0.028 0.005-0.029-0.023-0.005-0.111-0.105-0.172-0.026-0.017-0.053-0.001l-0.26 0.154q-0.024 0.014-0.020 0.042 0.015 0.119-0.068 0.211-0.025 0.027-0.025 0.064v0.044q0 0.033-0.032 0.040-0.221 0.047-0.22-0.175 0-0.034-0.033-0.032-0.067 0.003-0.077-0.033 0.116-1.332 0.165-1.749c0.027-0.228-0.050-0.351-0.278-0.412-2.060-0.543-4.561-0.099-5.221 2.257-0.242 0.861-0.22 2.112 0.433 2.812q0.861 0.922 2.109 0.484 0.154 0.004 0.13 0.127-0.029 0.153-0.216 0.281-0.021 0.014-0.024-0.012-0.005-0.060-0.065-0.084-0.031-0.012-0.042 0.019-0.043 0.122 0.048 0.143c0.009 0.002 0.016 0.010 0.016 0.020 0 0.005-0.002 0.010-0.005 0.013l0-0-0.296 0.364q-0.013 0.017-0.004 0.037l0.077 0.173q0.034 0.076-0.027 0.019t-0.077-0.132c-0.003-0.014-0.015-0.024-0.030-0.024-0.010 0-0.019 0.005-0.024 0.012l-0 0-0.035 0.047q-0.021 0.029 0.002 0.056l0.136 0.162q0.005 0.006 0.003 0.012-0.003 0.008-0.005 0.017c-0 0-0 0.001-0.001 0.001-0.001 0.002-0.004 0.002-0.007 0.001-0-0-0.001-0.001-0.001-0.001l0 0-0.163-0.175c-0.007-0.008-0.017-0.013-0.028-0.013-0.021 0-0.038 0.017-0.038 0.038 0 0.005 0.001 0.011 0.003 0.015l-0-0q0.050 0.116-0.005 0.233-0.025 0.052-0.049-0.001-0.028-0.061 0.025-0.102c0.008-0.006 0.013-0.016 0.013-0.027s-0.005-0.021-0.014-0.027l-0-0q-0.097-0.068-0.001-0.143c0-0 0.001-0.001 0.001-0.001 0.013-0.011 0.014-0.030 0.003-0.043-0-0.001-0.001-0.001-0.001-0.002l-0.034-0.034q-0.038-0.038-0.052 0.014-0.025 0.089-0.013 0.185 0.004 0.036-0.022 0.060-0.051 0.044-0.004 0.093 0.042 0.045-0.019 0.041-0.028-0.001-0.045-0.036c-0.002-0.003-0.005-0.006-0.010-0.006-0.003 0-0.006 0.001-0.008 0.003v0l-0.047 0.045c-0.001 0.001-0.003 0.002-0.005 0.003-0.007 0.003-0.015-0.001-0.017-0.007-0.001-0.002-0.001-0.004-0.001-0.006v0l0.005-0.068q0.003-0.042-0.027-0.072l-0.012-0.013q-0.023-0.022-0.026 0.010l-0.021 0.234c-0 0.001-0 0.003 0 0.005 0.002 0.013 0.013 0.022 0.025 0.020 0.002-0 0.003-0.001 0.005-0.001l-0 0 0.052-0.020q0.052-0.019 0.022 0.028-0.032 0.049-0.010 0.106 0.023 0.061-0.029 0.022-0.198-0.149-0.137-0.406 0.002-0.009-0.007-0.012t-0.018-0.006c-0.001-0-0.003-0.001-0.004-0.001-0.008-0-0.015 0.006-0.015 0.014-0 0.002 0 0.003 0.001 0.005l-0-0q0.033 0.107-0.045 0.161c-0.012 0.009-0.020 0.023-0.020 0.039 0 0.008 0.002 0.015 0.005 0.021l-0-0 0.154 0.303c0.001 0.002 0.002 0.005 0.002 0.008 0 0.011-0.009 0.019-0.019 0.019-0.005 0-0.010-0.002-0.013-0.005v0l-0.015-0.015q-0.028-0.028-0.056 0l-0.155 0.154q-0.019 0.018-0.010 0.043l0.019 0.051q0.029 0.079-0.036 0.026-0.198-0.162-0.152-0.429c0-0.001 0-0.002 0-0.003 0-0.009-0.007-0.016-0.016-0.016-0.008 0-0.014 0.005-0.016 0.013l-0 0-0.031 0.137q-0.006 0.024-0.026 0.040-0.035 0.028-0.010 0.073 0.078 0.14 0.155 0.278 0.010 0.019-0.001 0.033-0.016 0.019-0.033 0.001l-0.022-0.021q-0.022-0.022-0.049-0.007-0.086 0.048-0.036 0.125c0.001 0.003 0.002 0.006 0.002 0.009 0 0.011-0.009 0.019-0.019 0.019-0.005 0-0.009-0.002-0.013-0.005l-0.020-0.020q-0.024-0.024-0.048 0l-0.032 0.031q-0.026 0.027-0.029-0.011-0.002-0.035 0.029-0.054c0.001-0 0.001-0.001 0.002-0.001 0.012-0.009 0.014-0.025 0.006-0.036-0-0.001-0.001-0.001-0.002-0.002l0 0-0.042-0.048c-0.003-0.004-0.005-0.009-0.005-0.014 0-0.012 0.010-0.022 0.022-0.022 0.003 0 0.006 0.001 0.009 0.002l-0-0 0.060 0.028q0.028 0.013 0.052-0.003 0.097-0.061 0.014-0.22-0.032-0.061-0.091-0.026l-0.026 0.015q-0.025 0.015-0.036-0.012-0.010-0.024-0.028-0.038c-0.004-0.002-0.008-0.004-0.013-0.004-0.013 0-0.024 0.011-0.024 0.024 0 0.005 0.002 0.010 0.005 0.014l-0-0q0.058 0.070 0.141 0.099 0.023 0.008 0.023 0.033t-0.020 0.028c-0.023 0.004-0.046-0.001-0.064-0.014l-0-0-0.031-0.022q-0.049-0.036-0.049 0.025v0.189q0 0.037-0.026 0.064-0.044 0.045-0.005 0.099c0.003 0.004 0.004 0.008 0.004 0.013-0.001 0.010-0.010 0.018-0.021 0.017-0.005-0-0.009-0.003-0.012-0.006l0 0-0.020-0.020q-0.024-0.024-0.048 0l-0.033 0.033q-0.022 0.022-0.013 0.052l0.016 0.051q0.015 0.048-0.027 0.020-0.056-0.037-0.094 0.006c-0.004 0.004-0.010 0.006-0.017 0.006-0.014 0-0.025-0.011-0.025-0.025 0-0.005 0.002-0.010 0.004-0.014l-0 0 0.025-0.031q0.020-0.025-0.002-0.048-0.069-0.070-0.038-0.172 0.002-0.006-0.004-0.010-0.011-0.004-0.017-0.003t-0.009 0.013q-0.059 0.274 0.083 0.506c0.001 0.002 0.002 0.005 0.002 0.009 0 0.010-0.008 0.018-0.018 0.018-0.004 0-0.008-0.001-0.011-0.003l0 0q-0.057-0.046-0.108-0.005-0.032 0.027-0.017 0.066 0.012 0.032 0.015 0.065t-0.020 0.009l-0.104-0.109q-0.019-0.020 0.008-0.022 0.126-0.012 0.145-0.138c0-0.001 0-0.003 0-0.005 0-0.016-0.013-0.029-0.029-0.029-0.009 0-0.017 0.004-0.022 0.010l-0 0q-0.072 0.086-0.152 0.008-0.036-0.034-0.044 0.015-0.029 0.175 0.083 0.288 0.026 0.027 0 0.054-0.087 0.089-0.166 0.184-0.007 0.008-0.015 0.010-0.015 0.003-0.026-0.005c-0.005-0.003-0.007-0.009-0.007-0.015 0-0.005 0.002-0.009 0.005-0.012v0q0.070-0.076-0.015-0.14-0.033-0.026-0.063 0.004l-0.037 0.036c-0.008 0.008-0.013 0.020-0.013 0.032s0.005 0.024 0.013 0.032v0l0.025 0.024c0.007 0.007 0.011 0.016 0.011 0.027 0 0.006-0.001 0.011-0.003 0.016l0-0-0.074 0.164c-0.004 0.010-0.014 0.017-0.025 0.017s-0.020-0.006-0.024-0.015l-0-0-0.013-0.025c-0.003-0.005-0.005-0.012-0.005-0.019 0-0.013 0.006-0.025 0.016-0.032l0-0q0.071-0.052 0.068-0.137c-0.001-0.011-0.010-0.019-0.020-0.019-0.007 0-0.013 0.003-0.017 0.009l-0 0q-0.060 0.092-0.157 0.032c-0.004-0.003-0.010-0.004-0.015-0.004-0.017 0-0.030 0.013-0.030 0.030v0 0.019q0 0.026 0.025 0.034l0.048 0.015c0.006 0.002 0.011 0.005 0.015 0.010 0.009 0.013 0.006 0.030-0.007 0.040-0.005 0.004-0.011 0.006-0.017 0.006h-0.038q-0.049 0-0.055 0.049l-0.024 0.191q-0.004 0.026-0.017 0.004-0.006-0.010-0.010-0.020-0.014-0.038-0.049-0.018-0.093 0.052-0.044 0.147c0.001 0.002 0.002 0.004 0.002 0.007 0 0.008-0.007 0.015-0.015 0.015-0.004 0-0.008-0.002-0.011-0.004v0l-0.013-0.014c-0.008-0.008-0.018-0.012-0.030-0.012s-0.021 0.004-0.028 0.011l0-0q-0.18 0.153-0.205 0.386c-0.001 0.012-0.011 0.021-0.023 0.021-0.006 0-0.011-0.002-0.016-0.006l0 0q-0.044-0.038-0.020-0.105 0.036-0.102 0.088-0.198 0.016-0.029 0.002-0.059-0.066-0.141-0.032-0.298 0.001-0.008-0.006-0.010t-0.017-0.006q-0.012-0.004-0.012 0.009c-0.004 0.17 0.026 0.428-0.107 0.552q-0.024 0.022-0.008 0.051 0.063 0.118-0.044 0.189c-0.020 0.014-0.033 0.036-0.033 0.062 0 0.003 0 0.007 0.001 0.010l-0-0q0.009 0.074 0.053 0.073 0.029-0.001 0.030 0.028 0.002 0.057-0.041 0.068-0.036 0.009-0.026-0.026 0.015-0.054-0.019-0.082-0.216-0.177-0.212-0.445 0.001-0.028-0.027-0.023-0.013 0.002-0.022 0.012-0.013 0.014-0.012 0.043 0.015 0.242 0.161 0.492 0.010 0.016-0.001 0.030-0.015 0.019-0.029 0.001l-0.088-0.11q-0.020-0.024-0.047-0.009l-0.030 0.017c-0.012 0.007-0.020 0.020-0.020 0.034 0 0.012 0.005 0.023 0.014 0.030l0 0 0.077 0.063c0.006 0.005 0.010 0.012 0.010 0.020 0 0.005-0.001 0.010-0.004 0.013l0-0-0.008 0.014q-0.010 0.017-0.024 0.003l-0.070-0.066q-0.031-0.030-0.050 0.009l-0.076 0.163c-0.005 0.011-0.016 0.018-0.028 0.018-0.014 0-0.026-0.009-0.030-0.022l-0-0q-0.029-0.089 0.051-0.148c0.005-0.004 0.009-0.010 0.011-0.017 0.003-0.015-0.007-0.030-0.023-0.033-0.007-0.001-0.014-0-0.020 0.003l0-0q-0.077 0.044-0.099 0.129-0.008 0.029-0.037 0.032-0.067 0.007-0.072 0.075-0.003 0.040-0.043 0.040l-1.046 0.011h-11.44l1.525-0.012c0 0 0 0 0 0 0.005 0 0.009-0.004 0.009-0.009 0-0.003-0.001-0.005-0.003-0.006v0l-0.014-0.014q-0.003-0.003-0.007-0.001-0.039 0.019-0.084 0.012-0.013-0.003-0.010-0.016 0.004-0.021-0.013-0.044c-0.002-0.003-0.005-0.005-0.009-0.005-0 0-0.001 0-0.001 0h0q-0.009 0-0.017 0t-0.012-0.008q-0.044-0.14 0.098-0.209 0.040-0.020 0.020 0.020l-0.033 0.067q-0.020 0.041 0.025 0.035l0.020-0.003q0.023-0.003 0.031-0.025 0.028-0.076 0.109-0.084c0.002-0 0.004-0.001 0.006-0.001 0.021-0.006 0.033-0.028 0.027-0.049-0.001-0.002-0.001-0.004-0.002-0.006l0 0-0.036-0.079c-0.003-0.006-0.004-0.013-0.004-0.020 0-0.017 0.009-0.032 0.022-0.040l0-0 0.223-0.148q0.029-0.020 0.064-0.030 0.069-0.019 0.085-0.094 0.007-0.034 0.042-0.033 0.069 0.003 0.124-0.033 0.026-0.017 0.026-0.048v-0.184q0-0.047 0.046-0.039 0.146 0.026 0.166-0.129 0.001-0.013-0.010-0.020l-0.038-0.022c-0.004-0.003-0.007-0.007-0.007-0.013s0.003-0.010 0.008-0.013l0-0q0.028-0.013 0.038-0.037 0.006-0.013 0.001-0.034-0.012-0.056 0.006-0.103 0.012-0.029 0.043-0.028 0.086 0.006 0.109-0.070 0.007-0.024 0.030-0.035 0.103-0.045 0.14 0.056 0.024 0.067 0.048 0l0.058-0.162q0.010-0.026 0.029-0.044 0.087-0.081 0.029-0.177c-0.004-0.007-0.007-0.016-0.007-0.026 0-0.028 0.022-0.050 0.050-0.050 0.011 0 0.021 0.004 0.030 0.010l-0-0 0.111 0.079c0.001 0.001 0.002 0.002 0.004 0.002 0.017 0.009 0.038 0.003 0.047-0.014 0.001-0.001 0.001-0.003 0.002-0.004l-0 0q0.065-0.167 0.243-0.182 0.044-0.004 0.068-0.040l0.147-0.217q0.017-0.026 0.048-0.022 0.108 0.011 0.102-0.084-0.012-0.196 0.183-0.268 0.061-0.022 0.064-0.079c0.005-0.093 0.025-0.147 0.112-0.187 0.003-0.001 0.006-0.002 0.009-0.002 0.009 0.001 0.016 0.010 0.015 0.020-0 0.003-0.002 0.006-0.003 0.009l0-0-0.053 0.069c-0.003 0.004-0.005 0.010-0.005 0.016 0 0.015 0.012 0.027 0.027 0.027 0.002 0 0.005-0 0.007-0.001l-0 0q0.114-0.029 0.122-0.138c0-0.001 0-0.001 0-0.002 0-0.017-0.013-0.032-0.029-0.034l-0-0-0.031-0.004q-0.026-0.004-0.008-0.022 0.078-0.082 0.013-0.172-0.025-0.035 0.012-0.055 0.1-0.056 0.2-0.002c0.007 0.004 0.016 0.006 0.026 0.006 0.030 0 0.054-0.024 0.054-0.054 0-0.011-0.003-0.021-0.008-0.029l0 0c-0.093-0.15-0.038-0.426-0.198-0.48-0.012-0.004-0.020-0.015-0.020-0.029 0-0.008 0.003-0.016 0.009-0.021v0l0.023-0.023q0.023-0.023 0.044 0.002 0.035 0.042 0.090 0.004 0.123-0.086 0.259-0.061 0.025 0.005 0.048-0.005l0.044-0.020c0.017-0.007 0.036-0.008 0.053-0.001l0 0c0.141 0.055 0.236-0.097 0.393-0.143 0.021-0.006 0.038-0.020 0.048-0.039l0-0c0.085-0.17 0.143-0.288 0.317-0.401 0.198-0.127 0.239-0.319 0.39-0.461 0.141-0.132 0.326-0.294 0.429-0.458 0.045-0.072 0.108-0.047 0.145-0.094q0.024-0.031 0.014-0.076-0.006-0.030 0.008-0.058 0.164-0.316 0.424-0.552 0.026-0.024 0.033-0.058c0.069-0.332 0.421-0.366 0.681-0.489q0.028-0.013 0.044 0.013 0.031 0.049 0.091 0.036 0.025-0.005 0.017-0.029-0.039-0.133 0.012-0.246 0.029-0.065 0.081-0.048 0.024 0.008 0.023-0.017-0.005-0.113 0.040-0.188-0.093 1.044-0.184 2.088c-0.037 0.427-0.036 0.566 0.451 0.569q0.469 0.003 0.915-0.001c0.166-0.001 0.303-0.129 0.318-0.291l0-0.001q0.103-1.156 0.203-2.367 0.065-0.788 0.503-1.374c0.229-0.306 0.695-0.505 1.055-0.312 0.277 0.149 0.344 0.637 0.33 0.875q-0.044 0.762-0.246 2.963c-0.024 0.266-0.019 0.504 0.307 0.508q0.548 0.006 1.080 0c0.152-0.002 0.278-0.117 0.292-0.267l0-0.001q0.154-1.567 0.271-3.202c0.090-1.247-0.337-2.414-1.836-2.273q0.117-0.086 0.196-0.155 0.058-0.051 0.105-0.041 0.040 0.009 0.019-0.027l-0.011-0.019q-0.018-0.030 0.008-0.054 0.17-0.156 0.203-0.38 0.004-0.029 0.031-0.044 0.141-0.076 0.186-0.232 0.013-0.047 0.054-0.021l0.067 0.042q0.037 0.024 0.051-0.019l0.109-0.356c0.005-0.015 0.018-0.025 0.034-0.025 0.009 0 0.017 0.003 0.023 0.009l-0-0q0.1 0.086 0.218-0.053 0.008-0.009 0.002-0.019l-0.012-0.019c-0.002-0.003-0.003-0.006-0.003-0.009-0.002-0.013 0.007-0.026 0.021-0.028 0.003-0.001 0.006-0 0.009 0l-0-0 0.093 0.021q0.022 0.005 0.021-0.017-0.002-0.038-0.023-0.070c-0.002-0.003-0.003-0.007-0.003-0.012 0-0.013 0.010-0.023 0.023-0.023 0.006 0 0.011 0.002 0.015 0.005l-0-0 0.049 0.044c0.006 0.006 0.015 0.010 0.024 0.010 0.017 0 0.032-0.012 0.035-0.029l0-0 0.012-0.063c0.004-0.018 0.020-0.032 0.039-0.032 0 0 0 0 0 0v0h0.054q0.035 0 0.030-0.035l-0.010-0.061c-0-0.002-0.001-0.005-0-0.007 0.001-0.018 0.017-0.031 0.035-0.030 0.002 0 0.005 0.001 0.007 0.001l-0-0q0.113 0.032 0.13-0.074 0.006-0.041-0.029-0.1c-0.002-0.003-0.003-0.007-0.003-0.011 0-0.012 0.009-0.021 0.021-0.021 0.005 0 0.010 0.002 0.014 0.005l-0-0 0.033 0.024c0.005 0.004 0.012 0.006 0.019 0.006 0.014 0 0.026-0.009 0.030-0.022l0-0 0.015-0.049q0.006-0.020 0.027-0.023 0.077-0.012 0.111-0.084 0.010-0.021 0.017 0.001 0.003 0.009 0.005 0.018c0.002 0.005 0.006 0.008 0.012 0.008s0.010-0.003 0.011-0.008l0-0 0.083-0.234c0.001-0.002 0.002-0.004 0.003-0.006 0.008-0.011 0.023-0.013 0.033-0.005 0.002 0.001 0.003 0.003 0.005 0.004l-0-0q0.027 0.032 0.059 0.003 0.027-0.024 0.016-0.058-0.004-0.011-0.001-0.020 0.008-0.022 0.032-0.022h0.079c0.023 0 0.042-0.019 0.042-0.042v0q0-0.054 0.064-0.038c0.004 0.001 0.008 0.001 0.012 0.001 0.019-0.002 0.033-0.019 0.031-0.038-0-0.004-0.001-0.008-0.003-0.011l0 0q-0.044-0.097 0.077-0.091c0.001 0 0.002 0 0.003 0 0.025 0 0.045-0.020 0.045-0.045 0-0 0-0.001-0-0.001v0l-0.004-0.17q-0.001-0.026 0.019-0.042 0.159-0.131 0.176-0.34 0.003-0.035 0.038-0.031l0.027 0.004c0.001 0 0.002 0 0.004 0 0.017 0 0.031-0.014 0.031-0.031 0-0.001 0-0.001-0-0.002v0q-0.004-0.081 0.072-0.070 0.028 0.004 0.046-0.018 0.112-0.134 0.191-0.287c0.042-0.082 0.145-0.135 0.166-0.189q0.032-0.083 0.113-0.1 0.036-0.008 0.061-0.035l0.435-0.462c0.002-0.003 0.005-0.006 0.006-0.010 0.008-0.018 0.001-0.040-0.017-0.048-0.004-0.002-0.008-0.003-0.012-0.003l0 0-0.169-0.017q-0.013-0.001-0.013-0.003t0-0.004q0-0.004 0.004-0.004l0.36-0.033zM39.892 21.764q0.049-0.011 0.020-0.072c-0.013-0.026-0.039-0.044-0.070-0.044-0.020 0-0.039 0.008-0.053 0.021l0-0q-0.042 0.039-0.026 0.085c0.011 0.031 0.040 0.053 0.074 0.053 0.006 0 0.012-0.001 0.018-0.002l-0.001 0q0.024-0.006 0.036-0.041z"></path>
<path fill="#e94375" d="M51.706 8.821c1.901 0.666 3.251 2.297 3.392 4.329l-0.012 0.441q-0.001 0.026-0.026 0.032l-0.039 0.010q-0.017 0.004-0.011 0.021 0.005 0.013 0.018 0.022 0.019 0.013 0.026 0.035 0.024 0.083-0.042 0.129-0.030 0.021-0.038 0.057l-0.047 0.214q-0.015 0.069-0.033 0.001c-0.040-0.15 0.006-0.317-0.1-0.413-0.008-0.008-0.019-0.012-0.031-0.012s-0.022 0.004-0.030 0.011l0-0q-0.116 0.101-0.2 0.225c-0.064 0.095-0.21 0.167-0.121 0.33q0.016 0.029-0.003 0.057-0.038 0.055-0.027 0.126c0 0.001 0 0.002 0 0.003 0 0.011-0.009 0.019-0.019 0.019-0.005 0-0.009-0.002-0.012-0.005l0 0-0.065-0.056c-0.006-0.005-0.013-0.008-0.021-0.008-0.018 0-0.032 0.014-0.032 0.032 0 0.002 0 0.004 0 0.005l-0-0 0.022 0.133c0 0.002 0.001 0.005 0.001 0.008 0 0.019-0.010 0.035-0.024 0.044l-0 0q-0.141 0.089-0.191 0.243-0.006 0.019-0.024 0.011l-0.074-0.031q-0.049-0.020-0.044 0.033l0.020 0.205q0.003 0.033-0.019 0.058-0.054 0.063-0.131 0.097-0.036 0.015-0.018-0.019 0.035-0.069 0.104-0.108c0.009-0.005 0.016-0.015 0.016-0.027s-0.006-0.021-0.015-0.026l-0-0q-0.043-0.026-0.049-0.070-0.004-0.024-0.013-0.047-0.019-0.047-0.051-0.019-0.027 0.025-0.013 0.058l0.031 0.076c0.006 0.016 0.002 0.034-0.010 0.045l-0 0-0.212 0.189q-0.023 0.020-0.015 0.051c0.028 0.099-0.052 0.239-0.171 0.2q-0.037-0.012-0.030 0.026l0.016 0.084q0.011 0.054-0.033 0.020t-0.070-0.079q-0.020-0.035 0.008-0.063 0.072-0.071 0.053-0.179c-0.002-0.008-0.009-0.014-0.018-0.014-0.010 0-0.018 0.008-0.019 0.018v0q0.004 0.071-0.055 0.114c-0.016 0.011-0.023 0.031-0.019 0.050l0 0c0.042 0.18 0.075 0.356-0.093 0.478-0.005 0.004-0.011 0.006-0.018 0.005-0.013-0.002-0.022-0.014-0.020-0.027 0.001-0.007 0.004-0.012 0.009-0.016v0l0.098-0.076c0.001-0.001 0.002-0.002 0.003-0.003 0.010-0.010 0.009-0.026-0.001-0.036-0.001-0.001-0.002-0.002-0.003-0.003l0 0q-0.049-0.034-0.018-0.077 0.020-0.028 0.001-0.057-0.070-0.106-0.039-0.24 0.002-0.006-0.004-0.008-0.008-0.003-0.017-0.006t-0.010 0.007l-0.018 0.398c-0.001 0.022-0.017 0.040-0.039 0.042l-0 0q-0.032 0.004-0.047 0.030-0.026 0.044-0.025 0.051l0.008 0.189c0 0 0 0 0 0 0 0.004-0.003 0.008-0.008 0.008-0.002 0-0.004-0.001-0.005-0.002v0l-0.050-0.050c-0.001-0.001-0.001-0.001-0.002-0.002-0.007-0.009-0.005-0.022 0.004-0.029 0.001-0.001 0.001-0.001 0.002-0.001l-0 0 0.017-0.010q0.053-0.031-0.005-0.051-0.071-0.026-0.032-0.072 0.024-0.028 0.010-0.061c-0.032-0.077-0.037-0.361-0.060-0.378q-0.038-0.028-0.027 0.019 0.059 0.228 0.007 0.463-0.008 0.036-0.033 0.061-0.041 0.041-0.010 0.088c0.013 0.019 0.011 0.043-0.003 0.061l-0 0-0.188 0.218q-0.015 0.017-0.035 0.006-0.127-0.075-0.026-0.182c0.004-0.005 0.007-0.011 0.007-0.018 0-0.015-0.012-0.026-0.026-0.026-0.004 0-0.008 0.001-0.011 0.002l0-0-0.035 0.017q-0.020 0.009-0.019 0.031l0.012 0.24c0 0.003-0 0.006-0.001 0.009-0.004 0.012-0.017 0.018-0.029 0.013-0.003-0.001-0.005-0.003-0.008-0.004l0 0-0.026-0.022c-0.001-0.001-0.002-0.002-0.004-0.003-0.014-0.009-0.032-0.004-0.041 0.010-0.001 0.001-0.002 0.003-0.002 0.004l0-0-0.065 0.148q-0.012 0.026-0.010 0.054 0.004 0.124-0.108 0.186-0.033 0.019-0.054-0.013-0.045-0.067-0.116-0.016c-0.006 0.004-0.010 0.011-0.010 0.019 0 0.012 0.009 0.022 0.021 0.023h0l0.030 0.004c0.010 0.001 0.018 0.010 0.018 0.020 0 0.005-0.002 0.010-0.005 0.014l0-0-0.060 0.068c-0.006 0.006-0.010 0.014-0.013 0.022l-0.099 0.298q-0.012 0.035-0.039 0.012-0.012-0.011-0.046-0.053c-0.008-0.011-0.019-0.018-0.032-0.021-0.042-0.008-0.087 0.042-0.1 0.111-0.004 0.021-0.005 0.042-0.003 0.060l-0-0.001q0.013 0.113-0.104 0.169c-0.001 0.001-0.002 0.001-0.004 0.001-0.003 0-0.006-0.002-0.007-0.005v-0q-0.003-0.008-0.005-0.016c-0.003-0.011 0.002-0.022 0.013-0.026h0q0.058-0.020 0.050-0.075c-0.002-0.012-0.012-0.020-0.024-0.020-0.004 0-0.008 0.001-0.012 0.003l0-0-0.069 0.040q-0.030 0.018-0.028 0.053 0.007 0.101-0.081 0.164c-0.003 0.002-0.006 0.003-0.010 0.003-0.010 0-0.017-0.008-0.017-0.017 0-0.003 0.001-0.006 0.002-0.008l-0 0 0.036-0.074c0.002-0.004 0.003-0.008 0.003-0.012 0-0.016-0.013-0.028-0.028-0.028-0.003 0-0.007 0.001-0.010 0.002l0-0q-0.124 0.042-0.104 0.152c0.001 0.006 0.002 0.013 0.002 0.020 0 0.066-0.054 0.12-0.12 0.12-0.019 0-0.037-0.004-0.053-0.012l0.001 0-0.089-0.044q-0.057-0.028-0.038 0.033 0.025 0.079-0.039 0.101-0.037 0.013-0.027 0.051l0.017 0.065q0.012 0.045-0.021 0.012l-0.045-0.045c-0.007-0.007-0.016-0.011-0.026-0.011-0.020 0-0.036 0.016-0.036 0.036 0 0.002 0 0.005 0.001 0.007l-0-0q0.015 0.080-0.037 0.136-0.038 0.042-0.044-0.014l-0.018-0.172q-0.001-0.013-0.002-0.013-0.008-0.003-0.017-0.006t-0.008 0.006q0.013 0.111-0.061 0.193c-0.006 0.007-0.009 0.016-0.009 0.025 0 0.007 0.002 0.013 0.005 0.019l-0-0 0.015 0.024q0.018 0.030-0.008 0.054l-0.131 0.121c-0.008 0.007-0.013 0.018-0.013 0.030 0 0.006 0.001 0.012 0.004 0.017l-0-0 0.013 0.029c0.001 0.002 0.001 0.004 0.001 0.006-0.001 0.006-0.006 0.011-0.012 0.010-0.002-0-0.004-0.001-0.006-0.003l0 0-0.1-0.084c-0.002-0.002-0.004-0.003-0.007-0.004-0.020-0.011-0.044-0.003-0.055 0.017-0.001 0.002-0.002 0.005-0.003 0.008l0-0q-0.054 0.176 0.056 0.301 0.024 0.028-0.003 0.053l-0.246 0.236c-0.003 0.003-0.008 0.005-0.012 0.005-0.010 0-0.018-0.008-0.018-0.018 0-0.005 0.002-0.010 0.006-0.013v0l0.233-0.225q0.025-0.024-0.001-0.047l-0.090-0.081c-0.004-0.004-0.007-0.009-0.007-0.015 0-0.009 0.006-0.017 0.014-0.019l0-0 0.020-0.006c0.014-0.005 0.024-0.018 0.024-0.033 0-0.011-0.005-0.020-0.012-0.027l-0-0-0.078-0.065c-0.006-0.005-0.013-0.008-0.021-0.008-0.018 0-0.032 0.014-0.032 0.032 0 0.002 0 0.004 0 0.005l-0-0 0.038 0.242c0.001 0.003 0.001 0.006 0.001 0.010 0 0.017-0.007 0.032-0.018 0.043v0q-0.134 0.125-0.218 0.286c-0.043 0.082-0.012 0.176-0.128 0.248-0.003 0.002-0.007 0.004-0.011 0.004-0.010 0-0.017-0.008-0.017-0.017 0-0.005 0.002-0.010 0.006-0.013l0-0 0.089-0.092c0-0 0.001-0.001 0.001-0.001 0.011-0.012 0.010-0.030-0.003-0.041-0-0-0.001-0.001-0.001-0.001l0 0-0.026-0.021c-0.005-0.004-0.009-0.011-0.009-0.018 0-0.005 0.002-0.010 0.004-0.014l-0 0 0.124-0.173q0.022-0.031 0.008-0.067-0.077-0.188-0.026-0.386 0.006-0.026-0.019-0.018-0.012 0.004-0.020 0.017t-0.008 0.041q0.010 0.186-0.015 0.371-0.004 0.033-0.026 0.059l-0.077 0.087c-0.013 0.015-0.017 0.035-0.011 0.053l0 0q0.022 0.072-0.042 0.093-0.033 0.011-0.042-0.023l-0.018-0.067q-0.008-0.033-0.038-0.019l-0.029 0.013c-0.012 0.006-0.017 0.019-0.013 0.031v0l0.040 0.111q0.011 0.030-0.011 0.053-0.081 0.084-0.113 0.195-0.008 0.030-0.034 0.049-0.1 0.073-0.063 0.201 0.003 0.012-0.006 0.013-0.003 0.001-0.006 0-0.012-0.002-0.010-0.011 0.009-0.058-0.012-0.096-0.015-0.029-0.001-0.059l0.182-0.368c0.002-0.003 0.002-0.007 0.002-0.010 0-0.013-0.010-0.023-0.023-0.023-0.004 0-0.008 0.001-0.011 0.003l0-0q-0.121 0.063-0.113 0.198 0.002 0.036-0.026 0.061l-0.132 0.113c-0.008 0.007-0.014 0.016-0.016 0.026l-0 0-0.022 0.096c-0.001 0.009-0.009 0.017-0.019 0.017s-0.019-0.008-0.019-0.019c0-0.001 0-0.001 0-0.002v0-0.083q0-0.045-0.040-0.024-0.102 0.057-0.033 0.136 0.024 0.027 0.008 0.059-0.111 0.221-0.264 0.413-0.009 0.011-0.017 0.013-0.013 0.003-0.027-0.006c-0.001-0-0.002-0.001-0.002-0.002-0.011-0.009-0.013-0.026-0.004-0.036 0.001-0.001 0.001-0.002 0.002-0.002l-0 0q0.173-0.169 0.232-0.407c0-0.001 0.001-0.003 0.001-0.004 0-0.010-0.008-0.019-0.019-0.019-0.002 0-0.003 0-0.005 0.001l0-0q-0.165 0.045-0.135 0.209 0.006 0.032-0.021 0.049c-0.14 0.090-0.065 0.166-0.122 0.246q-0.019 0.026-0.056 0.015-0.026-0.007-0.026-0.033v-0.070q0-0.054-0.041-0.019l-0.014 0.013q-0.033 0.028-0.020 0.069l0.023 0.072q0.009 0.028-0.008 0.053l-0.247 0.369c-0.005 0.007-0.013 0.011-0.022 0.011-0.006 0-0.012-0.002-0.017-0.006l0 0q-0.015-0.012-0.015-0.027-0.001-0.013 0.017-0.032 0.151-0.154 0.213-0.367 0.012-0.040-0.029-0.031-0.163 0.033-0.132 0.193c0.005 0.026-0.007 0.052-0.028 0.065l-0 0q-0.116 0.072-0.096 0.205c0.001 0.009 0 0.019-0.005 0.028-0.012 0.022-0.039 0.030-0.061 0.018-0.009-0.005-0.016-0.012-0.020-0.021l0 0q-0.019-0.040-0.010-0.080c0-0.002 0.001-0.004 0.001-0.006 0-0.013-0.011-0.024-0.024-0.024-0.006 0-0.011 0.002-0.015 0.005l0-0-0.017 0.013q-0.036 0.026-0.022 0.069l0.022 0.063q0.009 0.028-0.006 0.052c-0.104 0.174-0.168 0.322-0.35 0.44q-0.18 0.117-0.325 0.279-0.023 0.026-0.058 0.026h-0.029q-0.038 0-0.044 0.038l-0.024 0.152q-0.005 0.036-0.036 0.055-0.273 0.168-0.412 0.457-0.036 0.077-0.146 0.124c-0.197 0.084-0.248 0.27-0.479 0.376q-0.061 0.028-0.067 0.1-0.003 0.032-0.030 0.048l-0.11 0.065c-0.017 0.011-0.031 0.027-0.038 0.046l-0 0.001q-0.073 0.209-0.271 0.299-0.038 0.017-0.049 0.053c-0.002 0.007-0.002 0.015 0.001 0.022 0.007 0.018 0.027 0.027 0.045 0.020 0.007-0.003 0.013-0.008 0.017-0.015l-0 0q0.033-0.055 0.093-0.063 0.029-0.004 0.049-0.025l0.105-0.111c0.004-0.004 0.010-0.007 0.017-0.007 0.013 0 0.024 0.011 0.024 0.024 0 0.004-0.001 0.009-0.003 0.012l0-0-0.122 0.199h-8.929l1.046-0.011q0.040-0.001 0.043-0.040 0.006-0.068 0.072-0.075 0.029-0.003 0.037-0.032 0.022-0.085 0.099-0.129c0.006-0.003 0.013-0.004 0.020-0.003 0.016 0.003 0.026 0.018 0.023 0.033-0.001 0.007-0.005 0.013-0.011 0.017l0-0q-0.081 0.060-0.051 0.148c0.004 0.013 0.016 0.022 0.030 0.022 0.012 0 0.023-0.007 0.028-0.018l0-0 0.076-0.163q0.019-0.039 0.050-0.009l0.070 0.066q0.014 0.013 0.024-0.003l0.008-0.014c0.002-0.004 0.004-0.008 0.004-0.013 0-0.008-0.004-0.015-0.009-0.020l-0-0-0.077-0.063c-0.009-0.007-0.014-0.018-0.014-0.030 0-0.015 0.008-0.027 0.020-0.034l0-0 0.030-0.017q0.027-0.015 0.047 0.009l0.088 0.11q0.015 0.019 0.029-0.001 0.010-0.014 0.001-0.030-0.146-0.25-0.161-0.492-0.001-0.029 0.012-0.043 0.010-0.010 0.022-0.012 0.028-0.005 0.027 0.023-0.003 0.268 0.212 0.445 0.034 0.028 0.019 0.082-0.010 0.035 0.026 0.026 0.043-0.011 0.041-0.068-0.001-0.028-0.030-0.028-0.044 0.001-0.053-0.073c-0-0.003-0.001-0.006-0.001-0.009 0-0.026 0.013-0.049 0.033-0.062l0-0q0.107-0.070 0.044-0.189-0.016-0.029 0.008-0.051c0.133-0.124 0.103-0.382 0.107-0.552q0.001-0.013 0.012-0.009 0.009 0.003 0.017 0.006t0.006 0.010q-0.034 0.157 0.032 0.298 0.014 0.029-0.002 0.059-0.052 0.097-0.088 0.198-0.024 0.067 0.020 0.105c0.004 0.004 0.010 0.006 0.015 0.006 0.012 0 0.022-0.009 0.023-0.021v-0q0.025-0.233 0.205-0.386c0.007-0.006 0.017-0.010 0.028-0.010s0.022 0.005 0.030 0.012v0l0.013 0.014c0.003 0.003 0.006 0.004 0.011 0.004 0.008 0 0.015-0.007 0.015-0.015 0-0.002-0.001-0.005-0.002-0.007l0 0q-0.049-0.095 0.044-0.147 0.035-0.020 0.049 0.018 0.004 0.010 0.010 0.020 0.013 0.022 0.017-0.004l0.024-0.191q0.006-0.049 0.055-0.049h0.038c0.006 0 0.012-0.002 0.017-0.006 0.013-0.009 0.016-0.027 0.007-0.040-0.004-0.005-0.009-0.009-0.015-0.010l0 0-0.048-0.015q-0.025-0.008-0.025-0.034v-0.019c0-0.017 0.014-0.030 0.030-0.030 0.006 0 0.011 0.002 0.016 0.004l-0-0q0.097 0.060 0.157-0.032c0.004-0.005 0.010-0.009 0.017-0.009 0.011 0 0.020 0.008 0.020 0.019v0q0.003 0.085-0.068 0.137c-0.010 0.007-0.016 0.019-0.016 0.032 0 0.007 0.002 0.013 0.005 0.019l-0-0 0.013 0.025c0.005 0.009 0.014 0.015 0.025 0.015s0.021-0.007 0.025-0.017l0-0 0.074-0.164c0.002-0.005 0.003-0.010 0.003-0.015 0-0.010-0.004-0.020-0.011-0.027v0l-0.025-0.024c-0.008-0.008-0.013-0.020-0.013-0.032s0.005-0.024 0.013-0.032v0l0.037-0.036q0.029-0.030 0.063-0.004 0.084 0.064 0.015 0.14c-0.003 0.003-0.005 0.008-0.005 0.012 0 0.006 0.003 0.011 0.007 0.015l0 0q0.011 0.008 0.026 0.005 0.008-0.002 0.015-0.010 0.079-0.095 0.166-0.184 0.026-0.027 0-0.054-0.112-0.113-0.083-0.288 0.008-0.049 0.044-0.015 0.079 0.078 0.152-0.008c0.005-0.006 0.013-0.010 0.022-0.010 0.016 0 0.029 0.013 0.029 0.029 0 0.002-0 0.003-0 0.005l0-0q-0.019 0.126-0.145 0.138-0.027 0.002-0.008 0.022l0.104 0.109q0.023 0.025 0.020-0.009t-0.015-0.065q-0.015-0.039 0.017-0.066 0.051-0.041 0.108 0.005c0.003 0.002 0.007 0.003 0.010 0.003 0.010 0 0.018-0.008 0.018-0.018 0-0.003-0.001-0.006-0.002-0.009l0 0q-0.142-0.232-0.083-0.506 0.003-0.012 0.009-0.013t0.017 0.003q0.006 0.003 0.004 0.010-0.031 0.102 0.038 0.172 0.022 0.023 0.002 0.048l-0.025 0.031c-0.002 0.004-0.004 0.009-0.004 0.014 0 0.014 0.011 0.025 0.025 0.025 0.006 0 0.012-0.002 0.017-0.006l-0 0q0.038-0.043 0.094-0.006 0.042 0.028 0.027-0.020l-0.016-0.051q-0.009-0.029 0.013-0.052l0.033-0.033q0.024-0.024 0.048 0l0.020 0.020c0.003 0.003 0.007 0.005 0.012 0.006 0.011 0.001 0.020-0.007 0.021-0.017 0-0.005-0.001-0.009-0.004-0.013v0q-0.039-0.054 0.005-0.099 0.026-0.027 0.026-0.064v-0.189q0-0.061 0.049-0.025l0.031 0.022c0.019 0.014 0.042 0.019 0.064 0.015l0.001-0q0.019-0.004 0.020-0.028t-0.023-0.033q-0.083-0.028-0.141-0.099c-0.003-0.004-0.005-0.009-0.005-0.014 0-0.013 0.011-0.024 0.024-0.024 0.005 0 0.009 0.001 0.013 0.004l-0-0q0.018 0.014 0.028 0.038 0.011 0.027 0.036 0.012l0.026-0.015q0.059-0.035 0.091 0.026 0.083 0.159-0.014 0.22-0.025 0.016-0.052 0.003l-0.060-0.028c-0.003-0.001-0.006-0.002-0.009-0.002-0.012 0-0.022 0.010-0.022 0.022 0 0.005 0.002 0.010 0.005 0.014l-0-0 0.042 0.048c0 0.001 0.001 0.001 0.001 0.002 0.008 0.011 0.006 0.028-0.006 0.036-0.001 0-0.001 0.001-0.002 0.001l0-0q-0.031 0.019-0.029 0.054 0.003 0.038 0.029 0.011l0.032-0.031q0.024-0.024 0.048 0l0.020 0.020c0.003 0.003 0.008 0.005 0.013 0.005 0.011 0 0.019-0.009 0.019-0.019 0-0.003-0.001-0.007-0.002-0.009l0 0q-0.050-0.077 0.036-0.125 0.027-0.015 0.049 0.007l0.022 0.021q0.017 0.018 0.033-0.001 0.012-0.014 0.001-0.033-0.077-0.139-0.155-0.278-0.026-0.045 0.010-0.073 0.020-0.016 0.026-0.040l0.031-0.137c0.002-0.007 0.008-0.013 0.016-0.013 0.009 0 0.016 0.007 0.016 0.016 0 0.001-0 0.002-0 0.003l0-0q-0.047 0.268 0.152 0.429 0.066 0.054 0.036-0.026l-0.019-0.051q-0.009-0.025 0.010-0.043l0.155-0.154q0.028-0.028 0.056 0l0.015 0.015c0.003 0.003 0.008 0.005 0.013 0.005 0.011 0 0.019-0.009 0.019-0.019 0-0.003-0.001-0.006-0.002-0.008l0 0-0.154-0.303c-0.003-0.006-0.005-0.014-0.005-0.021 0-0.016 0.008-0.030 0.020-0.039l0-0q0.078-0.054 0.045-0.161c-0.001-0.001-0.001-0.003-0.001-0.005 0-0.008 0.007-0.014 0.015-0.014 0.002 0 0.003 0 0.005 0.001l-0-0q0.010 0.003 0.018 0.006t0.007 0.012q-0.061 0.257 0.137 0.406 0.052 0.040 0.029-0.022-0.022-0.056 0.010-0.106 0.029-0.046-0.022-0.028l-0.052 0.020c-0.001 0.001-0.003 0.001-0.005 0.001-0.012 0.002-0.024-0.007-0.025-0.020-0-0.002-0-0.003-0-0.005v0l0.021-0.234q0.003-0.032 0.026-0.010l0.012 0.013q0.030 0.030 0.027 0.072l-0.005 0.068c-0 0.002-0 0.004 0.001 0.006 0.002 0.007 0.010 0.010 0.017 0.007 0.002-0.001 0.004-0.002 0.005-0.003l-0 0 0.047-0.045c0.002-0.002 0.005-0.003 0.008-0.003 0.004 0 0.008 0.002 0.010 0.006l0 0q0.018 0.035 0.045 0.036 0.061 0.004 0.019-0.041-0.046-0.049 0.004-0.093 0.027-0.024 0.022-0.060-0.012-0.096 0.013-0.185 0.014-0.052 0.052-0.014l0.034 0.034c0 0 0.001 0.001 0.001 0.002 0.011 0.012 0.009 0.032-0.003 0.043-0 0-0.001 0.001-0.001 0.001l0-0q-0.096 0.075 0.001 0.143c0.008 0.006 0.014 0.016 0.014 0.027s-0.005 0.021-0.013 0.027l-0 0q-0.053 0.041-0.025 0.102 0.024 0.053 0.049 0.001 0.055-0.116 0.005-0.233c-0.002-0.004-0.003-0.010-0.003-0.015 0-0.021 0.017-0.038 0.038-0.038 0.011 0 0.021 0.005 0.028 0.013l0 0 0.163 0.175c0 0 0.001 0.001 0.001 0.001 0.002 0.002 0.005 0.001 0.007-0.001 0-0 0-0.001 0.001-0.001v0q0.003-0.008 0.005-0.017 0.003-0.006-0.003-0.012l-0.136-0.162q-0.023-0.028-0.002-0.056l0.035-0.047c0.006-0.007 0.014-0.012 0.024-0.012 0.015 0 0.027 0.010 0.029 0.024l0 0q0.016 0.077 0.077 0.132t0.027-0.019l-0.077-0.173q-0.009-0.020 0.004-0.037l0.296-0.364c0.003-0.004 0.005-0.008 0.005-0.013 0-0.010-0.007-0.018-0.016-0.020l-0-0q-0.091-0.020-0.048-0.143 0.011-0.031 0.042-0.019 0.060 0.024 0.065 0.084 0.003 0.026 0.024 0.012 0.186-0.128 0.216-0.281 0.024-0.124-0.13-0.127c0.525-0.22 0.849-0.617 1.093-1.108 0.003-0.007 0.010-0.012 0.019-0.012 0.011 0 0.020 0.009 0.020 0.020v0l0.033 0.855c0.006 0.146 0.126 0.261 0.271 0.261h0.771c0 0 0 0 0 0 0.143 0 0.26-0.109 0.274-0.248l0-0.001 0.31-3.158q0.010 0.036 0.077 0.033 0.033-0.002 0.033 0.032-0.001 0.223 0.22 0.175 0.032-0.007 0.032-0.040v-0.044q0-0.037 0.025-0.064 0.083-0.092 0.068-0.211-0.003-0.028 0.020-0.042l0.26-0.154q0.027-0.016 0.053 0.001 0.1 0.061 0.105 0.172 0.001 0.028 0.029 0.023l0.053-0.011q0.032-0.006 0.029 0.027l-0.004 0.054q-0.003 0.037 0.034 0.032l0.031-0.004q0.030-0.004 0.022-0.034l-0.038-0.146c-0.004-0.014 0.004-0.029 0.019-0.033h0l0.021-0.007q0.042-0.013 0.040 0.031-0.003 0.042 0.002 0.085c0.001 0.021 0.018 0.037 0.039 0.037s0.039-0.018 0.039-0.039c0-0.001-0-0.001-0-0.002v0-0.143q0-0.035 0.027-0.058 0.078-0.065 0.106-0.185-0.161 1.746-0.322 3.489c-0.030 0.329 0.101 0.43 0.419 0.432q0.424 0.003 0.848-0.002c0.288-0.003 0.388-0.081 0.413-0.365q0.136-1.542 0.184-2.036c0.081-0.825 0.515-1.667 1.43-1.747 0.255-0.022 0.418-0.038 0.442-0.315q0.042-0.479 0.085-0.959c0.022-0.241-0.151-0.367-0.384-0.343-0.835 0.089-1.241 0.552-1.601 1.268-0.004 0.009-0.012 0.014-0.022 0.014-0.013 0-0.024-0.011-0.024-0.024 0-0 0-0.001 0-0.001v0c-0.004-0.235 0.116-1.030-0.237-1.134l0.225-0.126q0.029-0.016 0.029-0.049c-0.001-0.295 0.228-0.367 0.411-0.535 0.128-0.118 0.202-0.31 0.339-0.453 0.577 0.687 1.556 0.195 1.405-0.705q0.137-0.147 0.051-0.412-0.010-0.031 0.016-0.051 0.113-0.083 0.234-0.221 0.048-0.054 0.106-0.016 0.022 0.014 0.025-0.012l0.009-0.065c0.002-0.011 0.012-0.020 0.024-0.020s0.021 0.008 0.023 0.018l0 0q0.006 0.029 0.024 0.025 0.058-0.012 0.019 0.026l-0.014 0.014q-0.035 0.035 0.010 0.014l0.131-0.059c0.024-0.011 0.040-0.034 0.040-0.062 0-0.014-0.005-0.028-0.012-0.039l0 0q-0.066-0.095 0.001-0.194c0.002-0.004 0.007-0.007 0.012-0.007 0.007 0 0.013 0.006 0.013 0.013 0 0.001-0 0.001-0 0.002v-0l-0.006 0.152c0 0.009 0.008 0.017 0.017 0.017 0.007 0 0.012-0.004 0.015-0.009l0-0q0.038-0.085 0.003-0.168c-0.007-0.016-0.009-0.036-0.007-0.058 0.006-0.044 0.032-0.077 0.058-0.074 0.013 0.002 0.024 0.012 0.031 0.028v0q0.012 0.024 0.024 0.031 0.026 0.015 0.039 0.003 0.010-0.009 0.013-0.023 0.003-0.018-0.010-0.028-0.009-0.006-0.021-0.004c-0.001 0-0.002 0-0.003 0-0.008 0-0.015-0.007-0.015-0.015 0-0.001 0-0.002 0-0.002v0l0.003-0.022c0.002-0.009 0.009-0.016 0.019-0.016 0.007 0 0.014 0.004 0.017 0.010l0 0q0.056 0.12 0.154 0.079 0.048-0.020 0.048 0.032v0.034q0 0.056 0.038 0.015 0.029-0.029 0.036-0.073c0.002-0.012 0.012-0.020 0.024-0.020 0.007 0 0.013 0.003 0.018 0.008v0l0.027 0.026q0.024 0.024 0.045-0.002l0.074-0.092c0.006-0.007 0.009-0.016 0.009-0.026 0-0.012-0.005-0.022-0.013-0.030v0l-0.17-0.164c-0.006-0.006-0.010-0.014-0.010-0.023 0-0.018 0.014-0.032 0.032-0.032 0 0 0 0 0 0v0h0.026q0.019 0 0.026 0.019 0.052 0.148 0.194 0.227c0.012 0.007 0.020 0.020 0.020 0.034s-0.009 0.029-0.023 0.035l-0 0q-0.076 0.033-0.084 0.112-0.009 0.076 0.039 0.017l0.118-0.145q0.015-0.019-0.001-0.038l-0.175-0.202c-0.005-0.006-0.008-0.013-0.008-0.021 0-0.017 0.015-0.030 0.032-0.030 0.008 0 0.015 0.003 0.021 0.008l-0-0 0.226 0.212q0.037 0.035 0.022-0.013l-0.018-0.058q-0.008-0.026 0.017-0.036 0.028-0.012 0.026-0.035-0.001-0.027-0.001-0.030 0.058-0.38-0.137-0.746-0.032-0.060-0.012-0.133 0.008-0.031 0.017 0 0.042 0.14 0.116 0.265 0.035 0.060 0.033-0.010-0.005-0.185-0.081-0.408zM51.905 9.698q-0.004 0.045-0.034 0.045-0.047 0.001 0.006 0.045 0.041 0.034 0.024 0.090-0.008 0.027-0.031 0.043-0.009 0.006-0.019 0.013t-0.012 0.015q-0.003 0.010-0.001 0.019 0.012 0.033 0.035 0.008l0.060-0.063q0.026-0.026 0.010-0.060-0.032-0.065-0.020-0.132 0.006-0.028-0.004-0.056-0.015-0.042-0.056-0.049c-0.002-0.001-0.004-0.001-0.006-0.001-0.011 0-0.019 0.009-0.019 0.019 0 0.008 0.005 0.016 0.013 0.018l0 0 0.042 0.022c0.008 0.004 0.013 0.013 0.012 0.023l-0 0z"></path>
<path fill="#e7184a" d="M51.892 9.675l-0.042-0.022c-0.008-0.003-0.013-0.010-0.013-0.018 0-0.011 0.009-0.019 0.019-0.019 0.002 0 0.004 0 0.006 0.001l-0-0q0.042 0.006 0.056 0.049 0.010 0.028 0.004 0.056-0.012 0.067 0.020 0.132 0.016 0.033-0.010 0.060l-0.060 0.063q-0.024 0.025-0.035-0.008-0.003-0.008 0.001-0.019 0.003-0.009 0.012-0.015t0.019-0.013q0.024-0.016 0.031-0.043 0.017-0.056-0.024-0.090-0.054-0.044-0.006-0.045 0.030-0.001 0.034-0.045c0.001-0.010-0.004-0.019-0.012-0.023l-0-0z"></path>
<path fill="#fff" d="M50.11 11.288c0.15 0.9-0.828 1.391-1.405 0.705-0.667-1.037 0.96-1.853 1.405-0.705zM50.007 11.524c0-0.365-0.296-0.662-0.662-0.662v0c-0.365 0-0.662 0.296-0.662 0.662v0c0 0.365 0.296 0.662 0.662 0.662v0c0.365 0 0.662-0.296 0.662-0.662v0z"></path>
<path fill="#e7184a" d="M50.007 11.524c0 0.365-0.296 0.662-0.662 0.662v0c-0.365 0-0.662-0.296-0.662-0.662v0c0-0.365 0.296-0.662 0.662-0.662v0c0.365 0 0.662 0.296 0.662 0.662v0zM49.523 11.562q0.319-0.068 0.202-0.392c-0.010-0.028-0.032-0.049-0.059-0.057l-0.001-0q-0.28-0.084-0.572-0.051-0.036 0.004-0.036 0.040v0.837q0 0.048 0.047 0.040l0.040-0.006q0.040-0.007 0.040-0.047v-0.271c0-0 0-0 0-0 0-0.056 0.045-0.1 0.1-0.1 0.035 0 0.066 0.018 0.084 0.045l0 0 0.209 0.313q0.020 0.030 0.050 0.051 0.081 0.055 0.083-0.031c0-0.008-0.002-0.015-0.006-0.022l-0-0-0.202-0.295c-0.004-0.005-0.006-0.012-0.006-0.019 0-0.016 0.011-0.030 0.027-0.034l0-0z"></path>
<path fill="#fff" d="M9.916 11.092c0.077 0.116 0.119 0.182 0.106 0.328q-0.103 1.191-0.212 2.373c-0 0-0 0.001-0 0.001 0 0.009 0.007 0.016 0.016 0.016 0.005 0 0.009-0.002 0.012-0.006l0-0c0.669-0.782 1.817-1.017 2.709-0.491q0.658 0.487 0.856 1.328c0.526 2.646-1.441 4.706-4.144 4.204-0.553-0.129-1.054-0.426-1.287-0.968q-0.179-0.563-0.143-1.066 0.087-1.215 0.317-3.626 0.078-0.916 0.163-1.826c0.023-0.245 0.172-0.301 0.403-0.308q0.616-0.017 1.204 0.039zM11.725 15.292c-0.057-0.647-0.618-1.156-1.267-0.819-0.475 0.246-0.737 0.778-0.809 1.302-0.079 0.574-0.331 1.88 0.595 1.882 1.108 0.003 1.56-1.478 1.482-2.366z"></path>
<path fill="#fff" d="M49.501 11.615l0.202 0.295c0.005 0.006 0.007 0.014 0.006 0.022l-0 0q-0.003 0.086-0.083 0.031-0.029-0.020-0.050-0.051l-0.209-0.313c-0.018-0.027-0.049-0.045-0.084-0.045-0.056 0-0.1 0.045-0.1 0.1 0 0 0 0 0 0v-0 0.271q0 0.040-0.040 0.047l-0.040 0.006q-0.047 0.008-0.047-0.040v-0.837q0-0.036 0.036-0.040 0.292-0.033 0.572 0.051c0.028 0.009 0.050 0.030 0.060 0.057l0 0.001q0.116 0.323-0.202 0.392c-0.016 0.004-0.027 0.017-0.027 0.034 0 0.007 0.002 0.014 0.006 0.020l-0-0zM49.158 11.198l0.008 0.242c0 0.014 0.012 0.026 0.026 0.026 0 0 0 0 0.001 0h-0l0.232-0.008c0.108-0.003 0.193-0.067 0.191-0.143v-0l-0.001-0.020c-0.003-0.075-0.092-0.134-0.199-0.131l-0.232 0.007c-0.014 0-0.026 0.012-0.026 0.026 0 0 0 0 0 0.001v-0z"></path>
<path fill="#fff" d="M36.897 13.055c1.499-0.141 1.925 1.027 1.836 2.273q-0.117 1.635-0.271 3.202c-0.015 0.151-0.141 0.266-0.292 0.268h-0.001q-0.532 0.006-1.080 0c-0.326-0.003-0.332-0.242-0.307-0.508q0.202-2.2 0.246-2.963c0.013-0.237-0.053-0.726-0.33-0.875-0.36-0.193-0.826 0.006-1.055 0.312q-0.438 0.586-0.503 1.374-0.1 1.21-0.203 2.367c-0.015 0.164-0.152 0.291-0.318 0.292h-0q-0.445 0.004-0.915 0.001c-0.488-0.003-0.488-0.142-0.451-0.569q0.091-1.043 0.184-2.088 0.21-2.343 0.422-4.687c0.026-0.29 0.127-0.384 0.427-0.384q0.438 0.001 0.876-0.001c0.395-0.002 0.429 0.159 0.4 0.502q-0.097 1.14-0.198 2.262c-0 0.001-0 0.002-0 0.004 0 0.018 0.015 0.033 0.033 0.033 0.010 0 0.020-0.005 0.026-0.013l0-0q0.588-0.716 1.476-0.805z"></path>
<path fill="#e7184a" d="M49.158 11.198c0-0 0-0 0-0.001 0-0.014 0.011-0.026 0.026-0.026h0l0.232-0.007c0.108-0.003 0.197 0.055 0.199 0.131v0l0.001 0.020c0.002 0.075-0.083 0.139-0.191 0.143v0l-0.232 0.008c-0 0-0 0-0.001 0-0.014 0-0.026-0.011-0.026-0.026v-0l-0.008-0.242z"></path>
<path fill="#fff" d="M18.493 13.235q0.866 0.428 1.057 1.276c0.449 1.995-2.221 2.177-3.446 2.092-0.002-0-0.005-0-0.008 0-0.026 0.002-0.046 0.025-0.044 0.051 0 0.003 0.001 0.005 0.001 0.008l-0-0c0.295 1.175 1.626 1.103 2.531 0.798 0.58-0.195 0.536 0.398 0.616 0.717 0.063 0.252-0.049 0.364-0.28 0.445-1.571 0.551-3.828 0.504-4.375-1.487-0.514-1.9 0.506-3.898 2.59-4.095q0.72-0.067 1.359 0.196zM17.28 14.259c-0.645 0.037-1.094 0.473-1.173 1.095q-0.004 0.035 0.030 0.035c0.429 0.011 1.949 0.036 1.861-0.671-0.045-0.364-0.386-0.478-0.718-0.46z"></path>
<path fill="#fff" d="M45.126 15.393l-0.31 3.158c-0.014 0.14-0.132 0.249-0.275 0.249 0 0-0 0-0 0h-0.771c-0.146 0-0.265-0.115-0.271-0.261v-0l-0.033-0.855c-0-0.011-0.009-0.020-0.020-0.020-0.008 0-0.015 0.005-0.019 0.012l-0 0c-0.244 0.492-0.568 0.888-1.093 1.108q-1.248 0.438-2.109-0.484c-0.653-0.7-0.675-1.95-0.433-2.812 0.66-2.355 3.162-2.799 5.221-2.257 0.228 0.060 0.305 0.184 0.278 0.412q-0.049 0.417-0.165 1.749zM41.446 16.892c0.128 0.711 0.863 0.911 1.345 0.408 0.646-0.676 0.591-1.714 0.702-2.57 0.079-0.616-0.771-0.42-1.073-0.255-0.82 0.447-1.132 1.546-0.974 2.418z"></path>
<path fill="#fff" d="M46.469 14.879l0.136-1.469c0.014-0.144 0.134-0.257 0.281-0.257 0 0 0 0 0.001 0h-0l0.815 0.003c0.353 0.104 0.233 0.899 0.237 1.134 0 0-0 0.001-0 0.001 0 0.013 0.011 0.024 0.024 0.024 0.010 0 0.018-0.006 0.022-0.014l0-0c0.36-0.716 0.767-1.179 1.601-1.268 0.233-0.024 0.406 0.102 0.384 0.343q-0.044 0.48-0.085 0.959c-0.024 0.277-0.187 0.293-0.442 0.315-0.916 0.080-1.349 0.922-1.43 1.747q-0.049 0.494-0.184 2.036c-0.025 0.284-0.125 0.362-0.413 0.365q-0.424 0.004-0.848 0.002c-0.317-0.002-0.449-0.103-0.419-0.432q0.161-1.743 0.322-3.489z"></path>
<path fill="#fff" d="M24.278 13.044q0.843 0.068 1.382 0.209c0.182 0.048 0.201 0.243 0.183 0.417q-0.227 2.292-0.417 4.589c-0.015 0.193 0.003 0.372-0.177 0.48-0.183 0.108-0.65 0.061-0.874 0.060-0.168-0.002-0.304-0.136-0.31-0.302v-0.001l-0.028-0.786c0-0.004-0.001-0.008-0.003-0.011-0.006-0.011-0.020-0.014-0.031-0.008-0.003 0.002-0.006 0.005-0.008 0.008l0-0c-0.353 0.586-0.667 1.005-1.356 1.172-1.101 0.266-2.045-0.409-2.327-1.501q-0.178-0.766-0.056-1.434c0.379-2.080 2.004-2.988 4.022-2.893zM22.348 17.46q0.309 0.202 0.592 0.101c1.009-0.358 1.038-2 1.103-2.86 0.044-0.588-0.769-0.378-1.046-0.236-0.784 0.404-1.123 1.444-1.020 2.276 0.035 0.285 0.139 0.567 0.371 0.718z"></path>
<path fill="#fff" d="M28.612 13.949c0.124-0.154 0.256-0.312 0.395-0.429 0.824-0.69 2.092-0.666 2.814 0.18 0.771 0.904 0.73 2.429 0.268 3.478-0.64 1.457-2.214 2.125-3.707 1.521q-0.033-0.013-0.036 0.022l-0.18 1.9c-0.015 0.153-0.143 0.271-0.296 0.273h-0.001q-0.522 0.004-1.059 0c-0.381-0.003-0.34-0.279-0.314-0.556q0.326-3.475 0.655-6.958c0.015-0.156 0.145-0.275 0.301-0.276h0.001q0.346-0.002 0.732-0.001c0.524 0.002 0.38 0.461 0.389 0.833q0.001 0.058 0.037 0.013zM28.637 17.475c0.827 0.473 1.516-0.071 1.819-0.828q0.28-0.7 0.184-1.444c-0.12-0.927-1.080-1.142-1.608-0.403-0.51 0.716-0.494 1.588-0.52 2.449q-0.004 0.152 0.125 0.226z"></path>
<path fill="#ea5f90" d="M55.098 13.15q0.019 0.391-0.027 0.883-0.437 4.693-0.886 9.402-0.003 0.034-0.037 0.034l-8.338 0.001 0.122-0.199c0.002-0.003 0.003-0.008 0.003-0.012 0-0.013-0.011-0.024-0.024-0.024-0.007 0-0.012 0.003-0.017 0.007v0l-0.105 0.111q-0.020 0.021-0.049 0.025-0.061 0.008-0.093 0.063c-0.004 0.006-0.009 0.012-0.017 0.014-0.018 0.007-0.038-0.002-0.045-0.020-0.003-0.007-0.003-0.015-0.001-0.022l-0 0q0.010-0.036 0.049-0.053 0.198-0.090 0.271-0.299c0.007-0.019 0.020-0.035 0.037-0.046l0.001-0 0.11-0.065q0.027-0.016 0.030-0.048 0.006-0.073 0.067-0.1c0.232-0.106 0.282-0.291 0.479-0.376q0.109-0.047 0.146-0.124 0.138-0.289 0.412-0.457 0.031-0.019 0.036-0.055l0.024-0.152q0.006-0.038 0.044-0.038h0.029q0.035 0 0.058-0.026 0.145-0.162 0.325-0.279c0.182-0.118 0.246-0.266 0.35-0.44q0.015-0.024 0.006-0.052l-0.022-0.063q-0.015-0.043 0.022-0.069l0.017-0.013c0.004-0.003 0.009-0.005 0.015-0.005 0.013 0 0.024 0.011 0.024 0.024 0 0.002-0 0.004-0.001 0.006l0-0q-0.009 0.040 0.010 0.080c0.004 0.008 0.011 0.016 0.020 0.021 0.022 0.012 0.050 0.004 0.061-0.018 0.005-0.009 0.006-0.019 0.005-0.028l0 0q-0.020-0.134 0.096-0.205c0.022-0.014 0.033-0.039 0.029-0.065l-0-0q-0.030-0.16 0.132-0.193 0.040-0.008 0.029 0.031-0.062 0.213-0.213 0.367-0.018 0.019-0.017 0.032 0 0.015 0.015 0.027c0.005 0.003 0.010 0.006 0.016 0.006 0.009 0 0.017-0.004 0.022-0.011l0-0 0.247-0.369q0.017-0.025 0.008-0.053l-0.023-0.072q-0.013-0.041 0.020-0.069l0.014-0.013q0.041-0.035 0.041 0.019v0.070q0 0.026 0.026 0.033 0.038 0.011 0.056-0.015c0.057-0.080-0.018-0.156 0.122-0.246q0.027-0.017 0.021-0.049-0.030-0.163 0.135-0.209c0.001-0 0.003-0.001 0.004-0.001 0.010 0 0.019 0.008 0.019 0.019 0 0.002-0 0.003-0.001 0.005l0-0q-0.058 0.238-0.232 0.407c-0.001 0.001-0.001 0.001-0.002 0.002-0.009 0.011-0.007 0.027 0.004 0.036 0.001 0.001 0.002 0.001 0.002 0.002l-0-0q0.013 0.009 0.027 0.006 0.008-0.002 0.017-0.013 0.153-0.192 0.264-0.413 0.016-0.032-0.008-0.059-0.070-0.079 0.033-0.136 0.040-0.022 0.040 0.024v0.083c-0 0.001-0 0.001-0 0.002 0 0.010 0.008 0.019 0.019 0.019s0.018-0.007 0.019-0.017v-0l0.022-0.096c0.002-0.010 0.008-0.019 0.016-0.026l0-0 0.132-0.113q0.028-0.024 0.026-0.061-0.008-0.135 0.113-0.198c0.003-0.002 0.007-0.003 0.011-0.003 0.013 0 0.023 0.010 0.023 0.023 0 0.004-0.001 0.007-0.003 0.011l0-0-0.182 0.368q-0.015 0.029 0.001 0.059 0.020 0.038 0.012 0.096-0.002 0.009 0.010 0.011 0.003 0.001 0.006 0 0.009-0.001 0.006-0.013-0.037-0.128 0.063-0.201 0.026-0.019 0.034-0.049 0.032-0.111 0.113-0.195 0.022-0.023 0.011-0.053l-0.040-0.111c-0.004-0.012 0.001-0.025 0.013-0.031l0.029-0.013q0.030-0.014 0.038 0.019l0.018 0.067q0.008 0.034 0.042 0.023 0.065-0.021 0.042-0.093c-0.006-0.018-0.002-0.038 0.011-0.053l0-0 0.077-0.087q0.022-0.026 0.026-0.059 0.024-0.186 0.015-0.371-0.001-0.028 0.008-0.041t0.020-0.017q0.026-0.008 0.019 0.018-0.051 0.198 0.026 0.386 0.015 0.036-0.008 0.067l-0.124 0.173c-0.003 0.004-0.004 0.009-0.004 0.014 0 0.007 0.003 0.014 0.009 0.018l0 0 0.026 0.021c0 0 0.001 0.001 0.001 0.001 0.012 0.011 0.013 0.029 0.003 0.041-0 0-0.001 0.001-0.001 0.001l0-0-0.089 0.092c-0.004 0.003-0.006 0.008-0.006 0.013 0 0.010 0.008 0.017 0.017 0.017 0.004 0 0.008-0.001 0.011-0.004l-0 0c0.116-0.072 0.085-0.166 0.128-0.248q0.084-0.161 0.218-0.286c0.011-0.011 0.018-0.026 0.018-0.043 0-0.003-0-0.007-0.001-0.010l0 0-0.038-0.242c-0-0.002-0-0.003-0-0.005 0-0.018 0.014-0.032 0.032-0.032 0.008 0 0.015 0.003 0.021 0.008l-0-0 0.078 0.065c0.008 0.006 0.012 0.016 0.012 0.027 0 0.015-0.010 0.029-0.024 0.033l-0 0-0.020 0.006c-0.008 0.003-0.014 0.010-0.014 0.019 0 0.006 0.003 0.011 0.007 0.015h0l0.090 0.081q0.026 0.023 0.001 0.047l-0.233 0.225c-0.003 0.003-0.006 0.008-0.006 0.013 0 0.010 0.008 0.018 0.018 0.018 0.005 0 0.009-0.002 0.013-0.005v0l0.246-0.236q0.027-0.026 0.003-0.053-0.109-0.125-0.056-0.301c0.001-0.002 0.002-0.005 0.003-0.007 0.011-0.020 0.035-0.027 0.055-0.017 0.002 0.001 0.005 0.003 0.007 0.005l-0-0 0.1 0.084c0.002 0.001 0.004 0.002 0.006 0.003 0.006 0.001 0.011-0.004 0.012-0.010 0-0.002-0-0.004-0.001-0.006l0 0-0.013-0.029c-0.002-0.005-0.004-0.011-0.004-0.017 0-0.012 0.005-0.023 0.013-0.030l0-0 0.131-0.121q0.026-0.024 0.008-0.054l-0.015-0.024c-0.003-0.005-0.005-0.012-0.005-0.019 0-0.010 0.004-0.019 0.010-0.025l-0 0q0.074-0.082 0.061-0.193-0.001-0.009 0.008-0.006t0.017 0.006q0.001 0 0.002 0.013l0.018 0.172q0.006 0.056 0.044 0.014 0.052-0.056 0.037-0.136c-0-0.002-0.001-0.005-0.001-0.007 0-0.020 0.016-0.036 0.036-0.036 0.010 0 0.019 0.004 0.026 0.011v0l0.045 0.045q0.033 0.033 0.021-0.012l-0.017-0.065q-0.010-0.038 0.027-0.051 0.064-0.022 0.039-0.101-0.019-0.060 0.038-0.033l0.089 0.044c0.015 0.008 0.033 0.012 0.052 0.012 0.066 0 0.12-0.054 0.12-0.12 0-0.007-0.001-0.014-0.002-0.021l0 0.001q-0.019-0.11 0.104-0.152c0.003-0.001 0.006-0.002 0.009-0.002 0.016 0 0.028 0.013 0.028 0.028 0 0.005-0.001 0.009-0.003 0.013l0-0-0.036 0.074c-0.001 0.002-0.002 0.005-0.002 0.008 0 0.010 0.008 0.017 0.017 0.017 0.004 0 0.007-0.001 0.010-0.003l-0 0q0.088-0.063 0.081-0.164-0.003-0.035 0.028-0.053l0.069-0.040c0.003-0.002 0.008-0.003 0.012-0.003 0.012 0 0.022 0.009 0.024 0.020l0 0q0.008 0.055-0.050 0.075c-0.010 0.004-0.016 0.015-0.013 0.026v0q0.002 0.008 0.005 0.016c0.001 0.003 0.004 0.005 0.007 0.005 0.001 0 0.003-0 0.004-0.001l-0 0q0.117-0.056 0.104-0.169c-0.002-0.018-0.001-0.038 0.003-0.059 0.013-0.069 0.058-0.119 0.1-0.111 0.013 0.002 0.024 0.010 0.033 0.021l-0-0q0.034 0.042 0.046 0.053 0.028 0.023 0.039-0.012l0.099-0.298c0.003-0.009 0.007-0.016 0.013-0.022l0-0 0.060-0.068c0.003-0.004 0.005-0.008 0.005-0.014 0-0.010-0.008-0.019-0.018-0.020h-0l-0.030-0.004c-0.012-0.001-0.021-0.011-0.021-0.024 0-0.008 0.004-0.015 0.010-0.019l0-0q0.070-0.051 0.116 0.016 0.021 0.031 0.054 0.013 0.113-0.063 0.108-0.186-0.001-0.028 0.010-0.054l0.065-0.148c0.001-0.001 0.001-0.003 0.002-0.004 0.009-0.014 0.027-0.018 0.041-0.010 0.001 0.001 0.003 0.002 0.004 0.003l-0-0 0.026 0.022c0.002 0.002 0.005 0.003 0.007 0.004 0.012 0.004 0.025-0.002 0.029-0.013 0.001-0.003 0.001-0.006 0.001-0.009v0l-0.012-0.24q-0.001-0.022 0.019-0.031l0.035-0.017c0.003-0.001 0.007-0.002 0.011-0.002 0.014 0 0.026 0.012 0.026 0.026 0 0.007-0.003 0.013-0.007 0.018l0-0q-0.102 0.107 0.026 0.182 0.020 0.012 0.035-0.006l0.188-0.218c0.015-0.017 0.016-0.042 0.003-0.061l-0-0q-0.031-0.047 0.010-0.088 0.026-0.026 0.033-0.061 0.052-0.234-0.007-0.463-0.012-0.046 0.027-0.019c0.023 0.017 0.028 0.301 0.060 0.378q0.014 0.034-0.010 0.061-0.039 0.047 0.032 0.072 0.058 0.020 0.005 0.051l-0.017 0.010c-0.001 0-0.001 0.001-0.002 0.001-0.009 0.007-0.011 0.020-0.004 0.029 0.001 0.001 0.001 0.001 0.002 0.002l0.050 0.050c0.001 0.001 0.003 0.002 0.005 0.002 0.004 0 0.008-0.003 0.008-0.008 0 0 0-0 0-0v0l-0.008-0.189q-0.001-0.007 0.025-0.051 0.015-0.026 0.047-0.030c0.022-0.003 0.038-0.020 0.039-0.042v-0l0.018-0.398q0.001-0.010 0.010-0.007t0.017 0.006q0.006 0.002 0.004 0.008-0.031 0.134 0.039 0.24 0.019 0.029-0.001 0.057-0.031 0.044 0.018 0.077c0.001 0.001 0.002 0.002 0.003 0.002 0.010 0.010 0.011 0.026 0.001 0.036-0.001 0.001-0.002 0.002-0.003 0.003l0-0-0.098 0.076c-0.005 0.004-0.008 0.009-0.009 0.016-0.002 0.013 0.007 0.026 0.020 0.027 0.007 0.001 0.013-0.001 0.018-0.005v0c0.168-0.122 0.135-0.298 0.093-0.478-0.004-0.019 0.003-0.039 0.018-0.050l0-0q0.059-0.043 0.055-0.114c0.001-0.010 0.009-0.018 0.019-0.018 0.009 0 0.016 0.006 0.018 0.014l0 0q0.019 0.108-0.053 0.179-0.029 0.029-0.008 0.063 0.028 0.045 0.070 0.079t0.033-0.020l-0.016-0.084q-0.007-0.038 0.030-0.026c0.119 0.039 0.198-0.101 0.171-0.2q-0.008-0.030 0.015-0.051l0.212-0.189c0.013-0.011 0.017-0.029 0.010-0.045l-0-0-0.031-0.076q-0.014-0.033 0.013-0.058 0.031-0.028 0.051 0.019 0.010 0.023 0.013 0.047 0.006 0.044 0.049 0.070c0.009 0.005 0.015 0.015 0.015 0.026s-0.006 0.021-0.015 0.027l-0 0q-0.069 0.039-0.104 0.108-0.018 0.035 0.018 0.019 0.077-0.034 0.131-0.097 0.022-0.025 0.019-0.058l-0.020-0.205q-0.005-0.053 0.044-0.033l0.074 0.031q0.018 0.008 0.024-0.011 0.049-0.154 0.191-0.243c0.015-0.010 0.024-0.026 0.024-0.045 0-0.003-0-0.005-0.001-0.008l0 0-0.022-0.133c-0-0.002-0-0.003-0-0.005 0-0.018 0.014-0.032 0.032-0.032 0.008 0 0.015 0.003 0.021 0.008l-0-0 0.065 0.056c0.003 0.003 0.008 0.005 0.012 0.005 0.011 0 0.019-0.009 0.019-0.019 0-0.001-0-0.002-0-0.003l0 0q-0.012-0.071 0.027-0.126 0.019-0.028 0.003-0.057c-0.089-0.163 0.057-0.236 0.121-0.33q0.083-0.124 0.2-0.225c0.008-0.007 0.019-0.011 0.030-0.011s0.023 0.005 0.031 0.012l-0-0c0.107 0.096 0.061 0.263 0.1 0.413q0.018 0.068 0.033-0.001l0.047-0.214q0.008-0.036 0.038-0.057 0.065-0.045 0.042-0.129-0.006-0.022-0.026-0.035-0.013-0.009-0.018-0.022-0.006-0.017 0.011-0.021l0.039-0.010q0.025-0.006 0.026-0.032l0.012-0.441z"></path>
<path fill="#ed4f14" d="M8.145 13.187q-0.23 2.411-0.317 3.626-0.036 0.502 0.143 1.066-0.080-0.033-0.14-0.033-0.056 0-0.113 0.067c-0.317 0.374-0.724 0.665-1.009 1.056-0.065 0.089-0.162 0.125-0.231 0.216-0.105 0.138-0.205 0.208-0.299 0.33q-0.020 0.025-0.020 0.057v0.064c-0 0.021-0.012 0.041-0.030 0.051l-0 0q-0.098 0.054-0.131 0.163c-0.005 0.017-0.017 0.031-0.033 0.039l-0 0q-0.131 0.067-0.166 0.211-0.007 0.026-0.029 0.041c-0.28 0.176-0.41 0.506-0.699 0.617-0.017 0.007-0.032 0.018-0.042 0.032l-0 0-0.257 0.355q-0.018 0.025-0.047 0.037c-0.25 0.106-0.33 0.316-0.579 0.429q-0.030 0.013-0.032 0.046-0.006 0.095-0.104 0.053c-0.003-0.001-0.007-0.002-0.010-0.002-0.014 0-0.026 0.011-0.026 0.026 0 0.008 0.004 0.015 0.010 0.020l0 0 0.054 0.044q0.025 0.020 0.032 0.051 0.017 0.070-0.037 0.114-1.501-1.424-1.528-3.498 0.031 0.006 0.053-0.010 0.018-0.013 0.034 0.003l0.022 0.022q0.033 0.032 0.019-0.012l-0.010-0.034q-0.008-0.024 0.015-0.036 0.204-0.115 0.425-0.173 0.029-0.008 0.047-0.031c0.25-0.305 0.566-0.552 0.839-0.827q0.22-0.221 0.472-0.407 0.023-0.017 0.036-0.043 0.067-0.141 0.19-0.232 0.026-0.019 0.037-0.049 0.012-0.033 0.042-0.052c0.152-0.097 0.252-0.252 0.369-0.356 0.479-0.426 0.86-0.888 1.347-1.289 0.040-0.033 0.083-0.14 0.131-0.191q0.387-0.426 0.517-0.584 0.116-0.141 0.262-0.179 0.031-0.008 0.029-0.040-0.002-0.065 0.031-0.1 0.282-0.31 0.735-0.657z"></path>
<path fill="#e81b28" d="M16.107 15.354c0.079-0.622 0.528-1.058 1.173-1.095 0.332-0.019 0.673 0.095 0.718 0.46 0.088 0.707-1.432 0.682-1.861 0.671q-0.035-0.001-0.030-0.035z"></path>
<path fill="#e7184a" d="M42.79 17.299c-0.482 0.503-1.217 0.303-1.345-0.408-0.157-0.872 0.154-1.971 0.974-2.418 0.302-0.164 1.152-0.361 1.073 0.255-0.111 0.856-0.056 1.894-0.702 2.57z"></path>
<path fill="#e60433" d="M22.348 17.46c-0.232-0.151-0.335-0.433-0.371-0.718-0.104-0.832 0.236-1.872 1.020-2.276 0.277-0.143 1.091-0.352 1.046 0.236-0.065 0.86-0.095 2.502-1.103 2.86q-0.283 0.101-0.592-0.101z"></path>
<path fill="#ec4318" d="M10.458 14.474c0.649-0.337 1.21 0.172 1.267 0.819 0.078 0.888-0.374 2.369-1.482 2.366-0.925-0.003-0.673-1.308-0.595-1.882 0.072-0.524 0.334-1.056 0.809-1.302z"></path>
<path fill="#e60433" d="M28.637 17.475q-0.13-0.074-0.125-0.226c0.026-0.861 0.010-1.733 0.52-2.449 0.527-0.739 1.488-0.524 1.608 0.403q0.096 0.744-0.184 1.444c-0.303 0.757-0.992 1.301-1.819 0.828z"></path>
<path fill="#ec4318" d="M7.971 17.878c0.233 0.541 0.734 0.839 1.287 0.968q0.136 0.556-0.3 0.734c-0.142 0.058-0.314 0.013-0.483 0.109q-0.023 0.013-0.034-0.011l-0.010-0.022c-0.001-0.002-0.002-0.004-0.004-0.006-0.008-0.008-0.021-0.009-0.029-0.001-0.002 0.002-0.003 0.004-0.004 0.006l0-0q-0.020 0.043-0.053 0.064-0.028 0.018-0.031 0.050-0.020 0.195-0.203 0.293-0.024 0.013-0.043-0.007-0.005-0.005-0.015-0.006-0.017-0.003-0.024 0.013l-0.020 0.056q-0.012 0.033-0.042 0.013l-0.047-0.031q-0.049-0.032-0.045 0.026l0.001 0.035q0.002 0.028-0.011 0.054l-0.162 0.33c-0.006 0.012-0.015 0.022-0.027 0.027l-0 0c-0.136 0.065-0.243 0.095-0.347 0.211-0.367 0.411-0.829 0.726-1.124 1.19q-0.017 0.026-0.047 0.026h-0.124q-0.031 0-0.058 0.018-0.262 0.181-0.358 0.478-0.011 0.033-0.045 0.037l-0.208 0.024q-0.058 0.007-0.065 0.065l-0.004 0.026c-0.002 0.013-0.013 0.022-0.026 0.022-0.006 0-0.012-0.002-0.017-0.006l0 0q-0.375-0.321-0.346-0.041l-0.872-0.66q0.054-0.044 0.037-0.114-0.007-0.031-0.032-0.051l-0.054-0.044c-0.006-0.005-0.010-0.012-0.010-0.020 0-0.014 0.011-0.026 0.026-0.026 0.004 0 0.007 0.001 0.011 0.002l-0-0q0.098 0.042 0.104-0.053 0.002-0.033 0.032-0.046c0.25-0.113 0.33-0.323 0.579-0.429q0.029-0.012 0.047-0.037l0.257-0.355c0.011-0.015 0.025-0.026 0.042-0.032l0.001-0c0.289-0.111 0.419-0.441 0.699-0.617q0.022-0.015 0.029-0.041 0.036-0.143 0.166-0.211c0.016-0.008 0.028-0.022 0.033-0.039l0-0q0.033-0.109 0.131-0.163c0.019-0.010 0.030-0.030 0.030-0.051v-0.064q0-0.032 0.020-0.057c0.094-0.122 0.194-0.191 0.299-0.33 0.069-0.092 0.166-0.127 0.231-0.216 0.285-0.391 0.692-0.682 1.009-1.056q0.056-0.067 0.113-0.067 0.060 0.001 0.14 0.033z"></path>
<path fill="#e94375" d="M39.892 21.764q-0.012 0.035-0.036 0.041c-0.005 0.001-0.011 0.002-0.017 0.002-0.034 0-0.063-0.022-0.074-0.053l-0-0.001q-0.016-0.046 0.026-0.085c0.014-0.013 0.032-0.021 0.053-0.021 0.031 0 0.057 0.018 0.069 0.044l0 0q0.028 0.061-0.020 0.072z"></path>
</svg>
