<!-- Generated by IcoMoon.io -->
<svg version="1.1" xmlns="http://www.w3.org/2000/svg" width="32" height="32" viewBox="0 0 32 32">
<title>brit-care</title>
<path fill="#fcc300" d="M8.042 2.197c-0.248-0.277-0.495-0.562-0.741-0.856-0.537-0.639 0.281-1.276 0.766-0.755 0.003 0.003 0.006 0.005 0.010 0.007s0.008 0.002 0.012 0.002c0.004 0 0.008-0.001 0.012-0.002s0.007-0.004 0.010-0.007c0.545-0.591 1.354 0.166 0.775 0.804-0.237 0.26-0.479 0.53-0.726 0.808-0.007 0.008-0.016 0.015-0.026 0.019s-0.021 0.007-0.032 0.007c-0.011 0-0.022-0.002-0.032-0.007s-0.019-0.011-0.026-0.019zM8.029 0.794c-0.413-0.492-0.996-0.039-0.615 0.411 0.221 0.262 0.443 0.52 0.666 0.776 0.003 0.003 0.006 0.005 0.009 0.007s0.008 0.002 0.011 0.002c0.004 0 0.008-0.001 0.011-0.002s0.007-0.004 0.009-0.007c0.209-0.238 0.421-0.474 0.636-0.71 0.078-0.086 0.127-0.159 0.146-0.22 0.075-0.239-0.098-0.507-0.356-0.5-0.161 0.005-0.297 0.115-0.393 0.239-0.007 0.010-0.017 0.017-0.028 0.023s-0.023 0.009-0.035 0.009c-0.012 0-0.024-0.002-0.035-0.007s-0.021-0.012-0.029-0.022z"></path>
<path fill="#c38d4d" d="M10.718 1.996c-0.192 0.341-0.546 0.265-0.751-0.014-0.012-0.016-0.024-0.017-0.038-0.003-0.446 0.429-0.873 0.194-0.665-0.419 0.060-0.178 0.095-0.35 0.104-0.517 0.018-0.325 0.121-0.566 0.502-0.513 0.019 0.003 0.037-0.001 0.054-0.011 0.288-0.171 0.573-0.171 0.857 0.002 0.017 0.010 0.034 0.014 0.053 0.010 0.337-0.055 0.478 0.156 0.497 0.462 0.015 0.237 0.057 0.47 0.126 0.701 0.065 0.218 0.023 0.557-0.285 0.5-0.127-0.023-0.26-0.093-0.396-0.208-0.023-0.020-0.043-0.016-0.058 0.010zM10.765 0.74c-0.245-0.251-0.623-0.208-0.848 0.016-0.006 0.006-0.014 0.011-0.022 0.014s-0.017 0.003-0.026 0.002c-0.009-0.001-0.017-0.005-0.024-0.010s-0.013-0.012-0.017-0.020c-0.014-0.028-0.038-0.044-0.071-0.048-0.102-0.010-0.209 0.133-0.213 0.214-0.017 0.306-0.060 0.565-0.129 0.777-0.028 0.084-0.016 0.18-0.019 0.265-0.001 0.013 0.002 0.025 0.007 0.037s0.013 0.022 0.023 0.030c0.010 0.008 0.021 0.014 0.034 0.017s0.025 0.003 0.038 0c0.096-0.022 0.398-0.168 0.362-0.3-0.055-0.206-0.078-0.345-0.067-0.416 0.011-0.074 0.051-0.101 0.12-0.080 0.015 0.005 0.028 0.014 0.037 0.026s0.014 0.027 0.015 0.042c0.005 0.212 0.112 0.799 0.428 0.735 0.249-0.050 0.346-0.484 0.345-0.687-0-0.082 0.034-0.124 0.104-0.126 0.023-0.001 0.040 0.010 0.050 0.031 0.055 0.112-0.016 0.369-0.048 0.49-0.005 0.020-0.001 0.038 0.012 0.054 0.088 0.11 0.2 0.186 0.336 0.228 0.015 0.005 0.031 0.006 0.047 0.003s0.030-0.009 0.043-0.019c0.013-0.010 0.023-0.022 0.029-0.037s0.010-0.030 0.009-0.046c-0.005-0.101-0.007-0.193-0.040-0.292-0.066-0.197-0.104-0.437-0.116-0.721-0.005-0.119-0.075-0.195-0.21-0.229-0.015-0.004-0.027 0.001-0.035 0.013-0.025 0.036-0.059 0.055-0.103 0.058-0.009 0-0.018-0.001-0.027-0.004s-0.016-0.009-0.023-0.015z"></path>
<path fill="#9bd4e1" d="M13.473 1.188c0.081 0.325-0.102 0.515-0.33 0.763-0.37 0.403-0.696 0.376-1.043-0.030-0.221-0.258-0.409-0.447-0.287-0.783 0.006-0.016 0.006-0.032-0.001-0.048l-0.243-0.571c-0.007-0.016-0.009-0.034-0.006-0.051s0.011-0.033 0.024-0.045c0.012-0.012 0.028-0.021 0.045-0.024s0.035-0.002 0.051 0.005l0.502 0.202c0.015 0.006 0.030 0.006 0.045-0.002 0.282-0.139 0.562-0.139 0.841 0.001 0.015 0.007 0.030 0.008 0.045 0.002l0.519-0.207c0.015-0.006 0.031-0.007 0.047-0.004s0.030 0.011 0.041 0.023c0.011 0.012 0.019 0.026 0.022 0.042s0.001 0.032-0.005 0.047l-0.263 0.623c-0.008 0.018-0.009 0.038-0.004 0.057zM12 1.124c-0.071 0.178-0.065 0.306 0.060 0.465 0.348 0.439 0.557 0.709 1.017 0.163 0.179-0.211 0.295-0.319 0.203-0.585-0.005-0.014-0.004-0.029 0.002-0.042l0.186-0.434c0.002-0.003 0.002-0.007 0.001-0.010s-0.002-0.007-0.005-0.009c-0.002-0.003-0.006-0.004-0.009-0.005s-0.007-0-0.011 0.001l-0.339 0.137c-0.019 0.008-0.038 0.006-0.057-0.005-0.267-0.16-0.533-0.161-0.8-0.001-0.008 0.005-0.017 0.008-0.026 0.008s-0.018-0.001-0.027-0.004l-0.341-0.136c-0.003-0.001-0.006-0.002-0.010-0.001s-0.006 0.002-0.009 0.005c-0.002 0.002-0.004 0.005-0.005 0.009s-0 0.007 0.001 0.010l0.166 0.385c0.007 0.017 0.007 0.033 0.001 0.050z"></path>
<path fill="#94c11e" d="M14.259 1.759c-0.209 0.025-0.346-0.048-0.414-0.219-0.122-0.312 0.006-0.713 0.419-0.657 0.004 0.001 0.009 0 0.013-0.001s0.008-0.004 0.011-0.007c0.003-0.003 0.005-0.007 0.007-0.011s0.002-0.008 0.001-0.013c-0.053-0.41 0.212-0.438 0.521-0.445 0.262-0.006 0.389 0.193 0.354 0.445-0.001 0.005-0 0.009 0.001 0.014s0.004 0.008 0.007 0.011 0.007 0.006 0.011 0.007c0.004 0.001 0.009 0.002 0.013 0.001 0.2-0.030 0.336 0.031 0.409 0.183 0.044 0.090 0.056 0.363 0.018 0.463-0.069 0.176-0.206 0.253-0.414 0.23-0.022-0.002-0.033 0.008-0.032 0.030 0.007 0.327-0.165 0.475-0.515 0.442-0.277-0.026-0.403-0.173-0.38-0.442 0.002-0.023-0.008-0.034-0.031-0.031zM14.466 1.616c0.008 0.076 0.010 0.153 0.006 0.229-0.015 0.295 0.353 0.258 0.501 0.164 0.008-0.005 0.015-0.012 0.019-0.021s0.007-0.018 0.007-0.028v-0.324c0-0.014 0.006-0.028 0.016-0.038s0.024-0.016 0.038-0.016h0.326c0.011 0 0.022-0.003 0.031-0.008s0.017-0.013 0.023-0.023c0.068-0.12 0.123-0.502-0.126-0.497-0.088 0.002-0.173 0.002-0.255 0-0.012-0-0.023-0.005-0.032-0.014s-0.013-0.020-0.014-0.032l-0.006-0.337c-0-0.008-0.002-0.016-0.006-0.023s-0.010-0.012-0.017-0.016c-0.126-0.073-0.261-0.090-0.406-0.051-0.152 0.041-0.096 0.323-0.103 0.448-0.001 0.017-0.010 0.025-0.026 0.025h-0.316c-0.034 0-0.067 0.014-0.091 0.038s-0.038 0.057-0.038 0.091v0.258c0 0.038 0.015 0.074 0.042 0.1s0.063 0.042 0.101 0.042h0.291c0.009-0 0.017 0.003 0.024 0.009s0.011 0.014 0.012 0.023z"></path>
<path fill="#9a9999" d="M11.953 7.031c0.897 0.312 1.518 0.834 1.57 1.823 0.068 1.291-0.771 2.126-2.014 2.312-0.17 0.026-0.437 0.039-0.801 0.040-1.187 0.004-2.374 0.004-3.561 0-0.018 0-0.027-0.009-0.027-0.026v-7.566c0-0.003 0.001-0.007 0.002-0.010s0.003-0.006 0.006-0.009c0.002-0.002 0.005-0.004 0.009-0.006s0.007-0.002 0.010-0.002c1.115 0.013 2.235 0.018 3.358 0.013 1.050-0.004 2.141 0.476 2.412 1.567 0.188 0.762-0.306 1.496-0.965 1.832-0.023 0.012-0.023 0.022 0.002 0.031zM9.026 5.016l0.005 1.585c0 0.005 0.002 0.011 0.006 0.015s0.009 0.006 0.015 0.006l1.038-0.004c0.24-0.001 0.47-0.086 0.639-0.238s0.264-0.356 0.263-0.57v-0.017c-0.001-0.213-0.097-0.418-0.267-0.568s-0.401-0.234-0.64-0.233l-1.038 0.003c-0.005 0-0.011 0.002-0.015 0.006s-0.006 0.009-0.006 0.015zM9.021 8.056l0.003 1.713c0 0.012 0.005 0.024 0.013 0.032s0.020 0.013 0.032 0.013l1.331-0.002c0.146-0 0.29-0.021 0.424-0.061s0.256-0.099 0.359-0.172c0.103-0.074 0.184-0.161 0.24-0.257s0.084-0.199 0.084-0.303v-0.222c-0-0.21-0.118-0.411-0.326-0.559s-0.49-0.231-0.784-0.23l-1.331 0.002c-0.012 0-0.024 0.005-0.032 0.013s-0.013 0.020-0.013 0.032z"></path>
<path fill="#9a9999" d="M19.622 5.394c0.493 0 0.893-0.4 0.893-0.893s-0.4-0.893-0.893-0.893c-0.493 0-0.893 0.4-0.893 0.893s0.4 0.893 0.893 0.893z"></path>
<path fill="#9a9999" d="M22.931 4.612c0.102-0.112 0.135-0.215 0.325-0.166 0.018 0.005 0.027 0.016 0.027 0.034v1.557c0 0.007 0.003 0.014 0.008 0.019s0.012 0.008 0.019 0.008h1.827c0.007 0 0.014 0.003 0.019 0.008s0.008 0.012 0.008 0.019v1.043c0 0.011-0.004 0.021-0.012 0.029s-0.018 0.012-0.029 0.012l-1.814-0.002c-0.016 0-0.024 0.008-0.024 0.024-0.005 0.626-0.006 1.253-0.002 1.879 0.002 0.312 0.033 0.526 0.091 0.643 0.316 0.638 1.269 0.374 1.743 0.107 0.005-0.003 0.010-0.004 0.016-0.004s0.011 0.002 0.015 0.004c0.005 0.003 0.009 0.007 0.011 0.011s0.004 0.010 0.004 0.015v1.096c0 0.020-0.009 0.034-0.028 0.042-1.1 0.491-2.966 0.566-3.389-0.899-0.055-0.188-0.084-0.547-0.088-1.075-0.004-0.6-0.004-1.201 0.001-1.802 0-0.005-0.001-0.011-0.003-0.016s-0.005-0.010-0.009-0.013c-0.004-0.004-0.008-0.007-0.013-0.009s-0.010-0.003-0.016-0.003h-0.664c-0.017 0-0.028-0.008-0.032-0.024-0.047-0.18-0.017-0.281 0.108-0.422 0.631-0.707 1.265-1.413 1.9-2.115z"></path>
<path fill="#9a9999" d="M15.679 7.517c0.213-0.537 0.63-1.199 1.127-1.437 0.575-0.275 1.062-0.022 1.553 0.34 0.014 0.010 0.019 0.024 0.014 0.041l-0.429 1.373c-0.001 0.004-0.003 0.008-0.006 0.011s-0.006 0.005-0.010 0.007c-0.004 0.001-0.008 0.002-0.012 0.002s-0.008-0.002-0.012-0.004c-0.401-0.259-0.897-0.511-1.359-0.252-0.38 0.213-0.892 1.089-0.899 1.517-0.010 0.687-0.013 1.375-0.008 2.063 0 0.021-0.010 0.031-0.031 0.031h-1.556c-0.027 0-0.040-0.014-0.040-0.041v-5.076c0-0.007 0.003-0.014 0.008-0.019s0.012-0.008 0.019-0.008h1.562c0.030 0 0.045 0.015 0.045 0.045l-0.010 1.399c0 0.005 0.002 0.011 0.005 0.015s0.008 0.007 0.014 0.008c0.005 0.001 0.011 0 0.016-0.002s0.008-0.007 0.010-0.012z"></path>
<path fill="#9a9999" d="M20.383 6.064h-1.564c-0.017 0-0.030 0.014-0.030 0.030v5.083c0 0.017 0.014 0.030 0.030 0.030h1.564c0.017 0 0.030-0.014 0.030-0.030v-5.083c0-0.017-0.014-0.030-0.030-0.030z"></path>
<path fill="#ee7401" d="M26.33 21.251c-0.562 0.648-1.38 0.867-2.182 0.867-5.377 0.001-10.754 0.001-16.131 0-0.917-0.001-1.701-0.142-2.336-0.867-0.576-0.863-0.574-1.575-0.588-2.68-0.014-1.053-0.010-2.107 0.012-3.161 0.027-1.315 0.729-2.44 2.037-2.721 0.223-0.048 0.583-0.072 1.078-0.072 5.665-0.002 11.331-0.001 16.997 0.003 0.568 0 1.103-0.125 1.602-0.376 0.022-0.011 0.033-0.004 0.034 0.021 0.006 2.282 0.005 4.57-0.003 6.862-0.003 0.871-0.079 1.457-0.52 2.124zM15.231 18.841l-0.038 0.836c-0.001 0.022 0.009 0.033 0.031 0.033h0.737c0.021 0 0.031-0.010 0.031-0.031-0.003-1.76-0.011-2.868-0.024-3.325-0.046-1.693-2.264-1.392-3.256-0.978-0.018 0.008-0.025 0.021-0.023 0.040l0.076 0.639c0.002 0.019 0.012 0.024 0.029 0.015 0.635-0.344 2.247-0.756 2.35 0.406 0.008 0.086 0.008 0.261 0.001 0.527-0 0.017-0.009 0.026-0.027 0.026-0.808-0.002-1.945 0.172-2.473 0.868-0.489 0.645-0.238 1.702 0.635 1.857 0.87 0.155 1.517-0.15 1.941-0.916 0.007-0.013 0.010-0.012 0.010 0.003zM17.894 16.188c0.059-0.335 0.092-0.673 0.097-1.013 0-0.019-0.009-0.028-0.028-0.028h-0.745c-0.018 0-0.027 0.009-0.027 0.027v4.508c0 0.018 0.009 0.027 0.027 0.027h0.77c0.007 0 0.014-0.003 0.020-0.008s0.008-0.012 0.008-0.019c-0.002-0.67 0.003-1.34 0.015-2.013 0.013-0.764 0.241-2.025 1.342-1.799 0.009 0.002 0.018 0.002 0.027-0s0.017-0.006 0.024-0.012c0.007-0.006 0.013-0.013 0.017-0.021s0.007-0.017 0.007-0.026l0.033-0.719c0.001-0.022-0.009-0.033-0.031-0.035-0.842-0.061-1.25 0.428-1.533 1.138-0.001 0.003-0.003 0.005-0.006 0.007s-0.006 0.002-0.009 0.001c-0.003-0.001-0.006-0.003-0.007-0.006s-0.002-0.006-0.002-0.009zM19.812 16.843c-0.213 1.264 0.119 2.745 1.643 2.921 0.683 0.078 1.343-0.003 1.98-0.244 0.008-0.003 0.015-0.009 0.020-0.016s0.007-0.016 0.006-0.025l-0.066-0.597c-0.001-0.005-0.002-0.010-0.005-0.014s-0.007-0.008-0.011-0.011c-0.004-0.003-0.010-0.004-0.015-0.004s-0.010 0.001-0.015 0.003c-0.616 0.269-1.599 0.428-2.178 0.043-0.48-0.319-0.583-0.955-0.567-1.5 0-0.008 0.004-0.016 0.010-0.022s0.014-0.009 0.022-0.009l2.933-0.002c0.017-0 0.027-0.009 0.030-0.025 0.42-2.829-3.349-3.090-3.786-0.499zM9.025 19.374c0.701 0.559 1.825 0.459 2.616 0.173 0.023-0.008 0.033-0.024 0.031-0.048l-0.057-0.641c-0.002-0.023-0.014-0.030-0.035-0.020-0.831 0.384-2.054 0.406-2.293-0.739-0.328-1.57 0.476-2.872 2.255-2.166 0.004 0.002 0.008 0.002 0.012 0.002s0.008-0.002 0.012-0.004c0.004-0.002 0.007-0.005 0.009-0.008s0.004-0.007 0.004-0.012l0.084-0.668c0.002-0.014-0.004-0.023-0.018-0.027-1.638-0.45-3.067 0.128-3.274 1.938-0.087 0.76 0.007 1.706 0.654 2.221z"></path>
<path fill="#ee7401" d="M21.549 15.687c0.697-0.144 1.268 0.357 1.228 1.065-0.001 0.022-0.013 0.033-0.035 0.033h-2.060c-0.026 0-0.036-0.013-0.033-0.038 0.079-0.507 0.376-0.951 0.899-1.060z"></path>
<path fill="#ee7401" d="M13.452 19.008c-0.183-0.111-0.261-0.297-0.232-0.559 0.087-0.787 1.336-0.851 1.902-0.838 0.018 0.001 0.027 0.010 0.028 0.028 0.009 0.42-0.111 0.775-0.361 1.064-0.338 0.394-0.867 0.589-1.336 0.304z"></path>
<path fill="#c4c4c4" d="M5.682 21.251c0.636 0.725 1.42 0.866 2.336 0.867 5.377 0.001 10.753 0.001 16.131 0 0.801 0 1.619-0.219 2.182-0.867l5.541 0.002c0.020 0 0.027 0.010 0.022 0.029l-0.845 2.722c-0.010 0.034-0.010 0.068 0 0.102l0.844 2.719c0.006 0.021-0.001 0.031-0.023 0.031h-31.694c-0.018 0-0.025-0.009-0.019-0.026l0.854-2.752c0.005-0.016 0.005-0.032 0-0.048l-0.854-2.746c-0.007-0.021 0.001-0.031 0.023-0.031l5.503-0.002zM2.624 24.412c0.38 0.041 0.779-0.073 0.781-0.535 0.003-0.53-0.622-0.538-1.003-0.442-0.014 0.003-0.021 0.012-0.021 0.026v1.568c0 0.027 0.014 0.041 0.041 0.041h0.142c0.023 0 0.034-0.011 0.034-0.034v-0.601c0-0.017 0.009-0.025 0.025-0.023zM4.424 24.28c0.317-0.186 0.371-0.437 0.164-0.754-0.013-0.020-0.033-0.036-0.056-0.045-0.269-0.104-0.545-0.121-0.828-0.051-0.014 0.004-0.022 0.013-0.022 0.028v1.59c0 0.004 0.001 0.009 0.003 0.013s0.004 0.008 0.008 0.011c0.003 0.003 0.007 0.005 0.011 0.007s0.009 0.002 0.013 0.002l0.145-0.014c0.010-0.001 0.019-0.006 0.026-0.013s0.011-0.017 0.010-0.027v-0.618c0-0.013 0.006-0.022 0.019-0.026 0.508-0.146 0.514 0.335 0.615 0.658 0.003 0.009 0.008 0.017 0.016 0.022s0.016 0.009 0.026 0.009h0.151c0.025 0 0.034-0.012 0.027-0.036-0.070-0.226-0.103-0.608-0.328-0.725-0.017-0.009-0.018-0.018-0.001-0.028zM5.252 24.337c0-0.007 0.003-0.014 0.008-0.018s0.011-0.008 0.018-0.008h0.584c0.007 0 0.013-0.003 0.018-0.008s0.008-0.011 0.008-0.018v-0.124c0-0.007-0.003-0.014-0.008-0.018s-0.011-0.008-0.018-0.008h-0.584c-0.007 0-0.013-0.003-0.018-0.008s-0.008-0.011-0.008-0.018v-0.516c0-0.007 0.003-0.014 0.008-0.018s0.011-0.008 0.018-0.008h0.625c0.007 0 0.013-0.003 0.018-0.008s0.008-0.011 0.008-0.018v-0.124c0-0.007-0.003-0.014-0.008-0.018s-0.011-0.008-0.018-0.008h-0.841c-0.003 0-0.007 0.001-0.010 0.002s-0.006 0.003-0.008 0.006-0.004 0.005-0.006 0.009-0.002 0.006-0.002 0.010v1.627c0 0.003 0.001 0.007 0.002 0.010s0.003 0.006 0.006 0.009 0.005 0.004 0.008 0.006 0.007 0.002 0.010 0.002h0.869c0.007 0 0.013-0.003 0.018-0.008s0.008-0.011 0.008-0.018v-0.124c0-0.007-0.003-0.014-0.008-0.018s-0.011-0.008-0.018-0.008h-0.652c-0.007 0-0.013-0.003-0.018-0.008s-0.008-0.012-0.008-0.018v-0.53zM6.738 24.787c-0.009 0.027-0.017 0.027-0.025 0l-0.408-1.362c-0.003-0.010-0.009-0.019-0.018-0.025s-0.019-0.010-0.029-0.010l-0.156 0.002c-0.023 0-0.032 0.011-0.024 0.033l0.497 1.558c0.010 0.030 0.028 0.057 0.054 0.075s0.056 0.029 0.088 0.030c0.032 0 0.063-0.009 0.089-0.027s0.045-0.044 0.056-0.074l0.543-1.558c0.002-0.004 0.002-0.009 0.001-0.013s-0.002-0.009-0.005-0.013c-0.003-0.004-0.006-0.007-0.010-0.009s-0.009-0.003-0.013-0.003h-0.152c-0.025 0-0.041 0.012-0.048 0.035l-0.437 1.361zM7.823 24.893c-0.007 0-0.013-0.003-0.018-0.008s-0.008-0.012-0.008-0.018v-0.53c0-0.007 0.003-0.014 0.008-0.018s0.011-0.008 0.018-0.008h0.584c0.007 0 0.014-0.003 0.018-0.008s0.008-0.011 0.008-0.018v-0.124c0-0.007-0.003-0.014-0.008-0.018s-0.011-0.008-0.018-0.008h-0.584c-0.007 0-0.013-0.003-0.018-0.008s-0.008-0.011-0.008-0.018v-0.516c0-0.007 0.003-0.014 0.008-0.018s0.011-0.008 0.018-0.008h0.625c0.007 0 0.014-0.003 0.018-0.008s0.008-0.011 0.008-0.018v-0.124c0-0.007-0.003-0.014-0.008-0.018s-0.011-0.008-0.018-0.008h-0.841c-0.007 0-0.013 0.003-0.018 0.008s-0.008 0.011-0.008 0.018v1.627c0 0.007 0.003 0.014 0.008 0.018s0.011 0.008 0.018 0.008h0.869c0.007 0 0.014-0.003 0.018-0.008s0.008-0.011 0.008-0.018v-0.124c0-0.007-0.003-0.014-0.008-0.018s-0.011-0.008-0.018-0.008h-0.652zM8.975 23.682l0.802 1.356c0.012 0.021 0.031 0.031 0.055 0.031h0.158c0.018 0 0.027-0.009 0.027-0.027v-1.624c0-0.018-0.009-0.027-0.027-0.027h-0.145c-0.025 0-0.037 0.012-0.037 0.037l0.021 1.327c-0 0.001-0 0.002-0.001 0.002s-0.001 0.001-0.002 0.001-0.002 0-0.002-0-0.001-0.001-0.002-0.002c-0.246-0.457-0.51-0.903-0.793-1.338-0.012-0.019-0.030-0.028-0.052-0.028h-0.158c-0.023 0-0.034 0.011-0.034 0.034v1.604c0 0.027 0.014 0.041 0.041 0.041h0.124c0.023 0 0.035-0.011 0.035-0.034 0.010-0.451 0.005-0.901-0.015-1.352 0-0.001 0-0.001 0.001-0.002s0.001-0.001 0.001-0.001 0.001-0 0.002 0 0.001 0.001 0.001 0.001zM10.644 23.567c0.006 0 0.012 0.002 0.016 0.007s0.007 0.010 0.007 0.016v1.457c0 0.006 0.002 0.012 0.007 0.016s0.010 0.007 0.016 0.007h0.171c0.006 0 0.012-0.002 0.016-0.007s0.007-0.010 0.007-0.016v-1.457c0-0.006 0.002-0.012 0.007-0.016s0.010-0.007 0.016-0.007h0.455c0.006 0 0.012-0.002 0.016-0.007s0.007-0.010 0.007-0.016v-0.131c0-0.006-0.002-0.012-0.007-0.016s-0.010-0.007-0.016-0.007h-1.173c-0.006 0-0.012 0.002-0.016 0.007s-0.007 0.010-0.007 0.016v0.131c0 0.006 0.002 0.012 0.007 0.016s0.010 0.007 0.016 0.007h0.455zM11.804 23.42c0-0.007-0.003-0.015-0.008-0.020s-0.012-0.008-0.020-0.008h-0.16c-0.007 0-0.015 0.003-0.020 0.008s-0.008 0.012-0.008 0.020v1.622c0 0.007 0.003 0.015 0.008 0.020s0.012 0.008 0.020 0.008h0.16c0.007 0 0.015-0.003 0.020-0.008s0.008-0.012 0.008-0.020v-1.622zM12.82 25.073c0.198 0.009 0.393-0.070 0.541-0.222s0.237-0.362 0.247-0.586c0.011-0.224-0.058-0.442-0.191-0.607s-0.319-0.262-0.517-0.272c-0.198-0.009-0.393 0.070-0.541 0.222s-0.237 0.362-0.247 0.586c-0.011 0.224 0.058 0.442 0.191 0.607s0.319 0.262 0.517 0.272zM14.913 24.754c-0.251-0.457-0.518-0.904-0.801-1.342-0.009-0.014-0.021-0.021-0.037-0.021h-0.166c-0.023 0-0.034 0.011-0.034 0.034v1.604c0 0.027 0.014 0.041 0.041 0.041h0.138c0.020 0 0.029-0.010 0.029-0.030l-0.016-1.347c0-0 0-0.001 0.001-0.001s0.001-0.001 0.001-0.001 0.001 0 0.001 0 0.001 0 0.001 0.001l0.798 1.347c0.012 0.021 0.030 0.031 0.055 0.031h0.151c0.022 0 0.034-0.011 0.034-0.034v-1.617c0-0.018-0.009-0.027-0.027-0.027h-0.145c-0.024 0-0.036 0.012-0.036 0.037l0.018 1.325c0 0 0 0.001-0 0.001s-0.001 0.001-0.001 0.001-0.001 0-0.001 0-0.001-0.001-0.001-0.001zM16.709 24.2c0.229-0.148 0.291-0.34 0.184-0.575-0.127-0.282-0.659-0.259-0.9-0.191-0.014 0.004-0.021 0.013-0.021 0.027v1.565c0 0.014 0.007 0.022 0.021 0.024 0.294 0.040 0.787 0.056 0.961-0.24 0.141-0.241 0.008-0.486-0.241-0.574-0.026-0.009-0.028-0.021-0.004-0.036zM17.795 24.159c-0.014 0.030-0.029 0.030-0.043 0l-0.36-0.736c-0.010-0.021-0.027-0.031-0.050-0.031h-0.166c-0.027 0-0.034 0.012-0.022 0.036 0.148 0.274 0.295 0.549 0.442 0.825 0.103 0.195 0.057 0.567 0.056 0.79 0 0.018 0.009 0.028 0.028 0.028h0.161c0.018 0 0.027-0.009 0.027-0.027 0.003-0.211-0.047-0.594 0.054-0.776 0.154-0.281 0.313-0.56 0.477-0.837 0.009-0.015 0.005-0.026-0.012-0.031-0.146-0.048-0.215-0.005-0.282 0.129-0.109 0.217-0.212 0.427-0.308 0.631zM20.17 24.743l-0.79-1.327c-0.010-0.017-0.025-0.025-0.045-0.025h-0.174c-0.023 0-0.034 0.011-0.034 0.034v1.604c0 0.027 0.014 0.041 0.041 0.041h0.131c0.025 0 0.037-0.012 0.036-0.037l-0.017-1.353c-0-0.001 0-0.002 0-0.003s0.001-0.001 0.002-0.002 0.002-0 0.003 0 0.001 0.001 0.002 0.002c0.257 0.465 0.528 0.922 0.812 1.372 0.008 0.013 0.020 0.020 0.036 0.020h0.152c0.023 0 0.034-0.011 0.034-0.034v-1.61c0-0.023-0.011-0.034-0.034-0.034h-0.13c-0.025 0-0.037 0.012-0.037 0.036-0.008 0.438-0.003 0.877 0.015 1.315 0 0-0 0.001-0 0.001s-0 0-0.001 0.001-0.001 0-0.001 0-0.001-0-0.001-0zM20.742 24.431c0.008 0.88 1.224 0.875 1.238-0.080 0.004-0.307 0.005-0.614 0.002-0.923-0-0.024-0.013-0.036-0.038-0.036l-0.149 0.006c-0.008 0-0.016 0.004-0.022 0.010s-0.009 0.014-0.009 0.023c0.006 0.541 0.005 0.891-0.002 1.052-0.024 0.54-0.774 0.559-0.803-0.001-0.008-0.152-0.009-0.505-0.002-1.060 0-0.021-0.010-0.031-0.031-0.031h-0.149c-0.010 0-0.020 0.004-0.028 0.011s-0.011 0.017-0.011 0.028c-0.001 0.191 0 0.525 0.004 1.001zM22.132 23.532c0 0.009 0.004 0.018 0.010 0.025s0.015 0.010 0.025 0.010h0.432c0.009 0 0.018 0.004 0.024 0.010s0.010 0.015 0.010 0.025v1.433c0 0.009 0.004 0.018 0.010 0.024s0.015 0.010 0.024 0.010h0.147c0.009 0 0.018-0.004 0.024-0.010s0.010-0.015 0.010-0.024v-1.433c0-0.009 0.004-0.018 0.010-0.025s0.015-0.010 0.024-0.010h0.432c0.009 0 0.018-0.004 0.025-0.010s0.010-0.015 0.010-0.025v-0.107c0-0.009-0.004-0.018-0.010-0.024s-0.015-0.010-0.025-0.010h-1.149c-0.009 0-0.018 0.004-0.025 0.010s-0.010 0.015-0.010 0.024v0.107zM24.255 24.266c0.197-0.093 0.283-0.255 0.258-0.485-0.048-0.444-0.639-0.435-0.988-0.346-0.017 0.005-0.026 0.016-0.026 0.034v1.564c0 0.023 0.012 0.035 0.035 0.035l0.152 0.002c0.008 0 0.015-0.003 0.021-0.008s0.009-0.013 0.009-0.020v-0.634c0-0.014 0.007-0.023 0.021-0.027 0.526-0.128 0.508 0.327 0.61 0.657 0.007 0.022 0.021 0.032 0.043 0.032h0.141c0.026 0 0.035-0.013 0.029-0.038-0.066-0.251-0.088-0.557-0.31-0.73-0.017-0.014-0.016-0.025 0.004-0.035zM25.015 23.431c0-0.011-0.004-0.021-0.012-0.028s-0.018-0.012-0.028-0.012h-0.136c-0.011 0-0.021 0.004-0.028 0.012s-0.012 0.018-0.012 0.028v1.598c0 0.011 0.004 0.021 0.012 0.028s0.018 0.012 0.028 0.012h0.136c0.011 0 0.021-0.004 0.028-0.012s0.012-0.018 0.012-0.028v-1.598zM25.694 23.567c0.003 0 0.007 0.001 0.010 0.002s0.006 0.003 0.008 0.006c0.002 0.002 0.004 0.005 0.006 0.008s0.002 0.006 0.002 0.010v1.452c0 0.007 0.003 0.013 0.007 0.018s0.011 0.007 0.018 0.007h0.166c0.007 0 0.013-0.003 0.018-0.007s0.007-0.011 0.007-0.018v-1.452c0-0.003 0.001-0.007 0.002-0.010s0.003-0.006 0.006-0.008c0.002-0.002 0.005-0.004 0.008-0.006s0.006-0.002 0.010-0.002h0.45c0.007 0 0.013-0.003 0.018-0.007s0.008-0.011 0.008-0.018v-0.125c0-0.007-0.003-0.013-0.008-0.018s-0.011-0.007-0.018-0.007h-1.167c-0.007 0-0.013 0.003-0.018 0.007s-0.007 0.011-0.007 0.018v0.125c0 0.007 0.003 0.013 0.007 0.018s0.011 0.007 0.018 0.007h0.45zM26.802 23.414c0-0.006-0.002-0.012-0.007-0.016s-0.010-0.007-0.016-0.007h-0.171c-0.006 0-0.012 0.002-0.016 0.007s-0.007 0.010-0.007 0.016v1.633c0 0.006 0.002 0.012 0.007 0.016s0.010 0.007 0.016 0.007h0.171c0.006 0 0.012-0.002 0.016-0.007s0.007-0.010 0.007-0.016v-1.633zM27.814 25.074c0.198 0.010 0.393-0.069 0.541-0.219s0.238-0.361 0.25-0.585c0.006-0.111-0.008-0.221-0.040-0.326s-0.082-0.2-0.148-0.282c-0.065-0.082-0.144-0.148-0.233-0.195s-0.184-0.074-0.282-0.079c-0.198-0.010-0.393 0.069-0.541 0.219s-0.238 0.361-0.25 0.585c-0.006 0.111 0.008 0.221 0.040 0.326s0.082 0.2 0.147 0.282 0.144 0.148 0.233 0.195c0.088 0.047 0.184 0.074 0.282 0.079zM29.064 23.691c0-0.001 0-0.001 0.001-0.002s0.001-0.001 0.001-0.001 0.001-0 0.002 0 0.001 0.001 0.001 0.001l0.798 1.348c0.012 0.021 0.030 0.031 0.055 0.031h0.157c0.018 0 0.027-0.009 0.027-0.027v-1.624c0-0.018-0.009-0.027-0.027-0.027h-0.145c-0.025 0-0.037 0.012-0.036 0.036l0.017 1.319c0 0.021-0.004 0.022-0.013 0.003-0.227-0.459-0.51-0.892-0.78-1.327-0.012-0.019-0.028-0.028-0.050-0.029l-0.163-0.004c-0.023-0.001-0.035 0.011-0.035 0.034v1.605c0 0.027 0.014 0.041 0.041 0.041h0.138c0.020 0 0.030-0.010 0.030-0.030l-0.018-1.348z"></path>
<path fill="#fff" d="M2.599 24.435v0.601c0 0.022-0.011 0.034-0.034 0.034h-0.142c-0.027 0-0.041-0.014-0.041-0.041v-1.568c0-0.014 0.007-0.023 0.021-0.026 0.381-0.096 1.005-0.088 1.003 0.442-0.003 0.463-0.401 0.577-0.781 0.536-0.017-0.002-0.025 0.005-0.025 0.023zM2.598 23.603l0.001 0.6c0 0.013 0.005 0.026 0.015 0.035s0.022 0.015 0.036 0.015l0.18-0.001c0.097-0 0.19-0.035 0.258-0.096s0.107-0.144 0.107-0.231v-0.049c-0-0.043-0.010-0.085-0.028-0.125s-0.045-0.075-0.079-0.106c-0.034-0.030-0.074-0.054-0.119-0.070s-0.092-0.025-0.14-0.025l-0.18 0.001c-0.013 0-0.026 0.005-0.036 0.015s-0.015 0.022-0.015 0.035z"></path>
<path fill="#fff" d="M4.424 24.308c0.225 0.117 0.258 0.498 0.328 0.724 0.007 0.024-0.002 0.036-0.027 0.036h-0.151c-0.009 0-0.018-0.003-0.026-0.009s-0.013-0.013-0.016-0.022c-0.1-0.323-0.106-0.804-0.615-0.658-0.013 0.004-0.019 0.013-0.019 0.026v0.618c0 0.010-0.004 0.020-0.010 0.027s-0.016 0.012-0.026 0.013l-0.145 0.014c-0.005 0-0.009-0-0.013-0.002s-0.008-0.004-0.011-0.007c-0.003-0.003-0.006-0.007-0.008-0.011s-0.003-0.008-0.003-0.013v-1.59c0-0.015 0.007-0.024 0.022-0.028 0.283-0.070 0.559-0.053 0.828 0.051 0.023 0.009 0.042 0.025 0.056 0.045 0.207 0.317 0.153 0.569-0.164 0.754-0.017 0.010-0.017 0.019 0.001 0.028zM3.897 23.601l0.002 0.557c0 0.012 0.005 0.024 0.014 0.033s0.021 0.014 0.033 0.014l0.198-0.001c0.093-0 0.183-0.033 0.248-0.092s0.103-0.137 0.102-0.22v-0.029c-0-0.041-0.009-0.081-0.027-0.119s-0.044-0.072-0.077-0.1c-0.033-0.029-0.072-0.051-0.114-0.067s-0.089-0.023-0.135-0.023l-0.198 0.001c-0.012 0-0.024 0.005-0.033 0.014s-0.014 0.021-0.014 0.033z"></path>
<path fill="#fff" d="M5.252 24.337v0.53c0 0.007 0.003 0.014 0.008 0.018s0.011 0.008 0.018 0.008h0.652c0.007 0 0.013 0.003 0.018 0.008s0.008 0.011 0.008 0.018v0.124c0 0.007-0.003 0.014-0.008 0.018s-0.011 0.008-0.018 0.008h-0.869c-0.003 0-0.007-0.001-0.010-0.002s-0.006-0.003-0.008-0.006c-0.002-0.002-0.004-0.005-0.006-0.008s-0.002-0.006-0.002-0.010v-1.626c0-0.003 0.001-0.007 0.002-0.010s0.003-0.006 0.006-0.008c0.002-0.002 0.005-0.004 0.008-0.006s0.007-0.002 0.010-0.002h0.841c0.007 0 0.013 0.003 0.018 0.008s0.008 0.011 0.008 0.018v0.124c0 0.007-0.003 0.014-0.008 0.018s-0.011 0.008-0.018 0.008h-0.625c-0.007 0-0.013 0.003-0.018 0.008s-0.008 0.011-0.008 0.018v0.517c0 0.007 0.003 0.014 0.008 0.018s0.011 0.008 0.018 0.008h0.584c0.007 0 0.013 0.003 0.018 0.008s0.008 0.011 0.008 0.018v0.124c0 0.007-0.003 0.014-0.008 0.018s-0.011 0.008-0.018 0.008h-0.584c-0.007 0-0.013 0.003-0.018 0.008s-0.008 0.011-0.008 0.018z"></path>
<path fill="#fff" d="M6.738 24.787l0.437-1.361c0.008-0.023 0.024-0.035 0.048-0.035h0.152c0.005 0 0.009 0.001 0.013 0.003s0.008 0.005 0.010 0.009c0.003 0.004 0.004 0.008 0.005 0.013s0 0.009-0.001 0.013l-0.543 1.558c-0.010 0.030-0.030 0.056-0.056 0.074s-0.057 0.028-0.089 0.027c-0.032-0-0.062-0.011-0.088-0.030s-0.044-0.045-0.054-0.076l-0.497-1.558c-0.007-0.022 0.001-0.033 0.024-0.033l0.156-0.002c0.011 0 0.021 0.003 0.029 0.010s0.015 0.015 0.018 0.025l0.408 1.362c0.008 0.027 0.016 0.027 0.025 0z"></path>
<path fill="#fff" d="M7.823 24.893h0.652c0.007 0 0.014 0.003 0.018 0.008s0.008 0.011 0.008 0.018v0.124c0 0.007-0.003 0.014-0.008 0.018s-0.011 0.008-0.018 0.008h-0.869c-0.007 0-0.013-0.003-0.018-0.008s-0.008-0.011-0.008-0.018v-1.626c0-0.007 0.003-0.014 0.008-0.018s0.011-0.008 0.018-0.008h0.841c0.007 0 0.014 0.003 0.018 0.008s0.008 0.011 0.008 0.018v0.124c0 0.007-0.003 0.014-0.008 0.018s-0.011 0.008-0.018 0.008h-0.625c-0.007 0-0.013 0.003-0.018 0.008s-0.008 0.011-0.008 0.018v0.517c0 0.007 0.003 0.014 0.008 0.018s0.011 0.008 0.018 0.008h0.584c0.007 0 0.014 0.003 0.018 0.008s0.008 0.011 0.008 0.018v0.124c0 0.007-0.003 0.014-0.008 0.018s-0.011 0.008-0.018 0.008h-0.584c-0.007 0-0.013 0.003-0.018 0.008s-0.008 0.011-0.008 0.018v0.53c0 0.007 0.003 0.014 0.008 0.018s0.011 0.008 0.018 0.008z"></path>
<path fill="#fff" d="M8.975 23.682c-0-0.001-0.001-0.001-0.001-0.001s-0.001-0-0.002 0-0.001 0.001-0.001 0.001-0.001 0.001-0.001 0.002c0.020 0.45 0.025 0.901 0.015 1.351-0 0.023-0.012 0.034-0.035 0.034h-0.124c-0.027 0-0.041-0.014-0.041-0.041v-1.604c0-0.023 0.011-0.034 0.034-0.034h0.158c0.022 0 0.040 0.009 0.052 0.028 0.283 0.435 0.547 0.881 0.793 1.338 0 0.001 0.001 0.001 0.002 0.002s0.002 0 0.002 0 0.002-0.001 0.002-0.001 0.001-0.001 0.001-0.002l-0.021-1.327c-0-0.025 0.012-0.037 0.037-0.037h0.145c0.018 0 0.027 0.009 0.027 0.027v1.624c0 0.018-0.009 0.027-0.027 0.027h-0.158c-0.025 0-0.043-0.011-0.055-0.031l-0.802-1.356z"></path>
<path fill="#fff" d="M10.644 23.567h-0.455c-0.006 0-0.012-0.002-0.016-0.007s-0.007-0.010-0.007-0.016v-0.13c0-0.006 0.002-0.012 0.007-0.016s0.010-0.007 0.016-0.007h1.173c0.006 0 0.012 0.002 0.016 0.007s0.007 0.010 0.007 0.016v0.13c0 0.006-0.002 0.012-0.007 0.016s-0.010 0.007-0.016 0.007h-0.455c-0.006 0-0.012 0.002-0.016 0.007s-0.007 0.010-0.007 0.016v1.457c0 0.006-0.002 0.012-0.007 0.016s-0.010 0.007-0.016 0.007h-0.171c-0.006 0-0.012-0.002-0.016-0.007s-0.007-0.010-0.007-0.016v-1.457c0-0.006-0.002-0.012-0.007-0.016s-0.010-0.007-0.016-0.007z"></path>
<path fill="#fff" d="M11.776 23.391h-0.16c-0.016 0-0.028 0.013-0.028 0.028v1.622c0 0.016 0.013 0.028 0.028 0.028h0.16c0.016 0 0.028-0.013 0.028-0.028v-1.622c0-0.016-0.013-0.028-0.028-0.028z"></path>
<path fill="#fff" d="M12.82 25.073c-0.198-0.009-0.384-0.107-0.517-0.272s-0.201-0.383-0.191-0.607 0.099-0.434 0.247-0.586c0.148-0.151 0.342-0.231 0.541-0.222s0.384 0.107 0.517 0.272c0.133 0.165 0.201 0.383 0.191 0.607s-0.1 0.434-0.247 0.586c-0.148 0.151-0.342 0.231-0.541 0.222zM12.86 24.901c0.138 0 0.27-0.071 0.368-0.197s0.152-0.297 0.152-0.475c0-0.178-0.055-0.349-0.152-0.475s-0.23-0.197-0.368-0.197c-0.068 0-0.136 0.017-0.199 0.051s-0.12 0.083-0.169 0.146c-0.048 0.063-0.087 0.137-0.113 0.218s-0.040 0.169-0.040 0.257c0 0.088 0.013 0.176 0.040 0.257s0.065 0.156 0.113 0.218c0.048 0.063 0.106 0.112 0.169 0.146s0.131 0.051 0.199 0.051z"></path>
<path fill="#fff" d="M14.913 24.754c0 0 0 0.001 0.001 0.001s0.001 0 0.001 0 0.001-0 0.001-0.001 0-0.001 0-0.001l-0.018-1.325c0-0.025 0.012-0.037 0.036-0.037h0.145c0.018 0 0.027 0.009 0.027 0.027v1.617c0 0.023-0.011 0.034-0.034 0.034h-0.151c-0.024 0-0.042-0.011-0.055-0.031l-0.798-1.347c-0-0-0.001-0.001-0.001-0.001s-0.001-0-0.001 0-0.001 0-0.001 0.001-0.001 0.001-0.001 0.001l0.016 1.347c0 0.020-0.010 0.030-0.029 0.030h-0.138c-0.027 0-0.041-0.014-0.041-0.041v-1.604c0-0.023 0.011-0.034 0.034-0.034h0.166c0.016 0 0.029 0.007 0.037 0.021 0.283 0.438 0.55 0.885 0.801 1.342z"></path>
<path fill="#fff" d="M16.714 24.236c0.249 0.088 0.382 0.333 0.241 0.574-0.173 0.296-0.666 0.28-0.961 0.24-0.014-0.002-0.021-0.010-0.021-0.024v-1.565c0-0.014 0.007-0.023 0.021-0.027 0.241-0.068 0.773-0.092 0.9 0.191 0.106 0.235 0.045 0.427-0.184 0.575-0.023 0.015-0.022 0.027 0.004 0.036zM16.189 23.598l0.001 0.506c0 0.012 0.005 0.024 0.013 0.032s0.020 0.013 0.032 0.013l0.163-0.001c0.088-0 0.173-0.030 0.235-0.084s0.097-0.127 0.097-0.203v-0.024c-0-0.038-0.009-0.075-0.026-0.11s-0.041-0.066-0.072-0.093c-0.031-0.026-0.068-0.048-0.108-0.062s-0.084-0.022-0.128-0.022l-0.163 0.001c-0.012 0-0.024 0.005-0.032 0.013s-0.013 0.020-0.013 0.032zM16.189 24.342l-0.001 0.536c0 0.008 0.003 0.016 0.009 0.021s0.014 0.009 0.021 0.009l0.184 0.001c0.050 0 0.1-0.007 0.147-0.021s0.089-0.035 0.125-0.062c0.036-0.026 0.064-0.058 0.083-0.093s0.029-0.072 0.029-0.109v-0.026c0-0.076-0.040-0.148-0.112-0.202s-0.169-0.084-0.271-0.084l-0.184-0.001c-0.008 0-0.016 0.003-0.021 0.009s-0.009 0.013-0.009 0.021z"></path>
<path fill="#fff" d="M17.795 24.159c0.096-0.204 0.199-0.414 0.308-0.631 0.067-0.135 0.136-0.177 0.282-0.13 0.018 0.005 0.022 0.016 0.012 0.031-0.164 0.277-0.323 0.555-0.477 0.836-0.1 0.182-0.051 0.565-0.054 0.776 0 0.018-0.009 0.027-0.027 0.027h-0.161c-0.018 0-0.028-0.009-0.028-0.028 0.001-0.223 0.047-0.595-0.056-0.79-0.147-0.276-0.294-0.551-0.442-0.825-0.013-0.024-0.005-0.036 0.022-0.036h0.166c0.023 0 0.040 0.011 0.050 0.031l0.36 0.736c0.015 0.030 0.029 0.030 0.043 0z"></path>
<path fill="#fff" d="M20.172 24.742c-0.017-0.438-0.022-0.876-0.015-1.315 0-0.024 0.013-0.036 0.037-0.036h0.13c0.022 0 0.034 0.011 0.034 0.034v1.61c0 0.023-0.011 0.034-0.034 0.034h-0.152c-0.016 0-0.028-0.007-0.036-0.020-0.284-0.449-0.555-0.907-0.812-1.371-0-0.001-0.001-0.002-0.002-0.002s-0.002-0.001-0.003-0-0.002 0.001-0.002 0.002-0.001 0.002-0 0.003l0.017 1.353c0 0.025-0.012 0.037-0.036 0.037h-0.131c-0.027 0-0.041-0.014-0.041-0.041v-1.604c0-0.023 0.011-0.034 0.034-0.034h0.174c0.020 0 0.035 0.009 0.045 0.026l0.79 1.327c0 0 0.001 0 0.001 0s0.001 0 0.001-0 0.001-0 0.001-0.001 0-0.001 0-0.001z"></path>
<path fill="#fff" d="M21.98 24.351c-0.014 0.954-1.23 0.959-1.238 0.080-0.004-0.477-0.005-0.81-0.004-1.001 0-0.010 0.004-0.020 0.011-0.028s0.017-0.011 0.028-0.011h0.149c0.021 0 0.031 0.011 0.031 0.031-0.007 0.555-0.006 0.908 0.002 1.060 0.030 0.56 0.78 0.541 0.803 0.001 0.007-0.161 0.008-0.511 0.002-1.052-0-0.008 0.003-0.016 0.009-0.023s0.014-0.010 0.022-0.010l0.149-0.006c0.025-0.001 0.038 0.011 0.038 0.036 0.003 0.308 0.002 0.616-0.002 0.923z"></path>
<path fill="#fff" d="M22.132 23.532v-0.107c0-0.009 0.004-0.018 0.010-0.025s0.015-0.010 0.025-0.010h1.149c0.009 0 0.018 0.004 0.025 0.010s0.010 0.015 0.010 0.025v0.107c0 0.009-0.004 0.018-0.010 0.024s-0.015 0.010-0.025 0.010h-0.432c-0.009 0-0.018 0.004-0.024 0.010s-0.010 0.015-0.010 0.024v1.433c0 0.009-0.004 0.018-0.010 0.025s-0.015 0.010-0.024 0.010h-0.147c-0.009 0-0.018-0.004-0.024-0.010s-0.010-0.015-0.010-0.025v-1.433c0-0.009-0.004-0.018-0.010-0.024s-0.015-0.010-0.024-0.010h-0.432c-0.009 0-0.018-0.004-0.025-0.010s-0.010-0.015-0.010-0.024z"></path>
<path fill="#fff" d="M24.25 24.301c0.222 0.174 0.244 0.48 0.31 0.73 0.007 0.025-0.003 0.038-0.029 0.038h-0.141c-0.022 0-0.037-0.011-0.043-0.032-0.102-0.33-0.084-0.785-0.61-0.657-0.014 0.003-0.021 0.013-0.021 0.027v0.634c-0 0.008-0.003 0.015-0.009 0.020s-0.013 0.008-0.021 0.008l-0.152-0.002c-0.023 0-0.035-0.012-0.035-0.035v-1.564c0-0.018 0.009-0.029 0.026-0.034 0.348-0.088 0.94-0.098 0.988 0.346 0.024 0.23-0.062 0.392-0.258 0.485-0.020 0.009-0.022 0.021-0.004 0.035zM23.714 23.61v0.539c0 0.015 0.006 0.029 0.016 0.040s0.025 0.016 0.040 0.016h0.19c0.046 0 0.092-0.008 0.134-0.024s0.081-0.039 0.114-0.067c0.033-0.029 0.058-0.063 0.076-0.101s0.027-0.078 0.027-0.119v-0.028c0-0.083-0.037-0.162-0.103-0.221s-0.155-0.091-0.249-0.091h-0.19c-0.015 0-0.029 0.006-0.040 0.016s-0.016 0.025-0.016 0.040z"></path>
<path fill="#fff" d="M24.975 23.391h-0.136c-0.022 0-0.040 0.018-0.040 0.040v1.598c0 0.022 0.018 0.040 0.040 0.040h0.136c0.022 0 0.040-0.018 0.040-0.040v-1.598c0-0.022-0.018-0.040-0.040-0.040z"></path>
<path fill="#fff" d="M25.694 23.567h-0.45c-0.007 0-0.013-0.003-0.018-0.008s-0.007-0.011-0.007-0.018v-0.125c0-0.007 0.003-0.013 0.007-0.018s0.011-0.007 0.018-0.007h1.167c0.007 0 0.013 0.003 0.018 0.007s0.008 0.011 0.008 0.018v0.125c0 0.007-0.003 0.013-0.008 0.018s-0.011 0.008-0.018 0.008h-0.45c-0.003 0-0.007 0.001-0.010 0.002s-0.006 0.003-0.008 0.006c-0.002 0.002-0.004 0.005-0.005 0.008s-0.002 0.006-0.002 0.010v1.452c0 0.007-0.003 0.013-0.007 0.018s-0.011 0.007-0.018 0.007h-0.166c-0.007 0-0.013-0.003-0.018-0.007s-0.007-0.011-0.007-0.018v-1.452c0-0.003-0.001-0.007-0.002-0.010s-0.003-0.006-0.006-0.008c-0.002-0.002-0.005-0.004-0.008-0.006s-0.006-0.002-0.010-0.002z"></path>
<path fill="#fff" d="M26.779 23.391h-0.171c-0.013 0-0.023 0.010-0.023 0.023v1.633c0 0.013 0.010 0.023 0.023 0.023h0.171c0.013 0 0.023-0.010 0.023-0.023v-1.633c0-0.013-0.010-0.023-0.023-0.023z"></path>
<path fill="#fff" d="M27.814 25.074c-0.098-0.005-0.194-0.032-0.282-0.079s-0.167-0.114-0.233-0.195-0.115-0.178-0.147-0.282c-0.032-0.104-0.046-0.215-0.040-0.326 0.012-0.224 0.102-0.434 0.25-0.585s0.343-0.23 0.541-0.219c0.098 0.005 0.194 0.032 0.282 0.079s0.167 0.114 0.233 0.196c0.065 0.082 0.115 0.178 0.148 0.282s0.046 0.215 0.040 0.326c-0.012 0.224-0.102 0.434-0.25 0.585s-0.343 0.23-0.541 0.219zM27.858 24.901c0.138-0 0.27-0.071 0.367-0.198s0.151-0.297 0.151-0.476c-0-0.088-0.014-0.176-0.040-0.257s-0.065-0.156-0.113-0.218c-0.048-0.062-0.106-0.112-0.169-0.146s-0.131-0.051-0.199-0.051c-0.138 0-0.27 0.071-0.367 0.198s-0.152 0.297-0.151 0.476c0 0.088 0.014 0.176 0.040 0.257s0.065 0.156 0.113 0.218 0.106 0.112 0.169 0.145c0.063 0.034 0.131 0.051 0.199 0.051z"></path>
<path fill="#fff" d="M29.064 23.691l0.018 1.348c0 0.020-0.010 0.030-0.030 0.030h-0.138c-0.027 0-0.041-0.014-0.041-0.041v-1.605c0-0.023 0.012-0.035 0.035-0.034l0.163 0.004c0.022 0 0.039 0.010 0.050 0.029 0.27 0.435 0.552 0.869 0.78 1.327 0.009 0.018 0.013 0.017 0.013-0.003l-0.017-1.319c-0-0.024 0.012-0.036 0.036-0.036h0.145c0.018 0 0.027 0.009 0.027 0.027v1.624c0 0.018-0.009 0.027-0.027 0.027h-0.157c-0.024 0-0.042-0.010-0.055-0.031l-0.798-1.348c-0-0-0.001-0.001-0.001-0.001s-0.001-0-0.002 0-0.001 0.001-0.001 0.001-0.001 0.001-0.001 0.002z"></path>
<path fill="#c4c4c4" d="M2.598 23.603c0-0.013 0.005-0.026 0.015-0.036s0.022-0.015 0.036-0.015l0.18-0.001c0.048-0 0.096 0.008 0.14 0.025s0.085 0.040 0.119 0.070c0.034 0.030 0.061 0.066 0.079 0.106s0.028 0.082 0.028 0.125v0.049c0 0.086-0.038 0.169-0.107 0.231s-0.161 0.096-0.258 0.096l-0.18 0.001c-0.013 0-0.026-0.005-0.036-0.015s-0.015-0.022-0.015-0.036l-0.001-0.6z"></path>
<path fill="#c4c4c4" d="M3.897 23.601c0-0.012 0.005-0.024 0.014-0.033s0.021-0.014 0.033-0.014l0.198-0.001c0.046-0 0.092 0.008 0.135 0.023s0.082 0.038 0.114 0.067c0.033 0.029 0.059 0.063 0.077 0.1s0.027 0.078 0.027 0.119v0.029c0 0.082-0.037 0.161-0.102 0.22s-0.155 0.091-0.248 0.092l-0.198 0.001c-0.012 0-0.024-0.005-0.033-0.014s-0.014-0.021-0.014-0.033l-0.002-0.557z"></path>
<path fill="#c4c4c4" d="M16.189 23.598c0-0.012 0.005-0.024 0.013-0.032s0.020-0.013 0.032-0.013l0.163-0.001c0.044-0 0.087 0.007 0.128 0.021s0.077 0.035 0.108 0.062c0.031 0.027 0.055 0.058 0.072 0.093s0.025 0.072 0.026 0.11v0.024c0 0.076-0.035 0.149-0.097 0.203s-0.147 0.084-0.235 0.084l-0.163 0.001c-0.012 0-0.024-0.005-0.032-0.013s-0.013-0.020-0.013-0.032l-0.001-0.506z"></path>
<path fill="#c4c4c4" d="M23.714 23.61c0-0.015 0.006-0.029 0.016-0.040s0.025-0.017 0.040-0.017h0.19c0.093 0 0.183 0.033 0.249 0.091s0.103 0.138 0.103 0.221v0.028c0 0.041-0.009 0.081-0.027 0.119s-0.044 0.072-0.076 0.101c-0.033 0.029-0.071 0.052-0.114 0.068s-0.088 0.024-0.134 0.024h-0.19c-0.015 0-0.029-0.006-0.040-0.017s-0.016-0.025-0.016-0.040v-0.539z"></path>
<path fill="#c4c4c4" d="M12.339 24.229c0 0.371 0.233 0.672 0.52 0.672s0.52-0.301 0.52-0.672c0-0.371-0.233-0.672-0.52-0.672s-0.52 0.301-0.52 0.672z"></path>
<path fill="#c4c4c4" d="M27.338 24.23c0.001 0.371 0.234 0.672 0.52 0.672s0.519-0.302 0.518-0.673c-0.001-0.371-0.234-0.672-0.52-0.672s-0.519 0.302-0.518 0.673z"></path>
<path fill="#c4c4c4" d="M16.189 24.341c0-0.008 0.003-0.016 0.009-0.021s0.014-0.009 0.021-0.009l0.184 0.001c0.102 0 0.199 0.030 0.271 0.084s0.112 0.126 0.112 0.202v0.026c-0 0.037-0.010 0.075-0.029 0.109s-0.048 0.066-0.083 0.093c-0.036 0.026-0.078 0.047-0.125 0.062s-0.097 0.022-0.147 0.021l-0.184-0.001c-0.008 0-0.016-0.003-0.021-0.009s-0.009-0.013-0.009-0.021l0.001-0.536z"></path>
<path fill="#ee7401" d="M25.184 28.183h-17.971c-0.019 0-0.035 0.015-0.035 0.035v0.039c0 0.019 0.016 0.035 0.035 0.035h17.971c0.019 0 0.035-0.016 0.035-0.035v-0.039c0-0.019-0.016-0.035-0.035-0.035z"></path>
<path fill="#ee7401" d="M6.548 29.716c-0.225-0.159-0.175-0.414 0.069-0.5 0.123-0.043 0.252-0.040 0.387 0.010 0.026 0.009 0.033 0.027 0.023 0.053l-0.016 0.039c-0.009 0.021-0.024 0.027-0.044 0.017-0.121-0.056-0.361-0.073-0.409 0.091-0.081 0.28 0.513 0.204 0.518 0.571 0.005 0.351-0.431 0.367-0.674 0.27-0.017-0.007-0.022-0.019-0.014-0.036l0.030-0.063c0.002-0.004 0.004-0.007 0.007-0.010s0.007-0.005 0.010-0.006c0.004-0.001 0.008-0.002 0.012-0.001s0.008 0.002 0.012 0.003c0.116 0.063 0.232 0.074 0.348 0.034 0.107-0.038 0.162-0.152 0.106-0.251-0.063-0.112-0.274-0.158-0.363-0.221z"></path>
<path fill="#ee7401" d="M7.622 30.321c-0.479 0.016-0.377-0.823-0.361-1.104 0.001-0.022 0.013-0.033 0.035-0.033h0.070c0.010 0 0.020 0.004 0.027 0.011s0.011 0.017 0.012 0.028c0 0.174-0.119 1.308 0.418 0.921 0.026-0.019 0.048-0.060 0.065-0.125 0.057-0.21 0.019-0.572 0.017-0.797 0-0.026 0.013-0.038 0.038-0.038h0.073c0.023 0 0.035 0.012 0.036 0.035 0.010 0.44 0.129 1.083-0.429 1.101z"></path>
<path fill="#ee7401" d="M8.478 29.877c-0.021-0.003-0.031 0.006-0.031 0.027v0.383c0 0.023-0.011 0.034-0.034 0.034h-0.081c-0.023 0-0.034-0.011-0.034-0.034v-1.049c0-0.020 0.010-0.032 0.030-0.035 0.25-0.035 0.598-0.048 0.64 0.264 0.041 0.306-0.21 0.451-0.49 0.41zM8.446 29.348l-0.001 0.377c-0 0.007 0.001 0.015 0.004 0.022s0.007 0.013 0.012 0.018 0.011 0.009 0.018 0.012c0.007 0.003 0.014 0.004 0.021 0.004h0.087c0.031 0 0.062-0.006 0.091-0.017s0.055-0.029 0.077-0.050c0.022-0.021 0.040-0.047 0.052-0.075s0.018-0.058 0.018-0.088v-0.026c0-0.061-0.025-0.12-0.069-0.164s-0.105-0.068-0.168-0.068h-0.087c-0.015 0-0.029 0.006-0.039 0.016s-0.016 0.024-0.017 0.039z"></path>
<path fill="#ee7401" d="M9.313 29.809v0.35c0 0.027 0.014 0.041 0.041 0.041l0.418 0.001c0.004 0 0.007 0.001 0.010 0.003s0.006 0.004 0.008 0.008 0.003 0.007 0.003 0.010c0 0.004-0.001 0.007-0.002 0.010-0.006 0.011-0.003 0.019 0.009 0.026 0.006 0.004 0.011 0.009 0.013 0.016s0.002 0.014-0.001 0.021c-0.003 0.007-0.008 0.013-0.015 0.018s-0.015 0.007-0.022 0.007l-0.568 0.003c-0.027 0-0.041-0.014-0.041-0.041v-1.056c0-0.027 0.014-0.041 0.041-0.041h0.521c0.022 0 0.034 0.011 0.034 0.034v0.047c0 0.027-0.014 0.041-0.041 0.041h-0.365c-0.011 0-0.021 0.004-0.029 0.012s-0.012 0.018-0.012 0.029v0.298c0 0.018 0.009 0.027 0.027 0.027h0.355c0.008-0 0.016 0.002 0.023 0.007s0.012 0.011 0.016 0.018c0.023 0.049 0.005 0.074-0.056 0.076-0.113 0.003-0.226 0.007-0.339 0.010-0.017 0-0.025 0.009-0.025 0.026z"></path>
<path fill="#ee7401" d="M10.479 29.794c0.113 0.144 0.176 0.311 0.187 0.5 0.001 0.021-0.009 0.031-0.030 0.029l-0.076-0.006c-0.009-0.001-0.018-0.004-0.025-0.010s-0.012-0.014-0.014-0.023c-0.044-0.192-0.064-0.534-0.373-0.44-0.016 0.005-0.024 0.016-0.024 0.032v0.405c0 0.027-0.014 0.041-0.041 0.041h-0.074c-0.023 0-0.034-0.011-0.034-0.034v-1.047c0-0.015 0.007-0.024 0.022-0.028 0.151-0.040 0.297-0.039 0.438 0.003 0.276 0.083 0.285 0.395 0.048 0.547-0.013 0.009-0.015 0.019-0.005 0.031zM10.123 29.343l0.001 0.334c0 0.013 0.005 0.026 0.015 0.035s0.022 0.015 0.035 0.015h0.106c0.060-0 0.117-0.022 0.159-0.061s0.066-0.091 0.066-0.146v-0.023c-0-0.027-0.006-0.054-0.017-0.079s-0.028-0.048-0.049-0.067-0.046-0.034-0.073-0.044c-0.027-0.010-0.057-0.016-0.086-0.015h-0.106c-0.007 0-0.013 0.001-0.019 0.004s-0.012 0.006-0.016 0.011c-0.005 0.005-0.008 0.010-0.011 0.017s-0.004 0.013-0.004 0.019z"></path>
<path fill="#ee7401" d="M11.357 29.915v0.366c0 0.027-0.014 0.041-0.041 0.041h-0.081c-0.018 0-0.027-0.009-0.027-0.027v-1.043c0-0.012 0.004-0.023 0.012-0.033s0.019-0.015 0.031-0.017c0.271-0.040 0.698 0.002 0.596 0.41-0.054 0.216-0.255 0.291-0.46 0.274-0.020-0.002-0.030 0.007-0.030 0.028zM11.358 29.325l-0.001 0.419c-0 0.004 0.001 0.009 0.002 0.013s0.004 0.008 0.007 0.011c0.003 0.003 0.007 0.006 0.011 0.007s0.009 0.003 0.013 0.003h0.088c0.030 0 0.060-0.006 0.088-0.017s0.053-0.027 0.075-0.048c0.021-0.021 0.039-0.045 0.050-0.072s0.018-0.056 0.018-0.085v-0.041c0-0.059-0.024-0.116-0.067-0.157s-0.102-0.066-0.163-0.066h-0.088c-0.009 0-0.017 0.003-0.024 0.010s-0.010 0.015-0.010 0.023z"></path>
<path fill="#ee7401" d="M12.223 29.864v0.417c0 0.027-0.014 0.041-0.041 0.041h-0.068c-0.027 0-0.041-0.014-0.041-0.041v-1.030c0-0.011 0.004-0.021 0.010-0.029s0.016-0.014 0.026-0.016c0.292-0.059 0.813 0.035 0.552 0.474-0.009 0.015-0.021 0.027-0.037 0.036l-0.078 0.045c-0.018 0.011-0.020 0.023-0.003 0.036 0.141 0.117 0.162 0.348 0.199 0.483 0.005 0.017-0.001 0.029-0.017 0.036-0.037 0.017-0.071 0.016-0.101-0.004-0.159-0.106 0.034-0.54-0.38-0.474-0.015 0.002-0.022 0.011-0.022 0.026zM12.221 29.332l0.001 0.355c0 0.010 0.004 0.020 0.011 0.028s0.017 0.011 0.028 0.011l0.102-0.001c0.056-0 0.111-0.021 0.15-0.058s0.062-0.088 0.062-0.14v-0.037c-0-0.026-0.006-0.052-0.016-0.076s-0.026-0.046-0.046-0.064c-0.020-0.018-0.043-0.033-0.069-0.043s-0.054-0.015-0.082-0.015l-0.102 0.001c-0.010 0-0.020 0.004-0.028 0.011s-0.011 0.017-0.011 0.028z"></path>
<path fill="#ee7401" d="M13.090 29.809v0.364c0 0.018 0.009 0.027 0.027 0.027h0.413c0.023 0 0.034 0.011 0.034 0.034v0.054c0 0.023-0.011 0.034-0.034 0.034h-0.562c-0.018 0-0.027-0.009-0.027-0.027v-1.083c0-0.007 0.003-0.014 0.008-0.019s0.012-0.008 0.019-0.008h0.544c0.020 0 0.029 0.010 0.027 0.029l-0.006 0.058c-0.002 0.023-0.015 0.035-0.038 0.035h-0.37c-0.023 0-0.034 0.011-0.034 0.034v0.291c0 0.027 0.014 0.041 0.041 0.041h0.34c0.011 0 0.022 0.004 0.031 0.011s0.015 0.017 0.017 0.028c0.008 0.036-0.009 0.055-0.051 0.057-0.117 0.006-0.235 0.011-0.354 0.015-0.016 0.001-0.024 0.009-0.024 0.025z"></path>
<path fill="#ee7401" d="M13.88 29.405l-0.037 0.869c-0.001 0.030-0.016 0.045-0.046 0.046l-0.062 0.002c-0.022 0-0.032-0.011-0.031-0.033l0.067-1.024c0.002-0.025 0.012-0.048 0.029-0.066s0.040-0.030 0.065-0.033c0.025-0.003 0.050 0.003 0.071 0.016s0.037 0.034 0.044 0.057l0.27 0.836c0.006 0.019 0.012 0.019 0.018 0l0.279-0.839c0.008-0.024 0.024-0.044 0.045-0.058s0.046-0.019 0.071-0.016 0.048 0.015 0.065 0.034c0.017 0.018 0.027 0.042 0.028 0.067l0.063 1.023c0.002 0.022-0.009 0.033-0.031 0.033h-0.079c-0.022 0-0.033-0.011-0.034-0.033l-0.036-0.898c0-0.002-0.001-0.004-0.002-0.005s-0.003-0.002-0.005-0.003c-0.002-0-0.004 0-0.006 0.001s-0.003 0.003-0.004 0.005l-0.303 0.89c-0.005 0.015-0.014 0.028-0.027 0.037s-0.028 0.014-0.044 0.014c-0.016-0-0.031-0.005-0.044-0.015s-0.022-0.023-0.026-0.038l-0.275-0.874c-0.001-0.002-0.003-0.005-0.005-0.006s-0.005-0.002-0.008-0.002c-0.003 0-0.005 0.002-0.007 0.003s-0.003 0.004-0.003 0.007z"></path>
<path fill="#ee7401" d="M15.133 29.184h-0.093c-0.016 0-0.028 0.013-0.028 0.028v1.081c0 0.016 0.013 0.028 0.028 0.028h0.093c0.016 0 0.028-0.013 0.028-0.028v-1.081c0-0.016-0.013-0.028-0.028-0.028z"></path>
<path fill="#ee7401" d="M16.225 29.911c-0.035 0.526-0.762 0.557-0.784 0.034-0.010-0.24-0.013-0.481-0.008-0.724 0-0.024 0.013-0.036 0.037-0.036h0.072c0.025 0 0.037 0.013 0.037 0.037 0.001 0.232 0.001 0.463 0 0.694-0.001 0.393 0.494 0.41 0.499-0.032 0.003-0.22 0.003-0.44 0.002-0.66-0-0.026 0.012-0.038 0.038-0.038h0.073c0.023 0 0.035 0.012 0.036 0.035 0.007 0.336 0.006 0.567-0.002 0.691z"></path>
<path fill="#ee7401" d="M16.643 29.469l-0.042 0.814c-0.001 0.024-0.014 0.036-0.038 0.037l-0.068 0.002c-0.022 0-0.032-0.011-0.031-0.033l0.068-1.023c0.002-0.025 0.012-0.048 0.029-0.066s0.040-0.030 0.065-0.033c0.025-0.003 0.050 0.003 0.071 0.016s0.037 0.034 0.044 0.057l0.268 0.836c0.006 0.020 0.013 0.020 0.019 0.001l0.279-0.84c0.008-0.023 0.024-0.044 0.045-0.057s0.046-0.018 0.071-0.015 0.048 0.015 0.065 0.033c0.017 0.018 0.027 0.042 0.029 0.067l0.062 1.024c0.001 0.022-0.009 0.033-0.031 0.033h-0.077c-0.022 0-0.034-0.011-0.035-0.034l-0.036-0.866c-0-0.003-0.002-0.006-0.004-0.009s-0.005-0.004-0.008-0.004c-0.003-0-0.006 0-0.009 0.002s-0.005 0.004-0.006 0.007l-0.296 0.869c-0.005 0.014-0.014 0.027-0.026 0.035s-0.027 0.013-0.042 0.013c-0.015-0-0.030-0.005-0.042-0.014s-0.021-0.022-0.026-0.036l-0.26-0.82c-0.022-0.069-0.035-0.067-0.038 0.005z"></path>
<path fill="#ee7401" d="M18.141 29.256c0-0.010 0.002-0.019 0.006-0.028s0.009-0.017 0.016-0.024c0.007-0.007 0.015-0.012 0.024-0.016s0.018-0.006 0.028-0.005l0.258 0.002c0.070 0 0.14 0.014 0.204 0.041s0.123 0.066 0.173 0.115 0.088 0.107 0.115 0.171c0.026 0.064 0.040 0.132 0.039 0.201l-0.001 0.082c-0.001 0.139-0.058 0.272-0.159 0.37s-0.237 0.152-0.378 0.151l-0.258-0.002c-0.010 0-0.019-0.002-0.028-0.006s-0.017-0.009-0.024-0.016c-0.007-0.007-0.012-0.015-0.016-0.024s-0.006-0.019-0.005-0.028l0.006-0.986zM18.285 29.343l0.003 0.82c0 0.013 0.005 0.026 0.015 0.036s0.022 0.015 0.036 0.015l0.111-0.001c0.054-0 0.107-0.011 0.156-0.032s0.094-0.051 0.132-0.089c0.038-0.038 0.068-0.083 0.088-0.133s0.031-0.103 0.030-0.156v-0.104c-0-0.054-0.011-0.107-0.032-0.156s-0.051-0.094-0.089-0.132c-0.038-0.038-0.083-0.068-0.133-0.088s-0.103-0.031-0.156-0.030l-0.111 0.001c-0.013 0-0.026 0.005-0.036 0.015s-0.015 0.022-0.015 0.036z"></path>
<path fill="#ee7401" d="M19.585 30.325c-0.135-0.009-0.261-0.077-0.35-0.191s-0.133-0.262-0.123-0.414c0.005-0.075 0.023-0.149 0.053-0.216s0.072-0.128 0.123-0.178c0.051-0.050 0.11-0.088 0.174-0.113s0.131-0.035 0.198-0.031c0.135 0.009 0.261 0.077 0.35 0.191s0.133 0.262 0.123 0.414c-0.005 0.075-0.023 0.149-0.053 0.216s-0.072 0.128-0.123 0.178c-0.051 0.050-0.11 0.088-0.174 0.113s-0.131 0.035-0.198 0.031zM19.621 30.215c0.096 0 0.188-0.048 0.256-0.135s0.106-0.204 0.107-0.327c0-0.061-0.009-0.121-0.027-0.177s-0.045-0.107-0.078-0.15c-0.034-0.043-0.073-0.077-0.117-0.1s-0.091-0.035-0.138-0.035c-0.096-0-0.188 0.048-0.256 0.135s-0.106 0.204-0.107 0.327c-0 0.061 0.009 0.121 0.027 0.177s0.045 0.107 0.078 0.15c0.034 0.043 0.073 0.077 0.117 0.1s0.091 0.035 0.138 0.035z"></path>
<path fill="#ee7401" d="M21.119 30.263c-0.22 0.089-0.655 0.091-0.782-0.166-0.27-0.548 0.153-1.064 0.74-0.874 0.022 0.007 0.031 0.022 0.026 0.046l-0.012 0.051c-0.001 0.004-0.003 0.008-0.005 0.012s-0.006 0.006-0.010 0.008c-0.004 0.002-0.008 0.003-0.012 0.004s-0.009-0-0.013-0.002c-0.848-0.301-0.863 1.075-0.076 0.85 0.022-0.006 0.033-0.021 0.033-0.043v-0.273c0-0.027-0.014-0.041-0.041-0.041h-0.142c-0.023 0-0.034-0.011-0.034-0.034v-0.041c0-0.023 0.011-0.034 0.034-0.034h0.284c0.023 0 0.034 0.011 0.034 0.034v0.467c0 0.018-0.008 0.030-0.024 0.036z"></path>
<path fill="#ee7401" d="M21.861 29.808v0.48c0 0.022-0.011 0.034-0.034 0.034h-0.074c-0.027 0-0.041-0.014-0.041-0.041v-1.056c0-0.027 0.014-0.041 0.041-0.041h0.522c0.023 0 0.034 0.012 0.034 0.035l-0.002 0.053c-0.001 0.023-0.012 0.034-0.035 0.034h-0.376c-0.023 0-0.034 0.011-0.034 0.034v0.291c0 0.027 0.014 0.041 0.041 0.041h0.324c0.019 0 0.032 0.009 0.038 0.026 0.011 0.030 0.007 0.052-0.011 0.068-0.011 0.010-0.030 0.014-0.056 0.014-0.103-0.002-0.206-0.001-0.31 0.001-0.018 0-0.026 0.009-0.026 0.027z"></path>
<path fill="#ee7401" d="M22.887 30.326c-0.067-0.004-0.132-0.024-0.192-0.056s-0.114-0.079-0.157-0.135-0.077-0.122-0.098-0.193c-0.021-0.071-0.029-0.146-0.024-0.222 0.010-0.152 0.073-0.294 0.176-0.395s0.237-0.153 0.372-0.144c0.067 0.004 0.132 0.024 0.193 0.056s0.114 0.079 0.157 0.135c0.044 0.056 0.077 0.122 0.098 0.193s0.029 0.146 0.024 0.222c-0.010 0.152-0.074 0.294-0.176 0.395s-0.237 0.153-0.372 0.144zM22.923 30.216c0.096 0 0.188-0.048 0.256-0.135s0.106-0.204 0.107-0.327c0-0.061-0.009-0.121-0.027-0.177s-0.044-0.107-0.078-0.151c-0.034-0.043-0.073-0.077-0.117-0.101s-0.091-0.035-0.138-0.036c-0.096-0-0.188 0.048-0.256 0.135s-0.107 0.204-0.107 0.327c-0 0.061 0.009 0.121 0.027 0.177s0.044 0.107 0.078 0.151 0.073 0.077 0.117 0.101c0.044 0.023 0.091 0.035 0.138 0.036z"></path>
<path fill="#ee7401" d="M24.025 30.325c-0.135-0.009-0.261-0.077-0.35-0.191s-0.133-0.262-0.123-0.414c0.010-0.152 0.073-0.294 0.176-0.395s0.236-0.153 0.371-0.144 0.261 0.077 0.35 0.191c0.089 0.113 0.133 0.262 0.123 0.414s-0.073 0.294-0.176 0.395c-0.103 0.101-0.236 0.153-0.372 0.144zM24.060 30.216c0.047 0 0.094-0.012 0.138-0.035s0.084-0.057 0.117-0.1 0.060-0.094 0.079-0.15c0.018-0.056 0.028-0.116 0.028-0.177s-0.009-0.121-0.027-0.177c-0.018-0.056-0.045-0.107-0.078-0.15s-0.073-0.077-0.117-0.101c-0.044-0.023-0.091-0.035-0.138-0.035s-0.094 0.012-0.138 0.035c-0.044 0.023-0.084 0.057-0.117 0.1s-0.060 0.094-0.079 0.15c-0.018 0.056-0.028 0.116-0.028 0.177s0.009 0.121 0.027 0.177c0.018 0.056 0.045 0.107 0.078 0.15s0.073 0.077 0.117 0.101 0.091 0.035 0.138 0.035z"></path>
<path fill="#ee7401" d="M24.744 29.268c0-0.011 0.002-0.023 0.007-0.033s0.011-0.020 0.019-0.028 0.018-0.014 0.028-0.019c0.011-0.004 0.022-0.006 0.033-0.006l0.251 0.002c0.070 0.001 0.139 0.015 0.204 0.042s0.123 0.067 0.172 0.117c0.049 0.050 0.088 0.109 0.114 0.173s0.039 0.134 0.039 0.204l-0.001 0.076c-0.001 0.141-0.059 0.275-0.159 0.374s-0.237 0.153-0.378 0.152l-0.251-0.002c-0.011 0-0.023-0.002-0.033-0.007s-0.020-0.011-0.028-0.019c-0.008-0.008-0.014-0.018-0.019-0.028s-0.006-0.022-0.006-0.033l0.009-0.964zM24.896 29.335l-0.005 0.831c-0 0.006 0.001 0.012 0.003 0.017s0.006 0.011 0.010 0.015c0.004 0.004 0.009 0.008 0.014 0.010s0.011 0.004 0.017 0.004l0.122 0.001c0.106 0.001 0.208-0.042 0.284-0.119s0.119-0.181 0.12-0.291l0.001-0.095c0-0.054-0.010-0.108-0.029-0.158s-0.049-0.096-0.086-0.134c-0.037-0.039-0.081-0.069-0.13-0.090s-0.101-0.032-0.153-0.032l-0.122-0.001c-0.006-0-0.012 0.001-0.017 0.003s-0.011 0.005-0.015 0.010c-0.004 0.004-0.008 0.009-0.010 0.014s-0.004 0.011-0.004 0.017z"></path>
<path fill="#ee7401" d="M25.175 30.917h-17.949c-0.030 0-0.054 0.024-0.054 0.054v0.001c0 0.030 0.024 0.054 0.054 0.054h17.949c0.030 0 0.054-0.024 0.054-0.054v-0.001c0-0.030-0.024-0.054-0.054-0.054z"></path>
</svg>
