<!-- Generated by IcoMoon.io -->
<svg version="1.1" xmlns="http://www.w3.org/2000/svg" width="43" height="32" viewBox="0 0 43 32">
<title>friskies</title>
<path fill="#fff" d="M0 0h43.207v32h-43.207v-32zM32.035 7.916v-5.176c0-0.028-0.022-0.050-0.050-0.050v0l-29.182-0.001q-0.149 0-0.149 0.149v5.661c0 0.011 0.009 0.019 0.019 0.019v0l29.301-0.001c0.032 0 0.058-0.026 0.058-0.057v0l0.003-0.543zM40.404 5.412l-0.181 0.046c-0.010 0.002-0.019 0.007-0.027 0.015-0.021 0.022-0.020 0.057 0.002 0.078 0.008 0.007 0.017 0.012 0.026 0.015l-0-0q0.149 0.034 0.233-0.066c0.009-0.009 0.014-0.022 0.014-0.036 0-0.029-0.024-0.053-0.053-0.053-0.005 0-0.010 0.001-0.014 0.002l0-0zM3.11 29.329l-0.444 0.397q-0.099 0.088-0.099-0.044l-0.075-16.787q0-0.068 0.049-0.117l0.086-0.087c0.005-0.004 0.009-0.010 0.009-0.018 0-0.012-0.010-0.022-0.022-0.022-0.005 0-0.010 0.002-0.013 0.004l0-0c-0.274 0.146-0.292 0.664-0.28 0.932q0.003 0.078-0.068 0.111c-0.347 0.159-0.27 0.369-0.267 0.678q0.060 6.545 0.007 13.089-0.007 0.739 0.043 1.964 0.003 0.072 0.075 0.072h0.204c0.046 0 0.083 0.037 0.083 0.083v0 0.277q0 0.081 0.080 0.071 0.171-0.021 0.276-0.167c0.276 0.211 0.395-0.043 0.575-0.181q0.625-0.482 0.942-0.756c0.38-0.332 0.751-0.265 1.094-0.46 0.316-0.18 0.528-0.591 0.863-0.585q0.074 0.001 0.136-0.035 0.413-0.243 0.849-0.438c0.29-0.13 0.653-0.127 0.978-0.364q0.063-0.047 0.142-0.031 0.193 0.041 0.321-0.128c0.029-0.038 0.082-0.049 0.124-0.025l0 0q0.317 0.178 0.63-0.015 0.072-0.046 0.156-0.050 0.218-0.016 0.425-0.103 0.068-0.028 0.14-0.012 0.348 0.081 0.655-0.13 0.069-0.049 0.153-0.049 0.438-0.003 0.844-0.181 0.072-0.031 0.097 0.044 0.006 0.021 0.027 0.032 0.060 0.035 0.124 0.004 0.403-0.192 0.947-0.139 0.442 0.043 1.020-0.071c0.774-0.155 1.566-0.037 2.349-0.078q0.074-0.004 0.142 0.025c0.152 0.065 0.352-0.003 0.473 0.006q0.951 0.074 1.905 0.066 0.078-0.001 0.146 0.038 0.091 0.052 0.171 0.007 0.034-0.019 0.072-0.028 0.451-0.106 0.836 0.103 0.065 0.035 0.139 0.028 0.695-0.066 1.333 0.22 0.063 0.029 0.122-0.010 0.088-0.060 0.183-0.040 0.568 0.128 1.019 0.147c0.056 0.002 0.107 0.019 0.15 0.048l-0.001-0.001q0.363 0.229 0.777 0.093c0.040-0.013 0.081-0.014 0.12-0.002l0.001 0c0.979 0.317 1.955 0.096 2.982 0.265q0.153 0.027 0.224-0.102c0.023-0.041 0.069-0.064 0.114-0.056l0.001 0q0.959 0.153 1.217 0.062c0.425-0.152 0.863 0.093 1.339 0.001 0.55-0.106 1.028-0.115 1.544-0.192 0.344-0.050 0.785-0.003 1.186-0.189q0.053-0.024 0.103 0.006l0.049 0.028q0.077 0.046 0.159 0.010 0.465-0.201 1.15-0.255c0.964-0.077 2.017-0.571 3.035-0.851 0.344-0.094 0.619-0.277 0.951-0.397q0.45-0.161 0.7-0.31c0.658-0.394 1.308-0.742 1.948-1.168 0.043-0.028 0.069-0.074 0.072-0.124l0-0.001q0.013-0.203 0.167-0.324 0.063-0.049 0.055-0.128c-0.035-0.333 0.071-0.633 0.072-0.923q0.018-4.787-0.025-9.572-0.001-0.069-0.046-0.122-0.105-0.124-0.106-0.329-0.031-3.125 0.035-5.521 0.007-0.252-0.336-0.442-0.060-0.034-0.071-0.103-0.013-0.091-0.059-0.17-0.083-0.137-0.078 0.024c0.063 2.354 0.081 4.725 0.071 7.080-0.016 3.405 0.031 6.806-0.013 10.213q-0.001 0.075-0.056 0.128-0.345 0.336-0.571 0.463-4.156 2.358-8.953 2.585c-0.226 0.010-0.434 0.125-0.665 0.127q-2.112 0.015-4.222 0.013c-0.546-0.001-1.138-0.116-1.705-0.164-2.037-0.165-3.956-0.692-6.027-0.724-1.102-0.018-2.103-0.22-3.275-0.118q-1.659 0.143-1.706 0.146c-3.194 0.233-6.438 1.153-9.143 2.945q-0.58 0.383-0.938 0.801zM39.771 6.751c-4.647 4.619-12.072 5.359-18.168 4.489q-5.375-0.767-10-0.525c-2.904 0.153-6.042 0.764-8.593 2.224q-0.066 0.037-0.065 0.114c0.015 0.992-0.032 2.073-0.024 2.973 0.034 4.175 0.025 8.347 0.086 12.52l-0.108 0.338q-0.043 0.131 0.065 0.044c4.449-3.656 10.912-4.119 16.383-3.648 1.914 0.165 3.893 0.612 5.692 0.767 5.067 0.441 10.615-0.178 14.916-2.895 0.081-0.051 0.129-0.138 0.128-0.231l-0-0.002-0.049-16.439q0-0.199-0.097-0.027l-0.168 0.299zM37.974 7.689l-0.139 0.083c-0.006 0.003-0.011 0.009-0.012 0.016-0.003 0.013 0.005 0.027 0.019 0.031 0.007 0.002 0.014 0.001 0.020-0.002v0q0.162-0.093 0.286-0.229 0.143-0.158-0.034-0.037-0.059 0.041-0.1 0.102c-0.011 0.015-0.024 0.027-0.039 0.037l-0.001 0zM36.424 8.7l-0.599 0.292c-0.004 0.001-0.007 0.004-0.009 0.008-0.003 0.008 0.002 0.016 0.010 0.020 0.004 0.002 0.008 0.001 0.012 0v0q0.347-0.13 0.585-0.32 0.248-0.071 0.431-0.237 0.083-0.075-0.016-0.044-0.035 0.010-0.053 0.055-0.209 0.088-0.361 0.227zM34.323 9.688l-0.827 0.27q-0.099 0.032 0.006 0.034c0.184 0.003 0.675-0.214 0.821-0.304q0.448-0.136 0.793-0.302 0.15-0.072-0.010-0.028-0.386 0.108-0.783 0.33zM13.421 10.224c-2.309-0.059-4.813 0.234-7.041 0.836q-0.071 0.019 0 0.035 0.053 0.012 0.102 0 3.417-0.888 6.952-0.817 0.016 0 0.021-0.013 0.003-0.009 0.003-0.016 0-0.024-0.035-0.025zM32.158 10.339c-2.177 0.535-4.397 0.73-6.689 0.754q-0.386 0.004-0.925-0.050c-0.767-0.077-1.61-0.090-2.302-0.183-2.821-0.38-4.686-0.656-7.18-0.63q-0.012 0-0.012 0.012 0 0.006 0 0.012 0 0.024 0.025 0.024c2.678 0.010 4.704 0.295 7.652 0.717 0.268 0.038 0.587 0.007 0.82 0.041q1.158 0.17 2.924 0.103 3.162-0.119 5.735-0.748 0.059-0.015 0.021-0.062-0.028-0.034-0.069 0.010z"></path>
<path fill="#c9151c" d="M8.507 2.69l-0.013 5.136q0 0.088 0.088 0.088l23.453 0.001-0.003 0.543c0 0.032-0.026 0.057-0.058 0.057v0l-29.301 0.001c-0.011 0-0.019-0.009-0.019-0.019v0-5.661q0-0.149 0.149-0.149l5.704 0.001zM7.951 3.411c0-0 0-0 0-0 0-0.085-0.069-0.155-0.155-0.155l-4.383-0.008c-0 0-0 0-0 0-0.085 0-0.155 0.069-0.155 0.155v0l-0.008 4.386c0 0 0 0 0 0 0 0.085 0.069 0.155 0.155 0.155l4.383 0.008c0 0 0 0 0 0 0.085 0 0.155-0.069 0.155-0.155v0l0.008-4.386z"></path>
<path fill="#000" d="M32.035 7.916l-23.453-0.001q-0.088 0-0.088-0.088l0.013-5.136h23.478c0.028 0 0.050 0.022 0.050 0.050v0 5.176zM30.12 4.13c0.145 0.519 0.727 0.556 0.941 0.083 0.119-0.826-0.989-0.873-0.941-0.083zM10.483 6.037c0.528 0.046 1.287 0.088 1.66-0.361 0.612-0.736 0.184-1.963-0.863-1.923q-0.7 0.027-1.373-0.012c-0.002-0-0.004-0-0.006-0-0.053 0-0.096 0.043-0.096 0.096 0 0 0 0 0 0v0 3.094q0 0.111 0.111 0.111h0.386q0.093 0 0.093-0.093v-0.832q0-0.088 0.087-0.080zM18.249 5.899h0.448q0.091 0 0.143 0.077c0.335 0.506 0.63 1.261 1.402 1.115q0.071-0.013 0.071-0.086v-0.349q0-0.093-0.093-0.093h-0.212q-0.080 0-0.125-0.065l-0.416-0.591c-0.001-0.001-0.001-0.002-0.002-0.003-0.020-0.031-0.011-0.072 0.019-0.091 0.001-0.001 0.002-0.001 0.003-0.002l-0 0c0.7-0.385 0.799-1.429 0.167-1.864-0.439-0.301-1.358-0.177-1.938-0.201-0.001-0-0.003-0-0.004-0-0.070 0-0.127 0.057-0.127 0.127 0 0 0 0 0 0v0 3.058c0 0.061 0.050 0.111 0.111 0.111v0h0.369q0.111 0 0.111-0.111v-0.959q0-0.074 0.074-0.074zM25.619 6.037l-1.45-2.211q-0.044-0.066-0.124-0.066h-0.451c-0.061 0-0.111 0.050-0.111 0.111v0 3.055c0 0.064 0.052 0.115 0.115 0.115h0.33q0.112 0 0.112-0.114l-0.013-2.171c0.001-0.018 0.016-0.033 0.034-0.033 0.012 0 0.022 0.006 0.028 0.015l0 0 1.486 2.224q0.052 0.078 0.146 0.078h0.453q0.074 0 0.074-0.074v-3.104c0 0 0-0 0-0 0-0.064-0.052-0.115-0.115-0.115-0.001 0-0.002 0-0.003 0l-0.342 0.007q-0.093 0.001-0.093 0.096v2.163q0 0.139-0.077 0.022zM28.218 6.304h1.349q0.080 0 0.111 0.074l0.236 0.572q0.038 0.091 0.137 0.091h0.435q0.088 0 0.055-0.081l-1.227-2.974c-0.070-0.168-0.232-0.284-0.422-0.284s-0.351 0.115-0.42 0.279l-0.001 0.003-1.22 2.951c-0.004 0.009-0.006 0.019-0.006 0.029 0 0.042 0.034 0.077 0.077 0.077h0.413c0.061-0 0.113-0.037 0.135-0.089l0-0.001 0.242-0.577q0.029-0.071 0.106-0.071zM16.24 3.92q-0.009-0.159-0.168-0.159h-0.302q-0.102 0-0.102 0.103c0.001 0.549 0.13 1.904-0.121 2.349-0.401 0.717-1.455 0.326-1.438-0.5q0.019-0.933 0.007-1.876 0-0.077-0.078-0.077h-0.432q-0.072 0-0.074 0.072c-0.010 0.855-0.248 2.591 0.587 3.063 0.96 0.546 2.079 0.031 2.129-1.107q0.041-0.941-0.009-1.868zM22.009 3.806c0-0.025-0.020-0.046-0.046-0.046v0h-0.46c-0.025 0-0.046 0.020-0.046 0.046v0 3.188c0 0.025 0.020 0.046 0.046 0.046v0h0.46c0.025 0 0.046-0.020 0.046-0.046v0-3.188z"></path>
<path fill="#fff" d="M7.943 7.796c-0 0.085-0.069 0.155-0.155 0.155-0 0-0 0-0 0l-4.383-0.008c-0.085-0-0.155-0.069-0.155-0.155 0-0 0-0 0-0v0l0.008-4.386c0-0.085 0.069-0.155 0.155-0.155 0 0 0 0 0 0l4.383 0.008c0.085 0 0.155 0.069 0.155 0.155 0 0 0 0 0 0v0l-0.008 4.386zM4.871 4.908l0.015 1.292q0 0.091 0.093 0.093l1.327 0.015 0.004 1.326q0 0.072 0.072 0.072h1.177c0 0 0 0 0 0 0.062 0 0.113-0.050 0.114-0.112v-0l0.010-1.131c0-0 0-0.001 0-0.001 0-0.086-0.070-0.156-0.156-0.156 0 0 0 0 0 0v0l-1.221 0.003-0.012-1.302q-0.001-0.091-0.091-0.091l-1.332-0.006 0.015-1.317c0-0 0-0.001 0-0.001 0-0.048-0.039-0.087-0.087-0.087 0 0 0 0 0 0h-1.259c-0.041 0-0.074 0.033-0.074 0.074v0 1.217c0 0.061 0.050 0.111 0.111 0.111v0l1.295 0.004zM7.682 3.586c0-0 0-0 0-0 0-0.044-0.035-0.079-0.079-0.080l-1.215-0.006c-0 0-0 0-0 0-0.044 0-0.079 0.035-0.080 0.079v0l-0.006 1.239c0 0 0 0 0 0 0 0.044 0.035 0.079 0.079 0.080l1.215 0.006c0 0 0 0 0 0 0.044 0 0.079-0.035 0.080-0.079v-0l0.006-1.239zM4.9 6.405c-0-0.057-0.046-0.103-0.103-0.103-0 0-0 0-0 0l-1.23 0.004c-0.057 0-0.103 0.046-0.103 0.103 0 0 0 0 0 0v-0l0.004 1.194c0 0.057 0.046 0.103 0.103 0.103 0 0 0 0 0 0l1.23-0.004c0.057-0 0.103-0.046 0.103-0.103 0-0 0-0 0-0v0l-0.004-1.194z"></path>
<path fill="#c9151c" d="M4.871 4.908l-1.295-0.004c-0.061 0-0.111-0.050-0.111-0.111v0-1.217c0-0.041 0.033-0.074 0.074-0.074v0h1.259c0 0 0 0 0 0 0.048 0 0.087 0.039 0.087 0.087 0 0.001 0 0.001 0 0.002v-0l-0.015 1.317z"></path>
<path fill="#c9151c" d="M6.387 3.499l1.215 0.006c0.044 0 0.079 0.036 0.079 0.080l-0.006 1.239c-0 0.044-0.036 0.079-0.080 0.079l-1.215-0.006c-0.044-0-0.079-0.036-0.079-0.080l0.006-1.239c0-0.044 0.036-0.079 0.080-0.079z"></path>
<path fill="#e1e0e2" d="M31.061 4.213q-0.046-0.060-0.080-0.052c0.077-0.552-0.767-0.612-0.756-0.035l-0.105 0.004c-0.049-0.79 1.060-0.743 0.941 0.083z"></path>
<path fill="#fff" d="M10.396 6.117v0.832q0 0.093-0.093 0.093h-0.386q-0.111 0-0.111-0.111v-3.094c0-0 0-0 0-0 0-0.053 0.043-0.096 0.096-0.096 0.002 0 0.004 0 0.006 0h-0q0.672 0.038 1.373 0.012c1.047-0.040 1.475 1.187 0.863 1.923-0.373 0.45-1.133 0.407-1.66 0.361q-0.087-0.009-0.087 0.080zM10.398 4.346l-0.006 1.094c0 0-0 0.001-0 0.001 0 0.028 0.022 0.050 0.050 0.050 0 0 0 0 0 0v0l0.789 0.003c0.333 0.002 0.604-0.252 0.606-0.568v-0.050c0-0 0-0.001 0-0.001 0.002-0.316-0.267-0.574-0.6-0.575-0 0-0 0-0 0v0l-0.789-0.003c0 0 0 0-0 0-0.027 0-0.049 0.022-0.050 0.049v0z"></path>
<path fill="#fff" d="M18.175 5.972v0.959q0 0.111-0.111 0.111h-0.369c-0.061 0-0.111-0.050-0.111-0.111v0-3.058c0-0 0-0 0-0 0-0.070 0.057-0.127 0.127-0.127 0.002 0 0.003 0 0.005 0h-0c0.58 0.024 1.498-0.1 1.938 0.201 0.633 0.435 0.534 1.479-0.167 1.864-0.001 0.001-0.002 0.001-0.003 0.002-0.030 0.019-0.039 0.060-0.019 0.091 0.001 0.001 0.001 0.002 0.002 0.003l-0-0 0.416 0.591q0.046 0.065 0.125 0.065h0.212q0.093 0 0.093 0.093v0.349q0 0.072-0.071 0.086c-0.773 0.146-1.068-0.609-1.402-1.115q-0.052-0.077-0.143-0.077h-0.448q-0.074 0-0.074 0.074zM18.218 4.338l-0.021 0.953c0 0-0 0.001-0 0.002 0 0.027 0.022 0.049 0.049 0.050h0l0.653 0.015c0 0 0 0 0 0 0.308 0.007 0.564-0.215 0.57-0.495v-0.035c0-0 0-0 0-0.001 0.006-0.281-0.239-0.514-0.547-0.521l-0.653-0.015c-0 0-0.001-0-0.002-0-0.027 0-0.049 0.022-0.050 0.049v0z"></path>
<path fill="#fff" d="M25.696 6.015v-2.163q0-0.094 0.093-0.096l0.342-0.007c0.001-0 0.002-0 0.003-0 0.064 0 0.115 0.051 0.115 0.115 0 0 0 0 0 0v0 3.104q0 0.074-0.074 0.074h-0.453q-0.094 0-0.146-0.078l-1.486-2.224c-0.006-0.009-0.016-0.015-0.028-0.015-0.018 0-0.033 0.014-0.034 0.032v0l0.013 2.171q0 0.114-0.112 0.114h-0.33c-0.064 0-0.115-0.051-0.115-0.115v0-3.055c0-0.061 0.050-0.111 0.111-0.111v0h0.451q0.080 0 0.124 0.066l1.45 2.211q0.077 0.117 0.077-0.022z"></path>
<path fill="#fff" d="M28.111 6.375l-0.242 0.577c-0.023 0.053-0.075 0.090-0.136 0.090h-0.413c-0.042 0-0.077-0.034-0.077-0.077 0-0.011 0.002-0.021 0.006-0.030l-0 0 1.22-2.951c0.070-0.167 0.232-0.282 0.421-0.282s0.352 0.116 0.421 0.281l0.001 0.003 1.227 2.974q0.034 0.081-0.055 0.081h-0.435q-0.099 0-0.137-0.091l-0.236-0.572q-0.031-0.074-0.111-0.074h-1.349q-0.077 0-0.106 0.071zM28.374 5.688c-0.002 0.005-0.003 0.010-0.003 0.016 0 0.025 0.020 0.046 0.046 0.046 0 0 0 0 0 0v0l0.929 0.003c0 0 0 0 0 0 0.025 0 0.046-0.020 0.046-0.046 0-0.006-0.001-0.011-0.003-0.017l0 0-0.46-1.217c-0.007-0.017-0.023-0.030-0.043-0.030s-0.036 0.012-0.043 0.029l-0 0-0.469 1.214z"></path>
<path fill="#000" d="M30.981 4.161l-0.335 0.258q-0.065 0.050-0.124-0.006l-0.298-0.288c-0.010-0.577 0.833-0.516 0.756 0.035zM30.379 3.949l0.069 0.291c0.005 0.019 0.022 0.034 0.043 0.034 0.004 0 0.007-0 0.010-0.001l-0 0 0.028-0.007c0.159-0.039 0.268-0.149 0.245-0.246-0-0-0-0-0-0v0l-0.004-0.022c-0.024-0.097-0.172-0.145-0.331-0.106-0 0-0.001 0-0.001 0h0l-0.027 0.006c-0.019 0.005-0.034 0.022-0.034 0.043 0 0.004 0 0.007 0.001 0.010l-0-0z"></path>
<path fill="#fff" d="M16.24 3.92q0.050 0.928 0.009 1.868c-0.050 1.138-1.169 1.653-2.129 1.107-0.835-0.472-0.597-2.208-0.587-3.063q0.001-0.072 0.074-0.072h0.432q0.078 0 0.078 0.077 0.012 0.942-0.007 1.876c-0.018 0.826 1.037 1.217 1.438 0.5 0.251-0.445 0.122-1.801 0.121-2.349q0-0.103 0.102-0.103h0.302q0.159 0 0.168 0.159z"></path>
<path fill="#fff" d="M21.503 3.76h0.46c0.025 0 0.046 0.020 0.046 0.046v3.188c0 0.025-0.020 0.046-0.046 0.046h-0.46c-0.025 0-0.046-0.020-0.046-0.046v-3.188c0-0.025 0.020-0.046 0.046-0.046z"></path>
<path fill="#e1e0e2" d="M30.379 3.949c-0.001-0.003-0.001-0.007-0.001-0.010 0-0.021 0.014-0.038 0.033-0.043l0-0 0.027-0.006c0-0 0.001-0 0.001-0 0.159-0.038 0.307 0.009 0.331 0.106v0l0.004 0.022c0 0 0 0 0 0 0.024 0.097-0.086 0.207-0.245 0.246h-0l-0.028 0.007c-0.003 0.001-0.007 0.001-0.010 0.001-0.021 0-0.038-0.014-0.043-0.033l-0-0-0.069-0.29z"></path>
<path fill="#fff" d="M30.12 4.13l0.105-0.004 0.298 0.288q0.059 0.056 0.124 0.006l0.335-0.258q0.034-0.009 0.080 0.052c-0.214 0.473-0.796 0.436-0.941-0.083z"></path>
<path fill="#000" d="M10.398 4.346c0.001-0.027 0.023-0.049 0.050-0.049 0 0 0 0 0 0v0l0.789 0.003c0 0 0 0 0 0 0.333 0.002 0.602 0.259 0.6 0.575 0 0 0 0.001 0 0.001v-0 0.050c-0.002 0.315-0.273 0.569-0.606 0.568v0l-0.789-0.003c0 0 0 0-0 0-0.028 0-0.050-0.022-0.050-0.050 0-0.001 0-0.001 0-0.002v0l0.006-1.094z"></path>
<path fill="#000" d="M18.218 4.338c0.001-0.027 0.023-0.049 0.050-0.049 0.001 0 0.001 0 0.002 0h-0l0.653 0.015c0.309 0.007 0.553 0.24 0.547 0.521 0 0 0 0-0 0.001v-0 0.035c-0.007 0.281-0.262 0.502-0.57 0.495-0 0-0 0-0 0l-0.653-0.015c-0.027-0.001-0.049-0.023-0.049-0.050 0-0.001 0-0.001 0-0.002v0l0.021-0.953z"></path>
<path fill="#000" d="M28.374 5.688l0.469-1.214c0.007-0.017 0.023-0.030 0.043-0.030s0.036 0.012 0.043 0.029l0 0 0.46 1.217c0.002 0.005 0.003 0.010 0.003 0.016 0 0.025-0.020 0.046-0.046 0.046 0 0-0 0-0 0v0l-0.929-0.003c0 0-0 0-0 0-0.025 0-0.046-0.020-0.046-0.046 0-0.006 0.001-0.011 0.003-0.017l-0 0z"></path>
<path fill="#c9151c" d="M4.871 4.908l1.332 0.006q0.090 0 0.091 0.091l0.012 1.302-1.327-0.015q-0.093-0.001-0.093-0.093l-0.015-1.292z"></path>
<path fill="#e1e0e2" d="M40.404 5.412c0.004-0.001 0.009-0.002 0.014-0.002 0.029 0 0.053 0.024 0.053 0.053 0 0.014-0.005 0.026-0.014 0.036l0-0q-0.084 0.1-0.233 0.066c-0.009-0.002-0.019-0.007-0.026-0.015-0.022-0.022-0.023-0.057-0.002-0.078 0.008-0.008 0.017-0.013 0.027-0.015l-0 0 0.181-0.046z"></path>
<path fill="#e1e0e2" d="M2.752 29.766l0.358-0.436q0.358-0.417 0.938-0.801c2.705-1.792 5.949-2.712 9.143-2.945q0.047-0.003 1.706-0.146c1.172-0.102 2.174 0.1 3.275 0.118 2.070 0.032 3.99 0.559 6.027 0.724 0.566 0.047 1.159 0.162 1.705 0.164q2.11 0.001 4.222-0.013c0.232-0.001 0.439-0.116 0.665-0.127q4.797-0.227 8.953-2.585 0.226-0.127 0.571-0.463 0.055-0.053 0.056-0.128c0.044-3.408-0.003-6.808 0.013-10.213 0.010-2.355-0.007-4.726-0.071-7.080q-0.004-0.161 0.078-0.024 0.046 0.078 0.059 0.17 0.010 0.069 0.071 0.103 0.344 0.19 0.336 0.442-0.066 2.396-0.035 5.521 0.001 0.205 0.106 0.329 0.044 0.053 0.046 0.122 0.043 4.785 0.025 9.572c-0.001 0.291-0.108 0.59-0.072 0.923q0.009 0.080-0.055 0.128-0.153 0.121-0.167 0.324c-0.003 0.051-0.030 0.097-0.071 0.125l-0.001 0.001c-0.64 0.426-1.29 0.774-1.948 1.168q-0.251 0.149-0.7 0.31c-0.332 0.119-0.608 0.302-0.951 0.397-1.017 0.28-2.070 0.774-3.035 0.851q-0.686 0.055-1.15 0.255-0.083 0.035-0.159-0.010l-0.049-0.028q-0.050-0.029-0.103-0.006c-0.401 0.186-0.842 0.139-1.186 0.189-0.516 0.077-0.994 0.086-1.544 0.192-0.476 0.091-0.914-0.153-1.339-0.001q-0.258 0.091-1.217-0.062c-0.046-0.008-0.092 0.015-0.115 0.055l-0 0.001q-0.071 0.128-0.224 0.102c-1.026-0.17-2.003 0.052-2.982-0.265-0.040-0.012-0.081-0.012-0.12 0.001l-0.001 0q-0.414 0.136-0.777-0.093c-0.042-0.028-0.093-0.045-0.148-0.047h-0.001q-0.451-0.019-1.019-0.147-0.094-0.021-0.183 0.040-0.059 0.040-0.122 0.010-0.639-0.286-1.333-0.22-0.074 0.007-0.139-0.028-0.385-0.209-0.836-0.103-0.038 0.009-0.072 0.028-0.080 0.044-0.171-0.007-0.068-0.040-0.146-0.038-0.954 0.007-1.905-0.066c-0.121-0.009-0.321 0.059-0.473-0.006q-0.068-0.029-0.142-0.025c-0.783 0.041-1.575-0.077-2.349 0.078q-0.578 0.114-1.020 0.071-0.544-0.053-0.947 0.139-0.063 0.031-0.124-0.004-0.021-0.012-0.027-0.032-0.025-0.075-0.097-0.044-0.406 0.178-0.844 0.181-0.084 0-0.153 0.049-0.307 0.211-0.655 0.13-0.072-0.016-0.14 0.012-0.206 0.087-0.425 0.103-0.084 0.004-0.156 0.050-0.313 0.193-0.63 0.015c-0.042-0.024-0.095-0.013-0.124 0.025l-0 0q-0.128 0.17-0.321 0.128-0.078-0.016-0.142 0.031c-0.324 0.237-0.687 0.234-0.978 0.364q-0.436 0.195-0.849 0.438-0.062 0.037-0.136 0.035c-0.335-0.006-0.547 0.406-0.863 0.585-0.344 0.195-0.714 0.128-1.094 0.46q-0.317 0.274-0.942 0.756c-0.18 0.139-0.299 0.392-0.575 0.181z"></path>
<path fill="#c9151c" d="M3.566 6.306l1.23-0.004c0.057-0 0.103 0.046 0.104 0.103l0.004 1.194c0 0.057-0.046 0.103-0.103 0.104l-1.23 0.004c-0.057 0-0.103-0.046-0.104-0.103l-0.004-1.194c-0-0.057 0.046-0.103 0.103-0.104z"></path>
<path fill="#c9151c" d="M6.306 6.307l1.221-0.003c0 0 0 0 0 0 0.086 0 0.156 0.070 0.156 0.156 0 0.001 0 0.001 0 0.002v-0l-0.010 1.131c-0.001 0.062-0.051 0.112-0.114 0.112 0 0 0 0 0 0h-1.177q-0.072 0-0.072-0.072l-0.004-1.326z"></path>
<path fill="#6f0516" d="M3.008 28.545q0.199-0.003 0.245-0.038c2.159-1.687 4.958-2.654 7.44-3.098q0.647-0.116 1.293-0.232c0.504-0.090 1.072-0.043 1.616-0.143 1.096-0.203 2.259-0.066 3.375-0.078q0.681-0.009 1.596 0.164 0.208 0.038 0.768 0.004c0.556-0.034 1.076 0.156 1.65 0.159q0.072 0.001 0.133 0.040 0.071 0.049 0.158 0.056 0.802 0.077 1.593 0.234c0.569 0.115 1.121 0.173 1.683 0.27 0.047 0.008 0.094 0.004 0.137-0.010l0.001-0c0.572-0.19 0.867 0.093 1.358 0.111 1.354 0.049 2.749 0.060 4.094-0.115q0.358-0.047 0.957-0.041 0.762 0.007 3.104-0.51c1.806-0.401 4.098-1.137 5.577-2.281q0.059-0.046 0.057-0.121c-0.080-2.837-0.106-5.646-0.099-8.485 0.004-1.444 0.111-3.645 0.053-5.474-0.019-0.627 0.060-1.464-0.027-2.205l0.168-0.299q0.097-0.173 0.097 0.027l0.049 16.439c0 0.095-0.048 0.182-0.127 0.232l-0.002 0.001c-4.302 2.716-9.849 3.336-14.916 2.895-1.799-0.155-3.778-0.602-5.692-0.767-5.471-0.47-11.934-0.007-16.383 3.648q-0.108 0.087-0.065-0.044l0.108-0.338z"></path>
<path fill="#c1194c" d="M39.771 6.751c0.087 0.74 0.007 1.578 0.027 2.205 0.057 1.829-0.049 4.030-0.053 5.474-0.007 2.839 0.019 5.648 0.099 8.485q0.001 0.075-0.057 0.121c-1.479 1.144-3.771 1.88-5.577 2.281q-2.342 0.518-3.104 0.51-0.599-0.006-0.957 0.041c-1.345 0.175-2.74 0.164-4.094 0.115-0.491-0.018-0.786-0.301-1.358-0.111-0.045 0.014-0.092 0.018-0.137 0.011l-0.001-0c-0.562-0.097-1.113-0.155-1.683-0.27q-0.79-0.158-1.593-0.234-0.087-0.007-0.158-0.056-0.060-0.038-0.133-0.040c-0.574-0.003-1.094-0.193-1.65-0.159q-0.56 0.034-0.768-0.004-0.914-0.173-1.596-0.164c-1.116 0.012-2.28-0.125-3.375 0.078-0.544 0.1-1.112 0.053-1.616 0.143q-0.646 0.115-1.293 0.232c-2.482 0.444-5.281 1.411-7.44 3.098q-0.046 0.035-0.245 0.038c-0.060-4.173-0.052-8.345-0.086-12.52-0.009-0.9 0.038-1.98 0.024-2.973q-0.001-0.077 0.065-0.114c2.551-1.46 5.689-2.070 8.593-2.224q4.625-0.242 10 0.525c6.096 0.87 13.521 0.13 18.168-4.489zM3.496 27.725q-0.037 0.103 0.109 0.062 0.046-0.013 0.1-0.047 2.483-1.615 5.412-2.326c3.544-0.894 7.277-0.995 10.994-0.611 1.423 0.147 3.378 0.56 5.104 0.684q0.386 0.156 0.81 0.041 3.020 0.192 5.959-0.192 3.738-0.403 6.994-2.177 0.249-0.134 0.469-0.33 0.057-0.052 0.057-0.128 0.041-7.412-0.032-14.82 0-0.024-0.012-0.037-0.012-0.015-0.029-0.027 0.035-0.058 0.001-0.115c-0.016-0.026-0.044-0.043-0.076-0.043-0.022 0-0.042 0.008-0.057 0.021l0-0c-2.681 2.287-5.941 3.498-9.405 4.013-0.195 0.028-0.403-0.046-0.582 0.009-0.712 0.215-1.538 0.195-2.283 0.224q-0.007 0-0.013 0.006-0.013 0.018-0.024 0.037c-0.013 0.024-0.037 0.041-0.065 0.044l-0 0q-1.572 0.136-2.051 0.016c-1.171-0.293-2.421-0.178-3.781-0.459q-1.053-0.217-3.492-0.386c-0.848-0.059-1.916-0.041-2.877-0.115-0.204-0.015-0.413 0.086-0.653-0.030-0.043-0.020-0.089-0.029-0.134-0.025l-0.001 0q-1.444 0.137-2.893 0.099c-0.118-0.003-0.187 0.090-0.316 0.099q-1.506 0.112-2.063 0.221c-0.963 0.19-4.934 1.043-5.36 1.895-0.175 0.352-0.044 0.802-0.049 1.056-0.074 3.731-0.139 9.11-0.037 13.208q0.003 0.074 0.074 0.088l0.204 0.043z"></path>
<path fill="#e1e0e2" d="M38.014 7.652q0.041-0.060 0.1-0.102 0.177-0.121 0.034 0.037-0.124 0.136-0.286 0.229c-0.006 0.003-0.013 0.004-0.020 0.002-0.014-0.004-0.023-0.017-0.019-0.031 0.002-0.007 0.006-0.012 0.012-0.016v0l0.139-0.083c0.016-0.010 0.029-0.022 0.039-0.036l0-0z"></path>
<path fill="#860a3a" d="M39.431 7.819c-3.541 2.939-7.49 3.911-12.002 4.256-2.386 0.096-4.63-0.081-6.984-0.419-2.154-0.311-4.452-0.429-6.435-0.466q-0.625-0.012-1.259 0.050c-3.044 0.040-6.494 0.578-9.217 2.025q-0.071 0.038-0.071 0.118l0.034 14.343-0.204-0.043q-0.071-0.015-0.074-0.088c-0.102-4.098-0.037-9.478 0.037-13.208 0.004-0.254-0.127-0.703 0.049-1.056 0.426-0.852 4.397-1.705 5.36-1.895q0.557-0.109 2.063-0.221c0.128-0.009 0.198-0.102 0.316-0.099q1.45 0.038 2.893-0.099c0.047-0.004 0.093 0.005 0.134 0.024l0.001 0.001c0.24 0.115 0.45 0.015 0.653 0.030 0.961 0.074 2.029 0.056 2.877 0.115q2.439 0.17 3.492 0.386c1.36 0.28 2.61 0.165 3.781 0.459q0.479 0.119 2.051-0.016c0.028-0.003 0.052-0.020 0.065-0.044l0-0q0.010-0.019 0.024-0.037 0.006-0.006 0.013-0.006c0.745-0.030 1.57-0.009 2.283-0.224 0.18-0.055 0.388 0.019 0.582-0.009 3.464-0.515 6.724-1.725 9.405-4.013 0.015-0.013 0.035-0.021 0.057-0.021 0.032 0 0.060 0.017 0.076 0.042l0 0q0.034 0.058-0.001 0.115z"></path>
<path fill="#fffd2d" d="M39.431 7.819q0.018 0.012 0.029 0.027 0.012 0.013 0.012 0.037 0.074 7.409 0.032 14.82 0 0.077-0.057 0.128-0.22 0.196-0.469 0.33-3.256 1.774-6.994 2.177 0.854-0.288 1.814-0.345 0.091-0.004 0.145-0.078 0.145-0.201 0.379-0.091c0.046 0.021 0.101 0.011 0.137-0.025l0.001-0.001q0.181-0.183 0.431-0.175 0.074 0.003 0.145-0.021l0.984-0.335q0.046-0.016 0.084-0.046 0.102-0.081 0.263-0.028 0.071 0.024 0.139-0.009l2.648-1.279q0.251-0.121 0.251-0.398l0.006-14.104c0-0.017-0.003-0.035-0.009-0.054-0.029-0.086-0.124-0.132-0.211-0.103-0.018 0.006-0.034 0.015-0.048 0.026l0.001-0.001c-3.406 2.62-7.353 3.754-11.619 3.999q-0.087 0.004-0.090-0.081l-0.003-0.117c4.512-0.345 8.462-1.317 12.002-4.256z"></path>
<path fill="#fae02f" d="M31.984 25.337q-2.939 0.383-5.959 0.192l-0.81-0.041c-1.725-0.124-3.681-0.537-5.104-0.684-3.716-0.385-7.45-0.283-10.994 0.61l-0.534-0.021q-0.069-0.003-0.114 0.050-0.15 0.18-0.377 0.13-0.068-0.015-0.133 0.006-2.178 0.669-4.116 1.863c-0.015 0.010-0.034 0.016-0.055 0.016-0.056 0-0.102-0.046-0.102-0.102 0-0 0-0.001 0-0.001v0-13.865q0-0.137 0.125-0.193c2.809-1.27 5.888-1.817 8.938-1.832q0.125 0 0.111-0.068-0.013-0.059-0.112-0.158 0.634-0.062 1.259-0.050c1.983 0.037 4.281 0.155 6.435 0.466 2.354 0.338 4.598 0.515 6.984 0.419l0.003 0.117q0.003 0.086 0.090 0.081c4.266-0.245 8.212-1.379 11.619-3.999 0.013-0.010 0.029-0.019 0.047-0.025 0.087-0.030 0.182 0.016 0.211 0.103 0.006 0.018 0.009 0.037 0.009 0.055l-0-0.001-0.006 14.104q0 0.277-0.251 0.398l-2.648 1.279q-0.068 0.032-0.139 0.009-0.161-0.053-0.263 0.028-0.038 0.029-0.084 0.046l-0.984 0.335q-0.071 0.024-0.145 0.021-0.249-0.007-0.431 0.175c-0.036 0.036-0.091 0.046-0.136 0.025l-0.001-0q-0.234-0.109-0.379 0.091-0.053 0.074-0.145 0.078-0.96 0.058-1.814 0.345zM20.846 20.015c-0.195 0.029-0.503-0.636-0.748-0.813q-0.771-0.711-1.705-1.187l-0.034-0.419q-0.006-0.080 0.066-0.114 0.599-0.276 1.423 0.198 0.050-0.037 0.302 0.136l0.239 0.177q0.081 0.059 0.077-0.041-0.027-0.752-0.050-1.495-0.003-0.1-0.049-0.14-0.056-0.049-0.153-0.058-0.032-0.133-0.116-0.155c-0.857-0.221-2.090-0.348-2.858 0.118-0.902 0.549-1.184 1.724-0.721 2.656 0.383 0.773 1.174 1.075 1.868 1.517 0.314 0.201 0.557 0.56 0.206 0.857-0.543 0.459-1.716-0.208-2.113-0.622-0.007-0.008-0.017-0.015-0.028-0.020-0.044-0.019-0.095 0.001-0.114 0.044-0.005 0.011-0.007 0.023-0.007 0.035v-0.001l-0.001 1.544q-0.034-0.055-0.1-0.083c-0.038-0.016-0.064-0.052-0.065-0.092v-0.001l-0.058-3.685q0-0.081 0.040-0.153 0.131-0.229 0.077-0.478c-0.106-0.472-0.121-0.833-0.078-1.315 0.004-0.047-0.007-0.093-0.030-0.133l-0.001-0.001q-0.115-0.196-0.298-0.199-0.031-0.165-0.361-0.167-0.964-0.006-1.86 0.060-0.13 0.028-0.204 0.012c-0.137-0.628-1.044 0.087-1.197 0.354q-0.021 0.037-0.046 0.047-0.038 0.018-0.077 0-0.088-0.041-0.055-0.133l0.043-0.118q0.046-0.122-0.084-0.106l-2.128 0.252q-0.143 0.016-0.050 0.127 0.344 0.406 0.237 0.761l-0.414-0.155q0.030-0.202-0.111-0.18-0.254 0.040-1.175 0.223l-0.025-1.28c-0.001-0.048 0.028-0.090 0.072-0.105l0.001-0c0.783-0.271 1.327-0.549 2.082-0.379q-0.030-0.069 0.242 0.050l0.212 0.186q0.053 0.047 0.094-0.012c0.264-0.379 1.038-1.531 0.448-1.724-0.643-0.656-2.075-0.38-2.852-0.136q-1.466 0.465-3.066 0.813c-0.033 0.007-0.058 0.036-0.058 0.071 0 0.017 0.006 0.032 0.015 0.044l-0-0c0.158 0.208 0.239 0.392 0.242 0.671q0.034 3.961 0.086 7.92c0.004 0.41-0.118 0.767-0.255 1.141q-0.040 0.112 0.071 0.069l0.299-0.114q-0.050 0.152-0.037 0.246c0.005 0.035 0.035 0.062 0.072 0.062 0.009 0 0.018-0.002 0.026-0.005l-0 0q0.877-0.341 1.755-0.68c0.302-0.116 0.662-0.149 0.994-0.26q0.086-0.028 0.015-0.086-0.186-0.152-0.347-0.181-0.068-0.080-0.053-0.119l-0.072-4.305q-0.001-0.077 0.069-0.108 0.795-0.342 1.669-0.192 0 1.783 0.055 3.585c0.009 0.305-0.1 0.491-0.264 0.731-0.006 0.009-0.010 0.020-0.010 0.032 0 0.031 0.025 0.056 0.056 0.056 0.004 0 0.007-0 0.010-0.001l0.42-0.077-0.1 0.167q-0.063 0.103 0.056 0.086c0.848-0.125 1.756-0.355 2.612-0.332q0.083 0.003 0.028-0.059c-0.248-0.276-0.429-0.534-0.431-0.93q-0.006-1.066-0.024-2.129c-0.018-0.981 0.047-2.007 1.28-1.896q0.059 2.048 0.016 4.051c-0.006 0.254-0.096 0.354-0.264 0.522q-0.072 0.072 0.021 0.114 0.127 0.056 0.298 0.013 0.091 0.209 0.442 0.183c0.705-0.055 1.426-0.034 2.135-0.028q0.077 0.001 0.102-0.072 0.032-0.093-0.032-0.181l0.184 0.001 0.024 0.077q0.024 0.074 0.1 0.086c1.1 0.159 3.662 0.698 3.849-1.121q0.009-0.075 0.077-0.109l0.165-0.080q0.131 0.743-0.165 1.389-0.032 0.069 0.034 0.108 0.109 0.063 0.271 0.071-0.004 0.177 0.116 0.192 1.161 0.139 2.274 0.363c0.005 0.001 0.010 0.002 0.015 0.002 0.041 0 0.074-0.033 0.074-0.074 0-0.012-0.003-0.023-0.008-0.033l0 0q-0.466-0.96-0.13-1.932c0.341 0.74 0.56 1.513 1.284 1.904 0.879 0.507 2.598 0.286 3.853 0.335q0.102 0.004 0.031-0.069-0.419-0.435-0.447-0.966-0.038-0.752 0.156-1.82 0.296 1.516 1.433 2.188c0.883 0.584 2.237 0.403 3.179 0.069q0.22-0.078 0.845-0.64c0.038-0.033 0.089-0.043 0.135-0.028l0.001 0c1.485 0.491 3.316-0.080 4.035-1.529 0.023-0.046 0.032-0.096 0.025-0.145l-0-0.001c-0.047-0.352 0.099-0.68 0.081-0.975q-0.063-1.017-0.782-1.584-0.823-0.528-1.718-0.711-0.029-0.181-0.075-0.239c-0.004-0.005-0.009-0.011-0.013-0.018-0.077-0.119-0.036-0.283 0.093-0.367 0.007-0.004 0.014-0.009 0.021-0.012l-0.001 0q0.849-0.465 1.718 0.021c0.013 0.007 0.028 0.011 0.044 0.011 0.026 0 0.050-0.011 0.067-0.029l0-0c0.248-0.27-0.192-0.749-0.024-1.107 0.584 1.414 2.059-0.016 1.051-0.693q-0.64-0.429-1.065 0.5-0.119-0.004-0.087-0.326 0.010-0.103-0.091-0.078l-0.149 0.037q-0.007-0.112-0.063-0.204-0.038-0.063-0.111-0.049c-1.773 0.388-3.184 0.619-3.49 2.727-0.367-0.087-0.336-0.565-0.628-0.591-1.851-1.753-3.828-0.242-4.445 1.778l-0.105-1.734c-0.003-0.048-0.043-0.086-0.091-0.086-0.004 0-0.007 0-0.011 0.001l0-0q-0.18 0.021-0.15 0.14c-0.010-0.234-0.063-0.372-0.327-0.369q-1.015 0.009-2.035 0.050-0.087 0.003-0.040 0.075l0.301 0.453q-0.114 0.010-0.119 0.041c-0.639-0.737-1.394-0.767-2.132-0.192q-0.145 0.112-0.341 0.229-0.084-1.801 0.040-3.552 0.006-0.074-0.053-0.118-0.218-0.165-0.261 0.025 0.041-0.293-0.14-0.314-1.177-0.133-2.318-0.319c-0.004-0.001-0.009-0.001-0.013-0.001-0.041 0-0.074 0.033-0.074 0.074 0 0.021 0.009 0.039 0.022 0.053l0.389 0.389c0.036 0.036 0.056 0.084 0.058 0.133l-0 0.001 0.060 6.213zM14.344 15.419q1.299 0.56 1.699-0.417 0.143-0.347 0.065-0.659-0.094-0.379-0.447-0.559c-1.265-1.301-2.892 0.6-1.317 1.635zM26.834 16.425c0.805 0.652 1.98-1.037 0.777-1.75-0.621-0.578-1.401-0.519-1.809 0.257q-0.584 1.109 1.032 1.494z"></path>
<path fill="#e1e0e2" d="M36.424 8.7q0.152-0.139 0.361-0.227 0.018-0.044 0.053-0.055 0.099-0.031 0.016 0.044-0.183 0.167-0.431 0.237z"></path>
<path fill="#e1e0e2" d="M36.424 8.7q-0.239 0.19-0.585 0.32c-0.004 0.001-0.008 0.001-0.012-0-0.008-0.003-0.013-0.012-0.010-0.020 0.002-0.004 0.005-0.007 0.009-0.008v0l0.599-0.292z"></path>
<path fill="#e1e0e2" d="M34.323 9.688q0.397-0.223 0.783-0.33 0.161-0.044 0.010 0.028-0.345 0.167-0.793 0.302z"></path>
<path fill="#e1e0e2" d="M34.323 9.688c-0.146 0.090-0.637 0.307-0.821 0.304q-0.105-0.001-0.006-0.034l0.827-0.27z"></path>
<path fill="#e1e0e2" d="M6.379 11.060c2.228-0.602 4.732-0.895 7.041-0.836q0.035 0.001 0.035 0.025 0 0.007-0.003 0.016-0.004 0.013-0.021 0.013-3.535-0.071-6.952 0.817-0.049 0.012-0.102 0-0.071-0.016 0-0.035z"></path>
<path fill="#e1e0e2" d="M25.469 11.092c2.292-0.024 4.512-0.218 6.689-0.754q0.041-0.044 0.069-0.010 0.038 0.047-0.021 0.062-2.573 0.628-5.735 0.748-1.767 0.066-2.924-0.103c-0.233-0.034-0.552-0.003-0.82-0.041-2.948-0.422-4.974-0.706-7.652-0.717q-0.025 0-0.025-0.024 0-0.006 0-0.012 0-0.012 0.012-0.012c2.494-0.027 4.359 0.249 7.18 0.63 0.692 0.093 1.535 0.106 2.302 0.183q0.538 0.055 0.925 0.050z"></path>
<path fill="#fffd2d" d="M12.75 11.24q0.099 0.099 0.112 0.158 0.015 0.068-0.111 0.068c-3.050 0.015-6.129 0.562-8.938 1.832q-0.125 0.056-0.125 0.193v13.865c0 0 0 0.001 0 0.001 0 0.056 0.046 0.102 0.102 0.102 0.020 0 0.039-0.006 0.055-0.016l-0 0q1.938-1.193 4.116-1.863 0.065-0.021 0.133-0.006 0.227 0.050 0.377-0.13 0.044-0.053 0.114-0.050l0.534 0.021q-2.929 0.711-5.412 2.326-0.055 0.034-0.1 0.047-0.146 0.041-0.109-0.062l-0.034-14.342q0-0.080 0.071-0.118c2.722-1.447 6.173-1.985 9.217-2.025z"></path>
<path fill="#e1e0e2" d="M3.11 29.329l-0.358 0.436q-0.105 0.146-0.276 0.167-0.080 0.010-0.080-0.071v-0.277c0-0.046-0.037-0.083-0.083-0.083v0h-0.204q-0.072 0-0.075-0.072-0.050-1.225-0.043-1.964 0.053-6.545-0.007-13.089c-0.003-0.31-0.080-0.519 0.267-0.678q0.071-0.032 0.068-0.111c-0.012-0.268 0.006-0.786 0.28-0.932 0.004-0.003 0.008-0.004 0.013-0.004 0.012 0 0.022 0.010 0.022 0.022 0 0.007-0.003 0.014-0.009 0.018l-0 0-0.086 0.087q-0.049 0.049-0.049 0.117l0.075 16.787q0 0.133 0.099 0.044l0.444-0.397z"></path>
<path fill="#fff" d="M22.862 13.787v3.905q0 0.084 0.072 0.041 0.168-0.1 0.202-0.301 0.196-0.116 0.341-0.229c0.739-0.575 1.494-0.546 2.132 0.192l-0.782 1.483q-0.215-0.022-0.435-0.267-0.789-0.24-1.203 0.525-0.040 0.075 0.044 0.093l0.366 0.077 0.63 0.382 1.425 2.519q0.013 0.024 0.041 0.024 0.022 0 0.043 0c0.001 0 0.001-0 0.002-0 0.014-0.001 0.024-0.012 0.023-0.025-0-0.001-0-0.002-0-0.003l0 0-0.063-0.341 0.024-3.69 0.006-0.818-0.301-0.453q-0.047-0.072 0.040-0.075 1.020-0.041 2.035-0.050c0.264-0.003 0.317 0.134 0.327 0.369q0.009 2.78 0.003 5.567-0.001 0.249 0.314 0.633 0.069 0.083-0.038 0.093-1.745 0.161-3.502-0.099c-0.724-0.391-0.944-1.163-1.284-1.904q-0.118-0.438-0.289-0.808-0.167-0.363-0.147 0.035c0.034 0.773-0.083 1.761 0.267 2.483 0.003 0.005 0.005 0.011 0.006 0.018 0.005 0.033-0.018 0.064-0.052 0.069-0.006 0.001-0.013 0.001-0.019 0l0 0-2.107-0.316q-0.162-0.007-0.271-0.071-0.066-0.038-0.034-0.108 0.296-0.646 0.165-1.389l0.006-1.333-0.060-6.213c-0.001-0.050-0.022-0.098-0.057-0.133l-0.001-0.001-0.389-0.389c-0.014-0.013-0.022-0.032-0.022-0.053 0-0.041 0.033-0.074 0.074-0.074 0.005 0 0.009 0 0.014 0.001l-0-0q1.141 0.186 2.318 0.319 0.181 0.021 0.14 0.314zM21.157 22.484q-0.066 0.034-0.093 0.087c-0.001 0.003-0.003 0.006-0.004 0.010-0.013 0.038 0.007 0.079 0.044 0.091 0.004 0.001 0.008 0.002 0.012 0.003l-0-0 1.647 0.265c0.003 0 0.006 0.001 0.009 0.001 0.029 0 0.053-0.024 0.053-0.053 0-0.008-0.002-0.015-0.005-0.022l0 0c-0.308-0.715-0.156-2.169-0.118-2.966q0.004-0.091 0.090-0.060 0.22 0.083 0.344 0.404l0.963 2.194c0.202 0.678 0.78 0.72 1.414 0.74q1.066 0.034 2.144 0.055c0.004 0 0.009-0 0.013-0.001 0.034-0.007 0.055-0.040 0.048-0.074-0.001-0.005-0.002-0.009-0.004-0.013l0 0c-0.090-0.211-0.142-0.382-0.14-0.615q0.013-2.706-0.015-5.415-0.001-0.077-0.078-0.083-0.1-0.007-0.203 0.034l-1.258 0.009q-0.081 0-0.068 0.081c0.025 0.164 0.077 0.295 0.077 0.451q0.007 2.659-0.012 5.41-0.824-1.062-1.678-2.78-0.26-0.521-0.914-0.72l-0.655-0.13c0.317-0.705 1.135-1.544 1.893-0.833 0.002 0.002 0.005 0.004 0.007 0.006 0.031 0.022 0.075 0.014 0.097-0.018 0.002-0.002 0.003-0.005 0.005-0.008l-0 0 0.54-1.004q0.040-0.074-0.013-0.137-0.137-0.168-0.379-0.257c-0.91-0.357-1.805 0.823-2.112 1.553q-0.027 0.066-0.099 0.072l-0.072 0.007v-4.977q0-0.077-0.077-0.077l-0.112-0.001-1.451-0.224c-0.005-0.001-0.011-0.001-0.017-0-0.029 0.005-0.049 0.032-0.044 0.062 0.001 0.006 0.003 0.011 0.005 0.017l-0-0 0.174 0.347q0.029 0.060 0.029 0.128l0.012 8.439z"></path>
<path fill="#fff" d="M15.661 13.784c0.563 0.984-0.304 1.821-1.317 1.635-1.575-1.035 0.052-2.936 1.317-1.635zM14.039 14.817c1.040 1.224 2.337-0.727 1.006-1.178q-0.133-0.071-0.255-0.028-0.948 0.336-0.751 1.206z"></path>
<path fill="#fff" d="M11.463 13.807l-0.755 1.55q-0.271-0.119-0.242-0.050c-0.513-0.546-1.823-0.049-2.396 0.195-0.053 0.023-0.090 0.075-0.090 0.136v0l-0.004 1.417c0 0.045 0.036 0.082 0.081 0.084h0q0.137 0.006 0.28-0.068 0.922-0.183 1.175-0.223 0.14-0.022 0.111 0.18l0.007 1.301q0 0.078-0.077 0.074-0.754-0.038-1.466 0.236c-0.058 0.022-0.096 0.079-0.094 0.141l0 0.001q0.055 2.135 0.090 4.179 0.003 0.199 0.286 0.307-0.015 0.040 0.053 0.119l-2.477 0.902-0.299 0.114q-0.111 0.043-0.071-0.069c0.137-0.375 0.26-0.731 0.255-1.141q-0.052-3.959-0.086-7.92c-0.003-0.279-0.084-0.463-0.242-0.671-0.009-0.012-0.015-0.027-0.015-0.044 0-0.035 0.025-0.064 0.057-0.071l0-0q1.6-0.348 3.066-0.813c0.777-0.245 2.209-0.521 2.852 0.136zM6.129 23.742q-0.133 0.103-0.153 0.193c-0.001 0.004-0.001 0.009-0.001 0.013 0.002 0.025 0.024 0.044 0.050 0.043 0.005-0 0.009-0.001 0.013-0.003l-0 0 1.854-0.686c0-0 0-0 0-0 0.045-0.017 0.068-0.066 0.051-0.11v0c-0.065-0.181-0.119-0.264-0.121-0.454q-0.021-2.091-0.052-4.189 0-0.097 0.093-0.119l1.482-0.332c0.047-0.011 0.080-0.054 0.078-0.101l-0-0-0.027-0.817q-0.003-0.083-0.083-0.066-0.062 0.013-0.139 0.086-0.594 0.149-1.214 0.27-0.153 0.029-0.181-0.031l-0.035-1.923c-0-0.001-0-0.003-0-0.004 0-0.086 0.053-0.16 0.128-0.191l0.001-0.001c0.762-0.301 1.862-0.771 2.648-0.304q0.060 0.037 0.1-0.022 0.388-0.568 0.494-1.233-0.751-0.149-0.979-0.112c-1.419 0.23-2.808 0.746-4.159 1.041q-0.077 0.016-0.050 0.091 0.192 0.524 0.189 1.184-0.010 1.706 0.010 7.779z"></path>
<path fill="#c1194c" d="M22.449 13.716q-0.003 2.435 0.012 4.858 0 0.080 0.034 0.134 0.081 0.131 0.143 0.063l0.072-0.007q0.072-0.006 0.099-0.072c0.307-0.73 1.202-1.91 2.112-1.553l0.192 0.304q0.049 0.078 0.003 0.158l-0.383 0.674c-0 0.001-0.001 0.001-0.001 0.002-0.030 0.049-0.094 0.066-0.143 0.036-0.001-0-0.002-0.001-0.002-0.001l0 0c-0.842-0.531-1.607 0.304-1.976 0.973-0.010 0.019-0.016 0.041-0.016 0.064 0 0.042 0.019 0.080 0.050 0.105l0 0q0.034 0.028 0.103 0.009 0.071-0.019 0.024-0.074l0.655 0.13q-0.040 0.029-0.050 0.066-0.021 0.069 0.047 0.093 0.612 0.211 0.914 0.889c0.279 0.621 0.786 1.609 1.451 2.367 0.009 0.010 0.014 0.024 0.014 0.039 0 0.030-0.023 0.055-0.053 0.059l-0 0q-1.001 0.108-1.65-0.593l-0.963-2.194q0.072-0.445-0.357-0.584c-0.024-0.008-0.051-0.013-0.080-0.013-0.143 0-0.258 0.116-0.258 0.258 0 0.001 0 0.002 0 0.002v-0q0.010 1.2 0.016 2.461 0 0.056 0.027 0.103 0.050 0.088 0.080 0.13c0.009 0.013 0.015 0.029 0.015 0.046 0 0.043-0.035 0.078-0.078 0.078-0.005 0-0.010-0-0.015-0.001l0 0-1.329-0.24-0.012-8.439q0-0.068-0.029-0.128l-0.174-0.347c-0.002-0.005-0.004-0.010-0.005-0.016-0.005-0.030 0.015-0.058 0.044-0.062 0.006-0.001 0.012-0.001 0.018 0l-0-0 1.451 0.224z"></path>
<path fill="#c1194c" d="M15.044 13.639l-0.004 0.053q-0.006 0.072 0.059 0.105c0.671 0.33 0.267 1.472-0.569 1.205q-0.234-0.074-0.491-0.184-0.198-0.87 0.751-1.206 0.122-0.043 0.255 0.028z"></path>
<path fill="#c1194c" d="M11.117 13.759l-0.504 0.982c-0.023 0.044-0.074 0.064-0.119 0.047l-0-0c-0.895-0.336-1.861 0.062-2.691 0.347-0.149 0.052-0.249 0.19-0.252 0.344l0 0.002-0.038 1.951c0 0 0 0.001 0 0.002 0 0.066 0.053 0.119 0.119 0.119 0.037 0 0.071-0.017 0.093-0.044l0-0 0.056-0.072q0.028 0.060 0.181 0.031 0.619-0.121 1.214-0.27l0.037 0.667q0.003 0.078-0.072 0.097c-0.317 0.077-1.512 0.162-1.576 0.689-0.112 0.905 0.059 1.888 0.065 2.65q0.007 0.848 0.083 1.817c0 0.003 0 0.006 0 0.009 0 0.051-0.032 0.094-0.078 0.11l-0.001 0-1.504 0.506q-0.021-6.073-0.010-7.779 0.003-0.661-0.189-1.184-0.027-0.075 0.050-0.091c1.351-0.295 2.74-0.811 4.159-1.041q0.229-0.037 0.979 0.112z"></path>
<path fill="#2f0000" d="M15.044 13.639c1.332 0.451 0.034 2.402-1.006 1.178q0.257 0.111 0.491 0.184c0.836 0.267 1.24-0.874 0.569-1.205q-0.065-0.032-0.059-0.105l0.004-0.053z"></path>
<path fill="#bfa911" d="M23.136 17.432q-0.034 0.201-0.202 0.301-0.072 0.043-0.072-0.041v-3.905q0.043-0.19 0.261-0.025 0.059 0.044 0.053 0.118-0.124 1.752-0.040 3.552z"></path>
<path fill="#6f0516" d="M22.449 13.716l0.112 0.001q0.077 0 0.077 0.077v4.977q-0.062 0.068-0.143-0.063-0.034-0.055-0.034-0.134-0.015-2.423-0.012-4.857z"></path>
<path fill="#6f0516" d="M11.117 13.759q-0.106 0.665-0.494 1.233-0.040 0.059-0.1 0.022c-0.786-0.467-1.886 0.003-2.648 0.304-0.077 0.031-0.13 0.105-0.13 0.192 0 0.002 0 0.003 0 0.005v-0l0.035 1.923-0.056 0.072c-0.022 0.027-0.055 0.044-0.093 0.044-0.066 0-0.119-0.053-0.119-0.119 0-0.001 0-0.001 0-0.002v0l0.038-1.951c0.003-0.157 0.103-0.294 0.25-0.346l0.002-0.001c0.83-0.285 1.796-0.683 2.691-0.347 0.046 0.017 0.097-0.003 0.119-0.047l0-0 0.504-0.982z"></path>
<path fill="#bfa911" d="M15.661 13.784q0.352 0.18 0.447 0.559 0.078 0.313-0.065 0.659-0.4 0.978-1.699 0.417c1.013 0.186 1.88-0.652 1.317-1.635z"></path>
<path fill="#bfa911" d="M11.463 13.807c0.59 0.193-0.184 1.345-0.448 1.724q-0.041 0.059-0.094 0.012l-0.212-0.186 0.755-1.55z"></path>
<path fill="#fff" d="M27.611 14.674c0.521 0.801 0.037 1.514-0.777 1.75q-1.616-0.385-1.032-1.494c0.408-0.776 1.189-0.835 1.809-0.257zM26.045 15.767c0.901 1.187 2.559-0.7 0.739-1.225q-0.647 0.162-0.821 0.841-0.065 0.255 0.083 0.385z"></path>
<path fill="#c1194c" d="M26.784 14.542q0.761 0.445 0.681 0.793-0.121 0.537-0.585 0.63-0.31 0.062-0.835-0.198-0.147-0.13-0.083-0.385 0.174-0.678 0.821-0.841z"></path>
<path fill="#2f0000" d="M26.784 14.542c1.82 0.525 0.162 2.413-0.739 1.225q0.525 0.26 0.835 0.198 0.465-0.093 0.585-0.63 0.080-0.348-0.681-0.793z"></path>
<path fill="#bfa911" d="M27.611 14.674c1.203 0.714 0.028 2.402-0.777 1.75 0.814-0.236 1.298-0.95 0.777-1.75z"></path>
<path fill="#fff" d="M36.924 15.162l0.084 1.398q0.006 0.103-0.087 0.056-0.575-0.293-1.149-0.234c-0.566 0.058-1.326 0.771-0.338 1.081q0.895 0.183 1.718 0.711c1.249 1.758-0.053 3.881-2.022 4.163q-0.749 0.108-1.603-0.195-0.071-0.025-0.125 0.027-1.578 1.51-3.769 0.838-1.137-0.672-1.433-2.188-0.128-1.016-0.013-1.994c0.616-2.020 2.594-3.532 4.445-1.778q0.641 1.003 0.559 2.129-0.006 0.087-0.087 0.116l-2.715 0.988q-0.063 0.022-0.066 0.090-0.027 0.829 0.711 1.41 1.609 0.155 1.905-1.562c0.004-0.023 0.024-0.040 0.048-0.040 0.013 0 0.025 0.005 0.033 0.013l-0-0c0.74 0.69 1.315 1.115 2.352 0.727 0.38-0.142 0.734-0.46 0.495-0.882q-0.078-0.146-0.227-0.189-0.684-0.195-1.399-0.366l-0.641-0.537q-0.319-0.625-0.339-1.308c0.307-2.107 1.718-2.339 3.49-2.727q0.072-0.015 0.111 0.049 0.056 0.091 0.063 0.204zM36.571 15.232c-1.326 0.333-2.411 0.529-2.881 2.017q-0.199 0.633 0.027 1.283 0.143 0.552 0.608 0.678 0.898 0.245 1.725 0.56c0.821 1.439-1.069 1.73-1.972 1.454l-0.879-0.549q-0.090-0.058-0.088 0.049l0.004 0.257q-0.556 1.237-2.113 1.078-0.928-0.68-0.932-1.833c0-0 0-0 0-0 0-0.053 0.033-0.098 0.080-0.116l0.001-0 2.733-0.984c0.058-0.022 0.099-0.077 0.099-0.141 0-0.001 0-0.001 0-0.002v0c-0.012-0.872-0.329-1.957-1.252-2.271q-1.107-0.484-2.138 0.425-1.284 1.13-1.153 3.030 0.071 1.031 0.382 1.634c0.907 1.811 3.446 1.286 4.554 0.078q0.047-0.053 0.114-0.025c1.861 0.771 4.076-0.291 3.871-2.507-0.121-1.308-1.047-1.351-2.065-1.709-0.643-0.229-0.74-0.811-0.201-1.211 0.479-0.355 1-0.31 1.571-0.18q0.068 0.016 0.075-0.053 0.072-0.646-0.168-0.963z"></path>
<path fill="#c1194c" d="M37.265 15.723q0.028-0.109-0.013-0.193 0.425-0.929 1.065-0.5c1.007 0.677-0.467 2.107-1.051 0.693zM38.499 15.602c0-0.293-0.238-0.531-0.531-0.531v0c-0.293 0-0.531 0.238-0.531 0.531v0c0 0.293 0.238 0.531 0.531 0.531v0c0.293 0 0.531-0.238 0.531-0.531v0z"></path>
<path fill="#bfa911" d="M10.466 15.307c-0.755-0.17-1.299 0.108-2.082 0.379-0.044 0.015-0.073 0.057-0.072 0.104l0 0.001 0.025 1.28q-0.143 0.074-0.28 0.068c-0.045-0.002-0.081-0.039-0.081-0.084v-0l0.004-1.417c0-0.061 0.037-0.113 0.089-0.135l0.001-0c0.574-0.243 1.883-0.74 2.396-0.195z"></path>
<path fill="#fffd2d" d="M38.499 15.602c0 0.293-0.238 0.531-0.531 0.531v0c-0.293 0-0.531-0.238-0.531-0.531v0c0-0.293 0.238-0.531 0.531-0.531v0c0.293 0 0.531 0.238 0.531 0.531v0zM37.884 15.842c0.003-0.004 0.007-0.009 0.011-0.013 0.041-0.040 0.108-0.039 0.149 0.003 0.004 0.004 0.008 0.009 0.011 0.013l-0-0.001 0.072 0.108c0.010 0.013 0.026 0.022 0.043 0.022 0.030 0 0.055-0.024 0.055-0.055 0-0.010-0.002-0.018-0.007-0.026l0 0q-0.084-0.145 0.028-0.264c0.041-0.046 0.064-0.105 0.062-0.168-0.004-0.143-0.137-0.256-0.296-0.251-0.071 0.002-0.135 0.027-0.184 0.066l0-0q-0.223 0.189-0.105 0.584 0.043 0.142 0.13 0.022l0.029-0.040z"></path>
<path fill="#bfa911" d="M37.251 15.53q0.041 0.084 0.013 0.193c-0.168 0.358 0.271 0.838 0.024 1.107-0.017 0.018-0.040 0.029-0.067 0.029-0.016 0-0.031-0.004-0.044-0.011l0 0q-0.869-0.485-1.718-0.021c-0.006 0.003-0.013 0.007-0.020 0.012-0.129 0.084-0.171 0.248-0.093 0.367 0.004 0.006 0.009 0.013 0.013 0.018l-0.001-0.001q0.046 0.058 0.075 0.239c-0.988-0.31-0.229-1.023 0.338-1.081q0.574-0.059 1.149 0.234 0.093 0.047 0.087-0.056l-0.084-1.398 0.149-0.037q0.102-0.025 0.091 0.078-0.032 0.321 0.087 0.326z"></path>
<path fill="#c1194c" d="M37.884 15.842l-0.029 0.040q-0.087 0.119-0.13-0.022-0.118-0.395 0.105-0.584c0.049-0.039 0.113-0.064 0.184-0.066 0.16-0.004 0.292 0.108 0.296 0.251 0.002 0.063-0.022 0.122-0.063 0.169l0-0q-0.112 0.119-0.028 0.264c0.004 0.008 0.007 0.016 0.007 0.026 0 0.030-0.024 0.055-0.055 0.055-0.018 0-0.033-0.008-0.043-0.021l-0-0-0.072-0.108c-0.003-0.004-0.007-0.009-0.011-0.013-0.041-0.042-0.108-0.043-0.149-0.003-0.004 0.004-0.008 0.009-0.012 0.014l0-0.001zM37.941 15.329q-0.165 0.149-0.003 0.29c0.011 0.010 0.026 0.015 0.041 0.015 0.034 0 0.062-0.027 0.063-0.061v-0l0.004-0.196c0-0.001 0-0.001 0-0.002 0-0.035-0.028-0.063-0.063-0.063-0.017 0-0.032 0.006-0.043 0.017l0-0z"></path>
<path fill="#2f0000" d="M28.821 21.801q0.724 0.771 1.264 0.901c1.037 0.251 2.417 0.001 3.138-0.961 0.029-0.038 0.078-0.055 0.125-0.043l0.001 0c0.959 0.251 1.705 0.434 2.651-0.053q1.451-0.745 1.143-2.547c-0.186-1.085-1.131-0.895-1.87-1.28-1.755-0.911 0.078-2.032 1.202-1.821q0.094 0.018 0.096-0.080l0.001-0.686q0.24 0.317 0.168 0.963-0.007 0.069-0.075 0.053c-0.571-0.13-1.091-0.175-1.571 0.18-0.54 0.4-0.442 0.982 0.201 1.211 1.017 0.358 1.944 0.401 2.065 1.709 0.205 2.216-2.010 3.278-3.871 2.507q-0.066-0.028-0.114 0.025c-1.107 1.208-3.647 1.733-4.554-0.078z"></path>
<path fill="#c1194c" d="M36.571 15.232l-0.001 0.686q-0.001 0.097-0.096 0.080c-1.124-0.211-2.957 0.91-1.202 1.821 0.739 0.385 1.684 0.195 1.87 1.28q0.308 1.802-1.143 2.547c-0.947 0.487-1.693 0.304-2.651 0.053-0.047-0.012-0.097 0.005-0.125 0.042l-0 0.001c-0.721 0.963-2.101 1.212-3.138 0.961q-0.54-0.13-1.264-0.901-0.311-0.603-0.382-1.634-0.131-1.901 1.153-3.030 1.031-0.908 2.138-0.425 1.14 0.93 1.054 2.239-0.003 0.053-0.053 0.071-1.332 0.467-2.643 0.923-0.232 0.080-0.212 0.324 0.115 1.454 1.125 1.79 1.557 0.159 2.113-1.078l0.060-0.018q0.047-0.015 0.088 0.015 0.462 0.339 0.814 0.246c0.903 0.276 2.793-0.015 1.972-1.454q0.083-0.062-0.094-0.208c-0.226-0.183-0.911-0.317-1.119-0.357q-0.667-0.13-1.119-0.674-0.226-0.65-0.027-1.283c0.47-1.488 1.556-1.684 2.881-2.017zM29.983 19.358q0.007 0.143 0.175 0.072 0.656-0.276 1.339-0.481 0.071-0.021 0.066-0.094-0.032-0.633-0.257-1.153 0.077-0.168-0.055-0.291c-1.105-1.031-1.473 1.34-1.42 1.914q0.007 0.086 0.090 0.056l0.060-0.024z"></path>
<path fill="#fae02f" d="M37.941 15.329c0.011-0.010 0.026-0.017 0.043-0.017 0.035 0 0.063 0.028 0.063 0.063 0 0.001 0 0.001-0 0.002v-0l-0.004 0.196c-0.001 0.034-0.029 0.061-0.063 0.061-0.016 0-0.030-0.006-0.041-0.015l0 0q-0.162-0.142 0.003-0.29z"></path>
<path fill="#fff" d="M13.393 15.999l-0.024 1.556q-0.001 0.081-0.081 0.086c-0.988 0.059-1.116 0.727-1.121 1.609q-0.004 1.279 0 2.559c0 0.319 0.077 0.534 0.341 0.695 0.026 0.016 0.042 0.044 0.042 0.076 0 0.045-0.033 0.082-0.076 0.089l-0.001 0-2.172 0.321-0.42 0.077c-0.003 0.001-0.006 0.001-0.010 0.001-0.031 0-0.056-0.025-0.056-0.056 0-0.012 0.004-0.023 0.010-0.032l-0 0c0.164-0.24 0.273-0.426 0.264-0.731q-0.055-1.802-0.055-3.585l0.001-1.479q0.106-0.355-0.237-0.761-0.093-0.111 0.050-0.127l2.128-0.252q0.13-0.016 0.084 0.106l-0.043 0.118q-0.034 0.091 0.055 0.133 0.038 0.018 0.077 0 0.025-0.010 0.046-0.047c0.153-0.267 1.060-0.982 1.197-0.354zM12.921 16.13c-0.587 0.323-0.765 0.942-0.997 1.612q-0.024 0.066-0.094 0.063-0.027 0-0.060-0.003l0.069-1.351c0.002-0.032-0.009-0.063-0.030-0.085l-0.001-0.001q-0.094-0.099-0.173 0.024l-1.281 0.128q-0.078 0.007-0.065 0.086 0.119 0.749 0.105 1.277-0.062 2.277 0.037 4.583l-0.127 0.195c-0.005 0.007-0.008 0.015-0.008 0.024 0 0.024 0.019 0.043 0.043 0.043 0.003 0 0.005-0 0.008-0.001l-0 0 1.691-0.242q0.075-0.010 0.046-0.081c-0.323-0.752-0.142-2.501-0.171-3.389-0.018-0.525 0.395-1.63 1.082-1.576 0.003 0 0.007 0 0.010 0 0.069 0 0.125-0.056 0.125-0.124v-0l0.003-1.237c0-0 0-0 0-0.001 0-0.033-0.027-0.060-0.060-0.060-0.007 0-0.014 0.001-0.021 0.004l0-0q-0.109 0.038-0.131 0.112z"></path>
<path fill="#fff" d="M15.817 16.093l0.040 5.922c0 0.026 0.008 0.051 0.023 0.072l0 0.001 0.23 0.332c0.008 0.011 0.013 0.026 0.013 0.041 0 0.039-0.031 0.070-0.069 0.071h-0l-2.261 0.062q-0.171 0.043-0.298-0.013-0.093-0.041-0.021-0.114c0.168-0.168 0.258-0.268 0.264-0.522q0.043-2.003-0.016-4.051l-0.127-1.907q0.895-0.066 1.86-0.060 0.33 0.001 0.361 0.167zM14.089 22.086q-0.090 0.071-0.115 0.155-0.021 0.072 0.055 0.072l1.607-0.013c0.005 0 0.011-0.001 0.017-0.002 0.040-0.010 0.065-0.051 0.055-0.092-0.001-0.006-0.004-0.012-0.006-0.017l0 0c-0.074-0.142-0.108-0.276-0.108-0.445q0.001-2.709 0-5.419 0-0.080-0.077-0.099-0.081-0.022-0.192 0l-1.256-0.003q-0.125 0-0.096 0.121 0.103 0.426 0.103 0.91 0.003 2.405 0.012 4.832z"></path>
<path fill="#fff" d="M20.215 16.26l-0.063 1.557q-0.252-0.173-0.302-0.136c-0.431-0.426-1.144-0.734-1.702-0.386-0.041 0.026-0.069 0.068-0.077 0.115l-0 0.001q-0.053 0.335 0.323 0.605 0.933 0.476 1.705 1.187 0.702 1.066 0.273 2.172c-0.546 1.41-2.228 1.52-3.491 1.094-0.037-0.012-0.076-0.014-0.114-0.006l-0.001 0-0.14 0.032-0.184-0.001q-0.14-0.069-0.111-0.261l0.001-1.544c-0-0.011 0.002-0.023 0.007-0.034 0.019-0.043 0.070-0.063 0.114-0.044 0.011 0.005 0.021 0.012 0.029 0.020l-0-0c0.397 0.414 1.57 1.081 2.113 0.622 0.351-0.296 0.108-0.656-0.206-0.857-0.695-0.442-1.485-0.745-1.868-1.517-0.463-0.932-0.181-2.107 0.721-2.656 0.768-0.466 2.001-0.339 2.858-0.118q0.084 0.022 0.116 0.155zM16.715 18.728c0.382 0.823 1.597 1.308 2.202 1.743 0.498 0.963-0.211 1.234-1.009 1.163q-0.64-0.111-1.178-0.509-0.086-0.063-0.097 0.043-0.012 0.118 0.043 0.288-0.044 0.279 0.041 0.482-0.088 0.102-0.091 0.177-0.003 0.077 0.072 0.090c0.939 0.168 2.163 0.531 3.001-0.239q0.473-0.436 0.534-1.212c0.119-1.548-0.888-1.947-2.050-2.62-0.473-0.274-0.495-1.090 0.143-1.203q0.795-0.14 1.516 0.406 0.077 0.059 0.080-0.038l0.028-0.901q0.003-0.096-0.093-0.097l-0.177-0.004c-1.773-0.37-3.457 0.282-2.964 2.433z"></path>
<path fill="#6f0516" d="M10.43 22.463q0.668 0.022 1.299-0.173 0.075-0.024 0.069-0.102-0.167-2.019-0.074-3.347 0.081-1.174 1.196-1.582 0.074-0.028 0.069-0.106l-0.069-1.023q0.022-0.074 0.131-0.112c0.006-0.002 0.013-0.004 0.021-0.004 0.033 0 0.060 0.027 0.060 0.060 0 0 0 0 0 0.001v-0l-0.003 1.237c-0.001 0.069-0.056 0.124-0.125 0.124-0.004 0-0.007-0-0.011-0l0 0c-0.687-0.053-1.1 1.051-1.082 1.576 0.030 0.888-0.152 2.637 0.171 3.389q0.030 0.071-0.046 0.081l-1.691 0.242c-0.002 0-0.005 0.001-0.008 0.001-0.024 0-0.043-0.019-0.043-0.043 0-0.009 0.003-0.017 0.008-0.024l-0 0 0.127-0.195z"></path>
<path fill="#bfa911" d="M13.393 15.999q0.074 0.016 0.204-0.012l0.127 1.907c-1.233-0.111-1.298 0.916-1.28 1.896q0.018 1.063 0.024 2.129c0.001 0.397 0.183 0.655 0.431 0.93q0.055 0.062-0.028 0.059c-0.855-0.024-1.764 0.206-2.612 0.332q-0.119 0.018-0.056-0.086l0.1-0.167 2.172-0.321c0.043-0.007 0.076-0.044 0.076-0.089 0-0.032-0.017-0.060-0.042-0.076l-0-0c-0.264-0.161-0.341-0.376-0.341-0.695q-0.004-1.28 0-2.559c0.004-0.882 0.133-1.55 1.121-1.609q0.080-0.004 0.081-0.086l0.024-1.556z"></path>
<path fill="#bfa911" d="M16.33 22.233q-0.029 0.192 0.111 0.261 0.065 0.088 0.032 0.181-0.025 0.074-0.102 0.072c-0.709-0.006-1.43-0.027-2.135 0.028q-0.351 0.027-0.442-0.183l2.261-0.062c0.038-0.001 0.069-0.032 0.069-0.071 0-0.015-0.005-0.030-0.013-0.041l0 0-0.23-0.332c-0.015-0.021-0.023-0.046-0.024-0.072l0-0.001-0.040-5.922q0.183 0.003 0.298 0.199c0.024 0.041 0.035 0.087 0.031 0.133l-0 0.001c-0.043 0.482-0.028 0.843 0.078 1.315q0.055 0.249-0.077 0.478-0.040 0.072-0.040 0.153l0.058 3.685c0.001 0.041 0.026 0.077 0.064 0.093l0.001 0q0.066 0.028 0.1 0.083z"></path>
<path fill="#c1194c" d="M12.921 16.13l0.069 1.023q0.004 0.078-0.069 0.106-1.115 0.408-1.196 1.582-0.093 1.329 0.074 3.347 0.006 0.078-0.069 0.102-0.631 0.195-1.299 0.173-0.099-2.306-0.037-4.583 0.015-0.528-0.105-1.277-0.013-0.078 0.065-0.086l1.281-0.128-0.062 1.253q-0.004 0.072 0.063 0.102l0.133 0.058q0.034 0.003 0.060 0.003 0.071 0.003 0.094-0.063c0.232-0.669 0.41-1.289 0.997-1.612z"></path>
<path fill="#c1194c" d="M19.679 16.295q0.143 0.288 0.109 0.7c-0.003 0.041-0.037 0.072-0.078 0.072-0.014 0-0.027-0.004-0.039-0.010l0 0c-0.47-0.261-1.18-0.504-1.665-0.136-0.547 0.414-0.313 1.121 0.208 1.404 0.724 0.394 1.554 0.811 1.802 1.604 0.229 0.737 0.022 1.88-0.814 2.184q-1.261 0.457-2.486-0.175-0.086-0.203-0.041-0.482 0.106-0.091 0.202-0.029 0.621 0.401 1.031 0.208c0.798 0.071 1.507-0.201 1.009-1.163q0.18 0-0.1-0.251c-0.526-0.472-1.301-0.606-1.771-1.211q-0.149-0.193-0.33-0.282c-0.493-2.152 1.192-2.803 2.964-2.433z"></path>
<path fill="#c1194c" d="M15.326 16.226c0.226 2.065-0.205 3.917 0.119 5.781q0.013 0.075-0.062 0.091-0.63 0.131-1.295-0.012-0.009-2.427-0.012-4.832 0-0.484-0.103-0.91-0.030-0.121 0.096-0.121l1.256 0.003z"></path>
<path fill="#6f0516" d="M15.326 16.226q0.111-0.022 0.192 0 0.077 0.019 0.077 0.099 0.001 2.71 0 5.419c0 0.17 0.034 0.304 0.108 0.445 0.002 0.005 0.005 0.010 0.006 0.016 0.010 0.041-0.015 0.082-0.055 0.092-0.006 0.001-0.012 0.002-0.018 0.002l0.001-0-1.607 0.013q-0.075 0-0.055-0.072 0.025-0.084 0.115-0.155 0.665 0.143 1.295 0.012 0.075-0.016 0.062-0.091c-0.324-1.864 0.106-3.716-0.119-5.781z"></path>
<path fill="#bfa911" d="M20.215 16.26q0.097 0.009 0.153 0.058 0.046 0.040 0.049 0.14 0.024 0.743 0.050 1.495 0.004 0.1-0.077 0.041l-0.239-0.177 0.063-1.557z"></path>
<path fill="#2f0000" d="M19.679 16.295l0.177 0.004q0.096 0.001 0.093 0.097l-0.028 0.901q-0.003 0.097-0.080 0.038-0.721-0.546-1.516-0.406c-0.639 0.114-0.616 0.929-0.143 1.203 1.162 0.674 2.169 1.072 2.050 2.62q-0.060 0.776-0.534 1.212c-0.838 0.77-2.062 0.407-3.001 0.239q-0.075-0.013-0.072-0.090 0.003-0.075 0.091-0.177 1.225 0.633 2.486 0.175c0.836-0.304 1.043-1.447 0.814-2.184-0.248-0.793-1.078-1.211-1.802-1.604-0.521-0.283-0.755-0.989-0.208-1.404 0.485-0.369 1.194-0.125 1.665 0.136 0.011 0.006 0.024 0.010 0.039 0.010 0.041 0 0.075-0.032 0.078-0.072l0-0q0.034-0.413-0.109-0.7z"></path>
<path fill="#6f0516" d="M11.769 17.802l-0.133-0.058q-0.068-0.029-0.063-0.102l0.062-1.253q0.078-0.122 0.173-0.024c0.022 0.023 0.033 0.053 0.031 0.085l-0 0.001-0.069 1.351z"></path>
<path fill="#2f0000" d="M31.73 16.712c0.923 0.314 1.24 1.399 1.252 2.271 0 0.001 0 0.001 0 0.002 0 0.065-0.041 0.12-0.098 0.141l-0.001 0-2.733 0.984c-0.048 0.018-0.081 0.063-0.081 0.116 0 0 0 0 0 0v0q0.004 1.153 0.932 1.833-1.010-0.336-1.125-1.79-0.019-0.245 0.212-0.324 1.311-0.456 2.643-0.923 0.050-0.018 0.053-0.071 0.086-1.308-1.054-2.239z"></path>
<path fill="#bfa911" d="M28.187 18.824q-0.115 0.978 0.013 1.994-0.195 1.068-0.156 1.82 0.028 0.531 0.447 0.966 0.071 0.074-0.031 0.069c-1.255-0.049-2.974 0.173-3.853-0.335q1.758 0.26 3.502 0.099 0.108-0.010 0.038-0.093-0.316-0.383-0.314-0.633 0.006-2.787-0.003-5.567-0.029-0.119 0.15-0.14c0.003-0 0.007-0.001 0.010-0.001 0.049 0 0.088 0.038 0.091 0.086v0l0.105 1.734z"></path>
<path fill="#bfa911" d="M9.622 17.028l0.414 0.155-0.001 1.479q-0.874-0.15-1.669 0.192-0.071 0.031-0.069 0.108l0.072 4.305q-0.283-0.108-0.286-0.307-0.035-2.044-0.090-4.179c-0.001-0.063 0.036-0.119 0.094-0.141l0.001-0q0.712-0.274 1.466-0.236 0.077 0.004 0.077-0.074l-0.007-1.301z"></path>
<path fill="#c1194c" d="M27.278 17.066c0.053 0.174 0.105 0.317 0.111 0.5q0.056 2.272 0.043 4.543c-0.001 0.257 0.065 0.525 0.024 0.783q-0.032 0.199-0.233 0.189l-1.205-0.063q0.019-2.752 0.012-5.41c0-0.156-0.052-0.288-0.077-0.451q-0.013-0.081 0.068-0.081l1.258-0.009z"></path>
<path fill="#2f0000" d="M24.099 22.438q0.649 0.7 1.65 0.593c0.030-0.003 0.053-0.028 0.053-0.059 0-0.015-0.005-0.028-0.015-0.039l0 0c-0.665-0.758-1.172-1.746-1.451-2.367q-0.302-0.678-0.914-0.889-0.068-0.024-0.047-0.093 0.010-0.037 0.050-0.066 0.655 0.199 0.914 0.72 0.854 1.718 1.678 2.78l1.205 0.063q0.201 0.010 0.233-0.189c0.041-0.258-0.025-0.526-0.024-0.783q0.013-2.271-0.043-4.543c-0.006-0.183-0.058-0.326-0.111-0.5q0.103-0.041 0.203-0.034 0.077 0.006 0.078 0.083 0.028 2.709 0.015 5.415c-0.001 0.233 0.050 0.404 0.14 0.615 0.002 0.004 0.003 0.008 0.004 0.013 0.007 0.034-0.015 0.068-0.048 0.074-0.005 0.001-0.009 0.001-0.014 0.001h0q-1.078-0.021-2.144-0.055c-0.634-0.021-1.212-0.062-1.414-0.74z"></path>
<path fill="#bfa911" d="M33.259 17.637q0.021 0.683 0.339 1.308-0.15 0.175-0.071 0.326c0.013 0.024 0.021 0.053 0.021 0.083 0 0.076-0.049 0.142-0.117 0.166l-0.001 0-2.613 0.916q-0.376 0.131-0.202 0.49l0.417 0.854q-0.737-0.581-0.711-1.41 0.003-0.068 0.066-0.090l2.715-0.988q0.081-0.029 0.087-0.116 0.083-1.127-0.559-2.129c0.292 0.027 0.261 0.504 0.628 0.591z"></path>
<path fill="#6f0516" d="M6.129 23.742l1.504-0.506c0.046-0.016 0.079-0.059 0.079-0.11 0-0.003-0-0.007-0-0.010l0 0q-0.075-0.969-0.083-1.817c-0.006-0.762-0.177-1.745-0.065-2.65 0.065-0.526 1.259-0.612 1.576-0.689q0.075-0.019 0.072-0.097l-0.037-0.667q0.077-0.072 0.139-0.086 0.080-0.016 0.083 0.066l0.027 0.817c0.002 0.048-0.031 0.090-0.078 0.102l-0 0-1.482 0.332q-0.093 0.022-0.093 0.119 0.031 2.098 0.052 4.189c0.001 0.19 0.056 0.273 0.121 0.454 0.016 0.044-0.006 0.094-0.051 0.111-0 0-0 0-0 0v0l-1.854 0.686c-0.004 0.001-0.008 0.002-0.013 0.003-0.026 0.002-0.048-0.017-0.050-0.043-0-0.005 0-0.009 0.001-0.014l-0 0q0.021-0.090 0.153-0.193z"></path>
<path fill="#bfa911" d="M19.849 17.681q-0.824-0.473-1.423-0.198-0.072 0.034-0.066 0.114l0.034 0.419q-0.376-0.27-0.323-0.605c0.008-0.049 0.035-0.091 0.076-0.116l0.001-0.001c0.557-0.348 1.271-0.040 1.702 0.386z"></path>
<path fill="#2f0000" d="M24.92 17.138q0.242 0.088 0.379 0.257 0.053 0.063 0.013 0.137l-0.54 1.004c-0.001 0.002-0.003 0.005-0.005 0.007-0.023 0.032-0.066 0.040-0.097 0.018-0.003-0.002-0.005-0.004-0.007-0.006l0 0c-0.758-0.711-1.576 0.128-1.893 0.833q0.047 0.055-0.024 0.074-0.069 0.019-0.103-0.009c-0.031-0.025-0.050-0.063-0.050-0.105 0-0.024 0.006-0.046 0.017-0.065l-0 0.001c0.369-0.669 1.134-1.504 1.976-0.973 0.001 0 0.001 0.001 0.002 0.001 0.049 0.030 0.113 0.013 0.143-0.036 0-0.001 0.001-0.002 0.001-0.002l-0 0 0.383-0.674q0.046-0.080-0.003-0.158l-0.192-0.304z"></path>
<path fill="#2f0000" d="M31.307 17.702c-0.979-1.407-1.358 1.159-1.324 1.656l-0.060 0.024q-0.083 0.029-0.090-0.056c-0.053-0.574 0.316-2.945 1.42-1.914q0.131 0.122 0.055 0.291z"></path>
<path fill="#fff" d="M31.307 17.702q0.224 0.521 0.257 1.153 0.004 0.074-0.066 0.094-0.683 0.205-1.339 0.481-0.168 0.071-0.175-0.072c-0.034-0.497 0.345-3.063 1.324-1.656zM30.602 18.874q0.375-0.034 0.578-0.203c0.027-0.023 0.044-0.057 0.044-0.095 0-0.009-0.001-0.017-0.003-0.026l0 0.001-0.161-0.768q-0.091-0.224-0.251-0.23c-0.434-0.016-0.587 1.096-0.566 1.392 0 0.001 0 0.002 0 0.003 0.004 0.040 0.042 0.070 0.083 0.065 0.001-0 0.002-0 0.003-0l-0 0q0.165-0.024 0.273-0.139z"></path>
<path fill="#bfa911" d="M25.728 17.354l-0.006 0.818q-0.027 0.035-0.032 0.087-0.009 0.063-0.071 0.063h-0.046q-0.035 0-0.052 0.031l-0.344 0.644q-0.044 0.083-0.122 0.031l-0.229-0.15 0.782-1.483q0.006-0.031 0.119-0.041z"></path>
<path fill="#bfa911" d="M31.061 17.783q-0.578 0.42-0.459 1.091-0.108 0.115-0.273 0.139c-0.001 0-0.002 0-0.002 0-0.041 0.005-0.078-0.025-0.083-0.065-0-0.001-0-0.002-0-0.003v0c-0.021-0.296 0.133-1.408 0.566-1.392q0.159 0.006 0.251 0.23z"></path>
<path fill="#fae02f" d="M31.061 17.783l0.161 0.768c0.002 0.008 0.003 0.016 0.003 0.025 0 0.038-0.017 0.072-0.044 0.094l-0 0q-0.203 0.17-0.578 0.203-0.119-0.671 0.459-1.091z"></path>
<path fill="#fae02f" d="M25.722 18.172l-0.024 3.69q-0.38-0.521-0.863-1.463-0.193-0.376-0.608-0.711l-0.63-0.382c-0.047-0.251 0.173-0.274 0.313-0.372q0.22-0.152 0.481-0.323 0.22 0.245 0.435 0.267l0.229 0.15q0.078 0.052 0.122-0.031l0.344-0.644q0.016-0.031 0.052-0.031h0.046q0.062 0 0.071-0.063 0.006-0.052 0.032-0.087z"></path>
<path fill="#bfa911" d="M37.152 18.174q0.718 0.566 0.782 1.584c0.018 0.295-0.128 0.622-0.081 0.975 0.007 0.050-0.002 0.1-0.024 0.145l-0.001 0.001c-0.718 1.45-2.55 2.020-4.035 1.529-0.047-0.015-0.098-0.005-0.135 0.027l-0.001 0.001q-0.625 0.562-0.845 0.64c-0.942 0.333-2.296 0.515-3.179-0.069q2.191 0.672 3.769-0.838 0.055-0.052 0.125-0.027 0.854 0.302 1.603 0.195c1.969-0.282 3.271-2.405 2.022-4.163z"></path>
<path fill="#bfa911" d="M24.392 18.612q-0.261 0.171-0.481 0.323c-0.14 0.097-0.36 0.121-0.313 0.372l-0.366-0.077q-0.084-0.018-0.044-0.093 0.414-0.765 1.203-0.525z"></path>
<path fill="#6f0516" d="M33.717 18.532q0.453 0.544 1.119 0.674c0.208 0.040 0.894 0.174 1.119 0.357q0.177 0.146 0.094 0.208-0.827-0.316-1.725-0.56-0.465-0.127-0.608-0.678z"></path>
<path fill="#2f0000" d="M18.917 20.471c-0.605-0.435-1.82-0.92-2.202-1.743q0.181 0.088 0.33 0.282c0.47 0.605 1.245 0.739 1.771 1.211q0.28 0.251 0.1 0.251z"></path>
<path fill="#fae02f" d="M33.599 18.945l0.641 0.537q0.727 0.432 1.627 0.554c0.239 0.422-0.115 0.74-0.495 0.882-1.037 0.388-1.612-0.037-2.352-0.727-0.009-0.008-0.020-0.013-0.033-0.013-0.024 0-0.043 0.017-0.048 0.039l-0 0q-0.296 1.716-1.905 1.562l-0.417-0.854q-0.174-0.358 0.202-0.49l2.613-0.916c0.069-0.024 0.118-0.089 0.118-0.166 0-0.030-0.008-0.059-0.022-0.084l0 0.001q-0.080-0.15 0.071-0.326z"></path>
<path fill="#bfa911" d="M20.098 19.203c0.245 0.177 0.553 0.842 0.748 0.813l-0.006 1.333-0.165 0.080q-0.068 0.034-0.077 0.109c-0.187 1.818-2.749 1.28-3.849 1.121q-0.077-0.012-0.1-0.086l-0.024-0.077 0.14-0.032c0.039-0.009 0.078-0.007 0.114 0.006l0.001 0c1.262 0.426 2.945 0.316 3.491-1.094q0.429-1.106-0.273-2.172z"></path>
<path fill="#bfa911" d="M34.24 19.482q0.715 0.171 1.399 0.366 0.149 0.043 0.227 0.189-0.9-0.122-1.627-0.554z"></path>
<path fill="#6f0516" d="M23.136 20.244q-0.124-0.321-0.344-0.404-0.086-0.031-0.090 0.060c-0.038 0.796-0.19 2.25 0.118 2.966 0.003 0.006 0.005 0.014 0.005 0.021 0 0.029-0.024 0.053-0.053 0.053-0.003 0-0.006-0-0.009-0.001l0 0-1.647-0.265c-0.003-0-0.007-0.001-0.011-0.003-0.037-0.012-0.057-0.053-0.044-0.091 0.001-0.003 0.003-0.007 0.004-0.010l-0 0q0.027-0.053 0.093-0.087l1.329 0.24c0.004 0.001 0.009 0.001 0.015 0.001 0.043 0 0.078-0.035 0.078-0.078 0-0.017-0.006-0.033-0.015-0.046l0 0q-0.029-0.041-0.080-0.13-0.027-0.047-0.027-0.103-0.006-1.261-0.016-2.461c0-0.001 0-0.001 0-0.002 0-0.143 0.116-0.258 0.258-0.258 0.028 0 0.056 0.005 0.081 0.013l-0.002-0.001q0.429 0.139 0.357 0.584z"></path>
<path fill="#bfa911" d="M24.229 19.688q0.414 0.335 0.608 0.711 0.482 0.942 0.863 1.463l0.063 0.341c0 0.001 0 0.002 0 0.003 0.001 0.013-0.009 0.024-0.023 0.025-0.001 0-0.002 0-0.002 0h0q-0.021 0-0.043 0-0.028 0-0.041-0.024l-1.425-2.519z"></path>
<path fill="#bfa911" d="M23.322 21.434q-0.336 0.972 0.13 1.932c0.005 0.009 0.008 0.021 0.008 0.032 0 0.041-0.033 0.074-0.074 0.074-0.005 0-0.010-0.001-0.015-0.002l0 0q-1.113-0.224-2.274-0.363-0.121-0.015-0.116-0.192l2.107 0.316c0.006 0.001 0.012 0.001 0.018-0 0.034-0.005 0.057-0.036 0.052-0.069-0.001-0.007-0.003-0.013-0.006-0.018l0 0c-0.349-0.723-0.233-1.711-0.267-2.483q-0.019-0.398 0.147-0.035 0.171 0.37 0.289 0.808z"></path>
<path fill="#6f0516" d="M34.078 21.225q-0.352 0.093-0.814-0.246-0.041-0.029-0.088-0.015l-0.060 0.018-0.004-0.257q-0.001-0.106 0.088-0.049l0.879 0.549z"></path>
<path fill="#6f0516" d="M17.908 21.635q-0.41 0.193-1.031-0.208-0.096-0.062-0.202 0.029-0.055-0.17-0.043-0.288 0.012-0.106 0.097-0.043 0.538 0.398 1.178 0.509z"></path>
<path fill="#bfa911" d="M8.422 23.385q0.161 0.029 0.347 0.181 0.071 0.058-0.015 0.086c-0.332 0.111-0.692 0.143-0.994 0.26q-0.877 0.339-1.755 0.68c-0.008 0.003-0.016 0.005-0.026 0.005-0.036 0-0.066-0.027-0.072-0.062l-0-0q-0.013-0.094 0.037-0.246l2.477-0.902z"></path>
<path fill="#e1e0e2" d="M25.215 25.488l0.81 0.041q-0.423 0.115-0.81-0.041z"></path>
</svg>
