<!-- Generated by IcoMoon.io -->
<svg version="1.1" xmlns="http://www.w3.org/2000/svg" width="75" height="32" viewBox="0 0 75 32">
<title>optimeal</title>
<path fill="#10594e" d="M19.13 17.924c0.872 0.224 1.784 0.192 2.692 0.172 0.033-0.004 0.066 0.006 0.092 0.026s0.043 0.051 0.046 0.084-0.006 0.066-0.026 0.092c-0.021 0.026-0.051 0.043-0.084 0.046-4.656 0.976-9.476-1.004-11.416-5.356-3.46-7.768 4.744-15.168 12.324-12.168 2.056 0.813 3.685 2.149 4.888 4.008 0.010 0.018 0.014 0.040 0.010 0.061s-0.015 0.040-0.031 0.053c-0.016 0.013-0.036 0.020-0.057 0.019s-0.040-0.010-0.054-0.025c-2.717-2.931-5.796-3.82-9.236-2.668-8.172 2.736-7.3 13.572 0.852 15.656z"></path>
<path fill="#10594e" d="M39.39 1.576c3.792 1.892 3.564 6.652-0.204 8.312-1.328 0.587-2.76 0.784-4.296 0.592-0.032-0.004-0.063-0.017-0.089-0.036s-0.046-0.046-0.059-0.075c-0.013-0.030-0.018-0.062-0.014-0.095s0.015-0.063 0.034-0.089c0.168-0.236 0.408-0.396 0.716-0.428 4.844-0.48 4.72-7.832-1.004-7.316-0.147 0.013-0.22 0.095-0.22 0.244l0.008 15.668c0 0.165-0.083 0.248-0.248 0.248h-2.8c-0.165 0-0.248-0.083-0.248-0.248v-17.256c0-0.049 0.010-0.097 0.029-0.142s0.047-0.085 0.082-0.119c0.035-0.034 0.077-0.060 0.122-0.077s0.094-0.025 0.143-0.023c2.592 0.124 5.616-0.376 8.048 0.84z"></path>
<path fill="#10594e" d="M48.658 2.4h-5.62c-0.032 0-0.064-0.007-0.093-0.021s-0.054-0.034-0.074-0.059c-0.020-0.025-0.034-0.054-0.041-0.086s-0.007-0.064 0-0.095l0.272-1.176c0.011-0.046 0.037-0.088 0.074-0.117s0.083-0.046 0.13-0.047h14.848c0.056 0 0.11 0.022 0.15 0.062s0.062 0.094 0.062 0.15v1.176c0 0.056-0.022 0.11-0.062 0.15s-0.094 0.062-0.15 0.062h-5.776c-0.056 0-0.11 0.022-0.15 0.062s-0.062 0.094-0.062 0.15v15.776c0 0.056-0.022 0.11-0.062 0.15s-0.094 0.062-0.15 0.062h-2.884c-0.056 0-0.11-0.022-0.15-0.062s-0.062-0.094-0.062-0.15l0.012-15.776c0-0.056-0.022-0.11-0.062-0.15s-0.094-0.062-0.15-0.062z"></path>
<path fill="#10594e" d="M64.573 0.803l-3.096-0.005c-0.060-0-0.108 0.048-0.108 0.108l-0.031 17.584c-0 0.060 0.048 0.108 0.108 0.108l3.096 0.005c0.060 0 0.108-0.048 0.108-0.108l0.031-17.584c0-0.060-0.048-0.108-0.108-0.108z"></path>
<path fill="#10594e" d="M16.558 15.308c4.132 2.388 8.96 0.168 9.832-4.144 0.664-3.284-0.776-6.276-3.692-7.86-0.026-0.017-0.046-0.042-0.055-0.072s-0.008-0.062 0.004-0.090c0.012-0.029 0.034-0.052 0.061-0.066s0.059-0.018 0.090-0.012c4.696 1.4 7.332 5.78 5.152 10.308-2.104 4.38-7.828 5.020-11.524 2.156-0.010-0.008-0.018-0.017-0.024-0.028s-0.009-0.023-0.010-0.036c-0.001-0.012 0.001-0.025 0.006-0.037s0.011-0.022 0.020-0.031c0.029-0.027 0.057-0.053 0.084-0.080 0.016-0.019 0.035-0.021 0.056-0.008z"></path>
<path fill="#10594e" d="M44.438 28.556l-1.292 2.952c-0.056 0.128-0.153 0.192-0.292 0.192h-0.676c-0.184 0-0.24-0.085-0.168-0.256 1.411-3.323 2.848-6.631 4.312-9.924 0.029-0.069 0.075-0.125 0.136-0.168 0.104-0.077 0.168-0.119 0.192-0.124 0.122-0.022 0.246-0.004 0.352 0.049s0.19 0.141 0.236 0.247l4.3 9.988c0.064 0.149 0.015 0.221-0.148 0.216l-1.724-0.040c-0.136-0.003-0.231-0.067-0.284-0.192l-1.264-2.928c-0.064-0.152-0.18-0.227-0.348-0.224l-3.060 0.032c-0.131 0-0.221 0.060-0.272 0.18zM45.006 27.136c-0.008 0.020-0.011 0.041-0.009 0.062s0.010 0.041 0.021 0.059c0.012 0.017 0.028 0.032 0.047 0.041s0.039 0.015 0.060 0.014l2.3-0.020c0.021-0 0.042-0.006 0.061-0.016s0.034-0.025 0.046-0.043c0.011-0.018 0.018-0.038 0.020-0.059s-0.002-0.042-0.011-0.062l-1.176-2.728c-0.010-0.023-0.027-0.043-0.048-0.056s-0.046-0.021-0.071-0.020c-0.025 0.001-0.050 0.008-0.070 0.023s-0.037 0.035-0.046 0.058l-1.124 2.748z"></path>
<path fill="#10594e" d="M59.838 30.832l-0.32 0.788c-0.010 0.024-0.026 0.044-0.048 0.059s-0.047 0.022-0.072 0.021h-6.004c-0.034 0-0.067-0.013-0.091-0.037s-0.038-0.057-0.038-0.091v-10.196c0-0.018 0.004-0.035 0.011-0.051s0.017-0.031 0.030-0.043c0.013-0.012 0.028-0.021 0.044-0.027s0.034-0.008 0.051-0.007l1.644 0.080c0.033 0.002 0.063 0.016 0.085 0.040s0.035 0.055 0.035 0.088v9.148c0 0.017 0.004 0.034 0.010 0.050s0.016 0.030 0.029 0.042c0.012 0.012 0.027 0.021 0.043 0.027s0.033 0.009 0.050 0.009l4.42-0.076c0.021-0 0.042 0.005 0.060 0.014s0.035 0.024 0.047 0.041 0.019 0.037 0.021 0.059c0.002 0.021-0.001 0.042-0.009 0.062z"></path>
<path fill="#10594e" d="M26.566 28.864c0.011 0.026 0.030 0.048 0.053 0.063s0.051 0.023 0.079 0.023c0.028 0 0.056-0.008 0.079-0.023s0.042-0.037 0.053-0.063l2.892-7.16c0.077-0.193 0.217-0.355 0.397-0.458s0.39-0.144 0.596-0.114c0.206 0.030 0.396 0.128 0.541 0.279s0.234 0.346 0.254 0.553l0.94 9.484c0.016 0.168-0.060 0.252-0.228 0.252h-1.456c-0.149 0-0.231-0.075-0.244-0.224l-0.62-7.364c-0.001-0.030-0.012-0.058-0.032-0.080s-0.046-0.037-0.076-0.042-0.059 0.001-0.085 0.016c-0.026 0.015-0.045 0.038-0.056 0.066l-2.996 7.372c-0.041 0.099-0.11 0.184-0.199 0.244s-0.193 0.092-0.3 0.093c-0.107 0-0.211-0.031-0.299-0.090s-0.157-0.144-0.197-0.242l-2.98-7.204c-0.195-0.469-0.319-0.452-0.372 0.052l-0.772 7.032c-0.037 0.333-0.219 0.463-0.544 0.388-0.309-0.069-0.44-0.277-0.392-0.624 0.427-3.176 0.815-6.357 1.164-9.544 0.019-0.165 0.112-0.248 0.28-0.248h1.248c0.152 0 0.257 0.071 0.316 0.212l2.956 7.352z"></path>
<path fill="#10594e" d="M36.762 25.98l2.828-0.112c0.157-0.005 0.24 0.071 0.248 0.228l0.028 0.6c0.011 0.224-0.097 0.333-0.324 0.328l-2.736-0.076c-0.031-0.001-0.062 0.004-0.091 0.016s-0.056 0.029-0.078 0.051c-0.022 0.022-0.040 0.049-0.053 0.078s-0.018 0.061-0.018 0.092v3.288c0 0.179 0.089 0.267 0.268 0.264l4.224-0.088c0.025-0.001 0.050 0.005 0.072 0.016s0.042 0.027 0.057 0.047c0.015 0.020 0.025 0.043 0.029 0.068s0.002 0.050-0.005 0.073l-0.2 0.648c-0.017 0.058-0.053 0.109-0.102 0.145s-0.109 0.055-0.17 0.055h-5.772c-0.2 0-0.3-0.1-0.3-0.3v-9.896c0-0.133 0.067-0.2 0.2-0.2 1.584-0.008 3.161-0.012 4.732-0.012 0.568 0 0.872 0.168 0.92 0.736 0.011 0.141-0.055 0.211-0.196 0.208l-3.544-0.052c-0.141-0.003-0.212 0.067-0.212 0.208v3.404c0 0.025 0.005 0.050 0.015 0.072s0.024 0.044 0.043 0.061c0.018 0.017 0.040 0.031 0.064 0.039s0.049 0.013 0.075 0.012z"></path>
</svg>
