<!-- Generated by IcoMoon.io -->
<svg version="1.1" xmlns="http://www.w3.org/2000/svg" width="61" height="32" viewBox="0 0 61 32">
<title>plaisir</title>
<path fill="#a0a0cc" d="M58.027 4.256c-0.18 0.47-0.984 0.314-1.344 0.196-1.527-0.505-2.994-1.068-4.607-1.323-3.127-0.493-6.146-0.69-9.217-0.636-0.91 0.016-1.96 0.13-2.946 0.179-1.329 0.065-2.537 0.285-3.816 0.473-0.592 0.087-1.229 0.215-1.91 0.386-1.222 0.307-2.469 0.518-3.67 0.897-0.036 0.011-0.070 0.010-0.103-0.005-0.023-0.010-0.049-0.011-0.079-0.002-1.599 0.448-3.301 0.85-5.113 1.34-0.688 0.185-1.347 0.334-1.978 0.447-1.724 0.307-3.013 0.508-3.868 0.604-1.547 0.174-3.361 0.199-5.444 0.077-1.871-0.109-3.586-0.226-5.547-0.634-0.861-0.179-1.656-0.316-2.481-0.647-0.217-0.086-0.451-0.094-0.681-0.147-0.618-0.144-1.261 0.586-1.492 1.050-0.922 1.856-1.692 3.788-2.058 5.831-0.376 2.107-0.56 4.131-0.555 6.071 0.004 1.387-0.036 2.527-0.122 3.419-0.005 0.044-0.022 0.082-0.052 0.113-0.036 0.039-0.047 0.088-0.030 0.146 0.001 0.003 0 0.007-0.001 0.010s-0.004 0.006-0.007 0.008c-0.003 0.002-0.007 0.003-0.010 0.002s-0.007-0.002-0.009-0.004l-0.028-0.029c-0.023-0.023-0.046-0.024-0.071-0.002l-0.075 0.066c-0.818-4.935-0.694-10.44 0.999-15.193 0.492-1.38 1.209-2.588 2.154-3.623 0.078-0.084 0.179-0.151 0.304-0.201 0.038-0.015 0.075-0.013 0.109 0.009 0.655 0.397 1.449 0.701 2.384 0.911 1.635 0.368 3.007 0.603 4.115 0.703 2.886 0.263 5.924 0.386 8.802-0.001 1.972-0.265 3.747-0.603 5.324-1.012 5.946-1.543 10.679-3.010 16.198-3.166 3.288-0.093 6.165 0.011 8.633 0.313 1.894 0.232 3.739 0.671 5.534 1.317 1.257 0.453 2.064 0.936 2.758 2.062z"></path>
<path fill="#8889c2" d="M58.027 4.256l0.813 1.526c-0.3 0.134-0.453 0.358-0.458 0.673-0.005 0.447-0.044 0.883 0.058 1.324 0.111 0.474 0.219 0.949 0.325 1.425 0.271 1.23 0.333 2.53 0.481 3.788 0.118 1.010 0.107 1.943 0.096 2.935-0.004 0.358-0.085 0.731-0.105 1.108-0.081 1.596-0.278 3.178-0.59 4.746-0.005 0.026-0.016 0.048-0.034 0.067-0.019 0.022-0.032 0.047-0.039 0.074-0.358 1.554-0.902 3.039-1.632 4.456-0.107 0.209-0.259 0.367-0.409 0.55-0.024 0.030-0.056 0.051-0.094 0.063-0.268 0.083-0.453 0.1-0.557 0.052-0.831-0.385-1.686-0.698-2.567-0.937-0.038-0.010-0.071-0.028-0.099-0.056-0.195-0.191-0.414-0.135-0.612-0.172-0.517-0.096-1.012-0.242-1.534-0.288-0.759-0.068-1.57-0.182-2.433-0.341-0.779-0.145-1.594-0.118-2.391-0.271-0.488-0.094-0.827-0.127-1.016-0.099-0.437 0.067-0.974 0.059-1.611-0.022-0.428-0.055-1.001-0.050-1.717 0.015-0.036 0.003-0.068 0.018-0.094 0.044-0.23 0.24-0.785-0.007-1.017 0.011-1.020 0.079-2.039 0.164-3.058 0.253-0.398 0.035-0.893 0.102-1.483 0.201-1.049 0.178-2.193 0.218-3.188 0.5-0.456 0.129-0.96 0.129-1.383 0.191-0.023 0.003-0.044 0.012-0.063 0.025s-0.034 0.030-0.045 0.050c-0.109 0.199-0.279 0.271-0.51 0.218-0.037-0.008-0.073-0.007-0.108 0.002-0.971 0.276-1.93 0.573-2.925 0.751-0.242 0.044-0.451 0.122-0.678 0.201-0.331 0.114-0.72 0.122-1.077 0.296-0.047 0.023-0.141 0.036-0.282 0.040-0.041 0.001-0.078 0.013-0.112 0.035-0.28 0.185-0.555 0.107-0.825 0.198-0.288 0.097-0.578 0.218-0.892 0.27-0.346 0.057-0.668 0.206-0.969 0.251-0.359 0.054-0.718 0.11-1.077 0.169-0.333 0.055-0.703 0.235-1.090 0.273-0.677 0.066-1.349 0.164-2.016 0.296-0.318 0.063-1.195 0.187-1.274-0.318-0.003-0.022-0.012-0.042-0.025-0.060s-0.030-0.031-0.050-0.040c-0.137-0.062-0.227-0.168-0.269-0.315-0.006-0.019-0.017-0.035-0.033-0.046s-0.035-0.016-0.054-0.014l-0.262 0.024-0.515-0.103c-0.047-0.13-0.139-0.218-0.276-0.265-0.038-0.014-0.062-0.040-0.072-0.079-0.054-0.21-0.127-0.412-0.217-0.606-0.102-0.219-0.095-0.468-0.245-0.691-0.022-0.033-0.035-0.070-0.040-0.111-0.074-0.672-0.207-1.342-0.187-1.989 0.022-0.725 0.099-1.445 0.23-2.161 0.039-0.212 0.156-0.318 0.307-0.453 0.029-0.027 0.063-0.045 0.101-0.055l1.627-0.444c0.036-0.010 0.072-0.011 0.108-0.005 0.127 0.022 0.237-0.007 0.332-0.088 0.016-0.014 0.035-0.024 0.055-0.030s0.041-0.008 0.062-0.006c0.456 0.045 0.704-0.197 1.020-0.316 0.49-0.184 0.979-0.371 1.466-0.562 0.47-0.184 0.827-0.562 1.306-0.779 0.535-0.242 0.909-0.655 1.381-0.99 0.028-0.020 0.059-0.036 0.092-0.046l0.169-0.056c0.053-0.017 0.084-0.053 0.095-0.108 0.023-0.118 0.081-0.215 0.172-0.292 0.032-0.027 0.069-0.039 0.111-0.035 0.135 0.011 0.285-0.065 0.449-0.226-0.423 2.258-0.904 4.396-0.837 6.694 0.030 1.011 0.234 1.703 1.286 1.901-0.156-0.031-0.286-0.025-0.391 0.018-0.041 0.017-0.045 0.040-0.011 0.068 0.189 0.163 0.394 0.264 0.614 0.304 0.64 0.276 1.33-0.423 1.751-0.815 0.029-0.028 0.038-0.022 0.027 0.017-0.038 0.13-0.118 0.22-0.24 0.271l-0.499 0.425c-0.021 0.019-0.038 0.051-0.051 0.096-0.382 0.272-0.799 0.371-1.251 0.297-0.009-0.001-0.018 0.001-0.025 0.006s-0.013 0.013-0.015 0.022c-0.002 0.009-0.001 0.018 0.003 0.026s0.011 0.014 0.020 0.017c0.313 0.108 0.574 0.202 0.899 0.064 0.698-0.295 1.271-0.723 1.72-1.282 0.035-0.044 0.083-0.076 0.137-0.091s0.112-0.014 0.165 0.005l0.813 0.291c0.037 0.014 0.073 0.010 0.106-0.011 0.167-0.105 0.372-0.044 0.513-0.066 0.434-0.068 0.975-0.045 1.346-0.292 0.394-0.262 0.774-0.543 1.139-0.842 0.031-0.026 0.067-0.037 0.107-0.033 0.105 0.011 0.19 0.062 0.257 0.152 0.024 0.033 0.056 0.056 0.095 0.069 0.277 0.093 0.561 0.15 0.853 0.17 0.465 0.032 0.707-0.365 1.129-0.468 0.038-0.009 0.070-0.028 0.095-0.058 0.134-0.158 0.308-0.289 0.522-0.392 0.131-0.062 0.229-0.039 0.292 0.069 0.018 0.032 0.045 0.058 0.077 0.074 0.423 0.222 0.872 0.323 1.345 0.302 0.557-0.024 0.859-0.287 1.297-0.619 0.221-0.167 0.468-0.209 0.74-0.125 0.352 0.107 0.477 0.382 0.877 0.434 0.423 0.055 0.849 0.096 1.276 0.124 0.049 0.003 0.094-0.008 0.135-0.034 0.103-0.064 0.208-0.073 0.316-0.026 0.021 0.009 0.043 0.013 0.065 0.011s0.044-0.009 0.062-0.021c0.207-0.133 0.425-0.239 0.656-0.319 0.036-0.012 0.067-0.033 0.090-0.063 0.074-0.093 0.161-0.169 0.26-0.226 0.301-0.176 0.478-0.302 0.695-0.493 0.201-0.177 0.336-0.136 0.404 0.123 0.045 0.17 0.49 0.324 0.605 0.498 0.022 0.034 0.052 0.060 0.090 0.077 0.419 0.187 0.852 0.236 1.298 0.146 0.286-0.058 1.264-0.593 1.472-0.803 0.419-0.425 0.992-0.83 1.253-1.377 0.018-0.036 0.043-0.065 0.075-0.088 0.285-0.193 0.356-0.53 0.501-0.725 0.285-0.38 0.627-0.697 1.026-0.95-0.281 0.685-0.483 1.235-0.606 1.651-0.066 0.221-0.103 0.468-0.112 0.741-0.165 0.155-0.172 0.362-0.023 0.622 0.009 0.016 0.012 0.035 0.009 0.054l-0.038 0.184c-0.007 0.037-0.001 0.072 0.019 0.103l0.433 0.677c0.011 0.017 0.028 0.030 0.047 0.035 0.101 0.028 0.195 0.070 0.28 0.124 0.588 0.377 1.125 0.281 1.787 0.134 0.457-0.103 0.862-0.317 1.215-0.642 0.097-0.089 0.114-0.22 0.276-0.248 0.037-0.006 0.071-0.023 0.1-0.049 0.244-0.217 0.462-0.458 0.653-0.724 0.234-0.325 0.551-0.509 0.729-0.925 0.025-0.058 0.068-0.119 0.129-0.181 0.028-0.029 0.045-0.067 0.047-0.107 0.018-0.279 0.204-0.398 0.257-0.612 0.116-0.477-0.024-1.102-0.669-0.992-0.314-0.532-0.881 0.263-1.142 0.599-0.363 0.463-0.755 0.899-1.175 1.308-0.288 0.28-0.607 0.425-0.913 0.086l0.168 0.083c0.009 0.004 0.018 0.006 0.028 0.006s0.019-0.003 0.027-0.009 0.015-0.012 0.020-0.021c0.005-0.008 0.007-0.018 0.007-0.028v-0.344c0-0.026 0.006-0.051 0.017-0.073l0.593-1.198c0.078-0.138 0.151-0.276 0.218-0.415 0.118-0.245 1.11-1.362 0.243-1.414-0.004-0.032 0.007-0.071 0.034-0.114 0.47-0.108 0.489 0.461 0.429 0.767-0.036 0.19-0.192 0.338-0.287 0.537-0.237 0.496-0.674 1.214-0.7 1.755 0 0.001 0.001 0.002 0.001 0.003s0.001 0.001 0.002 0.002 0.002 0.001 0.003 0.001 0.002-0 0.003-0l0.027-0.015c0.025-0.013 0.038-0.034 0.039-0.062 0.005-0.224 0.079-0.442 0.223-0.655 0.551-0.816 1.433-2.050 0.158-2.814-0.333-0.2-0.687-0.319-1.065-0.359-0.067-0.007-0.13-0.037-0.177-0.085s-0.077-0.111-0.083-0.179c-0.027-0.282-0.082-0.833-0.342-1.035-0.159-0.123-0.408-0.147-0.596-0.259-0.031-0.017-0.058-0.013-0.082 0.013-0.026 0.028-0.056 0.041-0.089 0.039-1.202-0.646-1.516 0.994-1.136 1.768 0.014 0.030 0.021 0.063 0.019 0.096s-0.013 0.064-0.031 0.092c-0.705 1.076-1.453 2.122-2.244 3.138-0.248 0.32-0.506 0.539-0.774 0.655-0.107 0.047-0.18 0.019-0.219-0.083 0.075-0.005 0.127-0.022 0.157-0.052 0.027-0.027 0.025-0.051-0.006-0.072-0.059-0.041-0.078-0.104-0.055-0.187 0.062-0.221 0.113-0.447 0.153-0.675 0.039-0.22 0.142-0.332 0.238-0.527 0.019-0.038 0.046-0.070 0.080-0.095 0.157-0.119 0.242-0.28 0.255-0.482 0.003-0.043 0.019-0.081 0.046-0.113 0.143-0.166 0.235-0.357 0.277-0.573 0.001-0.006 0.004-0.012 0.009-0.016s0.012-0.006 0.018-0.005c0.006 0.001 0.012 0.004 0.016 0.009s0.006 0.012 0.005 0.018l-0.017 0.17c-0.003 0.032 0.009 0.039 0.035 0.021 0.046-0.032 0.292-0.624 0.386-0.756 0.023-0.031 0.033-0.070 0.028-0.11-0.033-0.268-0.019-0.531 0.043-0.79 0.009-0.039 0.031-0.068 0.067-0.086 0.667-0.349 0.72-0.947 0.454-1.616 0.049-0.068 0.070-0.144 0.065-0.226-0.004-0.050-0.030-0.081-0.077-0.095-0.556-0.171-1.12-0.201-1.694-0.089-0.047 0.010-0.079 0.036-0.097 0.079l-0.348 0.831c-0.017 0.039-0.016 0.078 0.002 0.116 0.097 0.198 0.276 0.322 0.535 0.371-0.205 0.011-0.307 0.054-0.307 0.131 0.001 0.049 0.025 0.081 0.072 0.096l0.479 0.156-1.235 0.047c-0.046 0.002-0.079 0.024-0.097 0.067l-1.403 3.191c-0.25-0.171-0.323-0.516-0.219-1.034 0.007-0.037 0.002-0.076-0.013-0.11-0.165-0.352-0.202-0.7-0.353-1.062-0.12-0.288 0.107-1.009-0.434-0.979-0.045-0.136-0.089-0.187-0.131-0.152 0.038-0.079 0.014-0.137-0.073-0.174-0.369-0.155-0.746-0.258-1.132-0.31-0.060-0.008-0.108 0.012-0.145 0.060-0.554 0.731-0.902 1.63-1.374 2.422-0.094 0.158-0.236 0.185-0.426 0.079-0.029-0.016-0.063-0.021-0.096-0.013-0.409 0.105-1.022 1.297-1.161 1.585l-0.007-0.489c-0-0.011-0.003-0.021-0.008-0.031s-0.013-0.017-0.022-0.023c-0.009-0.006-0.020-0.009-0.031-0.010s-0.022 0.002-0.031 0.006l-0.085 0.040c-0.009 0.004-0.018 0.006-0.028 0.005s-0.019-0.004-0.026-0.009c-0.008-0.005-0.014-0.013-0.018-0.022s-0.006-0.018-0.005-0.028c0.017-0.169 0.089-0.31 0.217-0.425 0.032-0.028 0.045-0.064 0.040-0.107-0.045-0.377 0.136-0.624 0.219-0.891 0.168-0.54 0.36-1.289 0.835-1.792 0.187-0.199 0.29-0.315 0.31-0.349 0.187-0.307 0.266-0.644 0.237-1.009-0.003-0.040-0.019-0.078-0.046-0.108l-0.175-0.203c-0.023-0.028-0.054-0.044-0.090-0.049-0.134-0.020-0.262-0.059-0.386-0.117-0.043-0.020-0.080-0.026-0.111-0.016-0.041 0.012-0.073 0.038-0.095 0.077-0.565-0.088-1.13-0.050-1.695 0.114-0.014 0.004-0.026 0.011-0.037 0.020s-0.018 0.022-0.023 0.036l-0.301 0.875c-0.017 0.050-0.017 0.105 0.001 0.155s0.052 0.092 0.097 0.12c1.203 0.736 1.623-0.303 2.037-1.175 0.383 0.311 0.402 0.763 0.057 1.355l-0.784 0.577c-0.187 0.090-0.254 0.231-0.2 0.422 0.109 0.376 0.105 0.703-0.010 0.981l-0.136 0.19c-0.003 0.005-0.008 0.008-0.013 0.009s-0.011 0.001-0.016-0.001c-0.005-0.002-0.009-0.006-0.012-0.011s-0.004-0.010-0.003-0.016c0.012-0.056 0.038-0.107 0.078-0.155 0.004-0.005 0.007-0.010 0.007-0.016l0.072-0.617c0.002-0.020-0.005-0.038-0.018-0.052l-0.040-0.039c-0.032-0.032-0.050-0.025-0.055 0.019-0.109 0.869-0.302 1.751-0.579 2.648-0.104 0.273-0.139 0.573-0.106 0.903 0.004 0.040-0.010 0.072-0.041 0.096l-0.136 0.105c-0.008 0.006-0.017 0.010-0.027 0.012s-0.020 0.001-0.029-0.002-0.018-0.009-0.025-0.016c-0.007-0.007-0.012-0.016-0.014-0.026-0.182-0.779 0.397-2.272 0.717-2.998 0.123-0.278 0.117-0.529-0.016-0.752l0.18-0.53c0.016-0.049-0.001-0.077-0.051-0.084-0.57-0.089-1.128-0.052-1.673 0.112-0.024 0.007-0.045 0.020-0.063 0.037s-0.032 0.038-0.040 0.062c-0.363 1.040-0.669 2.107-1.128 3.083-0.224 0.476-0.629 1.568-1.035 1.641-0.002-0.448 0.073-0.909 0.223-1.385 0.080-0.255 0.131-0.502 0.153-0.741 0.029-0.316 0.073-0.572 0.133-0.768 0.14-0.467 0.381-1.285-0.263-1.464-0.016-0.005-0.024-0.015-0.024-0.032 0-0.011 0-0.023 0-0.034 0-0.015-0.007-0.023-0.021-0.027-0.023-0.006-0.040-0.006-0.052 0l0.011-0.069c0.001-0.010 0.001-0.019-0.002-0.029s-0.007-0.018-0.013-0.026c-0.006-0.008-0.013-0.014-0.022-0.018s-0.018-0.007-0.027-0.008c-0.596-0.045-1.163 0.062-1.7 0.319-0.024 0.012-0.043 0.032-0.052 0.057l-0.142 0.359c-0.010 0.025-0.029 0.045-0.053 0.056s-0.052 0.013-0.077 0.005c-0.273-0.088-0.537-0.203-0.821-0.197-1.145 0.023-2.29 0.555-2.92 1.54-0.543 0.849-0.711 1.819-0.993 2.603-0.156 0.432-0.315 0.856-0.477 1.274l-0.196-0.105c-0.032-0.017-0.051-0.044-0.056-0.082-0.075-0.569-0.053-1.062 0.066-1.48 0.078-0.273 0.083-0.528 0.146-0.734 0.135-0.433 0.234-0.875 0.299-1.325 0.002-0.015 0.009-0.028 0.021-0.038 0.010-0.008 0.018-0.016 0.026-0.024 0.011-0.013 0.017-0.030 0.019-0.052 0.049-0.463 0.095-0.927 0.14-1.392 0.035-0.371 0.232-0.723 0.204-1.161-0.002-0.039 0.007-0.078 0.027-0.112 0.283-0.472 0.355-0.93 0.215-1.374-0.077-0.243-0.31-0.271-0.562-0.338-0.037-0.010-0.063 0.021-0.078 0.091-0.010 0.046 0.008 0.062 0.052 0.047 0.099-0.032 0.163 0.001 0.193 0.097 0.011 0.037 0.030 0.069 0.057 0.096 0.163 0.17 0.225 0.345 0.185 0.523-0.342 1.543-0.569 3.098-0.875 4.648-0.168 0.855-0.246 1.747-0.472 2.589-0.058 0.217 0.049 0.382 0.321 0.495-0.148 0.149-0.294 0.213-0.437 0.191 0.090-0.026 0.089-0.079-0.004-0.159-0.030-0.027-0.049-0.064-0.052-0.105-0.049-0.685 0.057-1.362 0.316-2.031 0.245-0.482 0.22-1.082 0.355-1.655 0.124-0.526 0.168-0.941 0.201-1.438 0.011-0.168 0.151-0.28 0.165-0.462 0.045-0.575 0.134-1.143 0.266-1.703 0.028-0.269 0.035-1.028-0.405-0.846 0.041-0.159 0.051-0.294 0.028-0.405-0.009-0.045-0.036-0.068-0.080-0.071-0.361-0.021-0.703 0.034-1.026 0.167-0.039-0.007-0.068-0.009-0.088-0.004 0.004-0.019 0.009-0.037 0.013-0.056 0.642-1.362 0.774-2.82 0.398-4.373-0.060-0.246-0.179-0.44-0.26-0.686-0.064-0.193-0.147-0.352-0.248-0.478-0.747-0.925-1.298-1.492-2.37-2.020-0.041-0.020-0.079-0.014-0.112 0.018-0.037 0.036-0.059 0.095-0.067 0.176-1.892-0.792-4.738-0.442-6.632 0.049-1.647 0.426-2.672 0.734-3.072 0.925-2.717 1.29-6.843 3.342-6.76 6.927 0.011 0.446 0.144 0.838 0.402 1.175-0.194 0.402-0.040 0.714 0.462 0.938 0.033 0.015 0.050 0.040 0.049 0.077 0 0.014-0.001 0.027-0.002 0.040s0.003 0.027 0.011 0.038 0.021 0.018 0.035 0.019c0.13 0.018 0.238 0.072 0.325 0.163 0.032 0.033 0.070 0.050 0.116 0.051 0.813 0.012 1.141-0.869 1.606-1.372 0.116-0.125 0.211-0.267 0.285-0.426 0.21-0.452 0.465-0.876 0.765-1.271 0.18-0.238 0.342-0.533 0.634-0.743 0.029-0.022 0.050-0.053 0.060-0.089 0.085-0.336 0.392-0.431 0.554-0.608 0.203-0.221 0.411-0.44 0.625-0.657 0.062-0.062 0.051-0.079-0.030-0.049-0.227 0.082-0.392 0.233-0.495 0.453-0.018 0.036-0.045 0.066-0.079 0.088-0.509 0.315-0.821 0.795-1.195 1.198-0.215 0.234-0.397 0.494-0.545 0.78-0.018 0.035-0.043 0.064-0.074 0.089-0.203 0.159-0.269 0.415-0.4 0.582-0.23 0.29-0.451 0.586-0.663 0.889-0.054 0.078-0.127 0.212-0.221 0.402-0.103 0.207-0.516 0.819-0.822 0.659-0.011-0.006-0.021-0.013-0.030-0.021-0.019-0.016-0.017-0.023 0.009-0.022 0.607 0.029 0.848-0.964 1.11-1.331 0.494-0.691 0.945-1.399 1.499-2.034 0.465-0.534 0.896-1.093 1.449-1.532 0.254-0.203 0.51-0.403 0.769-0.6 0.331-0.252 0.764-0.477 1.129-0.741 0.215-0.155 0.485-0.223 0.708-0.403 0.033-0.025 0.069-0.034 0.11-0.028l0.386 0.062c-0.765 2.211-1.358 4.454-1.78 6.727-0.006 0.033-0.019 0.065-0.039 0.093s-0.045 0.051-0.075 0.068c-0.030 0.017-0.063 0.027-0.096 0.030s-0.068-0.002-0.1-0.013c-0.55-0.2-1.073-0.456-1.57-0.77-0.031-0.020-0.069-0.028-0.106-0.023s-0.071 0.023-0.096 0.050c-0.346 0.38-0.614 0.809-0.805 1.286-0.015 0.037-0.009 0.071 0.018 0.101l0.136 0.147c-0.083 0.012-0.086 0.069-0.009 0.17-0.069 0.067-0.099 0.159-0.091 0.274 0.003 0.048 0.023 0.087 0.060 0.118l0.938 0.793c0.032 0.027 0.068 0.042 0.108 0.046 0.178 0.019 0.334 0.087 0.468 0.206 0.031 0.027 0.068 0.046 0.107 0.054 0.191 0.041 0.363 0.124 0.517 0.249 0.014 0.011 0.025 0.027 0.031 0.044s0.008 0.036 0.004 0.054c-0.303 1.577-0.259 2.915-0.299 4.398-0.021 0.719 0.235 1.93 0.686 2.502 0.025 0.032 0.057 0.053 0.096 0.064 0.057 0.017 0.084 0.058 0.082 0.122-0.002 0.024 0.006 0.048 0.022 0.067 0.187 0.234 0.869 0.769 0.585 1.056-0.031 0.030-0.068 0.045-0.111 0.044-1.061-0.027-2.122-0.078-3.182-0.152-0.61-0.044-1.22-0.187-1.807-0.243-0.767-0.071-1.521-0.208-2.263-0.411-0.666-0.181-2.24-0.771-2.57-0.123-1.734-1.578-2.694-4.739-3.072-7.057l0.075-0.066c0.024-0.021 0.048-0.020 0.071 0.002l0.028 0.029c0.003 0.002 0.006 0.004 0.009 0.004s0.007-0 0.010-0.002c0.003-0.002 0.006-0.004 0.007-0.008s0.002-0.007 0.001-0.010c-0.016-0.058-0.006-0.107 0.030-0.146 0.030-0.032 0.047-0.069 0.052-0.113 0.085-0.892 0.126-2.032 0.122-3.419-0.006-1.94 0.179-3.964 0.555-6.071 0.365-2.043 1.135-3.975 2.058-5.831 0.231-0.464 0.874-1.194 1.492-1.050 0.23 0.054 0.465 0.061 0.681 0.147 0.825 0.331 1.619 0.468 2.481 0.647 1.961 0.408 3.676 0.524 5.547 0.634 2.082 0.122 3.897 0.097 5.444-0.077 0.855-0.096 2.144-0.297 3.868-0.604 0.631-0.113 1.291-0.262 1.978-0.447 1.812-0.489 3.514-0.892 5.113-1.34 0.030-0.008 0.056-0.007 0.079 0.002 0.033 0.015 0.068 0.016 0.103 0.005 1.201-0.378 2.448-0.59 3.67-0.897 0.681-0.17 1.318-0.299 1.91-0.386 1.279-0.189 2.487-0.409 3.816-0.473 0.986-0.049 2.036-0.163 2.946-0.179 3.071-0.054 6.090 0.144 9.217 0.636 1.612 0.254 3.080 0.818 4.607 1.323 0.36 0.118 1.164 0.274 1.344-0.196zM40.479 12.451l-0.195-0.009c-0.152-0.661-1.048-0.321-1.304 0.061-0.123-0.071-0.235-0.111-0.337-0.119 0.031-0.158-0.074-0.21-0.315-0.157-0.030 0.007-0.058 0.021-0.080 0.041s-0.041 0.045-0.051 0.074l-0.189 0.509c-0.002 0.005-0.006 0.010-0.011 0.013s-0.011 0.004-0.017 0.004l-0.038-0.006c-0.009-0.001-0.018-0.005-0.024-0.013s-0.010-0.017-0.010-0.026l0.004-0.415c0-0.025-0.006-0.051-0.018-0.073s-0.029-0.041-0.051-0.055c-0.021-0.014-0.046-0.022-0.071-0.024s-0.051 0.002-0.074 0.013c-0.213 0.095-0.38 0.252-0.504 0.472-0.022 0.040-0.029 0.076-0.022 0.108 0.010 0.041 0.027 0.044 0.051 0.010l0.187-0.257c0.014-0.019 0.033-0.032 0.055-0.039s0.046-0.006 0.067 0.001c0.022 0.008 0.040 0.022 0.053 0.041s0.019 0.042 0.018 0.065l-0.097 1.671c0.106 0.232 0.273 0.258 0.5 0.079 0.033-0.026 0.053-0.060 0.060-0.101 0.091-0.561 0.157-0.934 0.198-1.119 0.062-0.275 0.242-0.371 0.543-0.288-0.133 0.657 0.15 1.504 1.009 1.164 0.031-0.012 0.063-0.019 0.097-0.019 0.1 0 0.166-0.043 0.198-0.129 0.003-0.008 0.004-0.017 0.002-0.025s-0.006-0.016-0.012-0.022-0.013-0.010-0.021-0.012c-0.008-0.002-0.017-0.002-0.025 0.001-0.188 0.060-0.374 0.069-0.556 0.026l-0.038-0.707c-0.001-0.025 0.007-0.050 0.024-0.069s0.040-0.031 0.065-0.032l0.657-0.054c0.035-0.002 0.069-0.010 0.101-0.023 0.119-0.048 0.259-0.011 0.419 0.111-0.088 0.63-0.125 1.599-0.575 1.678-0.010 0.002-0.016 0.008-0.019 0.017-0.005 0.011-0.009 0.023-0.012 0.034-0.009 0.033 0.004 0.051 0.038 0.052l0.271 0.016c0.243 0.217 0.482 0.259 0.715 0.124 0.045-0.026 0.049-0.057 0.012-0.092l-0.038-0.038c0.011-0.049-0.002-0.098-0.038-0.147 0.043-0.667 0.42-0.445 0.785-0.696 0.27-0.186 0.496-0.447 0.679-0.782-0.034 0.419 0.079 0.662 0.339 0.728-0.061 0.006-0.108 0.017-0.141 0.035-0.014 0.008-0.025 0.019-0.033 0.034s-0.010 0.031-0.007 0.046c0.002 0.016 0.010 0.031 0.021 0.042s0.025 0.019 0.041 0.023l0.349 0.074c0.016 0.003 0.033 0.003 0.049-0.002s0.030-0.014 0.042-0.026l0.206-0.206c0.034-0.033 0.067-0.032 0.097 0.004 0.354 0.403 0.631 0.039 0.931-0.172l0.223 0.157c-0.040 0.050-0.054 0.094-0.041 0.134 0.011 0.033 0.041 0.054 0.092 0.066 0.422 0.096 0.977 0.047 1.259-0.297 0.195-0.238 0.136-0.5-0.176-0.786-0.217-0.196-0.368-0.325-0.451-0.386-0.531-0.388 0.285-0.892 0.481-0.297 0.004 0.012 0.011 0.023 0.022 0.031s0.023 0.012 0.035 0.012c0.013 0 0.025-0.004 0.036-0.011s0.019-0.018 0.023-0.030l0.090-0.24c0.004-0.010 0.005-0.021 0.005-0.032s-0.003-0.022-0.008-0.032c-0.005-0.010-0.011-0.019-0.020-0.026s-0.018-0.013-0.028-0.016c-0.374-0.124-1.237-0.151-1.18 0.492 0.025 0.278 0.189 0.462 0.492 0.551 0.047 0.014 0.089 0.039 0.124 0.072s0.061 0.076 0.076 0.122c0.015 0.046 0.019 0.095 0.011 0.144s-0.027 0.094-0.056 0.133c-0.145 0.194-0.331 0.27-0.556 0.228-0.039-0.007-0.076-0.024-0.106-0.050-0.087-0.072-0.142-0.164-0.165-0.275-0.012-0.058-0.045-0.075-0.1-0.050-0.036 0.017-0.054 0.046-0.054 0.088-0.019 0.002-0.038-0-0.056-0.009 0.015-0.050-0.043-0.067-0.175-0.050 0.101-0.38 0.163-0.755 0.189-1.127 0.004-0.059-0.050-0.079-0.161-0.060l0.052-0.248c0.014-0.067-0.013-0.092-0.079-0.073l-0.344 0.101c-0.032 0.010-0.062 0.004-0.088-0.017-0.311-0.247-0.757 0.155-0.942 0.423-0.077 0.027-0.148 0.034-0.214 0.021-0.020-0.004-0.038-0.013-0.052-0.027s-0.024-0.033-0.027-0.053c-0.044-0.237-0.122-0.29-0.234-0.161-0.251-0.639-0.843-0.249-1.051 0.198-0.040 0.084-0.065 0.080-0.075-0.012-0.011-0.104-0.004-0.207 0.021-0.309 0.006-0.026 0.006-0.052-0.002-0.078s-0.022-0.048-0.041-0.066c-0.019-0.018-0.043-0.031-0.069-0.037s-0.053-0.005-0.078 0.002c-0.282 0.085-0.469 0.24-0.561 0.465zM30.9 15.183c-0.095 0.248 0.103 0.366 0.325 0.367 0.26 0.002 0.52-0.019 0.777-0.062 0.349-0.057 0.678 0.062 1.034-0.19 0.036-0.025 0.075-0.031 0.117-0.017 0.371 0.119 0.735 0.104 1.094-0.046 0.042-0.018 0.088-0.025 0.133-0.018 0.544 0.070 1.050-0.054 1.518-0.37 0.351-0.237 0.431-0.53 0.24-0.878-0.019-0.035-0.047-0.062-0.082-0.080-0.093-0.051-0.131-0.129-0.113-0.232 0.038-0.221 0.509-0.528 0.032-0.732-0.039-0.017-0.060-0.047-0.065-0.089-0.011-0.122-0.066-0.188-0.164-0.2-0.517-0.142-0.891-0.013-1.122 0.386-0.383 0.662 0.807 0.551 0.754 1.248l-0.864-0.607c-0.047-0.033-0.079-0.023-0.097 0.032l-0.033 0.095c-0.012 0.034-0.036 0.048-0.072 0.041-0.779-0.15-1.007 0.122-0.684 0.816-0.364-0.122-0.506-0.418-0.426-0.889 0.007-0.042 0.032-0.068 0.073-0.077 0.348-0.069 0.933-0.028 1.001-0.494 0.005-0.037-0.001-0.071-0.018-0.102-0.299-0.537-1.022-0.212-1.246 0.19-0.067 0.12-0.109 0.284-0.128 0.49-0.073 0.782 0.17 1.346 1.124 1.029 0.030 0.206-0.085 0.316-0.344 0.331-0.341 0.019-0.611-0.29-0.934 0.091-0.027 0.031-0.060 0.047-0.101 0.050-0.337 0.018-0.584-0.007-0.956 0.058-0.124 0.022-0.269 0.024-0.434 0.006-0.143-0.015-0.214-0.072-0.213-0.172 0.476-0.080 1.143-0.051 1.565-0.238 0.036-0.016 0.057-0.044 0.061-0.084l0.051-0.468c0.003-0.014 0.001-0.028-0.007-0.040s-0.019-0.020-0.033-0.023-0.028-0.001-0.040 0.007c-0.012 0.007-0.020 0.019-0.023 0.033-0.129 0.359-0.415 0.53-0.859 0.512l0.137-2.547c0.033-0.012 0.057-0.028 0.071-0.049 0.031-0.048 0.018-0.070-0.039-0.066l-0.945 0.069c-0.106 0.007-0.109 0.029-0.009 0.066l0.162 0.058c0.096 0.036 0.141 0.105 0.133 0.207l-0.187 2.186c-0.004 0.043-0.017 0.083-0.039 0.119-0.054 0.088-0.135 0.142-0.243 0.161-0.010 0.002-0.019 0.006-0.026 0.013s-0.012 0.016-0.014 0.025c-0.002 0.010-0.001 0.020 0.002 0.029s0.010 0.017 0.018 0.023c0.040 0.028 0.086 0.038 0.139 0.030zM46.729 20.006c0.221-0.186 0.268-0.462 0.395-0.662 0.134-0.209 0.257-0.424 0.37-0.645 0.203-0.398 0.032-0.748 0.361-1.095 0.028-0.028 0.047-0.062 0.057-0.1 0.050-0.168 0.099-0.335 0.15-0.5 0.004-0.011 0.003-0.023-0.002-0.034-0.009-0.018-0.016-0.017-0.021 0.002-0.157 0.549-0.692 0.611-0.762 1.194-0.069 0.588-0.305 0.96-0.51 1.454-0.055 0.131-0.197 0.268-0.197 0.471 0 0.028 0.014 0.040 0.041 0.037 0.048-0.006 0.075-0.026 0.080-0.060 0.005-0.024 0.017-0.045 0.036-0.062z"></path>
<path fill="#797aac" d="M58.84 5.782c0.053 0.096 0.149 0.327 0.288 0.694 0.983 2.601 1.309 5.062 1.503 7.815 0.15 2.131 0.1 4.252-0.15 6.362-0.088 0.058-0.131 0.133-0.127 0.225 0.001 0.035-0.016 0.049-0.050 0.044-0.095-0.016-0.166 0.021-0.214 0.111-0.37 0.701-0.465 1.497-0.694 2.122-0.34 0.93-0.736 1.836-1.188 2.718-0.103 0.201-0.339 0.47-0.406 0.787-0.009 0.040-0.029 0.076-0.060 0.105-0.254 0.241-0.371 0.6-0.673 0.933-0.006 0.007-0.014 0.008-0.023 0.002-0.013-0.008-0.018-0.017-0.016-0.027 0-0 0-0.001 0-0.001s-0-0.001-0.001-0.001-0.001-0-0.001-0-0.001 0-0.001 0.001c-0.585 0.471-1.206 0.509-1.864 0.114-0.31-0.186-0.705-0.241-1.105-0.442-0.776-0.389-1.673-0.483-2.499-0.729-0.352-0.105-0.835-0.090-1.073-0.118-1.509-0.181-2.796-0.433-4.501-0.513-0.066-0.004-0.152-0.054-0.215-0.055-3.255-0.080-5.595-0.072-7.019 0.023-0.94 0.062-1.871 0.191-2.794 0.384-0.147 0.031-0.435 0.070-0.864 0.117-1.252 0.135-2.63 0.43-4.136 0.882-0.028 0.009-0.043 0.027-0.047 0.056-0.004 0.024-0.017 0.040-0.038 0.046-0.405 0.125-0.842 0.144-1.258 0.264-0.376 0.109-0.76 0.188-1.151 0.238-0.008 0.002-0.013 0.006-0.016 0.013-0.003 0.011-0.006 0.023-0.009 0.037-0.005 0.023-0.019 0.035-0.043 0.034-0.41-0.010-0.762 0.165-1.061 0.245-0.735 0.195-1.491 0.489-2.274 0.535-0.281 0.015-0.752 0.133-1.415 0.353-0.574 0.191-1.194 0.28-1.837 0.443-1.584 0.398-3.532 0.523-5.019 0.584-0.039 0.002-0.077-0.007-0.111-0.026s-0.062-0.046-0.082-0.080c-0.019-0.034-0.029-0.072-0.028-0.111s0.013-0.077 0.034-0.109c0.103-0.161 0.354-0.232 0.471-0.4 0.235-0.334 0.201-0.634-0.102-0.9l0.071-0.18 0.262-0.024c0.019-0.002 0.038 0.003 0.054 0.014s0.028 0.027 0.033 0.046c0.042 0.148 0.132 0.253 0.269 0.315 0.020 0.009 0.037 0.023 0.050 0.040s0.022 0.038 0.025 0.060c0.079 0.505 0.956 0.381 1.274 0.318 0.668-0.131 1.34-0.23 2.016-0.296 0.387-0.038 0.757-0.218 1.090-0.273 0.359-0.059 0.718-0.116 1.077-0.169 0.301-0.045 0.623-0.193 0.969-0.251 0.314-0.052 0.604-0.173 0.892-0.27 0.27-0.091 0.545-0.013 0.825-0.198 0.034-0.023 0.071-0.035 0.112-0.035 0.141-0.004 0.235-0.018 0.282-0.040 0.357-0.174 0.746-0.181 1.077-0.296 0.226-0.079 0.436-0.157 0.678-0.201 0.995-0.178 1.954-0.475 2.925-0.751 0.036-0.010 0.072-0.011 0.108-0.002 0.231 0.054 0.401-0.019 0.51-0.218 0.011-0.020 0.027-0.037 0.045-0.050s0.040-0.022 0.063-0.025c0.423-0.062 0.927-0.062 1.383-0.191 0.995-0.282 2.139-0.322 3.188-0.5 0.59-0.099 1.085-0.166 1.483-0.201 1.019-0.089 2.038-0.174 3.058-0.253 0.232-0.018 0.787 0.229 1.017-0.011 0.026-0.026 0.057-0.041 0.094-0.044 0.716-0.065 1.289-0.070 1.717-0.015 0.637 0.081 1.174 0.088 1.611 0.022 0.189-0.028 0.528 0.004 1.016 0.099 0.797 0.153 1.612 0.127 2.391 0.271 0.863 0.159 1.674 0.273 2.433 0.341 0.522 0.046 1.017 0.192 1.534 0.288 0.198 0.037 0.417-0.019 0.612 0.172 0.028 0.027 0.060 0.046 0.099 0.056 0.881 0.239 1.737 0.552 2.567 0.937 0.104 0.048 0.29 0.030 0.557-0.052 0.038-0.012 0.069-0.033 0.094-0.063 0.15-0.183 0.302-0.341 0.409-0.55 0.73-1.416 1.274-2.902 1.632-4.456 0.006-0.028 0.019-0.052 0.039-0.074 0.018-0.019 0.029-0.041 0.034-0.067 0.312-1.568 0.509-3.15 0.59-4.746 0.019-0.377 0.101-0.751 0.105-1.108 0.011-0.992 0.022-1.925-0.096-2.935-0.147-1.258-0.209-2.558-0.481-3.788-0.105-0.476-0.214-0.951-0.325-1.425-0.102-0.44-0.063-0.877-0.058-1.324 0.005-0.315 0.157-0.539 0.458-0.673z"></path>
<path fill="#fff" d="M22.853 8.493c0.996 0.427 1.695 1.067 2.096 1.921 0.596 1.335 0.689 2.68 0.277 4.034-0.565 1.666-1.602 3.010-3.075 3.995-2.093 1.401-4.401 2.268-6.926 2.6-0.020 0.003-0.038 0.012-0.052 0.025s-0.024 0.032-0.028 0.051c-0.297 1.562-0.802 5.962 0.914 6.943 0.094 0.082 0.251 0.153 0.47 0.213l0.515 0.103-0.071 0.18-0.153 0.146c-0.463 0.356-0.878 0.583-1.246 0.68-0.719 0.19-1.439 0.042-2.162-0.444-0.748-0.897-0.978-2.096-0.978-3.207 0-1.383 0.095-2.831 0.284-4.344 0.054-0.256 0.094-0.425-0.217-0.492-0.801-0.172-1.497-0.516-2.089-1.033l-0.136-0.147c-0.027-0.030-0.033-0.064-0.018-0.101 0.191-0.477 0.46-0.906 0.805-1.286 0.025-0.028 0.059-0.045 0.096-0.050s0.074 0.003 0.106 0.023c0.496 0.314 1.020 0.571 1.57 0.77 0.032 0.012 0.066 0.016 0.1 0.013s0.067-0.013 0.096-0.030 0.055-0.040 0.075-0.068c0.020-0.028 0.033-0.060 0.039-0.093 0.422-2.274 1.015-4.516 1.78-6.727l0.326-0.977c0.011-0.033 0.013-0.069 0.005-0.103s-0.025-0.065-0.049-0.091c-0.024-0.025-0.055-0.043-0.089-0.051s-0.069-0.008-0.103 0.003c-0.725 0.223-1.323 0.571-2.031 1.020-2.349 1.49-4.126 3.516-5.332 6.076-0.005 0.011-0.013 0.021-0.022 0.029s-0.020 0.014-0.032 0.017c-0.012 0.003-0.024 0.004-0.036 0.002s-0.023-0.007-0.033-0.014l-0.74-0.51c-0.257-0.338-0.391-0.729-0.402-1.175-0.083-3.585 4.043-5.637 6.76-6.927 0.401-0.191 1.425-0.499 3.072-0.925 1.894-0.49 4.74-0.841 6.632-0.049zM22.13 16.364c1.119-1.168 1.871-2.536 2.257-4.103 0.027-0.11 0.016-0.215-0.033-0.316-0.792-1.65-2.053-2.93-4.078-2.727-0.041 0.004-0.056 0.026-0.045 0.066 0.117 0.406 0.846 0.677 1.229 0.853 0.020 0.009 0.036 0.023 0.046 0.042s0.014 0.040 0.010 0.061-0.014 0.040-0.030 0.055c-0.016 0.014-0.036 0.023-0.057 0.025-0.32 0.032-0.998 0.084-1.166 0.423-0.325 0.653-0.953 1.28-1.739 1.178-0.010-0.001-0.020-0-0.029 0.002s-0.018 0.007-0.026 0.013c-0.008 0.006-0.014 0.013-0.018 0.022s-0.007 0.018-0.008 0.027c-0.028 0.255-0.009 0.504 0.055 0.747 0.46 1.745 2.77-0.292 3.12 1.003 0.010 0.038 0.007 0.078-0.009 0.113-0.59 1.364-1.382 2.141-0.966 3.741 0.003 0.011 0.009 0.021 0.016 0.030s0.017 0.015 0.028 0.020c0.011 0.004 0.022 0.006 0.034 0.005s0.023-0.005 0.032-0.011c0.552-0.346 0.981-0.858 1.376-1.27zM19.936 14.673c-0.611-0.293-1.046-0.747-1.742-0.992-0.041-0.014-0.075-0.038-0.102-0.072-0.165-0.202-0.37-0.348-0.616-0.438-0.019-0.007-0.039-0.010-0.059-0.007s-0.039 0.010-0.055 0.021c-0.017 0.011-0.030 0.027-0.039 0.045s-0.014 0.038-0.014 0.058v0.669c0 0.038-0.011 0.073-0.032 0.103-0.415 0.618-0.365 1.189-0.342 1.896 0.033 1.037-0.931 1.904-1.553 2.556-0.091 0.095-0.155 0.212-0.186 0.339l-0.301 1.246c-0.004 0.014-0.004 0.030 0 0.044s0.011 0.028 0.021 0.039 0.023 0.019 0.037 0.024c0.014 0.005 0.029 0.006 0.044 0.004 1.645-0.262 3.166-0.842 4.564-1.74 0.016-0.011 0.028-0.027 0.035-0.045s0.006-0.038-0.001-0.056c-0.121-0.335-0.348-0.932-0.681-1.79-0.128-0.33 0.017-0.562 0.318-0.743 0.339-0.203 0.609-0.475 0.81-0.818 0.089-0.153 0.054-0.269-0.106-0.346z"></path>
<path fill="#797aac" d="M25.512 15.855c-0.074-0.128-0.081-0.242-0.022-0.342 0.231-0.388 0.343-0.789 0.335-1.203 0.023-0.234 0.106-0.861-0.051-1.054-0.023-0.028-0.036-0.064-0.034-0.1 0.023-0.698-0.079-2.069-0.493-2.654-0.13-0.183-0.229-0.213-0.298-0.089-0.402-0.854-1.1-1.495-2.096-1.921 0.008-0.082 0.030-0.141 0.067-0.176 0.033-0.032 0.071-0.039 0.112-0.018 1.072 0.528 1.623 1.095 2.37 2.020 0.101 0.126 0.184 0.285 0.248 0.478 0.082 0.246 0.201 0.44 0.26 0.686 0.376 1.553 0.244 3.011-0.398 4.373z"></path>
<path fill="#8889c2" d="M22.13 16.364c-0.395 0.412-0.824 0.925-1.376 1.27-0.010 0.006-0.021 0.010-0.032 0.011s-0.023-0.001-0.034-0.005c-0.011-0.004-0.020-0.011-0.028-0.020s-0.013-0.019-0.016-0.030c-0.416-1.6 0.376-2.377 0.966-3.741 0.016-0.036 0.019-0.075 0.009-0.113-0.349-1.295-2.66 0.742-3.12-1.003-0.064-0.243-0.082-0.492-0.055-0.747 0.001-0.010 0.004-0.019 0.008-0.027s0.011-0.016 0.018-0.022c0.008-0.006 0.016-0.010 0.026-0.013s0.019-0.003 0.029-0.002c0.786 0.102 1.414-0.524 1.739-1.178 0.168-0.339 0.846-0.392 1.166-0.423 0.021-0.002 0.041-0.011 0.057-0.025s0.026-0.034 0.030-0.055c0.004-0.021-0-0.043-0.010-0.061s-0.026-0.034-0.046-0.042c-0.383-0.176-1.112-0.447-1.229-0.853-0.011-0.040 0.004-0.062 0.045-0.066 2.026-0.203 3.286 1.077 4.078 2.727 0.049 0.101 0.060 0.207 0.033 0.316-0.386 1.567-1.139 2.935-2.257 4.103z"></path>
<path fill="#696894" d="M25.825 14.31c-0.068 0.425-0.197 0.81-0.387 1.153-0.039 0.071-0.052 0.066-0.039-0.013 0.016-0.098 0.047-0.191 0.094-0.28 0.019-0.035 0.029-0.074 0.029-0.114l-0.002-0.582c-0-0.002-0.001-0.003-0.002-0.005s-0.003-0.002-0.005-0.002-0.004 0-0.005 0.001-0.003 0.002-0.004 0.004c-0.005 0.013-0.009 0.026-0.013 0.040-0.001 0.003-0.004 0.006-0.007 0.008s-0.007 0.003-0.010 0.002c-0.003-0-0.007-0.002-0.009-0.004s-0.004-0.006-0.005-0.009v-0.061c0-0.053-0.025-0.071-0.074-0.054l-0.159 0.054c0.411-1.354 0.319-2.698-0.277-4.033 0.069-0.124 0.168-0.095 0.298 0.089 0.414 0.585 0.516 1.955 0.493 2.654-0.002 0.036 0.011 0.072 0.034 0.1 0.157 0.192 0.074 0.82 0.051 1.054z"></path>
<path fill="#696894" d="M14.924 12.168l-0.386-0.062c-0.041-0.007-0.077 0.003-0.11 0.028-0.223 0.18-0.493 0.248-0.708 0.403-0.365 0.264-0.798 0.489-1.129 0.741-0.259 0.197-0.515 0.397-0.769 0.6-0.554 0.439-0.984 0.998-1.449 1.532-0.554 0.635-1.005 1.343-1.499 2.034-0.262 0.367-0.502 1.36-1.11 1.331-0.025-0.002-0.028 0.006-0.009 0.022 0.010 0.008 0.020 0.015 0.030 0.021 0.307 0.159 0.719-0.453 0.823-0.659 0.094-0.19 0.168-0.324 0.221-0.402 0.213-0.303 0.434-0.6 0.663-0.889 0.131-0.167 0.197-0.422 0.4-0.582 0.032-0.024 0.056-0.054 0.074-0.089 0.148-0.286 0.33-0.546 0.545-0.78 0.374-0.404 0.686-0.883 1.195-1.198 0.034-0.021 0.062-0.052 0.079-0.088 0.103-0.22 0.268-0.371 0.495-0.453 0.082-0.030 0.092-0.014 0.030 0.049-0.214 0.217-0.423 0.436-0.625 0.657-0.162 0.178-0.468 0.273-0.554 0.608-0.009 0.036-0.030 0.067-0.060 0.089-0.292 0.21-0.454 0.505-0.634 0.743-0.3 0.396-0.555 0.82-0.765 1.271-0.074 0.159-0.169 0.301-0.285 0.426-0.465 0.504-0.793 1.385-1.606 1.372-0.045-0.001-0.084-0.018-0.116-0.051-0.087-0.091-0.195-0.145-0.325-0.163-0.014-0.002-0.026-0.008-0.035-0.019s-0.013-0.024-0.011-0.038c0.002-0.013 0.002-0.026 0.002-0.040 0.001-0.037-0.015-0.062-0.049-0.077-0.502-0.224-0.656-0.537-0.462-0.938l0.74 0.51c0.010 0.007 0.021 0.012 0.033 0.014s0.024 0.002 0.036-0.001 0.023-0.009 0.032-0.017c0.009-0.008 0.017-0.018 0.022-0.029 1.205-2.561 2.983-4.586 5.332-6.076 0.708-0.449 1.306-0.797 2.031-1.020 0.033-0.010 0.069-0.011 0.103-0.003s0.065 0.026 0.089 0.051c0.024 0.025 0.041 0.056 0.049 0.091s0.006 0.070-0.005 0.103l-0.326 0.977zM8.965 16.366c0.001 0.009 0.004 0.019 0.010 0.032s0.011 0.012 0.019 0.002l1.577-2.033c0.014-0.018 0.034-0.032 0.056-0.039 0.372-0.128 0.406-0.417 0.649-0.623 0.858-0.728 1.501-1.209 1.929-1.443 0.523-0.286 0.897-0.515 1.121-0.687 0.028-0.021 0.058-0.039 0.090-0.052l0.38-0.159c0.007-0.003 0.013-0.008 0.015-0.015s0.003-0.015 0-0.022-0.008-0.012-0.015-0.015c-0.007-0.003-0.015-0.003-0.022-0-0.541 0.195-1.066 0.429-1.573 0.703-0.010 0.005-0.018 0.013-0.024 0.022s-0.010 0.020-0.011 0.030c-0.002 0.019-0.006 0.038-0.012 0.056-0.009 0.023-0.027 0.042-0.055 0.058-0.951 0.578-1.804 1.272-2.561 2.084-0.159 0.169-0.439 0.245-0.517 0.56-0.010 0.040-0.030 0.073-0.061 0.1-0.292 0.244-0.548 0.519-0.769 0.824-0.168 0.232-0.224 0.549-0.421 0.808-0.005 0.006-0.004 0.010 0.002 0.013 0.009 0.005 0.018 0.010 0.028 0.015 0.003 0.002 0.006 0 0.007-0.004 0.038-0.080 0.088-0.152 0.151-0.217 0.004-0.004 0.007-0.003 0.007 0.002zM13.363 12.449l-0.675 0.597c-0 0-0 0-0 0.001s0 0.001 0 0.001l0.007 0.007c0.018 0.020 0.069 0.009 0.141-0.030s0.16-0.102 0.245-0.177l0.038-0.033c0.042-0.037 0.082-0.076 0.118-0.114s0.066-0.075 0.089-0.109c0.023-0.033 0.039-0.063 0.047-0.086s0.007-0.040-0.002-0.050l-0.006-0.007c-0-0-0-0-0.001-0s-0 0-0.001 0zM8.342 18.167c0.169-0.372 0.404-0.767 0.706-1.184 0.617-0.851 1.19-1.669 1.918-2.437 0.019-0.019 0.015-0.027-0.011-0.022-0.498 0.094-1.203 1.567-1.701 1.999-0.074 0.064-0.145 0.268-0.24 0.377-0.262 0.3-0.466 0.636-0.612 1.006-0.066 0.165-0.187 0.279-0.279 0.431-0.019 0.032-0.012 0.041 0.023 0.027 0.087-0.034 0.152-0.1 0.196-0.197z"></path>
<path fill="#464665" d="M8.958 16.364c-0.062 0.064-0.113 0.136-0.151 0.217-0.002 0.004-0.004 0.005-0.007 0.004-0.010-0.005-0.019-0.010-0.028-0.015-0.007-0.003-0.007-0.008-0.002-0.013 0.197-0.259 0.253-0.576 0.421-0.808 0.221-0.305 0.477-0.58 0.769-0.824 0.031-0.027 0.051-0.060 0.061-0.1 0.078-0.315 0.358-0.391 0.517-0.56 0.757-0.812 1.611-1.507 2.561-2.084 0.028-0.016 0.046-0.036 0.055-0.058 0.006-0.018 0.011-0.037 0.012-0.056 0.001-0.011 0.005-0.021 0.011-0.030s0.014-0.017 0.024-0.022c0.508-0.274 1.032-0.509 1.573-0.703 0.007-0.003 0.015-0.003 0.022 0s0.012 0.009 0.015 0.015c0.003 0.007 0.003 0.015-0 0.022s-0.009 0.012-0.015 0.015l-0.38 0.159c-0.033 0.014-0.062 0.031-0.090 0.052-0.224 0.172-0.597 0.401-1.121 0.688-0.427 0.234-1.070 0.715-1.929 1.443-0.242 0.206-0.276 0.495-0.649 0.623-0.022 0.007-0.042 0.021-0.056 0.039l-1.577 2.033c-0.008 0.010-0.015 0.009-0.019-0.002s-0.009-0.023-0.010-0.032c-0.001-0.006-0.003-0.007-0.007-0.002z"></path>
<path fill="#fff" d="M42.336 12.287c-0.009 0.668-0.319 1.504-0.998 1.747-0.019 0.007-0.039 0.009-0.059 0.008s-0.039-0.008-0.056-0.019l-0.195-0.116c-0.010-0.006-0.021-0.009-0.032-0.009s-0.023 0.002-0.033 0.007c-0.010 0.005-0.019 0.013-0.025 0.022s-0.011 0.020-0.012 0.031c-0.032 0.259-0.224 0.732 0.156 0.803 0.036 0.050 0.048 0.099 0.038 0.147l-0.69 0.006-0.271-0.016c-0.034-0.002-0.047-0.019-0.038-0.052 0.003-0.011 0.007-0.023 0.012-0.034 0.003-0.009 0.010-0.015 0.019-0.017 0.45-0.079 0.488-1.048 0.575-1.678l0.14-0.756c0.006-0.025 0.002-0.052-0.011-0.074s-0.035-0.038-0.060-0.044c-0.025-0.006-0.052-0.002-0.074 0.012s-0.038 0.035-0.044 0.060c-0.031 0.102-0.097 0.147-0.198 0.134 0.092-0.225 0.279-0.38 0.561-0.465 0.025-0.008 0.052-0.008 0.078-0.002s0.050 0.019 0.069 0.037c0.019 0.018 0.033 0.041 0.041 0.066s0.008 0.052 0.002 0.078c-0.024 0.102-0.031 0.205-0.021 0.309 0.011 0.092 0.036 0.097 0.075 0.012 0.208-0.448 0.801-0.837 1.051-0.198zM41.521 12.346c-0.316 0.361-0.476 0.773-0.481 1.237-0.001 0.080 0.018 0.14 0.056 0.178 0.044 0.044 0.104 0.074 0.181 0.090 0.441-0.359 0.661-0.846 0.658-1.461 0-0.040-0.013-0.079-0.036-0.112s-0.057-0.057-0.095-0.070c-0.127-0.042-0.221 0.004-0.283 0.137z"></path>
<path fill="#fff" d="M44.263 12.322l-0.309 1.281c-0.004 0.016-0.003 0.033 0.003 0.049s0.015 0.030 0.028 0.040 0.029 0.017 0.045 0.019c0.017 0.002 0.033-0.001 0.049-0.008 0.091-0.045 0.143-0.11 0.156-0.195 0.132-0.017 0.191-0 0.175 0.050-0.174 0.204-0.372 0.357-0.593 0.459-0.035 0.016-0.075 0.021-0.113 0.014s-0.073-0.026-0.1-0.055c-0.027-0.028-0.044-0.064-0.049-0.103s0.002-0.078 0.021-0.112c0.065-0.118 0.066-0.266 0.002-0.444 0.198-0.427 0.294-0.729 0.288-0.906-0.006-0.219-0.109-0.299-0.309-0.238-0.161 0.049-0.252 0.136-0.27 0.262-0.248 0.372-0.373 0.757-0.374 1.155-0 0.037 0.011 0.073 0.032 0.103s0.051 0.053 0.086 0.066c0.035 0.013 0.072 0.014 0.108 0.005s0.067-0.030 0.091-0.058l0.131-0.156c-0.020 0.034-0.015 0.033 0.016-0.005 0.051-0.027 0.089-0.039 0.114-0.037 0.030 0.003 0.037 0.029 0.022 0.077-0.092 0.288-0.302 0.431-0.63 0.428-0.26-0.066-0.374-0.308-0.339-0.728l0.318-0.776c0.185-0.269 0.63-0.67 0.942-0.423 0.026 0.021 0.055 0.027 0.088 0.017l0.344-0.101c0.067-0.019 0.093 0.006 0.079 0.073l-0.052 0.248z"></path>
<path fill="#fff" d="M45.797 13.138c0.134 0.81-0.462 1.005-1.134 0.883l-0.223-0.157c0.034-0.093 0.043-0.193 0.027-0.298-0.001-0.041 0.017-0.071 0.054-0.088 0.054-0.025 0.088-0.009 0.1 0.050 0.023 0.111 0.079 0.203 0.165 0.275 0.030 0.026 0.067 0.043 0.106 0.050 0.225 0.042 0.411-0.034 0.556-0.228 0.029-0.039 0.048-0.085 0.056-0.133s0.004-0.097-0.011-0.144-0.041-0.088-0.076-0.122c-0.035-0.034-0.078-0.059-0.124-0.073-0.303-0.089-0.466-0.273-0.492-0.551-0.057-0.642 0.807-0.616 1.18-0.492 0.010 0.003 0.020 0.009 0.028 0.016s0.015 0.016 0.020 0.026c0.005 0.010 0.008 0.021 0.008 0.032s-0.001 0.022-0.005 0.032l-0.090 0.24c-0.004 0.012-0.012 0.023-0.023 0.030s-0.023 0.011-0.036 0.011c-0.013-0-0.025-0.005-0.036-0.012s-0.018-0.018-0.021-0.031c-0.196-0.595-1.011-0.091-0.481 0.297 0.084 0.061 0.234 0.189 0.451 0.386z"></path>
<path fill="#fff" d="M40.285 12.442c-0.116 0.464-0.659 0.451-1.046 0.493-0.039 0.004-0.062 0.026-0.071 0.065-0.076 0.396 0.034 0.694 0.332 0.893 0.182 0.043 0.368 0.034 0.556-0.026 0.008-0.003 0.017-0.003 0.025-0.001s0.016 0.006 0.021 0.013c0.006 0.006 0.010 0.014 0.012 0.022s0.001 0.017-0.002 0.025c-0.032 0.086-0.099 0.129-0.198 0.129-0.034 0.001-0.067 0.007-0.097 0.019-0.859 0.339-1.141-0.507-1.009-1.164l0.173-0.406c0.257-0.382 1.152-0.722 1.304-0.061zM39.229 12.585c-0.044 0.122-0.001 0.176 0.128 0.162 0.174-0.018 0.338-0.064 0.494-0.137 0.035-0.016 0.063-0.043 0.082-0.076s0.027-0.072 0.023-0.11c-0.004-0.038-0.019-0.074-0.045-0.103s-0.058-0.049-0.096-0.058c-0.287-0.070-0.483 0.038-0.586 0.322z"></path>
<path fill="#797aac" d="M43.58 13.317c-0.077 0.039-0.144 0.114-0.201 0.226-0.031 0.037-0.036 0.039-0.016 0.005-0.165-0.059-0.209-0.172-0.133-0.338 0.161-0.351 0.181-0.61 0.058-0.776 0.019-0.126 0.109-0.213 0.27-0.262 0.2-0.060 0.303 0.019 0.309 0.238 0.006 0.178-0.090 0.48-0.288 0.906z"></path>
<path fill="#fff" d="M31.88 12.31c-0.131 0.064-0.203 0.148-0.215 0.253-0.084 0.727-0.148 1.456-0.192 2.186-0.002 0.042 0.014 0.074 0.050 0.096 0.061 0.037 0.134 0.040 0.22 0.011 0.444 0.018 0.73-0.153 0.859-0.512 0.003-0.014 0.011-0.025 0.023-0.033s0.026-0.010 0.040-0.007c0.014 0.003 0.025 0.011 0.033 0.023s0.010 0.026 0.007 0.039l-0.051 0.468c-0.004 0.040-0.024 0.068-0.061 0.084-0.422 0.187-1.089 0.158-1.565 0.238l-0.127 0.024c-0.053 0.007-0.099-0.003-0.139-0.030-0.008-0.006-0.014-0.014-0.018-0.023s-0.004-0.019-0.002-0.029c0.002-0.010 0.007-0.018 0.014-0.025s0.016-0.011 0.026-0.013c0.108-0.019 0.189-0.072 0.243-0.161 0.022-0.037 0.035-0.076 0.039-0.119l0.187-2.186c0.008-0.102-0.036-0.171-0.133-0.207l-0.162-0.058c-0.101-0.037-0.098-0.058 0.009-0.066l0.945-0.069c0.057-0.004 0.070 0.018 0.039 0.066-0.014 0.020-0.037 0.037-0.071 0.049z"></path>
<path fill="#fff" d="M38.643 12.384c-0.023 0.104-0.128 0.155-0.314 0.153-0.019 0-0.038 0.005-0.054 0.016s-0.029 0.025-0.038 0.043c-0.234 0.5-0.359 1.024-0.375 1.574-0 0.021-0.006 0.041-0.017 0.059s-0.026 0.033-0.044 0.043c-0.080 0.045-0.178 0.067-0.294 0.067l0.097-1.671c0.001-0.023-0.005-0.046-0.018-0.065s-0.032-0.033-0.053-0.041c-0.022-0.008-0.045-0.008-0.067-0.001s-0.041 0.021-0.055 0.039l-0.187 0.257c-0.024 0.034-0.041 0.031-0.051-0.010-0.007-0.033 0-0.069 0.022-0.108 0.123-0.22 0.291-0.377 0.504-0.472 0.023-0.010 0.049-0.015 0.074-0.013s0.050 0.010 0.071 0.024c0.021 0.014 0.039 0.033 0.051 0.055s0.018 0.048 0.018 0.073l-0.004 0.415c-0 0.010 0.003 0.019 0.010 0.026s0.015 0.012 0.024 0.013l0.038 0.006c0.006 0.001 0.012-0.001 0.017-0.004s0.009-0.008 0.011-0.013l0.189-0.509c0.010-0.028 0.028-0.054 0.051-0.074s0.051-0.034 0.080-0.041c0.241-0.054 0.346-0.001 0.315 0.157z"></path>
<path fill="#797aac" d="M41.278 13.851l0.243-1.505c0.062-0.134 0.157-0.18 0.283-0.137 0.038 0.013 0.072 0.037 0.095 0.070s0.036 0.072 0.036 0.112c0.002 0.615-0.217 1.102-0.658 1.461z"></path>
<path fill="#696894" d="M42.863 12.508l-0.318 0.776c-0.182 0.336-0.409 0.597-0.679 0.782-0.365 0.251-0.742 0.029-0.785 0.696-0.38-0.071-0.187-0.544-0.156-0.803 0.001-0.011 0.005-0.022 0.012-0.031s0.015-0.017 0.025-0.022c0.010-0.005 0.021-0.008 0.033-0.007s0.023 0.004 0.032 0.009l0.195 0.116c0.017 0.010 0.036 0.017 0.056 0.018s0.040-0.001 0.059-0.008c0.679-0.243 0.989-1.079 0.998-1.747 0.112-0.13 0.19-0.076 0.234 0.161 0.004 0.020 0.013 0.039 0.027 0.053s0.032 0.024 0.052 0.027c0.066 0.013 0.137 0.006 0.214-0.021z"></path>
<path fill="#696894" d="M39.229 12.585c0.104-0.285 0.299-0.392 0.586-0.322 0.037 0.009 0.070 0.029 0.096 0.058s0.041 0.065 0.045 0.103c0.004 0.038-0.004 0.076-0.023 0.11s-0.047 0.060-0.082 0.076c-0.156 0.074-0.32 0.12-0.494 0.137-0.129 0.014-0.172-0.040-0.128-0.162z"></path>
<path fill="#696894" d="M40.728 13.119c-0.16-0.122-0.299-0.159-0.419-0.111-0.032 0.013-0.066 0.021-0.101 0.023l-0.657 0.054c-0.025 0.002-0.048 0.014-0.065 0.032s-0.025 0.044-0.024 0.069l0.038 0.707c-0.298-0.2-0.408-0.497-0.332-0.893 0.008-0.039 0.032-0.060 0.071-0.065 0.387-0.041 0.931-0.029 1.046-0.493l0.195 0.009c0.101 0.013 0.168-0.032 0.198-0.134 0.006-0.025 0.022-0.047 0.044-0.060s0.049-0.018 0.074-0.011c0.025 0.006 0.047 0.022 0.060 0.044s0.018 0.049 0.011 0.074l-0.14 0.756z"></path>
<path fill="#464665" d="M31.88 12.31l-0.137 2.547c-0.086 0.029-0.159 0.026-0.22-0.011-0.036-0.022-0.052-0.054-0.050-0.096 0.045-0.731 0.109-1.46 0.192-2.186 0.012-0.105 0.084-0.189 0.215-0.253z"></path>
<path fill="#464665" d="M44.263 12.322c0.111-0.019 0.165 0.001 0.161 0.060-0.025 0.372-0.088 0.747-0.189 1.127-0.013 0.085-0.065 0.15-0.156 0.195-0.015 0.007-0.032 0.010-0.049 0.008s-0.032-0.008-0.045-0.019c-0.013-0.010-0.023-0.024-0.028-0.040s-0.007-0.033-0.003-0.049l0.309-1.281z"></path>
<path fill="#696894" d="M38.643 12.384c0.102 0.008 0.215 0.048 0.337 0.119l-0.173 0.406c-0.3-0.083-0.481 0.013-0.543 0.288-0.041 0.186-0.107 0.559-0.198 1.119-0.006 0.041-0.026 0.075-0.060 0.101-0.227 0.179-0.394 0.153-0.5-0.079 0.116 0 0.214-0.022 0.294-0.067 0.018-0.010 0.033-0.025 0.044-0.043s0.016-0.038 0.017-0.059c0.015-0.55 0.14-1.075 0.375-1.574 0.009-0.018 0.022-0.032 0.038-0.043s0.035-0.016 0.054-0.016c0.186 0.002 0.29-0.049 0.314-0.153z"></path>
<path fill="#464665" d="M41.521 12.346l-0.243 1.505c-0.077-0.016-0.138-0.046-0.181-0.090-0.038-0.038-0.057-0.097-0.056-0.178 0.005-0.464 0.165-0.877 0.481-1.237z"></path>
<path fill="#696894" d="M43.289 12.434c0.123 0.166 0.103 0.425-0.058 0.776-0.076 0.166-0.032 0.279 0.133 0.338l-0.131 0.156c-0.024 0.028-0.055 0.049-0.091 0.058s-0.073 0.008-0.108-0.005c-0.035-0.013-0.065-0.036-0.086-0.066s-0.032-0.066-0.032-0.103c0.001-0.397 0.125-0.782 0.374-1.155z"></path>
<path fill="#797aac" d="M13.363 12.45l0.001-0 0.001 0 0.006 0.007c0.009 0.010 0.010 0.027 0.002 0.050s-0.024 0.053-0.047 0.086c-0.023 0.033-0.054 0.070-0.089 0.109s-0.076 0.077-0.118 0.115l-0.038 0.033c-0.084 0.075-0.172 0.138-0.245 0.177s-0.123 0.049-0.141 0.030l-0.007-0.007-0-0.001 0-0.001 0.675-0.597z"></path>
<path fill="#fff" d="M35.746 12.634l-0.012 0.397c-0 0.009-0.003 0.019-0.009 0.027s-0.013 0.014-0.022 0.017c-0.009 0.003-0.019 0.004-0.028 0.001s-0.018-0.007-0.025-0.014l-0.228-0.253c-0.026-0.028-0.058-0.042-0.096-0.043-0.374-0.001-0.585 0.422-0.201 0.594 0.234 0.105 0.439 0.236 0.613 0.391 0.145 0.673-0.35 0.945-0.941 0.962l-0.235-0.023c-0.050-0.005-0.077-0.032-0.082-0.080l-0.036-0.36c-0.001-0.015 0.003-0.030 0.012-0.042s0.022-0.021 0.037-0.024c0.015-0.004 0.030-0.002 0.044 0.005s0.024 0.018 0.030 0.033c0.165 0.422 0.435 0.438 0.812 0.049 0.052-0.697-1.138-0.586-0.754-1.248 0.231-0.399 0.605-0.528 1.122-0.386z"></path>
<path fill="#797aac" d="M30.9 15.182l0.127-0.024c-0.001 0.1 0.070 0.157 0.213 0.172 0.165 0.018 0.31 0.016 0.434-0.006 0.372-0.066 0.619-0.040 0.956-0.058 0.041-0.002 0.074-0.019 0.101-0.050 0.324-0.381 0.594-0.072 0.934-0.091 0.26-0.015 0.374-0.125 0.344-0.331 0.098-0.038 0.158-0.092 0.179-0.161 0.015-0.051-0.002-0.067-0.052-0.049-0.167 0.062-0.336 0.083-0.507 0.062-0.323-0.694-0.095-0.966 0.684-0.816 0.036 0.006 0.060-0.007 0.072-0.041l0.033-0.095c0.018-0.054 0.050-0.065 0.097-0.032l0.864 0.607c-0.376 0.389-0.647 0.373-0.812-0.049-0.006-0.014-0.016-0.026-0.030-0.033s-0.029-0.009-0.044-0.005c-0.015 0.004-0.028 0.012-0.037 0.024s-0.013 0.027-0.012 0.042l0.036 0.36c0.005 0.049 0.032 0.075 0.082 0.080l0.235 0.023-0.139 0.011c-0.036 0.002-0.054 0.022-0.052 0.060 0.004 0.098 0.048 0.174 0.131 0.228 0.033 0.021 0.067 0.023 0.102 0.005 0.221-0.114 0.451-0.105 0.642-0.241 0.136-0.098 0.265-0.203 0.387-0.315 0.031-0.028 0.050-0.062 0.058-0.102 0.084-0.385 0.020-0.588-0.19-0.607-0.174-0.155-0.379-0.285-0.613-0.391-0.385-0.172-0.173-0.595 0.201-0.594 0.038 0.001 0.070 0.015 0.096 0.043l0.228 0.253c0.007 0.007 0.015 0.012 0.025 0.014s0.019 0.002 0.028-0.001c0.009-0.003 0.017-0.009 0.022-0.017s0.009-0.017 0.009-0.027l0.012-0.397c0.098 0.011 0.153 0.078 0.164 0.2 0.004 0.042 0.026 0.072 0.065 0.089 0.477 0.204 0.006 0.511-0.032 0.732-0.018 0.104 0.020 0.181 0.113 0.232 0.035 0.019 0.062 0.045 0.082 0.080 0.191 0.349 0.112 0.642-0.24 0.878-0.469 0.316-0.975 0.44-1.518 0.37-0.045-0.006-0.091 0-0.133 0.018-0.359 0.15-0.723 0.165-1.094 0.046-0.041-0.014-0.080-0.008-0.117 0.017-0.356 0.252-0.685 0.133-1.034 0.19-0.258 0.043-0.517 0.064-0.777 0.062-0.221-0.001-0.42-0.119-0.325-0.367z"></path>
<path fill="#fff" d="M33.629 14.646c0.171 0.021 0.34 0.001 0.507-0.062 0.050-0.019 0.068-0.002 0.052 0.049-0.021 0.069-0.081 0.123-0.179 0.161-0.954 0.316-1.197-0.247-1.124-1.029 0.019-0.207 0.061-0.37 0.128-0.49 0.224-0.402 0.947-0.726 1.246-0.19 0.017 0.032 0.023 0.066 0.018 0.102-0.068 0.466-0.653 0.425-1.001 0.494-0.041 0.009-0.066 0.035-0.073 0.077-0.080 0.471 0.062 0.768 0.426 0.889zM33.217 13.366c-0.013 0.019-0.019 0.041-0.019 0.063s0.007 0.044 0.020 0.063 0.031 0.032 0.052 0.040c0.021 0.008 0.044 0.009 0.066 0.003l0.468-0.117c0.030-0.008 0.058-0.022 0.082-0.041s0.043-0.045 0.056-0.073c0.013-0.028 0.020-0.059 0.019-0.090s-0.008-0.062-0.021-0.089c-0.182-0.372-0.583 0.029-0.724 0.241z"></path>
<path fill="#696894" d="M33.217 13.366c0.141-0.212 0.541-0.613 0.724-0.241 0.014 0.028 0.021 0.058 0.021 0.089s-0.006 0.062-0.019 0.090c-0.013 0.028-0.032 0.053-0.056 0.073s-0.052 0.034-0.082 0.041l-0.468 0.117c-0.022 0.006-0.045 0.004-0.066-0.003s-0.039-0.022-0.052-0.040c-0.013-0.018-0.020-0.040-0.020-0.063s0.006-0.044 0.019-0.063z"></path>
<path fill="#8889c2" d="M19.936 14.672c0.16 0.077 0.195 0.192 0.106 0.346-0.201 0.342-0.471 0.615-0.81 0.818-0.301 0.181-0.445 0.414-0.318 0.743 0.333 0.858 0.561 1.455 0.681 1.79 0.007 0.018 0.007 0.038 0.001 0.056s-0.018 0.034-0.035 0.045c-1.398 0.898-2.919 1.478-4.564 1.74-0.015 0.002-0.030 0.001-0.044-0.004s-0.027-0.013-0.037-0.024-0.017-0.024-0.021-0.039c-0.004-0.014-0.004-0.030-0-0.044l0.301-1.246c0.031-0.128 0.095-0.245 0.186-0.339 0.622-0.652 1.585-1.52 1.553-2.556-0.023-0.707-0.073-1.278 0.342-1.896 0.021-0.031 0.032-0.065 0.032-0.103v-0.669c-0-0.020 0.005-0.040 0.014-0.058s0.023-0.033 0.039-0.045c0.016-0.011 0.036-0.019 0.055-0.021s0.040 0 0.059 0.007c0.246 0.090 0.451 0.236 0.616 0.438 0.028 0.034 0.062 0.058 0.102 0.072 0.696 0.245 1.132 0.698 1.742 0.992z"></path>
<path fill="#696894" d="M45.797 13.138c0.312 0.286 0.371 0.548 0.176 0.786-0.282 0.344-0.837 0.393-1.259 0.297-0.051-0.011-0.082-0.033-0.092-0.066-0.012-0.040 0.002-0.084 0.041-0.134 0.672 0.122 1.268-0.073 1.134-0.883z"></path>
<path fill="#696894" d="M43.58 13.317c0.063 0.178 0.062 0.326-0.002 0.444-0.019 0.034-0.026 0.073-0.021 0.112s0.022 0.075 0.049 0.103c0.027 0.028 0.062 0.047 0.1 0.055s0.078 0.002 0.113-0.014c0.221-0.102 0.418-0.255 0.593-0.459 0.018 0.008 0.036 0.011 0.056 0.009 0.016 0.105 0.007 0.205-0.027 0.298-0.299 0.21-0.577 0.574-0.931 0.172-0.031-0.036-0.063-0.037-0.097-0.004l-0.206 0.206c-0.012 0.012-0.026 0.021-0.042 0.026s-0.033 0.006-0.049 0.002l-0.349-0.074c-0.016-0.003-0.030-0.011-0.041-0.023s-0.018-0.026-0.021-0.042c-0.002-0.016 0-0.032 0.007-0.046s0.019-0.026 0.033-0.034c0.033-0.018 0.080-0.030 0.141-0.035 0.329 0.002 0.539-0.14 0.63-0.428 0.015-0.048 0.008-0.073-0.022-0.077-0.025-0.002-0.063 0.010-0.114 0.037 0.057-0.112 0.124-0.187 0.201-0.226z"></path>
<path fill="#696894" d="M34.798 14.713c0.59-0.017 1.085-0.29 0.941-0.962 0.21 0.019 0.273 0.222 0.19 0.607-0.008 0.041-0.028 0.075-0.058 0.102-0.122 0.112-0.251 0.217-0.387 0.315-0.191 0.136-0.421 0.127-0.642 0.241-0.035 0.018-0.069 0.016-0.102-0.005-0.084-0.054-0.127-0.129-0.131-0.228-0.002-0.037 0.016-0.057 0.052-0.060l0.139-0.011z"></path>
<path fill="#464665" d="M25.825 14.31c0.008 0.415-0.103 0.816-0.335 1.203-0.059 0.1-0.052 0.214 0.022 0.342-0.005 0.019-0.009 0.037-0.013 0.056-0.219 0.021-0.366 0.1-0.44 0.237l-0.161 0.169c-0.48 0.384-0.909 0.79-1.285 1.218-0.080 0.091-0.184 0.185-0.31 0.284-0.279 0.213-0.494 0.482-0.776 0.706-0.251 0.198-0.415 0.467-0.685 0.625-0.123 0.071-0.244 0.144-0.365 0.217-0.405 0.243-0.878 0.35-1.281 0.698l-0.99 0.545c-0.035 0.019-0.072 0.033-0.111 0.040-0.325 0.067-0.629 0.184-0.914 0.35-0.001 0-0.002 0.001-0.003 0.002s-0.001 0.002-0.002 0.003-0.001 0.005 0 0.007c0.001 0.002 0.003 0.004 0.005 0.005s0.005 0.001 0.007-0c0.325-0.096 0.58-0.265 0.924-0.313 0.005-0 0.009 0 0.013 0.003s0.006 0.006 0.007 0.011c0.001 0.004 0 0.009-0.002 0.013s-0.006 0.007-0.010 0.009l-0.685 0.251-1.666 0.403c-1.387 0.068-1.444 0.655-1.518 1.83-0.037 0.589-0.24 1.072-0.103 1.722-0.001 0.771 0.127 1.936 0.642 2.542 0.151 0.178 0.241 0.37 0.27 0.576-1.716-0.981-1.211-5.38-0.914-6.943 0.004-0.019 0.014-0.037 0.028-0.051s0.033-0.023 0.052-0.026c2.524-0.333 4.833-1.199 6.926-2.6 1.472-0.984 2.51-2.329 3.075-3.995l0.159-0.054c0.050-0.017 0.074 0.001 0.074 0.054v0.061c0 0.004 0.002 0.007 0.005 0.009s0.006 0.004 0.009 0.004c0.004 0.001 0.007-0 0.010-0.002s0.005-0.005 0.007-0.008c0.004-0.014 0.009-0.027 0.013-0.040 0.001-0.001 0.002-0.003 0.004-0.004s0.003-0.001 0.005-0.001 0.003 0.001 0.005 0.002 0.002 0.003 0.002 0.005l0.002 0.582c0 0.040-0.010 0.079-0.029 0.114-0.046 0.088-0.078 0.182-0.094 0.28-0.013 0.080 0 0.084 0.039 0.013 0.19-0.344 0.319-0.728 0.387-1.153z"></path>
<path fill="#797aac" d="M8.342 18.167c-0.044 0.097-0.109 0.163-0.196 0.197-0.035 0.014-0.043 0.005-0.023-0.027 0.091-0.152 0.213-0.265 0.279-0.431 0.146-0.371 0.35-0.706 0.612-1.006 0.095-0.11 0.165-0.313 0.24-0.377 0.498-0.432 1.203-1.905 1.701-1.999 0.026-0.005 0.030 0.002 0.011 0.022-0.728 0.768-1.301 1.587-1.918 2.437-0.302 0.417-0.537 0.812-0.706 1.184z"></path>
<path fill="#464665" d="M41.119 14.91l0.038 0.038c0.036 0.036 0.032 0.067-0.012 0.092-0.234 0.135-0.472 0.093-0.715-0.124l0.69-0.006z"></path>
<path fill="#797aac" d="M38.030 21.11c-0.151 0.342-0.838 1.613-1.348 1.106-0.475-0.472 0.433-2.935 0.793-3.894 0.133 0.223 0.138 0.474 0.016 0.752-0.32 0.726-0.899 2.219-0.717 2.998 0.002 0.010 0.007 0.019 0.014 0.026s0.015 0.013 0.025 0.016 0.020 0.004 0.029 0.002c0.010-0.002 0.019-0.006 0.027-0.012l0.136-0.105c0.032-0.024 0.045-0.056 0.041-0.096-0.033-0.329 0.002-0.63 0.106-0.903 0.156-0.135 0.22-0.33 0.192-0.588-0.005-0.040 0.002-0.077 0.021-0.112 0.099-0.19 0.163-0.391 0.193-0.604 0.006-0.037 0.022-0.067 0.050-0.092 0.155-0.139 0.241-0.327 0.259-0.565 0.115-0.277 0.118-0.604 0.010-0.981-0.054-0.191 0.012-0.332 0.2-0.422 0.379-0.075 0.64-0.268 0.784-0.577 0.345-0.592 0.326-1.044-0.057-1.355-0.009-0.054-0.036-0.103-0.080-0.145 0.022-0.039 0.054-0.065 0.095-0.077 0.031-0.010 0.068-0.004 0.111 0.016 0.123 0.058 0.252 0.097 0.386 0.117 0.036 0.005 0.067 0.021 0.090 0.049l0.175 0.203c0.027 0.030 0.043 0.068 0.046 0.108 0.029 0.365-0.050 0.701-0.237 1.009-0.020 0.034-0.124 0.151-0.31 0.349-0.475 0.504-0.667 1.252-0.835 1.792-0.083 0.266-0.264 0.513-0.219 0.891 0.005 0.043-0.009 0.079-0.040 0.107-0.127 0.114-0.2 0.256-0.217 0.425-0.001 0.009 0.001 0.019 0.005 0.028s0.010 0.016 0.018 0.022c0.008 0.005 0.017 0.009 0.026 0.009s0.019-0.001 0.028-0.005l0.085-0.040c0.010-0.005 0.021-0.007 0.031-0.006s0.021 0.004 0.031 0.009 0.017 0.014 0.022 0.023c0.005 0.009 0.008 0.020 0.008 0.031l0.007 0.489z"></path>
<path fill="#fff" d="M38.724 15.562c0.045 0.042 0.071 0.091 0.080 0.145-0.414 0.872-0.833 1.911-2.037 1.175-0.045-0.028-0.080-0.070-0.097-0.12s-0.018-0.104-0.001-0.155l0.301-0.875c0.005-0.014 0.012-0.026 0.023-0.035s0.023-0.017 0.037-0.021c0.565-0.165 1.13-0.203 1.695-0.114z"></path>
<path fill="#fff" d="M47.691 16.123c-0.393 0.639-0.776 1.278-1.613 0.987-0.26-0.049-0.438-0.173-0.535-0.371-0.019-0.038-0.019-0.077-0.002-0.116l0.348-0.831c0.018-0.043 0.050-0.069 0.097-0.079 0.573-0.112 1.138-0.082 1.694 0.089 0.047 0.014 0.073 0.046 0.077 0.095 0.006 0.083-0.016 0.158-0.065 0.226z"></path>
<path fill="#fff" d="M26.665 16.224c0.002 0.006 0.005 0.011 0.007 0.016-0.061 0.111-0.090 0.224-0.086 0.339-0.455 1.758-0.787 3.54-0.997 5.348-0.068 0.593-0.496 2.471 0.232 2.696 0.143 0.022 0.288-0.042 0.437-0.191l0.266-0.372c0.162-0.418 0.321-0.842 0.477-1.274 0.282-0.784 0.45-1.753 0.993-2.603 0.63-0.986 1.775-1.517 2.92-1.54 0.285-0.006 0.549 0.11 0.821 0.197 0.026 0.008 0.053 0.006 0.077-0.005s0.043-0.031 0.053-0.056l0.142-0.359c0.009-0.025 0.028-0.046 0.052-0.057 0.537-0.257 1.104-0.363 1.7-0.319 0.010 0.001 0.019 0.003 0.027 0.008s0.016 0.011 0.022 0.018c0.006 0.008 0.010 0.016 0.013 0.026s0.003 0.019 0.002 0.029l-0.011 0.069c-0.271 0.81-1.167 3.87-0.583 4.398 0.141 0.127 0.286 0.144 0.434 0.051 0.406-0.073 0.812-1.166 1.035-1.641 0.459-0.976 0.765-2.043 1.128-3.083 0.008-0.023 0.022-0.044 0.040-0.062s0.040-0.030 0.063-0.037c0.545-0.164 1.103-0.201 1.673-0.112 0.050 0.007 0.067 0.035 0.051 0.084l-0.18 0.53c-0.36 0.959-1.268 3.421-0.793 3.894 0.51 0.507 1.197-0.764 1.348-1.106 0.139-0.288 0.752-1.481 1.161-1.585 0.033-0.008 0.067-0.003 0.096 0.013 0.19 0.105 0.332 0.079 0.426-0.079 0.472-0.792 0.82-1.691 1.374-2.422 0.036-0.048 0.085-0.068 0.145-0.060 0.385 0.052 0.763 0.155 1.132 0.31 0.087 0.037 0.111 0.095 0.073 0.174-0.175 1.29 0.545 2.51 0.402 3.772-0.218 1.921-1.427 2.629-3.255 2.45-0.577-0.057-1.017-0.327-1.32-0.81-0.019-0.031-0.046-0.057-0.077-0.076s-0.066-0.031-0.103-0.034c-0.036-0.003-0.073 0.002-0.107 0.015s-0.065 0.034-0.089 0.061c-0.711 0.774-1.376 1.364-2.494 1.078-0.25-0.183-0.432-0.403-0.546-0.661-0.018-0.040-0.046-0.074-0.082-0.099s-0.078-0.039-0.122-0.042-0.087 0.007-0.126 0.028c-0.038 0.021-0.070 0.052-0.092 0.090-0.53 0.913-2.152 2.004-2.878 0.567-0.019-0.037-0.048-0.069-0.084-0.091s-0.077-0.034-0.119-0.035-0.083 0.010-0.119 0.032c-0.036 0.021-0.066 0.052-0.086 0.089l-0.311 0.58c-0.781 0.795-2.474 1.332-3.282 0.252-0.024-0.033-0.056-0.059-0.093-0.076s-0.078-0.025-0.118-0.022c-0.041 0.002-0.080 0.015-0.114 0.037s-0.063 0.051-0.083 0.087c-0.535 0.936-1.024 1.582-2.113 1.823-1.052-0.197-1.256-0.889-1.286-1.901-0.067-2.298 0.414-4.436 0.837-6.694l0.324-1.564 0.161-0.169 0.528-0.234c0.323-0.132 0.665-0.188 1.026-0.167 0.045 0.002 0.071 0.026 0.080 0.071 0.023 0.111 0.013 0.246-0.028 0.405zM40.906 19.368c-0.247-0.050-0.498 0.462-0.585 0.644-0.019 0.039-0.017 0.077 0.005 0.113l0.123 0.208c0.005 0.009 0.009 0.019 0.010 0.029s0 0.021-0.003 0.031-0.009 0.019-0.016 0.026c-0.007 0.008-0.016 0.014-0.026 0.017-0.275 0.112-0.59 0.221-0.778 0.448-0.494 0.597-0.318 1.634 0.67 1.408 1.24-0.282 0.962-1.781 0.825-2.716-0.017-0.112-0.092-0.181-0.225-0.208zM29.394 23.89c0.177 0.031 0.324 0.030 0.44-0.001 1.259-0.248 1.607-2.168 1.666-3.216 0.025-0.24 0-0.477-0.075-0.711-0.247-0.883-1.206-0.478-1.615 0.047-0.787 1.012-1.108 2.116-0.965 3.309 0.043 0.359 0.226 0.549 0.549 0.571z"></path>
<path fill="#797aac" d="M26.525 24.060l-0.266 0.372c-0.273-0.113-0.38-0.278-0.321-0.495 0.226-0.842 0.304-1.734 0.472-2.589 0.305-1.55 0.533-3.105 0.875-4.648 0.040-0.178-0.022-0.353-0.185-0.523-0.027-0.028-0.046-0.060-0.057-0.096-0.030-0.097-0.095-0.129-0.193-0.097-0.045 0.015-0.062-0.001-0.052-0.047 0.015-0.071 0.041-0.101 0.078-0.091 0.252 0.067 0.485 0.095 0.562 0.338 0.14 0.444 0.068 0.902-0.215 1.374-0.020 0.034-0.029 0.073-0.027 0.112 0.028 0.438-0.169 0.79-0.204 1.161-0.045 0.465-0.091 0.929-0.14 1.392-0.002 0.022-0.009 0.039-0.019 0.052-0.007 0.008-0.016 0.016-0.026 0.024-0.011 0.010-0.018 0.022-0.021 0.038-0.065 0.45-0.165 0.892-0.299 1.325-0.063 0.206-0.068 0.461-0.146 0.734-0.118 0.418-0.14 0.911-0.066 1.48 0.005 0.037 0.023 0.064 0.056 0.082l0.196 0.105z"></path>
<path fill="#a0a0cc" d="M25.499 15.911c0.019-0.005 0.049-0.004 0.088 0.004l-0.528 0.234c0.075-0.137 0.221-0.216 0.44-0.237z"></path>
<path fill="#696894" d="M47.691 16.123c0.266 0.669 0.213 1.267-0.454 1.616-0.036 0.019-0.058 0.047-0.067 0.086-0.062 0.259-0.076 0.522-0.043 0.79 0.005 0.039-0.005 0.078-0.028 0.11-0.094 0.131-0.339 0.724-0.386 0.756-0.027 0.018-0.039 0.011-0.035-0.021l0.017-0.17c0.001-0.006-0.001-0.013-0.005-0.018s-0.010-0.009-0.016-0.009c-0.006-0.001-0.013 0.001-0.018 0.005s-0.008 0.010-0.009 0.016c-0.042 0.216-0.135 0.407-0.277 0.573-0.028 0.032-0.043 0.070-0.046 0.113-0.013 0.202-0.098 0.363-0.255 0.482-0.034 0.025-0.061 0.057-0.080 0.095-0.096 0.195-0.2 0.307-0.238 0.527-0.041 0.229-0.092 0.454-0.153 0.675-0.023 0.083-0.005 0.146 0.055 0.187 0.031 0.021 0.033 0.045 0.006 0.072-0.030 0.030-0.082 0.047-0.157 0.052-0.079-0.019-0.152-0.073-0.218-0.162l0.185 0.028c0.056 0.008 0.076-0.015 0.061-0.069-0.113-0.409 0.142-0.97 0.366-1.335 0.42-0.681 0.663-1.304 0.888-2.068 0.057-0.192 0.012-0.288-0.134-0.288l0.167-0.477c0.003-0.010 0.005-0.020 0.004-0.030s-0.004-0.020-0.009-0.029c-0.005-0.009-0.012-0.017-0.020-0.023s-0.017-0.011-0.027-0.013l-0.44-0.1-0.479-0.156c-0.047-0.015-0.071-0.047-0.072-0.096-0.001-0.077 0.101-0.121 0.307-0.131 0.837 0.291 1.22-0.348 1.613-0.987z"></path>
<path fill="#696894" d="M27.070 17.069c-0.169 0.39-0.275 0.816-0.316 1.276-0.022 0.241-0.059 0.476-0.112 0.707-0.054 0.235-0.092 0.473-0.113 0.714-0.023 0.271-0.178 0.504-0.18 0.777 0 0.092-0.034 0.159-0.101 0.201 0.018-0.219 0.031-0.437 0.039-0.653 0.015-0.381 0.14-0.695 0.2-1.079 0.071-0.448 0.245-0.734 0.18-1.228-0.005-0.040 0.002-0.080 0.019-0.116 0.209-0.427 0.274-0.788 0.195-1.085-0.040-0.151-0.105-0.217-0.195-0.197l-0.013-0.147c-0.002-0.005-0.005-0.010-0.007-0.016 0.44-0.183 0.433 0.577 0.405 0.846z"></path>
<path fill="#a0a0cc" d="M26.672 16.24l0.013 0.147c-0.019 0.101-0.053 0.165-0.1 0.192-0.003-0.115 0.026-0.228 0.086-0.339z"></path>
<path fill="#fff" d="M49.885 16.394c0.14 0.37 0.191 0.624 0.156 0.762-0.121 0.463-0.114 0.857 0.019 1.183 0.244 0.063 0.399 0.095 0.465 0.095 0.117 0.001 0.18-0.042 0.189-0.128 0.113-0.211 0.312-0.281 0.599-0.209 0.402 0.1 1.025 0.243 1.108 0.646-0.027 0.044-0.038 0.082-0.034 0.114-0.045 0.062-0.064 0.109-0.056 0.142-0.501 0.81-1.521 2.533-1.264 3.271 0.305 0.338 0.624 0.193 0.913-0.086 0.42-0.409 0.812-0.845 1.175-1.308 0.262-0.336 0.829-1.13 1.142-0.599-0.008 0.073-0.001 0.119 0.021 0.139-0.758 1.487-2.326 3.526-4.145 3.501-0.271-0.004-0.479-0.141-0.717-0.262-0.183-0.174-0.32-0.45-0.411-0.83 0.009-0.273 0.046-0.52 0.112-0.741 0.123-0.416 0.325-0.966 0.606-1.651 0.114-0.325 0.256-0.647 0.428-0.965 0.048-0.088 0.028-0.179-0.058-0.271l-0.484-0.282c-0.050-0.028-0.108-0.038-0.164-0.025s-0.105 0.045-0.139 0.091c-0.535 0.759-1.122 1.421-1.633 2.236-0.628 1.003-1.398 1.764-2.309 2.283-0.27 0.154-0.639 0.203-1.106 0.146-1.441-0.282-0.889-1.924-0.709-2.846l1.403-3.191c0.019-0.043 0.051-0.065 0.097-0.067l1.235-0.047 0.44 0.1c0.010 0.002 0.019 0.007 0.027 0.013s0.015 0.014 0.020 0.023c0.005 0.009 0.008 0.019 0.009 0.029s-0.001 0.020-0.004 0.030l-0.167 0.477c-0.414 0.673-1.734 3.167-1.366 3.733 0.066 0.089 0.138 0.143 0.218 0.162 0.039 0.102 0.112 0.13 0.219 0.083 0.268-0.116 0.526-0.334 0.774-0.655 0.791-1.016 1.539-2.062 2.244-3.138 0.018-0.027 0.029-0.059 0.031-0.092s-0.004-0.066-0.019-0.096c-0.38-0.774-0.066-2.414 1.136-1.768z"></path>
<path fill="#797aac" d="M52.42 18.742c-0.084-0.403-0.707-0.546-1.108-0.646-0.286-0.071-0.486-0.002-0.599 0.209-0.169 0.058-0.387 0.069-0.653 0.033-0.134-0.325-0.14-0.72-0.019-1.183 0.036-0.138-0.016-0.392-0.156-0.762 0.033 0.002 0.063-0.011 0.089-0.039 0.023-0.026 0.051-0.030 0.082-0.013 0.189 0.112 0.437 0.136 0.596 0.259 0.26 0.202 0.315 0.753 0.342 1.035 0.006 0.068 0.035 0.131 0.083 0.179s0.11 0.078 0.177 0.085c0.377 0.040 0.732 0.159 1.065 0.359 1.275 0.764 0.393 1.998-0.158 2.814-0.144 0.212-0.218 0.431-0.223 0.655-0.001 0.028-0.014 0.049-0.039 0.062l-0.027 0.015c-0.001 0-0.002 0-0.003 0s-0.002-0-0.003-0.001-0.002-0.001-0.002-0.002-0.001-0.002-0.001-0.003c0.026-0.54 0.462-1.258 0.7-1.755 0.095-0.198 0.251-0.347 0.287-0.537 0.060-0.305 0.040-0.875-0.429-0.767z"></path>
<path fill="#797aac" d="M24.898 16.317l-0.324 1.564c-0.164 0.161-0.314 0.237-0.449 0.226-0.042-0.003-0.079 0.009-0.111 0.035-0.091 0.077-0.148 0.174-0.172 0.292-0.011 0.055-0.042 0.091-0.095 0.108l-0.169 0.056c-0.033 0.011-0.064 0.026-0.092 0.046-0.472 0.336-0.846 0.748-1.381 0.99-0.478 0.217-0.836 0.595-1.306 0.779-0.488 0.191-0.976 0.378-1.466 0.562-0.315 0.119-0.563 0.361-1.020 0.316-0.021-0.002-0.042-0-0.062 0.006s-0.039 0.016-0.055 0.030c-0.095 0.080-0.206 0.11-0.332 0.088-0.037-0.006-0.073-0.005-0.108 0.005l-1.627 0.444c-0.038 0.010-0.072 0.028-0.101 0.055-0.151 0.135-0.268 0.241-0.307 0.453-0.131 0.715-0.208 1.436-0.23 2.161-0.019 0.647 0.113 1.318 0.187 1.989 0.005 0.041 0.018 0.078 0.040 0.111 0.15 0.223 0.142 0.472 0.245 0.691 0.090 0.194 0.162 0.396 0.217 0.606 0.010 0.039 0.034 0.065 0.072 0.079 0.137 0.047 0.229 0.136 0.276 0.265-0.219-0.060-0.376-0.131-0.47-0.213-0.029-0.205-0.119-0.397-0.27-0.576-0.516-0.606-0.644-1.77-0.642-2.542 0.184-1.040 0.092-2.005 0.46-3.109 0.007-0.021 0.019-0.040 0.036-0.055s0.036-0.025 0.058-0.030c0.058-0.014 0.106-0.045 0.145-0.092 0.020-0.026 0.048-0.044 0.079-0.052l0.844-0.213 1.666-0.403c0.455-0.044 0.879-0.171 1.273-0.382 0.292-0.156 0.656-0.263 1.001-0.509 0.248-0.176 0.604-0.195 0.874-0.371 0.327-0.212 0.647-0.435 0.961-0.668 0.041-0.030 0.192-0.127 0.454-0.291 0.152-0.096 0.292-0.212 0.419-0.348 0.001-0.001 0.002-0.002 0.002-0.003s0.001-0.002 0.001-0.003c0-0.001 0-0.002-0-0.003s-0.001-0.002-0.002-0.003c-0.001-0.001-0.002-0.002-0.003-0.002s-0.002-0.001-0.003-0.001-0.002 0-0.003 0-0.002 0.001-0.003 0.002c-0.351 0.21-0.685 0.447-1.003 0.712-0.169 0.14-0.332 0.181-0.521 0.286-0.005 0.002-0.010 0.001-0.015-0.004-0.002-0.002-0.005-0.004-0.007-0.006-0.011-0.006-0.014-0.009-0.011-0.011 0.738-0.484 1.424-1.034 2.058-1.65 0.006-0.006 0.008-0.014 0.005-0.023-0.004-0.011-0.008-0.023-0.011-0.035-0.007-0.021-0.019-0.024-0.035-0.010-0.319 0.274-0.645 0.54-0.979 0.798-0.116 0.089-0.204 0.217-0.357 0.304-0.61 0.353-1.117 0.792-1.785 1.052-0.179 0.071-0.362 0.152-0.549 0.243 0.403-0.348 0.876-0.455 1.281-0.698 0.121-0.073 0.242-0.145 0.365-0.217 0.27-0.158 0.434-0.427 0.685-0.625 0.282-0.224 0.498-0.493 0.776-0.706 0.127-0.098 0.23-0.193 0.31-0.284 0.376-0.428 0.805-0.834 1.285-1.218z"></path>
<path fill="#464665" d="M26.247 20.745l-0.165 1.583c-0.26 0.668-0.365 1.345-0.316 2.031 0.003 0.041 0.022 0.078 0.052 0.105 0.092 0.080 0.094 0.133 0.004 0.159-0.729-0.225-0.301-2.104-0.232-2.696 0.209-1.807 0.541-3.59 0.997-5.348 0.047-0.028 0.080-0.092 0.1-0.192 0.090-0.019 0.155 0.046 0.195 0.197 0.079 0.297 0.015 0.659-0.195 1.085-0.018 0.036-0.024 0.076-0.019 0.116 0.064 0.494-0.11 0.78-0.18 1.228-0.060 0.384-0.185 0.698-0.2 1.079-0.008 0.217-0.021 0.434-0.039 0.653zM26.29 19.718c0.094-0.549 0.415-1.458 0.314-1.975 0-0.001-0-0.002-0-0.003s-0.001-0.002-0.002-0.003-0.002-0.002-0.003-0.002-0.002-0.001-0.003-0.001-0.002 0-0.003 0-0.002 0.001-0.003 0.002-0.002 0.002-0.002 0.003-0.001 0.002-0.001 0.003c-0.12 0.374-0.19 0.758-0.209 1.153-0.015 0.28-0.114 0.534-0.128 0.824-0.001 0.010 0.004 0.015 0.015 0.016 0.015 0 0.024-0.006 0.026-0.017zM26.155 20.233c-0.147 0.548-0.254 1.105-0.321 1.669-0.014 0.117-0.015 0.219-0.005 0.305 0.006 0.041 0.017 0.043 0.033 0.004 0.124-0.292 0.173-0.595 0.146-0.908-0.003-0.038 0.009-0.070 0.038-0.096 0.064-0.058 0.101-0.131 0.112-0.219 0.045-0.398 0.076-0.796 0.095-1.196 0-0.007-0.003-0.011-0.010-0.013-0.011-0.003-0.021-0.007-0.032-0.011s-0.017 0.001-0.017 0.013c-0.001 0.156 0.002 0.297-0.039 0.451z"></path>
<path fill="#797aac" d="M46.692 20.067c-0.006 0.034-0.032 0.054-0.080 0.060-0.028 0.003-0.041-0.009-0.041-0.037 0-0.203 0.142-0.339 0.197-0.471 0.204-0.494 0.44-0.866 0.51-1.454 0.069-0.583 0.605-0.645 0.762-1.194 0.005-0.019 0.012-0.020 0.021-0.003 0.006 0.011 0.006 0.023 0.002 0.034-0.050 0.165-0.1 0.332-0.15 0.5-0.011 0.038-0.030 0.071-0.057 0.1-0.33 0.347-0.158 0.697-0.361 1.095-0.113 0.221-0.236 0.436-0.37 0.645-0.128 0.2-0.174 0.476-0.395 0.662-0.019 0.017-0.032 0.038-0.036 0.062z"></path>
<path fill="#797aac" d="M27.070 17.069c-0.132 0.561-0.221 1.128-0.266 1.703-0.015 0.183-0.155 0.294-0.165 0.462-0.033 0.498-0.077 0.913-0.201 1.438-0.135 0.573-0.111 1.173-0.355 1.655l0.165-1.583c0.067-0.042 0.101-0.109 0.101-0.201 0.002-0.274 0.157-0.506 0.18-0.777 0.021-0.241 0.059-0.479 0.113-0.714 0.053-0.23 0.090-0.466 0.112-0.707 0.041-0.461 0.147-0.886 0.316-1.276z"></path>
<path fill="#696894" d="M38.861 17.062c-0.144 0.309-0.405 0.501-0.784 0.577l0.784-0.577z"></path>
<path fill="#464665" d="M42.436 17.461c0.042-0.035 0.086 0.016 0.131 0.152 0.105 0.784 0.265 1.632 0.481 2.547 0.154 0.652 0.095 1.294-0.179 1.926-0.016 0.037-0.013 0.071 0.010 0.103 0.088 0.126 0.096 0.235 0.023 0.329-0.218 0.28-0.369 0.597-0.571 0.878-0.345 0.261-0.716 0.454-1.113 0.578-0.478-0.083-0.943 0.064-1.425 0.080-0.040 0.001-0.075-0.011-0.107-0.035-0.141-0.112-0.374-0.117-0.515-0.181-0.562-0.258-0.927-0.673-1.456 0.011-0.52 0.142-0.921 0.472-1.483 0.46-0.165-0.004-0.241-0.114-0.432-0.096-0.034 0.003-0.069-0.002-0.102-0.015-0.238-0.093-0.34-0.187-0.305-0.281 1.118 0.286 1.784-0.304 2.494-1.078 0.025-0.027 0.055-0.048 0.089-0.061s0.071-0.018 0.107-0.015 0.072 0.015 0.103 0.034c0.031 0.019 0.057 0.045 0.077 0.076 0.303 0.483 0.743 0.754 1.32 0.81 1.828 0.179 3.037-0.529 3.255-2.45 0.144-1.262-0.577-2.482-0.402-3.772z"></path>
<path fill="#797aac" d="M42.567 17.613c0.541-0.029 0.314 0.691 0.434 0.979 0.151 0.363 0.187 0.711 0.353 1.062 0.016 0.034 0.020 0.072 0.013 0.11-0.104 0.518-0.031 0.863 0.219 1.034-0.18 0.922-0.731 2.564 0.709 2.846-0.14 0.018-0.286 0.001-0.438-0.051-0.010-0.003-0.021-0.004-0.031-0s-0.019 0.009-0.026 0.017c-0.006 0.008-0.010 0.018-0.011 0.029s0.002 0.021 0.008 0.030l0.049 0.079c0.023 0.037 0.056 0.057 0.1 0.058 0.274 0.014 0.515 0.107 0.722 0.281 0.033 0.028 0.072 0.042 0.116 0.040 0.827-0.023 1.496-0.324 2.005-0.904 0.217-0.194 0.427-0.395 0.63-0.602 0.185-0.189 0.259-0.409 0.431-0.623 0.412-0.512 0.722-1.072 1.029-1.65 0.133-0.35 0.691-1.070 1.163-0.937 0.050 0.015 0.077-0.004 0.079-0.056l0.010-0.159c0.087 0.092 0.106 0.183 0.058 0.271-0.172 0.318-0.315 0.64-0.428 0.965-0.399 0.253-0.741 0.57-1.026 0.95-0.145 0.195-0.217 0.532-0.501 0.725-0.032 0.023-0.058 0.052-0.075 0.088-0.262 0.548-0.835 0.953-1.253 1.377-0.208 0.21-1.186 0.745-1.472 0.803-0.446 0.090-0.879 0.041-1.298-0.146-0.038-0.017-0.068-0.043-0.090-0.077-0.114-0.174-0.56-0.327-0.605-0.498-0.068-0.259-0.203-0.3-0.404-0.123-0.217 0.191-0.394 0.316-0.695 0.493-0.1 0.058-0.187 0.133-0.26 0.226-0.023 0.030-0.054 0.051-0.090 0.063-0.23 0.079-0.449 0.186-0.656 0.319-0.019 0.012-0.040 0.019-0.062 0.021s-0.045-0.002-0.065-0.011c-0.108-0.047-0.213-0.039-0.316 0.026-0.041 0.026-0.086 0.037-0.135 0.034-0.427-0.028-0.853-0.069-1.276-0.124-0.4-0.052-0.526-0.327-0.877-0.434-0.272-0.084-0.518-0.042-0.74 0.125-0.438 0.332-0.74 0.595-1.297 0.619-0.473 0.021-0.921-0.079-1.345-0.302-0.032-0.017-0.058-0.042-0.077-0.074-0.063-0.109-0.161-0.132-0.292-0.069-0.214 0.103-0.388 0.234-0.522 0.392-0.025 0.030-0.057 0.050-0.095 0.058-0.422 0.103-0.664 0.5-1.129 0.468-0.292-0.020-0.576-0.077-0.853-0.17-0.039-0.013-0.071-0.036-0.095-0.069-0.067-0.090-0.152-0.141-0.257-0.152-0.041-0.004-0.076 0.007-0.107 0.033-0.365 0.299-0.745 0.58-1.139 0.842-0.371 0.247-0.911 0.224-1.346 0.292-0.141 0.022-0.347-0.039-0.513 0.066-0.033 0.021-0.069 0.025-0.106 0.011l-0.813-0.291c-0.053-0.019-0.111-0.021-0.165-0.005s-0.102 0.047-0.137 0.091c-0.449 0.56-1.023 0.987-1.72 1.282-0.325 0.137-0.586 0.044-0.899-0.064-0.009-0.003-0.016-0.009-0.020-0.017s-0.005-0.017-0.003-0.026c0.002-0.009 0.007-0.016 0.015-0.022s0.017-0.007 0.025-0.006c0.452 0.074 0.869-0.025 1.251-0.297 0.338-0.052 0.659-0.382 0.926-0.639 0.029-0.028 0.050-0.060 0.062-0.097 0.156-0.487 0.53-0.58 0.972-0.367 0.72 0.348 1.66 0.242 2.362-0.102 0.363-0.178 1.101-1.212 1.487-0.765 0.031 0.035 0.069 0.052 0.116 0.052 0.1-0.001 0.172 0.040 0.218 0.123 0.018 0.033 0.047 0.058 0.083 0.072 0.084 0.032 0.169 0.032 0.255 0.001 0.033-0.012 0.067-0.013 0.102-0.002 0.601 0.179 1.115-0.192 1.622-0.552 0.030-0.022 0.053-0.050 0.068-0.083 0.285-0.6 0.958-0.024 1.286 0.196 0.033 0.022 0.072 0.033 0.112 0.034 0.511 0.001 1.009 0.073 1.449-0.286 0.047-0.038 0.041-0.055-0.019-0.050-0.044 0.003-0.079 0.022-0.106 0.056-0.026 0.032-0.058 0.056-0.097 0.071-0.721 0.28-1.357 0.185-1.908-0.285-0.235-0.2-0.468-0.281-0.649 0.026-0.148 0.252-0.376 0.433-0.683 0.543-0.15 0.054-0.155 0.042-0.015-0.034 0.136-0.073 0.267-0.183 0.393-0.33 0.187-0.22 0.919-0.868 1.072-0.219 0.011 0.041 0.034 0.073 0.071 0.096 0.394 0.236 0.812 0.325 1.253 0.265 0.437-0.058 0.838-0.477 1.194-0.745 0.009-0.007 0.008-0.012-0.004-0.013-0.037-0.006-0.081 0.002-0.131 0.024 0.529-0.684 0.894-0.269 1.456-0.011 0.141 0.064 0.374 0.069 0.515 0.181 0.032 0.024 0.067 0.036 0.107 0.035 0.482-0.016 0.947-0.163 1.425-0.080 0.431 0.005 0.802-0.188 1.113-0.578 0.202-0.281 0.353-0.599 0.571-0.878 0.073-0.093 0.065-0.203-0.023-0.329-0.023-0.032-0.026-0.067-0.010-0.103 0.273-0.632 0.333-1.274 0.179-1.926-0.216-0.914-0.376-1.763-0.481-2.547zM42.64 23.105c-0.085 0.079-0.141 0.176-0.167 0.292-0.019 0.087-0.004 0.093 0.045 0.019l0.253-0.387c0.005-0.008 0.008-0.017 0.007-0.027s-0.005-0.018-0.012-0.025-0.016-0.011-0.025-0.012c-0.010-0.001-0.019 0.002-0.027 0.007-0.022 0.014-0.034 0.032-0.036 0.056-0.003 0.030-0.016 0.055-0.039 0.075zM40.999 24.23c0.534 0.012 1.021-0.285 1.47-0.539 0.033-0.019 0.057-0.046 0.071-0.082 0.058-0.147 0.141-0.279 0.251-0.395 0.006-0.006 0.010-0.013 0.010-0.019 0-0.010-0.004-0.020-0.011-0.030s-0.013-0.011-0.018 0c-0.397 0.631-1.107 0.851-1.773 1.060-0.012 0.004-0.012 0.006 0.001 0.006z"></path>
<path fill="#696894" d="M18.435 20.99l0.685-0.251c0.004-0.002 0.008-0.005 0.010-0.009s0.003-0.009 0.002-0.013c-0.001-0.004-0.004-0.008-0.007-0.011s-0.008-0.004-0.013-0.003c-0.343 0.047-0.599 0.217-0.924 0.313-0.001 0-0.002 0.001-0.003 0.001s-0.002-0-0.003-0-0.004-0.002-0.005-0.005c-0.001-0.002-0.001-0.005-0-0.007s0.002-0.004 0.005-0.005c0.285-0.166 0.589-0.283 0.914-0.35 0.039-0.007 0.076-0.021 0.111-0.040l0.99-0.545c0.187-0.092 0.37-0.173 0.549-0.243 0.668-0.26 1.175-0.7 1.785-1.052 0.152-0.088 0.241-0.215 0.357-0.304 0.334-0.258 0.661-0.524 0.979-0.798 0.016-0.015 0.028-0.011 0.035 0.010 0.003 0.012 0.007 0.024 0.011 0.035 0.003 0.009 0.002 0.017-0.005 0.023-0.634 0.616-1.319 1.166-2.058 1.65-0.003 0.002 0 0.005 0.011 0.011 0.002 0.002 0.005 0.004 0.007 0.006 0.005 0.005 0.010 0.006 0.015 0.004 0.189-0.105 0.352-0.146 0.521-0.286 0.317-0.265 0.651-0.502 1.003-0.712 0.001-0.001 0.002-0.001 0.003-0.002s0.002-0 0.003-0 0.002 0 0.003 0.001 0.002 0.001 0.003 0.002c0.001 0.001 0.001 0.002 0.002 0.003s0 0.002 0 0.003c-0 0.001-0 0.002-0.001 0.003s-0.001 0.002-0.002 0.003c-0.127 0.136-0.266 0.252-0.419 0.348-0.262 0.164-0.413 0.261-0.454 0.291-0.314 0.233-0.634 0.455-0.961 0.668-0.27 0.176-0.625 0.195-0.874 0.371-0.346 0.246-0.709 0.353-1.001 0.509-0.393 0.211-0.818 0.338-1.273 0.382z"></path>
<path fill="#696894" d="M26.604 17.743c0.101 0.517-0.22 1.426-0.314 1.975-0.002 0.011-0.010 0.017-0.026 0.017-0.011-0.001-0.015-0.006-0.015-0.016 0.013-0.29 0.113-0.544 0.128-0.824 0.019-0.395 0.089-0.78 0.209-1.153 0-0.001 0-0.002 0.001-0.003s0.001-0.002 0.002-0.003 0.002-0.001 0.003-0.002 0.002-0 0.003-0 0.002 0 0.003 0.001 0.002 0.001 0.003 0.002 0.001 0.002 0.002 0.003 0 0.002 0 0.003z"></path>
<path fill="#464665" d="M46.648 18.164c0.146 0.001 0.191 0.097 0.134 0.288-0.225 0.764-0.468 1.387-0.888 2.068-0.224 0.365-0.479 0.926-0.366 1.335 0.015 0.054-0.005 0.078-0.061 0.069l-0.185-0.028c-0.367-0.566 0.953-3.060 1.366-3.733z"></path>
<path fill="#696894" d="M33.813 18.194c0.012-0.006 0.030-0.006 0.052 0 0.014 0.003 0.021 0.012 0.021 0.027 0 0.011 0 0.023 0 0.034 0 0.016 0.008 0.027 0.024 0.032 0.644 0.179 0.403 0.997 0.263 1.464-0.059 0.196-0.103 0.452-0.133 0.768-0.022 0.239-0.073 0.486-0.153 0.741-0.15 0.475-0.224 0.937-0.223 1.385-0.148 0.093-0.293 0.076-0.434-0.051-0.584-0.528 0.311-3.588 0.583-4.398zM33.991 19.522c-0.046 0.262-0.117 0.579-0.135 0.826-0.008 0.115 0.006 0.119 0.043 0.010 0.092-0.269 0.139-0.546 0.141-0.831 0-0.003 0-0.006-0.001-0.009s-0.002-0.006-0.004-0.008-0.010-0.008-0.017-0.009c-0.006-0.001-0.013 0.001-0.018 0.005s-0.008 0.010-0.009 0.016z"></path>
<path fill="#696894" d="M37.868 19.042c-0.018 0.238-0.104 0.426-0.259 0.565-0.028 0.025-0.044 0.056-0.050 0.092-0.030 0.213-0.095 0.414-0.193 0.604-0.019 0.035-0.026 0.072-0.021 0.112 0.028 0.257-0.036 0.453-0.192 0.588 0.277-0.896 0.471-1.779 0.579-2.648 0.005-0.045 0.023-0.051 0.055-0.019l0.040 0.039c0.014 0.015 0.020 0.032 0.018 0.052l-0.072 0.617c-0.001 0.006-0.003 0.011-0.007 0.016-0.040 0.047-0.066 0.099-0.078 0.155-0.001 0.005 0 0.011 0.003 0.016s0.007 0.009 0.012 0.011c0.005 0.002 0.011 0.002 0.016 0.001s0.010-0.005 0.013-0.009l0.136-0.19z"></path>
<path fill="#a0a0cc" d="M50.713 18.306c-0.009 0.086-0.072 0.129-0.189 0.128-0.066 0-0.221-0.032-0.465-0.095 0.267 0.036 0.485 0.025 0.653-0.033z"></path>
<path fill="#696894" d="M52.386 18.857c0.866 0.052-0.125 1.169-0.243 1.414-0.067 0.139-0.14 0.277-0.218 0.415 0.092-0.24 0.101-0.456 0.245-0.674 0.147-0.224 0.566-0.891 0.161-1.012-0.008-0.033 0.011-0.081 0.056-0.142z"></path>
<path fill="#464665" d="M50.132 19.197l-0.010 0.159c-0.002 0.052-0.029 0.071-0.079 0.056-0.472-0.133-1.031 0.586-1.163 0.937-0.461 0.277-0.616 0.714-0.859 1.029-0.268 0.348-0.484 0.764-0.829 1.049-0.315 0.263-0.522 0.663-0.784 0.882-0.217 0.182-0.45 0.34-0.701 0.476-0.036 0.019-0.073 0.031-0.113 0.034-0.091 0.007-0.168 0.038-0.232 0.092-0.054 0.045-0.046 0.060 0.023 0.046 0.537-0.11 1.005-0.355 1.404-0.734-0.509 0.58-1.178 0.881-2.005 0.904-0.044 0.002-0.082-0.012-0.116-0.040-0.207-0.174-0.447-0.267-0.722-0.281-0.044-0.002-0.077-0.021-0.1-0.058l-0.049-0.079c-0.006-0.009-0.008-0.019-0.008-0.030s0.005-0.021 0.011-0.029c0.007-0.008 0.015-0.014 0.026-0.017s0.021-0.003 0.031 0.001c0.152 0.052 0.298 0.069 0.438 0.051 0.467 0.057 0.836 0.008 1.106-0.146 0.912-0.519 1.682-1.28 2.309-2.283 0.511-0.815 1.097-1.477 1.633-2.236 0.033-0.047 0.083-0.079 0.139-0.091s0.114-0.003 0.164 0.026l0.484 0.282z"></path>
<path fill="#464665" d="M52.33 18.999c0.405 0.122-0.013 0.788-0.161 1.012-0.144 0.218-0.152 0.434-0.245 0.674l-0.593 1.198c-0.011 0.023-0.017 0.047-0.017 0.073v0.344c-0 0.010-0.003 0.019-0.007 0.028s-0.012 0.016-0.020 0.021-0.017 0.008-0.027 0.008c-0.010 0-0.019-0.002-0.028-0.006l-0.168-0.083c-0.257-0.737 0.763-2.46 1.264-3.271z"></path>
<path fill="#696894" d="M40.321 20.012c0.088-0.181 0.338-0.694 0.585-0.644 0.133 0.027 0.208 0.096 0.225 0.208 0.138 0.934 0.415 2.433-0.825 2.716-0.988 0.226-1.164-0.81-0.67-1.408 0.187-0.226 0.502-0.336 0.778-0.448 0.010-0.004 0.019-0.010 0.026-0.017s0.013-0.017 0.016-0.026 0.005-0.020 0.003-0.031c-0.001-0.010-0.005-0.020-0.010-0.029l-0.123-0.208c-0.022-0.037-0.023-0.074-0.005-0.113zM39.793 21.212c0.122-0.066 0.21-0.163 0.264-0.288 0.019-0.043 0.007-0.054-0.034-0.032-0.196 0.103-0.334 0.258-0.415 0.465-0.002 0.004-0.003 0.009-0.002 0.013s0.003 0.008 0.006 0.011c0.003 0.003 0.007 0.005 0.012 0.005s0.009-0 0.013-0.003c0.046-0.023 0.078-0.057 0.095-0.103 0.011-0.030 0.032-0.053 0.061-0.068z"></path>
<path fill="#464665" d="M31.424 19.963l-0.259-0.116c-0.040-0.018-0.079-0.018-0.119 0l-0.439 0.2c-0.343 0.153-0.589 0.335-0.737 0.545-0.197 0.28-0.793 1.318-0.718 1.785 0.001 0.008 0.005 0.015 0.010 0.020s0.012 0.009 0.020 0.009c0.008 0.001 0.015-0.001 0.022-0.005s0.011-0.010 0.014-0.017c0.251-0.64 0.337-1.133 0.792-1.762l0.639-0.534c0.002-0.002 0.005-0.002 0.008-0.002s0.006 0.001 0.008 0.003 0.004 0.005 0.004 0.007c0.001 0.003 0 0.006-0.001 0.009-0.076 0.118-0.193 0.239-0.352 0.365-0.76 0.605-1.042 1.96-0.982 2.881 0.006 0.096 0.070 0.211 0.19 0.347 0.013 0.015 0.021 0.034 0.022 0.053s-0.005 0.039-0.017 0.055c-0.024 0.033-0.069 0.061-0.135 0.084-0.323-0.022-0.506-0.212-0.549-0.571-0.144-1.194 0.178-2.297 0.965-3.309 0.409-0.526 1.368-0.931 1.615-0.047z"></path>
<path fill="#797aac" d="M33.855 20.349c0.018-0.247 0.089-0.565 0.135-0.826 0.001-0.007 0.004-0.012 0.009-0.017s0.011-0.006 0.018-0.005c0.006 0.001 0.012 0.004 0.017 0.009s0.006 0.011 0.005 0.018c-0.002 0.285-0.050 0.562-0.141 0.831-0.036 0.109-0.051 0.105-0.043-0.010z"></path>
<path fill="#696894" d="M26.155 20.233c0.041-0.155 0.038-0.296 0.039-0.451 0-0.012 0.006-0.017 0.017-0.013s0.021 0.008 0.032 0.011c0.006 0.002 0.010 0.007 0.010 0.013-0.019 0.4-0.050 0.799-0.095 1.196-0.011 0.088-0.048 0.161-0.112 0.219-0.028 0.026-0.041 0.058-0.038 0.096 0.027 0.313-0.022 0.616-0.146 0.908-0.016 0.039-0.027 0.038-0.033-0.004-0.011-0.087-0.009-0.189 0.005-0.305 0.067-0.565 0.174-1.121 0.321-1.669z"></path>
<path fill="#797aac" d="M31.424 19.963c0.075 0.234 0.101 0.47 0.075 0.711-0.167-0.041-0.33-0.124-0.488-0.249-0.014-0.012-0.032-0.019-0.051-0.020s-0.037 0.004-0.053 0.014c-0.629 0.397-1.117 1.508-1.211 2.195-0.062 0.448-0.016 0.873 0.136 1.276-0.117 0.032-0.264 0.032-0.44 0.001 0.066-0.023 0.111-0.051 0.135-0.084 0.012-0.016 0.018-0.035 0.017-0.055s-0.009-0.039-0.022-0.053c-0.12-0.136-0.183-0.251-0.19-0.347-0.060-0.921 0.221-2.276 0.982-2.881 0.158-0.126 0.275-0.247 0.352-0.365 0.001-0.003 0.002-0.006 0.001-0.009s-0.002-0.006-0.004-0.008-0.005-0.003-0.008-0.003c-0.003-0-0.006 0.001-0.008 0.002l-0.639 0.534 0.597-0.576 0.439-0.2c0.040-0.018 0.079-0.018 0.119 0l0.259 0.116z"></path>
<path fill="#464665" d="M10.412 19.865c0.592 0.517 1.289 0.861 2.089 1.033 0.31 0.067 0.27 0.236 0.217 0.492-0.252-0.228-0.523-0.389-0.815-0.483-0.681-0.22-1.038-0.389-1.499-0.871-0.077-0.101-0.074-0.158 0.009-0.17z"></path>
<path fill="#696894" d="M10.403 20.035c0.461 0.482 0.818 0.651 1.499 0.871 0.292 0.094 0.564 0.255 0.815 0.483-0.189 1.513-0.284 2.961-0.284 4.344 0 1.111 0.23 2.311 0.978 3.207 0.257 0.309 0.6 0.546 1.028 0.711 0.246 0.094 0.405 0.192 0.708 0.218 0.725 0.059 1.291-0.185 1.699-0.732 0.014-0.019 0.026-0.018 0.037 0.004 0.006 0.014 0.003 0.032-0.010 0.055-0.058 0.098-0.121 0.196-0.19 0.292-0.039 0.054-0.030 0.064 0.027 0.028 0.157-0.099 0.252-0.255 0.286-0.467 0.037-0.232-0.022-0.346-0.176-0.343l0.153-0.146c0.303 0.266 0.337 0.566 0.102 0.9-0.117 0.168-0.367 0.24-0.471 0.4-0.021 0.033-0.033 0.070-0.034 0.109s0.009 0.077 0.028 0.111c0.019 0.034 0.048 0.061 0.082 0.080s0.073 0.028 0.111 0.026c1.487-0.061 3.435-0.186 5.019-0.584 0.644-0.163 1.263-0.252 1.837-0.443 0.663-0.22 1.134-0.337 1.415-0.353 0.784-0.046 1.539-0.341 2.274-0.535 0.299-0.079 0.651-0.254 1.061-0.245 0.023 0.001 0.038-0.011 0.043-0.034 0.002-0.013 0.005-0.025 0.009-0.037 0.002-0.007 0.008-0.012 0.016-0.013 0.391-0.050 0.775-0.13 1.151-0.238 0.416-0.12 0.853-0.139 1.258-0.264 0.021-0.006 0.034-0.022 0.038-0.046 0.004-0.028 0.020-0.047 0.047-0.056 1.505-0.453 2.884-0.747 4.136-0.882 0.429-0.047 0.717-0.086 0.864-0.117 0.922-0.194 1.853-0.322 2.794-0.384 1.424-0.095 3.764-0.103 7.019-0.023 0.063 0.001 0.15 0.051 0.215 0.055 1.705 0.080 2.992 0.332 4.501 0.513 0.238 0.028 0.722 0.013 1.073 0.118 0.826 0.246 1.723 0.339 2.499 0.729 0.4 0.201 0.795 0.256 1.105 0.442 0.658 0.395 1.279 0.357 1.864-0.114 0-0 0.001-0.001 0.001-0.001s0.001-0 0.001 0 0.001 0 0.001 0.001 0 0.001-0 0.001c-0.002 0.010 0.003 0.019 0.016 0.027 0.009 0.006 0.017 0.005 0.023-0.002 0.302-0.333 0.419-0.692 0.673-0.933 0.030-0.029 0.051-0.065 0.060-0.105 0.067-0.318 0.303-0.586 0.406-0.787 0.452-0.882 0.848-1.788 1.188-2.718 0.229-0.625 0.324-1.421 0.694-2.122 0.048-0.090 0.119-0.127 0.214-0.111 0.034 0.006 0.051-0.009 0.050-0.044-0.004-0.092 0.038-0.168 0.127-0.225-0.29 2.869-1.219 6.811-3.376 8.837-0.028 0.028-0.060 0.031-0.095 0.011-1.244-0.716-2.511-1.216-3.8-1.5-1.735-0.382-3.741-0.711-5.602-0.854-3.020-0.234-6.171-0.304-9.183 0.069-1.549 0.193-2.971 0.41-4.266 0.65-1.349 0.251-2.983 0.724-4.161 1.032-1.877 0.489-3.756 0.97-5.638 1.442-5.292 1.325-10.567 1.318-15.87 0.573-1.271-0.178-3.606-0.666-4.705-1.717 0.33-0.649 1.904-0.058 2.57 0.123 0.742 0.203 1.497 0.34 2.263 0.411 0.586 0.056 1.197 0.2 1.807 0.243 1.060 0.075 2.121 0.125 3.182 0.152 0.043 0.001 0.080-0.014 0.111-0.044 0.284-0.287-0.398-0.823-0.585-1.056-0.016-0.019-0.023-0.043-0.022-0.067 0.002-0.064-0.025-0.105-0.082-0.122-0.039-0.011-0.071-0.033-0.096-0.064-0.451-0.572-0.707-1.782-0.686-2.502 0.040-1.483-0.004-2.822 0.299-4.398 0.003-0.018 0.002-0.037-0.004-0.054s-0.017-0.032-0.031-0.044c-0.154-0.126-0.326-0.209-0.517-0.249-0.039-0.008-0.076-0.026-0.107-0.054-0.135-0.118-0.291-0.187-0.468-0.206-0.041-0.004-0.077-0.019-0.108-0.046l-0.938-0.793c-0.037-0.031-0.056-0.070-0.060-0.118-0.008-0.115 0.022-0.206 0.091-0.274z"></path>
<path fill="#696894" d="M30.607 20.047l-0.597 0.576c-0.455 0.629-0.541 1.122-0.792 1.762-0.003 0.007-0.008 0.013-0.014 0.017s-0.014 0.006-0.022 0.005c-0.008-0.001-0.015-0.004-0.020-0.009s-0.009-0.012-0.010-0.020c-0.075-0.467 0.521-1.505 0.718-1.785 0.148-0.21 0.394-0.392 0.737-0.545z"></path>
<path fill="#797aac" d="M49.044 22.825c0.091 0.38 0.228 0.656 0.411 0.83-0.064 0.019-0.122-0.019-0.174-0.116-0.004-0.006-0.008-0.012-0.014-0.017s-0.012-0.008-0.019-0.010-0.014-0.002-0.022-0.001c-0.007 0.001-0.014 0.004-0.020 0.007l-0.036 0.021c-0.024 0.015-0.028 0.034-0.011 0.057 0.148 0.202 0.145 0.411 0.303 0.584 0.098 0.106 0.204 0.206 0.316 0.299 0.448 0.367 1.347 0.234 1.837 0.045 0.118-0.046 0.313-0.152 0.583-0.318 0.453-0.279 0.774-0.369 1.089-0.913 0.019-0.033 0.047-0.059 0.080-0.078 0.32-0.174 0.499-0.534 0.751-0.799 0.014-0.015 0.022-0.032 0.024-0.052l0.009-0.064c0.001-0.005-0-0.011-0.003-0.015s-0.006-0.008-0.011-0.011c-0.005-0.002-0.010-0.003-0.015-0.002s-0.009 0.004-0.012 0.008l-0.153 0.181c-0.011 0.012-0.019 0.011-0.024-0.005-0.004-0.011-0.003-0.022 0.004-0.034 0.171-0.31 0.376-0.597 0.614-0.86 0.027-0.029 0.041-0.063 0.043-0.101 0.022-0.403 0.203-0.636-0.112-1.009-0.028-0.032-0.062-0.047-0.103-0.043l-0.060 0.005c-0.022-0.019-0.029-0.066-0.021-0.139 0.645-0.111 0.785 0.515 0.669 0.992-0.052 0.214-0.238 0.333-0.257 0.612-0.002 0.040-0.019 0.078-0.047 0.107-0.061 0.062-0.104 0.123-0.129 0.181-0.178 0.416-0.495 0.6-0.729 0.925-0.191 0.266-0.409 0.507-0.653 0.724-0.029 0.026-0.062 0.042-0.1 0.049-0.162 0.028-0.179 0.159-0.276 0.248-0.354 0.325-0.759 0.539-1.215 0.642-0.662 0.147-1.2 0.243-1.787-0.134-0.085-0.054-0.178-0.096-0.28-0.124-0.020-0.005-0.036-0.018-0.047-0.035l-0.433-0.677c-0.020-0.032-0.027-0.066-0.019-0.103l0.038-0.184c0.004-0.018 0.001-0.037-0.009-0.054-0.149-0.26-0.142-0.467 0.023-0.622z"></path>
<path fill="#696894" d="M48.88 20.348c-0.308 0.578-0.617 1.138-1.029 1.65-0.172 0.214-0.246 0.434-0.431 0.623-0.204 0.208-0.414 0.408-0.63 0.602-0.399 0.379-0.867 0.623-1.404 0.734-0.069 0.014-0.077-0.002-0.023-0.046 0.064-0.054 0.142-0.085 0.232-0.092 0.040-0.003 0.078-0.015 0.113-0.034 0.251-0.135 0.484-0.294 0.701-0.476 0.262-0.219 0.468-0.619 0.784-0.882 0.344-0.285 0.561-0.701 0.829-1.049 0.243-0.315 0.398-0.752 0.859-1.029z"></path>
<path fill="#8889c2" d="M31.5 20.673c-0.058 1.048-0.406 2.968-1.666 3.216-0.152-0.403-0.198-0.829-0.136-1.276 0.094-0.687 0.582-1.798 1.211-2.195 0.016-0.010 0.034-0.015 0.053-0.014s0.036 0.008 0.051 0.020c0.158 0.126 0.321 0.209 0.488 0.249z"></path>
<path fill="#696894" d="M54.317 20.416l0.060-0.005c0.041-0.004 0.076 0.010 0.103 0.043 0.315 0.372 0.134 0.606 0.112 1.009-0.002 0.038-0.016 0.072-0.043 0.101-0.238 0.264-0.443 0.55-0.614 0.86-0.006 0.012-0.008 0.023-0.004 0.034 0.006 0.015 0.014 0.017 0.024 0.005l0.153-0.181c0.003-0.004 0.008-0.007 0.012-0.008s0.010-0.001 0.015 0.002c0.005 0.002 0.009 0.006 0.011 0.011s0.004 0.010 0.003 0.015l-0.009 0.064c-0.002 0.020-0.011 0.038-0.024 0.052-0.252 0.265-0.431 0.625-0.751 0.799-0.033 0.018-0.061 0.045-0.080 0.078-0.315 0.544-0.636 0.634-1.089 0.913-0.27 0.165-0.464 0.271-0.583 0.318-0.49 0.189-1.389 0.322-1.837-0.045-0.113-0.093-0.218-0.193-0.316-0.299-0.158-0.173-0.155-0.382-0.303-0.584-0.017-0.024-0.013-0.043 0.011-0.057l0.036-0.021c0.006-0.004 0.013-0.006 0.020-0.007s0.014-0 0.022 0.001c0.007 0.002 0.014 0.005 0.019 0.010s0.011 0.010 0.014 0.017c0.052 0.096 0.11 0.135 0.174 0.116 0.237 0.12 0.445 0.258 0.717 0.262 1.819 0.026 3.387-2.014 4.145-3.501zM52.798 22.996c-0.21 0.126-0.389 0.289-0.538 0.489-0.004 0.004-0.006 0.010-0.005 0.016s0.003 0.011 0.007 0.015c0.004 0.004 0.010 0.006 0.016 0.005s0.011-0.003 0.015-0.007l0.638-0.597c0.031-0.029 0.025-0.045-0.018-0.046-0.040-0.002-0.063 0.019-0.071 0.063-0.002 0.013-0.007 0.025-0.015 0.036s-0.017 0.020-0.029 0.026zM52.583 23.756c-0.265 0.273-0.584 0.303-0.844 0.512-0.251 0.201-0.717 0.234-1.020 0.319-0.047 0.013-0.046 0.021 0.002 0.024 0.782 0.049 1.466-0.437 1.997-0.871 0.208-0.17 0.369-0.455 0.629-0.647 0.007-0.005 0.009-0.012 0.004-0.021-0.004-0.007-0.013-0.014-0.026-0.021-0.011-0.006-0.020-0.005-0.029 0.004-0.311 0.294-0.647 0.552-1.010 0.775-0.024 0.015-0.025 0.031-0.001 0.046 0.016 0.010 0.035 0.009 0.057-0.006 0.072-0.048 0.145-0.095 0.219-0.142 0.088-0.057 0.095-0.047 0.022 0.028z"></path>
<path fill="#464665" d="M39.732 21.28c-0.017 0.046-0.049 0.081-0.095 0.103-0.004 0.002-0.008 0.003-0.013 0.003s-0.009-0.002-0.012-0.005c-0.003-0.003-0.005-0.007-0.006-0.011s-0-0.009 0.002-0.013c0.081-0.207 0.219-0.362 0.415-0.465 0.041-0.022 0.053-0.011 0.034 0.032-0.054 0.126-0.142 0.222-0.264 0.288-0.029 0.015-0.050 0.038-0.061 0.068z"></path>
<path fill="#696894" d="M16.769 21.393l-0.844 0.213c-0.031 0.008-0.059 0.026-0.079 0.052-0.039 0.048-0.087 0.079-0.145 0.092-0.022 0.005-0.041 0.015-0.058 0.030s-0.029 0.034-0.036 0.055c-0.367 1.104-0.276 2.068-0.46 3.109-0.136-0.65 0.067-1.133 0.103-1.722 0.074-1.175 0.131-1.762 1.518-1.83z"></path>
<path fill="#464665" d="M52.841 22.934c0.007-0.045 0.031-0.066 0.071-0.063 0.043 0.002 0.049 0.017 0.018 0.046l-0.638 0.597c-0.004 0.004-0.009 0.007-0.015 0.007s-0.012-0.002-0.016-0.006-0.007-0.009-0.007-0.015c-0-0.006 0.002-0.012 0.005-0.016 0.148-0.2 0.328-0.363 0.538-0.489 0.011-0.006 0.021-0.015 0.029-0.026s0.013-0.023 0.015-0.036z"></path>
<path fill="#696894" d="M42.679 23.029c0.002-0.024 0.015-0.042 0.036-0.056 0.008-0.005 0.017-0.008 0.027-0.007s0.018 0.005 0.025 0.012 0.011 0.015 0.012 0.025c0.001 0.009-0.002 0.019-0.007 0.027l-0.253 0.387c-0.049 0.074-0.064 0.067-0.045-0.019 0.026-0.116 0.082-0.213 0.167-0.292 0.023-0.020 0.036-0.046 0.039-0.075z"></path>
<path fill="#797aac" d="M52.562 23.728c-0.074 0.047-0.147 0.094-0.219 0.142-0.022 0.015-0.041 0.017-0.057 0.006-0.023-0.015-0.023-0.031 0.001-0.046 0.363-0.223 0.699-0.481 1.010-0.775 0.009-0.008 0.019-0.009 0.029-0.004 0.013 0.006 0.022 0.013 0.026 0.021 0.005 0.009 0.004 0.016-0.004 0.021-0.26 0.192-0.421 0.477-0.629 0.647-0.531 0.434-1.214 0.92-1.997 0.871-0.049-0.003-0.050-0.011-0.002-0.024 0.303-0.085 0.769-0.118 1.020-0.319 0.26-0.209 0.579-0.24 0.844-0.512 0.073-0.075 0.066-0.085-0.022-0.028z"></path>
<path fill="#696894" d="M35.392 23.918c-0.035 0.094 0.067 0.188 0.305 0.281 0.033 0.013 0.068 0.018 0.102 0.015 0.191-0.018 0.266 0.092 0.432 0.096 0.562 0.012 0.964-0.318 1.483-0.46 0.050-0.022 0.094-0.030 0.131-0.024 0.011 0.002 0.013 0.006 0.004 0.013-0.355 0.268-0.757 0.686-1.194 0.745-0.441 0.059-0.859-0.029-1.253-0.265-0.036-0.023-0.060-0.055-0.071-0.096-0.153-0.649-0.885-0.001-1.072 0.219-0.126 0.147-0.257 0.257-0.393 0.33-0.14 0.076-0.135 0.088 0.015 0.034 0.307-0.11 0.534-0.29 0.683-0.543 0.18-0.307 0.414-0.225 0.649-0.026 0.551 0.47 1.187 0.565 1.908 0.285 0.039-0.015 0.071-0.038 0.097-0.071 0.027-0.034 0.062-0.053 0.106-0.056 0.060-0.005 0.067 0.012 0.019 0.050-0.44 0.359-0.938 0.287-1.449 0.286-0.040-0.001-0.079-0.013-0.112-0.034-0.329-0.22-1.001-0.796-1.286-0.196-0.015 0.033-0.039 0.061-0.068 0.083-0.507 0.36-1.021 0.731-1.622 0.552-0.035-0.011-0.069-0.010-0.102 0.002-0.086 0.031-0.171 0.030-0.255-0.001-0.035-0.013-0.065-0.039-0.083-0.072-0.045-0.083-0.118-0.124-0.218-0.123-0.046 0-0.085-0.018-0.116-0.052-0.386-0.447-1.124 0.588-1.487 0.765-0.702 0.344-1.641 0.45-2.362 0.102-0.442-0.213-0.816-0.119-0.972 0.367-0.012 0.037-0.033 0.070-0.062 0.097-0.266 0.257-0.588 0.586-0.926 0.639 0.013-0.046 0.030-0.078 0.051-0.096 0.229-0.035 0.395-0.176 0.499-0.425 0.122-0.051 0.202-0.142 0.24-0.271 0.011-0.039 0.002-0.045-0.027-0.017-0.421 0.392-1.111 1.091-1.751 0.815 0.284-0.097 0.563-0.069 0.812-0.179 0.589-0.26 0.932-0.892 1.377-1.334 0.236-0.236 0.495-0.24 0.704 0.016 0.027 0.032 0.061 0.052 0.103 0.060 0.402 0.075 0.713 0.247 1.096 0.252 0.792 0.010 1.377-0.338 1.756-1.046 0.002-0.004 0.003-0.008 0.002-0.012s-0.003-0.008-0.007-0.010-0.008-0.004-0.013-0.003c-0.005 0.001-0.009 0.003-0.012 0.006-0.075 0.083-0.158 0.16-0.247 0.23-0.009 0.007-0.020 0.009-0.033 0.004-0.028-0.010-0.029-0.022-0.005-0.038 0.107-0.072 0.22-0.169 0.193-0.313-0.015-0.086-0.061-0.127-0.137-0.123l0.311-0.58c0.020-0.037 0.050-0.068 0.086-0.089s0.078-0.032 0.119-0.032 0.083 0.013 0.119 0.035c0.036 0.022 0.065 0.054 0.084 0.091 0.725 1.437 2.347 0.346 2.878-0.567 0.022-0.038 0.054-0.069 0.092-0.090s0.082-0.031 0.126-0.028c0.044 0.002 0.086 0.017 0.122 0.042s0.065 0.059 0.082 0.099c0.114 0.257 0.297 0.477 0.546 0.661zM34.056 24.071c-0.161 0.2-0.427 0.354-0.657 0.46-0.032 0.015-0.032 0.029 0.001 0.041 0.045 0.018 0.087 0.020 0.124 0.007 0.069-0.024 0.208-0.087 0.419-0.19 0.018-0.009 0.032-0.021 0.043-0.037s0.017-0.034 0.019-0.053c0.011-0.105 0.060-0.185 0.147-0.241 0.053-0.034 0.048-0.046-0.013-0.034-0.035 0.006-0.062 0.021-0.083 0.046zM28.323 25.71c0.355 0.224 0.796 0.152 1.198 0.142 0.005 0 0.007-0.002 0.007-0.006 0-0.002-0-0.005-0.001-0.006 0-0.007-0.004-0.011-0.012-0.012l-1.192-0.118c-0.255-0.26-0.526-0.336-0.815-0.229-0.014 0.006-0.023 0.015-0.029 0.027-0.006 0.010-0.011 0.020-0.015 0.028-0.015 0.030-0.007 0.040 0.026 0.030 0.272-0.084 0.55-0.036 0.833 0.144z"></path>
<path fill="#696894" d="M42.469 23.691c-0.449 0.254-0.936 0.551-1.47 0.539-0.013 0-0.013-0.002-0.001-0.006 0.666-0.209 1.376-0.428 1.773-1.060 0.006-0.010 0.012-0.010 0.018 0s0.011 0.021 0.011 0.030c0 0.007-0.003 0.013-0.010 0.019-0.109 0.117-0.193 0.249-0.251 0.395-0.014 0.036-0.037 0.063-0.071 0.082z"></path>
<path fill="#696894" d="M42.331 23.396c-0.311 0.39-0.683 0.583-1.113 0.578 0.398-0.124 0.769-0.317 1.113-0.578z"></path>
<path fill="#464665" d="M34.056 24.070c0.020-0.025 0.048-0.041 0.083-0.046 0.062-0.011 0.066 0 0.013 0.034-0.088 0.056-0.137 0.136-0.147 0.241-0.001 0.019-0.008 0.037-0.019 0.053s-0.026 0.029-0.043 0.037c-0.21 0.103-0.35 0.166-0.419 0.19-0.037 0.013-0.079 0.011-0.124-0.007-0.033-0.012-0.034-0.026-0.001-0.041 0.23-0.106 0.496-0.26 0.657-0.46z"></path>
<path fill="#464665" d="M30.827 24.376c0.076-0.004 0.122 0.037 0.137 0.123 0.027 0.144-0.086 0.241-0.193 0.313-0.024 0.015-0.023 0.028 0.005 0.038 0.013 0.005 0.024 0.004 0.033-0.004 0.089-0.070 0.172-0.146 0.247-0.23 0.003-0.003 0.007-0.005 0.012-0.006s0.009 0 0.013 0.003 0.006 0.006 0.007 0.010c0.001 0.004 0 0.009-0.002 0.012-0.379 0.708-0.964 1.057-1.756 1.046-0.383-0.005-0.695-0.176-1.096-0.252-0.042-0.007-0.077-0.027-0.103-0.060-0.209-0.256-0.468-0.252-0.704-0.016-0.445 0.442-0.788 1.073-1.377 1.334-0.248 0.11-0.528 0.082-0.812 0.179-0.221-0.040-0.425-0.141-0.614-0.304-0.034-0.028-0.030-0.051 0.011-0.068 0.105-0.043 0.235-0.049 0.391-0.018 1.089-0.241 1.578-0.887 2.113-1.823 0.020-0.035 0.049-0.065 0.083-0.087s0.074-0.034 0.114-0.037c0.041-0.002 0.081 0.005 0.118 0.022s0.069 0.043 0.093 0.076c0.808 1.080 2.5 0.543 3.282-0.252z"></path>
<path fill="#797aac" d="M28.323 25.71c-0.284-0.179-0.562-0.227-0.833-0.144-0.032 0.010-0.041-0-0.026-0.030 0.004-0.008 0.009-0.018 0.015-0.028 0.006-0.012 0.015-0.021 0.029-0.027 0.289-0.107 0.561-0.031 0.815 0.229z"></path>
<path fill="#797aac" d="M28.323 25.71l1.192 0.118c0.008 0.001 0.012 0.005 0.012 0.012 0.001 0.002 0.001 0.004 0.001 0.006 0 0.004-0.002 0.006-0.007 0.006-0.403 0.010-0.843 0.082-1.198-0.142z"></path>
<path fill="#797aac" d="M26.774 26.34c-0.104 0.248-0.27 0.39-0.499 0.425l0.499-0.425z"></path>
<path fill="#464665" d="M16.82 28.704c0.155-0.003 0.214 0.111 0.176 0.343-0.034 0.212-0.129 0.368-0.286 0.467-0.057 0.036-0.066 0.026-0.027-0.028 0.069-0.097 0.132-0.194 0.19-0.292 0.013-0.023 0.016-0.041 0.010-0.055-0.011-0.022-0.023-0.023-0.037-0.004-0.407 0.548-0.973 0.792-1.699 0.732-0.303-0.026-0.462-0.124-0.708-0.218-0.428-0.165-0.771-0.402-1.028-0.711 0.723 0.486 1.443 0.634 2.162 0.444 0.367-0.097 0.783-0.324 1.246-0.68z"></path>
</svg>
