<!-- Generated by IcoMoon.io -->
<svg version="1.1" xmlns="http://www.w3.org/2000/svg" width="48" height="32" viewBox="0 0 48 32">
<title>purina</title>
<path fill="#000" d="M41.61 26.081h-35.656c-0.003 0-0.006-0.001-0.009-0.004s-0.004-0.005-0.004-0.009v-20.137c0-0.003 0.001-0.006 0.004-0.009s0.005-0.004 0.009-0.004h35.656c0.002 0 0.003 0 0.005 0.001s0.003 0.002 0.004 0.003c0.001 0.001 0.002 0.003 0.003 0.004s0.001 0.003 0.001 0.005v20.137c0 0.002-0 0.003-0.001 0.005s-0.002 0.003-0.003 0.004c-0.001 0.001-0.003 0.002-0.004 0.003s-0.003 0.001-0.005 0.001zM22.708 9.172l-10.082 3.056c-1.187 0.359-2.374 0.718-3.561 1.078-0.040 0.012-0.067 0.021-0.081 0.026-0.064 0.023-0.063 0.028 0.004 0.013l13.762-3.040c0.319-0.070 0.638-0.14 0.956-0.212 0.047-0.011 0.109-0.009 0.156 0.002 0.885 0.198 1.77 0.394 2.658 0.589l12.083 2.668c0.002 0 0.004-0 0.005-0.001s0.001-0.001 0.002-0.002c0.002-0.003 0.001-0.005-0.003-0.006l-14.818-4.492c-0.008-0.002-0.016-0.002-0.024 0l-1.056 0.323zM33.283 15.358c0-0.031-0.006-0.062-0.018-0.091s-0.029-0.055-0.051-0.077c-0.022-0.022-0.048-0.040-0.077-0.051s-0.060-0.018-0.091-0.018c-0.063 0-0.123 0.025-0.168 0.069s-0.070 0.105-0.070 0.168c0 0.063 0.025 0.123 0.070 0.168s0.105 0.069 0.168 0.069c0.031 0 0.062-0.006 0.091-0.018s0.055-0.029 0.077-0.051c0.022-0.022 0.039-0.048 0.051-0.077s0.018-0.060 0.018-0.091zM32.524 15.174c0-0.001-0-0.002-0.001-0.003s-0.001-0.002-0.002-0.003-0.002-0.001-0.003-0.002-0.002-0.001-0.003-0.001h-17.465c-0.001 0-0.002 0-0.003 0.001s-0.002 0.001-0.003 0.002c-0.001 0.001-0.001 0.002-0.002 0.003s-0.001 0.002-0.001 0.003v3.128c0 0.001 0 0.002 0.001 0.003s0.001 0.002 0.002 0.003 0.002 0.002 0.003 0.002 0.002 0.001 0.003 0.001h17.465c0.002 0 0.004-0.001 0.006-0.003s0.002-0.004 0.002-0.006v-3.128zM17.14 21.218c-0.075 1.462 1.467 2.218 2.724 1.841 0.872-0.262 1.446-1.046 1.407-1.955-0.014-0.334-0.126-0.668-0.327-0.93-1.081-1.41-3.705-0.879-3.804 1.044zM10.083 21.908c0.158 0.005 0.315 0.006 0.472 0.003 0.724-0.016 1.72-0.32 1.78-1.197 0.034-0.492-0.196-0.833-0.617-1.043-0.523-0.262-1.143-0.241-1.711-0.227-0.376 0.009-0.751 0.027-1.126 0.052-0.008 0-0.012 0.005-0.012 0.013v0.1c0 0.013 0.006 0.018 0.019 0.017 0.423-0.050 0.627 0.082 0.627 0.528 0.001 0.774-0.001 1.548-0.006 2.321-0.003 0.444-0.211 0.514-0.623 0.504-0.012-0-0.018 0.006-0.018 0.018v0.090c0 0.011 0.006 0.017 0.017 0.017h1.861c0.010 0 0.014-0.005 0.015-0.014l0.003-0.078c0-0.010-0.005-0.016-0.015-0.017-0.131-0.014-0.284 0.006-0.396-0.031-0.264-0.087-0.281-0.284-0.282-0.55-0.001-0.164-0.002-0.328-0.004-0.492-0-0.010 0.005-0.014 0.014-0.014zM14.184 22.963c-0.208-0.054-0.272-0.284-0.275-0.479-0.003-0.191-0.003-0.381-0.001-0.571 0-0.001 0-0.002 0.001-0.003s0.001-0.002 0.002-0.003 0.002-0.001 0.003-0.002 0.002-0.001 0.003-0c0.261 0.014 0.521 0.011 0.782-0.008 0.008-0.001 0.015 0.002 0.022 0.008 0.308 0.288 0.622 0.569 0.942 0.843 0.459 0.393 1.024 0.422 1.609 0.393 0.010-0.001 0.016-0.006 0.016-0.016v-0.093c0-0.011-0.005-0.017-0.016-0.018-0.407-0.039-0.769-0.226-1.071-0.493-0.301-0.266-0.598-0.534-0.89-0.803-0.002-0.002-0.003-0.004-0.004-0.007s-0.001-0.005-0-0.008c0.001-0.003 0.002-0.005 0.004-0.007s0.004-0.003 0.007-0.004c0.288-0.085 0.512-0.243 0.674-0.473 0.235-0.335 0.251-0.796 0.039-1.144-0.321-0.526-1.13-0.639-1.682-0.637-0.541 0.003-1.082 0.021-1.622 0.057-0.011 0.001-0.016 0.007-0.016 0.017v0.1c0 0.011 0.005 0.016 0.016 0.015 0.421-0.046 0.63 0.077 0.631 0.528 0.001 0.729 0.001 1.459-0.001 2.188-0.001 0.497-0.093 0.647-0.621 0.641-0.011-0-0.017 0.005-0.018 0.016l-0.005 0.089c-0.001 0.010 0.004 0.015 0.015 0.015h1.855c0.008 0 0.012-0.004 0.013-0.012l0.009-0.077c0-0.003 0-0.005-0.001-0.008s-0.002-0.005-0.003-0.007c-0.002-0.002-0.003-0.004-0.006-0.005s-0.005-0.002-0.007-0.002c-0.159-0.016-0.275 0.002-0.402-0.031zM22.611 19.623c0.353-0.028 0.629 0.039 0.632 0.458 0.003 0.447 0.002 1.272-0.003 2.473-0.002 0.393-0.314 0.439-0.622 0.424-0.013-0.001-0.019 0.005-0.019 0.018l0 0.094c0 0.010 0.005 0.015 0.015 0.015h1.859c0.002 0 0.004-0 0.006-0.001s0.004-0.002 0.005-0.003 0.003-0.003 0.003-0.005 0.001-0.004 0.001-0.006l-0.006-0.093c-0.001-0.010-0.006-0.014-0.015-0.014-0.13 0.007-0.259-0.003-0.387-0.031-0.198-0.042-0.274-0.213-0.275-0.406-0.002-0.206-0.003-0.414-0.004-0.623-0-0.010 0.004-0.014 0.014-0.014 0.635 0.015 1.397-0.015 1.898-0.472 0.319-0.29 0.434-0.742 0.302-1.147-0.253-0.779-1.325-0.873-1.999-0.856-0.468 0.012-0.935 0.034-1.403 0.065-0.007 0-0.010 0.004-0.010 0.011l-0.005 0.104c-0 0.002 0 0.003 0.001 0.005s0.002 0.003 0.003 0.004 0.003 0.002 0.004 0.003 0.003 0.001 0.005 0.001zM39.398 19.72c0-0.062-0.025-0.122-0.069-0.167s-0.104-0.069-0.167-0.069-0.123 0.025-0.167 0.069c-0.044 0.044-0.069 0.104-0.069 0.167s0.025 0.123 0.069 0.167c0.044 0.044 0.104 0.069 0.167 0.069s0.123-0.025 0.167-0.069c0.044-0.044 0.069-0.104 0.069-0.167zM27.633 19.934c0.001-0.411 0.418-0.309 0.674-0.313 0.009-0 0.013-0.005 0.013-0.014l-0.005-0.103c-0.001-0.010-0.006-0.015-0.017-0.015l-1.728 0.006c-0.011 0-0.016 0.005-0.016 0.016v0.097c0 0.010 0.005 0.015 0.015 0.014 0.352-0.012 0.51 0.048 0.51 0.426 0.002 0.853 0.002 1.706 0 2.559-0 0.102-0.013 0.178-0.038 0.228-0.101 0.202-0.321 0.142-0.501 0.148-0.009 0-0.014 0.005-0.014 0.014v0.089c0 0.011 0.006 0.017 0.017 0.017h2.923c0.009 0 0.016-0.004 0.021-0.013l0.357-0.684c0.002-0.003 0.002-0.007 0.001-0.011s-0.003-0.007-0.007-0.009l-0.058-0.035c-0.008-0.005-0.018-0.007-0.027-0.005s-0.018 0.007-0.023 0.015c-0.217 0.293-0.501 0.547-0.884 0.547-0.333 0-0.665-0.001-0.999-0.004-0.142-0.001-0.214-0.072-0.214-0.212-0.003-0.543-0.003-1.463-0.002-2.759zM34.24 22.975l-0.299-0.023c-0.131-0.048-0.233-0.154-0.304-0.32-0.393-0.918-0.83-2.023-1.324-3.12-0.005-0.010-0.013-0.016-0.024-0.016l-0.54-0.001c-0.010 0-0.015 0.005-0.016 0.015-0 0.009 0.003 0.017 0.010 0.026 0.006 0.007 0.008 0.015 0.007 0.024-0.005 0.048-0.021 0.101-0.047 0.161-0.164 0.375-0.4 0.934-0.708 1.677-0.004 0.010-0.011 0.015-0.022 0.015-0.438-0.006-0.774 0.172-1.009 0.533-0.006 0.009-0.004 0.016 0.005 0.021l0.069 0.042c0.004 0.003 0.009 0.004 0.014 0.003s0.010-0.003 0.013-0.006c0.216-0.2 0.473-0.29 0.77-0.271 0.007 0 0.009 0.004 0.007 0.011-0.125 0.312-0.259 0.62-0.403 0.924-0.051 0.108-0.125 0.192-0.221 0.252-0.079 0.050-0.191 0.048-0.285 0.060-0.010 0.001-0.015 0.007-0.015 0.018v0.093c0 0.009 0.004 0.014 0.014 0.014h1.41c0.009 0 0.014-0.005 0.014-0.014v-0.087c0-0.011-0.006-0.017-0.017-0.017-0.173-0.005-0.478 0.038-0.575-0.131-0.049-0.086 0.002-0.172 0.037-0.259 0.105-0.261 0.214-0.521 0.326-0.783 0.004-0.009 0.010-0.011 0.019-0.008 0.476 0.18 1.111 0.506 1.567 0.082 0.009-0.008 0.016-0.007 0.021 0.004 0.116 0.269 0.228 0.541 0.336 0.814 0.135 0.339-0.396 0.278-0.604 0.268-0.002-0-0.004 0-0.006 0.001s-0.004 0.002-0.005 0.003c-0.002 0.001-0.003 0.003-0.004 0.005s-0.001 0.004-0.001 0.006l-0.002 0.101c-0 0.009 0.004 0.014 0.014 0.014h1.769c0.010 0 0.015-0.005 0.015-0.016l-0.006-0.114zM35.269 20.050c0.031 0.031 0.061 0.063 0.089 0.096 0.832 0.966 1.673 1.925 2.524 2.875 0.075 0.084 0.167 0.11 0.275 0.077 0.009-0.003 0.013-0.009 0.013-0.018-0.001-1.676-0.001-2.727 0.001-3.153 0.001-0.332 0.275-0.307 0.511-0.305 0.010 0 0.014-0.004 0.014-0.014v-0.101c0-0.009-0.005-0.014-0.014-0.014h-1.324c-0.004 0-0.008 0.002-0.011 0.004s-0.005 0.007-0.005 0.011l-0.006 0.102c-0 0.002 0 0.004 0.001 0.006s0.002 0.003 0.003 0.005c0.001 0.001 0.003 0.002 0.005 0.003s0.004 0.001 0.006 0.001c0.263-0.021 0.559 0.022 0.558 0.347-0.002 0.754-0.002 1.501-0.002 2.241 0 0.019-0.006 0.021-0.019 0.007l-2.369-2.716c-0.003-0.003-0.006-0.005-0.009-0.007s-0.008-0.003-0.012-0.003h-0.971c-0.009 0-0.014 0.004-0.014 0.014v0.103c0 0.012 0.006 0.018 0.018 0.016 0.181-0.020 0.46 0.067 0.46 0.272 0.001 0.909 0.001 1.817-0.001 2.725-0 0.14-0.057 0.243-0.172 0.308-0.082 0.046-0.199 0.040-0.296 0.046-0.012 0.001-0.017 0.007-0.017 0.018v0.094c0 0.009 0.005 0.014 0.014 0.014h1.309c0.009 0 0.014-0.005 0.014-0.014v-0.093c0-0.012-0.006-0.018-0.018-0.017-0.278 0.011-0.556-0.034-0.56-0.354-0.006-0.552-0.008-1.409-0.008-2.571 0-0.012 0.004-0.013 0.012-0.005z"></path>
<path fill="#c4a671" d="M26.71 9.735l-0.092 0.042c-0.004 0.002-0.008 0.003-0.012 0.003s-0.008-0.001-0.012-0.003c-0.017-0.008-0.030-0.008-0.042 0.002-0.009 0.007-0.014 0.020-0.016 0.039-0.009 0.082-0.015 0.163-0.017 0.245-0.001 0.044-0.019 0.093-0.006 0.146 0.012 0.050 0.018 0.082 0.019 0.097 0 0.124-0.004 0.251-0.012 0.378-0.887-0.195-1.773-0.391-2.658-0.589-0.047-0.011-0.109-0.012-0.156-0.002-0.318 0.071-0.637 0.142-0.956 0.212-0.036-0.111-0.015-0.227-0.018-0.321-0.008-0.193 0.030-0.382-0.011-0.599-0.002-0.009-0.001-0.018 0.003-0.026 0.028-0.067 0.022-0.129-0.016-0.187l1.056-0.323c0.008-0.002 0.016-0.002 0.024 0l2.921 0.885z"></path>
<path fill="#a88f62" d="M22.708 9.172c0.039 0.058 0.044 0.12 0.016 0.187-0.003 0.008-0.004 0.017-0.003 0.026 0.041 0.217 0.003 0.405 0.011 0.599 0.004 0.094-0.018 0.21 0.018 0.321l-3.076 0.68c0.005-0.029 0.022-0.052 0.050-0.068 0.009-0.005 0.011-0.013 0.007-0.022l-0.008-0.017c-0.004-0.008-0.005-0.017-0.004-0.027 0.014-0.095 0.013-0.19-0.004-0.285-0.001-0.005 0-0.009 0.002-0.013s0.006-0.007 0.010-0.009c0.046-0.018 0.063-0.050 0.051-0.096-0.002-0.008-0.002-0.016 0.002-0.024l0.021-0.051c0.001-0.002 0.001-0.004 0.001-0.006s-0.001-0.004-0.002-0.006c-0.001-0.002-0.002-0.004-0.004-0.005s-0.004-0.002-0.006-0.003l-0.033-0.010c-0.004-0.001-0.008-0.004-0.010-0.008s-0.003-0.008-0.003-0.012c0.013-0.084 0-0.164-0.039-0.239l3.001-0.912z"></path>
<path fill="#d7bb77" d="M26.71 9.735l3.744 1.134c-0.009 0.010-0.010 0.021-0.004 0.030 0.002 0.004 0.004 0.008 0.005 0.012 0.016 0.052 0.021 0.104 0.016 0.156-0.014 0.139-0.014 0.262-0.059 0.393-0.001 0.004-0.004 0.008-0.009 0.012-0.006 0.005-0.007 0.011-0.003 0.018 0.008 0.015 0.006 0.031-0.008 0.048l-3.872-0.855c0.008-0.128 0.012-0.254 0.012-0.378-0-0.014-0.006-0.046-0.019-0.097-0.013-0.053 0.005-0.102 0.006-0.146 0.002-0.082 0.008-0.163 0.017-0.245 0.002-0.019 0.008-0.032 0.016-0.039 0.011-0.010 0.025-0.010 0.042-0.002 0.004 0.002 0.008 0.003 0.012 0.003s0.009-0.001 0.012-0.003l0.092-0.042z"></path>
<path fill="#c4a671" d="M19.707 10.084c0.040 0.076 0.053 0.155 0.039 0.239-0.001 0.004 0 0.009 0.003 0.012s0.006 0.006 0.010 0.008l0.033 0.010c0.002 0.001 0.004 0.002 0.006 0.003s0.003 0.003 0.004 0.005c0.001 0.002 0.001 0.004 0.002 0.006s-0 0.004-0.001 0.006l-0.021 0.051c-0.003 0.008-0.004 0.016-0.002 0.024 0.012 0.046-0.005 0.078-0.051 0.096-0.004 0.002-0.008 0.005-0.010 0.009s-0.003 0.009-0.002 0.013c0.017 0.095 0.018 0.19 0.004 0.285-0.001 0.009 0 0.018 0.004 0.027l0.008 0.017c0.004 0.009 0.002 0.017-0.007 0.022-0.028 0.016-0.045 0.039-0.050 0.068l-2.468 0.546 0.176-0.045c0.008-0.002 0.013-0.007 0.013-0.015 0.003-0.031 0.017-0.053 0.042-0.068 0.008-0.005 0.012-0.012 0.011-0.020-0.001-0.020-0.009-0.039-0.022-0.057-0.005-0.007-0.008-0.016-0.007-0.025s0.004-0.018 0.010-0.027c0.006-0.009 0.015-0.016 0.026-0.023s0.022-0.010 0.034-0.012c0.023-0.004 0.037-0.019 0.040-0.046 0.001-0.008 0.004-0.015 0.010-0.021l0.025-0.025c0.006-0.006 0.005-0.011-0.003-0.014l-0.016-0.008c-0.002-0.001-0.004-0.001-0.007-0s-0.004 0.002-0.005 0.004c-0.005 0.011-0.013 0.016-0.023 0.016-0.002-0-0.004-0.001-0.005-0.002s-0.003-0.002-0.004-0.004c-0.001-0.002-0.001-0.003-0.001-0.005s0-0.003 0.001-0.005c0.019-0.034 0.017-0.066-0.007-0.096-0.005-0.006-0.008-0.014-0.008-0.022-0.004-0.056 0.016-0.099 0.061-0.131 0.003-0.002 0.004-0.005 0.005-0.008s0-0.007-0.002-0.010c-0.014-0.023-0.020-0.046-0.018-0.070 0-0.002 0-0.003-0-0.005s-0.001-0.003-0.002-0.004-0.002-0.002-0.004-0.003-0.003-0.001-0.005-0.001h-0.017c-0.008 0-0.011-0.004-0.009-0.011l0.004-0.016 2.206-0.668z"></path>
<path fill="#d7bb77" d="M17.501 10.752l-0.004 0.016c-0.002 0.007 0.001 0.011 0.009 0.011h0.017c0.002 0 0.003 0 0.005 0.001s0.003 0.002 0.004 0.003 0.002 0.003 0.002 0.004 0.001 0.003 0 0.005c-0.003 0.024 0.003 0.047 0.018 0.070 0.002 0.003 0.002 0.006 0.002 0.010s-0.003 0.006-0.005 0.008c-0.045 0.032-0.065 0.076-0.061 0.131 0.001 0.008 0.004 0.015 0.008 0.022 0.024 0.031 0.026 0.063 0.007 0.096-0.001 0.002-0.001 0.003-0.001 0.005s0 0.003 0.001 0.005c0.001 0.002 0.002 0.003 0.004 0.004s0.003 0.001 0.005 0.002c0.010 0 0.018-0.005 0.023-0.016 0.001-0.002 0.003-0.003 0.005-0.004s0.004-0.001 0.007 0l0.016 0.008c0.008 0.004 0.009 0.008 0.003 0.014l-0.025 0.025c-0.006 0.006-0.009 0.013-0.010 0.021-0.003 0.027-0.016 0.042-0.040 0.046-0.012 0.002-0.024 0.006-0.034 0.012s-0.019 0.014-0.026 0.023-0.010 0.018-0.010 0.027c-0.001 0.009 0.002 0.018 0.007 0.025 0.014 0.018 0.021 0.037 0.022 0.057 0.001 0.009-0.003 0.016-0.011 0.020-0.025 0.015-0.039 0.037-0.042 0.068-0.001 0.008-0.005 0.013-0.013 0.015l-0.176 0.045-4.607 1.018-0.014-0.003c-0.005-0.001-0.006-0.003-0.001-0.006 0.023-0.013 0.033-0.032 0.032-0.055-0.003-0.069 0.006-0.129 0.025-0.179 0.003-0.008 0.003-0.017 0.001-0.025l-0.018-0.051 4.875-1.477z"></path>
<path fill="#c4a671" d="M30.454 10.869l1.634 0.495-0.011 0.016c-0.006 0.009-0.005 0.016 0.005 0.021l0.014 0.008c0.002 0.001 0.002 0.003 0.001 0.004l-0.005 0.005c-0.002 0.002-0.003 0.004-0.004 0.007s-0.001 0.005 0 0.008c0.039 0.134 0.003 0.305-0.010 0.443-0.001 0.008-0.005 0.012-0.013 0.011-0.011-0-0.020 0.005-0.027 0.015l-1.646-0.363c0.014-0.017 0.017-0.033 0.008-0.048-0.004-0.007-0.003-0.013 0.003-0.018 0.004-0.004 0.007-0.008 0.009-0.012 0.045-0.131 0.044-0.254 0.059-0.393 0.005-0.052 0-0.104-0.016-0.157-0.001-0.004-0.003-0.008-0.005-0.012-0.006-0.010-0.005-0.020 0.004-0.030z"></path>
<path fill="#a88f62" d="M32.087 11.364l6.52 1.977c0.005 0.001 0.006 0.004 0.003 0.007-0.001 0.001-0.001 0.001-0.002 0.002s-0.003 0.002-0.005 0.001l-6.565-1.449c0.007-0.010 0.016-0.015 0.027-0.015 0.008 0 0.012-0.004 0.013-0.011 0.013-0.138 0.049-0.309 0.010-0.443-0.001-0.002-0.001-0.005-0-0.008s0.002-0.005 0.004-0.007l0.005-0.005c0.002-0.002 0.001-0.003-0.001-0.004l-0.014-0.008c-0.009-0.006-0.011-0.013-0.005-0.022l0.011-0.016z"></path>
<path fill="#c4a671" d="M12.626 12.228l0.018 0.051c0.003 0.008 0.003 0.017-0.001 0.025-0.020 0.050-0.028 0.11-0.025 0.179 0.001 0.023-0.010 0.042-0.032 0.055-0.005 0.003-0.005 0.005 0.001 0.006l0.014 0.003-3.612 0.797c-0.067 0.015-0.068 0.010-0.004-0.013 0.013-0.005 0.040-0.014 0.081-0.026 1.187-0.36 2.374-0.719 3.561-1.078z"></path>
<path fill="#fff" d="M33.283 15.358c0 0.031-0.006 0.062-0.018 0.091s-0.029 0.055-0.051 0.077c-0.022 0.022-0.048 0.039-0.077 0.051s-0.060 0.018-0.091 0.018c-0.063 0-0.123-0.025-0.168-0.069s-0.070-0.105-0.070-0.168c0-0.063 0.025-0.123 0.070-0.168s0.105-0.069 0.168-0.069c0.031 0 0.062 0.006 0.091 0.018s0.055 0.029 0.077 0.051 0.039 0.048 0.051 0.077c0.012 0.029 0.018 0.060 0.018 0.091zM33.053 15.553c0.025-0.001 0.049-0.007 0.072-0.017s0.043-0.026 0.060-0.045c0.017-0.019 0.030-0.041 0.039-0.065s0.013-0.050 0.012-0.076c-0.001-0.026-0.007-0.051-0.017-0.075s-0.025-0.045-0.043-0.063c-0.018-0.018-0.039-0.032-0.063-0.041s-0.048-0.013-0.073-0.013c-0.025 0.001-0.049 0.007-0.072 0.017s-0.043 0.026-0.060 0.045c-0.017 0.019-0.030 0.041-0.039 0.065s-0.013 0.050-0.012 0.076 0.007 0.051 0.017 0.075c0.010 0.024 0.025 0.045 0.043 0.063s0.039 0.032 0.063 0.041c0.023 0.009 0.048 0.014 0.073 0.013z"></path>
<path fill="#000" d="M33.053 15.553c-0.025 0.001-0.049-0.003-0.073-0.013s-0.045-0.023-0.063-0.041c-0.018-0.018-0.033-0.039-0.043-0.063s-0.016-0.049-0.017-0.075c-0.001-0.026 0.003-0.052 0.012-0.076s0.022-0.046 0.039-0.065c0.017-0.019 0.037-0.034 0.060-0.045s0.047-0.017 0.072-0.017c0.025-0.001 0.050 0.003 0.073 0.013s0.045 0.023 0.063 0.041c0.018 0.018 0.033 0.039 0.043 0.063s0.016 0.049 0.017 0.075-0.003 0.052-0.012 0.076c-0.009 0.024-0.022 0.046-0.039 0.065s-0.037 0.034-0.060 0.045c-0.023 0.011-0.047 0.017-0.072 0.017zM33.049 15.393c0.017 0.029 0.036 0.057 0.057 0.086 0.007 0.009 0.015 0.015 0.023 0.017 0.010 0.002 0.019 0 0.027-0.006s0.009-0.013 0.003-0.021l-0.052-0.078c-0.001-0.002-0.002-0.005-0.003-0.007s0-0.005 0.001-0.008c0.001-0.002 0.002-0.005 0.004-0.006s0.004-0.003 0.007-0.004c0.049-0.013 0.062-0.046 0.040-0.099-0.003-0.009-0.009-0.015-0.017-0.020-0.051-0.032-0.109-0.040-0.174-0.023-0.009 0.002-0.014 0.008-0.015 0.016-0.012 0.076-0.012 0.152-0.002 0.228 0.002 0.015 0.010 0.025 0.024 0.033 0.002 0.001 0.005 0.002 0.008 0.002s0.005-0.001 0.007-0.002c0.002-0.001 0.004-0.003 0.005-0.005s0.002-0.005 0.002-0.008v-0.080c-0-0.006 0.002-0.013 0.006-0.018s0.009-0.009 0.015-0.010 0.013-0.001 0.018 0.001c0.006 0.002 0.011 0.007 0.014 0.012z"></path>
<path fill="#fff" d="M32.524 18.301c0 0.002-0.001 0.004-0.002 0.006s-0.004 0.003-0.006 0.003h-17.465c-0.001 0-0.002-0-0.003-0.001s-0.002-0.001-0.003-0.002c-0.001-0.001-0.001-0.002-0.002-0.003s-0.001-0.002-0.001-0.003v-3.128c0-0.001 0-0.002 0.001-0.003s0.001-0.002 0.002-0.003c0.001-0.001 0.002-0.001 0.003-0.002s0.002-0.001 0.003-0.001h17.465c0.001 0 0.002 0 0.003 0.001s0.002 0.001 0.003 0.002c0.001 0.001 0.001 0.002 0.002 0.003s0.001 0.002 0.001 0.003v3.128zM16.741 15.268l-0.602 0.001-0.971-0.001c-0.005 0-0.010 0.002-0.014 0.006s-0.006 0.008-0.006 0.014v2.889c0 0.018 0.009 0.027 0.027 0.027l2.885 0c0.018 0 0.027-0.009 0.027-0.027l0.001-2.863c0-0.012-0.005-0.024-0.014-0.033s-0.021-0.014-0.033-0.014l-1.302 0.002zM18.19 18.2l14.21 0.013c0.007 0 0.010-0.003 0.010-0.010l0.007-2.91c0-0.004-0.001-0.008-0.002-0.012s-0.004-0.007-0.007-0.010c-0.003-0.003-0.006-0.005-0.010-0.007s-0.008-0.002-0.012-0.002c-0.831 0.010-1.666 0.012-2.505 0.008-1.733-0.010-3.384 0.003-5.074 0.003-2.205-0.001-4.411-0.001-6.616 0-0.009 0-0.014 0.005-0.014 0.014v2.901c0 0.008 0.004 0.013 0.013 0.013z"></path>
<path fill="#fff" d="M33.049 15.393c-0.003-0.005-0.008-0.010-0.014-0.012s-0.012-0.003-0.018-0.001-0.011 0.005-0.015 0.010c-0.004 0.005-0.006 0.011-0.006 0.017v0.080c-0 0.003-0.001 0.005-0.002 0.008s-0.003 0.004-0.005 0.005c-0.002 0.001-0.005 0.002-0.007 0.002s-0.005-0.001-0.008-0.002c-0.014-0.007-0.022-0.018-0.024-0.033-0.010-0.076-0.010-0.152 0.002-0.228 0.001-0.009 0.006-0.014 0.015-0.016 0.065-0.017 0.122-0.009 0.174 0.023 0.008 0.005 0.014 0.012 0.017 0.020 0.022 0.053 0.008 0.086-0.040 0.099-0.002 0.001-0.005 0.002-0.007 0.004s-0.003 0.004-0.004 0.006c-0.001 0.002-0.001 0.005-0.001 0.007s0.001 0.005 0.003 0.007l0.052 0.078c0.005 0.008 0.004 0.015-0.003 0.021s-0.017 0.008-0.027 0.006c-0.008-0.002-0.016-0.007-0.023-0.017-0.021-0.028-0.041-0.057-0.057-0.086zM33.114 15.294c0-0.008-0.002-0.015-0.007-0.021s-0.012-0.009-0.020-0.010l-0.061-0.003c-0.008-0-0.015 0.002-0.021 0.007s-0.009 0.012-0.010 0.020l-0.001 0.015c-0 0.008 0.002 0.015 0.007 0.021s0.012 0.009 0.020 0.010l0.061 0.003c0.008 0 0.015-0.002 0.021-0.007s0.009-0.012 0.010-0.020l0.001-0.014z"></path>
<path fill="#ed1c24" d="M16.139 15.269c0.199 0.019 0.4 0.019 0.602-0.001l1.302-0.002c0.012 0 0.024 0.005 0.033 0.014s0.014 0.021 0.014 0.033l-0.001 2.863c0 0.018-0.009 0.027-0.027 0.027l-2.885-0c-0.018 0-0.027-0.009-0.027-0.027v-2.889c0-0.005 0.002-0.010 0.006-0.014s0.009-0.006 0.014-0.006l0.971 0.001zM17.99 15.392c0-0.005-0.002-0.010-0.005-0.013s-0.008-0.005-0.013-0.005h-2.703c-0.002 0-0.005 0-0.007 0.001s-0.004 0.002-0.006 0.004-0.003 0.004-0.004 0.006-0.001 0.005-0.001 0.007v2.697c0 0.002 0.001 0.005 0.001 0.007s0.002 0.004 0.004 0.006c0.002 0.002 0.004 0.003 0.006 0.004s0.005 0.001 0.007 0.001h2.703c0.003 0 0.005-0 0.007-0.001s0.004-0.002 0.006-0.004c0.002-0.002 0.003-0.004 0.004-0.006s0.001-0.005 0.001-0.007v-2.697z"></path>
<path fill="#a88f62" d="M16.741 15.268c-0.202 0.020-0.403 0.020-0.602 0.001l0.602-0.001z"></path>
<path fill="#000" d="M33.087 15.263l-0.061-0.003c-0.016-0.001-0.030 0.011-0.031 0.027l-0.001 0.014c-0.001 0.016 0.011 0.030 0.027 0.030l0.061 0.003c0.016 0.001 0.029-0.011 0.030-0.027l0.001-0.014c0.001-0.016-0.011-0.030-0.027-0.030z"></path>
<path fill="#000" d="M32.401 18.213l-14.211-0.013c-0.009 0-0.013-0.004-0.013-0.013v-2.901c0-0.009 0.005-0.014 0.014-0.014 2.206-0.001 4.411-0.001 6.616 0 1.69 0 3.341-0.013 5.074-0.003 0.839 0.005 1.674 0.002 2.505-0.008 0.004-0 0.008 0.001 0.012 0.002s0.007 0.004 0.010 0.007c0.003 0.003 0.005 0.006 0.007 0.010s0.002 0.008 0.002 0.012l-0.007 2.91c0 0.006-0.003 0.010-0.010 0.010zM31.048 17.108c0.047 0.112 0.093 0.224 0.136 0.337 0.058 0.152-0.051 0.163-0.16 0.177-0.012 0.001-0.018 0.008-0.018 0.020v0.076c0 0.009 0.005 0.014 0.014 0.014h0.795c0.009 0 0.014-0.005 0.014-0.014v-0.081c0-0.012-0.006-0.017-0.017-0.018-0.127-0.003-0.211-0.055-0.254-0.158-0.241-0.577-0.476-1.148-0.705-1.712-0.005-0.013-0.014-0.023-0.025-0.031s-0.024-0.012-0.038-0.012c-0.014-0-0.027 0.004-0.038 0.011s-0.020 0.018-0.026 0.030c-0.221 0.508-0.445 1.026-0.673 1.554-0.067 0.155-0.134 0.314-0.304 0.313-0.012 0-0.019 0.006-0.019 0.019l0.001 0.086c0 0.010 0.005 0.016 0.016 0.016l0.631-0.004c0.011 0 0.016-0.005 0.016-0.016v-0.071c0-0.011-0.006-0.018-0.017-0.019-0.111-0.012-0.243-0.018-0.185-0.178 0.042-0.114 0.089-0.225 0.142-0.335 0.004-0.008 0.010-0.012 0.019-0.012h0.68c0.008 0 0.014 0.004 0.017 0.011zM22.068 15.861c0.111-0.018 0.24 0.005 0.243 0.146 0.005 0.262 0.006 0.615 0.003 1.059-0.002 0.372-0.317 0.551-0.653 0.507-0.366-0.048-0.379-0.41-0.381-0.697-0.002-0.275-0-0.549 0.004-0.823 0.003-0.199 0.105-0.185 0.257-0.202 0.011-0.001 0.016-0.007 0.016-0.018v-0.068c0-0.005-0.002-0.011-0.006-0.014s-0.009-0.006-0.014-0.006h-0.843c-0.009 0-0.014 0.004-0.014 0.014v0.088c0 0.009 0.005 0.014 0.014 0.014 0.225-0.004 0.258 0.044 0.257 0.269-0.002 0.285-0 0.569 0.004 0.853 0.008 0.457 0.165 0.729 0.645 0.776 0.514 0.050 0.897-0.184 0.895-0.734-0.001-0.296-0.001-0.592 0-0.888 0-0.050 0.007-0.137 0.025-0.179 0.050-0.11 0.144-0.092 0.243-0.108 0.008-0.001 0.012-0.006 0.011-0.014l-0.006-0.076c-0.001-0.010-0.006-0.015-0.016-0.015h-0.683c-0.014 0-0.020 0.007-0.020 0.020v0.081c0 0.002 0.001 0.005 0.002 0.007s0.003 0.004 0.004 0.006c0.002 0.002 0.004 0.003 0.006 0.003s0.005 0.001 0.007 0zM19.39 16.845c0.365 0.095 0.829 0.004 0.882-0.445 0.058-0.493-0.384-0.645-0.787-0.641-0.095 0.001-0.328 0-0.7-0.002-0.010 0-0.015 0.005-0.015 0.015v0.087c0 0.013 0.007 0.019 0.020 0.018 0.13-0.017 0.237 0.001 0.242 0.144 0.019 0.51 0.001 0.983 0.008 1.387 0.001 0.062-0.011 0.116-0.036 0.164-0.004 0.007-0.010 0.012-0.017 0.016-0.066 0.029-0.135 0.041-0.207 0.035-0.003-0-0.005 0-0.007 0.001s-0.005 0.002-0.006 0.004-0.003 0.004-0.004 0.006c-0.001 0.002-0.001 0.005-0.001 0.007l0.009 0.082c0.001 0.007 0.005 0.010 0.012 0.010l0.847-0.004c0.011 0 0.016-0.005 0.016-0.016v-0.077c0-0.012-0.006-0.017-0.018-0.015-0.146 0.020-0.256-0.019-0.257-0.187-0.001-0.183-0.002-0.375-0.002-0.573 0-0.003 0.001-0.005 0.002-0.007s0.003-0.004 0.005-0.006c0.002-0.002 0.004-0.003 0.007-0.003s0.005-0 0.007 0zM27.783 16.297c0-0.002 0-0.003 0.001-0.004s0.002-0.002 0.004-0.003c0.001-0.001 0.003-0.001 0.005-0s0.003 0.001 0.004 0.003c0.384 0.465 0.764 0.925 1.142 1.382 0.047 0.057 0.064 0.101 0.152 0.090 0.009-0.001 0.014-0.006 0.014-0.016 0-0.543 0-1.087 0-1.63 0-0.219 0.047-0.251 0.262-0.247 0.002 0 0.004-0 0.005-0.001s0.003-0.002 0.005-0.003 0.002-0.003 0.003-0.005 0.001-0.004 0.001-0.005v-0.087c0-0.009-0.005-0.013-0.014-0.013h-0.694c-0.013 0-0.019 0.006-0.019 0.019l0.002 0.078c0 0.012 0.007 0.018 0.019 0.018 0.216-0.006 0.249 0.035 0.248 0.249-0.002 0.334-0.002 0.663-0.001 0.986 0 0.018-0.006 0.021-0.018 0.006l-1.11-1.346c-0.006-0.007-0.014-0.010-0.022-0.010h-0.538c-0.009 0-0.014 0.004-0.014 0.013v0.082c0 0.012 0.006 0.018 0.018 0.018 0.117-0.004 0.358 0.079 0.359 0.23 0.002 0.285 0.002 0.736 0.001 1.352-0 0.167-0.13 0.17-0.259 0.171-0.002 0-0.004 0.001-0.006 0.001s-0.004 0.002-0.005 0.004c-0.001 0.002-0.003 0.003-0.003 0.005s-0.001 0.004-0.001 0.006l0.006 0.077c0.001 0.009 0.005 0.013 0.014 0.013l0.691 0.002c0.008 0 0.013-0.004 0.014-0.012l0.008-0.084c0-0.002 0-0.003-0.001-0.005s-0.001-0.003-0.002-0.004c-0.001-0.001-0.002-0.002-0.004-0.003s-0.003-0.001-0.005-0.001c-0.125 0.001-0.26 0.003-0.261-0.157-0.004-0.392-0.004-0.781-0.002-1.169zM23.87 16.842h0.113c0.017 0 0.030 0.007 0.040 0.020l0.626 0.862c0.002 0.003 0.005 0.006 0.009 0.007s0.007 0.003 0.011 0.003l0.53-0.005c0.008 0 0.013-0.004 0.013-0.013v-0.079c0-0.011-0.005-0.017-0.016-0.018-0.262-0.024-0.35-0.157-0.518-0.384-0.107-0.143-0.211-0.288-0.312-0.433-0.002-0.002-0.003-0.005-0.003-0.008s0-0.005 0.001-0.008c0.001-0.003 0.003-0.005 0.005-0.007s0.005-0.003 0.007-0.004c0.639-0.139 0.53-0.969-0.114-1.007-0.269-0.016-0.6-0.019-0.993-0.008-0.007 0-0.011 0.004-0.011 0.011l-0.007 0.087c-0.001 0.010 0.004 0.014 0.014 0.014 0.125-0.004 0.251-0.006 0.252 0.149 0.003 0.469 0.004 0.937 0.003 1.406-0.001 0.182-0.097 0.201-0.254 0.195-0.010-0-0.016 0.005-0.016 0.015v0.080c0 0.009 0.005 0.014 0.014 0.014l0.85-0.002c0.009 0 0.013-0.004 0.013-0.013v-0.081c0-0.011-0.006-0.016-0.017-0.015-0.127 0.012-0.243-0.005-0.25-0.148-0.010-0.246-0.012-0.452-0.005-0.617 0.001-0.010 0.006-0.014 0.015-0.014zM26.322 17.542c-0.038-0.215-0.019-0.472-0.016-0.691 0.003-0.233-0.010-0.558 0.009-0.837 0.009-0.14 0.141-0.149 0.254-0.137 0.009 0.001 0.013-0.003 0.013-0.011v-0.087c0-0.009-0.004-0.013-0.014-0.013h-0.849c-0.010 0-0.015 0.005-0.015 0.014l0.001 0.079c0 0.009 0.005 0.014 0.014 0.014 0.221 0.002 0.261 0.044 0.262 0.263 0.003 0.599 0.003 1.012-0 1.237-0.003 0.206-0.052 0.261-0.261 0.25-0.010-0.001-0.015 0.004-0.015 0.014v0.078c0 0.011 0.006 0.017 0.017 0.017h0.843c0.011 0 0.017-0.006 0.017-0.017v-0.079c0-0.011-0.005-0.015-0.016-0.014-0.085 0.012-0.162-0.007-0.23-0.057-0.007-0.005-0.012-0.013-0.014-0.022z"></path>
<path fill="#fff" d="M17.99 18.089c0 0.002-0 0.005-0.001 0.007s-0.002 0.004-0.004 0.006-0.004 0.003-0.006 0.004-0.005 0.001-0.007 0.001h-2.703c-0.002 0-0.005-0.001-0.007-0.001s-0.004-0.002-0.006-0.004-0.003-0.004-0.004-0.006-0.001-0.005-0.001-0.007v-2.697c0-0.002 0.001-0.005 0.001-0.007s0.002-0.004 0.004-0.006 0.004-0.003 0.006-0.004 0.005-0.001 0.007-0.001h2.703c0.005 0 0.010 0.002 0.013 0.005s0.005 0.008 0.005 0.013v2.697zM16.2 16.321l-0.001 0.818c0 0.005-0.002 0.010-0.006 0.014s-0.009 0.006-0.014 0.006h-0.801c-0.009 0-0.014 0.005-0.014 0.014v0.801c0 0.014 0.007 0.021 0.021 0.021h0.802c0.009 0 0.014-0.004 0.014-0.014v-0.795c0-0.007 0.003-0.014 0.008-0.019s0.012-0.008 0.019-0.008h0.791c0.004 0 0.008 0.002 0.011 0.005s0.005 0.007 0.005 0.011l0.003 0.806c0 0.009 0.004 0.013 0.013 0.013l0.808 0.002c0.010 0 0.014-0.005 0.014-0.014v-0.795c0-0.018-0.009-0.026-0.026-0.027l-0.793-0.004c-0.009 0-0.014-0.005-0.014-0.014v-0.807c0-0.008 0.004-0.012 0.012-0.012h0.804c0.003 0 0.005-0.001 0.007-0.001s0.004-0.002 0.006-0.004c0.002-0.002 0.003-0.004 0.004-0.006s0.001-0.005 0.001-0.007v-0.809c0-0.010-0.005-0.015-0.015-0.015l-0.808 0.003c-0.010 0-0.016 0.005-0.016 0.016v0.797c0 0.006-0.002 0.011-0.006 0.015s-0.010 0.006-0.015 0.006l-0.816 0.002 0-0.826c0-0.009-0.005-0.014-0.014-0.014l-0.787 0.003c-0.004 0-0.008-0.001-0.012-0.003l-0.007-0.004c-0.011-0.006-0.016-0.003-0.016 0.009v0.824c0 0.009 0.004 0.013 0.013 0.013l0.822-0.002z"></path>
<path fill="#ed1c24" d="M16.2 16.321l-0.822 0.002c-0.009 0-0.013-0.004-0.013-0.013v-0.824c0-0.013 0.005-0.016 0.016-0.009l0.007 0.004c0.004 0.002 0.008 0.003 0.012 0.003l0.787-0.003c0.009 0 0.014 0.005 0.014 0.014l-0 0.826z"></path>
<path fill="#ed1c24" d="M16.2 16.32l0.816-0.002c0.006-0 0.011-0.002 0.015-0.006s0.006-0.009 0.006-0.015v-0.797c0-0.011 0.005-0.016 0.016-0.016l0.808-0.003c0.010-0 0.015 0.005 0.015 0.014v0.809c0 0.003-0 0.005-0.001 0.007s-0.002 0.004-0.004 0.006-0.004 0.003-0.006 0.004-0.005 0.001-0.007 0.001h-0.804c-0.008 0-0.012 0.004-0.012 0.012v0.807c0 0.009 0.005 0.014 0.014 0.014l0.793 0.004c0.018 0 0.026 0.009 0.026 0.027v0.795c0 0.010-0.005 0.014-0.014 0.014l-0.808-0.002c-0.009 0-0.013-0.004-0.013-0.013l-0.003-0.806c0-0.004-0.002-0.008-0.005-0.011s-0.007-0.005-0.011-0.005h-0.791c-0.007 0-0.014 0.003-0.019 0.008s-0.008 0.012-0.008 0.019v0.795c0 0.009-0.005 0.013-0.014 0.013h-0.802c-0.014 0-0.021-0.007-0.021-0.021v-0.8c0-0.009 0.004-0.014 0.014-0.014h0.801c0.005 0 0.011-0.002 0.014-0.006s0.006-0.009 0.006-0.014l0.001-0.818z"></path>
<path fill="#fff" d="M31.032 17.098h-0.68c-0.009 0-0.015 0.004-0.019 0.012-0.053 0.11-0.101 0.221-0.142 0.335-0.059 0.16 0.073 0.166 0.185 0.178 0.011 0.001 0.017 0.008 0.017 0.019v0.071c0 0.011-0.005 0.016-0.016 0.016l-0.631 0.004c-0.010 0-0.016-0.005-0.016-0.016l-0.001-0.086c0-0.012 0.006-0.019 0.019-0.019 0.17 0.002 0.237-0.157 0.304-0.313 0.228-0.528 0.452-1.046 0.673-1.554 0.005-0.013 0.014-0.023 0.026-0.030s0.025-0.011 0.038-0.011c0.014 0 0.027 0.004 0.038 0.012s0.020 0.018 0.025 0.031c0.229 0.564 0.464 1.135 0.705 1.712 0.043 0.102 0.127 0.155 0.254 0.158 0.012 0 0.017 0.006 0.017 0.018v0.081c0 0.009-0.005 0.014-0.014 0.014h-0.795c-0.009 0-0.014-0.005-0.014-0.014v-0.076c0-0.012 0.006-0.018 0.018-0.020 0.11-0.014 0.218-0.025 0.16-0.177-0.043-0.113-0.088-0.225-0.136-0.337-0.003-0.007-0.009-0.011-0.017-0.011zM30.42 16.908c-0.001 0.001-0.001 0.003-0.001 0.004s0.001 0.003 0.001 0.004c0.001 0.001 0.002 0.002 0.003 0.003s0.003 0.001 0.004 0.001l0.53 0.005c0.001 0 0.003-0 0.004-0.001s0.002-0.002 0.003-0.003c0.001-0.001 0.001-0.003 0.001-0.004s0-0.003-0.001-0.004l-0.259-0.629c-0.001-0.002-0.002-0.003-0.003-0.004s-0.003-0.001-0.005-0.001-0.003 0-0.005 0.001-0.003 0.002-0.003 0.004l-0.272 0.624z"></path>
<path fill="#fff" d="M22.311 16.007c-0.003-0.141-0.131-0.163-0.243-0.145-0.002 0-0.005 0-0.007-0s-0.004-0.002-0.006-0.003c-0.002-0.002-0.003-0.003-0.004-0.006s-0.002-0.004-0.002-0.007v-0.081c0-0.014 0.007-0.020 0.020-0.020h0.683c0.010 0 0.016 0.005 0.016 0.015l0.006 0.076c0.001 0.008-0.003 0.013-0.011 0.014-0.099 0.016-0.194-0.002-0.243 0.108-0.018 0.041-0.025 0.129-0.025 0.179-0.001 0.296-0.001 0.592-0 0.888 0.002 0.55-0.381 0.784-0.895 0.734-0.48-0.047-0.637-0.319-0.645-0.776-0.004-0.284-0.006-0.569-0.004-0.853 0.002-0.225-0.032-0.273-0.257-0.269-0.009 0-0.014-0.004-0.014-0.014v-0.088c0-0.009 0.004-0.014 0.014-0.014h0.843c0.005 0 0.010 0.002 0.014 0.006s0.006 0.009 0.006 0.014v0.068c0 0.011-0.005 0.017-0.016 0.018-0.152 0.018-0.254 0.003-0.257 0.202-0.004 0.274-0.006 0.549-0.004 0.823 0.002 0.287 0.014 0.649 0.381 0.697 0.336 0.044 0.651-0.135 0.653-0.507 0.003-0.444 0.002-0.797-0.003-1.059z"></path>
<path fill="#fff" d="M19.39 16.845c-0.002-0.001-0.005-0.001-0.007-0s-0.005 0.002-0.007 0.003-0.004 0.003-0.005 0.006-0.002 0.005-0.002 0.007c0 0.199 0.001 0.39 0.002 0.573 0.001 0.168 0.111 0.207 0.257 0.187 0.012-0.002 0.018 0.003 0.018 0.015v0.077c0 0.011-0.005 0.016-0.016 0.016l-0.847 0.004c-0.007 0-0.011-0.003-0.012-0.010l-0.009-0.082c-0-0.003 0-0.005 0.001-0.007s0.002-0.005 0.004-0.006 0.004-0.003 0.006-0.004c0.002-0.001 0.005-0.001 0.007-0.001 0.072 0.006 0.141-0.006 0.207-0.036 0.007-0.003 0.013-0.009 0.017-0.016 0.025-0.048 0.037-0.103 0.036-0.164-0.008-0.404 0.011-0.877-0.008-1.387-0.005-0.143-0.112-0.161-0.242-0.144-0.013 0.002-0.020-0.004-0.020-0.018v-0.087c0-0.010 0.005-0.015 0.015-0.015 0.372 0.002 0.605 0.003 0.7 0.002 0.403-0.003 0.845 0.148 0.787 0.641-0.053 0.449-0.517 0.54-0.882 0.445zM19.37 16.002l0.001 0.654c0 0.009 0.002 0.017 0.005 0.025s0.008 0.015 0.014 0.021c0.006 0.006 0.014 0.011 0.022 0.014s0.017 0.005 0.025 0.005h0.105c0.046-0 0.091-0.010 0.133-0.028s0.080-0.045 0.113-0.078c0.032-0.033 0.058-0.073 0.075-0.117s0.026-0.090 0.026-0.137v-0.069c-0-0.095-0.037-0.186-0.102-0.254s-0.154-0.105-0.246-0.105h-0.105c-0.009 0-0.017 0.002-0.025 0.005s-0.015 0.008-0.021 0.014c-0.006 0.006-0.011 0.014-0.014 0.022s-0.005 0.017-0.005 0.025z"></path>
<path fill="#fff" d="M27.783 16.297c-0.002 0.388-0.002 0.778 0.002 1.169 0.001 0.16 0.137 0.157 0.261 0.157 0.002-0 0.003 0 0.005 0.001s0.003 0.002 0.004 0.003c0.001 0.001 0.002 0.003 0.002 0.004s0.001 0.003 0.001 0.005l-0.008 0.084c-0.001 0.008-0.005 0.012-0.014 0.012l-0.691-0.002c-0.009 0-0.014-0.004-0.014-0.013l-0.006-0.077c-0-0.002 0-0.004 0.001-0.006s0.002-0.004 0.003-0.005c0.001-0.002 0.003-0.003 0.005-0.004s0.004-0.001 0.006-0.001c0.129-0.001 0.259-0.003 0.26-0.171 0.001-0.616 0.001-1.066-0.001-1.352-0.001-0.151-0.241-0.234-0.359-0.23-0.012 0-0.018-0.006-0.018-0.018v-0.082c0-0.009 0.004-0.014 0.014-0.014h0.538c0.009 0 0.016 0.004 0.022 0.011l1.11 1.345c0.012 0.014 0.018 0.012 0.018-0.006-0.002-0.323-0.002-0.652 0.001-0.986 0.001-0.214-0.032-0.255-0.248-0.249-0.012 0-0.018-0.006-0.019-0.018l-0.002-0.078c-0-0.013 0.006-0.019 0.019-0.019h0.694c0.009 0 0.014 0.005 0.014 0.014v0.087c0 0.002-0 0.004-0.001 0.005s-0.002 0.003-0.003 0.005-0.003 0.002-0.005 0.003-0.004 0.001-0.005 0.001c-0.215-0.003-0.262 0.028-0.262 0.247-0 0.543-0 1.086-0 1.63 0 0.009-0.005 0.015-0.014 0.016-0.088 0.011-0.105-0.034-0.152-0.091-0.377-0.456-0.758-0.917-1.142-1.382-0.001-0.001-0.002-0.002-0.004-0.003s-0.003-0-0.005 0c-0.002 0-0.003 0.001-0.004 0.003s-0.001 0.003-0.001 0.004z"></path>
<path fill="#fff" d="M23.855 16.856c-0.007 0.165-0.005 0.371 0.005 0.617 0.006 0.143 0.123 0.16 0.25 0.148 0.011-0.001 0.017 0.004 0.017 0.015v0.081c0 0.009-0.004 0.013-0.013 0.013l-0.85 0.002c-0.009 0-0.014-0.005-0.014-0.014v-0.080c0-0.010 0.005-0.015 0.016-0.015 0.157 0.006 0.253-0.013 0.254-0.195 0.001-0.469 0-0.937-0.003-1.406-0.001-0.155-0.126-0.153-0.252-0.149-0.010 0-0.014-0.005-0.014-0.014l0.007-0.087c0.001-0.007 0.004-0.011 0.011-0.011 0.393-0.010 0.724-0.007 0.993 0.008 0.644 0.038 0.753 0.868 0.114 1.007-0.003 0.001-0.005 0.002-0.007 0.004s-0.004 0.004-0.005 0.007c-0.001 0.003-0.001 0.005-0.001 0.008s0.001 0.005 0.003 0.008c0.101 0.146 0.205 0.29 0.312 0.433 0.169 0.227 0.256 0.36 0.518 0.384 0.011 0.001 0.016 0.007 0.016 0.018v0.079c0 0.009-0.004 0.013-0.013 0.013l-0.53 0.005c-0.004-0-0.008-0.001-0.011-0.003s-0.006-0.004-0.009-0.007l-0.626-0.862c-0.010-0.014-0.023-0.020-0.040-0.020h-0.113c-0.010 0-0.015 0.005-0.015 0.014zM23.856 15.934l0.001 0.736c0 0.002 0.001 0.004 0.002 0.005s0.003 0.002 0.005 0.002l0.166-0c0.051-0 0.101-0.010 0.148-0.028s0.090-0.045 0.125-0.079c0.036-0.034 0.064-0.074 0.084-0.118s0.029-0.091 0.029-0.139v-0.026c-0-0.096-0.041-0.188-0.114-0.256s-0.171-0.106-0.274-0.106l-0.166 0c-0.002 0-0.004 0.001-0.005 0.002s-0.002 0.003-0.002 0.005z"></path>
<path fill="#fff" d="M26.336 17.564c0.068 0.050 0.145 0.069 0.23 0.057 0.011-0.001 0.016 0.003 0.016 0.014v0.079c0 0.011-0.006 0.017-0.017 0.017h-0.843c-0.011 0-0.017-0.006-0.017-0.017v-0.078c0-0.010 0.005-0.014 0.015-0.014 0.208 0.011 0.258-0.044 0.261-0.25 0.003-0.225 0.003-0.638 0-1.237-0.001-0.219-0.040-0.262-0.262-0.263-0.009 0-0.014-0.005-0.014-0.014l-0.001-0.079c0-0.010 0.005-0.015 0.015-0.015h0.849c0.009 0 0.014 0.004 0.014 0.014v0.087c0 0.008-0.004 0.012-0.013 0.011-0.113-0.012-0.244-0.002-0.254 0.137-0.019 0.279-0.005 0.604-0.009 0.837-0.003 0.219-0.022 0.477 0.016 0.691 0.002 0.009 0.006 0.017 0.014 0.022z"></path>
<path fill="#000" d="M19.37 16.002c0-0.009 0.002-0.017 0.005-0.025s0.008-0.015 0.014-0.022c0.006-0.006 0.013-0.011 0.021-0.014s0.017-0.005 0.025-0.005h0.105c0.092-0 0.181 0.037 0.246 0.105s0.102 0.158 0.102 0.254v0.069c0 0.047-0.009 0.094-0.026 0.137s-0.043 0.083-0.075 0.117c-0.032 0.033-0.070 0.060-0.113 0.078s-0.087 0.028-0.133 0.028h-0.105c-0.009 0-0.017-0.002-0.025-0.005s-0.015-0.008-0.022-0.014-0.011-0.013-0.014-0.021c-0.003-0.008-0.005-0.017-0.005-0.025l-0.001-0.654z"></path>
<path fill="#000" d="M23.856 15.934c0-0.002 0.001-0.004 0.002-0.005s0.003-0.002 0.005-0.002l0.166-0c0.103-0 0.201 0.038 0.274 0.106s0.114 0.16 0.114 0.256v0.026c0 0.048-0.010 0.095-0.029 0.139s-0.048 0.084-0.084 0.118c-0.036 0.034-0.079 0.060-0.125 0.079s-0.097 0.028-0.148 0.028l-0.166 0c-0.002 0-0.004-0.001-0.005-0.002s-0.002-0.003-0.002-0.005l-0.001-0.736z"></path>
<path fill="#000" d="M30.42 16.908l0.272-0.624c0.001-0.002 0.002-0.003 0.003-0.004s0.003-0.001 0.005-0.001c0.002 0 0.003 0.001 0.005 0.002s0.002 0.002 0.003 0.004l0.259 0.629c0.001 0.001 0.001 0.003 0.001 0.004s-0.001 0.003-0.001 0.004c-0.001 0.001-0.002 0.002-0.003 0.003s-0.003 0.001-0.004 0.001l-0.53-0.005c-0.001 0-0.003-0-0.004-0.001s-0.002-0.002-0.003-0.003c-0.001-0.001-0.001-0.003-0.001-0.004s0-0.003 0.001-0.004z"></path>
<path fill="#d7bb77" d="M19.864 23.058c-1.257 0.377-2.799-0.379-2.724-1.841 0.099-1.923 2.723-2.454 3.804-1.044 0.201 0.262 0.313 0.595 0.327 0.93 0.038 0.909-0.535 1.694-1.407 1.955zM18.338 22.615c0.493 0.439 1.3 0.557 1.811 0.087 0.684-0.629 0.679-1.947 0.104-2.638-0.291-0.351-0.675-0.527-1.151-0.529-0.666-0.003-1.112 0.453-1.281 1.059-0.194 0.696-0.040 1.526 0.517 2.022z"></path>
<path fill="#d7bb77" d="M10.069 21.922c0.002 0.164 0.003 0.328 0.004 0.492 0.001 0.266 0.018 0.462 0.282 0.55 0.111 0.037 0.264 0.016 0.396 0.031 0.010 0.001 0.015 0.007 0.015 0.017l-0.003 0.078c-0 0.009-0.005 0.014-0.015 0.014h-1.861c-0.011 0-0.017-0.006-0.017-0.017v-0.090c0-0.012 0.006-0.018 0.018-0.018 0.412 0.010 0.62-0.060 0.623-0.504 0.005-0.774 0.007-1.548 0.006-2.321-0.001-0.446-0.204-0.579-0.627-0.529-0.013 0.002-0.019-0.004-0.019-0.017v-0.1c0-0.009 0.004-0.013 0.012-0.014 0.375-0.025 0.75-0.043 1.126-0.052 0.568-0.014 1.189-0.035 1.711 0.227 0.421 0.211 0.65 0.551 0.617 1.043-0.060 0.877-1.056 1.181-1.78 1.197-0.157 0.003-0.315 0.003-0.472-0.002-0.010-0-0.014 0.004-0.014 0.014zM10.072 19.625l-0.004 2.092c0 0.012 0.005 0.023 0.013 0.031s0.019 0.013 0.031 0.013l0.562 0.001c0.136 0 0.27-0.024 0.396-0.072s0.24-0.118 0.336-0.207 0.172-0.194 0.224-0.31c0.052-0.116 0.079-0.241 0.079-0.366l0.001-0.266c0-0.254-0.108-0.497-0.302-0.677s-0.456-0.281-0.73-0.281l-0.562-0.001c-0.012 0-0.023 0.005-0.031 0.013s-0.013 0.019-0.013 0.031z"></path>
<path fill="#d7bb77" d="M14.184 22.963c0.127 0.033 0.242 0.015 0.402 0.031 0.002 0 0.005 0.001 0.007 0.002s0.004 0.003 0.006 0.005c0.002 0.002 0.003 0.004 0.003 0.007s0.001 0.005 0.001 0.007l-0.009 0.077c-0.001 0.008-0.005 0.012-0.013 0.012h-1.855c-0.010 0-0.015-0.005-0.015-0.015l0.005-0.089c0-0.011 0.006-0.017 0.018-0.016 0.528 0.006 0.62-0.143 0.621-0.641 0.001-0.729 0.001-1.459 0.001-2.188-0-0.451-0.209-0.574-0.631-0.528-0.011 0.001-0.016-0.004-0.016-0.015v-0.1c0-0.011 0.005-0.017 0.016-0.018 0.54-0.035 1.081-0.054 1.622-0.057 0.553-0.003 1.361 0.111 1.682 0.637 0.212 0.348 0.196 0.809-0.039 1.144-0.162 0.23-0.386 0.388-0.674 0.473-0.002 0.001-0.005 0.002-0.007 0.004s-0.003 0.004-0.004 0.007c-0.001 0.003-0.001 0.005 0 0.008s0.002 0.005 0.004 0.007c0.292 0.269 0.588 0.537 0.89 0.803 0.302 0.267 0.664 0.454 1.071 0.493 0.011 0.001 0.016 0.007 0.016 0.018v0.093c0 0.010-0.005 0.016-0.016 0.016-0.585 0.029-1.15 0-1.609-0.393-0.32-0.274-0.634-0.555-0.942-0.843-0.006-0.006-0.013-0.008-0.022-0.008-0.26 0.020-0.521 0.023-0.782 0.008-0.001-0-0.002 0-0.003 0s-0.002 0.001-0.003 0.002c-0.001 0.001-0.001 0.002-0.002 0.003s-0.001 0.002-0.001 0.003c-0.002 0.19-0.002 0.38 0.001 0.571 0.003 0.195 0.067 0.425 0.275 0.479zM13.909 19.621l-0.004 2.101c0 0.010 0.004 0.021 0.012 0.028s0.018 0.012 0.028 0.012l0.565 0.001c0.136 0 0.27-0.024 0.396-0.073s0.24-0.119 0.336-0.208c0.096-0.089 0.173-0.195 0.225-0.312s0.079-0.242 0.079-0.368l0.001-0.254c0-0.255-0.108-0.5-0.302-0.681s-0.456-0.283-0.73-0.283l-0.565-0.001c-0.011 0-0.021 0.004-0.028 0.012s-0.012 0.018-0.012 0.028z"></path>
<path fill="#d7bb77" d="M23.242 20.081c-0.003-0.419-0.279-0.486-0.632-0.458-0.002 0-0.003-0-0.005-0.001s-0.003-0.001-0.004-0.003c-0.001-0.001-0.002-0.003-0.003-0.004s-0.001-0.003-0.001-0.005l0.005-0.104c0-0.007 0.004-0.010 0.010-0.010 0.467-0.031 0.935-0.053 1.403-0.065 0.674-0.017 1.746 0.077 1.999 0.856 0.132 0.406 0.017 0.857-0.302 1.147-0.501 0.457-1.264 0.487-1.898 0.472-0.010-0-0.014 0.004-0.014 0.014 0.001 0.209 0.002 0.417 0.004 0.623 0.002 0.193 0.078 0.364 0.275 0.406 0.127 0.027 0.256 0.038 0.387 0.031 0.009-0.001 0.015 0.004 0.015 0.014l0.006 0.093c0 0.002-0 0.004-0.001 0.006s-0.002 0.004-0.003 0.005-0.003 0.003-0.005 0.004-0.004 0.001-0.006 0.001h-1.859c-0.010 0-0.015-0.005-0.015-0.015l-0-0.094c-0-0.013 0.006-0.019 0.019-0.018 0.309 0.015 0.621-0.030 0.622-0.424 0.005-1.201 0.006-2.026 0.003-2.473zM23.804 19.62l-0.004 2.103c0 0.010 0.004 0.020 0.011 0.027s0.017 0.011 0.027 0.011l0.558 0.001c0.137 0 0.272-0.025 0.398-0.073s0.241-0.12 0.338-0.21c0.097-0.090 0.174-0.197 0.226-0.314s0.080-0.244 0.080-0.371l0.001-0.24c0-0.257-0.109-0.504-0.303-0.686s-0.459-0.285-0.735-0.285l-0.558-0.001c-0.010 0-0.020 0.004-0.028 0.011s-0.011 0.017-0.011 0.027z"></path>
<path fill="#fff" d="M39.398 19.72c0 0.062-0.025 0.122-0.069 0.167s-0.104 0.069-0.167 0.069-0.123-0.025-0.167-0.069c-0.044-0.044-0.069-0.104-0.069-0.167s0.025-0.122 0.069-0.167c0.044-0.044 0.104-0.069 0.167-0.069s0.123 0.025 0.167 0.069c0.044 0.044 0.069 0.104 0.069 0.167zM39.357 19.721c0-0.026-0.005-0.051-0.015-0.075s-0.024-0.045-0.042-0.063c-0.018-0.018-0.040-0.032-0.063-0.042s-0.049-0.015-0.075-0.015c-0.026 0-0.051 0.005-0.075 0.015s-0.045 0.024-0.063 0.042c-0.018 0.018-0.032 0.040-0.042 0.063s-0.015 0.049-0.015 0.075c0 0.052 0.021 0.101 0.057 0.138s0.086 0.057 0.138 0.057c0.052 0 0.101-0.021 0.138-0.057s0.057-0.086 0.057-0.138z"></path>
<path fill="#d7bb77" d="M28.308 19.622c-0.257 0.004-0.674-0.099-0.674 0.313-0.001 1.296-0.001 2.216 0.002 2.759 0.001 0.14 0.072 0.211 0.214 0.212 0.333 0.003 0.666 0.004 0.999 0.004 0.383 0 0.667-0.254 0.884-0.547 0.006-0.008 0.014-0.013 0.023-0.015s0.019 0 0.027 0.005l0.058 0.035c0.003 0.002 0.006 0.005 0.007 0.009s0.001 0.008-0.001 0.011l-0.357 0.684c-0.004 0.009-0.011 0.013-0.021 0.013h-2.923c-0.011 0-0.017-0.006-0.017-0.017v-0.089c0-0.009 0.004-0.014 0.014-0.014 0.18-0.006 0.4 0.054 0.501-0.148 0.025-0.050 0.038-0.126 0.038-0.228 0.001-0.853 0.001-1.706-0-2.559-0.001-0.378-0.158-0.438-0.51-0.426-0.010 0-0.015-0.004-0.015-0.014v-0.097c0-0.011 0.005-0.016 0.016-0.016l1.728-0.007c0.010 0 0.016 0.005 0.017 0.015l0.005 0.103c0 0.009-0.004 0.013-0.013 0.014z"></path>
<path fill="#d7bb77" d="M33.941 22.951c0.091 0.037 0.19 0.045 0.299 0.023l0.006 0.114c0 0.010-0.004 0.016-0.015 0.016h-1.769c-0.009 0-0.014-0.005-0.014-0.014l0.002-0.101c0-0.002 0-0.004 0.001-0.006s0.002-0.004 0.004-0.005 0.003-0.003 0.005-0.003 0.004-0.001 0.006-0.001c0.208 0.010 0.739 0.071 0.604-0.268-0.109-0.273-0.221-0.544-0.336-0.814-0.005-0.011-0.012-0.013-0.021-0.004-0.456 0.424-1.091 0.098-1.567-0.082-0.009-0.003-0.015-0.001-0.019 0.008-0.112 0.261-0.221 0.522-0.326 0.783-0.035 0.086-0.086 0.173-0.037 0.259 0.096 0.169 0.402 0.126 0.575 0.131 0.011 0 0.017 0.006 0.017 0.017v0.087c0 0.009-0.004 0.014-0.014 0.014h-1.41c-0.009 0-0.014-0.005-0.014-0.014v-0.093c0-0.010 0.005-0.016 0.015-0.018 0.094-0.012 0.206-0.010 0.285-0.060 0.096-0.060 0.17-0.144 0.221-0.252 0.144-0.304 0.278-0.612 0.403-0.924 0.003-0.007 0-0.010-0.007-0.011-0.298-0.020-0.555 0.071-0.77 0.271-0.004 0.003-0.008 0.006-0.013 0.006s-0.010-0.001-0.014-0.003l-0.069-0.042c-0.009-0.005-0.010-0.013-0.005-0.021 0.235-0.36 0.571-0.538 1.009-0.532 0.010 0 0.018-0.005 0.022-0.015 0.308-0.743 0.544-1.302 0.708-1.677 0.026-0.060 0.042-0.114 0.047-0.161 0.001-0.009-0.001-0.017-0.007-0.024-0.007-0.008-0.010-0.017-0.010-0.026 0.001-0.010 0.006-0.015 0.016-0.015l0.54 0.001c0.012 0 0.020 0.005 0.024 0.016 0.493 1.097 0.931 2.202 1.324 3.12 0.071 0.166 0.172 0.273 0.304 0.32zM31.306 21.487c0.388 0.128 0.962 0.425 1.366 0.278 0.002-0.001 0.003-0.002 0.004-0.003s0.002-0.002 0.003-0.004c0.001-0.002 0.001-0.003 0.001-0.005s-0-0.003-0.001-0.005l-0.75-1.799c-0.009-0.021-0.018-0.021-0.027 0l-0.627 1.502c-0.005 0.012-0.002 0.020 0.009 0.026 0.004 0.002 0.011 0.005 0.021 0.008z"></path>
<path fill="#d7bb77" d="M35.257 20.055c-0.001 1.163 0.002 2.020 0.008 2.571 0.003 0.321 0.282 0.365 0.56 0.354 0.012-0.001 0.018 0.005 0.018 0.017v0.093c0 0.009-0.004 0.014-0.014 0.014h-1.309c-0.009 0-0.014-0.004-0.014-0.014v-0.094c0-0.011 0.006-0.018 0.017-0.018 0.097-0.006 0.214 0.001 0.296-0.046 0.114-0.065 0.171-0.168 0.172-0.308 0.001-0.908 0.002-1.817 0.001-2.725-0-0.205-0.279-0.292-0.46-0.272-0.012 0.002-0.018-0.004-0.018-0.016v-0.103c0-0.009 0.005-0.014 0.014-0.014h0.971c0.004 0 0.008 0.001 0.012 0.003s0.007 0.004 0.009 0.007l2.369 2.716c0.012 0.014 0.019 0.012 0.019-0.007 0-0.74 0.001-1.486 0.002-2.24 0.001-0.325-0.295-0.368-0.558-0.347-0.002 0-0.004-0-0.006-0.001s-0.004-0.002-0.005-0.003c-0.001-0.001-0.002-0.003-0.003-0.005s-0.001-0.004-0.001-0.006l0.006-0.102c0-0.004 0.002-0.008 0.005-0.011s0.007-0.004 0.011-0.004h1.324c0.009 0 0.014 0.005 0.014 0.014v0.101c0 0.009-0.005 0.014-0.014 0.014-0.236-0.003-0.509-0.027-0.511 0.305-0.002 0.426-0.002 1.477-0.001 3.153 0 0.009-0.004 0.015-0.013 0.018-0.108 0.033-0.2 0.007-0.275-0.077-0.851-0.95-1.692-1.908-2.524-2.875-0.028-0.033-0.058-0.065-0.089-0.096-0.008-0.008-0.012-0.006-0.012 0.005z"></path>
<path fill="#000" d="M39.357 19.721c0 0.052-0.021 0.101-0.057 0.138s-0.086 0.057-0.138 0.057c-0.052 0-0.101-0.021-0.138-0.057s-0.057-0.086-0.057-0.138c0-0.026 0.005-0.051 0.015-0.075s0.024-0.045 0.042-0.063c0.018-0.018 0.040-0.032 0.063-0.042s0.049-0.015 0.075-0.015c0.026 0 0.051 0.005 0.075 0.015s0.045 0.024 0.063 0.042c0.018 0.018 0.032 0.040 0.042 0.063s0.015 0.049 0.015 0.075zM39.236 19.731c0.058-0.033 0.062-0.079 0.011-0.138-0.001-0.001-0.002-0.002-0.004-0.003s-0.003-0.001-0.004-0.001l-0.154-0.009c-0.012-0.001-0.019 0.005-0.019 0.018l0 0.239c0 0.006 0.002 0.012 0.006 0.016s0.009 0.007 0.015 0.008c0.006 0.001 0.012-0.001 0.017-0.004s0.008-0.008 0.010-0.014c0.007-0.026 0.006-0.051-0.002-0.074-0.001-0.003-0.001-0.005-0.001-0.008s0.001-0.005 0.002-0.008 0.003-0.004 0.005-0.006c0.002-0.002 0.005-0.003 0.007-0.003 0.018-0.004 0.034 0.002 0.048 0.017 0.002 0.002 0.004 0.005 0.005 0.008 0.017 0.035 0.040 0.065 0.068 0.091 0.002 0.002 0.005 0.003 0.007 0.003s0.005-0 0.008-0.001c0.002-0.001 0.004-0.003 0.006-0.006s0.002-0.005 0.002-0.008c-0.003-0.028-0.015-0.051-0.037-0.070-0.004-0.003-0.006-0.007-0.008-0.012s-0.002-0.009-0.002-0.014 0.002-0.009 0.005-0.013c0.003-0.004 0.006-0.007 0.010-0.010z"></path>
<path fill="#000" d="M18.338 22.614c-0.558-0.496-0.712-1.326-0.517-2.022 0.169-0.606 0.615-1.062 1.281-1.059 0.476 0.002 0.86 0.178 1.151 0.529 0.574 0.691 0.58 2.009-0.104 2.638-0.511 0.47-1.317 0.352-1.811-0.087z"></path>
<path fill="#000" d="M10.072 19.625c0-0.012 0.005-0.023 0.013-0.031s0.019-0.013 0.031-0.013l0.562 0.001c0.274 0 0.537 0.102 0.73 0.282s0.302 0.423 0.302 0.677l-0.001 0.266c-0 0.126-0.027 0.25-0.079 0.366s-0.128 0.221-0.224 0.31c-0.096 0.089-0.21 0.159-0.336 0.207s-0.26 0.072-0.396 0.072l-0.562-0.001c-0.012 0-0.023-0.005-0.031-0.013s-0.013-0.019-0.013-0.031l0.004-2.092z"></path>
<path fill="#000" d="M13.909 19.621c0-0.010 0.004-0.021 0.012-0.028s0.018-0.012 0.028-0.012l0.565 0.001c0.274 0 0.537 0.102 0.73 0.283s0.302 0.426 0.302 0.681l-0.001 0.254c-0 0.126-0.027 0.252-0.079 0.368s-0.128 0.223-0.225 0.312c-0.096 0.089-0.21 0.16-0.336 0.208s-0.26 0.073-0.396 0.073l-0.565-0.001c-0.011 0-0.021-0.004-0.028-0.012s-0.012-0.017-0.012-0.028l0.004-2.101z"></path>
<path fill="#000" d="M23.804 19.62c0-0.010 0.004-0.020 0.011-0.027s0.017-0.011 0.028-0.011l0.558 0.001c0.276 0 0.54 0.103 0.735 0.285s0.304 0.429 0.303 0.686l-0.001 0.24c-0 0.127-0.027 0.253-0.080 0.371s-0.129 0.224-0.226 0.314c-0.097 0.090-0.211 0.161-0.338 0.21s-0.261 0.073-0.398 0.073l-0.558-0.001c-0.010 0-0.020-0.004-0.027-0.011s-0.011-0.017-0.011-0.027l0.004-2.103z"></path>
<path fill="#fff" d="M39.236 19.731c-0.004 0.002-0.008 0.006-0.010 0.010s-0.004 0.009-0.005 0.014c-0 0.005 0 0.010 0.002 0.014s0.005 0.008 0.008 0.011c0.022 0.018 0.034 0.042 0.037 0.070 0 0.003-0 0.005-0.002 0.008s-0.003 0.004-0.006 0.006c-0.002 0.001-0.005 0.002-0.008 0.001s-0.005-0.002-0.007-0.003c-0.028-0.026-0.051-0.057-0.068-0.091-0.001-0.003-0.003-0.005-0.005-0.008-0.014-0.016-0.030-0.021-0.048-0.017-0.002 0.001-0.005 0.002-0.007 0.003s-0.004 0.004-0.005 0.006c-0.001 0.002-0.002 0.005-0.002 0.008s0 0.005 0.001 0.008c0.008 0.023 0.009 0.048 0.002 0.074-0.001 0.006-0.005 0.011-0.010 0.014s-0.011 0.005-0.017 0.004c-0.006-0.001-0.011-0.004-0.015-0.008s-0.006-0.010-0.006-0.016l-0-0.239c0-0.013 0.006-0.018 0.019-0.018l0.154 0.009c0.001 0 0.003 0 0.004 0.001s0.002 0.002 0.004 0.003c0.051 0.059 0.047 0.105-0.011 0.138zM39.227 19.652c0-0.004-0-0.007-0.002-0.010s-0.003-0.006-0.006-0.009-0.005-0.005-0.008-0.006-0.007-0.002-0.010-0.002l-0.061-0.002c-0.007-0-0.014 0.002-0.019 0.007s-0.008 0.012-0.008 0.019l-0.001 0.021c-0 0.003 0.001 0.007 0.002 0.010s0.003 0.006 0.006 0.009c0.002 0.003 0.005 0.005 0.008 0.006s0.007 0.002 0.010 0.002l0.061 0.002c0.007 0 0.014-0.002 0.019-0.007s0.008-0.012 0.008-0.019l0.001-0.021z"></path>
<path fill="#000" d="M39.201 19.625l-0.061-0.002c-0.015-0-0.027 0.011-0.028 0.026l-0.001 0.021c-0 0.015 0.011 0.027 0.026 0.028l0.061 0.002c0.015 0 0.027-0.011 0.028-0.026l0.001-0.021c0.001-0.015-0.011-0.027-0.026-0.028z"></path>
<path fill="#000" d="M31.306 21.487c-0.010-0.003-0.017-0.006-0.021-0.008-0.011-0.006-0.014-0.014-0.009-0.026l0.627-1.502c0.009-0.021 0.018-0.021 0.027 0l0.749 1.799c0.001 0.001 0.001 0.003 0.001 0.005s-0 0.003-0.001 0.005c-0.001 0.002-0.002 0.003-0.003 0.004s-0.002 0.002-0.004 0.003c-0.404 0.147-0.978-0.15-1.366-0.278z"></path>
<path fill="#a88f62" d="M33.941 22.951l0.299 0.023c-0.108 0.022-0.208 0.014-0.299-0.023z"></path>
</svg>
