<!-- Generated by IcoMoon.io -->
<svg version="1.1" xmlns="http://www.w3.org/2000/svg" width="44" height="32" viewBox="0 0 44 32">
<title>sheba</title>
<path d="M29.47 0h0.039c0.051 0.369-0.101 0.716-0.142 1.108-0.023 0.224 0.019 0.369 0.129 0.579 0.366 0.704 0.265 1.517 0.071 2.252-0.016 0.058-0.022 0.115-0.020 0.17 0.043 0.989 0.235 1.946-0.085 2.859-0.101 0.289-0.317 0.623-0.445 0.87-0.349 0.678-0.566 1.411-0.589 2.17-0.002 0.077 0.005 0.156 0.023 0.236 0.123 0.565 0.315 1.146 0.381 1.702 0.028 0.229 0.042 0.437-0.011 0.623-0.022 0.076-0.074 0.084-0.122 0.025-0.498-0.621-1.291-0.634-2.016-0.604-0.163 0.007-0.334 0.026-0.513 0.058-0.408 0.073-0.79 0.16-1.147 0.262-1.861 0.531-3.608 1.363-5.443 1.969-0.381 0.126-0.682 0.18-1.055 0.147-0.009-0.001-0.013-0.005-0.013-0.014 0.066-1.731 0.359-3.482 1.068-5.070 0.634-1.421 1.797-2.555 3.32-2.964 0-0 0.105-0.022 0.313-0.066 0.56-0.118 0.965-0.45 1.212-0.995 0.222-0.489 0.655-0.837 1.075-1.23 0.005-0.005 0.008-0.012 0.009-0.019s-0.002-0.014-0.007-0.020c-0.506-0.585-0.592-1.395-0.455-2.152 0.007-0.041-0.007-0.117-0.044-0.227-0.16-0.481-0.343-0.92-0.179-1.351 0.002-0.006 0.007-0.011 0.012-0.014s0.012-0.005 0.018-0.004c0.473 0.072 0.864 0.405 1.134 0.785 0.005 0.007 0.012 0.010 0.020 0.009 0.715-0.095 1.436-0.238 2.138-0.115 0.005 0.001 0.010 0 0.014-0.001s0.008-0.005 0.011-0.009c0.284-0.379 0.626-0.686 1.025-0.921 0.076-0.045 0.184-0.034 0.27-0.047zM25.465 2.406c0.233 0.633 1.128 0.709 1.664 0.545 0.002-0.001 0.003-0.001 0.004-0.002s0.002-0.002 0.003-0.004c0.001-0.002 0.001-0.003 0.001-0.005s-0-0.003-0.001-0.005c-0.092-0.256-0.269-0.42-0.53-0.493-0.007-0.002-0.016-0.001-0.022 0.002s-0.012 0.010-0.015 0.017c-0.055 0.166-0.12 0.332-0.277 0.433-0.008 0.005-0.016 0.004-0.022-0.003-0.181-0.195-0.075-0.715-0.473-0.574-0.103 0.036-0.208 0.057-0.315 0.062-0.003 0-0.006 0.001-0.009 0.002s-0.005 0.004-0.007 0.006c-0.002 0.003-0.003 0.005-0.003 0.008s0 0.006 0.001 0.009zM28.655 2.333c-0.022 0.179-0.012 0.422-0.192 0.551-0.003 0.002-0.007 0.004-0.011 0.004s-0.008 0-0.012-0.001c-0.22-0.078-0.128-0.567-0.393-0.417-0.194 0.11-0.338 0.266-0.434 0.467-0.001 0.002-0.002 0.004-0.002 0.006s0 0.004 0.001 0.006c0.001 0.002 0.002 0.004 0.004 0.005s0.004 0.003 0.006 0.003c0.572 0.182 1.412 0.095 1.654-0.546 0.005-0.012 0.001-0.019-0.011-0.022-0.193-0.051-0.389-0.077-0.588-0.077-0.005 0-0.010 0.002-0.014 0.005s-0.006 0.008-0.007 0.013z"></path>
<path d="M4.341 32h-0.303c-0.297-0.009-0.591-0.035-0.884-0.078-1.338-0.194-2.483-1.064-2.913-2.368-0.139-0.419-0.219-0.84-0.241-1.262v-0.297c0.020-0.423 0.111-0.825 0.274-1.206 0.001-0.003 0.003-0.005 0.006-0.007s0.006-0.003 0.009-0.003c0.003-0 0.006 0 0.009 0.002s0.005 0.003 0.007 0.006c0.84 1.19 2.037 2.242 3.487 2.566 1.137 0.254 2.314 0.286 3.406-0.179 1.346-0.573 2.385-1.666 2.748-3.104 0.386-1.528 0.093-3.178-0.651-4.568-0.134-0.251-0.274-0.476-0.42-0.673-0.838-1.139-1.707-2.228-2.608-3.269-0.856-0.989-1.675-1.994-2.119-3.223-0.584-1.615-0.308-3.477 0.716-4.846 1.348-1.801 3.7-2.486 5.857-2.332 0.696 0.050 1.379 0.219 1.996 0.55 0.542 0.291 0.654 0.965 0.408 1.497-0.003 0.008-0.009 0.010-0.017 0.007-1.863-0.772-4.19-0.811-5.846 0.484-0.525 0.411-0.835 0.961-0.912 1.632-0.072 0.629 0.019 1.21 0.275 1.74 0.196 0.407 0.465 0.856 0.809 1.345 1.298 1.847 2.996 3.31 4.19 5.302 0.945 1.577 1.178 3.464 0.817 5.253-0.407 2.014-1.392 3.68-2.955 4.999-1.45 1.223-3.24 1.972-5.144 2.032z"></path>
<path d="M22.952 23.14c-0-0.002-0.002-0.004-0.003-0.005s-0.004-0.002-0.006-0.002c-0.002-0-0.004 0.001-0.006 0.002s-0.003 0.003-0.004 0.005c-0.358 0.989-0.929 1.941-1.773 2.59-0.519 0.398-1.304 0.716-1.925 0.364-0.44-0.25-0.637-0.9-0.685-1.37-0.037-0.359-0.045-0.718-0.024-1.078 0.103-1.839 0.402-3.657 0.667-5.477 0.021-0.143 0.037-0.283 0.049-0.42 0.031-0.348 0.111-0.789-0.16-1.039-0.003-0.003-0.007-0.005-0.011-0.006s-0.008-0.001-0.012 0c-0.431 0.123-0.669 0.484-0.913 0.827-1.641 2.304-2.19 5.047-2.516 7.846-0.092 0.789-0.175 1.576-0.25 2.363-0 0.005-0.003 0.009-0.006 0.012s-0.008 0.005-0.013 0.004c-0.706-0.052-1.356-0.449-1.641-1.118-0.31-0.728-0.284-1.641-0.185-2.432 0.057-0.454 0.103-1.033 0.159-1.549 0.472-4.328 1.12-8.655 1.117-13.015 0-0.006 0.002-0.012 0.006-0.016s0.009-0.007 0.015-0.008c0.987-0.109 1.853 0.431 2.137 1.392 0.253 0.854 0.252 1.764 0.154 2.643-0.199 1.801-0.451 3.589-0.744 5.375-0 0.003 0 0.006 0.002 0.008s0.004 0.004 0.007 0.005c0.003 0.001 0.006 0.001 0.008-0s0.005-0.003 0.006-0.006c0.183-0.394 0.364-0.791 0.543-1.189 0.254-0.563 0.604-1.045 1.067-1.551 0.589-0.645 1.337-1.146 2.217-1.269 0.098-0.014 0.186-0.012 0.265 0.004 0.71 0.148 0.986 0.946 1.021 1.577 0.016 0.293 0.006 0.651-0.031 1.075-0.171 1.967-0.778 3.877-0.695 5.866 0.011 0.258 0.171 0.858 0.573 0.613 0.673-0.41 0.922-1.219 1.184-1.88 0.054-0.136 0.085-0.243 0.094-0.32 0.032-0.271-0-0.532-0.004-0.802-0.022-1.628 0.482-3.44 1.32-4.833 0.549-0.913 1.239-1.784 2.178-2.317 0.647-0.367 1.517-0.493 2.176-0.088 0.261 0.16 0.431 0.62 0.476 0.904 0.057 0.36 0.046 0.725-0.033 1.093-0.452 2.115-2.036 3.831-4.019 4.616-0.009 0.004-0.014 0.010-0.013 0.020 0.007 0.673 0.148 1.446 0.658 1.939 0.523 0.505 1.418 0.005 1.826-0.398 1.294-1.281 1.983-3.17 2.346-4.914 0.579-2.781 0.747-5.581 0.774-8.415 0-0.009 0.004-0.014 0.013-0.015 0.768-0.136 1.608 0.34 1.742 1.139 0.246 1.472-0.008 2.956-0.252 4.409-0 0.002-0 0.004 0.001 0.006s0.003 0.003 0.005 0.004c0.002 0.001 0.004 0.001 0.006 0s0.004-0.002 0.005-0.004c0.555-0.934 1.219-1.884 2.279-2.29 0.472-0.181 1.062-0.133 1.383 0.286 0.073 0.095 0.145 0.251 0.216 0.467 0.343 1.048 0.343 2.181 0.15 3.264-0.261 1.468-0.742 2.908-1.603 4.13-0.717 1.018-1.58 1.889-2.825 2.202-0.198 0.050-0.368 0.074-0.51 0.072-0.406-0.005-0.826-0.171-1.105-0.473-0.427-0.464-0.488-1.176-0.5-1.77 0-0.003-0.001-0.006-0.003-0.008s-0.004-0.004-0.007-0.004-0.006 0-0.008 0.002c-0.002 0.002-0.004 0.004-0.005 0.006-0.417 1.107-0.972 2.193-1.798 3.051-0.119 0.124-0.24 0.247-0.361 0.37-0.655 0.661-1.593 1.092-2.522 1.026-0.121-0.008-0.25-0.037-0.388-0.085-0.643-0.226-1.107-0.749-1.289-1.408zM31.376 17.62c-0.232 0.911-0.366 1.923-0.265 2.861 0.038 0.354 0.285 0.902 0.75 0.616 0.69-0.424 0.981-1.272 1.266-1.978 0.072-0.177 0.132-0.339 0.18-0.485 0.462-1.391 0.73-2.833 0.665-4.276-0.011-0.247-0.109-0.825-0.504-0.687-0.083 0.029-0.186 0.092-0.308 0.189-0.388 0.306-0.666 0.727-0.869 1.168-0.382 0.829-0.687 1.692-0.915 2.591zM27.024 16.103c0.079-0.312 0.253-1.133-0.18-1.237-0.036-0.009-0.077-0.002-0.124 0.020-0.429 0.203-0.668 0.563-0.904 0.983-0.652 1.159-1.007 2.502-1.106 3.82-0.001 0.012 0.004 0.015 0.014 0.009 1.26-0.755 1.949-2.206 2.3-3.595z"></path>
<path d="M43.763 16.791v0.116c-0.068 0.464-0.282 0.985-0.6 1.333-0.376 0.413-1.047 0.761-1.621 0.679-0.751-0.107-1.107-0.975-1.114-1.636-0-0.003-0.001-0.006-0.003-0.008s-0.005-0.003-0.008-0.004c-0.003-0-0.006 0-0.008 0.002s-0.004 0.004-0.005 0.007c-0.002 0.009-0.006 0.019-0.011 0.030-0.49 0.991-1.047 2.116-2.065 2.668-0.436 0.236-0.924 0.219-1.311-0.095-0.486-0.394-0.65-1.289-0.666-1.878-0.039-1.452 0.234-2.84 0.818-4.164 0.677-1.533 2.010-3.268 3.808-3.476 0.627-0.073 1.293 0.192 1.513 0.814 0.254 0.719 0.152 1.509 0.041 2.245-0.103 0.684-0.204 1.369-0.303 2.054-0.052 0.361-0.089 0.724-0.11 1.088-0.015 0.27-0.090 0.727 0.238 0.859 0.035 0.014 0.073 0.015 0.113 0.004 0.506-0.145 0.776-0.697 0.988-1.127 0.002-0.003 0.004-0.007 0.007-0.009s0.007-0.004 0.010-0.005c0.004-0.001 0.008-0.001 0.012 0s0.007 0.003 0.010 0.005c0.163 0.128 0.251 0.293 0.265 0.496zM38.914 18.374c0.357-0.329 0.615-0.764 0.801-1.187 0.454-1.032 0.813-2.109 1.077-3.231 0.136-0.578 0.219-1.087 0.25-1.527 0.018-0.253-0.005-0.485-0.066-0.696-0.099-0.337-0.412-0.451-0.7-0.25-0.283 0.198-0.461 0.432-0.659 0.738-0.090 0.138-0.16 0.261-0.21 0.368-0.649 1.371-1.047 2.811-1.195 4.318-0.037 0.379-0.124 1.643 0.586 1.523 0.044-0.007 0.083-0.027 0.117-0.057z"></path>
</svg>
