<svg width="36" height="36" viewBox="0 0 36 36" fill="none" xmlns="http://www.w3.org/2000/svg">
<g clip-path="url(#clip0_592_38)">
<path d="M18 0C13.2272 0 8.64563 1.89759 5.27344 5.27203C1.89777 8.64781 0.000935072 13.226 0 18C0 22.772 1.89844 27.3535 5.27344 30.728C8.64563 34.1024 13.2272 36 18 36C22.7728 36 27.3544 34.1024 30.7266 30.728C34.1016 27.3535 36 22.772 36 18C36 13.228 34.1016 8.64647 30.7266 5.27203C27.3544 1.89759 22.7728 0 18 0Z" fill="url(#paint0_linear_592_38)"/>
<path d="M8.14777 17.8101C13.3959 15.5241 16.8946 14.0168 18.644 13.2887C23.6446 11.2094 24.6825 10.8483 25.3603 10.836C25.5093 10.8337 25.8412 10.8705 26.0578 11.0456C26.2378 11.1932 26.2884 11.3929 26.3137 11.5331C26.3362 11.6732 26.3671 11.9924 26.3418 12.2416C26.0718 15.0878 24.899 21.9948 24.3028 25.1827C24.0525 26.5316 23.5546 26.9839 23.0737 27.028C22.0275 27.1242 21.2343 26.3373 20.2218 25.6738C18.6384 24.6352 17.744 23.9888 16.2056 22.9755C14.4281 21.8044 15.5812 21.1606 16.5937 20.1087C16.8581 19.8334 21.465 15.6442 21.5521 15.2642C21.5634 15.2167 21.5746 15.0395 21.4678 14.9461C21.3637 14.8524 21.209 14.8845 21.0965 14.9098C20.9362 14.9458 18.4078 16.6187 13.5028 19.9282C12.7856 20.4215 12.1359 20.6619 11.5509 20.6493C10.9096 20.6355 9.67214 20.2859 8.75245 19.9872C7.62745 19.6207 6.73027 19.427 6.80902 18.8046C6.84839 18.4806 7.29558 18.149 8.14777 17.8101Z" fill="white"/>
</g>
<defs>
<linearGradient id="paint0_linear_592_38" x1="1800" y1="0" x2="1800" y2="3600" gradientUnits="userSpaceOnUse">
<stop stop-color="#2AABEE"/>
<stop offset="1" stop-color="#229ED9"/>
</linearGradient>
<clipPath id="clip0_592_38">
<rect width="36" height="36" fill="white"/>
</clipPath>
</defs>
</svg>
