<!-- Generated by IcoMoon.io -->
<svg version="1.1" xmlns="http://www.w3.org/2000/svg" width="33" height="32" viewBox="0 0 33 32">
<title>felix</title>
<path fill="#fff" d="M6.404 5.154c0.005 0.006-0.002 0.014-0.020 0.023l-0.324-0.010c0.078-0.026 0.271-0.085 0.343-0.014z"></path>
<path fill="#e40512" d="M4.021 5.88l0.013-0.623c0-0.015-0.007-0.022-0.022-0.022l-1.909-0c-0.010 0-0.016 0.005-0.016 0.016l-0.004 0.071c-0.014-0.048-0.013-0.096 0.004-0.144 0.004-0.012 0.013-0.018 0.026-0.018l1.912 0.007c0.015 0 0.029 0.006 0.040 0.016s0.017 0.025 0.017 0.040c0 0.115 0 0.232 0 0.349 0 0.108-0.055 0.191-0.060 0.309z"></path>
<path fill="#e40512" d="M6.404 5.154c0.073-0.014 0.138-0.007 0.195 0.020l-0.215 0.004c0.018-0.009 0.024-0.017 0.020-0.023z"></path>
<path fill="#1d1d1b" d="M6.061 5.168l0.324 0.010 0.215-0.004 1.777-0.008c0.128 0.023 0.257 0.024 0.387 0.001 0.288 0.018 0.592-0.017 0.878 0.009 0.163 0.015 0.291 0.023 0.385 0.024 0.903 0.006 2.175 0.006 3.819-0.001 0.182-0.001 0.376-0.035 0.567-0.041 0.004-0 0.009 0.001 0.013 0.002s0.008 0.004 0.011 0.007 0.006 0.007 0.007 0.011c0.002 0.004 0.003 0.008 0.003 0.013l0.003 2.040c0 0.009-0.004 0.012-0.012 0.009-0.040-0.013-0.057-0.004-0.051 0.027-0.291-0.030-0.576-0.029-0.853 0.004-0.051-0.061-0.118-0.063-0.202-0.005-0.343-0.026-0.689-0.026-1.037 0-0.158-0.025-0.316-0.026-0.474-0.001-0.389-0.024-0.775-0.024-1.157-0-0.153-0.045-0.313-0.046-0.48-0.003l-0.685-0.009c-0.203-0.009-0.413-0.015-0.629-0.018-0.101-0.001-0.181 0.001-0.242 0.005-0.082 0.006-0.188-0.030-0.271 0.026-0.208-0.017-0.412-0.022-0.614-0.014-0.008 0-0.019 0.007-0.034 0.021-0.061-0.078-0.245-0.011-0.306-0.019-0.113-0.015-0.227-0.015-0.342-0.001l-0.67 0.010c-0.299-0.027-0.596-0.026-0.889 0.003l-1.034-0.008c-0.081 0.015-0.142 0.007-0.183-0.025-0.004-0.004-0.009-0.004-0.014-0.002l-0.014 0.008c-0.018 0.010-0.028 0.004-0.028-0.016l-0.003-2.017c0-0.017 0.008-0.027 0.025-0.029 0.095-0.014 0.188-0.007 0.279 0.021 0.015 0.004 0.029 0.004 0.043-0.001 0.153-0.052 0.244 0.034 0.374-0.020 0.081-0.034 0.172-0.021 0.271 0.041 0.012 0.007 0.023 0.006 0.032-0.004 0.075-0.081 0.293-0.039 0.457-0.020 0.123 0.014 0.225-0.037 0.352-0.023zM13.527 6.513l0.105 0.272c0.002 0.005 0.002 0.009 0.002 0.014s-0.001 0.010-0.004 0.014c-0.002 0.004-0.005 0.008-0.009 0.011s-0.008 0.005-0.013 0.007l-0.099 0.028c-0.014 0.004-0.020 0.013-0.020 0.028l0.002 0.031c0.001 0.015 0.008 0.022 0.023 0.022h0.531c0.006 0 0.012-0.002 0.018-0.005s0.010-0.007 0.013-0.013c0.003-0.005 0.005-0.011 0.006-0.018s-0.001-0.012-0.004-0.018l-0.007-0.014c-0.006-0.013-0.017-0.021-0.032-0.023-0.135-0.016-0.17-0.132-0.214-0.242-0.145-0.359-0.292-0.72-0.442-1.081-0.004-0.009-0.010-0.016-0.017-0.021s-0.017-0.008-0.026-0.008c-0.009-0-0.019 0.002-0.026 0.007s-0.014 0.012-0.018 0.021c-0.179 0.393-0.358 0.792-0.537 1.198-0.033 0.074-0.083 0.118-0.151 0.13-0.011 0.002-0.020 0.008-0.026 0.016s-0.009 0.019-0.009 0.030c0.001 0.011 0.006 0.021 0.013 0.028s0.018 0.012 0.029 0.012c0.132 0.001 0.269-0.002 0.41-0.009 0.027-0.001 0.041-0.014 0.043-0.038 0.001-0.006-0.001-0.012-0.004-0.017s-0.008-0.009-0.014-0.011l-0.132-0.043c-0.004-0.001-0.008-0.003-0.011-0.006s-0.006-0.006-0.007-0.010-0.003-0.008-0.003-0.012c0-0.004 0.001-0.008 0.002-0.012l0.115-0.276c0.002-0.005 0.005-0.009 0.010-0.011s0.009-0.004 0.014-0.004l0.457 0.002c0.016 0 0.026 0.007 0.032 0.022zM4.759 6.842l-0.091 0.017c-0.012 0.002-0.022 0.007-0.032 0.014-0.024 0.019-0.021 0.039 0.009 0.059 0.007 0.005 0.015 0.007 0.024 0.007h0.549c0.011-0 0.021-0.005 0.028-0.013s0.012-0.018 0.012-0.028c0-0.011-0.003-0.021-0.010-0.029s-0.017-0.013-0.027-0.015l-0.097-0.008c-0.015-0.001-0.029-0.008-0.039-0.019s-0.016-0.025-0.017-0.040l-0.015-0.445c-0.001-0.018 0.008-0.027 0.026-0.025 0.121 0.010 0.25 0.028 0.36-0.012 0.27-0.098 0.357-0.43 0.146-0.633-0.205-0.197-0.662-0.15-0.936-0.134-0.014 0.001-0.021 0.008-0.021 0.022v0.029c0 0.005 0.002 0.011 0.006 0.015s0.009 0.007 0.014 0.008l0.139 0.022c0.008 0.001 0.016 0.005 0.021 0.012s0.008 0.014 0.008 0.022l0.002 1.1c0 0.041-0.020 0.065-0.060 0.072zM6.726 6.818c-0.257-0.062-0.236-0.268-0.24-0.527-0.003-0.205-0.003-0.411 0.001-0.618 0-0.012 0.005-0.023 0.012-0.031s0.018-0.014 0.029-0.016l0.124-0.019c0.014-0.002 0.022-0.011 0.022-0.025v-0.031c0-0.013-0.007-0.020-0.020-0.020h-0.587c-0.005 0-0.010 0.001-0.014 0.003s-0.008 0.005-0.011 0.009c-0.003 0.004-0.005 0.008-0.006 0.013s-0.001 0.010 0 0.015l0.007 0.026c0.002 0.007 0.006 0.013 0.012 0.017s0.014 0.005 0.021 0.004c0.109-0.022 0.162 0.019 0.16 0.122-0.004 0.248-0.003 0.496 0.002 0.744 0.014 0.654 1.087 0.666 1.090-0.033 0.001-0.222 0.003-0.445 0.006-0.668 0.002-0.126 0.060-0.184 0.174-0.174 0.003 0 0.007-0 0.010-0.001s0.006-0.003 0.009-0.005c0.003-0.002 0.004-0.005 0.006-0.009s0.002-0.007 0.002-0.010l-0.002-0.027c-0.001-0.017-0.010-0.025-0.027-0.025h-0.463c-0.008 0-0.016 0.003-0.022 0.009s-0.009 0.014-0.009 0.022v0.032c0 0.003 0.001 0.007 0.002 0.010s0.004 0.006 0.006 0.008c0.003 0.002 0.006 0.004 0.009 0.005s0.007 0.001 0.010 0c0.107-0.021 0.161 0.020 0.162 0.123 0.002 0.242 0.002 0.483-0.001 0.724-0.003 0.263-0.256 0.408-0.476 0.355zM8.547 6.846c-0.103 0.029-0.153-0.009-0.159-0.116-0.008-0.132-0.010-0.256-0.007-0.372 0-0.014 0.005-0.027 0.013-0.038s0.020-0.019 0.033-0.023c0.013-0.004 0.027-0.004 0.040 0s0.024 0.013 0.032 0.024l0.435 0.606c0.006 0.009 0.015 0.013 0.026 0.013l0.365-0c0.005 0 0.010-0.002 0.014-0.005s0.007-0.008 0.008-0.013l0.008-0.038c0.001-0.004 0.001-0.008-0-0.012s-0.002-0.007-0.005-0.011c-0.002-0.003-0.005-0.006-0.009-0.008s-0.007-0.003-0.011-0.004c-0.267-0.033-0.423-0.343-0.571-0.551-0.003-0.004-0.004-0.008-0.005-0.012s-0-0.009 0.001-0.013c0.001-0.004 0.004-0.008 0.007-0.011s0.007-0.005 0.011-0.006c0.297-0.084 0.395-0.461 0.121-0.643-0.172-0.114-0.593-0.083-0.921-0.076-0.015 0.001-0.022 0.008-0.021 0.022l0.002 0.044c0 0.003 0.001 0.006 0.002 0.009s0.003 0.005 0.006 0.007c0.003 0.002 0.005 0.003 0.009 0.004s0.006 0.001 0.009-0c0.132-0.033 0.162 0.042 0.162 0.156 0 0.316 0 0.633-0 0.95-0 0.095-0.048 0.134-0.144 0.116-0.004-0.001-0.009-0.001-0.013 0s-0.008 0.003-0.012 0.005c-0.029 0.019-0.037 0.042-0.024 0.068 0.007 0.013 0.017 0.019 0.032 0.019 0.182 0.001 0.364 0.001 0.547 0 0.023-0 0.038-0.005 0.047-0.013 0.014-0.014 0.014-0.037 0-0.069-0.002-0.005-0.006-0.008-0.010-0.011s-0.010-0.003-0.015-0.001zM10.2 5.648c0.039-0.024 0.082-0.033 0.128-0.027 0.016 0.002 0.026-0.005 0.029-0.020l0.007-0.035c0.001-0.004 0.001-0.009-0-0.013s-0.003-0.008-0.006-0.012c-0.003-0.003-0.006-0.006-0.010-0.008s-0.008-0.003-0.013-0.003h-0.577c-0.008 0-0.016 0.003-0.022 0.009s-0.009 0.013-0.010 0.021l-0.001 0.030c-0.001 0.014 0.006 0.023 0.020 0.026l0.136 0.024c0.022 0.004 0.034 0.017 0.034 0.040l0.007 1.118c-0 0.009-0.003 0.017-0.008 0.023s-0.013 0.011-0.021 0.012l-0.15 0.027c-0.006 0.001-0.011 0.004-0.014 0.009s-0.005 0.010-0.004 0.016l0.006 0.041c0.002 0.010 0.008 0.016 0.018 0.016h0.584c0.007 0 0.014-0.003 0.019-0.007s0.008-0.011 0.009-0.018l0.002-0.036c0-0.004-0-0.008-0.002-0.012s-0.004-0.007-0.007-0.010c-0.003-0.003-0.006-0.005-0.010-0.006s-0.008-0.002-0.012-0.001c-0.112 0.014-0.169-0.036-0.169-0.148-0.001-0.337-0.018-0.687 0.015-1.021 0.001-0.014 0.008-0.025 0.020-0.032zM11.278 5.942l0.838 1.013c0.006 0.007 0.013 0.011 0.021 0.014s0.017 0.002 0.025-0.001 0.015-0.008 0.020-0.015c0.005-0.007 0.008-0.015 0.008-0.024 0.009-0.39 0.011-0.786 0.007-1.19-0.001-0.089 0.042-0.128 0.13-0.116 0.012 0.002 0.022-0.001 0.032-0.008 0.021-0.015 0.031-0.035 0.030-0.058-0.001-0.012-0.007-0.018-0.018-0.018l-0.483-0.002c-0.018 0-0.026 0.009-0.026 0.026v0.038c0 0.004 0.001 0.007 0.002 0.011s0.004 0.006 0.007 0.008c0.003 0.002 0.006 0.004 0.010 0.005s0.007 0.001 0.011-0c0.113-0.028 0.159 0.025 0.159 0.134 0 0.24 0.001 0.48 0.002 0.72 0 0.015-0.005 0.017-0.014 0.005l-0.772-0.94c-0.004-0.005-0.009-0.009-0.015-0.012s-0.012-0.004-0.019-0.004l-0.36 0.007c-0.004 0-0.009 0.001-0.013 0.003s-0.007 0.005-0.010 0.009c-0.002 0.004-0.004 0.008-0.005 0.012s-0 0.009 0.002 0.013l0.010 0.028c0.005 0.013 0.014 0.020 0.028 0.020 0.086 0.005 0.158 0.039 0.214 0.104 0.010 0.011 0.016 0.026 0.016 0.041 0 0.315 0 0.63 0 0.944 0 0.019-0.007 0.056-0.020 0.108-0.004 0.016-0.014 0.024-0.030 0.026l-0.117 0.009c-0.006 0-0.012 0.003-0.016 0.008s-0.006 0.010-0.006 0.016v0.042c0 0.014 0.007 0.021 0.021 0.021 0.149-0 0.298-0 0.447 0 0.017 0 0.030-0.003 0.040-0.008 0.016-0.009 0.023-0.021 0.023-0.037-0-0.007-0.002-0.015-0.006-0.021s-0.008-0.012-0.014-0.017c-0.006-0.005-0.013-0.008-0.020-0.009s-0.015-0.002-0.022 0c-0.083 0.019-0.13-0.019-0.133-0.106-0.008-0.265-0.009-0.529-0.004-0.792 0-0.003 0.001-0.005 0.002-0.007s0.004-0.004 0.006-0.005c0.002-0.001 0.005-0.001 0.008-0s0.005 0.002 0.007 0.004z"></path>
<path fill="#e40512" d="M8.376 5.165l0.387 0.001c-0.13 0.023-0.259 0.022-0.387-0.001z"></path>
<path fill="#fff" d="M4.021 5.881c0 0.176-0 0.352-0.001 0.529-0 0.092-0.028 0.206-0.018 0.313 0.017 0.184 0.020 0.275 0.021 0.418 0.009 0.038-0.016 0.058-0.074 0.058-0.611 0.002-1.214 0.002-1.81 0.001-0.014-0-0.028-0.006-0.038-0.016s-0.016-0.023-0.016-0.037l-0.002-1.674 0.001-0.151 0.004-0.071c0.001-0.010 0.006-0.016 0.016-0.016l1.909 0c0.015 0 0.022 0.007 0.022 0.022l-0.013 0.623zM2.747 5.342c0-0.001-0-0.003-0.001-0.004s-0.001-0.002-0.002-0.003c-0.001-0.001-0.002-0.002-0.003-0.002s-0.003-0.001-0.004-0.001l-0.56-0.002c-0.001 0-0.003 0-0.004 0.001s-0.002 0.001-0.003 0.002c-0.001 0.001-0.002 0.002-0.002 0.003s-0.001 0.003-0.001 0.004l-0.002 0.562c0 0.001 0 0.003 0.001 0.004s0.001 0.002 0.002 0.003c0.001 0.001 0.002 0.002 0.003 0.002s0.003 0.001 0.004 0.001l0.56 0.002c0.001 0 0.003-0 0.004-0.001s0.002-0.001 0.003-0.002c0.001-0.001 0.002-0.002 0.002-0.003s0.001-0.003 0.001-0.004l0.002-0.562zM3.949 5.341c0-0.002-0-0.003-0.001-0.005s-0.002-0.003-0.003-0.004c-0.001-0.001-0.002-0.002-0.004-0.003s-0.003-0.001-0.005-0.001l-0.564 0.002c-0.002 0-0.003 0-0.005 0.001s-0.003 0.002-0.004 0.003c-0.001 0.001-0.002 0.002-0.003 0.004s-0.001 0.003-0.001 0.005l0.002 0.557c0 0.002 0 0.003 0.001 0.005s0.002 0.003 0.003 0.004c0.001 0.001 0.002 0.002 0.004 0.003s0.003 0.001 0.005 0.001l0.564-0.002c0.002 0 0.003-0 0.005-0.001s0.003-0.002 0.004-0.003c0.001-0.001 0.002-0.002 0.003-0.004s0.001-0.003 0.001-0.005l-0.002-0.557zM3.346 5.931c0-0.001-0-0.003-0.001-0.004s-0.001-0.002-0.002-0.003c-0.001-0.001-0.002-0.002-0.003-0.002s-0.003-0.001-0.004-0.001l-0.571-0.001c-0.001 0-0.003 0-0.004 0.001s-0.002 0.001-0.003 0.002c-0.001 0.001-0.002 0.002-0.002 0.003s-0.001 0.003-0.001 0.004l-0.001 0.57c0 0.001 0 0.003 0.001 0.004s0.001 0.002 0.002 0.003c0.001 0.001 0.002 0.002 0.003 0.002s0.003 0.001 0.004 0.001l0.571 0.001c0.001 0 0.003-0 0.004-0.001s0.002-0.001 0.003-0.002c0.001-0.001 0.002-0.002 0.002-0.003s0.001-0.003 0.001-0.004l0.001-0.57zM2.744 6.541c0-0.003-0.001-0.006-0.002-0.008s-0.003-0.005-0.005-0.007c-0.002-0.002-0.004-0.003-0.007-0.005s-0.005-0.002-0.008-0.002l-0.537 0.001c-0.006 0-0.011 0.002-0.015 0.006s-0.006 0.009-0.006 0.015l0.001 0.547c0 0.003 0.001 0.006 0.002 0.008s0.003 0.005 0.005 0.007c0.002 0.002 0.004 0.004 0.007 0.005s0.005 0.002 0.008 0.002l0.537-0.001c0.006 0 0.011-0.002 0.015-0.006s0.006-0.009 0.006-0.015l-0.001-0.547zM3.957 6.546c0-0.006-0.002-0.013-0.007-0.017s-0.011-0.007-0.017-0.007l-0.546-0.003c-0.003-0-0.006 0.001-0.009 0.002s-0.006 0.003-0.008 0.005c-0.002 0.002-0.004 0.005-0.005 0.008s-0.002 0.006-0.002 0.009l-0.003 0.542c-0 0.006 0.002 0.013 0.007 0.017s0.011 0.007 0.017 0.007l0.546 0.003c0.003 0 0.006-0.001 0.009-0.002s0.006-0.003 0.008-0.005c0.002-0.002 0.004-0.005 0.005-0.008s0.002-0.006 0.002-0.009l0.003-0.542z"></path>
<path fill="#e40512" d="M2.737 5.331l-0.56-0.002c-0.006-0-0.010 0.005-0.010 0.010l-0.002 0.562c0 0.006 0.005 0.010 0.010 0.010l0.56 0.002c0.006 0 0.010-0.005 0.010-0.010l0.002-0.562c0-0.006-0.005-0.010-0.010-0.010z"></path>
<path fill="#e40512" d="M3.937 5.329l-0.564 0.002c-0.007 0-0.012 0.005-0.012 0.012l0.002 0.557c0 0.007 0.005 0.012 0.012 0.012l0.564-0.002c0.007-0 0.012-0.005 0.012-0.012l-0.002-0.557c-0-0.007-0.005-0.012-0.012-0.012z"></path>
<path fill="#e40512" d="M2.082 5.473l0.002 1.674c0 0.014 0.006 0.028 0.016 0.037s0.024 0.016 0.038 0.016c0.596 0.001 1.2 0.001 1.81-0.001 0.058-0 0.083-0.020 0.074-0.058 0.030 0.089-0.059 0.11-0.127 0.11-0.617-0.002-1.235-0.001-1.853 0.001-0.014 0-0.021-0.007-0.021-0.021l0.007-0.484c0-0.012-0.003-0.023-0.009-0.033-0.018-0.029-0.027-0.074-0.028-0.134-0.002-0.277-0.004-0.553-0.007-0.83-0.001-0.095 0.032-0.188 0.097-0.277z"></path>
<path fill="#fff" d="M13.495 6.491l-0.457-0.002c-0.005 0-0.010 0.002-0.014 0.004s-0.008 0.007-0.010 0.011l-0.115 0.276c-0.002 0.004-0.002 0.008-0.002 0.012s0.001 0.008 0.003 0.012 0.004 0.007 0.007 0.010c0.003 0.003 0.007 0.005 0.011 0.006l0.132 0.043c0.006 0.002 0.011 0.006 0.014 0.011s0.005 0.011 0.004 0.017c-0.002 0.024-0.016 0.037-0.043 0.038-0.141 0.007-0.278 0.011-0.41 0.009-0.011-0-0.021-0.005-0.029-0.012s-0.013-0.017-0.013-0.028c-0.001-0.011 0.002-0.021 0.009-0.030s0.016-0.014 0.026-0.016c0.068-0.012 0.118-0.055 0.151-0.13 0.179-0.406 0.358-0.805 0.537-1.198 0.004-0.008 0.010-0.016 0.018-0.021s0.017-0.008 0.026-0.007c0.009 0 0.018 0.003 0.026 0.008s0.014 0.013 0.017 0.021c0.149 0.361 0.297 0.721 0.442 1.081 0.045 0.11 0.079 0.225 0.214 0.242 0.015 0.002 0.025 0.009 0.032 0.023l0.007 0.014c0.003 0.006 0.004 0.012 0.004 0.018s-0.002 0.012-0.006 0.018c-0.003 0.005-0.008 0.010-0.013 0.013s-0.012 0.005-0.018 0.005h-0.531c-0.015 0-0.022-0.007-0.023-0.022l-0.002-0.031c-0.001-0.014 0.006-0.024 0.020-0.028l0.099-0.028c0.005-0.001 0.009-0.004 0.013-0.007s0.007-0.007 0.009-0.011c0.002-0.004 0.003-0.009 0.004-0.014s-0-0.010-0.002-0.014l-0.105-0.272c-0.006-0.015-0.016-0.022-0.032-0.022zM13.089 6.342c-0.001 0.002-0.001 0.004-0.001 0.006s0.001 0.004 0.002 0.006c0.001 0.002 0.003 0.003 0.004 0.004s0.004 0.002 0.006 0.002l0.345 0.002c0.002 0 0.004-0 0.006-0.001s0.003-0.002 0.004-0.004c0.001-0.002 0.002-0.004 0.002-0.006s-0-0.004-0.001-0.006l-0.17-0.414c-0.001-0.002-0.003-0.004-0.004-0.006s-0.004-0.002-0.007-0.002-0.005 0.001-0.007 0.002c-0.002 0.001-0.004 0.003-0.005 0.005l-0.174 0.413z"></path>
<path fill="#fff" d="M4.759 6.842c0.040-0.007 0.060-0.032 0.060-0.072l-0.002-1.1c0-0.008-0.003-0.016-0.008-0.022s-0.013-0.010-0.021-0.012l-0.139-0.022c-0.005-0.001-0.010-0.004-0.014-0.008s-0.006-0.010-0.006-0.015v-0.029c0-0.014 0.007-0.022 0.021-0.022 0.274-0.016 0.73-0.063 0.936 0.134 0.212 0.202 0.124 0.535-0.146 0.633-0.11 0.040-0.239 0.022-0.36 0.012-0.018-0.002-0.027 0.007-0.026 0.025l0.015 0.445c0 0.015 0.006 0.029 0.017 0.040s0.024 0.017 0.039 0.019l0.097 0.008c0.011 0.001 0.020 0.007 0.027 0.015s0.010 0.019 0.010 0.029c-0 0.011-0.005 0.021-0.012 0.028s-0.018 0.012-0.028 0.013h-0.549c-0.009 0-0.017-0.002-0.024-0.007-0.031-0.020-0.034-0.040-0.009-0.059 0.009-0.007 0.020-0.012 0.032-0.014l0.091-0.017zM5.069 5.699l-0.006 0.48c-0 0.005 0.001 0.009 0.003 0.013s0.004 0.008 0.007 0.011c0.003 0.003 0.007 0.006 0.011 0.008s0.009 0.003 0.013 0.003l0.082 0.001c0.062 0.001 0.122-0.024 0.167-0.069s0.070-0.106 0.071-0.17l0.001-0.066c0-0.032-0.005-0.063-0.017-0.093s-0.028-0.056-0.050-0.079c-0.022-0.023-0.047-0.041-0.076-0.053s-0.059-0.019-0.090-0.019l-0.082-0.001c-0.005-0-0.009 0.001-0.013 0.003s-0.008 0.004-0.011 0.008c-0.003 0.003-0.006 0.007-0.008 0.011s-0.003 0.009-0.003 0.013z"></path>
<path fill="#fff" d="M6.726 6.818c0.22 0.053 0.473-0.092 0.476-0.355 0.003-0.241 0.004-0.482 0.001-0.724-0.001-0.103-0.055-0.144-0.162-0.123-0.003 0.001-0.007 0.001-0.010-0s-0.006-0.002-0.009-0.005c-0.003-0.002-0.005-0.005-0.006-0.008s-0.002-0.006-0.002-0.010v-0.032c0-0.008 0.003-0.016 0.009-0.022s0.014-0.009 0.022-0.009h0.463c0.017 0 0.026 0.008 0.027 0.025l0.002 0.027c0 0.003-0 0.007-0.002 0.010s-0.003 0.006-0.006 0.009c-0.003 0.002-0.005 0.004-0.009 0.005s-0.007 0.002-0.010 0.001c-0.114-0.010-0.172 0.048-0.174 0.174-0.003 0.223-0.005 0.445-0.006 0.668-0.003 0.7-1.076 0.687-1.090 0.033-0.006-0.248-0.006-0.496-0.002-0.744 0.002-0.103-0.051-0.144-0.16-0.122-0.007 0.001-0.015-0-0.021-0.004s-0.011-0.010-0.012-0.017l-0.007-0.026c-0.001-0.005-0.001-0.010-0-0.015s0.003-0.009 0.006-0.013c0.003-0.004 0.007-0.007 0.011-0.009s0.009-0.003 0.014-0.003h0.587c0.013 0 0.020 0.007 0.020 0.020v0.031c0 0.015-0.007 0.023-0.022 0.025l-0.124 0.019c-0.011 0.002-0.022 0.008-0.029 0.016s-0.012 0.020-0.012 0.031c-0.004 0.207-0.004 0.414-0.001 0.618 0.004 0.259-0.017 0.465 0.24 0.527z"></path>
<path fill="#fff" d="M8.547 6.846c0.005-0.001 0.010-0.001 0.015 0.001s0.008 0.006 0.010 0.011c0.014 0.032 0.014 0.055-0 0.069-0.008 0.008-0.024 0.013-0.047 0.013-0.182 0.001-0.364 0-0.547-0-0.014 0-0.025-0.006-0.032-0.019-0.013-0.026-0.005-0.049 0.024-0.068 0.004-0.003 0.008-0.004 0.012-0.005s0.009-0.001 0.013 0c0.096 0.018 0.144-0.021 0.144-0.116 0.001-0.317 0.001-0.634 0-0.95-0-0.114-0.030-0.189-0.162-0.156-0.003 0.001-0.006 0.001-0.009 0s-0.006-0.002-0.009-0.004c-0.003-0.002-0.005-0.004-0.006-0.007s-0.002-0.006-0.002-0.009l-0.002-0.044c-0.001-0.014 0.007-0.022 0.021-0.022 0.328-0.007 0.749-0.038 0.921 0.076 0.274 0.182 0.176 0.559-0.121 0.643-0.004 0.001-0.008 0.003-0.011 0.006s-0.005 0.007-0.007 0.011c-0.001 0.004-0.002 0.008-0.001 0.013s0.002 0.008 0.005 0.012c0.148 0.208 0.304 0.518 0.571 0.551 0.004 0 0.008 0.002 0.011 0.004s0.006 0.005 0.009 0.008c0.002 0.003 0.004 0.007 0.005 0.011s0.001 0.008 0 0.012l-0.008 0.038c-0.001 0.005-0.004 0.010-0.008 0.013s-0.009 0.005-0.014 0.005l-0.365 0c-0.011 0-0.020-0.004-0.026-0.013l-0.435-0.606c-0.008-0.011-0.019-0.019-0.032-0.024s-0.027-0.004-0.040-0c-0.013 0.004-0.024 0.012-0.033 0.023s-0.013 0.024-0.013 0.038c-0.003 0.117-0.001 0.241 0.007 0.372 0.006 0.107 0.056 0.146 0.159 0.116zM8.381 5.692l-0.002 0.459c-0 0.005 0.001 0.009 0.003 0.013s0.004 0.008 0.008 0.011c0.003 0.003 0.007 0.006 0.011 0.008s0.009 0.003 0.013 0.003l0.083 0c0.072 0 0.141-0.025 0.193-0.071s0.080-0.107 0.081-0.172v-0.040c0-0.032-0.007-0.064-0.020-0.094s-0.033-0.057-0.059-0.080c-0.025-0.023-0.055-0.041-0.088-0.053s-0.068-0.019-0.104-0.019l-0.083-0c-0.009 0-0.018 0.004-0.024 0.010s-0.010 0.015-0.010 0.024z"></path>
<path fill="#fff" d="M10.18 5.68c-0.033 0.334-0.016 0.684-0.015 1.021 0 0.113 0.057 0.162 0.169 0.148 0.004-0 0.008-0 0.012 0.001s0.007 0.003 0.010 0.006c0.003 0.003 0.005 0.006 0.007 0.010s0.002 0.008 0.002 0.012l-0.002 0.036c-0.001 0.007-0.004 0.013-0.009 0.018s-0.012 0.007-0.019 0.007h-0.584c-0.011 0-0.017-0.005-0.018-0.016l-0.006-0.041c-0.001-0.006 0.001-0.011 0.004-0.016s0.008-0.008 0.014-0.009l0.15-0.027c0.008-0.001 0.016-0.006 0.021-0.012s0.008-0.015 0.008-0.023l-0.007-1.118c-0-0.023-0.012-0.036-0.034-0.040l-0.136-0.024c-0.014-0.003-0.021-0.011-0.020-0.026l0.001-0.030c0-0.008 0.004-0.016 0.010-0.021s0.014-0.009 0.022-0.009h0.577c0.004 0 0.009 0.001 0.013 0.003s0.007 0.005 0.010 0.008c0.003 0.003 0.005 0.007 0.006 0.012s0.001 0.009 0 0.013l-0.007 0.035c-0.003 0.016-0.013 0.023-0.029 0.020-0.046-0.006-0.088 0.003-0.128 0.027-0.012 0.007-0.019 0.018-0.020 0.032z"></path>
<path fill="#fff" d="M11.278 5.942c-0.002-0.002-0.004-0.003-0.007-0.004s-0.005-0.001-0.008 0c-0.002 0.001-0.005 0.003-0.006 0.005s-0.002 0.005-0.002 0.007c-0.005 0.263-0.004 0.527 0.004 0.792 0.003 0.086 0.050 0.124 0.133 0.106 0.007-0.002 0.015-0.002 0.022-0s0.014 0.005 0.020 0.009c0.006 0.005 0.011 0.010 0.014 0.017s0.005 0.014 0.006 0.021c0.001 0.016-0.007 0.028-0.023 0.037-0.009 0.005-0.022 0.008-0.040 0.008-0.149-0-0.298-0-0.447 0-0.014 0-0.021-0.007-0.021-0.021v-0.042c-0-0.006 0.002-0.012 0.006-0.016s0.010-0.007 0.016-0.008l0.117-0.009c0.016-0.001 0.026-0.010 0.030-0.026 0.014-0.053 0.020-0.089 0.020-0.108 0-0.315 0-0.629 0-0.944 0-0.015-0.006-0.029-0.016-0.041-0.056-0.065-0.128-0.099-0.214-0.104-0.014-0.001-0.023-0.008-0.028-0.020l-0.010-0.028c-0.002-0.004-0.002-0.008-0.002-0.013s0.002-0.008 0.005-0.012c0.002-0.004 0.006-0.007 0.010-0.009s0.008-0.003 0.013-0.003l0.36-0.007c0.007-0 0.013 0.001 0.019 0.004s0.011 0.007 0.015 0.012l0.772 0.94c0.010 0.012 0.014 0.010 0.014-0.005-0.001-0.24-0.001-0.48-0.002-0.72-0-0.109-0.046-0.163-0.159-0.134-0.004 0.001-0.007 0.001-0.011 0s-0.007-0.002-0.010-0.005c-0.003-0.002-0.005-0.005-0.007-0.008s-0.002-0.007-0.002-0.011v-0.038c0-0.018 0.009-0.026 0.026-0.026l0.483 0.002c0.011 0 0.018 0.006 0.018 0.018 0.001 0.023-0.009 0.043-0.030 0.058-0.010 0.007-0.020 0.010-0.032 0.008-0.087-0.012-0.131 0.027-0.13 0.116 0.004 0.403 0.002 0.8-0.007 1.19-0 0.009-0.003 0.017-0.008 0.024s-0.012 0.012-0.020 0.015c-0.008 0.003-0.017 0.003-0.025 0.001s-0.016-0.007-0.021-0.014l-0.838-1.013z"></path>
<path fill="#1d1d1b" d="M5.069 5.699c0-0.005 0.001-0.009 0.003-0.013s0.004-0.008 0.008-0.011c0.003-0.003 0.007-0.006 0.011-0.008s0.009-0.003 0.013-0.003l0.082 0.001c0.031 0 0.061 0.007 0.090 0.019s0.054 0.031 0.076 0.053c0.022 0.023 0.039 0.050 0.050 0.079s0.017 0.061 0.017 0.093l-0.001 0.066c-0.001 0.064-0.026 0.125-0.071 0.17s-0.105 0.070-0.167 0.069l-0.082-0.001c-0.005-0-0.009-0.001-0.013-0.003s-0.008-0.004-0.011-0.008c-0.003-0.003-0.006-0.007-0.007-0.011s-0.003-0.009-0.003-0.013l0.006-0.48z"></path>
<path fill="#1d1d1b" d="M8.381 5.692c0-0.009 0.004-0.018 0.010-0.024s0.015-0.010 0.024-0.010l0.083 0c0.036 0 0.071 0.007 0.104 0.019s0.063 0.031 0.088 0.053c0.025 0.023 0.045 0.050 0.059 0.080s0.020 0.062 0.020 0.094v0.040c-0 0.065-0.029 0.127-0.081 0.172s-0.121 0.071-0.193 0.071l-0.083-0c-0.005 0-0.009-0.001-0.013-0.003s-0.008-0.004-0.011-0.008c-0.003-0.003-0.006-0.007-0.008-0.011s-0.003-0.009-0.003-0.013l0.002-0.459z"></path>
<path fill="#e40512" d="M3.336 5.921l-0.571-0.001c-0.006 0-0.010 0.005-0.010 0.010l-0.001 0.57c0 0.006 0.005 0.010 0.010 0.010l0.571 0.001c0.006 0 0.010-0.005 0.010-0.010l0.001-0.57c0-0.006-0.005-0.010-0.010-0.010z"></path>
<path fill="#1d1d1b" d="M13.089 6.342l0.174-0.413c0.001-0.002 0.003-0.004 0.005-0.005s0.004-0.002 0.007-0.002c0.002 0 0.005 0.001 0.007 0.002s0.004 0.003 0.004 0.006l0.17 0.414c0.001 0.002 0.001 0.004 0.001 0.006s-0.001 0.004-0.002 0.006c-0.001 0.002-0.003 0.003-0.004 0.004s-0.004 0.001-0.006 0.001l-0.345-0.002c-0.002-0-0.004-0.001-0.006-0.002s-0.003-0.002-0.004-0.004c-0.001-0.002-0.002-0.004-0.002-0.006s0-0.004 0.001-0.006z"></path>
<path fill="#e40512" d="M2.723 6.52l-0.537 0.001c-0.012 0-0.021 0.010-0.021 0.021l0.001 0.547c0 0.012 0.010 0.021 0.021 0.021l0.537-0.001c0.012 0 0.021-0.010 0.021-0.021l-0.001-0.547c0-0.012-0.010-0.021-0.021-0.021z"></path>
<path fill="#e40512" d="M3.933 6.521l-0.546-0.003c-0.013-0-0.024 0.011-0.024 0.024l-0.003 0.542c-0 0.013 0.011 0.024 0.024 0.024l0.546 0.003c0.013 0 0.024-0.011 0.024-0.024l0.003-0.542c0-0.013-0.011-0.024-0.024-0.024z"></path>
<path fill="#1d1d1b" d="M14.963 7.18c0.009 0 0.014 0.002 0.015 0.005 0.002 0.006 0.001 0.012-0.001 0.017s-0.007 0.009-0.013 0.011c-0.006 0.002-0.012 0.002-0.018-0s-0.011-0.006-0.014-0.011c-0.027-0.043-0.065-0.071-0.114-0.082-0.013-0.003-0.023-0.011-0.029-0.022-0.080-0.148-0.095-0.319 0.029-0.447 0.093-0.095 0.368-0.208 0.471-0.046 0.002 0.003 0.003 0.007 0.002 0.010s-0.002 0.007-0.005 0.009-0.006 0.004-0.009 0.005c-0.004 0.001-0.007-0-0.010-0.002l-0.125-0.072c-0.012-0.007-0.025-0.009-0.038-0.006-0.239 0.053-0.341 0.202-0.307 0.448 0.010 0.078 0.048 0.108 0.119 0.128 0.013 0.003 0.023 0.011 0.028 0.024l0.012 0.026c0.001 0.001 0.002 0.002 0.003 0.003s0.003 0.001 0.004 0.001z"></path>
<path fill="#1d1d1b" d="M15.11 6.703c-0.016 0.021-0.038 0.025-0.065 0.014-0.005-0.002-0.009-0.006-0.012-0.011s-0.003-0.011-0.002-0.016 0.004-0.010 0.008-0.014c0.004-0.004 0.010-0.005 0.015-0.006h0.040c0.004-0 0.007 0.001 0.011 0.003s0.006 0.005 0.007 0.008c0.002 0.003 0.002 0.007 0.002 0.011s-0.002 0.007-0.004 0.010z"></path>
<path fill="#1d1d1b" d="M15.425 6.808c0.001 0.003 0.002 0.006 0.001 0.009s-0.003 0.006-0.005 0.008-0.006 0.003-0.009 0.003c-0.003 0-0.006-0.001-0.009-0.003-0.018-0.013-0.024-0.031-0.020-0.054 0.005-0.030 0.013-0.031 0.025-0.003l0.017 0.040z"></path>
<path fill="#1d1d1b" d="M15.078 6.89c0.009-0 0.015 0.003 0.020 0.008 0.009 0.011 0.007 0.018-0.007 0.022-0.023 0.005-0.045 0.002-0.068-0.010-0.009-0.005-0.015-0.012-0.018-0.020-0.004-0.011-0.002-0.021 0.006-0.030 0.009-0.010 0.018-0.010 0.028-0.001l0.024 0.024c0.002 0.002 0.004 0.004 0.007 0.005s0.006 0.002 0.009 0.002z"></path>
<path fill="#1d1d1b" d="M15.182 7.213c0.003 0.001 0.005 0.002 0.007 0.004s0.003 0.005 0.002 0.007c0 0.003-0.001 0.005-0.003 0.007s-0.004 0.003-0.007 0.004c-0.029 0.005-0.058 0.003-0.088-0.006-0.032-0.010-0.032-0.016 0.002-0.020 0.029-0.003 0.058-0.002 0.087 0.004z"></path>
<path fill="#fff" d="M5.502 7.264c-0.373 0.029-0.705 0.036-0.996 0.021-0.015-0.001-0.028-0.010-0.038-0.028l1.034 0.008z"></path>
<path fill="#fff" d="M7.061 7.25c0.018 0.013 0.011 0.024-0.020 0.034-0.136 0.046-0.502-0.001-0.649-0.024l0.67-0.010z"></path>
<path fill="#fff" d="M8.356 7.264c-0.199 0.029-0.4 0.038-0.604 0.026-0.010-0.001-0.020-0.004-0.028-0.010l-0.015-0.010c0.014-0.014 0.025-0.021 0.034-0.021 0.202-0.007 0.406-0.002 0.614 0.014z"></path>
<path fill="#fff" d="M10.183 7.261c-0.222 0.047-0.45 0.044-0.685-0.009l0.685 0.009z"></path>
<path fill="#fff" d="M11.819 7.265c-0.39 0.043-0.776 0.043-1.157-0 0.382-0.023 0.767-0.023 1.157 0z"></path>
<path fill="#fff" d="M13.331 7.266c-0.343 0.041-0.689 0.041-1.037 0 0.348-0.026 0.694-0.026 1.037 0z"></path>
<path fill="#fff" d="M14.386 7.267c-0.287 0.037-0.571 0.038-0.853 0.004 0.277-0.032 0.562-0.033 0.853-0.004z"></path>
<path fill="#1d1d1b" d="M16.528 20.943c-0.772-0.669-0.864-1.863-0.803-2.802 0.015-0.24 0.070-0.607 0.164-1.103 0.104-0.55 0.294-1.257 0.48-1.86 0.577-1.868 1.324-3.665 2.242-5.393 0.292-0.55 0.564-1 0.815-1.352 0.119-0.167 0.293-0.29 0.523-0.369 0.489-0.17 2.489-0.867 1.755 0.609-0.978 1.964-1.899 3.933-2.677 5.987-0.398 1.052-0.698 2.022-0.901 2.91-0.136 0.594-0.368 2.262 0.71 2.228 0.107-0.003 0.178 0.002 0.214 0.018 0.654 0.277-1.148 2.32-2.522 1.127z"></path>
<path fill="#1d1d1b" d="M8.164 14.001c0.006-0.001 0.014-0.003 0.023-0.007 0.75-0.252 1.503-0.499 2.25-0.76 0.259-0.091 0.88-0.304 1.075-0.115 0.158 0.153 0.118 0.433-0 0.599-0.304 0.429-0.872 0.744-1.331 0.988-0.879 0.469-1.749 0.882-2.611 1.24-0.058 0.024-0.075 0.036-0.094 0.099-0.35 1.121-0.696 2.243-1.040 3.365-0.379 1.238-0.867 2.431-1.464 3.58-0.802 1.542-1.857 3.021-3.341 3.974-0.297 0.191-0.604 0.333-0.922 0.426-0.123 0.036-0.249-0.005-0.299-0.131-0.091-0.234 0.271-0.6 0.407-0.835 0.045-0.078 0.108-0.153 0.149-0.218 1.075-1.693 1.757-3.58 2.377-5.476 0.246-0.753 0.603-1.955 1.071-3.607 0.004-0.014 0.011-0.025 0.022-0.035 0.013-0.011 0.020-0.025 0.021-0.040 0-0.004-0-0.008-0.002-0.011s-0.003-0.007-0.006-0.009c-0.003-0.003-0.006-0.005-0.010-0.006s-0.007-0.001-0.011-0.001c-0.279 0.043-0.547 0.099-0.83 0.099-0.224-0-0.463 0.022-0.68-0.035-0.303-0.079-0.549-0.193-0.745-0.442-0.206-0.261-0.676-1.338-0.006-1.361 0.297-0.010 0.714 0.010 1.060-0.031 0.611-0.072 1.213-0.185 1.806-0.338 0.008-0.002 0.016-0.006 0.021-0.012s0.010-0.013 0.012-0.021c0.565-2.028 1.328-4.103 3.009-5.479 1.322-1.082 3.087-1.6 4.813-1.271 0.085 0.016 0.157 0.039 0.214 0.069 0.011 0.006 0.023 0.009 0.036 0.010 0.018 0.001 0.041 0.005 0.067 0.013 0.583 0.18 1.12 0.557 1.348 1.128 0.404 1.013-0.239 2.054-1.254 2.325-0.028 0.008-0.056 0.004-0.090 0.014-0.147 0.046-0.29 0.049-0.43 0.009-0.451-0.127-0.183-0.59-0.061-0.828 0.505-0.983-0.234-1.874-1.289-1.652-1.947 0.41-2.796 3.117-3.303 4.743-0.002 0.005-0.002 0.010-0.001 0.016s0.004 0.010 0.007 0.014c0.004 0.004 0.008 0.007 0.013 0.009s0.010 0.002 0.016 0.001z"></path>
<path fill="#e40512" d="M24.174 9.224c-0.743 0.124-0.791-1.305-0.114-1.12 0.395 0.108 0.694 1.023 0.114 1.12z"></path>
<path fill="#e40512" d="M22.853 8.497c0.285 0.082 0.557 0.344 0.614 0.64 0.061 0.318-0.186 0.516-0.486 0.47-0.282-0.043-0.513-0.359-0.586-0.616-0.099-0.346 0.121-0.59 0.458-0.494z"></path>
<path fill="#e40512" d="M24.898 8.617c0.153-0.28 0.542-0.084 0.665 0.108 0.108 0.168 0.138 0.418 0.063 0.602-0.117 0.284-0.507 0.404-0.697 0.104-0.171-0.269-0.181-0.54-0.031-0.814z"></path>
<path fill="#e40512" d="M23.761 11.672c-0.237-0.148-0.346-0.656-0.371-0.91-0.069-0.701 0.373-1.257 1.123-1.098 0.241 0.051 0.429 0.26 0.633 0.364 0.216 0.11 0.535 0.126 0.712 0.27 0.183 0.149 0.239 0.442 0.117 0.649-0.204 0.347-0.664 0.194-0.961 0.274-0.509 0.138-0.595 0.863-1.253 0.451z"></path>
<path fill="#e40512" d="M22.351 10.513c0.251 0.151 0.551 0.114 0.67-0.083s0.010-0.48-0.241-0.632-0.551-0.114-0.67 0.083c-0.118 0.197-0.011 0.48 0.241 0.632z"></path>
<path fill="#1d1d1b" d="M26.146 17.148c-0.003-0.005-0.007-0.009-0.012-0.012s-0.011-0.005-0.017-0.005c-0.006-0-0.012 0-0.017 0.003s-0.010 0.006-0.014 0.010c-0.656 0.739-1.295 1.478-1.915 2.215-0.233 0.276-0.435 0.463-0.715 0.643-0.209 0.134-0.702 0.326-0.853 0.022-0.113-0.228 0.212-0.65 0.355-0.832 0.829-1.052 1.683-2.085 2.56-3.097 0.009-0.010 0.013-0.022 0.012-0.036-0.006-0.078-0.063-0.149-0.083-0.202-0.372-0.995-0.627-1.974-0.766-2.937-0.038-0.265 0.066-0.462 0.314-0.589 0.404-0.207 0.761-0.374 1.072-0.5 0.393-0.159 0.847-0.186 0.97 0.326 0.026 0.109 0.052 0.261 0.079 0.455 0.060 0.44 0.149 0.863 0.249 1.288 0.001 0.005 0.004 0.010 0.007 0.013s0.008 0.006 0.013 0.008c0.005 0.001 0.010 0.001 0.015-0s0.009-0.004 0.013-0.008c0.725-0.824 1.464-1.686 2.265-2.433 0.342-0.319 0.941-0.688 1.388-0.311 0.187 0.158 0.31 0.345 0.37 0.563 0.087 0.315-0.108 0.421-0.368 0.606-0.961 0.684-1.808 1.495-2.646 2.323-0.184 0.182-0.358 0.363-0.52 0.543-0.011 0.012-0.018 0.028-0.021 0.044s-0 0.033 0.007 0.048c0.328 0.716 1.191 2.049 2.112 1.943 0.184-0.021 0.384-0.168 0.564-0.162 0.24 0.008 0.217 0.272 0.167 0.442-0.252 0.86-1.446 1.391-2.269 1.317-0.96-0.086-1.823-0.917-2.316-1.688z"></path>
<path fill="#1d1d1b" d="M21.219 20.439c-1.171-0.046-1.693-1.058-1.622-2.12 0.119-1.788 0.86-3.295 1.672-4.961 0.254-0.52 0.566-0.634 1.145-0.791 0.313-0.085 0.631-0.152 0.953-0.2 0.561-0.085 0.591 0.474 0.426 0.832-0.541 1.168-1.041 2.318-1.5 3.448-0.287 0.706-0.486 1.244-0.574 1.947-0.033 0.267 0.004 0.787 0.215 0.981 0.205 0.188 0.434 0.387 0.18 0.658-0.188 0.2-0.617 0.219-0.894 0.208z"></path>
<path fill="#1d1d1b" d="M14.278 19.858c0.36 0.338-0.618 1.21-0.85 1.413-1.073 0.948-2.874 1.984-4.38 1.605-1.418-0.357-1.822-1.766-1.641-3.068 0.178-1.286 0.829-2.505 1.782-3.396 1.215-1.136 2.927-1.992 4.621-1.94 0.858 0.026 1.51 0.38 1.585 1.324 0.012 0.145 0.002 0.294-0.030 0.446-0.28 1.335-1.87 2.101-3.038 2.549-0.737 0.283-1.491 0.496-2.263 0.64-0.007 0.001-0.012 0.004-0.017 0.009s-0.008 0.011-0.009 0.017c-0.083 0.408-0.127 0.956 0.071 1.305 0.679 1.194 2.894-0.3 3.587-0.8 0.148-0.106 0.429-0.25 0.583-0.105zM13.199 16.021c-0.012-0.1-0.117-0.232-0.211-0.251-0.577-0.116-1.071 0.284-1.46 0.648-0.511 0.478-0.882 1.18-1.116 1.845-0.003 0.008-0.004 0.017-0.002 0.026s0.006 0.017 0.012 0.023 0.013 0.011 0.022 0.014c0.008 0.003 0.017 0.003 0.026 0.001 0.963-0.234 2.878-1.014 2.729-2.306z"></path>
<path fill="#1d1d1b" d="M32.263 18.4c0 0.122-0.049 0.24-0.135 0.326s-0.203 0.135-0.326 0.135-0.239-0.049-0.326-0.135c-0.086-0.087-0.135-0.204-0.135-0.326s0.048-0.24 0.135-0.326c0.086-0.087 0.204-0.135 0.326-0.135s0.239 0.049 0.326 0.135c0.086 0.087 0.135 0.204 0.135 0.326zM31.816 18.802c0.099-0.004 0.191-0.050 0.258-0.129s0.102-0.183 0.097-0.291c-0.004-0.107-0.048-0.209-0.12-0.282s-0.169-0.112-0.267-0.108c-0.099 0.004-0.191 0.050-0.258 0.129s-0.102 0.183-0.097 0.291c0.004 0.107 0.048 0.209 0.12 0.282s0.169 0.112 0.267 0.108z"></path>
<path fill="#1d1d1b" d="M31.694 18.48v0.13c0 0.014-0.007 0.021-0.022 0.020-0.011-0.001-0.020-0.004-0.026-0.012-0.005-0.005-0.008-0.014-0.008-0.026-0.006-0.104-0.009-0.208-0.010-0.313-0.001-0.242 0.457-0.162 0.359 0.074-0.002 0.003-0.004 0.006-0.007 0.009l-0.091 0.074c-0.005 0.004-0.008 0.010-0.009 0.016s0 0.013 0.004 0.018l0.087 0.13c0.003 0.005 0.005 0.011 0.004 0.017s-0.004 0.011-0.009 0.015c-0.005 0.004-0.011 0.005-0.017 0.004s-0.012-0.004-0.016-0.008l-0.146-0.183c-0.007-0.008-0.016-0.015-0.026-0.018s-0.021-0.003-0.032 0.001c-0.010 0.003-0.019 0.010-0.025 0.019s-0.010 0.020-0.010 0.030zM31.921 18.267c-0.002-0.013-0.006-0.026-0.013-0.037s-0.017-0.021-0.028-0.029c-0.011-0.008-0.025-0.014-0.039-0.017s-0.029-0.004-0.044-0.003c-0.030 0.003-0.057 0.017-0.076 0.038s-0.028 0.048-0.025 0.074c0.002 0.013 0.006 0.026 0.013 0.037s0.017 0.021 0.028 0.029c0.011 0.008 0.025 0.014 0.039 0.017s0.029 0.004 0.044 0.003c0.030-0.003 0.057-0.017 0.076-0.038s0.028-0.048 0.025-0.074z"></path>
</svg>
