<!-- Generated by IcoMoon.io -->
<svg version="1.1" xmlns="http://www.w3.org/2000/svg" width="59" height="32" viewBox="0 0 59 32">
<title>josera</title>
<path fill="#ffe680" d="M24.452 24c-3.617 0-7.27 0-10.887 0-2.574 0-4.904-0.243-6.922-0.73-0.626-0.139-0.974-0.765-1.043-1.287-0.487-3.791-0.383-7.339-0.070-11.513 0.104-1.148 0.591-1.67 1.739-1.878l0.348-0.070c1.67-0.278 3.235-0.557 4.939-0.557 11.026 0 22.33 0 33.6 0 1.983 0 3.791 0.278 5.704 0.591l0.243 0.035c0.8 0.139 1.252 0.626 1.357 1.426 0.452 3.583 0.522 7.27 0.174 10.852l-0.035 0.174c-0.139 1.496-0.278 2.122-2.122 2.365-0.313 0.035-0.591 0.104-0.87 0.139-1.252 0.174-2.539 0.383-3.826 0.383-7.443 0.070-14.887 0.070-22.33 0.070zM31.791 8.696c-6.47 0-12.87 0-19.235 0-1.635 0-3.2 0.243-4.835 0.522l-0.348 0.070c-0.87 0.139-1.113 0.417-1.183 1.252v0c-0.313 4.139-0.417 7.652 0.070 11.374 0.035 0.348 0.278 0.661 0.522 0.696 1.948 0.452 4.209 0.696 6.748 0.696 11.096 0 22.157 0 33.252 0 1.252 0 2.435-0.174 3.722-0.383 0.313-0.035 0.591-0.104 0.904-0.139 1.357-0.209 1.391-0.417 1.53-1.739l0.035-0.174c0.348-3.548 0.313-7.165-0.139-10.713-0.070-0.487-0.313-0.73-0.8-0.8l-0.243-0.035c-1.878-0.313-3.687-0.591-5.6-0.591-4.835-0.035-9.635-0.035-14.4-0.035z"></path>
<path fill="#f0660d" d="M13.113 19.13c-0.313 0-0.661-0.035-1.009-0.139-0.73-0.174-1.252-0.591-1.461-1.217-0.243-0.661-0.104-1.426 0.383-2.052 1.113-1.53 4.139-2.087 4.626-2.157l0.417-1.183-2.261-0.035c-0.278 0-0.417-0.139-0.452-0.243s-0.070-0.313 0.139-0.522l0.904-0.939c0.139-0.139 0.348-0.243 0.557-0.243h3.896c0.070 0 0.139 0 0.209 0.035 0.139 0.035 0.243 0.139 0.278 0.278 0.070 0.139 0.070 0.278 0 0.383l-0.765 1.983c1.043-0.174 2.122-0.383 3.2-0.626 0.661-0.139 1.183-0.070 1.53 0.209 0.383 0.278 0.557 0.765 0.591 1.391 0 0.104 0.035 0.139 0.035 0.174 0 0 0.070 0 0.139-0.035 0.835-0.243 1.565-0.73 2.122-1.461 0.139-0.174 0.348-0.278 0.591-0.278l1.809-0.070c0.139 0 0.313 0.035 0.417 0.174 0.209 0.209 0.174 0.557-0.035 0.73-0.209 0.209-0.313 0.417-0.278 0.696 0.417 0.696 0.522 1.391 0.313 2.122l0.174-0.035c0.417-2.017 2.017-3.93 4.348-3.652 0.383 0.035 0.904 0.243 1.217 1.009 0.139 0.348 0.139 0.765-0.035 1.113-0.417 0.939-1.774 1.635-2.539 1.913 0.974 0.139 1.948-0.835 2.678-1.53l0.174-0.174c0.383-0.383 0.522-0.835 0.696-1.391 0.035-0.139 0.070-0.243 0.104-0.383 0.070-0.209 0.278-0.383 0.522-0.417l1.565-0.174c0.104 0 0.174 0 0.278 0.035 0.243 0.104 0.383 0.383 0.313 0.626 0.626-0.417 1.357-0.626 2.157-0.626 0.278 0 0.383 0.139 0.452 0.209 0.070 0.104 0.104 0.278-0.035 0.487l-0.765 1.357c0.209-0.139 0.417-0.348 0.661-0.591 0.974-0.974 2.47-2.435 4-1.183 0.626-0.313 1.322-0.348 2.017-0.139 0.278 0.070 0.417 0.348 0.348 0.626l-0.87 3.374c0.278-0.070 0.591 0 0.8 0.243 0.278 0.313 0.243 0.835-0.070 1.113-1.043 0.904-2.157 0.904-3.13 0-1.287 0.939-2.609 0.87-3.791-0.174-0.139-0.139-0.243-0.313-0.278-0.522l-0.070-1.183c-0.452 0.070-0.835 0-1.148-0.243-0.243-0.174-0.417-0.452-0.522-0.835-0.765 0.87-1.252 1.878-1.461 3.061-0.035 0.278-0.278 0.487-0.591 0.487h-1.496c-0.070 0-0.104 0-0.174-0.035-0.139-0.035-0.243-0.139-0.313-0.278s-0.070-0.278-0.035-0.417l0.278-0.835c-1.009 0.87-2.296 1.774-3.548 1.635-0.696-0.070-1.287-0.487-1.774-1.183-0.904 0.313-1.843 0.661-2.748 1.043-0.87 0.383-1.774 0.209-2.435-0.417-0.522-0.487-0.765-1.148-0.626-1.704-0.348 0.696-0.87 1.252-1.565 1.704-1.078 0.696-2.4 0.73-3.339 0.104-0.8-0.522-1.148-1.426-0.974-2.504-0.487 1.252-1.948 3.513-4.348 3.513zM12.835 15.165c-0.522 0.278-0.974 0.591-1.252 0.974-0.348 0.452-0.452 0.974-0.278 1.391 0.139 0.383 0.487 0.661 0.974 0.765 2.783 0.661 4.313-2.191 4.8-3.27l-1.426 0.209v0.035c-0.417 0.939-1.009 2.226-1.948 2.539-0.383 0.104-0.765 0.070-1.148-0.174s-0.591-0.626-0.626-1.078c0-0.487 0.209-0.939 0.591-1.183 0.104-0.070 0.209-0.139 0.313-0.209zM34.957 18.052v0c0 0 0 0 0 0zM24.591 16.070c-0.209 0.070-0.383 0.174-0.452 0.383-0.104 0.313 0.070 0.8 0.417 1.113 0.209 0.209 0.835 0.661 1.704 0.278 0.8-0.348 1.635-0.661 2.435-0.939-0.243 0.070-0.383-0.035-0.487-0.104-0.104-0.104-0.174-0.278-0.035-0.557 0.313-0.661 0.243-1.287-0.139-1.913-0.070-0.104-0.104-0.209-0.104-0.348 0-0.348 0.070-0.661 0.243-0.939l-1.426 0.070c-0.035 0-0.035 0-0.070 0.035-0.209 0.278-0.452 0.522-0.696 0.73 0.070-0.035 0.174-0.070 0.278-0.035 0.139 0.035 0.243 0.070 0.313 0.174 0.035 0.070 0.070 0.139 0.104 0.243 0.035 0.174 0.070 0.348 0.104 0.557 0.104 0.522 0.243 1.078 0.070 1.565-0.243 0.661-1.113 0.904-1.704 0.73-0.243-0.174-0.591-0.487-0.557-1.043zM29.357 16.696c0.174 0 0.348 0.104 0.487 0.278 0.383 0.557 0.8 0.87 1.322 0.939 1.043 0.104 2.261-0.8 3.026-1.461-0.73 0.522-1.565 0.87-2.435 0.522-0.174-0.070-0.278-0.174-0.348-0.313s-0.070-0.313 0-0.452c0.070-0.174 0.209-0.313 0.383-0.348 0.8-0.243 2.052-0.939 2.365-1.635 0.104-0.209 0.104-0.383 0-0.557-0.209-0.487-0.487-0.557-0.661-0.591-1.913-0.209-3.235 1.426-3.583 3.13-0.035 0.243-0.209 0.417-0.417 0.487l-0.139 0.035c-0.070-0.035-0.035-0.035 0-0.035zM18.33 13.774c0.035 0 0.070 0 0.104 0 0.243 0 0.348 0.139 0.417 0.209 0.035 0.070 0.104 0.243-0.035 0.452-0.452 0.8-0.557 1.078-0.557 1.183-0.174 0.87 0.070 1.565 0.661 1.948 0.696 0.487 1.739 0.417 2.574-0.139 0.87-0.557 1.391-1.322 1.67-2.33 0.070-0.209 0.174-0.348 0.348-0.417 0 0 0 0-0.035 0-0.209-0.139-0.313-0.383-0.313-0.696 0-0.417-0.104-0.73-0.313-0.87-0.243-0.209-0.661-0.139-0.974-0.070-1.148 0.313-2.365 0.557-3.548 0.73-0.313 0.035-0.557-0.174-0.591-0.417 0-0.070 0-0.174 0.035-0.243l0.8-2.087h-3.617c-0.035 0-0.035 0-0.070 0.035l-0.522 0.557 2.017 0.035c0.278 0 0.487 0.209 0.487 0.487 0 0.070 0 0.104-0.035 0.174l-0.522 1.496c-0.035 0.035-0.035 0.104-0.070 0.139 0.661-0.104 1.357-0.174 2.087-0.174zM40.174 15.27c0.139 0 0.243 0.035 0.278 0.104 0.070 0.070 0.174 0.174 0.209 0.383l0.070 1.357c0 0.035 0 0.035 0.035 0.035 0.974 0.835 1.913 0.87 2.957 0.104 0.278-0.209 0.591-0.174 0.87 0.035 0.73 0.661 1.426 0.661 2.226 0 0.035-0.035 0.035-0.104 0-0.139s-0.070-0.035-0.104-0.035c-0.417 0.139-0.661-0.070-0.765-0.174-0.104-0.139-0.174-0.313-0.139-0.487l0.87-3.374c-0.487-0.104-0.939-0.070-1.391 0.139-0.243 0.139-0.522 0.104-0.73-0.104-0.974-0.8-1.913 0-3.096 1.113-0.243 0.243-0.487 0.452-0.696 0.626-0.313 0.243-0.765 0.174-0.974-0.139-0.174-0.209-0.209-0.522-0.070-0.765l0.557-1.009c-0.73 0.070-1.357 0.383-1.913 0.939-0.174 0.174-0.487 0.209-0.696 0-0.139-0.139-0.174-0.348-0.104-0.557l0.174-0.417-1.252 0.139c-0.035 0.104-0.070 0.209-0.104 0.313-0.174 0.591-0.348 1.183-0.87 1.704l-0.174 0.174c-0.139 0.139-0.313 0.313-0.487 0.487 0.174-0.035 0.348 0 0.487 0.139s0.174 0.313 0.104 0.487l-0.452 1.357h1.183c0.243-1.426 0.904-2.643 1.878-3.617 0.174-0.174 0.487-0.209 0.696 0 0.104 0.104 0.139 0.209 0.139 0.313 0.035 0.348 0.139 0.591 0.313 0.73s0.417 0.139 0.765 0.070c0.139 0.104 0.174 0.070 0.209 0.070zM15.026 14.957c-0.765 0.243-1.496 0.557-2.122 1.009-0.174 0.104-0.278 0.348-0.278 0.591 0 0.139 0.035 0.383 0.278 0.522 0.209 0.139 0.383 0.174 0.591 0.104 0.661-0.243 1.183-1.461 1.53-2.226v0zM35.13 16.452c0 0 0 0 0 0s0 0 0 0zM24.87 15.304c0.070 0 0.104 0 0.139 0.035 0.104 0.035 0.209 0.139 0.278 0.243s0.070 0.243 0.035 0.383c-0.104 0.383 0.035 0.417 0.139 0.452 0.278 0.104 0.73-0.035 0.835-0.313s0-0.73-0.104-1.148c-0.035-0.104-0.035-0.209-0.070-0.313-0.696 0.452-1.461 0.696-2.296 0.765-0.035 0.174-0.104 0.313-0.139 0.452 0.209-0.243 0.522-0.487 1.148-0.557 0 0 0.035 0 0.035 0zM24.661 15.722c0 0 0 0 0 0s0 0 0 0zM15.687 15.235v0c0 0 0 0 0 0zM17.148 14.922c0 0 0 0 0 0s0 0 0 0zM17.635 14.504c0.104 0.104 0.174 0.243 0.209 0.383 0.070-0.104 0.139-0.243 0.209-0.417-0.139 0.035-0.278 0.035-0.417 0.035zM38.609 14.678c0 0 0 0 0 0s0 0 0 0zM38.261 14.574c0 0 0 0 0 0s0 0 0 0zM26.365 14.47c0 0 0 0 0 0s0 0 0 0zM26.052 14.33c0 0 0 0 0 0s0 0 0 0zM38.261 13.704v0c-0.035 0-0.035 0 0 0zM37.913 13.496c0 0 0 0 0 0s0 0 0 0zM46.817 13.183c0 0 0 0 0 0s0 0 0 0zM28.626 13.009v0c0 0 0 0 0 0zM37.843 12.8c0 0 0 0 0 0v0zM16.383 12.348c0 0 0 0 0 0v0zM16.174 12.070c0 0 0 0 0 0v0zM18.678 10.783c0 0 0 0.035 0 0v0z"></path>
<path fill="#f0660d" d="M24.904 22.435c0 0-0.035 0-0.035 0-0.139 0-0.243-0.070-0.313-0.174s-0.104-0.209-0.104-0.348c0.035-0.452 0.104-0.939 0.209-1.391 0-0.070 0.035-0.139 0-0.209-0.070-0.696 0.313-1.183 1.009-1.426 0.104-0.035 0.209-0.035 0.313 0 0.139 0.035 0.243 0.139 0.313 0.243 0.070 0.139 0.070 0.278 0.035 0.417-0.070 0.243-0.243 0.417-0.487 0.452l-0.487 2.087c-0.035 0.209-0.243 0.348-0.452 0.348zM25.148 21.983c0 0 0 0 0 0s0 0 0 0zM24.696 21.913c0 0 0 0 0 0v0z"></path>
<path fill="#f0660d" d="M37.565 22.609c-0.035 0-0.070 0-0.070 0-0.278-0.035-0.452-0.313-0.417-0.557l0.243-1.774c0.035-0.313 0.243-0.557 0.487-0.73 0.243-0.139 0.487-0.139 0.73-0.070s0.417 0.209 0.557 0.417c0.035-0.139 0.139-0.278 0.278-0.313 0.452-0.174 0.765-0.035 0.974 0.104 0.070 0.070 0.139 0.174 0.209 0.278 0.209-0.243 0.487-0.417 0.8-0.487 0.243-0.070 0.522 0.035 0.661 0.278 0.278-0.243 0.626-0.313 1.043-0.174 0.070 0.035 0.104 0.070 0.139 0.104 0-0.070 0-0.139 0-0.209-0.035-0.243 0.104-0.452 0.348-0.522l0.174-0.070h0.104c0.104 0 0.209 0.070 0.278 0.139s0.104 0.174 0.104 0.278l-0.070 0.522 0.139-0.139c0.174-0.174 0.383-0.243 0.626-0.243 0.417 0.035 0.696 0.417 0.661 0.835l-0.104 0.904c-0.035 0.209-0.139 0.417-0.348 0.522-0.452 0.243-0.904 0.209-1.252-0.139-0.104 0.104-0.209 0.174-0.348 0.209s-0.313 0.035-0.522-0.139c-0.348 0.313-0.765 0.348-1.217 0.104-0.035-0.035-0.070-0.035-0.104 0-0.939 0.209-1.878 0.174-2.817-0.070h-0.035c-0.174 0.139-0.417 0.243-0.661 0.243l-0.070 0.313c0 0.104-0.070 0.243-0.209 0.313-0.104 0.035-0.209 0.070-0.313 0.070zM37.774 22.157v0c0 0 0 0 0 0zM37.357 22.087c0 0 0 0 0 0v0zM38.052 21.913c0 0 0 0 0 0s0 0 0 0zM38.296 20.139c-0.035 0-0.104 0-0.139 0.035-0.070 0.035-0.139 0.104-0.139 0.209l-0.139 0.835c0.070 0 0.139-0.035 0.209-0.035 0.139 0 0.209-0.035 0.243-0.070 0.104-0.104 0.243-0.139 0.348-0.174-0.070-0.104-0.104-0.243-0.104-0.383 0-0.104 0-0.209-0.070-0.278-0.035-0.070-0.104-0.104-0.174-0.139 0.035 0 0 0-0.035 0zM44.139 20.87c0.035 0.035 0.070 0.070 0.104 0.104 0.174 0.278 0.348 0.278 0.557 0.139l0.070-0.87c0-0.035 0-0.070-0.035-0.070s-0.035 0-0.035 0l-0.522 0.557c-0.070 0.070-0.104 0.104-0.139 0.139zM39.583 21.113c0.139 0.035 0.278 0.035 0.417 0.035 0-0.070 0-0.139 0-0.243-0.035 0-0.070 0.035-0.139 0.035-0.035 0-0.070 0-0.139 0-0.070-0.035-0.104-0.035-0.139 0.104v0.070zM40.696 21.009c0 0 0 0 0 0v0 0zM41.183 20.904v0 0zM41.461 20.557v0c0 0 0 0 0 0zM39.652 20.452c0 0.035 0 0.035 0 0v0zM42.643 20.417c0 0 0 0 0 0v0zM39.304 20.348c0 0 0 0 0 0s0 0 0 0 0 0 0 0zM39.687 20.243c0 0 0 0 0 0s0 0 0 0zM41.6 20.174c0 0 0 0 0 0s0 0 0 0zM41.53 19.826c0 0 0 0 0 0v0zM39.548 19.757c0 0 0 0 0 0v0c0.035 0 0 0 0 0zM43.478 19.304c0 0 0 0 0 0v0z"></path>
<path fill="#f0660d" d="M27.965 21.913c-0.104 0-0.243 0-0.348-0.035-0.209-0.070-0.383-0.209-0.452-0.417-0.209-0.626 0-1.183 0.313-1.496 0.278-0.313 0.661-0.452 0.974-0.348 0.139 0.035 0.383 0.139 0.522 0.452l1.183-0.835c0.209-0.174 0.383-0.104 0.487-0.035 0.070 0.070 0.209 0.174 0.174 0.452l-0.243 1.739c-0.035 0.313-0.313 0.522-0.626 0.487l-0.661-0.035c-0.174 0-0.313-0.070-0.417-0.209l-0.104-0.139c-0.174 0.243-0.452 0.417-0.8 0.417zM27.826 21.183c0.243 0.070 0.348 0 0.383-0.209 0.070-0.174 0.174-0.278 0.243-0.348-0.035-0.035-0.035-0.104-0.070-0.139v0c-0.035-0.139-0.104-0.243-0.139-0.278-0.070 0-0.174 0.035-0.278 0.139-0.139 0.209-0.243 0.487-0.139 0.835zM27.826 21.217c0 0 0 0 0 0s0 0 0 0zM27.791 21.183c0 0 0 0 0 0s0 0 0 0zM30.017 21.148v0c0 0 0 0 0 0zM29.391 21.113l0.522 0.035 0.139-1.009-0.904 0.626c0 0-0.035 0-0.035 0.035 0 0 0 0 0 0l0.278 0.313z"></path>
<path fill="#f0660d" d="M32.522 21.948c-0.278 0-0.522-0.209-0.522-0.487s-0.104-0.522-0.278-0.73c-0.139-0.174-0.209-0.417-0.139-0.626 0.104-0.348 0.487-0.557 0.835-0.452 0.139 0.035 0.278 0.104 0.348 0.209 0.104-0.174 0.243-0.243 0.348-0.278 0.035 0 0.104 0 0.174 0v0c-0.035-0.209 0.035-0.348 0.104-0.417s0.174-0.174 0.383-0.174c0.035 0 0.070 0 0.070 0h0.070c0.209 0.035 0.383 0.243 0.313 0.487l-0.313 1.948c-0.035 0.139-0.070 0.209-0.174 0.278-0.209 0.139-0.487 0.104-0.626-0.104-0.035-0.035-0.035-0.070-0.070-0.104-0.070 0.104-0.174 0.209-0.278 0.313 0 0.104-0.139 0.139-0.243 0.139 0 0 0 0 0 0zM32.591 20.765c0.035 0.070 0.035 0.139 0.070 0.209 0-0.035 0.035-0.104 0.035-0.139-0.035-0.035-0.070-0.035-0.104-0.070 0 0 0 0 0 0zM33.183 20.765c0 0 0 0 0 0v0zM32.243 20.313v0 0c0 0 0 0 0 0zM33.391 20c0 0 0 0 0 0v0zM34.017 19.478v0c0 0 0 0 0 0zM33.635 19.409c0 0 0 0 0 0v0z"></path>
<path fill="#f0660d" d="M35.27 21.843c-0.035 0-0.035 0-0.070 0h-0.035l-0.139-0.035-0.174-0.243 0.035-0.174 0.452-2.4 0.417 0.070c0.383 0.104 0.591 0.557 0.487 1.043l-0.174 0.939c-0.070 0.278-0.209 0.522-0.417 0.661-0.139 0.070-0.243 0.139-0.383 0.139zM35.93 19.478v0c0 0 0 0 0 0z"></path>
<path fill="#f0660d" d="M23.93 21.913c-0.035 0-0.035 0-0.070 0-0.139 0-0.278-0.070-0.383-0.209-0.104-0.104-0.139-0.243-0.139-0.417l0.139-1.53c0-0.035 0-0.070 0.035-0.104 0.104-0.278 0.417-0.452 0.696-0.348l0.243 0.070c0.278 0.104 0.348 0.243 0.383 0.348s0.035 0.313-0.174 0.487c-0.278 0.313-0.348 0.626-0.209 1.009 0.070 0.209 0 0.383-0.035 0.452s-0.104 0.243-0.348 0.243c-0.035 0-0.070 0-0.104 0 0 0 0 0-0.035 0z"></path>
<path fill="#f0660d" d="M34.47 21.913c-0.035 0-0.070 0-0.104 0-0.278-0.035-0.487-0.313-0.452-0.626l0.174-0.87c0-0.070 0-0.139 0-0.174-0.035-0.243 0-0.487 0.174-0.696 0.139-0.174 0.313-0.209 0.417-0.209s0.278 0.035 0.417 0.174l0.070 0.070c0.243 0.243 0.243 0.557 0.035 0.8-0.243 0.278-0.278 0.522-0.139 0.835 0.035 0.070 0.070 0.139 0.035 0.243 0 0.139-0.070 0.243-0.139 0.348s-0.243 0.139-0.348 0.139c-0.035-0.035-0.070-0.035-0.139-0.035 0 0 0 0 0 0zM34.435 21.53c0 0 0 0 0 0s0 0 0 0z"></path>
<path fill="#f0660d" d="M20.452 22.574c0 0-0.035 0-0.035 0-0.243-0.035-0.452-0.243-0.417-0.487l0.278-1.878c0.035-0.174 0.139-0.348 0.313-0.417 0.417-0.209 0.765-0.243 1.078-0.104 0.174 0.070 0.313 0.209 0.452 0.383 0.243-0.313 0.591-0.487 1.043-0.452 0.278 0 0.487 0.209 0.522 0.487l0.035 0.417c0.035 0.278-0.139 0.522-0.417 0.626 0.139 0.104 0.174 0.209 0.174 0.278 0 0.104 0 0.278-0.243 0.452-0.522 0.348-1.009 0-1.287-0.209 0 0-0.035-0.035-0.035-0.035-0.174 0.174-0.348 0.313-0.591 0.348l-0.139 0.035-0.104-0.104c-0.035 0.035-0.104 0.139-0.209 0.383-0.070 0.174-0.243 0.278-0.417 0.278zM20.939 20.348l-0.139 0.904c0.035 0 0.035 0 0.070-0.035 0.104-0.035 0.243-0.035 0.348 0 0.070-0.035 0.139-0.104 0.209-0.174 0.070-0.104 0.174-0.209 0.313-0.209-0.070-0.070-0.104-0.104-0.139-0.209v0c-0.035-0.139-0.104-0.278-0.243-0.348-0.070-0.035-0.243 0-0.417 0.070zM22.574 21.183v0c0 0 0 0 0 0v0zM22.991 20.522c0 0 0 0 0 0v0zM22.957 20.243c-0.174 0.035-0.278 0.070-0.348 0.209l0.383-0.070-0.035-0.139zM20.87 20.383c0 0 0 0 0 0s0 0 0 0zM20.939 20.278v0c0 0 0 0 0 0z"></path>
<path fill="#f0660d" d="M26.33 21.948c-0.104 0-0.209-0.035-0.313-0.070v0c-0.522-0.209-0.73-0.87-0.487-1.496s0.835-0.974 1.357-0.765c0.243 0.104 0.452 0.348 0.522 0.626s0.035 0.557-0.070 0.835-0.591 0.87-1.009 0.87zM26.296 21.217c0.139 0.035 0.348-0.104 0.452-0.383 0.070-0.139 0.070-0.278 0.035-0.417 0-0.035-0.035-0.139-0.104-0.174-0.139-0.035-0.348 0.104-0.452 0.383-0.139 0.278-0.070 0.557 0.070 0.591v0z"></path>
<path fill="#f0660d" d="M31.687 21.983c-0.104 0-0.209-0.035-0.278-0.104-0.104-0.070-0.174-0.209-0.209-0.348l-0.243-1.287c-0.035-0.243-0.104-0.661 0.209-0.765 0.348-0.139 0.557 0.209 0.661 0.417 0.313 0.487 0.452 1.043 0.383 1.6-0.035 0.243-0.209 0.417-0.417 0.452-0.035 0.035-0.070 0.035-0.104 0.035zM31.861 21.426v0c0 0 0 0 0 0z"></path>
<path fill="#f0660d" d="M36.313 21.878c-0.035 0-0.070 0-0.104 0-0.278-0.070-0.452-0.313-0.383-0.591l0.104-0.8c0-0.035 0-0.104 0-0.139-0.035-0.139-0.070-0.243-0.035-0.383 0-0.278 0.243-0.487 0.522-0.487 0 0 0 0 0 0 0.313 0 0.522 0.243 0.522 0.557 0.035 0.487 0 0.974-0.139 1.461-0.035 0.243-0.243 0.383-0.487 0.383zM36.522 21.391v0c0 0.035 0 0 0 0zM36.139 21.322c0 0.035 0 0.035 0 0 0 0.035 0 0.035 0 0zM36.243 20.070c0 0 0 0 0 0s0 0 0 0zM36.557 20.035c0 0 0 0 0 0s0 0 0 0z"></path>
<path fill="#f0660d" d="M45.739 21.809c-0.243 0-0.417-0.174-0.452-0.417-0.070-0.487 0.035-1.009 0.278-1.461 0.139-0.243 0.417-0.383 0.87-0.174l0.278 0.139-0.522 1.6c-0.035 0.174-0.209 0.313-0.417 0.313-0.035 0-0.035 0-0.035 0zM45.948 21.287c0 0 0 0.035 0 0 0 0.035 0 0 0 0zM45.496 21.252c0 0 0 0.035 0 0.035v-0.035zM46.157 20.278c0 0 0 0 0 0s0 0 0 0z"></path>
<path fill="#f0660d" d="M46.643 21.843c-0.139 0-0.243-0.035-0.348-0.139l-0.104-0.070c-0.139-0.139-0.174-0.313-0.070-0.487 0.174-0.383 0.174-0.557 0.139-0.626 0-0.035-0.035-0.070-0.139-0.104l-0.626-0.243 0.591-0.348c0.243-0.139 0.487-0.209 0.765-0.174 0.313 0.035 0.487 0.313 0.452 0.626l-0.174 1.217c0 0.104-0.070 0.209-0.139 0.278-0.104 0.035-0.209 0.070-0.348 0.070zM46.783 21.426c0 0-0.035 0 0 0-0.035 0 0 0 0 0zM46.435 21.357c0 0 0 0 0 0v0z"></path>
<path fill="#f0660d" d="M22.539 14.539c-0.104 0-0.209-0.035-0.313-0.104-0.174-0.139-0.313-0.313-0.452-0.487-0.104-0.104-0.139-0.278-0.104-0.417 0.035-0.174 0.104-0.278 0.243-0.383s0.278-0.139 0.452-0.104c0.174 0.035 0.278 0.104 0.383 0.243 0.174 0.209 0.243 0.452 0.278 0.73v0c0 0.139-0.035 0.243-0.104 0.348s-0.243 0.174-0.383 0.174zM22.365 13.53c0 0 0 0 0 0s0 0 0 0z"></path>
<path fill="#f0660d" d="M43.13 17.252c-0.278 0-0.522-0.070-0.73-0.209-0.417-0.243-0.626-0.696-0.557-1.252 0.174-1.287 0.87-2.157 2.087-2.643 0.209-0.070 0.452-0.070 0.661 0.035 0.348 0.174 0.696 0.452 0.591 1.078-0.209 1.078-0.522 2.261-1.148 2.678-0.278 0.243-0.591 0.313-0.904 0.313zM44.209 13.809c0 0 0 0 0 0-1.009 0.383-1.565 1.078-1.704 2.122-0.035 0.278 0.035 0.452 0.209 0.557 0.243 0.139 0.626 0.104 0.87-0.070 0.313-0.209 0.591-0.974 0.835-2.261 0.035-0.174 0.035-0.209-0.209-0.348v0c0.035 0 0.035 0 0 0z"></path>
<path fill="#f0660d" d="M31.791 15.583c-0.139 0-0.278-0.035-0.417-0.139-0.278-0.278-0.139-0.73-0.070-0.904v0c0.243-0.661 0.696-1.043 1.357-1.148 0.278-0.035 0.557 0.070 0.73 0.243 0.139 0.174 0.243 0.383 0.209 0.591 0 0.209-0.104 0.417-0.243 0.591-0.313 0.278-0.661 0.522-1.043 0.661-0.139 0.035-0.313 0.104-0.522 0.104zM31.965 14.748c0 0.035-0.035 0.070-0.035 0.104 0.035 0 0.070-0.035 0.104-0.035 0.313-0.139 0.591-0.313 0.835-0.522 0.035-0.035 0.035-0.070 0.035-0.104s0-0.070-0.035-0.104c-0.035-0.035-0.070-0.035-0.104-0.035-0.417 0.070-0.661 0.278-0.8 0.696v0z"></path>
<path fill="#f0660d" d="M20.557 17.078c-0.313 0-0.591-0.104-0.835-0.313l-0.035-0.035c-0.591-0.557-0.487-1.635 0.278-2.47l0.452-0.487c0.313-0.348 0.87-0.383 1.217-0.035l0.904 0.835c0.348 0.313 0.383 0.87 0.035 1.217l-0.452 0.487c-0.452 0.522-1.043 0.8-1.565 0.8zM20.139 16.243l0.035 0.035c0.313 0.278 0.974 0.070 1.461-0.417l0.452-0.487c0.070-0.070 0.070-0.174 0-0.243l-0.904-0.87c-0.070-0.070-0.174-0.070-0.243 0l-0.452 0.487c-0.487 0.522-0.626 1.183-0.348 1.496z"></path>
<path fill="#f0660d" d="M38.087 21.67c-0.035 0-0.104 0-0.139-0.035-0.278-0.070-0.452-0.383-0.383-0.661l0.174-0.661c0.070-0.209 0.209-0.383 0.452-0.452 0.174-0.035 0.313-0.035 0.487 0.070 0.139 0.070 0.243 0.209 0.278 0.383 0.174 0.661-0.070 1.148-0.696 1.357-0.070 0-0.139 0-0.174 0zM38.226 21.148v0c0 0 0 0 0 0zM38.261 20.487c0 0 0 0 0 0s0 0 0 0z"></path>
<path fill="#f0660d" d="M44.661 21.67c-0.104 0-0.174-0.035-0.278-0.070-0.348-0.174-0.452-0.417-0.487-0.557-0.070-0.313 0.104-0.661 0.452-1.043 0.104-0.104 0.243-0.174 0.383-0.174 0 0 0 0 0 0 0.278 0 0.522 0.243 0.522 0.522v0.696c0 0.104-0.035 0.174-0.070 0.278-0.070 0.139-0.209 0.278-0.348 0.313-0.035 0.035-0.104 0.035-0.174 0.035zM44.626 20.87c0 0.035 0 0.035 0 0.070 0 0 0 0 0 0v-0.070zM44.904 20.452v0c0 0 0 0 0 0z"></path>
<path fill="#f0660d" d="M29.809 21.6c-0.035 0-0.070 0-0.104 0l-0.487-0.139c0 0 0 0 0 0v0c-0.209-0.070-0.348-0.313-0.278-0.522l0.035-0.070c0.104-0.417 0.313-0.904 0.557-1.043 0.104-0.070 0.209-0.070 0.313-0.035l0.243 0.070c0.243 0.070 0.348 0.278 0.313 0.661 0 0.209-0.070 0.452-0.139 0.73l-0.035 0.070c-0.070 0.174-0.243 0.278-0.417 0.278zM29.6 21.113v0c0 0 0 0 0 0zM29.878 20.904v0c0 0 0 0 0 0zM29.635 20.452c0 0 0 0 0 0v0z"></path>
<path fill="#f0660d" d="M28.035 21.67c-0.035 0-0.070 0-0.104 0-0.383-0.070-0.591-0.522-0.522-1.009 0.104-0.522 0.452-0.835 0.835-0.765s0.591 0.522 0.522 1.009c-0.070 0.452-0.383 0.765-0.73 0.765z"></path>
<path fill="#f0660d" d="M21.078 21.67c-0.070 0-0.104 0-0.174-0.035v0c-0.209-0.070-0.348-0.243-0.417-0.487-0.035-0.174-0.035-0.417 0.035-0.626s0.174-0.383 0.313-0.522c0.174-0.174 0.417-0.243 0.626-0.174 0.383 0.104 0.557 0.591 0.383 1.078-0.139 0.487-0.452 0.765-0.765 0.765zM21.183 20.661c0 0.035 0 0.035-0.035 0.070 0 0.035 0 0.035 0 0.070 0-0.035 0-0.035 0.035-0.070 0 0 0-0.035 0-0.070z"></path>
<path fill="#f0660d" d="M26.365 21.704c-0.104 0-0.174 0-0.278-0.070-0.174-0.070-0.313-0.209-0.383-0.383s-0.070-0.348 0-0.522l0.313-0.696c0.070-0.174 0.209-0.278 0.383-0.313 0.313-0.070 0.626 0.104 0.696 0.383 0.139 0.417 0.070 0.835-0.139 1.217-0.104 0.278-0.348 0.383-0.591 0.383zM26.4 21.009v0c0 0 0 0 0 0zM26.435 20.313c0 0 0 0 0 0s0 0 0 0z"></path>
<path fill="#fecc00" d="M5.948 21.948c-0.522-3.861-0.383-7.478-0.070-11.443 0.070-1.009 0.452-1.391 1.461-1.565 1.739-0.278 3.443-0.591 5.217-0.591 11.2 0 22.4 0 33.6 0 2.017 0 3.93 0.313 5.913 0.626 0.626 0.104 1.009 0.487 1.078 1.113 0.452 3.583 0.522 7.2 0.139 10.783-0.139 1.53-0.104 1.983-1.843 2.261-1.565 0.243-3.096 0.522-4.661 0.522-11.096 0-22.157 0-33.252 0-2.4 0-4.73-0.209-6.817-0.73-0.417-0.070-0.696-0.557-0.765-0.974zM16.522 12.209l-0.522 1.496c-0.035 0.104-0.139 0.174-0.243 0.174-1.322 0.209-3.583 0.904-4.417 2.017-0.765 1.043-0.487 2.4 0.904 2.748 2.574 0.626 4.383-1.53 5.252-3.583 0.070-0.139 0-0.313-0.139-0.383-0.035-0.035-0.104-0.035-0.139-0.035l-1.565 0.243c-0.104 0-0.209 0.070-0.243 0.174-0.487 1.113-1.322 3.026-2.609 2.261-0.626-0.383-0.557-1.322 0-1.67 1.565-1.043 3.478-1.53 5.739-1.53 0.104 0 0.139 0.070 0.104 0.139-0.348 0.661-0.557 1.078-0.591 1.287-0.452 2.435 1.983 3.339 3.757 2.191 0.904-0.591 1.53-1.461 1.809-2.504 0.035-0.139 0.104-0.209 0.243-0.209 0.904-0.035 1.704-0.348 2.4-0.87 0.070-0.035 0.139-0.035 0.209 0.035 0 0.035 0.035 0.035 0.035 0.070 0.070 0.626 0.417 1.391 0.209 1.948-0.278 0.765-1.983 0.835-1.6-0.383 0.035-0.070 0-0.139-0.070-0.174 0 0-0.035 0-0.070 0-2.226 0.174-0.696 3.443 1.53 2.504 0.939-0.383 1.878-0.765 2.852-1.078 0.104-0.035 0.209 0 0.278 0.104 1.53 2.4 4.035 0.348 5.391-0.974 0.070-0.070 0.139-0.070 0.209 0 0.035 0.035 0.070 0.104 0.035 0.139l-0.522 1.565c-0.035 0.104 0.035 0.209 0.104 0.243 0.035 0 0.035 0 0.070 0h1.496c0.104 0 0.209-0.070 0.243-0.209 0.243-1.391 0.835-2.574 1.809-3.548 0.070-0.070 0.139-0.070 0.209 0 0.035 0.035 0.035 0.070 0.035 0.104 0.070 0.939 0.591 1.322 1.496 1.113 0.139-0.035 0.209 0.035 0.209 0.139l0.070 1.391c0 0.104 0.070 0.209 0.139 0.278 1.078 0.939 2.226 0.974 3.374 0.139 0.139-0.104 0.278-0.104 0.417 0.035 0.87 0.8 1.774 0.8 2.678 0 0.174-0.174 0.209-0.452 0.035-0.626-0.104-0.139-0.278-0.174-0.452-0.139-0.174 0.070-0.313 0.035-0.417-0.070-0.035-0.035-0.070-0.104-0.035-0.174l0.904-3.548c0.035-0.104 0-0.174-0.104-0.209-0.661-0.209-1.252-0.174-1.809 0.104-0.139 0.070-0.243 0.035-0.348-0.035-1.6-1.357-3.235 0.974-4.209 1.739-0.139 0.104-0.383 0.104-0.487-0.070-0.070-0.104-0.104-0.243-0.035-0.383l0.765-1.357c0.070-0.139 0.035-0.209-0.104-0.209-0.974 0-1.843 0.348-2.539 1.043-0.070 0.070-0.139 0.070-0.209 0-0.035-0.035-0.070-0.104-0.035-0.174l0.278-0.626c0.035-0.104 0-0.209-0.104-0.278-0.035 0-0.070-0.035-0.104 0l-1.565 0.174c-0.104 0-0.174 0.070-0.209 0.174-0.243 0.73-0.348 1.357-0.904 1.913-0.87 0.87-2.122 2.226-3.478 1.739-0.139-0.035-0.209-0.209-0.139-0.348 0.035-0.070 0.070-0.139 0.174-0.139 0.904-0.278 3.165-1.391 2.609-2.678-0.209-0.487-0.522-0.765-0.939-0.8-2.087-0.243-3.583 1.496-3.965 3.409-0.035 0.104-0.104 0.174-0.209 0.243l-0.591 0.209c-0.209 0.070-0.243 0-0.174-0.174 0.348-0.765 0.278-1.496-0.139-2.226-0.035-0.035-0.035-0.104-0.035-0.174 0-0.383 0.104-0.696 0.383-0.974 0.070-0.070 0.070-0.174 0-0.243-0.035-0.035-0.070-0.070-0.139-0.070l-1.809 0.070c-0.139 0-0.243 0.070-0.313 0.174-0.591 0.765-1.357 1.287-2.296 1.565-0.417 0.139-0.626-0.035-0.626-0.452-0.035-1.078-0.626-1.53-1.704-1.287-1.217 0.278-2.4 0.522-3.583 0.696-0.070 0-0.139-0.035-0.139-0.104 0-0.035 0-0.035 0-0.070l0.904-2.33c0.035-0.070 0-0.174-0.104-0.209-0.035 0-0.035 0-0.070 0h-4.070c-0.104 0-0.243 0.035-0.313 0.139l-0.904 0.939c-0.139 0.139-0.104 0.209 0.070 0.209l2.539 0.035c0.070 0 0.139 0.070 0.139 0.139 0.035 0.035 0.035 0.035 0.035 0.070zM25.774 19.235c-0.557 0.174-0.8 0.522-0.765 1.043 0 0.104 0 0.209-0.035 0.313-0.104 0.452-0.139 0.904-0.174 1.357 0 0.070 0.035 0.139 0.104 0.139s0.104-0.035 0.139-0.104l0.487-2.157c0.035-0.104 0.104-0.174 0.209-0.174s0.209-0.070 0.243-0.209c0.035-0.104-0.035-0.209-0.104-0.243-0.035 0-0.070 0-0.104 0.035zM42.504 20.522c-0.104-0.070-0.139-0.243-0.035-0.348 0.070-0.070 0.174-0.104 0.278-0.070l0.174 0.035c0.070 0 0.104-0.035 0.139-0.070 0-0.035 0-0.104-0.070-0.104-0.383-0.139-0.696 0-0.939 0.417-0.070 0.139-0.035 0.278 0.104 0.348 0 0 0 0 0 0l0.452 0.243c0.070 0.035 0.104 0.139 0.070 0.243-0.035 0.035-0.070 0.070-0.139 0.104l-0.383 0.035c-0.104 0-0.209-0.035-0.278-0.104l-0.626-0.696c-0.070-0.070-0.035-0.174 0.035-0.243 0 0 0.035-0.035 0.070-0.035l0.278-0.104c0.104-0.035 0.139-0.139 0.104-0.209-0.035-0.104-0.139-0.139-0.243-0.104 0 0 0 0 0 0-0.313 0.104-0.557 0.278-0.765 0.522-0.070 0.104-0.035 0.209 0.035 0.278 0 0 0 0 0 0l0.522 0.313c0.070 0.035 0.104 0.139 0.070 0.243-0.035 0.035-0.070 0.070-0.104 0.070l-0.73 0.139c-0.139 0.035-0.174-0.035-0.174-0.174 0-0.243 0-0.522 0-0.765 0-0.209-0.070-0.383-0.174-0.452-0.174-0.139-0.383-0.139-0.626-0.035-0.035 0-0.070 0.070-0.035 0.104 0 0.035 0.035 0.070 0.070 0.035h0.243c0.139 0 0.209 0.070 0.209 0.209 0 0.070 0 0.139 0 0.174 0 0.070-0.070 0.139-0.139 0.139 0 0-0.035 0-0.035 0-0.278-0.070-0.452 0.035-0.557 0.348 0 0 0 0-0.035 0 0 0 0 0 0 0l-0.104-0.070c-0.104-0.070-0.174-0.174-0.139-0.313 0-0.174-0.035-0.313-0.104-0.487-0.174-0.313-0.557-0.417-0.87-0.243-0.174 0.104-0.278 0.278-0.313 0.452l-0.243 1.774c0 0.070 0.035 0.139 0.104 0.174 0.070 0 0.139-0.035 0.174-0.104v0l0.070-0.348c0.035-0.139 0.174-0.243 0.313-0.243 0.209 0 0.348-0.035 0.487-0.139 0.104-0.104 0.209-0.104 0.348-0.070 0.87 0.243 1.739 0.243 2.643 0.070 0.104-0.035 0.243 0 0.348 0.035 0.348 0.174 0.626 0.174 0.87-0.104 0.104-0.104 0.209-0.104 0.313-0.035 0.243 0.209 0.452 0.139 0.591-0.139 0.035-0.070 0.104-0.104 0.174-0.070 0.035 0 0.035 0.035 0.035 0.035 0.278 0.383 0.591 0.487 1.009 0.278 0.104-0.035 0.139-0.139 0.174-0.243l0.104-0.904c0.035-0.209-0.139-0.417-0.348-0.452-0.139 0-0.243 0.035-0.348 0.139l-0.522 0.557c-0.070 0.070-0.174 0.070-0.243 0-0.035-0.035-0.070-0.070-0.035-0.139l0.104-1.043c0-0.035-0.035-0.070-0.035-0.070s0 0-0.035 0-0.070 0.035-0.104 0.035-0.104 0.070-0.104 0.139c0.035 0.487-0.070 0.904-0.383 1.287-0.104 0.139-0.209 0.139-0.313 0.035l-0.383-0.278zM28.765 20.452c-0.243-1.183-1.67-0.209-1.252 0.87 0.035 0.104 0.104 0.174 0.209 0.209 0.417 0.104 0.696-0.035 0.835-0.417 0.070-0.174 0.174-0.209 0.313-0.070l0.278 0.348c0.035 0.070 0.104 0.070 0.174 0.104l0.661 0.035c0.104 0 0.209-0.070 0.243-0.209l0.243-1.739c0.035-0.104-0.035-0.139-0.104-0.070l-1.426 1.009c-0.035 0.035-0.139 0.035-0.174-0.035 0-0.035 0-0.035 0-0.035zM33.252 20.522l0.139 0.035c0.139 0.035 0.174 0.139 0.104 0.243-0.139 0.243-0.139 0.452 0 0.626 0.035 0.035 0.104 0.070 0.139 0.035 0.035 0 0.035-0.035 0.035-0.070l0.313-1.948c0-0.035 0-0.070-0.035-0.070 0 0 0 0 0 0-0.035 0-0.070 0-0.104 0-0.104 0-0.174 0.035-0.139 0.174l0.070 0.383c0 0.104-0.035 0.174-0.139 0.209-0.070 0-0.104 0-0.139-0.035l-0.070-0.070c-0.104-0.104-0.209-0.104-0.278 0.035l-0.209 0.348c-0.035 0.070-0.104 0.070-0.174 0.035-0.035 0-0.070-0.035-0.070-0.070-0.035-0.209-0.139-0.348-0.348-0.417-0.174-0.035-0.348 0.035-0.417 0.209-0.035 0.104 0 0.209 0.070 0.313 0.243 0.278 0.348 0.591 0.348 0.939 0 0.070 0.070 0.139 0.174 0.139 0.035 0 0.070 0 0.104-0.035 0.278-0.243 0.417-0.522 0.417-0.904 0-0.104 0.070-0.139 0.209-0.104zM35.583 19.409l-0.383 2.052c0 0 0 0.035 0 0.035s0 0 0 0v0c0.209 0.035 0.417-0.174 0.452-0.487 0 0 0 0 0 0l0.174-0.939c0.104-0.348 0-0.626-0.243-0.661 0.035 0 0.035 0 0 0v0c0-0.035 0 0 0 0s0 0 0 0zM23.861 19.826l-0.139 1.53c0 0.104 0.070 0.209 0.174 0.243 0 0 0.035 0 0.035 0 0.035 0 0.070 0 0.139 0 0.104 0 0.139-0.070 0.104-0.174-0.209-0.522-0.104-0.974 0.278-1.357 0.139-0.139 0.104-0.243-0.070-0.278l-0.243-0.070c-0.104-0.035-0.209 0.035-0.243 0.139-0.035-0.070-0.035-0.070-0.035-0.035zM34.435 20.487l-0.139 0.87c-0.035 0.104 0.035 0.209 0.139 0.209 0 0 0.035 0 0.035 0 0.070 0 0.104 0 0.139 0 0.070 0 0.139-0.070 0.139-0.139 0-0.035 0-0.035 0-0.070-0.209-0.417-0.139-0.835 0.174-1.217 0.104-0.104 0.104-0.209 0-0.313l-0.070-0.070c-0.104-0.104-0.209-0.104-0.313 0-0.104 0.139-0.139 0.243-0.104 0.417 0.035 0.104 0.035 0.209 0 0.313zM21.913 20.522c-0.209-0.591-0.591-0.73-1.217-0.452-0.070 0.035-0.104 0.104-0.104 0.174l-0.278 1.878c0 0.070 0.035 0.104 0.104 0.104 0.035 0 0.104-0.035 0.104-0.070 0.209-0.522 0.417-0.696 0.661-0.557 0.209-0.035 0.383-0.174 0.487-0.348 0.070-0.104 0.139-0.104 0.243-0.070 0.313 0.174 0.661 0.626 1.078 0.348 0.104-0.070 0.104-0.139-0.035-0.174l-0.522-0.174c-0.104-0.035-0.139-0.139-0.104-0.209s0.070-0.104 0.139-0.104l0.626-0.104c0.104-0.035 0.209-0.139 0.209-0.243v-0.452c0-0.104-0.070-0.174-0.174-0.174-0.452 0-0.765 0.174-0.87 0.591-0.035 0.070-0.104 0.139-0.209 0.104-0.070 0-0.104-0.035-0.139-0.070zM26.157 21.565c0.313 0.139 0.73-0.139 0.904-0.557 0 0 0 0 0 0 0.174-0.452 0.035-0.904-0.278-1.043s-0.73 0.139-0.904 0.557c0 0 0 0 0 0-0.174 0.452-0.035 0.904 0.278 1.043zM31.861 21.496c0.035-0.487-0.070-0.939-0.313-1.391-0.243-0.417-0.348-0.383-0.243 0.104l0.243 1.322c0 0.104 0.104 0.139 0.209 0.139 0.035-0.070 0.104-0.104 0.104-0.174zM36.278 20.557l-0.104 0.835c0 0.070 0.035 0.174 0.104 0.174s0.174-0.035 0.174-0.104v0c0.139-0.452 0.174-0.904 0.139-1.391 0-0.104-0.070-0.174-0.174-0.174s-0.174 0.070-0.209 0.174c0 0.070 0 0.139 0.035 0.209s0.070 0.174 0.035 0.278zM46.261 20.070c-0.209-0.104-0.313-0.070-0.383 0.035-0.209 0.383-0.313 0.8-0.243 1.252 0 0.070 0.070 0.104 0.104 0.104s0.070-0.035 0.104-0.070l0.417-1.322c0.417 0.174 0.487 0.591 0.174 1.217 0 0.035 0 0.070 0 0.070l0.104 0.104c0.035 0.070 0.139 0.070 0.174 0 0.035-0.035 0.035-0.035 0.035-0.070l0.174-1.183c0-0.104-0.070-0.243-0.174-0.243-0.139-0.035-0.313 0-0.487 0.104z"></path>
<path fill="#e2001a" d="M16.383 12l-2.539-0.035c-0.174 0-0.209-0.070-0.070-0.209l0.904-0.939c0.070-0.070 0.174-0.139 0.313-0.139h3.896c0.104 0 0.174 0.070 0.174 0.174 0 0.035 0 0.035 0 0.070l-0.904 2.33c-0.035 0.070 0 0.139 0.070 0.174 0.035 0 0.035 0 0.070 0 1.183-0.174 2.4-0.417 3.583-0.696 1.078-0.243 1.67 0.174 1.704 1.287 0 0.417 0.209 0.591 0.626 0.452 0.904-0.278 1.67-0.8 2.296-1.565 0.070-0.104 0.209-0.174 0.313-0.174l1.809-0.070c0.104 0 0.174 0.070 0.174 0.174 0 0.035-0.035 0.104-0.070 0.139-0.278 0.278-0.417 0.591-0.383 0.974 0 0.070 0.035 0.104 0.035 0.174 0.452 0.73 0.487 1.461 0.139 2.226-0.070 0.174-0.035 0.243 0.174 0.174l0.591-0.209c0.104-0.035 0.174-0.104 0.209-0.243 0.383-1.913 1.878-3.652 3.965-3.409 0.417 0.035 0.73 0.313 0.939 0.8 0.557 1.252-1.704 2.365-2.609 2.678-0.139 0.035-0.209 0.209-0.174 0.348 0.035 0.070 0.070 0.139 0.139 0.174 1.357 0.522 2.643-0.87 3.478-1.739 0.557-0.557 0.661-1.183 0.904-1.913 0.035-0.104 0.104-0.174 0.209-0.174l1.565-0.174c0.104 0 0.209 0.070 0.209 0.174 0 0.035 0 0.070 0 0.104l-0.209 0.626c-0.035 0.070 0 0.139 0.070 0.174s0.104 0 0.174-0.035c0.696-0.696 1.53-1.043 2.539-1.043 0.139 0 0.174 0.070 0.104 0.209l-0.765 1.357c-0.104 0.174-0.035 0.383 0.139 0.487 0.139 0.070 0.278 0.070 0.383-0.035 0.974-0.8 2.609-3.096 4.209-1.739 0.104 0.104 0.209 0.104 0.348 0.035 0.557-0.278 1.148-0.313 1.809-0.104 0.104 0.035 0.139 0.104 0.104 0.209l-0.904 3.548c0 0.070 0 0.139 0.035 0.174 0.104 0.104 0.243 0.139 0.417 0.070 0.243-0.070 0.487 0.070 0.557 0.313 0.035 0.174 0 0.348-0.139 0.452-0.939 0.8-1.809 0.8-2.678 0-0.139-0.104-0.278-0.139-0.417-0.035-1.148 0.87-2.296 0.835-3.374-0.139-0.070-0.070-0.139-0.174-0.139-0.278l-0.070-1.391c0-0.139-0.070-0.174-0.209-0.139-0.904 0.209-1.426-0.174-1.496-1.113 0-0.070-0.070-0.139-0.174-0.139-0.035 0-0.070 0.035-0.104 0.035-0.974 0.974-1.565 2.157-1.809 3.548-0.035 0.104-0.104 0.209-0.243 0.209h-1.496c-0.104 0-0.174-0.070-0.174-0.174 0-0.035 0-0.035 0-0.070l0.522-1.6c0.035-0.070-0.035-0.174-0.104-0.174s-0.104 0-0.139 0.035c-1.357 1.322-3.826 3.374-5.391 0.974-0.070-0.104-0.139-0.139-0.278-0.104-0.974 0.313-1.913 0.696-2.852 1.078-2.226 0.939-3.791-2.296-1.53-2.504 0.070 0 0.139 0.035 0.139 0.139 0 0.035 0 0.035 0 0.070-0.383 1.217 1.322 1.148 1.6 0.383 0.209-0.557-0.139-1.322-0.209-1.948 0-0.070-0.070-0.139-0.174-0.139-0.035 0-0.035 0-0.070 0.035-0.696 0.522-1.496 0.835-2.4 0.87-0.139 0-0.209 0.070-0.243 0.209-0.278 1.078-0.904 1.913-1.809 2.504-1.774 1.148-4.243 0.243-3.757-2.191 0.035-0.209 0.243-0.661 0.591-1.287 0.070-0.104 0.035-0.139-0.104-0.139-2.261 0-4.174 0.487-5.739 1.53-0.522 0.348-0.626 1.287 0 1.67 1.287 0.765 2.122-1.113 2.609-2.261 0.035-0.104 0.139-0.174 0.243-0.174l1.565-0.243c0.139-0.035 0.278 0.070 0.313 0.243 0 0.035 0 0.104-0.035 0.139-0.87 2.052-2.678 4.209-5.252 3.583-1.391-0.348-1.67-1.704-0.904-2.748 0.835-1.148 3.096-1.809 4.417-2.017 0.104-0.035 0.209-0.104 0.243-0.174l0.522-1.496c0.035-0.070 0-0.139-0.070-0.174 0.104-0.035 0.070-0.035 0.070-0.035zM22.713 14.017c-0.035-0.209-0.104-0.383-0.243-0.557-0.070-0.104-0.243-0.139-0.348-0.035s-0.139 0.243-0.035 0.348c0.104 0.139 0.243 0.278 0.383 0.417 0.070 0.070 0.174 0.035 0.209-0.035 0-0.070 0.035-0.104 0.035-0.139zM44.417 13.496c-0.104-0.070-0.243-0.070-0.383-0.035-1.113 0.452-1.739 1.217-1.878 2.365-0.139 1.009 0.939 1.322 1.635 0.835 0.591-0.383 0.87-1.809 1.009-2.47 0.104-0.348-0.070-0.522-0.383-0.696zM31.617 14.643c-0.174 0.557 0 0.696 0.522 0.487 0.348-0.139 0.661-0.348 0.939-0.591 0.209-0.174 0.209-0.487 0.035-0.696-0.104-0.104-0.278-0.174-0.417-0.139-0.522 0.070-0.87 0.383-1.078 0.939zM22.33 14.852l-0.904-0.835c-0.209-0.209-0.522-0.174-0.73 0.035l-0.452 0.487c-0.626 0.661-0.765 1.565-0.313 1.983 0 0 0 0 0 0l0.035 0.035c0.452 0.417 1.322 0.209 1.948-0.452l0.452-0.487c0.174-0.243 0.174-0.591-0.035-0.765z"></path>
<path fill="#fecc00" d="M22.47 14.157c-0.139-0.104-0.278-0.243-0.383-0.417-0.070-0.104-0.070-0.278 0.035-0.348s0.278-0.070 0.348 0.035c0.139 0.174 0.209 0.348 0.243 0.557 0 0.070-0.070 0.174-0.139 0.174-0.035 0.035-0.104 0-0.104 0z"></path>
<path fill="#fecc00" d="M44.417 13.496c0.313 0.174 0.487 0.348 0.417 0.73-0.139 0.661-0.417 2.052-1.009 2.47-0.696 0.487-1.774 0.174-1.635-0.835 0.139-1.148 0.765-1.948 1.878-2.365 0.104-0.070 0.243-0.035 0.348 0z"></path>
<path fill="#fecc00" d="M31.617 14.643c0.174-0.522 0.557-0.835 1.078-0.939 0.278-0.035 0.522 0.139 0.557 0.417 0.035 0.139-0.035 0.313-0.139 0.417-0.278 0.243-0.591 0.452-0.939 0.591-0.557 0.209-0.73 0.035-0.557-0.487z"></path>
<path fill="#fecc00" d="M22.33 14.852c0.209 0.209 0.209 0.522 0.035 0.73l-0.452 0.487c-0.626 0.661-1.496 0.87-1.948 0.452l-0.035-0.035c-0.452-0.417-0.313-1.322 0.313-1.983 0 0 0 0 0 0l0.452-0.487c0.209-0.209 0.522-0.209 0.73-0.035l0.904 0.87z"></path>
<path fill="#e2001a" d="M25.774 19.235c0.104-0.035 0.209 0.035 0.243 0.104 0 0.035 0 0.070 0 0.104-0.035 0.139-0.139 0.209-0.243 0.209s-0.209 0.070-0.209 0.174l-0.522 2.191c0 0.070-0.070 0.104-0.139 0.104s-0.104-0.070-0.104-0.139c0.035-0.452 0.104-0.904 0.174-1.357 0.035-0.104 0.035-0.209 0.035-0.313-0.070-0.557 0.209-0.904 0.765-1.078z"></path>
<path fill="#e2001a" d="M42.504 20.522l0.383 0.313c0.104 0.104 0.243 0.070 0.313-0.035 0.278-0.383 0.417-0.835 0.383-1.287 0-0.070 0.035-0.139 0.104-0.139 0.035 0 0.070-0.035 0.104-0.035s0.070 0 0.070 0.035c0 0 0 0 0 0.035l-0.104 1.043c0 0.104 0.070 0.174 0.139 0.174 0.035 0 0.104 0 0.139-0.035l0.522-0.557c0.139-0.174 0.417-0.174 0.557 0 0.104 0.070 0.139 0.209 0.139 0.348l-0.104 0.904c0 0.104-0.070 0.209-0.174 0.243-0.417 0.209-0.73 0.139-1.009-0.278-0.035-0.070-0.139-0.070-0.174-0.035-0.035 0-0.035 0.035-0.035 0.035-0.174 0.313-0.348 0.348-0.591 0.139-0.104-0.104-0.209-0.070-0.313 0.035-0.243 0.243-0.522 0.278-0.87 0.104-0.104-0.070-0.209-0.070-0.348-0.035-0.87 0.209-1.774 0.174-2.643-0.070-0.139-0.035-0.243 0-0.348 0.070-0.139 0.104-0.278 0.139-0.487 0.139-0.139 0-0.278 0.104-0.313 0.243l-0.070 0.348c0 0.070-0.070 0.139-0.174 0.104-0.070 0-0.139-0.104-0.104-0.174v0l0.243-1.774c0.035-0.348 0.383-0.591 0.696-0.522 0.209 0.035 0.383 0.139 0.452 0.313 0.070 0.139 0.104 0.313 0.104 0.487 0 0.139 0.035 0.243 0.139 0.313l0.104 0.070c0 0 0.035 0 0.035 0s0 0 0 0c0.104-0.278 0.278-0.383 0.557-0.348 0.070 0 0.174-0.035 0.174-0.104 0 0 0-0.035 0-0.035 0-0.070 0-0.139 0-0.174 0-0.139-0.070-0.209-0.209-0.209h-0.243c-0.035 0-0.070-0.035-0.070-0.070s0.035-0.070 0.035-0.070c0.243-0.104 0.487-0.104 0.626 0.035 0.104 0.104 0.174 0.243 0.174 0.452 0 0.243 0 0.522 0 0.765 0 0.139 0.070 0.174 0.174 0.174l0.73-0.139c0.104 0 0.139-0.104 0.139-0.174 0-0.035-0.035-0.104-0.070-0.104l-0.522-0.313c-0.104-0.070-0.139-0.174-0.070-0.278 0 0 0 0 0 0 0.174-0.278 0.452-0.452 0.765-0.522 0.104-0.035 0.209 0.035 0.243 0.104 0.035 0.104 0 0.174-0.104 0.209v0l-0.278 0.104c-0.070 0.035-0.139 0.104-0.104 0.209 0 0.035 0 0.035 0.035 0.070l0.626 0.696c0.070 0.070 0.174 0.104 0.278 0.104l0.383-0.035c0.104 0 0.174-0.104 0.139-0.209 0-0.070-0.035-0.104-0.104-0.139l-0.452-0.243c-0.139-0.070-0.174-0.209-0.104-0.348 0 0 0 0 0 0 0.209-0.417 0.522-0.557 0.939-0.417 0.035 0.035 0.070 0.070 0.070 0.139-0.035 0.035-0.070 0.070-0.104 0.070l-0.174-0.035c-0.139-0.035-0.278 0.035-0.313 0.174-0.035-0.035 0 0.070 0.070 0.139zM38.052 20.383l-0.174 0.696c-0.035 0.104 0.035 0.209 0.139 0.243 0.035 0 0.070 0 0.104 0 0.452-0.139 0.591-0.452 0.452-0.939-0.035-0.139-0.209-0.243-0.348-0.209-0.070 0.035-0.139 0.104-0.174 0.209zM44.626 20.243c-0.487 0.522-0.522 0.87-0.070 1.078 0.139 0.070 0.313 0 0.383-0.139 0.035-0.035 0.035-0.070 0.035-0.104v-0.696c0-0.104-0.070-0.174-0.174-0.174-0.070-0.035-0.139-0.035-0.174 0.035z"></path>
<path fill="#e2001a" d="M28.939 20.522l1.426-1.009c0.104-0.070 0.139-0.035 0.104 0.070l-0.243 1.739c-0.035 0.104-0.139 0.209-0.243 0.209l-0.661-0.035c-0.070 0-0.139-0.035-0.174-0.104l-0.278-0.348c-0.139-0.139-0.243-0.139-0.313 0.070-0.139 0.383-0.417 0.522-0.835 0.417-0.104-0.035-0.174-0.104-0.209-0.209-0.383-1.113 1.009-2.052 1.252-0.87 0 0.070 0.070 0.104 0.139 0.104 0-0.035 0.035-0.035 0.035-0.035zM29.322 21.113l0.452 0.139c0.035 0 0.104 0 0.104-0.070 0 0 0 0 0 0l0.035-0.070c0.139-0.487 0.174-0.904 0.070-0.939 0 0 0 0 0 0l-0.243-0.070c-0.104-0.035-0.278 0.348-0.452 0.835 0 0 0 0 0 0l-0.035 0.070c0 0.070 0.035 0.104 0.070 0.104 0 0 0 0 0 0zM28 21.287c0.174 0.035 0.383-0.174 0.452-0.487 0 0 0 0 0 0 0.070-0.313-0.035-0.591-0.243-0.626 0 0 0 0 0 0-0.174-0.035-0.383 0.174-0.452 0.487 0 0 0 0 0 0-0.070 0.313 0.035 0.591 0.243 0.626 0 0 0 0 0 0z"></path>
<path fill="#e2001a" d="M33.043 20.661c0 0.383-0.139 0.661-0.417 0.904-0.070 0.070-0.174 0.035-0.209-0.035-0.035-0.035-0.035-0.070-0.035-0.104 0-0.348-0.104-0.661-0.348-0.939-0.104-0.139-0.104-0.348 0.035-0.452 0.070-0.070 0.209-0.104 0.313-0.070 0.174 0.070 0.313 0.209 0.348 0.417 0 0.070 0.070 0.104 0.139 0.104 0.035 0 0.070-0.035 0.070-0.070l0.209-0.348c0.070-0.139 0.174-0.139 0.278-0.035l0.070 0.070c0.070 0.070 0.174 0.070 0.243 0 0.035-0.035 0.070-0.104 0.035-0.139l-0.070-0.383c-0.035-0.104 0.035-0.174 0.139-0.174 0.035 0 0.070 0 0.104 0s0.070 0.035 0.070 0.070c0 0 0 0 0 0l-0.313 1.948c0 0.070-0.070 0.104-0.104 0.070-0.035 0-0.035-0.035-0.070-0.035-0.139-0.209-0.139-0.417 0-0.626 0.070-0.139 0.035-0.209-0.104-0.243l-0.174-0.070c-0.139-0.035-0.209 0-0.209 0.139z"></path>
<path fill="#e2001a" d="M35.583 19.409c0 0 0-0.035 0 0 0.035-0.035 0.035-0.035 0 0v0c0.243 0.035 0.348 0.313 0.278 0.626 0 0 0 0 0 0l-0.174 0.939c-0.070 0.313-0.278 0.522-0.452 0.487 0 0 0 0 0 0v0c0 0-0.035 0-0.035-0.035 0 0 0 0 0 0l0.383-2.017z"></path>
<path fill="#e2001a" d="M23.861 19.826c0-0.104 0.104-0.174 0.209-0.174 0 0 0.035 0 0.035 0l0.243 0.070c0.174 0.070 0.209 0.174 0.070 0.278-0.383 0.383-0.452 0.87-0.278 1.357 0.035 0.104 0 0.174-0.104 0.174-0.035 0-0.070 0-0.139 0-0.104 0-0.209-0.070-0.209-0.174 0 0 0-0.035 0-0.035l0.174-1.496z"></path>
<path fill="#e2001a" d="M34.435 20.174c-0.035-0.139 0-0.278 0.104-0.417 0.104-0.104 0.209-0.139 0.313 0l0.070 0.070c0.104 0.104 0.104 0.209 0 0.313-0.313 0.383-0.383 0.8-0.174 1.217 0.035 0.070 0 0.139-0.070 0.174-0.035 0-0.035 0-0.070 0s-0.104 0-0.139 0-0.209-0.070-0.209-0.174c0 0 0-0.035 0-0.035l0.139-0.87c0.070-0.070 0.070-0.174 0.035-0.278z"></path>
<path fill="#e2001a" d="M22.226 20.522c0.139-0.417 0.417-0.626 0.87-0.591 0.104 0 0.174 0.070 0.174 0.174l0.035 0.417c0 0.104-0.070 0.243-0.209 0.243l-0.626 0.104c-0.104 0-0.139 0.104-0.139 0.174s0.035 0.104 0.104 0.139l0.522 0.174c0.139 0.035 0.139 0.104 0.035 0.174-0.383 0.278-0.765-0.139-1.078-0.348-0.104-0.070-0.174-0.035-0.243 0.070-0.139 0.174-0.278 0.278-0.487 0.348-0.243-0.139-0.452 0.035-0.661 0.557-0.035 0.070-0.104 0.070-0.139 0.070-0.035-0.035-0.070-0.070-0.070-0.104l0.278-1.878c0-0.070 0.035-0.139 0.104-0.174 0.626-0.313 1.009-0.139 1.217 0.452 0.035 0.070 0.104 0.139 0.209 0.104 0.070-0.035 0.104-0.070 0.104-0.104zM21.009 21.287c0.174 0.070 0.417-0.139 0.522-0.452 0 0 0 0 0 0 0.104-0.313 0.035-0.591-0.174-0.661-0.174-0.070-0.417 0.139-0.522 0.452 0 0 0 0 0 0-0.104 0.313-0.035 0.626 0.174 0.661z"></path>
<path fill="#e2001a" d="M26.157 21.565c-0.313-0.139-0.452-0.591-0.278-1.043s0.591-0.696 0.904-0.557c0 0 0 0 0 0 0.313 0.139 0.452 0.591 0.278 1.043-0.174 0.417-0.591 0.661-0.904 0.557 0 0 0 0 0 0zM26.365 20.209l-0.313 0.696c-0.070 0.174 0 0.383 0.174 0.452s0.348 0 0.417-0.139c0.174-0.313 0.209-0.626 0.104-0.974-0.035-0.104-0.139-0.174-0.278-0.139-0.035 0-0.070 0.035-0.104 0.104z"></path>
<path fill="#e2001a" d="M31.548 21.496l-0.278-1.322c-0.104-0.487 0-0.522 0.243-0.104 0.278 0.452 0.383 0.904 0.313 1.391 0 0.104-0.104 0.174-0.174 0.139-0.035 0.035-0.104-0.035-0.104-0.104z"></path>
<path fill="#e2001a" d="M36.243 20.243c-0.035-0.070-0.035-0.139-0.035-0.209 0-0.104 0.104-0.174 0.209-0.174s0.174 0.104 0.174 0.174v0c0.035 0.452 0 0.939-0.139 1.391 0 0.070-0.104 0.139-0.174 0.104s-0.139-0.104-0.104-0.174v0l0.104-0.835c0.035-0.070 0-0.174-0.035-0.278z"></path>
<path fill="#e2001a" d="M46.261 20.070c0.174-0.104 0.348-0.139 0.522-0.104 0.104 0.035 0.209 0.139 0.174 0.243l-0.174 1.183c0 0.070-0.070 0.139-0.139 0.104-0.035 0-0.070-0.035-0.070-0.035l-0.104-0.104c-0.035-0.035-0.035-0.070 0-0.070 0.278-0.626 0.209-1.043-0.209-1.217z"></path>
<path fill="#e2001a" d="M46.261 20.070l-0.417 1.322c0 0.070-0.070 0.104-0.139 0.070-0.035 0-0.070-0.035-0.070-0.104-0.070-0.452 0.035-0.87 0.243-1.252 0.070-0.104 0.174-0.139 0.383-0.035z"></path>
<path fill="#fecc00" d="M26.783 20.243c0.104 0.348 0.070 0.661-0.104 0.974-0.104 0.174-0.313 0.209-0.452 0.139s-0.209-0.278-0.139-0.417l0.313-0.696c0.035-0.104 0.174-0.174 0.278-0.104 0.035-0.035 0.070 0.035 0.104 0.104z"></path>
<path fill="#fecc00" d="M29.322 21.113c-0.035 0-0.070-0.070-0.070-0.104 0 0 0 0 0 0l0.035-0.070c0.139-0.487 0.348-0.87 0.452-0.835 0 0 0 0 0 0l0.243 0.070c0.104 0.035 0.070 0.452-0.070 0.939 0 0 0 0 0 0l-0.035 0.070c0 0.035-0.070 0.070-0.104 0.070 0 0 0 0 0 0l-0.452-0.139z"></path>
<path fill="#fecc00" d="M21.34 20.16c0.184 0.056 0.256 0.354 0.161 0.667s-0.321 0.52-0.505 0.465c-0.184-0.056-0.256-0.354-0.161-0.667s0.321-0.52 0.505-0.465z"></path>
<path fill="#fecc00" d="M28.215 20.197c0.189 0.036 0.295 0.31 0.237 0.612s-0.257 0.517-0.446 0.482c-0.189-0.036-0.295-0.31-0.237-0.612s0.257-0.517 0.446-0.482z"></path>
<path fill="#fecc00" d="M38.052 20.383c0.035-0.139 0.174-0.243 0.348-0.209 0.104 0.035 0.174 0.104 0.209 0.209 0.139 0.487 0 0.8-0.452 0.939-0.104 0.035-0.209-0.035-0.243-0.139 0-0.035 0-0.070 0-0.104l0.139-0.696z"></path>
<path fill="#fecc00" d="M44.626 20.243c0.070-0.070 0.174-0.070 0.278 0 0.035 0.035 0.070 0.070 0.070 0.139v0.696c0 0.139-0.139 0.278-0.278 0.278-0.035 0-0.070 0-0.104-0.035-0.452-0.209-0.417-0.591 0.035-1.078z"></path>
</svg>
