<!-- Generated by IcoMoon.io -->
<svg version="1.1" xmlns="http://www.w3.org/2000/svg" width="56" height="32" viewBox="0 0 56 32">
<title>livisto</title>
<path fill="#fff" d="M0 0h56.203v32h-56.203v-32zM10.799 4.776c0-0.436-0.086-0.868-0.253-1.271s-0.411-0.769-0.719-1.078c-0.308-0.308-0.674-0.553-1.077-0.72s-0.834-0.253-1.27-0.253c-0.88 0-1.724 0.35-2.347 0.973s-0.972 1.468-0.972 2.349c0 0.881 0.35 1.726 0.972 2.349s1.466 0.973 2.347 0.973c0.88 0 1.724-0.35 2.347-0.973s0.972-1.468 0.972-2.349zM14.651 2.743c-1.583 1.87-3.16 3.745-4.731 5.625-0.651 0.778-1.084 1.729-0.966 2.766 0.129 1.126 0.936 2.079 1.925 2.596 1.387 0.725 3.002 0.259 3.992-0.903 0.774-0.909 2.273-2.697 4.499-5.365 0.002-0.003 0.079-0.092 0.232-0.267 1.475-1.699 1.301-3.903-0.602-5.175-1.494-0.999-3.229-0.597-4.348 0.724zM28.402 22.026c0.299 1.946 2.387 2.107 3.903 2.261 0.451 0.046 1.132 0.162 1.142 0.704 0.010 0.512-0.462 0.752-0.899 0.808-0.983 0.126-1.859-0.157-2.703-0.639-0.408-0.233-0.793-0.257-1.156-0.073-0.511 0.258-0.7 0.843-0.46 1.363 0.143 0.308 0.415 0.506 0.715 0.665 1.242 0.659 2.658 0.848 4.039 0.64 1.713-0.259 3.036-1.337 2.883-3.226-0.179-2.222-2.412-2.346-4.089-2.525-0.278-0.030-0.945-0.17-0.984-0.524-0.052-0.46 0.14-0.73 0.576-0.81 0.924-0.171 1.764 0.097 2.637 0.47 0.483 0.206 1.096-0.004 1.303-0.514 0.249-0.615-0.068-1.097-0.608-1.379-2.196-1.146-6.87-0.927-6.298 2.779zM44.62 25.342c0.677 2.105 2.816 2.764 4.8 2.398 2.807-0.518 3.355-3.247 3.028-5.639-0.255-1.871-1.336-3.112-3.199-3.404-2.415-0.378-4.46 0.756-4.845 3.297-0.166 1.092-0.129 2.277 0.216 3.348zM6.885 25.386c-0.008-0.029-0.012-0.068-0.012-0.115 0.010-1.672 0.009-3.344-0.005-5.015-0.003-0.321-0.028-0.555-0.077-0.702-0.375-1.133-2.057-1.101-2.392 0.051-0.046 0.159-0.070 0.407-0.070 0.743-0.001 1.913-0 3.826 0.001 5.738 0 0.392 0.025 0.667 0.075 0.824 0.194 0.606 0.69 0.832 1.296 0.832 0.948 0.001 1.895 0 2.843-0.002 0.326-0.001 0.552-0.021 0.678-0.060 0.623-0.194 0.904-0.858 0.718-1.465-0.165-0.541-0.653-0.771-1.199-0.772-0.6-0.001-1.195-0.002-1.785-0.003-0.016 0-0.032-0.005-0.045-0.015s-0.023-0.024-0.027-0.039zM13.589 19.959c0-0.327-0.13-0.641-0.361-0.872s-0.544-0.361-0.871-0.361h-0.074c-0.327 0-0.64 0.13-0.871 0.361s-0.361 0.545-0.361 0.872v6.549c0 0.327 0.13 0.641 0.361 0.872s0.544 0.361 0.871 0.361h0.074c0.327 0 0.64-0.13 0.871-0.361s0.361-0.545 0.361-0.872v-6.549zM18.964 24.203c-0.002 0.004-0.005 0.008-0.008 0.011s-0.008 0.004-0.013 0.004c-0.005 0-0.009-0.001-0.013-0.004s-0.007-0.006-0.008-0.011c-0.521-1.424-1.043-2.845-1.566-4.261-0.285-0.774-0.601-1.338-1.525-1.194-0.827 0.128-1.234 0.94-0.932 1.703 0.534 1.349 1.324 3.315 2.37 5.896 0.134 0.33 0.292 0.619 0.474 0.867 0.362 0.493 1.010 0.619 1.568 0.488 0.82-0.193 1.154-1.24 1.432-1.929 0.698-1.731 1.373-3.476 2.091-5.198 0.243-0.584 0.183-1.25-0.341-1.614s-1.276-0.317-1.684 0.213c-0.092 0.12-0.192 0.331-0.298 0.633-0.517 1.469-1.033 2.934-1.547 4.396zM24.191 26.453c0.005 1.478 2.012 1.781 2.465 0.453 0.048-0.142 0.073-0.372 0.074-0.691 0.008-2.022 0.007-4.045-0.003-6.067-0.003-0.537-0.151-1.003-0.63-1.263-0.379-0.206-0.917-0.215-1.294-0.003-0.509 0.286-0.617 0.812-0.618 1.378-0.002 2.065-0 4.129 0.006 6.193zM37.343 18.726c-1.517 0.003-1.545 2.295-0.003 2.295 0.495 0 0.986 0.006 1.472 0.018 0.017 0 0.033 0.008 0.045 0.020s0.019 0.029 0.019 0.046c-0.002 1.756-0.002 3.514 0 5.276 0.001 0.624 0.312 1.17 0.919 1.32 0.983 0.243 1.633-0.437 1.633-1.389-0.001-1.735-0.001-3.469-0.001-5.203 0-0.018 0.007-0.036 0.020-0.049s0.030-0.021 0.049-0.021c0.418-0.007 0.84-0.013 1.264-0.017 0.279-0.003 0.481-0.025 0.608-0.067 0.519-0.174 0.771-0.641 0.741-1.183-0.041-0.724-0.61-1.046-1.303-1.047-1.821-0.002-3.641-0.001-5.461 0.002z"></path>
<path fill="#dfdab4" d="M7.48 8.097c1.833 0 3.318-1.487 3.318-3.322s-1.486-3.321-3.318-3.321c-1.833 0-3.318 1.487-3.318 3.321s1.486 3.322 3.319 3.322z"></path>
<path fill="#e1003a" d="M14.651 2.743c1.119-1.322 2.854-1.723 4.348-0.724 1.903 1.272 2.077 3.476 0.602 5.175-0.152 0.175-0.229 0.264-0.232 0.267-2.226 2.668-3.725 4.457-4.499 5.365-0.99 1.162-2.605 1.628-3.992 0.903-0.989-0.517-1.797-1.47-1.925-2.596-0.118-1.037 0.316-1.987 0.966-2.766 1.571-1.88 3.148-3.755 4.731-5.625z"></path>
<path fill="#e1003a" d="M32.305 24.287c-1.516-0.154-3.604-0.315-3.903-2.261-0.571-3.707 4.102-3.925 6.298-2.779 0.54 0.282 0.856 0.764 0.608 1.379-0.207 0.51-0.82 0.72-1.303 0.514-0.873-0.373-1.712-0.641-2.636-0.47-0.436 0.080-0.628 0.35-0.576 0.81 0.040 0.353 0.707 0.494 0.984 0.524 1.676 0.18 3.91 0.304 4.089 2.525 0.152 1.889-1.171 2.967-2.883 3.226-1.38 0.208-2.797 0.019-4.039-0.64-0.3-0.159-0.572-0.357-0.715-0.665-0.24-0.52-0.051-1.105 0.46-1.363 0.363-0.184 0.749-0.16 1.156 0.073 0.844 0.483 1.72 0.765 2.703 0.64 0.437-0.056 0.908-0.296 0.899-0.808-0.010-0.543-0.691-0.659-1.142-0.704z"></path>
<path fill="#e1003a" d="M49.42 27.74c-1.984 0.366-4.123-0.293-4.8-2.398-0.345-1.072-0.382-2.257-0.216-3.349 0.385-2.542 2.43-3.676 4.845-3.297 1.863 0.292 2.943 1.534 3.199 3.404 0.327 2.392-0.221 5.121-3.028 5.639zM46.945 24.132c0.067 0.68 0.36 1.367 1.108 1.517 1.223 0.245 1.798-0.605 1.869-1.685 0.080-1.203 0.159-3.411-1.746-3.164-0.799 0.104-1.164 0.762-1.236 1.548-0.055 0.595-0.053 1.189 0.005 1.784z"></path>
<path fill="#e1003a" d="M6.885 25.386c0.005 0.016 0.014 0.029 0.027 0.039s0.029 0.015 0.045 0.015c0.59 0.001 1.185 0.002 1.785 0.003 0.546 0.001 1.034 0.23 1.199 0.772 0.186 0.608-0.095 1.272-0.718 1.465-0.126 0.039-0.352 0.059-0.678 0.060-0.948 0.002-1.895 0.003-2.843 0.002-0.607-0-1.102-0.227-1.296-0.832-0.050-0.157-0.075-0.431-0.075-0.824-0.002-1.912-0.002-3.825-0.001-5.738 0-0.336 0.023-0.584 0.070-0.743 0.335-1.151 2.017-1.184 2.392-0.051 0.049 0.147 0.074 0.381 0.077 0.702 0.014 1.672 0.016 3.344 0.005 5.015-0 0.047 0.004 0.085 0.012 0.115z"></path>
<path fill="#e1003a" d="M12.357 18.725h-0.074c-0.68 0-1.232 0.552-1.232 1.233v6.549c0 0.681 0.552 1.233 1.232 1.233h0.074c0.68 0 1.232-0.552 1.232-1.233v-6.549c0-0.681-0.552-1.233-1.232-1.233z"></path>
<path fill="#e1003a" d="M18.964 24.203c0.515-1.461 1.030-2.927 1.547-4.396 0.106-0.302 0.206-0.513 0.298-0.633 0.408-0.53 1.159-0.577 1.684-0.213s0.583 1.031 0.341 1.615c-0.718 1.722-1.393 3.467-2.091 5.198-0.278 0.689-0.611 1.737-1.432 1.929-0.559 0.132-1.206 0.005-1.568-0.487-0.182-0.249-0.34-0.538-0.474-0.868-1.045-2.582-1.835-4.547-2.37-5.896-0.302-0.763 0.105-1.575 0.932-1.703 0.924-0.143 1.239 0.42 1.525 1.194 0.522 1.416 1.044 2.836 1.566 4.261 0.002 0.004 0.005 0.008 0.008 0.011s0.008 0.004 0.013 0.004c0.005-0 0.009-0.002 0.013-0.004s0.007-0.006 0.008-0.011z"></path>
<path fill="#e1003a" d="M26.655 26.907c-0.453 1.327-2.46 1.025-2.465-0.453-0.006-2.064-0.008-4.128-0.006-6.193 0-0.566 0.108-1.092 0.618-1.378 0.378-0.212 0.916-0.203 1.294 0.003 0.479 0.26 0.627 0.726 0.63 1.263 0.010 2.022 0.011 4.044 0.003 6.067-0.001 0.319-0.026 0.549-0.074 0.691z"></path>
<path fill="#e1003a" d="M37.34 21.021c-1.542 0-1.513-2.292 0.003-2.295 1.82-0.003 3.64-0.004 5.461-0.002 0.693 0.001 1.262 0.323 1.303 1.047 0.031 0.542-0.222 1.009-0.741 1.183-0.126 0.042-0.329 0.065-0.608 0.067-0.424 0.004-0.846 0.010-1.264 0.017-0.018 0-0.036 0.008-0.049 0.021s-0.020 0.031-0.020 0.049c0 1.734 0 3.468 0.001 5.203 0 0.952-0.65 1.631-1.633 1.389-0.607-0.15-0.918-0.696-0.919-1.32-0.002-1.761-0.002-3.52 0-5.276 0-0.017-0.007-0.034-0.019-0.046s-0.028-0.020-0.045-0.020c-0.487-0.012-0.977-0.018-1.472-0.018z"></path>
<path fill="#fff" d="M48.053 25.649c-0.748-0.15-1.041-0.837-1.108-1.517-0.058-0.595-0.060-1.19-0.005-1.784 0.073-0.786 0.437-1.444 1.236-1.548 1.905-0.247 1.825 1.961 1.746 3.164-0.072 1.080-0.647 1.931-1.869 1.685z"></path>
</svg>
