<!-- Generated by IcoMoon.io -->
<svg version="1.1" xmlns="http://www.w3.org/2000/svg" width="85" height="32" viewBox="0 0 85 32">
<title>royal_canin</title>
<path fill="#e30013" d="M39.064 4.738c-1.007-1.268-0.225-3.22 1.411-3.384 1.014-0.101 1.927 0.565 2.188 1.538 0.253 0.941-0.162 1.899-1.014 2.36-0.85 0.46-1.979 0.25-2.586-0.513z"></path>
<path fill="#e30013" d="M35.245 5.817c0.837-0.8 0.88-2.113 0.097-2.933s-2.096-0.836-2.933-0.036-0.88 2.113-0.097 2.933c0.783 0.82 2.096 0.836 2.933 0.036z"></path>
<path fill="#e30013" d="M45.662 5.064c-0.456-1.115 0.267-2.401 1.399-2.699 0.643-0.169 1.379-0.009 1.885 0.42 1.391 1.177 0.645 3.455-1.161 3.617-0.922 0.083-1.778-0.494-2.123-1.338z"></path>
<path fill="#e30013" d="M25.719 5.637c1.256-1.458 3.572-0.503 3.668 1.326 0.056 1.047-0.701 1.965-1.754 2.068-0.216 0.021-0.434 0.015-0.656-0.019-1.607-0.243-2.32-2.144-1.258-3.376z"></path>
<path fill="#e30013" d="M52.113 6.355c-0.408 1.090 0.135 2.3 1.21 2.702s2.279-0.155 2.686-1.245c0.408-1.090-0.134-2.3-1.21-2.702s-2.279 0.155-2.686 1.245z"></path>
<path fill="#e30013" d="M40.68 10.755c1.137 0 2.058-0.922 2.058-2.058s-0.921-2.058-2.058-2.058c-1.136 0-2.058 0.922-2.058 2.058s0.921 2.058 2.058 2.058z"></path>
<path fill="#e30013" d="M35.152 11.463c1.152 0 2.086-0.934 2.086-2.087s-0.934-2.087-2.086-2.087c-1.153 0-2.087 0.934-2.087 2.087s0.934 2.087 2.087 2.087z"></path>
<path fill="#e30013" d="M46.77 11.363c1.106-0.307 1.757-1.441 1.455-2.534s-1.446-1.73-2.552-1.423c-1.106 0.307-1.757 1.442-1.455 2.534s1.445 1.73 2.552 1.423z"></path>
<path fill="#e30013" d="M29.928 13.563c-1.514-0.044-2.463-1.475-1.921-2.887 0.399-1.040 1.629-1.479 2.639-1.131 0.928 0.32 1.481 1.226 1.399 2.196-0.092 1.079-1.042 1.853-2.118 1.822z"></path>
<path fill="#e30013" d="M50.054 13.047c-0.377-0.33-0.58-0.731-0.654-1.233-0.23-1.56 1.21-2.694 2.691-2.255 0.554 0.164 1.042 0.75 1.31 1.234 0.050 0.091 0.083 0.185 0.099 0.284 0.321 1.979-1.9 3.326-3.446 1.97z"></path>
<path fill="#e30013" d="M31.659 16.416c-1.007 0.329-1.627-1.008-0.816-1.605 1.649-1.214 3.66-1.974 5.65-2.397 3.645-0.773 7.511-0.547 11.005 0.782 1.039 0.395 2.007 0.905 2.907 1.529 0.336 0.233 0.534 0.44 0.533 0.841-0.002 0.487-0.23 0.782-0.683 0.885-0.525 0.119-0.894-0.317-1.281-0.551-3.028-1.83-6.698-2.398-10.202-2.027-2.055 0.218-4.154 0.81-5.953 1.844-0.251 0.144-0.545 0.344-0.817 0.52-0.142 0.092-0.256 0.151-0.342 0.179z"></path>
<path fill="#e30013" d="M32.554 17.849c-0.534 0.433-1.218-0.18-0.914-0.773 0.041-0.080 0.127-0.171 0.259-0.272 0.992-0.762 2.1-1.351 3.322-1.769 3.28-1.12 6.87-1.176 10.176-0.221 1.45 0.419 2.856 1.090 4.084 2.040 0.568 0.439 0.111 1.33-0.554 1.098-0.068-0.024-0.16-0.082-0.276-0.173-1.257-0.997-2.773-1.632-4.339-1.996-2.544-0.591-5.201-0.558-7.719 0.106-1.457 0.384-2.863 1.008-4.039 1.961z"></path>
<path fill="#e30013" d="M84.777 21.305c0 0.159-0.031 0.316-0.092 0.462s-0.15 0.28-0.262 0.392c-0.112 0.112-0.245 0.201-0.392 0.262s-0.303 0.092-0.462 0.092c-0.32 0-0.627-0.127-0.854-0.354s-0.354-0.534-0.354-0.854 0.127-0.628 0.354-0.854c0.227-0.227 0.534-0.354 0.854-0.354 0.159 0 0.316 0.031 0.462 0.092s0.28 0.15 0.392 0.262c0.112 0.112 0.201 0.245 0.262 0.392s0.092 0.304 0.092 0.462zM84.487 21.301c0-0.243-0.097-0.477-0.269-0.649s-0.405-0.269-0.648-0.269-0.477 0.097-0.648 0.269c-0.172 0.172-0.269 0.405-0.269 0.649s0.097 0.477 0.269 0.649c0.172 0.172 0.405 0.269 0.648 0.269s0.477-0.097 0.648-0.269c0.172-0.172 0.269-0.405 0.269-0.649z"></path>
<path fill="#e30013" d="M70.649 20.132h-0.051c-0.638 0-1.154 0.517-1.154 1.155v8.378c0 0.638 0.517 1.155 1.154 1.155h0.051c0.637 0 1.154-0.517 1.154-1.155v-8.378c0-0.638-0.517-1.155-1.154-1.155z"></path>
<path fill="#e30013" d="M33.286 30.83c-0.309 0-0.593-0.197-0.686-0.49-0.023-0.072-0.034-0.205-0.034-0.399-0.001-2.817-0.001-5.635-0-8.453 0-0.192 0.013-0.336 0.038-0.432 0.098-0.373 0.376-0.696 0.734-0.83 0.606-0.226 1.354 0.126 1.55 0.761 0.049 0.159 0.083 0.302 0.060 0.45-0.014 0.093-0.022 0.157-0.022 0.194-0.001 2.252-0.001 4.511 0 6.778 0 0.035 0.014 0.068 0.038 0.093s0.058 0.038 0.093 0.038c0.667-0.001 1.341-0.001 2.023 0 0.547 0.001 0.968 0.022 1.233 0.49 0.353 0.624 0.128 1.522-0.615 1.751-0.101 0.031-0.241 0.047-0.421 0.047-1.33 0.001-2.66 0.001-3.99 0.001z"></path>
<path fill="#e30013" d="M60.198 21.526c0.212-0.786 0.952-1.325 1.77-1.197 0.326 0.051 0.6 0.19 0.823 0.418 0.099 0.101 0.232 0.299 0.4 0.596 0.89 1.575 1.784 3.156 2.68 4.745 0.003 0.005 0.007 0.009 0.012 0.013s0.010 0.006 0.016 0.007 0.012 0.001 0.017-0.001c0.006-0.002 0.011-0.005 0.015-0.009 0.032-0.029 0.046-0.066 0.046-0.111 0-1.578 0-3.156 0-4.734 0-1.272 1.801-1.5 2.158-0.276 0.032 0.11 0.048 0.267 0.048 0.471-0.001 2.505-0.001 5.009 0.001 7.514 0 0.298-0.017 0.515-0.052 0.653-0.287 1.121-1.721 1.448-2.506 0.639-0.087-0.090-0.182-0.225-0.284-0.407-0.941-1.661-1.886-3.327-2.835-4.999-0.004-0.007-0.010-0.013-0.017-0.018s-0.015-0.007-0.023-0.008c-0.058-0.005-0.074 0.043-0.074 0.093-0 1.495 0 2.991 0 4.486 0 0.282-0.018 0.482-0.055 0.599-0.331 1.060-1.817 1.035-2.143-0.025-0.030-0.098-0.045-0.227-0.045-0.387 0.001-2.526 0.001-5.051 0-7.577 0-0.206 0.016-0.367 0.047-0.484z"></path>
<path fill="#e30013" d="M78.972 20.914c0.12-0.389 0.482-0.673 0.874-0.737 0.72-0.117 1.326 0.49 1.326 1.201 0 2.536 0 5.072 0.001 7.608 0 0.303-0.018 0.522-0.054 0.655-0.287 1.068-1.701 1.417-2.475 0.645-0.093-0.093-0.206-0.257-0.341-0.494-0.941-1.655-1.876-3.305-2.808-4.95-0.006-0.011-0.016-0.020-0.028-0.025s-0.025-0.006-0.037-0.003c-0.013 0.003-0.024 0.010-0.031 0.020s-0.012 0.022-0.012 0.035c-0.008 1.423-0.009 2.85-0.005 4.281 0.001 0.173 0.022 0.473-0.002 0.662-0.16 1.25-1.85 1.449-2.235 0.221-0.029-0.092-0.043-0.206-0.043-0.342 0.001-2.584 0.001-5.168 0.001-7.753-0.001-1.379 1.651-2.21 2.668-1.164 0.084 0.086 0.173 0.215 0.269 0.385 0.914 1.636 1.824 3.268 2.73 4.896 0.011 0.019 0.028 0.033 0.049 0.040s0.043 0.006 0.063-0.003c0.029-0.013 0.044-0.039 0.044-0.077 0.004-1.545 0.006-3.091 0.005-4.636-0-0.218 0.014-0.374 0.042-0.467z"></path>
<path fill="#e30013" d="M28.819 28.738h-2.826c-0.013 0-0.024 0.005-0.031 0.016-0.319 0.437-0.638 0.87-0.959 1.301-0.184 0.248-0.328 0.409-0.433 0.486-0.857 0.626-2.139-0.182-1.768-1.26 0.039-0.115 0.143-0.286 0.311-0.512 1.933-2.609 3.865-5.218 5.797-7.827 0.151-0.203 0.275-0.342 0.374-0.417 0.643-0.486 1.558-0.129 1.784 0.622 0.032 0.106 0.048 0.257 0.048 0.452 0.001 2.643 0.001 5.286 0 7.928 0 0.192-0.016 0.341-0.048 0.447-0.328 1.077-1.867 1.014-2.183-0.059-0.096-0.328-0.047-0.803-0.048-1.159 0-0.012-0.006-0.018-0.018-0.018zM27.671 26.388c0.022 0.016 0.049 0.023 0.079 0.023 0.341-0.007 0.685-0.007 1.033 0 0.014 0 0.021-0.006 0.021-0.020l-0.005-1.577c-0-0.003-0.001-0.006-0.003-0.008s-0.004-0.004-0.007-0.005c-0.003-0.001-0.006-0.001-0.009 0s-0.005 0.003-0.007 0.005l-1.111 1.521c-0.003 0.005-0.006 0.010-0.007 0.015s-0.002 0.011-0.001 0.017c0.001 0.006 0.003 0.011 0.006 0.016s0.007 0.009 0.012 0.012z"></path>
<path fill="#e30013" d="M52.226 30.745c-0.493-0.044-0.916-0.405-1.013-0.898-0.023-0.116-0.022-0.294-0.022-0.424-0.001-2.644-0.001-5.289-0-7.934 0-0.425 0.066-0.791 0.446-1.008 0.545-0.309 1.367-0.195 1.758 0.341 1.951 2.671 3.903 5.341 5.857 8.009 0.133 0.182 0.218 0.328 0.256 0.437 0.263 0.764-0.31 1.51-1.112 1.48-0.448-0.017-0.713-0.243-0.984-0.611-0.34-0.461-0.68-0.922-1.022-1.384-0.004-0.005-0.008-0.009-0.013-0.011s-0.011-0.004-0.017-0.004l-2.828 0.001c-0.004 0-0.009 0.002-0.012 0.005s-0.005 0.007-0.005 0.012c-0.003 0.262-0.003 0.526 0 0.791 0.008 0.706-0.6 1.26-1.29 1.198zM53.515 24.748l-0.001 1.639c0 0.005 0.002 0.010 0.005 0.013s0.008 0.005 0.013 0.005h1.072c0.013 0 0.026-0.004 0.036-0.010s0.020-0.016 0.026-0.028 0.008-0.024 0.008-0.037c-0.001-0.013-0.006-0.025-0.013-0.036l-1.112-1.557c-0.023-0.032-0.034-0.029-0.034 0.011z"></path>
<path fill="#e30013" d="M0 24.052v-0.324c0.013-0.489 0.092-0.935 0.237-1.338 0.451-1.258 1.65-2.013 2.969-2.009 0.911 0.002 1.741 0.249 2.431 0.855 1.616 1.421 1.647 4.047-0.278 5.269-0.018 0.011-0.022 0.026-0.010 0.044 0.461 0.733 0.913 1.452 1.356 2.157 0.206 0.328 0.324 0.537 0.355 0.625 0.156 0.456-0.032 0.932-0.412 1.211-0.41 0.302-1.086 0.308-1.428-0.16-0.86-1.175-1.721-2.351-2.581-3.526-0.073-0.099-0.235-0.096-0.237 0.048-0.011 0.839-0.024 1.678-0.039 2.516-0.005 0.278-0.027 0.475-0.066 0.59-0.33 0.967-1.759 0.99-2.083 0-0.038-0.116-0.061-0.335-0.069-0.657-0.044-1.767-0.093-3.534-0.144-5.302zM2.443 23.084c-0.548 0.624-0.214 1.707 0.646 1.825 0.128 0.017 0.274 0.021 0.435 0.035 0.638 0.054 1.098-0.672 1.039-1.233-0.053-0.499-0.41-0.899-0.912-0.981-0.427-0.070-0.912 0.018-1.208 0.354z"></path>
<path fill="#e30013" d="M17.508 25.573c0 0.679-0.134 1.352-0.394 1.98s-0.641 1.198-1.121 1.678c-0.48 0.481-1.050 0.862-1.678 1.121s-1.3 0.394-1.979 0.394-1.352-0.134-1.979-0.394c-0.627-0.26-1.198-0.641-1.678-1.121s-0.861-1.051-1.121-1.678-0.394-1.3-0.394-1.98c0-1.372 0.545-2.688 1.515-3.658s2.285-1.515 3.657-1.515c1.372 0 2.687 0.545 3.657 1.515s1.515 2.286 1.515 3.658zM15.128 25.533c0-0.739-0.294-1.448-0.816-1.971s-1.231-0.816-1.97-0.816c-0.739 0-1.448 0.294-1.97 0.816s-0.816 1.232-0.816 1.971c0 0.739 0.294 1.448 0.816 1.971s1.231 0.816 1.97 0.816c0.739 0 1.448-0.294 1.97-0.816s0.816-1.232 0.816-1.971z"></path>
<path fill="#e30013" d="M21.29 23.405c0.735-0.783 1.592-1.675 2.403-2.511 0.159-0.164 0.29-0.274 0.393-0.329 0.946-0.506 1.955 0.47 1.52 1.429-0.049 0.107-0.14 0.24-0.276 0.399-0.985 1.157-1.971 2.313-2.957 3.468-0.008 0.009-0.012 0.021-0.012 0.032-0.024 1.181-0.048 2.36-0.072 3.538-0.002 0.108-0.006 0.202-0.012 0.284-0.082 1.232-1.829 1.412-2.16 0.231-0.027-0.098-0.042-0.262-0.045-0.492-0.012-1.196-0.023-2.392-0.033-3.588-0-0.012-0.004-0.024-0.011-0.033-0.024-0.033-0.055-0.072-0.094-0.116-0.433-0.494-1.394-1.593-2.882-3.298-0.164-0.187-0.27-0.335-0.32-0.443-0.463-0.999 0.545-1.985 1.501-1.428 0.096 0.056 0.219 0.161 0.368 0.316 0.8 0.832 1.598 1.666 2.395 2.503 0.033 0.035 0.068 0.068 0.105 0.099 0.010 0.008 0.021 0.012 0.034 0.012 0.060-0.002 0.112-0.027 0.157-0.075z"></path>
<path fill="#e30013" d="M45.778 30.724c-2.093-0.368-3.727-1.951-4.177-4.019-0.721-3.312 1.924-6.445 5.322-6.267 1.218 0.064 2.333 0.585 3.17 1.464 0.153 0.16 0.255 0.294 0.307 0.401 0.414 0.849-0.329 1.705-1.218 1.573-0.138-0.021-0.264-0.070-0.378-0.148-0.333-0.228-0.703-0.509-1.026-0.67-0.767-0.382-1.539-0.399-2.317-0.052-1.377 0.615-2.014 2.241-1.456 3.63 0.59 1.468 2.28 2.222 3.738 1.51 0.308-0.15 0.68-0.423 1.011-0.639 0.139-0.090 0.259-0.149 0.36-0.177 0.531-0.146 1.153 0.093 1.332 0.643 0.053 0.164 0.055 0.501 0.019 0.679-0.041 0.2-0.139 0.377-0.294 0.532-1.121 1.118-2.797 1.819-4.391 1.539z"></path>
<path fill="#e30013" d="M83.382 21.453c-0.005 0.148 0.072 0.49-0.157 0.501-0.12 0.006-0.142-0.074-0.143-0.179-0.001-0.318-0.002-0.636-0-0.954 0.001-0.234 0.346-0.166 0.548-0.159 0.31 0.012 0.456 0.155 0.437 0.43-0.012 0.178-0.096 0.308-0.278 0.333-0.017 0.002-0.020 0.010-0.010 0.024 0.088 0.115 0.252 0.301 0.199 0.452-0.005 0.013-0.014 0.023-0.026 0.029-0.262 0.126-0.402-0.318-0.479-0.494-0.004-0.010-0.012-0.018-0.021-0.023s-0.020-0.007-0.031-0.005c-0.010 0.002-0.020 0.008-0.027 0.016s-0.011 0.018-0.011 0.029zM83.378 20.914l0.001 0.252c0 0.004 0.001 0.008 0.002 0.012s0.004 0.007 0.007 0.010c0.003 0.003 0.006 0.005 0.010 0.007s0.008 0.002 0.012 0.002l0.216-0.001c0.047-0 0.091-0.016 0.124-0.043s0.051-0.065 0.051-0.103v-0.022c0-0.019-0.005-0.038-0.014-0.056s-0.022-0.034-0.038-0.047c-0.017-0.013-0.036-0.024-0.057-0.031s-0.044-0.011-0.067-0.011l-0.217 0.001c-0.008 0-0.016 0.003-0.021 0.009s-0.009 0.013-0.009 0.022z"></path>
</svg>
