<svg aria-hidden="true" style="position: absolute; width: 0; height: 0; overflow: hidden;" version="1.1" xmlns="http://www.w3.org/2000/svg" xmlns:xlink="http://www.w3.org/1999/xlink">
<defs>
<symbol id="logo-mob" viewBox="0 0 75 32">
<path fill="#e7a973" style="fill: var(--color11, #e7a973)" d="M6.942 12.894c0.586 2.194-0.256 4.325-1.88 4.759s-3.416-0.994-4.002-3.188c-0.586-2.194 0.256-4.325 1.88-4.759s3.416 0.994 4.002 3.188z"></path>
<path fill="#e7a973" style="fill: var(--color11, #e7a973)" d="M26.999 15.282c-1.139 1.965-3.261 2.863-4.738 2.006s-1.751-3.144-0.612-5.109c1.139-1.965 3.261-2.863 4.738-2.006s1.751 3.144 0.612 5.109z"></path>
<path fill="#e7a973" style="fill: var(--color11, #e7a973)" d="M13.215 6.985c0.463 2.44-0.654 4.701-2.494 5.050s-3.707-1.346-4.17-3.786c-0.463-2.44 0.654-4.701 2.494-5.050s3.707 1.346 4.17 3.786z"></path>
<path fill="#e7a973" style="fill: var(--color11, #e7a973)" d="M22.053 8.416c-0.599 2.477-2.601 4.118-4.473 3.666s-2.904-2.827-2.305-5.303c0.598-2.477 2.601-4.118 4.473-3.666s2.904 2.827 2.305 5.303z"></path>
<path fill="#e7a973" style="fill: var(--color11, #e7a973)" d="M11.221 15.35c1.536-2.474 5.137-2.474 6.673 0l2.969 4.782c1.624 2.616-0.257 5.999-3.337 5.999h-5.937c-3.079 0-4.961-3.383-3.337-5.999l2.969-4.782z"></path>
<path fill="#53c5bd" style="fill: var(--color9, #53c5bd)" d="M36.056 24.727v-19.243h8.33c1.723 0 3.207 0.284 4.453 0.852 1.246 0.55 2.208 1.347 2.886 2.392s1.017 2.291 1.017 3.739c0 1.43-0.339 2.667-1.017 3.711s-1.64 1.851-2.886 2.419c-1.246 0.55-2.731 0.825-4.453 0.825h-5.855l1.979-2.007v7.313h-4.454zM40.51 17.91l-1.979-2.117h5.608c1.375 0 2.401-0.293 3.079-0.88s1.017-1.402 1.017-2.447c0-1.063-0.339-1.888-1.017-2.474s-1.704-0.88-3.079-0.88h-5.608l1.979-2.117v10.914z"></path>
<path fill="#e7a973" style="fill: var(--color11, #e7a973)" d="M56.191 24.727v-19.243h8.33c1.723 0 3.207 0.284 4.454 0.852 1.246 0.55 2.208 1.347 2.886 2.392s1.017 2.291 1.017 3.739c0 1.43-0.339 2.667-1.017 3.711s-1.64 1.851-2.886 2.419c-1.246 0.55-2.731 0.825-4.454 0.825h-5.855l1.979-2.007v7.313h-4.454zM60.645 17.91l-1.979-2.117h5.608c1.374 0 2.401-0.293 3.079-0.88s1.017-1.402 1.017-2.447c0-1.063-0.339-1.888-1.017-2.474s-1.704-0.88-3.079-0.88h-5.608l1.979-2.117v10.914z"></path>
</symbol>
<symbol id="plus" viewBox="0 0 32 32">
<path d="M17.333 14.667v-5.333c0-0.354-0.141-0.693-0.391-0.943s-0.589-0.391-0.943-0.391c-0.354 0-0.693 0.14-0.943 0.391s-0.391 0.589-0.391 0.943v5.333h-5.333c-0.354 0-0.693 0.141-0.943 0.391s-0.391 0.589-0.391 0.943c0 0.354 0.14 0.693 0.391 0.943s0.589 0.391 0.943 0.391h5.333v5.333c0 0.354 0.141 0.693 0.391 0.943s0.589 0.391 0.943 0.391c0.354 0 0.693-0.141 0.943-0.391s0.391-0.589 0.391-0.943v-5.333h5.333c0.354 0 0.693-0.141 0.943-0.391s0.391-0.589 0.391-0.943c0-0.354-0.141-0.693-0.391-0.943s-0.589-0.391-0.943-0.391h-5.333z"></path>
</symbol>
<symbol id="minus" viewBox="0 0 32 32">
<path d="M24 14.667h-16c-0.736 0-1.333 0.597-1.333 1.333s0.597 1.333 1.333 1.333h16c0.736 0 1.333-0.597 1.333-1.333s-0.597-1.333-1.333-1.333z"></path>
</symbol>
<symbol id="more" viewBox="0 0 32 32">
<path fill="#6c6c6c" style="fill: var(--color1, #6c6c6c)" d="M16 28c1.473 0 2.667-1.194 2.667-2.667s-1.194-2.667-2.667-2.667c-1.473 0-2.667 1.194-2.667 2.667s1.194 2.667 2.667 2.667z"></path>
<path fill="#6c6c6c" style="fill: var(--color1, #6c6c6c)" d="M16 18.667c1.473 0 2.667-1.194 2.667-2.667s-1.194-2.667-2.667-2.667c-1.473 0-2.667 1.194-2.667 2.667s1.194 2.667 2.667 2.667z"></path>
<path fill="#6c6c6c" style="fill: var(--color1, #6c6c6c)" d="M16 9.333c1.473 0 2.667-1.194 2.667-2.667s-1.194-2.667-2.667-2.667c-1.473 0-2.667 1.194-2.667 2.667s1.194 2.667 2.667 2.667z"></path>
</symbol>
<symbol id="payment" viewBox="0 0 32 32">
<path fill="#e7a973" style="fill: var(--color1, #e7a973)" d="M21 20c-0.265 0-0.52 0.105-0.707 0.293s-0.293 0.442-0.293 0.707 0.105 0.52 0.293 0.707c0.187 0.188 0.442 0.293 0.707 0.293h4c0.265 0 0.52-0.105 0.707-0.293s0.293-0.442 0.293-0.707-0.105-0.52-0.293-0.707c-0.187-0.188-0.442-0.293-0.707-0.293h-4zM2 11c0-1.326 0.527-2.598 1.464-3.536s2.209-1.464 3.536-1.464h18c1.326 0 2.598 0.527 3.535 1.464s1.465 2.209 1.465 3.536v10c0 1.326-0.527 2.598-1.465 3.536s-2.209 1.464-3.535 1.464h-18c-1.326 0-2.598-0.527-3.536-1.464s-1.464-2.209-1.464-3.536v-10zM28 12v-1c0-0.796-0.316-1.559-0.879-2.121s-1.326-0.879-2.121-0.879h-18c-0.796 0-1.559 0.316-2.121 0.879s-0.879 1.326-0.879 2.121v1h24zM4 14v7c0 0.796 0.316 1.559 0.879 2.121s1.326 0.879 2.121 0.879h18c0.796 0 1.559-0.316 2.121-0.879s0.879-1.326 0.879-2.121v-7h-24z"></path>
</symbol>
<symbol id="delivery" viewBox="0 0 32 32">
<path fill="#e7a973" style="fill: var(--color1, #e7a973)" d="M4 16h12v2h-12v-2zM2 11h10v2h-10v-2z"></path>
<path fill="#e7a973" style="fill: var(--color1, #e7a973)" d="M29.918 16.606l-3-7c-0.077-0.18-0.205-0.333-0.369-0.441s-0.355-0.165-0.551-0.165h-3v-2c0-0.265-0.105-0.52-0.293-0.707s-0.442-0.293-0.707-0.293h-16v2h15v12.556c-0.456 0.265-0.854 0.617-1.173 1.036s-0.552 0.898-0.685 1.408h-6.284c-0.243-0.943-0.822-1.764-1.628-2.311s-1.783-0.78-2.749-0.657-1.854 0.593-2.497 1.324c-0.644 0.731-0.999 1.671-0.999 2.644s0.355 1.914 0.999 2.644c0.644 0.731 1.532 1.201 2.497 1.324s1.943-0.111 2.749-0.657c0.806-0.547 1.385-1.368 1.628-2.311h6.284c0.218 0.858 0.715 1.619 1.414 2.163s1.559 0.839 2.444 0.839c0.885 0 1.745-0.295 2.444-0.839s1.196-1.305 1.414-2.163h2.142c0.265 0 0.52-0.105 0.707-0.293s0.293-0.442 0.293-0.707v-7c0-0.135-0.027-0.269-0.081-0.394zM8.999 26c-0.396 0-0.782-0.117-1.111-0.337s-0.585-0.532-0.737-0.898c-0.151-0.365-0.191-0.768-0.114-1.155s0.268-0.744 0.547-1.024c0.28-0.28 0.636-0.47 1.024-0.547s0.79-0.038 1.156 0.114c0.365 0.151 0.678 0.408 0.898 0.737s0.337 0.716 0.337 1.111c-0.001 0.53-0.211 1.039-0.586 1.414s-0.883 0.586-1.414 0.586zM22.999 11h2.34l2.144 5h-4.484v-5zM22.999 26c-0.396 0-0.782-0.117-1.111-0.337s-0.585-0.532-0.737-0.898-0.191-0.768-0.114-1.155c0.077-0.388 0.268-0.744 0.547-1.024s0.636-0.47 1.024-0.547 0.79-0.038 1.155 0.114c0.365 0.151 0.678 0.408 0.898 0.737s0.337 0.716 0.337 1.111c-0.001 0.53-0.211 1.039-0.586 1.414s-0.883 0.586-1.414 0.586zM27.999 23h-1.142c-0.22-0.857-0.719-1.616-1.417-2.159s-1.557-0.839-2.441-0.841v-2h5v5z"></path>
</symbol>
<symbol id="green-check" viewBox="0 0 32 32">
<path fill="#70db5e" style="fill: var(--color2, #70db5e)" d="M12 21.56l-5.56-5.56-1.893 1.88 7.453 7.453 16-16-1.88-1.88-14.12 14.107z"></path>
</symbol>
<symbol id="sort" viewBox="0 0 32 32">
<path d="M11.205 16.872v-9.708l-3.78 3.78-1.426-1.405 6.205-6.205 6.205 6.205-1.426 1.405-3.78-3.78v9.708h-2zM19.782 28.667l-6.205-6.205 1.426-1.405 3.779 3.779v-9.708h2v9.708l3.779-3.779 1.426 1.405-6.205 6.205z"></path>
</symbol>
<symbol id="ua" viewBox="0 0 32 32">
<path fill="#ffe62e" style="fill: var(--color51, #ffe62e)" d="M16 31c8.3 0 15-6.7 15-15h-30c0 8.3 6.7 15 15 15z"></path>
<path fill="#428bc1" style="fill: var(--color52, #428bc1)" d="M16 1c-8.3 0-15 6.7-15 15h30c0-8.3-6.7-15-15-15z"></path>
</symbol>
<symbol id="logout" viewBox="0 0 40 32">
<path fill="#53c5bd" style="fill: var(--color51, #53c5bd)" d="M13.028 32h-8c-1.061 0-2.078-0.421-2.828-1.172s-1.172-1.768-1.172-2.828v-24c0-1.061 0.421-2.078 1.172-2.828s1.768-1.172 2.828-1.172h8v4h-8v24h8v4z"></path>
<path fill="#53c5bd" style="fill: var(--color51, #53c5bd)" d="M23.684 26.769l2.84-2.816-7.84-7.906h18.288c0.53 0 1.039-0.211 1.414-0.586s0.586-0.884 0.586-1.414c0-0.53-0.211-1.039-0.586-1.414s-0.884-0.586-1.414-0.586h-18.324l7.96-7.894-2.816-2.84-12.782 12.674 12.674 12.782z"></path>
</symbol>
<symbol id="orders" viewBox="0 0 32 32">
<path fill-rule="evenodd" clip-rule="evenodd" d="M16 1.667c-0.807 0-1.549 0.2-2.361 0.536-0.785 0.325-1.697 0.804-2.832 1.4l-2.757 1.447c-1.393 0.731-2.507 1.316-3.369 1.891-0.891 0.596-1.579 1.223-2.079 2.072-0.499 0.847-0.723 1.764-0.831 2.856-0.104 1.060-0.104 2.363-0.104 4.003v0.259c0 1.64 0 2.943 0.104 4.003 0.108 1.093 0.333 2.009 0.831 2.856 0.5 0.849 1.187 1.476 2.080 2.072 0.86 0.575 1.975 1.16 3.368 1.891l2.757 1.447c1.135 0.596 2.047 1.075 2.832 1.4 0.813 0.336 1.555 0.536 2.361 0.536s1.549-0.2 2.361-0.536c0.785-0.325 1.697-0.804 2.832-1.4l2.757-1.445c1.393-0.732 2.507-1.317 3.368-1.892 0.893-0.596 1.58-1.223 2.080-2.072 0.499-0.847 0.723-1.764 0.831-2.856 0.104-1.060 0.104-2.363 0.104-4.003v-0.259c0-1.64 0-2.943-0.104-4.003-0.108-1.093-0.333-2.009-0.831-2.856-0.5-0.849-1.187-1.476-2.080-2.072-0.86-0.575-1.975-1.16-3.368-1.891l-2.757-1.447c-1.135-0.596-2.047-1.075-2.832-1.4-0.813-0.336-1.555-0.536-2.361-0.536zM11.693 5.395c1.187-0.623 2.019-1.057 2.709-1.343 0.672-0.279 1.145-0.385 1.597-0.385 0.453 0 0.925 0.107 1.597 0.385 0.691 0.285 1.521 0.72 2.708 1.343l2.667 1.4c1.453 0.761 2.473 1.299 3.237 1.808 0.376 0.252 0.671 0.485 0.911 0.72l-4.441 2.22-11.333-5.965 0.348-0.183zM9.26 6.672l-0.232 0.123c-1.453 0.761-2.473 1.299-3.236 1.808-0.325 0.211-0.63 0.452-0.911 0.72l11.119 5.56 4.476-2.24-10.941-5.757c-0.103-0.054-0.196-0.127-0.275-0.213zM3.917 11.076c-0.067 0.285-0.119 0.609-0.156 0.987-0.093 0.952-0.095 2.156-0.095 3.859v0.156c0 1.704 0 2.908 0.095 3.859 0.092 0.929 0.267 1.531 0.564 2.037 0.296 0.503 0.724 0.928 1.467 1.424 0.763 0.509 1.783 1.047 3.236 1.808l2.667 1.4c1.187 0.623 2.017 1.057 2.708 1.343 0.219 0.091 0.415 0.163 0.597 0.22v-11.551l-11.083-5.541zM17 28.167c0.183-0.056 0.379-0.128 0.597-0.219 0.691-0.285 1.521-0.72 2.708-1.343l2.667-1.4c1.453-0.763 2.473-1.299 3.237-1.808 0.741-0.496 1.169-0.921 1.467-1.424 0.297-0.507 0.471-1.107 0.563-2.037 0.093-0.951 0.095-2.155 0.095-3.857v-0.156c0-1.704 0-2.908-0.095-3.859-0.030-0.332-0.082-0.662-0.156-0.987l-4.416 2.207v4.049c0 0.265-0.105 0.52-0.293 0.707s-0.442 0.293-0.707 0.293-0.52-0.105-0.707-0.293c-0.188-0.187-0.293-0.442-0.293-0.707v-3.049l-4.667 2.333v11.549z"></path>
</symbol>
<symbol id="edit" viewBox="0 0 32 32">
<path d="M6.626 25.37h1.838l11.326-11.343-1.839-1.841-11.326 11.343v1.841zM25.405 12.121l-5.581-5.523 1.839-1.841c0.503-0.504 1.122-0.756 1.855-0.756s1.352 0.252 1.854 0.756l1.838 1.841c0.503 0.504 0.766 1.113 0.788 1.825s-0.219 1.321-0.722 1.824l-1.871 1.874zM23.501 14.060l-13.92 13.94h-5.581v-5.589l13.92-13.94 5.581 5.589zM18.872 13.107v0z"></path>
</symbol>
<symbol id="account" viewBox="0 0 32 32">
<path d="M13.333 5.333c-1.415 0-2.771 0.562-3.771 1.562s-1.562 2.357-1.562 3.771c0 1.415 0.562 2.771 1.562 3.771s2.357 1.562 3.771 1.562c1.415 0 2.771-0.562 3.771-1.562s1.562-2.357 1.562-3.771-0.562-2.771-1.562-3.771c-1-1-2.357-1.562-3.771-1.562zM13.333 8c0.707 0 1.385 0.281 1.886 0.781s0.781 1.178 0.781 1.886c0 0.707-0.281 1.386-0.781 1.886s-1.178 0.781-1.886 0.781c-0.707 0-1.386-0.281-1.886-0.781s-0.781-1.178-0.781-1.886c0-0.707 0.281-1.386 0.781-1.886s1.178-0.781 1.886-0.781zM22.667 16c-0.213 0-0.32 0.107-0.32 0.32l-0.347 1.68c-0.293 0.24-0.72 0.453-1.040 0.667l-1.707-0.667c-0.107 0-0.32 0-0.427 0.133l-1.28 2.347c-0.107 0.107-0.107 0.32 0.107 0.427l1.387 1.093v1.333l-1.387 1.093c-0.107 0.107-0.213 0.32-0.107 0.427l1.28 2.347c0.107 0.133 0.32 0.133 0.427 0.133l1.707-0.667c0.32 0.213 0.747 0.427 1.040 0.667l0.347 1.68c0 0.213 0.107 0.32 0.32 0.32h2.667c0.107 0 0.32-0.107 0.32-0.32l0.213-1.68c0.427-0.24 0.853-0.453 1.173-0.667l1.627 0.667c0.187 0 0.4 0 0.4-0.133l1.387-2.347c0.107-0.107 0-0.32-0.107-0.427l-1.387-1.093v-1.333l1.387-1.093c0.107-0.107 0.213-0.32 0.107-0.427l-1.387-2.347c0-0.133-0.213-0.133-0.4-0.133l-1.627 0.667c-0.32-0.213-0.747-0.427-1.173-0.667l-0.213-1.68c0-0.213-0.213-0.32-0.32-0.32h-2.667zM13.333 17.333c-3.56 0-10.667 1.773-10.667 5.333v4h12.893c-0.373-0.787-0.64-1.64-0.773-2.533h-9.587v-1.467c0-0.853 4.173-2.8 8.133-2.8 0.573 0 1.16 0.053 1.733 0.133 0.267-0.853 0.627-1.653 1.093-2.387-1.040-0.173-2.027-0.28-2.827-0.28zM24.053 20.667c1.067 0 1.947 0.88 1.947 2.053 0 1.067-0.88 1.947-1.947 1.947-1.173 0-2.053-0.88-2.053-1.947 0-1.173 0.88-2.053 2.053-2.053z"></path>
</symbol>
<symbol id="search" viewBox="0 0 30 32">
<path d="M22.896 21.863l5.439 5.437-1.797 1.797-5.438-5.439c-2.023 1.622-4.54 2.504-7.133 2.5-6.309 0-11.429-5.12-11.429-11.429s5.12-11.429 11.429-11.429 11.429 5.12 11.429 11.429c0.004 2.593-0.878 5.11-2.5 7.133zM20.349 20.921c1.612-1.657 2.512-3.879 2.508-6.191 0-4.912-3.978-8.889-8.889-8.889-4.912 0-8.889 3.977-8.889 8.889 0 4.911 3.977 8.889 8.889 8.889 2.312 0.004 4.533-0.896 6.19-2.508l0.19-0.19z"></path>
</symbol>
<symbol id="close" viewBox="0 0 32 32">
<path d="M8.533 25.333l-1.867-1.867 7.467-7.467-7.467-7.467 1.867-1.867 7.467 7.467 7.467-7.467 1.867 1.867-7.467 7.467 7.467 7.467-1.867 1.867-7.467-7.467-7.467 7.467z"></path>
</symbol>
<symbol id="profile" viewBox="0 0 32 32">
<path d="M16 8c-0.989 0-1.956 0.293-2.778 0.843s-1.463 1.33-1.842 2.244c-0.378 0.914-0.477 1.919-0.285 2.889s0.669 1.861 1.368 2.56c0.699 0.699 1.59 1.175 2.56 1.368s1.975 0.094 2.889-0.285c0.914-0.378 1.695-1.019 2.244-1.841s0.843-1.789 0.843-2.778c0-1.326-0.527-2.598-1.464-3.536s-2.209-1.464-3.536-1.464zM16 16c-0.593 0-1.173-0.176-1.667-0.506s-0.878-0.798-1.105-1.346c-0.227-0.548-0.286-1.151-0.171-1.733s0.401-1.117 0.821-1.536c0.42-0.42 0.954-0.705 1.536-0.821s1.185-0.056 1.733 0.171c0.548 0.227 1.017 0.612 1.346 1.105s0.506 1.073 0.506 1.667c-0.001 0.795-0.317 1.558-0.88 2.12s-1.325 0.879-2.12 0.88z"></path>
<path d="M16 2c-2.769 0-5.476 0.821-7.778 2.359s-4.097 3.725-5.156 6.283c-1.060 2.558-1.337 5.373-0.797 8.089s1.874 5.21 3.832 7.168c1.958 1.958 4.452 3.291 7.168 3.831s5.531 0.263 8.089-0.797c2.558-1.060 4.745-2.854 6.283-5.156s2.359-5.009 2.359-7.778c-0.004-3.712-1.481-7.27-4.105-9.895s-6.183-4.101-9.895-4.105zM10 26.377v-1.377c0.001-0.795 0.317-1.558 0.88-2.12s1.325-0.879 2.12-0.88h6c0.795 0.001 1.558 0.317 2.12 0.88s0.879 1.325 0.88 2.12v1.377c-1.821 1.063-3.891 1.623-6 1.623s-4.179-0.56-6-1.623zM23.992 24.926c-0.020-1.312-0.554-2.563-1.488-3.484s-2.192-1.439-3.504-1.442h-6c-1.312 0.003-2.57 0.52-3.504 1.442s-1.468 2.173-1.488 3.484c-1.813-1.619-3.092-3.751-3.667-6.113s-0.419-4.843 0.448-7.115c0.867-2.271 2.403-4.226 4.405-5.605s4.376-2.118 6.807-2.118c2.431 0 4.805 0.738 6.807 2.118s3.538 3.334 4.405 5.605c0.867 2.271 1.023 4.753 0.448 7.115s-1.855 4.494-3.668 6.113z"></path>
</symbol>
<symbol id="subcribe" viewBox="0 0 32 32">
<path d="M26.4 26.933h-20.933c-0.933 0-1.867-0.4-2.533-1.067s-1.067-1.6-1.067-2.533v-14.8c0-0.933 0.4-1.867 1.067-2.533s1.6-1.067 2.533-1.067h14.533c0.533 0 1.067 0.4 1.067 1.067s-0.533 0.933-1.067 0.933h-14.533c-0.4 0-0.8 0.133-1.067 0.4s-0.4 0.8-0.4 1.2v14.933c0 0.4 0.133 0.8 0.4 1.067s0.667 0.4 1.067 0.4h20.933c0.4 0 0.8-0.133 1.067-0.4s0.4-0.667 0.4-1.067v-8.533c0-0.533 0.4-1.067 1.067-1.067s1.067 0.4 1.067 1.067v8.533c0 0.933-0.4 1.867-1.067 2.533s-1.6 0.933-2.533 0.933z"></path>
<path d="M16 18c-0.267 0-0.4-0.133-0.667-0.267l-8.933-6.933c-0.4-0.4-0.533-0.933-0.133-1.467 0.4-0.4 0.933-0.533 1.467-0.133l8.4 6.533 4.8-3.6c0.4-0.267 1.067-0.267 1.467 0.133s0.267 1.067-0.133 1.467l-5.467 4.133c-0.4 0-0.533 0.133-0.8 0.133z"></path>
<path d="M26.933 10.933c1.6 0 2.933-1.333 2.933-2.933s-1.333-2.933-2.933-2.933c-1.6 0-2.933 1.333-2.933 2.933s1.333 2.933 2.933 2.933z"></path>
<path d="M27.067 12c-0.8 0-1.6-0.267-2.267-0.667s-1.2-1.067-1.467-1.733-0.4-1.6-0.267-2.4c0.133-0.8 0.533-1.467 1.067-2s1.333-0.933 2-1.067c0.8-0.133 1.6-0.133 2.267 0.267 0.667 0.267 1.333 0.8 1.733 1.467s0.667 1.467 0.667 2.267c0 1.067-0.4 2.133-1.2 2.8-0.533 0.667-1.6 1.067-2.533 1.067zM27.067 6c-0.4 0-0.8 0.133-1.067 0.4s-0.533 0.533-0.8 0.933c-0.133 0.4-0.133 0.8-0.133 1.2 0.133 0.4 0.267 0.8 0.533 1.067s0.667 0.533 1.067 0.533c0.4 0.133 0.8 0 1.2-0.133s0.667-0.4 0.933-0.8c0.267-0.267 0.4-0.667 0.4-1.067 0-0.533-0.267-1.067-0.533-1.467-0.667-0.4-1.2-0.667-1.6-0.667z"></path>
</symbol>
<symbol id="mastercard" viewBox="0 0 41 32">
<path fill="#000" style="fill: var(--color1, #000)" d="M7.305 31.006v-2.062c0-0.791-0.481-1.306-1.306-1.306-0.412 0-0.859 0.137-1.169 0.584-0.241-0.378-0.584-0.584-1.1-0.584-0.344 0-0.687 0.103-0.963 0.481v-0.412h-0.722v3.3h0.722v-1.822c0-0.584 0.309-0.859 0.791-0.859s0.722 0.309 0.722 0.859v1.822h0.722v-1.822c0-0.584 0.344-0.859 0.79-0.859 0.481 0 0.722 0.309 0.722 0.859v1.822h0.791zM17.995 27.706h-1.169v-0.997h-0.722v0.997h-0.653v0.653h0.653v1.513c0 0.756 0.309 1.203 1.134 1.203 0.309 0 0.653-0.103 0.894-0.24l-0.206-0.619c-0.206 0.137-0.447 0.172-0.619 0.172-0.344 0-0.481-0.206-0.481-0.55v-1.478h1.169v-0.653zM24.114 27.637c-0.412 0-0.687 0.206-0.859 0.481v-0.412h-0.722v3.3h0.722v-1.856c0-0.55 0.241-0.859 0.687-0.859 0.137 0 0.309 0.034 0.447 0.069l0.206-0.687c-0.137-0.034-0.344-0.034-0.481-0.034v-0zM14.867 27.981c-0.344-0.241-0.825-0.344-1.341-0.344-0.825 0-1.375 0.412-1.375 1.066 0 0.55 0.412 0.859 1.134 0.963l0.344 0.034c0.378 0.069 0.584 0.172 0.584 0.344 0 0.24-0.275 0.412-0.756 0.412s-0.859-0.172-1.1-0.344l-0.344 0.55c0.378 0.275 0.894 0.412 1.409 0.412 0.963 0 1.513-0.447 1.513-1.066 0-0.584-0.447-0.894-1.134-0.997l-0.344-0.034c-0.309-0.035-0.55-0.103-0.55-0.309 0-0.241 0.24-0.378 0.619-0.378 0.413 0 0.825 0.172 1.031 0.275l0.309-0.584zM34.048 27.637c-0.413 0-0.688 0.206-0.86 0.481v-0.412h-0.722v3.3h0.722v-1.856c0-0.55 0.241-0.859 0.687-0.859 0.138 0 0.31 0.034 0.447 0.069l0.206-0.687c-0.138-0.034-0.344-0.034-0.481-0.034zM24.836 29.356c0 0.997 0.687 1.719 1.753 1.719 0.481 0 0.825-0.103 1.169-0.378l-0.344-0.584c-0.275 0.206-0.55 0.309-0.859 0.309-0.584 0-0.997-0.412-0.997-1.066 0-0.619 0.412-1.031 0.997-1.066 0.31 0 0.584 0.103 0.859 0.309l0.344-0.584c-0.344-0.275-0.687-0.378-1.169-0.378-1.066 0-1.753 0.722-1.753 1.719zM31.504 29.356v-1.65h-0.722v0.412c-0.241-0.309-0.584-0.481-1.031-0.481-0.928 0-1.65 0.722-1.65 1.719s0.722 1.719 1.65 1.719c0.481 0 0.825-0.172 1.031-0.481v0.412h0.722v-1.65zM28.857 29.356c0-0.584 0.378-1.066 0.997-1.066 0.584 0 0.997 0.447 0.997 1.066 0 0.584-0.413 1.066-0.997 1.066-0.619-0.034-0.997-0.481-0.997-1.066zM20.23 27.637c-0.963 0-1.65 0.687-1.65 1.719s0.687 1.719 1.684 1.719c0.481 0 0.963-0.137 1.341-0.447l-0.344-0.516c-0.275 0.206-0.619 0.344-0.962 0.344-0.447 0-0.894-0.206-0.997-0.791h2.441v-0.275c0.035-1.066-0.584-1.753-1.512-1.753zM20.23 28.256c0.447 0 0.756 0.275 0.825 0.791h-1.719c0.069-0.447 0.378-0.791 0.894-0.791zM38.139 29.356v-2.956h-0.722v1.719c-0.241-0.309-0.584-0.481-1.031-0.481-0.928 0-1.65 0.722-1.65 1.719s0.722 1.719 1.65 1.719c0.481 0 0.825-0.172 1.031-0.481v0.412h0.722v-1.65zM35.492 29.356c0-0.584 0.378-1.066 0.997-1.066 0.584 0 0.997 0.447 0.997 1.066 0 0.584-0.412 1.066-0.997 1.066-0.619-0.034-0.997-0.481-0.997-1.066zM11.361 29.356v-1.65h-0.722v0.412c-0.241-0.309-0.584-0.481-1.031-0.481-0.928 0-1.65 0.722-1.65 1.719s0.722 1.719 1.65 1.719c0.481 0 0.825-0.172 1.031-0.481v0.412h0.722v-1.65zM8.68 29.356c0-0.584 0.378-1.066 0.997-1.066 0.584 0 0.997 0.447 0.997 1.066 0 0.584-0.413 1.066-0.997 1.066-0.619-0.034-0.997-0.481-0.997-1.066z"></path>
<path fill="#ff5f00" style="fill: var(--color2, #ff5f00)" d="M14.627 2.647h10.828v19.456h-10.828v-19.456z"></path>
<path fill="#eb001b" style="fill: var(--color3, #eb001b)" d="M15.315 12.375c0-3.953 1.856-7.459 4.709-9.728-2.097-1.65-4.744-2.647-7.631-2.647-6.841 0-12.375 5.534-12.375 12.375s5.534 12.375 12.375 12.375c2.888 0 5.534-0.997 7.631-2.647-2.853-2.234-4.709-5.775-4.709-9.728z"></path>
<path fill="#f79e1b" style="fill: var(--color4, #f79e1b)" d="M40.064 12.375c0 6.84-5.534 12.375-12.375 12.375-2.887 0-5.534-0.997-7.631-2.647 2.887-2.269 4.709-5.775 4.709-9.728s-1.856-7.459-4.709-9.728c2.097-1.65 4.744-2.647 7.631-2.647 6.841 0 12.375 5.569 12.375 12.375z"></path>
</symbol>
<symbol id="error" viewBox="0 0 32 32">
<path fill="#f64b15" style="fill: var(--color2, #f64b15)" d="M16 22.667c0.378 0 0.695-0.128 0.951-0.384s0.384-0.572 0.383-0.949c0-0.378-0.128-0.695-0.384-0.951s-0.572-0.384-0.949-0.383c-0.378 0-0.695 0.128-0.951 0.384s-0.384 0.572-0.383 0.949c0 0.378 0.128 0.695 0.384 0.951s0.572 0.384 0.949 0.383zM14.667 17.333h2.667v-8h-2.667v8zM16 29.333c-1.844 0-3.578-0.35-5.2-1.051s-3.033-1.65-4.233-2.849c-1.2-1.2-2.15-2.611-2.849-4.233s-1.050-3.356-1.051-5.2c0-1.844 0.35-3.578 1.051-5.2s1.65-3.033 2.849-4.233c1.2-1.2 2.611-2.15 4.233-2.849s3.356-1.050 5.2-1.051c1.844 0 3.578 0.35 5.2 1.051s3.033 1.65 4.233 2.849c1.2 1.2 2.15 2.611 2.851 4.233s1.050 3.356 1.049 5.2c0 1.844-0.35 3.578-1.051 5.2s-1.65 3.033-2.849 4.233c-1.2 1.2-2.611 2.15-4.233 2.851s-3.356 1.050-5.2 1.049zM16 26.667c2.978 0 5.5-1.033 7.567-3.1s3.1-4.589 3.1-7.567c0-2.978-1.033-5.5-3.1-7.567s-4.589-3.1-7.567-3.1c-2.978 0-5.5 1.033-7.567 3.1s-3.1 4.589-3.1 7.567c0 2.978 1.033 5.5 3.1 7.567s4.589 3.1 7.567 3.1z"></path>
</symbol>
<symbol id="notification" viewBox="0 0 32 32">
<path fill="#6c6c6c" style="fill: var(--color1, #6c6c6c)" d="M16 13c0.265 0 0.52 0.105 0.707 0.293s0.293 0.442 0.293 0.707v9c0 0.265-0.105 0.52-0.293 0.707s-0.442 0.293-0.707 0.293-0.52-0.105-0.707-0.293c-0.188-0.187-0.293-0.442-0.293-0.707v-9c0-0.265 0.105-0.52 0.293-0.707s0.442-0.293 0.707-0.293zM16 11c0.398 0 0.779-0.158 1.061-0.439s0.439-0.663 0.439-1.061c0-0.398-0.158-0.779-0.439-1.061s-0.663-0.439-1.061-0.439c-0.398 0-0.779 0.158-1.061 0.439s-0.439 0.663-0.439 1.061c0 0.398 0.158 0.779 0.439 1.061s0.663 0.439 1.061 0.439zM2 16c0-7.732 6.268-14 14-14s14 6.268 14 14c0 7.732-6.268 14-14 14s-14-6.268-14-14zM16 4c-6.627 0-12 5.373-12 12s5.373 12 12 12c6.627 0 12-5.373 12-12s-5.373-12-12-12z"></path>
</symbol>
<symbol id="visa" viewBox="0 0 96 32">
<path fill="#1434cb" style="fill: var(--color4, #1434cb)" d="M61.745 1.209c-6.685 0-12.66 3.465-12.66 9.868 0 7.342 10.596 7.849 10.596 11.538 0 1.553-1.78 2.943-4.82 2.943-4.314 0-7.539-1.943-7.539-1.943l-1.38 6.461c0 0 3.715 1.641 8.646 1.641 7.309 0 13.061-3.635 13.061-10.147 0-7.758-10.64-8.25-10.64-11.674 0-1.217 1.461-2.55 4.492-2.55 3.42 0 6.21 1.413 6.21 1.413l1.35-6.24c0 0-3.036-1.31-7.318-1.31zM0.578 1.68l-0.162 0.942c0 0 2.813 0.515 5.346 1.542 3.262 1.177 3.494 1.863 4.043 3.992l5.986 23.076h8.024l12.362-29.551h-8.006l-7.943 20.092-3.241-17.031c-0.297-1.949-1.803-3.061-3.646-3.061h-12.763zM39.397 1.68l-6.28 29.551h7.634l6.258-29.551h-7.612zM81.976 1.68c-1.841 0-2.816 0.986-3.532 2.708l-11.185 26.843h8.006l1.549-4.474h9.754l0.942 4.474h7.064l-6.163-29.551h-6.435zM83.018 9.664l2.373 11.089h-6.358l3.984-11.089z"></path>
</symbol>
<symbol id="privat" viewBox="0 0 32 32">
<path fill="#000" style="fill: var(--color1, #000)" d="M16.42 0.099c8.549 0 15.481 6.932 15.481 15.481s-6.932 15.481-15.481 15.481-15.481-6.932-15.481-15.481c0-8.549 6.932-15.481 15.481-15.481z"></path>
<path fill="#8dc641" style="fill: var(--color2, #8dc641)" d="M16.42 0c-8.598 0-15.58 6.972-15.58 15.58s6.972 15.58 15.58 15.58c8.608 0 15.58-6.972 15.58-15.58s-6.972-15.58-15.58-15.58zM16.42 29.445c-7.656 0-13.865-6.208-13.865-13.865s6.208-13.865 13.865-13.865c7.656 0 13.865 6.208 13.865 13.865s-6.208 13.865-13.865 13.865z"></path>
<path fill="#fff" style="fill: var(--color3, #fff)" d="M21.864 12.040l-3.471 5.147h3.471v-5.147zM23.173 9.957v7.24h1.527v1.309h-1.527v2.708h-1.319v-2.708h-4.909v-1.408l4.949-7.131 1.279-0.010zM15.497 19.894v1.309h-7.359v-0.040c0.069-1.23 0.387-2.132 1.002-2.876 0.496-0.615 1.101-1.071 2.34-1.845 0 0 0.436-0.278 0.565-0.357 0.665-0.426 1.091-0.764 1.438-1.15 0.426-0.496 0.645-1.031 0.645-1.666 0-1.23-0.873-2.073-2.122-2.073-1.458 0-2.202 1.111-2.241 2.767v0.030h-1.309v-0.030l-0.010-0.298c0-2.221 1.448-3.709 3.63-3.709 2.132 0 3.521 1.289 3.521 3.283 0 1.021-0.367 1.845-1.071 2.569-0.526 0.555-1.071 0.922-2.291 1.666-0.020 0.010-0.030 0.020-0.050 0.030-0.060 0.030-0.327 0.188-0.397 0.238-0.585 0.347-0.942 0.595-1.26 0.893-0.387 0.367-0.645 0.774-0.764 1.25h5.732v0.010z"></path>
</symbol>
<symbol id="google-pay" viewBox="0 0 79 32">
<path fill="#5f6368" style="fill: var(--color1, #5f6368)" d="M55.926 8.674c2.15 0 3.811 0.586 5.082 1.759s1.857 2.736 1.857 4.691v9.382h-2.736v-2.15h-0.098c-1.173 1.759-2.834 2.639-4.789 2.639-1.661 0-3.127-0.489-4.3-1.466-1.075-0.977-1.759-2.346-1.759-3.811 0-1.564 0.586-2.834 1.759-3.812s2.834-1.368 4.789-1.368c1.759 0 3.127 0.293 4.202 0.977v-0.684c0-0.912-0.341-1.824-1.022-2.419l-0.151-0.122c-0.782-0.684-1.759-1.075-2.834-1.075-1.661 0-2.932 0.684-3.812 2.052l-2.541-1.564c1.563-2.052 3.616-3.029 6.352-3.029zM42.146 2.028c1.754 0 3.42 0.61 4.752 1.748l0.232 0.206c1.368 1.173 2.052 2.932 2.052 4.789s-0.684 3.518-2.052 4.789c-1.368 1.271-3.030 1.955-4.984 1.955l-4.691-0.098v9.089h-2.932v-22.478l7.623 0zM56.317 16.883c-1.173 0-2.15 0.293-2.932 0.879-0.782 0.489-1.173 1.173-1.173 2.052 0 0.782 0.391 1.466 0.977 1.857 0.684 0.489 1.466 0.782 2.248 0.782 1.094 0 2.189-0.426 3.045-1.198l0.18-0.171c0.977-0.88 1.466-1.955 1.466-3.127-0.88-0.684-2.15-1.075-3.811-1.075l-0 0zM42.342 4.764h-4.886v7.818h4.886c1.075 0 2.15-0.391 2.834-1.173 1.563-1.466 1.563-3.909 0.098-5.375l-0.098-0.098c-0.782-0.782-1.759-1.27-2.834-1.173l0-0zM78.697 9.162l-9.675 22.184h-2.932l3.616-7.721-6.352-14.366h3.127l4.593 11.043h0.098l4.496-11.043h3.030v-0.098z"></path>
<path fill="#4285f4" style="fill: var(--color2, #4285f4)" d="M25.826 13.462c0-0.88-0.098-1.759-0.196-2.639h-12.216v4.984h6.939c-0.293 1.563-1.173 3.029-2.541 3.909v3.225h4.202c2.443-2.248 3.811-5.571 3.811-9.48l-0-0z"></path>
<path fill="#34a853" style="fill: var(--color3, #34a853)" d="M13.414 26.070c3.518 0 6.45-1.173 8.6-3.127l-4.202-3.225c-1.173 0.782-2.639 1.27-4.398 1.27-3.323 0-6.255-2.248-7.232-5.375h-4.3v3.323c2.248 4.398 6.645 7.134 11.532 7.134z"></path>
<path fill="#fbbc04" style="fill: var(--color4, #fbbc04)" d="M6.182 15.613c-0.586-1.564-0.586-3.323 0-4.984v-3.323h-4.3c-1.857 3.616-1.857 7.916 0 11.63l4.3-3.323z"></path>
<path fill="#ea4335" style="fill: var(--color5, #ea4335)" d="M13.414 5.351c1.857 0 3.616 0.684 4.984 1.955l3.714-3.714c-2.346-2.15-5.473-3.421-8.6-3.323-4.886 0-9.382 2.736-11.532 7.134l4.3 3.323c0.88-3.127 3.811-5.375 7.134-5.375z"></path>
</symbol>
<symbol id="apple-pay" viewBox="0 0 77 32">
<path d="M14.37 4.267c-0.886 1.049-2.304 1.876-3.722 1.758-0.177-1.418 0.517-2.924 1.329-3.855 0.886-1.078 2.437-1.846 3.692-1.905 0.148 1.477-0.428 2.924-1.3 4.003zM15.655 6.305c-2.053-0.118-3.811 1.167-4.785 1.167-0.989 0-2.481-1.108-4.106-1.078-2.112 0.030-4.076 1.226-5.155 3.131-2.216 3.811-0.576 9.453 1.566 12.554 1.049 1.536 2.304 3.22 3.958 3.161 1.566-0.059 2.186-1.019 4.077-1.019 1.905 0 2.452 1.019 4.106 0.989 1.713-0.030 2.791-1.536 3.84-3.072 1.196-1.743 1.684-3.441 1.713-3.53-0.029-0.029-3.308-1.285-3.338-5.066-0.030-3.161 2.585-4.667 2.703-4.756-1.477-2.186-3.781-2.422-4.579-2.481zM27.515 2.022v23.026h3.574v-7.872h4.948c4.52 0 7.695-3.102 7.695-7.592s-3.116-7.562-7.577-7.562l-8.64-0zM31.089 5.035h4.121c3.102 0 4.874 1.654 4.874 4.564s-1.772 4.579-4.889 4.579h-4.106v-9.143zM50.26 25.225c2.245 0 4.327-1.137 5.273-2.939h0.074v2.762h3.309v-11.461c0-3.323-2.659-5.465-6.75-5.465-3.796 0-6.602 2.171-6.706 5.155h3.22c0.266-1.418 1.58-2.348 3.382-2.348 2.186 0 3.412 1.019 3.412 2.895v1.27l-4.461 0.266c-4.15 0.251-6.395 1.95-6.395 4.904 0 2.983 2.319 4.963 5.642 4.963zM51.22 22.492c-1.905 0-3.116-0.916-3.116-2.319 0-1.447 1.167-2.289 3.397-2.422l3.973-0.251v1.3c0 2.156-1.831 3.692-4.254 3.692h-0zM63.332 31.31c3.486 0 5.125-1.329 6.558-5.361l6.277-17.606h-3.633l-4.209 13.603h-0.074l-4.209-13.603h-3.737l6.056 16.764-0.325 1.019c-0.546 1.728-1.433 2.393-3.013 2.393-0.281 0-0.827-0.030-1.049-0.059v2.762c0.207 0.059 1.093 0.089 1.359 0.089z"></path>
</symbol>
<symbol id="subscribe" viewBox="0 0 32 32">
<path d="M4 26.667v-8l10.667-2.667-10.667-2.667v-8l25.333 10.667-25.333 10.667z"></path>
</symbol>
<symbol id="spain" viewBox="0 0 32 32">
<path fill="#ffce31" style="fill: var(--color6, #ffce31)" d="M1.883 17.020c0 2.707 0.78 5.23 2.11 7.34h23.259c1.33-2.11 2.11-4.633 2.11-7.34s-0.78-5.23-2.11-7.34h-23.259c-1.33 2.11-2.11 4.633-2.11 7.34z"></path>
<path fill="#ed4c5c" style="fill: var(--color7, #ed4c5c)" d="M27.299 9.678c-2.431-3.854-6.744-6.423-11.652-6.423s-9.221 2.569-11.652 6.423h23.305zM3.994 24.358c2.431 3.853 6.744 6.422 11.652 6.422s9.221-2.569 11.652-6.422h-23.305z"></path>
<path fill="#c8b100" style="fill: var(--color8, #c8b100)" d="M5.186 15.506h1.468v0.826h-1.468v-0.826zM5.186 21.561h1.514v0.78h-1.514v-0.78z"></path>
<path fill="#ed4c5c" style="fill: var(--color7, #ed4c5c)" d="M5.048 20.275c-0.138 0.092-0.23 0.184-0.23 0.23s0.046 0.092 0.138 0.138c0.092 0.046 0.184 0.138 0.138 0.23 0.092-0.092 0.138-0.184 0.138-0.276 0-0.138-0.092-0.276-0.184-0.322z"></path>
<path fill="#fff" style="fill: var(--color5, #fff)" d="M5.416 16.33h1.055v5.23h-1.055v-5.23z"></path>
<path fill="#ed4c5c" style="fill: var(--color7, #ed4c5c)" d="M7.571 18.258c-0.229-0.092-0.642-0.184-1.101-0.184-0.138 0-0.321 0-0.505 0.046-0.642 0.092-1.147 0.367-1.101 0.551l-0.229-0.505c-0.046-0.229 0.505-0.505 1.193-0.642 0.229-0.046 0.459-0.046 0.642-0.046 0.459 0 0.872 0.046 1.101 0.138v0.642z"></path>
<path fill="#ed4c5c" style="fill: var(--color7, #ed4c5c)" d="M5.415 18.948c-0.276 0-0.505-0.092-0.505-0.23 0-0.092 0.092-0.23 0.276-0.322h0.276l-0.046 0.551zM6.472 18.534c0.184 0.046 0.322 0.092 0.413 0.138 0.046 0.046-0.138 0.23-0.413 0.367v-0.505z"></path>
<path fill="#ed4c5c" style="fill: var(--color7, #ed4c5c)" d="M4.727 19.958c-0.046-0.092 0.276-0.276 0.689-0.413 0.184-0.046 0.322-0.138 0.551-0.23 0.551-0.23 1.011-0.551 0.919-0.643l0.092 0.551c0.046 0.092-0.322 0.368-0.873 0.643-0.184 0.092-0.505 0.23-0.689 0.276-0.322 0.092-0.597 0.276-0.597 0.322l-0.092-0.505z"></path>
<path fill="#c8b100" style="fill: var(--color8, #c8b100)" d="M15.050 15.504h1.468v0.826h-1.468v-0.826zM15.004 21.559h1.514v0.78h-1.514v-0.78z"></path>
<path fill="#ed4c5c" style="fill: var(--color7, #ed4c5c)" d="M16.654 20.275c0.138 0.092 0.23 0.184 0.23 0.23s-0.046 0.092-0.138 0.138c-0.092 0.092-0.184 0.23-0.138 0.276-0.092-0.092-0.138-0.184-0.138-0.276 0-0.184 0.092-0.322 0.184-0.367z"></path>
<path fill="#fff" style="fill: var(--color5, #fff)" d="M15.232 16.33h1.055v5.23h-1.055v-5.23z"></path>
<path fill="#ed4c5c" style="fill: var(--color7, #ed4c5c)" d="M14.133 18.256c0.229-0.092 0.642-0.184 1.101-0.184 0.138 0 0.321 0 0.505 0.046 0.642 0.092 1.147 0.367 1.101 0.551l0.229-0.551c0.046-0.229-0.505-0.505-1.193-0.642h-0.642c-0.459 0-0.872 0.046-1.101 0.138v0.642z"></path>
<path fill="#ed4c5c" style="fill: var(--color7, #ed4c5c)" d="M16.291 18.946c0.276 0 0.505-0.092 0.505-0.23 0-0.092-0.092-0.23-0.276-0.322h-0.276l0.046 0.551zM15.235 18.532c-0.184 0.046-0.322 0.092-0.413 0.138-0.046 0.046 0.138 0.23 0.413 0.367v-0.505z"></path>
<path fill="#ed4c5c" style="fill: var(--color7, #ed4c5c)" d="M16.978 19.954c0.046-0.092-0.275-0.275-0.688-0.413-0.184-0.046-0.321-0.138-0.551-0.229-0.55-0.229-1.009-0.551-0.917-0.642l-0.092 0.551c-0.046 0.092 0.321 0.367 0.872 0.642 0.183 0.092 0.505 0.229 0.688 0.275 0.321 0.092 0.596 0.321 0.55 0.367l0.138-0.55zM10.83 12.568c0.872 0 2.661 0.183 3.303 0.826-0.688 1.651-1.789 0.963-3.303 0.963-1.468 0-2.615 0.688-3.303-0.963 0.642-0.642 2.385-0.826 3.303-0.826z"></path>
<path fill="#c8b100" style="fill: var(--color8, #c8b100)" d="M13.078 14.403c-0.55-0.321-1.376-0.367-2.248-0.367s-1.697 0.092-2.248 0.367l0.183 0.78c0.505 0.138 1.239 0.229 2.064 0.229s1.514-0.092 2.064-0.229l0.183-0.78zM13.858 12.43c-0.183-0.138-0.55-0.275-0.872-0.275-0.138 0-0.275 0-0.413 0.046 0 0-0.275-0.367-0.918-0.367-0.229 0-0.413 0.046-0.596 0.138v-0.046c-0.046-0.092-0.138-0.183-0.229-0.183s-0.229 0.138-0.229 0.229v0.046c-0.183-0.092-0.367-0.138-0.596-0.138-0.642 0-0.918 0.413-0.918 0.367-0.138-0.046-0.275-0.046-0.413-0.046-2.11 0-1.055 1.422-1.055 1.422l0.229-0.275c-0.505-0.642-0.046-1.009 0.872-1.009 0.138 0 0.229 0 0.321 0.046-0.321 0.459 0.275 0.872 0.275 0.872l0.138-0.229c-0.321-0.229-0.367-1.009 0.551-1.009 0.229 0 0.413 0.046 0.596 0.183 0 0.046-0.046 0.688-0.092 0.78l0.367 0.321 0.367-0.321c-0.046-0.138-0.092-0.734-0.092-0.78 0.138-0.092 0.367-0.183 0.596-0.183 0.963 0 0.963 0.78 0.551 1.009l0.138 0.229c0 0 0.505-0.413 0.275-0.872 0.092 0 0.229-0.046 0.321-0.046 1.101 0 1.147 0.826 0.872 1.009l0.184 0.275c-0.092 0 0.413-0.642-0.229-1.193z"></path>
<path fill="#005bbf" style="fill: var(--color9, #005bbf)" d="M10.553 11.561c0-0.138 0.138-0.276 0.276-0.276 0.184 0 0.276 0.138 0.276 0.276s-0.138 0.276-0.276 0.276-0.276-0.138-0.276-0.276z"></path>
<path fill="#c8b100" style="fill: var(--color8, #c8b100)" d="M10.736 10.779v0.138h-0.138v0.138h0.138v0.459h-0.184v0.138h0.551l0.046-0.092-0.046-0.046h-0.184v-0.459h0.138v-0.138h-0.138v-0.138h-0.184z"></path>
<path fill="#ed4c5c" style="fill: var(--color7, #ed4c5c)" d="M10.828 15.322c-0.734 0-1.376-0.092-1.881-0.229 0.505-0.138 1.147-0.229 1.881-0.229s1.376 0.092 1.881 0.229c-0.459 0.138-1.147 0.229-1.881 0.229z"></path>
<path fill="#fff" style="fill: var(--color5, #fff)" d="M10.873 23.258c-0.872 0-1.697-0.229-2.431-0.55-0.55-0.275-0.872-0.78-0.872-1.376v-2.202h6.606v2.202c0 0.596-0.367 1.147-0.872 1.376-0.734 0.367-1.56 0.55-2.431 0.55zM10.827 15.459h3.303v3.67h-3.303v-3.67z"></path>
<path fill="#ed4c5c" style="fill: var(--color7, #ed4c5c)" d="M10.873 21.331c0 0.872-0.734 1.56-1.652 1.56s-1.651-0.688-1.651-1.56v-2.202h3.303v2.202z"></path>
<path fill="#c8b100" style="fill: var(--color8, #c8b100)" d="M8.261 22.615c0.092 0.046 0.229 0.138 0.413 0.183v-3.762h-0.367l-0.046 3.578zM7.527 21.285c0 0.459 0.183 0.826 0.367 1.009v-3.257h-0.367v2.248z"></path>
<path fill="#c7b500" style="fill: var(--color10, #c7b500)" d="M8.994 22.891h0.367v-3.853h-0.367v3.853z"></path>
<path fill="#c8b100" style="fill: var(--color8, #c8b100)" d="M9.729 22.799c0.138-0.046 0.321-0.138 0.413-0.183v-3.578h-0.367l-0.046 3.762z"></path>
<path fill="#ed4c5c" style="fill: var(--color7, #ed4c5c)" d="M7.527 15.459h3.303v3.67h-3.303v-3.67z"></path>
<path fill="#c8b100" style="fill: var(--color8, #c8b100)" d="M10.508 22.293c0.184-0.138 0.321-0.459 0.367-0.826v-2.385h-0.367v3.211z"></path>
<path fill="#ed4c5c" style="fill: var(--color7, #ed4c5c)" d="M14.178 19.129v2.202c0 0.872-0.734 1.56-1.652 1.56s-1.651-0.688-1.651-1.56v-2.202h3.303zM12.985 16.101c0.138 0.275 0.138 0.963-0.275 0.826 0.092 0.046 0.138 0.367 0.275 0.55 0.229 0.275 0.505 0.046 0.459-0.275-0.092-0.505-0.046-0.826 0.046-1.33 0 0.046 0.229 0.046 0.321-0.046-0.046 0.138-0.092 0.321 0 0.321-0.092 0.138-0.321 0.367-0.367 0.505-0.046 0.321 0.459 0.917-0.092 1.055-0.367 0.092-0.138 0.367 0 0.505 0 0-0.183 0.596-0.092 0.551-0.367 0.138-0.275-0.184-0.275-0.184 0.184-0.55-0.321-0.596-0.275-0.688-0.459-0.046 0.046 0.413-0.367 0.413-0.092 0-0.275 0.092-0.275 0.092-0.505-0.046-0.229-0.505-0.046-0.459 0.138 0.046 0.275 0.275 0.275-0.046 0 0-0.229-0.367 0.367-0.367-0.229 0-0.367-0.183-0.459-0.413-0.092 0.046-0.229 0.275-0.734 0.321 0 0-0.138-0.505 0-0.413 0.184 0.092 0.275 0.092 0.459-0.092-0.092-0.138-0.642-0.321-0.551-0.642 0-0.092 0.275-0.229 0.275-0.229-0.046 0.229 0.092 0.459 0.367 0.459 0.367 0.046 0.229-0.092 0.275-0.183s0.321 0.046 0.229-0.184c0-0.046-0.321-0.092-0.229-0.229 0.183-0.229 0.459-0.046 0.688 0.183zM10.875 22.799l-0.092-0.229 0.092-0.275 0.092 0.275-0.092 0.229z"></path>
<path fill="#c8b100" style="fill: var(--color8, #c8b100)" d="M8.535 16.238v0.229h0.092v0.183h-0.229v0.459h0.138v1.009h-0.275v0.505h1.881v-0.505h-0.229v-1.009h0.092v-0.459h-0.229v-0.183h0.138v-0.229h-0.459v0.229h0.092v0.183h-0.229v-0.55h0.138v-0.229h-0.505v0.229h0.138v0.55h-0.229v-0.183h0.092v-0.229h-0.413zM13.719 21.881v-2.294h-2.385v2.294l1.101 0.505h0.138l1.147-0.505zM12.434 19.77v0.78l-0.78-0.78h0.78zM11.471 19.816l0.918 0.917-0.918 0.918v-1.835zM11.563 21.835l0.872-0.872v1.285l-0.872-0.413zM12.572 22.202v-1.284l0.872 0.872-0.872 0.413zM13.535 21.651l-0.918-0.918 0.918-0.917v1.835zM12.572 19.77h0.78l-0.78 0.78v-0.78z"></path>
<path fill="#ed4c5c" style="fill: var(--color7, #ed4c5c)" d="M9.773 19.085c0-0.689 0.459-1.194 1.057-1.194s1.057 0.551 1.057 1.194c0 0.643-0.459 1.194-1.057 1.194s-1.057-0.505-1.057-1.194z"></path>
<path fill="#005bbf" style="fill: var(--color9, #005bbf)" d="M10.094 19.084c0-0.505 0.322-0.873 0.735-0.873s0.735 0.413 0.735 0.873c0 0.505-0.322 0.873-0.735 0.873-0.368 0.046-0.735-0.367-0.735-0.873z"></path>
<path fill="#c8b100" style="fill: var(--color8, #c8b100)" d="M10.508 18.486l-0.184 0.505 0.138 0.046-0.092 0.184h0.276l-0.092-0.184 0.138-0.046-0.184-0.505zM11.197 18.486l-0.184 0.505 0.138 0.046-0.092 0.184h0.276l-0.046-0.184 0.138-0.046-0.23-0.505zM10.875 19.084l-0.23 0.505 0.138 0.046-0.046 0.184h0.23l-0.046-0.184 0.138-0.046-0.184-0.505z"></path>
</symbol>
<symbol id="france" viewBox="0 0 32 32">
<path fill="#eee" style="fill: var(--color11, #eee)" d="M10.545 0.733h10.207l1.485 14.468-1.485 14.892h-10.207l-1.709-14.531 1.709-14.829z"></path>
<path fill="#0052b4" style="fill: var(--color12, #0052b4)" d="M0.969 0.733h9.576v29.36h-9.576v-29.36z"></path>
<path fill="#d80027" style="fill: var(--color13, #d80027)" d="M20.752 0.733h9.576v29.36h-9.576v-29.36z"></path>
</symbol>
<symbol id="ukraine" viewBox="0 0 32 32">
<path fill="#ffda44" style="fill: var(--color14, #ffda44)" d="M0.979 15.404l14.785-2.258 14.556 2.258v14.67h-29.341v-14.67z"></path>
<path fill="#338af3" style="fill: var(--color15, #338af3)" d="M0.979 0.733h29.341v14.67h-29.341v-14.67z"></path>
</symbol>
<symbol id="uk" viewBox="0 0 31 32">
<path fill="#eee" style="fill: var(--color1, #eee)" d="M0 0.485l0.485 1.333-0.485 1.394v1.394l1.939 3.273-1.939 3.273v1.939l1.939 2.909-1.939 2.909v1.939l1.939 3.273-1.939 3.273v4.121l1.333-0.485 1.394 0.485h1.394l3.273-1.939 3.273 1.939h1.939l2.909-1.939 2.909 1.939h1.939l3.273-1.939 3.273 1.939h4.121l-0.485-1.333 0.485-1.394v-1.394l-1.939-3.273 1.939-3.273v-1.939l-1.939-2.909 1.939-2.909v-1.939l-1.939-3.273 1.939-3.273v-4.121l-1.333 0.485-1.394-0.485h-1.394l-3.273 1.939-3.273-1.939h-1.939l-2.909 1.939-2.909-1.939h-1.939l-3.273 1.939-3.273-1.939h-4.121z"></path>
<path fill="#0052b4" style="fill: var(--color2, #0052b4)" d="M20.364 0.485v6.545l6.545-6.545h-6.545zM31.030 4.606l-6.545 6.545h6.545v-6.545zM0 11.152h6.545l-6.545-6.545v6.545zM4.121 0.485l6.545 6.545v-6.545h-6.545zM10.667 31.515v-6.545l-6.545 6.545h6.545zM0 27.394l6.545-6.545h-6.545v6.545zM31.030 20.849h-6.545l6.545 6.545v-6.545zM26.909 31.515l-6.545-6.545v6.545h6.545z"></path>
<path fill="#d80027" style="fill: var(--color3, #d80027)" d="M0 0.485v2.727l7.939 7.939h2.727l-10.667-10.667zM12.606 0.485v12.606h-12.606v5.818h12.606v12.606h5.818v-12.606h12.606v-5.818h-12.606v-12.606h-5.818zM28.303 0.485l-7.939 7.939v2.727l10.667-10.667h-2.727zM10.667 20.849l-10.667 10.667h2.727l7.939-7.939v-2.727zM20.364 20.849l10.667 10.667v-2.727l-7.939-7.939h-2.727z"></path>
</symbol>
<symbol id="germany" viewBox="0 0 32 32">
<path fill="#000" style="fill: var(--color16, #000)" d="M40.098 2.552h-48.901v29.341h48.901v-29.341z"></path>
<path fill="#d00" style="fill: var(--color17, #d00)" d="M40.098 12.333h-48.901v19.56h48.901v-19.56z"></path>
<path fill="#ffce00" style="fill: var(--color18, #ffce00)" d="M40.098 22.113h-48.901v9.78h48.901v-9.78z"></path>
</symbol>
<symbol id="lizard" viewBox="0 0 32 32">
<path d="M13.542 7.334c0.212 0 0.416-0.084 0.566-0.234s0.234-0.354 0.234-0.566c0-0.212-0.084-0.416-0.234-0.566s-0.353-0.234-0.566-0.234c-0.212 0-0.416 0.084-0.566 0.234s-0.234 0.354-0.234 0.566c0 0.212 0.084 0.416 0.234 0.566s0.354 0.234 0.566 0.234z"></path>
<path d="M13.514 1.79c-1.072-1.208-3.040-1.295-4.051 0.067-0.164 0.22-0.365 0.473-0.58 0.746-0.428 0.538-0.914 1.151-1.297 1.741-0.607 0.936-1.143 2.067-1.117 3.37 0.003 2.117 0.888 3.281 1.537 3.833 0.031 1.348 0.184 2.481 0.447 3.458h-2.517c-0.041 0-0.1-0.014-0.102-0.117-0.001-0.114-0.001-0.228 0-0.342v-0.051c0-0.070 0.017-0.13 0.067-0.18l0.578-0.634c0.2-0.2 0.21-0.584 0-0.774-0.2-0.18-0.517-0.19-0.707 0l-0.14 0.118c-0.040 0.040-0.11 0.020-0.11-0.040v-0.26c0-0.29-0.254-0.517-0.563-0.517-0.27 0-0.492 0.247-0.492 0.517v0.22c0 0.050-0.070 0.080-0.11 0.040l-0.117-0.058c-0.19-0.2-0.53-0.19-0.73 0-0.21 0.19-0.184 0.581 0.016 0.781l0.625 0.664c0.041 0.049 0.063 0.112 0.062 0.176v0.715c0 0.617 0.512 1.398 1.527 1.398h3.328c0.056 0.113 0.113 0.223 0.172 0.33 0.763 1.39 1.805 2.32 2.858 3.176 0.358 0.29 0.67 0.564 0.932 0.833h-1.507c-0.83 0-1.543 0.646-1.543 1.477v1.179c0 0.072-0.079 0.123-0.14 0.123-0.117 0-0.176-0.052-0.266-0.146l-0.605-0.551c-0.205-0.205-0.604-0.236-0.809-0.031s-0.195 0.562-0.020 0.728l0.215 0.248c0.031 0.041 0 0.103-0.050 0.103l-0.34 0.077c-0.375 0.066-0.473 0.297-0.453 0.535s0.226 0.41 0.453 0.41l0.515-0.039c0.052 0 0.055 0.073 0.024 0.114l-0.238 0.234c-0.205 0.205-0.185 0.56 0.020 0.766s0.628 0.125 0.782 0.034c0.154-0.090 0.627-0.59 0.627-0.59 0.18-0.18 0.376-0.2 0.621-0.225l0.114-0.012c0.63-0.074 1.297-0.735 1.297-1.553v-1.010c0-0.072 0.061-0.123 0.123-0.123h2.136c0.010 0.082 0.014 0.166 0.014 0.252 0 3.881 2.844 8 7.734 8 3.832 0 7.257-2.828 7.259-6.809 0.002-0.425-0.115-1.334-0.269-2.366-0.378-2.46-0.804-4.912-1.277-7.356-0.197-1.013-0.376-1.858-0.481-2.194-0.167-0.53-0.36-1.077-0.664-1.487-0.175-0.243-0.403-0.442-0.668-0.582-0.274-0.139-0.577-0.21-0.884-0.206-0.457 0-0.97 0.105-1.344 0.498-0.372 0.39-0.406 0.858-0.406 1.087l-0.002 5.41-0.002 6.505c0 0.698-0.182 1.050-0.336 1.221-0.148 0.165-0.37 0.27-0.688 0.28-0.417 0.010-0.588-0.133-0.705-0.31-0.16-0.244-0.267-0.657-0.267-1.191 0-1.895-0.445-3.386-1.113-4.617h0.693c0.81 0 1.724-0.535 1.724-1.713v-0.873c0-0.030 0.020-0.070 0.040-0.090l0.195-0.258 0.258-0.316c0.168-0.235 0.172-0.519-0.027-0.719-0.2-0.2-0.485-0.148-0.606-0.074l-0.228 0.124c-0.040 0.030-0.1 0-0.1-0.050v-0.244c0-0.28-0.246-0.5-0.526-0.5s-0.53 0.22-0.53 0.5v0.268c0 0.050-0.060 0.080-0.1 0.050l-0.282-0.148c-0.152-0.067-0.386-0.102-0.585 0.098s-0.213 0.502-0.020 0.695l0.605 0.726c0.030 0.030 0.024 0.3 0.024 0.3v0.228c0 0.060-0.047 0.129-0.117 0.129h-0.755c-0.297 0-0.619 0.016-0.906 0.078-0.677-0.795-1.42-1.473-2.116-2.108l-0.317-0.29h1.418c0.931 0 1.591-0.646 1.591-1.476v-0.727c0-0.064 0.059-0.136 0.1-0.186l0.010-0.013 0.582-0.669c0.2-0.2 0.11-0.557-0.070-0.72s-0.502-0.2-0.692 0l-0.124 0.070c-0.040 0.040-0.11 0.010-0.11-0.040l-0.037-0.297c0-0.238-0.217-0.461-0.545-0.461-0.305 0-0.477 0.281-0.477 0.46v0.298c0 0.060-0.070 0.080-0.11 0.040l-0.151-0.070c-0.19-0.2-0.53-0.16-0.73 0.030-0.21 0.19-0.2 0.542 0 0.742l0.6 0.588c0.050 0.050 0.093 0.11 0.093 0.18v0.44c0 0.068 0.002 0.116-0.070 0.116h-2.364c-0.066-0.332-0.109-0.765-0.125-1.367 0.812-0.533 1.625-1.678 1.625-3.931 0-2.538-1.492-4.154-2.662-5.42-0.157-0.17-0.308-0.335-0.45-0.494l0.001 0.001zM11.068 3.050c0.155-0.21 0.606-0.32 0.95 0.067 0.169 0.19 0.335 0.373 0.496 0.55 1.187 1.308 2.111 2.325 2.111 4.036 0 1.79-0.629 2.204-0.75 2.276-0.364 0.216-0.892 0.71-0.88 1.465 0.019 1.173 0.117 2.064 0.425 2.824 0.319 0.788 0.823 1.335 1.427 1.89l0.27 0.249c2.051 1.877 3.883 3.555 3.883 7.093 0 0.734 0.136 1.59 0.597 2.29 0.505 0.766 1.334 1.239 2.43 1.21 0.762-0.021 1.54-0.297 2.119-0.94 0.574-0.637 0.85-1.52 0.85-2.56l0.002-6.504 0.002-4.302 0.058 0.18c0.064 0.204 0.22 0.917 0.426 1.978 0.467 2.414 0.888 4.837 1.262 7.267 0.164 1.097 0.249 1.83 0.247 2.060v0.009c0 2.697-2.341 4.812-5.259 4.812-3.547 0-5.734-2.97-5.734-6 0-2.070-1.43-3.403-2.641-4.386-1.011-0.82-1.798-1.55-2.366-2.585-0.564-1.028-0.958-2.448-0.99-4.7-0.009-0.567-0.323-1.010-0.654-1.267-0.221-0.171-0.88-0.788-0.88-2.36v-0.020c-0.010-0.42 0.085-0.841 0.267-1.276-0.031 0.191 0.007 0.386 0.108 0.55s0.258 0.287 0.443 0.344c0.184 0.058 0.383 0.047 0.56-0.030s0.32-0.216 0.403-0.39c0.083-0.174 0.1-0.373 0.048-0.559s-0.169-0.347-0.33-0.453c-0.161-0.106-0.355-0.151-0.547-0.126s-0.367 0.119-0.495 0.264c0.098-0.187 0.211-0.377 0.338-0.572 0.34-0.524 0.703-0.98 1.084-1.458 0.234-0.293 0.474-0.595 0.72-0.926z"></path>
</symbol>
<symbol id="bird" viewBox="0 0 32 32">
<path d="M2.667 28c-0.267 0-0.533-0.133-0.8-0.267-0.667-0.4-0.8-1.2-0.267-1.867l1.867-2.667c0 0 0-0.133 0.133-0.133l12.4-17.733c0.8-1.2 2-2 3.333-2.533 1.333-0.4 2.8-0.533 4.133 0 1.333 0.4 2.533 1.333 3.333 2.4 0.8 1.2 1.333 2.533 1.333 4v4c0 3.2-1.2 6.267-3.467 8.533s-5.333 3.467-8.533 3.467h-10.933l-1.467 2.133c-0.267 0.533-0.667 0.667-1.067 0.667zM7.067 22.667h8.933c2.533 0 4.8-0.933 6.667-2.667 1.733-1.733 2.667-4.133 2.667-6.667v-4c0-0.8-0.267-1.733-0.8-2.4s-1.2-1.2-2-1.467c-0.8-0.267-1.733-0.267-2.533 0s-1.467 0.8-2 1.467l-10.933 15.733zM21.333 10.667c-0.8 0-1.333-0.533-1.333-1.333s0.533-1.333 1.333-1.333v0c0.8 0 1.333 0.533 1.333 1.333s-0.533 1.333-1.333 1.333z"></path>
<path d="M18.667 29.333c-0.8 0-1.333-0.533-1.333-1.333v-4.267c0-0.8 0.533-1.333 1.333-1.333s1.333 0.533 1.333 1.333v4.267c0 0.8-0.533 1.333-1.333 1.333zM13.333 29.333c-0.8 0-1.333-0.533-1.333-1.333v-3.067c-0.8 0.267-1.733 0.4-2.667 0.4-0.8 0-1.333-0.533-1.333-1.333s0.533-1.333 1.333-1.333c1.333 0 2.667-0.4 3.867-1.2 1.067-0.8 2-1.867 2.4-3.2 0.533-1.333 0.533-2.667 0.133-4s-1.067-2.533-2.133-3.333c-0.533-0.533-0.667-1.333-0.133-1.867s1.333-0.667 1.867-0.133c1.467 1.2 2.533 2.933 3.067 4.667 0.533 1.867 0.4 3.867-0.267 5.6-0.667 1.867-1.867 3.333-3.467 4.4 0 0 0 0 0 0 0 0.133 0 0.267 0 0.267v4c0 0.933-0.533 1.467-1.333 1.467zM26.667 12c-0.533 0-1.2-0.4-1.333-1.067 0-0.267 0-0.667 0.133-0.933-0.133-0.267-0.133-0.667-0.133-0.933 0.133-0.667 0.933-1.2 1.6-0.933l2.667 0.667c0.667 0 1.067 0.533 1.067 1.2s-0.4 1.2-1.067 1.333l-2.667 0.667c0 0-0.133 0-0.267 0z"></path>
</symbol>
<symbol id="fish" viewBox="0 0 32 32">
<path d="M20 25.333c-5.6 0-11.333-4-12.667-8.933 0-0.267 0-0.533 0-0.667 1.333-5.067 7.067-9.067 12.667-9.067 5.067 0 9.067 3.467 10.667 8.933 0 0.267 0 0.533 0 0.667-1.6 5.6-5.6 9.067-10.667 9.067zM10 16c1.2 3.6 5.6 6.667 10 6.667 3.733 0 6.667-2.533 8-6.667-1.2-4.133-4.267-6.667-8-6.667-4.267 0-8.667 3.067-10 6.667zM24 18c-0.8 0-1.333-0.533-1.333-1.333v-0.667c0-0.8 0.533-1.333 1.333-1.333s1.333 0.533 1.333 1.333v0.667c0 0.8-0.533 1.333-1.333 1.333z"></path>
<path d="M3.6 26c-0.4 0-0.8-0.267-1.067-0.533-1.467-2.133-1.733-6.667-0.133-9.467-1.6-2.8-1.333-7.2 0.133-9.467 0.267-0.4 0.8-0.667 1.333-0.533 4.267 0.667 6.8 3.733 6.8 8.267 0 0.8-0.533 1.333-1.333 1.333s-1.333-0.533-1.333-1.333c0-1.6-0.533-4.4-3.6-5.333-0.667 1.733-0.533 4.933 0.533 6.267 0.4 0.533 0.4 1.2 0 1.733-1.067 1.333-1.2 4.533-0.667 6.267 3.067-0.933 3.6-3.733 3.6-5.333 0-0.8 0.533-1.333 1.333-1.333s1.333 0.533 1.333 1.333c0 4.4-2.533 7.467-6.8 8.267 0-0.133 0-0.133-0.133-0.133zM21.333 25.2c-0.4 0-0.8-0.133-1.067-0.533-1.867-2.4-2.933-5.6-2.933-8.667s1.067-6.267 2.933-8.667c0.4-0.533 1.333-0.667 1.867-0.267s0.667 1.333 0.267 1.867c-1.6 2-2.4 4.533-2.4 7.067s0.8 5.067 2.4 7.067c0.4 0.533 0.4 1.467-0.267 1.867-0.267 0.267-0.533 0.267-0.8 0.267z"></path>
<path d="M18.4 29.333c0 0 0 0 0 0h-5.733c-0.533 0-0.933-0.267-1.2-0.8s-0.133-1.067 0.267-1.467c1.067-1.2 1.6-2.8 1.6-4.4 0-0.8 0.533-1.333 1.333-1.333 0 0 0 0 0 0 0.667 0 1.333 0.533 1.333 1.333 0 1.333-0.267 2.8-0.933 4h3.333c0 0 0 0 0 0 0.267 0 0.667-0.133 0.8-0.267 0.267-0.267 0.4-0.533 0.4-0.8l0.267-1.867c0.133-0.667 0.8-1.2 1.467-1.067s1.2 0.8 1.067 1.467l-0.267 1.867c-0.133 0.933-0.667 1.733-1.333 2.4-0.533 0.533-1.467 0.933-2.4 0.933zM14 11.067c-0.667 0-1.2-0.4-1.333-1.067-0.267-1.467-1.467-3.467-2.933-5.067-0.4-0.4-0.533-0.933-0.267-1.467 0.133-0.533 0.667-0.8 1.2-0.8h7.733c0.933 0 1.867 0.267 2.533 0.933s1.2 1.467 1.333 2.4l0.4 1.867c0.133 0.667-0.4 1.467-1.067 1.467-0.667 0.133-1.467-0.4-1.467-1.067l-0.267-1.867c0-0.267-0.267-0.533-0.4-0.8-0.4-0.133-0.8-0.267-1.067-0.267 0 0 0 0 0 0h-4.933c0.933 1.333 1.6 2.8 1.867 4.133 0.133 0.667-0.4 1.467-1.067 1.6-0.133 0-0.267 0-0.267 0z"></path>
</symbol>
<symbol id="mouse" viewBox="0 0 32 32">
<path d="M16.254 6.519c0 0.658 0.262 1.29 0.727 1.755s1.097 0.727 1.755 0.727 1.29-0.262 1.755-0.727c0.466-0.466 0.727-1.097 0.727-1.755s-0.262-1.29-0.727-1.755c-0.465-0.466-1.097-0.727-1.755-0.727s-1.29 0.262-1.755 0.727c-0.465 0.466-0.727 1.097-0.727 1.755zM24.575 12.511c-0.293 0-0.574-0.116-0.781-0.324s-0.324-0.488-0.324-0.781 0.116-0.574 0.324-0.781c0.207-0.207 0.488-0.324 0.781-0.324s0.574 0.116 0.781 0.324c0.207 0.207 0.324 0.488 0.324 0.781s-0.116 0.574-0.324 0.781c-0.207 0.207-0.488 0.324-0.781 0.324z"></path>
<path d="M20.171 1.219c-0.717-0.211-1.47-0.27-2.211-0.171s-1.453 0.352-2.090 0.743-1.184 0.912-1.607 1.528c-0.423 0.616-0.711 1.315-0.846 2.050l-0.507-0.13-0.018-0.004c-6.232-1.35-11.83 3.58-11.892 9.833v5.584c0 2.96 2.41 5.37 5.37 5.37l5.64-0.010c0.55 0 0.99 0.44 0.99 0.99s-0.44 0.99-0.99 0.99l-4.020 0.010c-0.55 0-1 0.45-1 1 0.010 0.56 0.46 1 1.010 1l4.020-0.010c0.771-0.002 1.511-0.303 2.066-0.838s0.882-1.264 0.912-2.035c0.030-0.77-0.238-1.523-0.749-2.1s-1.226-0.935-1.994-0.998h2.705c1.088 0 2.080-0.834 2.080-2.010 0-0.050-0.002-0.1-0.005-0.15 0.62-0.129 1.228-0.316 1.814-0.556l0.313 1.207c0.107 0.41 0.31 0.813 0.675 1.104 0.332 0.257 0.743 0.393 1.163 0.385h2.16c0.892 0 1.468-0.852 1.27-1.643l-0.001-0.005-1.080-4.223c0.533-0.651 0.983-1.366 1.339-2.129h3.172c0.833-0.001 1.631-0.331 2.22-0.92s0.92-1.387 0.92-2.22c0-1.027-0.5-1.982-1.336-2.569l-3.001-2.104c0.348-0.926 0.43-1.932 0.238-2.902s-0.651-1.869-1.326-2.593c-0.674-0.724-1.537-1.246-2.492-1.506s-1.963-0.25-2.912 0.031zM23.047 3.296c0.685 0.309 1.245 0.842 1.588 1.511s0.449 1.434 0.3 2.171l-0.935-0.655c-0.001-1.083-0.333-2.139-0.953-3.027zM12.64 20.002c0.15-0.662 0.149-1.349-0.002-2.010s-0.45-1.28-0.874-1.811c-0.424-0.53-0.961-0.958-1.573-1.252s-1.282-0.447-1.96-0.447c-0.133 0-0.26 0.053-0.354 0.146s-0.146 0.221-0.146 0.354 0.053 0.26 0.146 0.354c0.094 0.094 0.221 0.146 0.354 0.146 0.583-0 1.157 0.145 1.671 0.421s0.95 0.677 1.271 1.164c0.321 0.487 0.515 1.047 0.566 1.627s-0.043 1.166-0.274 1.701l-0.067 0.115c-0.265 0.459-0.646 0.841-1.105 1.106s-0.98 0.405-1.511 0.405h-3.65c-0.564 0.001-1.105-0.222-1.505-0.62s-0.625-0.939-0.626-1.503v-4.797c0.043-5.097 4.566-8.96 9.45-7.916l2.985 0.768-0.097-1.384c-0.032-0.456 0.029-0.914 0.182-1.345s0.392-0.827 0.703-1.161c0.312-0.335 0.689-0.602 1.108-0.784s0.872-0.277 1.329-0.277c0.884 0 1.732 0.351 2.358 0.975s0.979 1.471 0.982 2.355c0 0.13-0.008 0.248-0.022 0.366l-0.075 0.597 6.583 4.615c-0.156 0.102-0.283 0.243-0.368 0.409s-0.126 0.351-0.119 0.537c0.008 0.186 0.063 0.368 0.162 0.526s0.236 0.289 0.4 0.378c-0.193 0.151-0.437 0.242-0.701 0.242h-4.518l-0.247 0.64c-0.369 0.959-0.91 1.821-1.582 2.554l-0.366 0.4 0.871 3.406h-1.182l-0.654-2.52-1.097 0.53c-1.17 0.565-2.33 1-3.495 1h-0.424c-0.068-0.007-0.137-0.010-0.206-0.010h-2.32zM6.371 24.022v0z"></path>
</symbol>
<symbol id="dog" viewBox="0 0 32 32">
<path d="M19 4c-0.265 0-0.519 0.105-0.707 0.293s-0.293 0.442-0.293 0.707v2c0 0.265 0.105 0.52 0.293 0.707s0.442 0.293 0.707 0.293c0.265 0 0.52-0.105 0.707-0.293s0.293-0.442 0.293-0.707 0.105-0.52 0.293-0.707 0.442-0.293 0.707-0.293c0.265 0 0.52 0.105 0.707 0.293s0.293 0.442 0.293 0.707c0 0.495-0.122 0.982-0.355 1.418s-0.571 0.807-0.983 1.081c-0.412 0.274-0.885 0.442-1.377 0.489s-0.989-0.029-1.445-0.22c-0.177 1.583-0.587 3.131-1.218 4.594-0.822 1.878-1.902 3.218-2.876 4.304-0.696 0.778-1.146 1.894-1.412 3.222-0.266 1.32-0.334 2.762-0.334 4.112 0 0.606-0.22 1.338-0.62 2h8.45c-0.208-0.584-0.592-1.090-1.098-1.448s-1.111-0.551-1.732-0.552h-1c-0.265 0-0.519-0.105-0.707-0.293s-0.293-0.442-0.293-0.707 0.105-0.52 0.293-0.707c0.188-0.188 0.442-0.293 0.707-0.293h1c0.342 0 0.676 0.034 1 0.1v-3.1c0-0.265 0.105-0.52 0.293-0.707s0.442-0.293 0.707-0.293c0.265 0 0.52 0.105 0.707 0.293s0.293 0.442 0.293 0.707v4c0.96 0.72 1.652 1.78 1.9 3h3.93c-0.207-0.585-0.59-1.092-1.097-1.45s-1.112-0.55-1.733-0.55c-0.265 0-0.519-0.105-0.707-0.293s-0.293-0.442-0.293-0.707v-14c0-0.265 0.105-0.52 0.293-0.707s0.442-0.293 0.707-0.293h2c0.265 0 0.52-0.105 0.707-0.293s0.293-0.442 0.293-0.707v-1.868c0-0.173-0.045-0.343-0.13-0.493s-0.208-0.276-0.356-0.365l-3.554-2.132c-0.155-0.093-0.333-0.142-0.514-0.142h-2.446zM8 28c0.628 0 1.112-0.304 1.47-0.75 0.38-0.478 0.53-1.014 0.53-1.25 0-1.4 0.070-2.994 0.372-4.506 0.302-1.5 0.854-3.010 1.882-4.16 0.914-1.020 1.836-2.18 2.54-3.778 0.698-1.594 1.206-3.68 1.206-6.556v-2c0-0.796 0.316-1.559 0.879-2.121s1.326-0.879 2.121-0.879h2.446c0.544 0 1.078 0.148 1.544 0.428l3.554 2.132c0.444 0.267 0.812 0.644 1.067 1.094s0.389 0.96 0.389 1.478v1.868c0 0.796-0.316 1.559-0.879 2.121s-1.326 0.879-2.121 0.879h-1v12.1c1.129 0.231 2.144 0.844 2.873 1.737s1.127 2.010 1.127 3.163c0 0.265-0.105 0.52-0.293 0.707s-0.442 0.293-0.707 0.293h-19.5c-1.18 0-2.329-0.379-3.277-1.082s-1.645-1.692-1.988-2.821c-0.343-1.129-0.313-2.339 0.085-3.45s1.142-2.065 2.124-2.72c0.109-0.076 0.232-0.129 0.362-0.157s0.264-0.029 0.394-0.005 0.255 0.075 0.365 0.148c0.111 0.073 0.206 0.168 0.28 0.278s0.125 0.234 0.15 0.365c0.025 0.13 0.025 0.264-0.002 0.395s-0.080 0.253-0.155 0.363-0.171 0.203-0.283 0.275c-0.625 0.417-1.1 1.024-1.353 1.731s-0.273 1.477-0.055 2.196c0.218 0.719 0.662 1.349 1.265 1.796s1.335 0.689 2.087 0.688h0.5z"></path>
</symbol>
<symbol id="paw" viewBox="0 0 32 32">
<path d="M19.073 16.124c-0.234-0.093-0.575-0.556-0.81-1.1-0.173-0.4-0.688-1.582-2.095-1.677-0.032-0.006-0.066-0.009-0.101-0.009-0.014 0-0.026 0.002-0.040 0.002s-0.026-0.002-0.040-0.002c-0.034 0-0.068 0.003-0.101 0.009-1.407 0.095-1.922 1.277-2.095 1.677-0.235 0.544-0.576 1.007-0.81 1.1-1.162 0.462-1.859 1.58-1.695 2.718 0.151 1.050 0.985 1.804 2.176 1.967 0.139 0.019 0.279 0.029 0.419 0.029 0.381 0 0.762-0.070 1.121-0.208 0.156-0.060 0.295-0.128 0.429-0.195 0.214-0.106 0.402-0.194 0.596-0.218 0.194 0.023 0.382 0.112 0.596 0.218 0.134 0.066 0.273 0.135 0.429 0.195 0.359 0.138 0.74 0.208 1.121 0.208 0.14 0 0.28-0.009 0.419-0.029 1.191-0.163 2.025-0.917 2.176-1.967 0.164-1.139-0.533-2.257-1.695-2.718zM19.778 18.723c-0.044 0.307-0.263 1.037-1.334 1.183-0.331 0.045-0.688 0.004-1.005-0.118-0.111-0.043-0.223-0.098-0.342-0.156-0.259-0.128-0.548-0.27-0.907-0.318-0.046-0.011-0.094-0.018-0.144-0.017-0.006 0-0.012 0.001-0.018 0.002s-0.012-0.001-0.018-0.002c-0.047-0.001-0.093 0.006-0.136 0.015-0.362 0.048-0.654 0.191-0.915 0.32-0.119 0.058-0.231 0.114-0.342 0.156-0.317 0.122-0.674 0.163-1.005 0.118-1.071-0.147-1.29-0.877-1.334-1.183-0.087-0.603 0.221-1.413 1.104-1.763 0.707-0.281 1.173-1.213 1.34-1.601 0.333-0.77 0.715-1.092 1.306-1.106 0.592 0.014 0.974 0.336 1.306 1.106 0.168 0.388 0.634 1.32 1.341 1.601 0.882 0.35 1.19 1.16 1.103 1.763z"></path>
<path d="M12.461 15.556c0.231-0.449 0.283-0.983 0.147-1.506-0.251-0.962-1.097-1.66-2.013-1.66-0.129 0-0.258 0.014-0.383 0.041-1.029 0.224-1.63 1.316-1.338 2.432 0.251 0.962 1.097 1.659 2.013 1.659 0.129 0 0.258-0.014 0.383-0.041 0.512-0.111 0.947-0.449 1.192-0.926zM9.845 14.652c-0.161-0.617 0.114-1.227 0.599-1.333 0.049-0.011 0.1-0.016 0.151-0.016 0.451 0 0.899 0.412 1.042 0.959 0.083 0.318 0.054 0.648-0.079 0.907-0.117 0.227-0.302 0.379-0.52 0.426-0.487 0.105-1.034-0.334-1.193-0.943z"></path>
<path d="M13.7 13.094c1.058 0 1.919-0.934 1.919-2.082s-0.861-2.082-1.919-2.082-1.919 0.934-1.919 2.082c0 1.148 0.861 2.082 1.919 2.082zM13.7 9.843c0.499 0 0.921 0.536 0.921 1.17s-0.422 1.17-0.921 1.17-0.921-0.536-0.921-1.17c0-0.634 0.422-1.17 0.921-1.17z"></path>
<path d="M21.841 12.445c-0.139-0.034-0.282-0.051-0.425-0.051-0.91 0-1.739 0.662-2.016 1.611-0.151 0.519-0.115 1.055 0.103 1.509 0.231 0.482 0.656 0.83 1.165 0.954 0.139 0.034 0.282 0.051 0.426 0.051 0.91 0 1.739-0.662 2.016-1.611 0.324-1.109-0.245-2.214-1.268-2.463zM22.144 14.673c-0.175 0.601-0.738 1.031-1.22 0.913-0.217-0.053-0.397-0.208-0.507-0.439-0.126-0.262-0.145-0.593-0.053-0.908 0.155-0.532 0.607-0.934 1.051-0.934 0.057 0 0.114 0.007 0.168 0.020 0.482 0.118 0.739 0.734 0.56 1.347z"></path>
<path d="M18.295 13.094c1.058 0 1.919-0.934 1.919-2.082s-0.861-2.082-1.919-2.082c-1.058 0-1.919 0.934-1.919 2.082s0.861 2.082 1.919 2.082zM18.295 9.843c0.499 0 0.921 0.536 0.921 1.17s-0.422 1.17-0.921 1.17c-0.499 0-0.921-0.536-0.921-1.17s0.422-1.17 0.921-1.17z"></path>
</symbol>
<symbol id="cat" viewBox="0 0 32 32">
<path d="M20.656 4.676c-0.546 0.050-1.054 0.303-1.424 0.708s-0.575 0.934-0.575 1.483v6.467c0 0.265-0.105 0.52-0.293 0.707s-0.442 0.293-0.707 0.293c-1.924 0-3.276 0.784-4.276 1.984-1.029 1.237-1.7 2.941-2.12 4.743-0.417 1.791-0.569 3.595-0.615 4.963-0.015 0.437-0.020 0.874-0.016 1.311h9.36v-1c0-0.795-0.316-1.558-0.878-2.121s-1.325-0.879-2.12-0.879h-1.667c-0.265 0-0.52-0.105-0.707-0.293s-0.293-0.442-0.293-0.707 0.105-0.52 0.293-0.707c0.188-0.188 0.442-0.293 0.707-0.293h1.667c0.656 0 1.306 0.13 1.913 0.381s1.157 0.62 1.621 1.084c0.464 0.464 0.832 1.015 1.083 1.622s0.38 1.257 0.38 1.913v1h1c0.265 0 0.519-0.105 0.707-0.293s0.293-0.442 0.293-0.707v-13.333c0-0.265 0.105-0.519 0.292-0.706s0.441-0.293 0.705-0.294h0.675c0.297-0 0.589-0.079 0.845-0.23s0.467-0.367 0.611-0.626 0.217-0.553 0.21-0.85c-0.007-0.297-0.093-0.587-0.25-0.839l-0.827-1.333c-0.149-0.241-0.358-0.439-0.605-0.577s-0.526-0.21-0.809-0.211h-3.181c-0.265 0-0.52-0.105-0.707-0.293s-0.293-0.442-0.293-0.707l0.001-1.657zM8.632 27.333c-0.004-0.379-0.001-0.845 0.016-1.377 0.048-1.444 0.209-3.389 0.667-5.349 0.453-1.949 1.22-3.995 2.532-5.569 1.163-1.396 2.74-2.401 4.813-2.647v-5.524c0-1.113 0.442-2.18 1.228-2.968s1.853-1.231 2.966-1.232c0.995 0 1.8 0.805 1.8 1.8v0.867h2.181c1.267 0 2.445 0.656 3.113 1.733l0.827 1.333c1.456 2.351-0.112 5.36-2.791 5.587v12.347c0 0.795-0.316 1.557-0.877 2.12s-1.324 0.879-2.119 0.88h-15.263c-0.987 0-1.952-0.288-2.778-0.829s-1.474-1.312-1.868-2.217c-0.393-0.905-0.513-1.906-0.345-2.878s0.617-1.875 1.291-2.596l1.513-1.623c0.721-0.773 1.113-1.795 1.095-2.852s-0.446-2.065-1.192-2.812l-1.484-1.487c-0.177-0.19-0.273-0.44-0.268-0.699s0.11-0.506 0.293-0.689c0.183-0.183 0.43-0.288 0.689-0.293s0.51 0.092 0.699 0.268l1.485 1.485c1.114 1.114 1.752 2.617 1.779 4.192s-0.558 3.099-1.632 4.251l-1.515 1.623c-0.407 0.437-0.677 0.983-0.778 1.571s-0.028 1.193 0.21 1.74 0.63 1.013 1.129 1.341c0.499 0.328 1.082 0.503 1.679 0.504h0.903z"></path>
</symbol>
<symbol id="basket" viewBox="0 0 31 32">
<path d="M26.88 12.16h-1.818l-4.751-8.315-2.222 1.27 4.026 7.045h-13.509l4.027-7.045-2.223-1.27-4.751 8.315h-1.818c-0.197 0-0.391 0.046-0.567 0.133s-0.33 0.214-0.45 0.37c-0.119 0.156-0.201 0.338-0.239 0.531s-0.031 0.392 0.021 0.582l3.583 13.138c0.149 0.541 0.471 1.019 0.917 1.359s0.992 0.525 1.553 0.526h13.405c1.149 0 2.166-0.774 2.47-1.888l3.583-13.137c0.052-0.19 0.060-0.389 0.022-0.583s-0.12-0.375-0.239-0.532c-0.12-0.156-0.274-0.283-0.451-0.37s-0.371-0.132-0.568-0.131zM22.062 26.24h-13.404l-3.141-11.52h19.686l-3.141 11.52z"></path>
<path d="M11.52 17.28h2.56v6.4h-2.56v-6.4zM16.64 17.28h2.56v6.4h-2.56v-6.4z"></path>
</symbol>
<symbol id="scale" viewBox="0 0 31 32">
<path d="M6.528 31.36c-1.792 0-3.456-0.64-4.608-1.92-1.28-1.28-1.92-2.944-1.92-4.608 0-0.128 0-0.256 0.128-0.384l4.48-11.008-0.768 0.384c-0.512 0.256-1.152 0-1.408-0.512s0-1.152 0.512-1.408l11.392-5.248v-4.864c0-0.64 0.512-1.152 1.152-1.152s1.152 0.512 1.152 1.152v3.84l7.168-3.2c0 0 0.128 0 0.128-0.128l3.2-1.408c0.512-0.256 1.152 0 1.408 0.512s0 1.152-0.512 1.408l-2.432 1.024 5.12 11.776c0 0.128 0.128 0.256 0.128 0.384 0 1.792-0.64 3.456-1.92 4.608-1.28 1.28-2.944 1.92-4.608 1.92s-3.456-0.64-4.608-1.92c-1.28-1.28-1.92-2.944-1.92-4.608 0-0.128 0-0.256 0.128-0.384l4.352-10.112-6.144 2.816c0 0 0 0 0 0l-8.192 3.456 5.12 12.544c0 0.128 0.128 0.256 0.128 0.384 0 1.792-0.64 3.456-1.92 4.608-1.28 1.408-2.944 2.048-4.736 2.048zM2.176 24.96c0 1.152 0.512 2.176 1.28 2.944 1.664 1.664 4.608 1.664 6.144 0 0.768-0.768 1.28-1.792 1.28-2.944l-4.352-10.88-4.352 10.88zM19.712 16.256c0 1.152 0.512 2.048 1.28 2.944 1.664 1.664 4.608 1.664 6.144 0 0.768-0.768 1.28-1.792 1.28-2.944l-4.352-10.24-4.352 10.24z"></path>
</symbol>
<symbol id="favorite" viewBox="0 0 32 32">
<path fill="#0e2423" style="fill: var(--color1, #0e2423)" d="M16 17.333c-1.733 0-3.467-0.667-4.667-2-1.333-1.2-2-2.933-2-4.667s0.667-3.467 2-4.667c1.2-1.333 2.933-2 4.667-2s3.467 0.667 4.667 2c1.333 1.2 2 2.933 2 4.667s-0.667 3.467-2 4.667c-1.2 1.333-2.933 2-4.667 2zM16 6.667c-1.067 0-2.133 0.4-2.8 1.2-0.8 0.667-1.2 1.733-1.2 2.8s0.4 2.133 1.2 2.8c1.467 1.467 4.133 1.467 5.6 0 0.8-0.667 1.2-1.733 1.2-2.8s-0.4-2.133-1.2-2.8c-0.667-0.8-1.733-1.2-2.8-1.2z"></path>
<path fill="#f64b15" style="fill: var(--color2, #f64b15)" d="M24 30.667c0 0 0 0 0 0-0.533 0-1.067-0.267-1.467-0.667l-3.867-4c-0.8-0.8-1.333-1.867-1.333-3.067s0.4-2.267 1.333-3.067c0.4-0.4 0.933-0.8 1.467-0.933 1.067-0.4 2.267-0.4 3.333 0 0.267 0.133 0.4 0.133 0.667 0.267 0.4-0.267 0.933-0.4 1.467-0.533 0.8-0.133 1.733-0.133 2.533 0.267s1.467 0.933 2 1.6c0.533 0.667 0.8 1.6 0.8 2.4 0 1.2-0.4 2.267-1.333 3.067-0.4 0.4-0.8 0.8-1.2 1.333-0.8 0.933-1.733 1.867-2.667 2.667-0.667 0.533-1.2 0.667-1.733 0.667zM21.733 21.333c-0.267 0-0.4 0-0.667 0.133s-0.4 0.267-0.533 0.4-0.533 0.8-0.533 1.2c0 0.4 0.133 0.933 0.533 1.2l3.467 3.6c0.8-0.667 1.467-1.467 2.267-2.267 0.4-0.4 0.8-0.933 1.333-1.333 0.267-0.267 0.533-0.8 0.533-1.2 0 0 0 0 0 0 0-0.4-0.133-0.667-0.267-0.933s-0.4-0.533-0.8-0.667c-0.4-0.133-0.8-0.133-1.067-0.133s-0.667 0.267-0.933 0.533l-0.133 0.133c-0.267 0.267-0.533 0.4-0.933 0.4 0 0 0 0 0 0-0.4 0-0.667-0.133-0.933-0.4l-0.133-0.133c-0.133-0.133-0.4-0.267-0.533-0.4-0.267-0.133-0.533-0.133-0.667-0.133z"></path>
<path fill="#0e2423" style="fill: var(--color1, #0e2423)" d="M6.667 28c-0.8 0-1.333-0.533-1.333-1.333v-1.333c0-1.733 0.4-3.6 1.333-5.2 0.8-1.467 2.133-2.8 3.6-3.867 1.467-0.933 3.2-1.467 5.067-1.6 1.733-0.133 3.6 0.267 5.2 1.067 0.667 0.267 0.933 1.067 0.667 1.733s-1.067 0.933-1.733 0.667c-1.2-0.533-2.533-0.8-3.867-0.8-1.333 0.133-2.667 0.533-3.733 1.2s-2.133 1.733-2.667 2.933c-0.8 1.2-1.2 2.533-1.2 3.867v1.333c0 0.8-0.533 1.333-1.333 1.333z"></path>
</symbol>
<symbol id="favorite_selected" viewBox="0 0 32 32">
<path fill="#0e2423" style="fill: var(--color1, #0e2423)" d="M16 17.6c-1.867 0-3.6-0.667-4.933-2s-2-3.067-2-4.933 0.667-3.6 2-4.933c1.333-1.333 3.067-2 4.933-2v0c1.867 0 3.6 0.667 4.933 2s2 3.067 2 4.933-0.667 3.6-2 4.933c-1.333 1.333-3.067 2-4.933 2zM16 6.933c-0.933 0-1.867 0.4-2.667 1.067-0.667 0.8-1.067 1.733-1.067 2.667s0.4 1.867 1.067 2.667c1.333 1.333 3.867 1.333 5.2 0 0.667-0.667 1.067-1.6 1.067-2.667s-0.267-1.867-0.933-2.667c-0.8-0.667-1.733-1.067-2.667-1.067z"></path>
<path fill="#f64b15" style="fill: var(--color2, #f64b15)" d="M29.333 23.067c0 0.8-0.267 1.6-0.933 2.133-1.333 1.333-2.533 2.667-3.867 4-0.133 0-0.4 0.133-0.533 0.133-0.267 0-0.4-0.133-0.533-0.267l-3.867-3.867c-0.533-0.533-0.933-1.333-0.933-2.133s0.267-1.6 0.933-2.133c0.267-0.267 0.667-0.533 0.933-0.667 0.4-0.133 0.8-0.267 1.2-0.267s0.8 0.133 1.2 0.267c0.4 0.133 0.667 0.4 0.933 0.667l0.133 0.133 0.133-0.133c0.4-0.4 0.933-0.667 1.6-0.8 0.533-0.133 1.2 0 1.733 0.133 0.533 0.267 1.067 0.667 1.333 1.067 0.4 0.533 0.533 1.067 0.533 1.733z"></path>
<path fill="#0e2423" style="fill: var(--color1, #0e2423)" d="M6.667 28.267c-0.933 0-1.6-0.8-1.6-1.6v-1.333c0-1.867 0.533-3.733 1.333-5.333 0.933-1.6 2.133-2.933 3.733-4 1.6-0.933 3.333-1.6 5.2-1.733s3.733 0.267 5.333 1.067c0.8 0.4 1.2 1.333 0.8 2.267-0.4 0.8-1.333 1.2-2.267 0.8-1.2-0.533-2.533-0.8-3.733-0.667-1.333 0.133-2.533 0.533-3.6 1.2s-2 1.6-2.667 2.8c-0.533 1.067-0.933 2.267-0.933 3.6v1.333c0 0.933-0.667 1.6-1.6 1.6z"></path>
</symbol>
<symbol id="menu" viewBox="0 0 39 32">
<path d="M1.231 30.425h36.923v-4.923h-36.923v4.923zM1.231 18.117h36.923v-4.923h-36.923v4.923zM1.231 5.809h36.923v-4.923h-36.923v4.923z"></path>
</symbol>
<symbol id="facebook" viewBox="0 0 32 32">
<path fill="#1877f2" style="fill: var(--color4, #1877f2)" d="M32 16c0-8.836-7.163-16-16-16s-16 7.163-16 16c0 7.986 5.851 14.605 13.5 15.806v-11.181h-4.063v-4.625h4.063v-3.525c0-4.010 2.389-6.225 6.043-6.225 1.751 0 3.582 0.313 3.582 0.313v3.937h-2.017c-1.988 0-2.607 1.233-2.607 2.499v3.001h4.438l-0.709 4.625h-3.728v11.181c7.649-1.2 13.5-7.819 13.5-15.806z"></path>
<path fill="#fff" style="fill: var(--color2, #fff)" d="M22.228 20.625l0.709-4.625h-4.438v-3.001c0-1.265 0.62-2.499 2.607-2.499h2.018v-3.938c0 0-1.831-0.313-3.582-0.313-3.655 0-6.043 2.215-6.043 6.225v3.525h-4.063v4.625h4.063v11.181c0.827 0.13 1.663 0.195 2.5 0.194s1.673-0.065 2.5-0.194v-11.181h3.728z"></path>
</symbol>
<symbol id="google" viewBox="0 0 31 32">
<path fill="#4285f4" style="fill: var(--color9, #4285f4)" d="M31.118 16.291c0-1.276-0.106-2.206-0.335-3.172h-14.905v5.757h8.749c-0.176 1.431-1.129 3.586-3.246 5.033l-0.030 0.193 4.713 3.568 0.326 0.032c2.999-2.706 4.727-6.688 4.727-11.411z"></path>
<path fill="#34a853" style="fill: var(--color10, #34a853)" d="M15.877 31.461c4.286 0 7.885-1.379 10.513-3.758l-5.010-3.792c-1.341 0.914-3.14 1.551-5.504 1.551-4.198 0-7.761-2.706-9.032-6.447l-0.186 0.015-4.901 3.706-0.064 0.174c2.611 5.068 7.973 8.55 14.182 8.55z"></path>
<path fill="#fbbc05" style="fill: var(--color11, #fbbc05)" d="M6.846 19.015c-0.335-0.965-0.529-2-0.529-3.068s0.194-2.103 0.511-3.068l-0.009-0.206-4.962-3.766-0.162 0.075c-1.076 2.103-1.693 4.465-1.693 6.964s0.617 4.861 1.693 6.964l5.151-3.896z"></path>
<path fill="#eb4335" style="fill: var(--color12, #eb4335)" d="M15.877 6.431c2.981 0 4.992 1.258 6.139 2.31l4.48-4.275c-2.752-2.499-6.333-4.034-10.619-4.034-6.209 0-11.572 3.482-14.182 8.55l5.133 3.896c1.288-3.741 4.851-6.447 9.049-6.447z"></path>
</symbol>
<symbol id="viber" viewBox="0 0 32 32">
<path fill="#665cac" style="fill: var(--color3, #665cac)" d="M16.568 0.023c7.155 0.034 10.368 2.367 11.165 3.097 2.636 2.291 4.101 7.371 3.117 15.396-0.866 7.090-5.811 8.348-7.47 8.77-0.163 0.041-0.293 0.075-0.386 0.105-0.447 0.144-4.399 1.133-9.532 0.701-0.567 0.658-1.321 1.522-1.863 2.108-0.164 0.177-0.317 0.351-0.464 0.518-0.743 0.844-1.311 1.489-2.177 1.221-0.86-0.264-0.812-1.57-0.812-1.57l0.005-3.222h-0.005c-7.511-2.113-7.4-9.897-7.314-14.056 0.082-4.159 0.888-7.511 3.179-9.801 4.115-3.775 12.558-3.265 12.558-3.265z"></path>
<path fill="#fff" style="fill: var(--color2, #fff)" d="M22.528 25.042c1.41-0.327 5.348-1.241 6.075-7.102 0.831-6.704-0.307-11.28-2.536-13.196-0.672-0.61-3.573-2.43-9.628-2.459 0 0-7.17-0.471-10.651 2.68-1.935 1.911-2.588 4.754-2.66 8.226l-0.008 0.354c-0.081 3.551-0.224 9.808 5.915 11.513 0 0-0.024 4.922-0.029 5.354 0 0.303 0.048 0.509 0.221 0.552 0.125 0.034 0.312-0.034 0.471-0.192 1.013-1.023 4.264-4.942 4.264-4.942 4.36 0.288 7.828-0.576 8.202-0.696 0.086-0.027 0.21-0.056 0.365-0.092z"></path>
<path fill="#665cac" style="fill: var(--color3, #665cac)" d="M19.916 12.892c0.011 0.223-0.161 0.413-0.385 0.424s-0.413-0.161-0.424-0.385c-0.067-1.383-0.709-2.047-2.038-2.117-0.223-0.012-0.395-0.202-0.383-0.426s0.202-0.395 0.426-0.383c1.748 0.093 2.716 1.093 2.803 2.887z"></path>
<path fill="#665cac" style="fill: var(--color3, #665cac)" d="M21.578 14.013c0.223 0.005 0.409-0.172 0.414-0.395 0.036-1.582-0.438-2.918-1.422-3.99-0.986-1.074-2.346-1.669-4.068-1.792-0.223-0.016-0.417 0.152-0.432 0.375s0.152 0.417 0.375 0.432c1.525 0.108 2.691 0.618 3.529 1.532s1.241 2.046 1.209 3.424c-0.005 0.223 0.172 0.409 0.395 0.414z"></path>
<path fill="#665cac" style="fill: var(--color3, #665cac)" d="M24.119 14.436c0.002 0.224-0.178 0.406-0.402 0.408s-0.406-0.178-0.408-0.402c-0.018-2.463-0.745-4.377-2.178-5.778-1.438-1.401-3.225-2.109-5.372-2.123-0.224-0.001-0.404-0.184-0.402-0.407s0.184-0.404 0.407-0.402c2.353 0.015 4.342 0.803 5.933 2.353 1.596 1.561 2.402 3.683 2.422 6.351z"></path>
<path fill="#665cac" style="fill: var(--color3, #665cac)" d="M18.047 18.002c-0.302 0.379-0.874 0.331-0.874 0.331-4.159-1.061-5.273-5.273-5.273-5.273s-0.048-0.567 0.331-0.874l0.749-0.595c0.374-0.288 0.61-0.984 0.23-1.666-0.211-0.379-0.634-1.056-0.946-1.484-0.331-0.451-1.1-1.373-1.105-1.378-0.37-0.442-0.917-0.543-1.493-0.245 0 0-0.005 0.005-0.010 0.005-0.547 0.307-1.057 0.72-1.532 1.244l-0.010 0.010c-0.355 0.427-0.562 0.85-0.61 1.263-0.010 0.048-0.014 0.111-0.010 0.182-0.005 0.182 0.024 0.36 0.082 0.538l0.019 0.014c0.178 0.639 0.629 1.7 1.604 3.472 0.634 1.148 1.282 2.108 1.926 2.915 0.336 0.427 0.72 0.864 1.162 1.311l0.173 0.173c0.447 0.442 0.884 0.826 1.311 1.162 0.807 0.643 1.762 1.292 2.915 1.926 1.772 0.975 2.833 1.426 3.472 1.604l0.014 0.019c0.178 0.058 0.355 0.082 0.538 0.082 0.072 0.005 0.134 0 0.183-0.010 0.413-0.048 0.836-0.255 1.263-0.61l0.010-0.010c0.523-0.475 0.936-0.989 1.244-1.532 0 0 0.005-0.005 0.005-0.010 0.298-0.576 0.197-1.124-0.245-1.494 0 0-0.927-0.773-1.378-1.105-0.423-0.312-1.105-0.73-1.484-0.946-0.682-0.379-1.378-0.144-1.666 0.231l-0.596 0.749z"></path>
</symbol>
<symbol id="instagram" viewBox="0 0 32 32">
<path fill="#000" style="fill: var(--color1, #000)" d="M24.5 0h-17c-4.142 0-7.5 3.358-7.5 7.5v17c0 4.142 3.358 7.5 7.5 7.5h17c4.142 0 7.5-3.358 7.5-7.5v-17c0-4.142-3.358-7.5-7.5-7.5z"></path>
<path fill="#000" style="fill: var(--color1, #000)" d="M24.5 0h-17c-4.142 0-7.5 3.358-7.5 7.5v17c0 4.142 3.358 7.5 7.5 7.5h17c4.142 0 7.5-3.358 7.5-7.5v-17c0-4.142-3.358-7.5-7.5-7.5z"></path>
<path fill="#fff" style="fill: var(--color2, #fff)" d="M16.001 3.5c-3.395 0-3.821 0.015-5.154 0.075-1.331 0.061-2.239 0.272-3.034 0.581-0.822 0.319-1.52 0.746-2.214 1.441s-1.123 1.392-1.443 2.214c-0.31 0.795-0.521 1.704-0.581 3.034-0.060 1.333-0.075 1.76-0.075 5.154s0.015 3.82 0.075 5.153c0.061 1.331 0.272 2.239 0.581 3.034 0.319 0.822 0.747 1.52 1.442 2.214s1.392 1.123 2.214 1.443c0.795 0.309 1.704 0.52 3.034 0.581 1.333 0.061 1.759 0.076 5.154 0.076s3.82-0.015 5.153-0.076c1.331-0.061 2.24-0.272 3.036-0.581 0.822-0.319 1.518-0.747 2.213-1.443s1.122-1.392 1.443-2.214c0.307-0.795 0.518-1.704 0.581-3.034 0.060-1.333 0.075-1.758 0.075-5.153s-0.016-3.821-0.075-5.154c-0.063-1.331-0.273-2.239-0.581-3.034-0.32-0.822-0.747-1.52-1.443-2.215s-1.391-1.122-2.213-1.441c-0.797-0.309-1.706-0.52-3.036-0.581-1.333-0.061-1.758-0.075-5.154-0.075h0.004zM14.88 5.753c0.333-0 0.704 0 1.121 0 3.338 0 3.733 0.012 5.051 0.072 1.219 0.056 1.88 0.259 2.321 0.431 0.583 0.226 0.999 0.497 1.436 0.935s0.708 0.854 0.935 1.438c0.171 0.44 0.375 1.101 0.43 2.32 0.060 1.318 0.073 1.713 0.073 5.050s-0.013 3.732-0.073 5.050c-0.056 1.219-0.259 1.88-0.43 2.32-0.227 0.583-0.498 0.999-0.935 1.436s-0.853 0.708-1.436 0.935c-0.44 0.172-1.102 0.375-2.321 0.431-1.318 0.060-1.713 0.073-5.051 0.073s-3.733-0.013-5.051-0.073c-1.219-0.056-1.88-0.26-2.321-0.431-0.583-0.227-1-0.497-1.438-0.935s-0.708-0.853-0.935-1.437c-0.171-0.44-0.375-1.102-0.431-2.32-0.060-1.318-0.072-1.713-0.072-5.052s0.012-3.732 0.072-5.050c0.056-1.219 0.259-1.88 0.431-2.321 0.227-0.583 0.498-1 0.936-1.438s0.854-0.708 1.438-0.935c0.441-0.172 1.102-0.375 2.321-0.431 1.153-0.052 1.6-0.068 3.93-0.070v0.003zM22.674 7.828c-0.828 0-1.5 0.671-1.5 1.5s0.672 1.5 1.5 1.5c0.828 0 1.5-0.672 1.5-1.5s-0.672-1.5-1.5-1.5zM16.001 9.581c-3.545 0-6.419 2.874-6.419 6.419s2.874 6.418 6.419 6.418 6.418-2.873 6.418-6.418c0-3.545-2.873-6.419-6.418-6.419zM16.001 11.833c2.301 0 4.167 1.865 4.167 4.167s-1.866 4.167-4.167 4.167c-2.301 0-4.167-1.866-4.167-4.167s1.865-4.167 4.167-4.167z"></path>
</symbol>
<symbol id="telegram" viewBox="0 0 32 32">
<path fill="#000" style="fill: var(--color1, #000)" d="M16 0c-4.242 0-8.315 1.687-11.313 4.686-3.001 3.001-4.687 7.070-4.688 11.314 0 4.242 1.688 8.314 4.688 11.314 2.998 2.999 7.070 4.686 11.313 4.686s8.315-1.687 11.313-4.686c3-3 4.687-7.072 4.687-11.314s-1.687-8.314-4.687-11.314c-2.997-2.999-7.070-4.686-11.313-4.686z"></path>
<path fill="#fff" style="fill: var(--color2, #fff)" d="M7.242 15.831c4.665-2.032 7.775-3.372 9.33-4.019 4.445-1.848 5.368-2.169 5.97-2.18 0.132-0.002 0.427 0.031 0.62 0.186 0.16 0.131 0.205 0.309 0.227 0.433 0.020 0.125 0.047 0.408 0.025 0.63-0.24 2.53-1.282 8.669-1.812 11.503-0.223 1.199-0.665 1.601-1.093 1.64-0.93 0.085-1.635-0.614-2.535-1.204-1.407-0.923-2.203-1.498-3.57-2.398-1.58-1.041-0.555-1.613 0.345-2.548 0.235-0.245 4.33-3.968 4.407-4.306 0.010-0.042 0.020-0.2-0.075-0.283-0.093-0.083-0.23-0.055-0.33-0.032-0.142 0.032-2.39 1.519-6.75 4.461-0.637 0.439-1.215 0.652-1.735 0.641-0.57-0.012-1.67-0.323-2.487-0.589-1-0.326-1.798-0.498-1.728-1.051 0.035-0.288 0.433-0.583 1.19-0.884z"></path>
</symbol>
<symbol id="logo" viewBox="0 0 178 32">
<path fill="#e7a973" style="fill: var(--color19, #e7a973)" d="M6.496 15.507c0.519 1.944-0.226 3.831-1.665 4.215s-3.025-0.88-3.544-2.824c-0.519-1.944 0.226-3.831 1.665-4.215s3.025 0.88 3.544 2.824z"></path>
<path fill="#e7a973" style="fill: var(--color19, #e7a973)" d="M24.26 17.623c-1.009 1.74-2.888 2.536-4.196 1.777s-1.551-2.785-0.542-4.525c1.009-1.74 2.888-2.536 4.196-1.777s1.551 2.785 0.542 4.525z"></path>
<path fill="#e7a973" style="fill: var(--color19, #e7a973)" d="M12.052 10.274c0.41 2.161-0.579 4.163-2.209 4.472s-3.283-1.192-3.693-3.353c-0.41-2.161 0.579-4.163 2.209-4.472s3.283 1.192 3.693 3.353z"></path>
<path fill="#e7a973" style="fill: var(--color19, #e7a973)" d="M19.879 11.542c-0.53 2.194-2.304 3.647-3.961 3.247s-2.572-2.504-2.042-4.697c0.53-2.194 2.304-3.647 3.961-3.247s2.572 2.504 2.042 4.697z"></path>
<path fill="#e7a973" style="fill: var(--color19, #e7a973)" d="M10.286 17.683c1.361-2.192 4.55-2.192 5.91 0l2.629 4.235c1.438 2.317-0.228 5.313-2.955 5.313h-5.258c-2.727 0-4.394-2.996-2.955-5.313l2.629-4.235z"></path>
<path fill="#53c5bd" style="fill: var(--color20, #53c5bd)" d="M32.282 25.739v-17.043h7.377c1.526 0 2.841 0.252 3.944 0.755 1.104 0.487 1.956 1.193 2.557 2.118s0.901 2.029 0.901 3.311c0 1.266-0.3 2.362-0.901 3.287s-1.453 1.639-2.557 2.143c-1.104 0.487-2.419 0.73-3.944 0.73h-5.186l1.753-1.777v6.477h-3.944zM36.226 19.701l-1.753-1.875h4.967c1.217 0 2.126-0.26 2.727-0.779s0.901-1.242 0.901-2.167c0-0.941-0.3-1.672-0.901-2.191s-1.51-0.779-2.727-0.779h-4.967l1.753-1.875v9.666z"></path>
<path fill="#111" style="fill: var(--color21, #111)" d="M49.847 25.739v-13.099h3.628v3.701l-0.511-1.071c0.39-0.925 1.014-1.623 1.875-2.094 0.86-0.487 1.907-0.73 3.141-0.73v3.506c-0.162-0.016-0.308-0.024-0.438-0.024-0.13-0.016-0.268-0.024-0.414-0.024-1.039 0-1.883 0.3-2.532 0.901-0.633 0.584-0.95 1.501-0.95 2.751v6.184h-3.798zM66.644 25.934c-1.493 0-2.808-0.292-3.944-0.877-1.12-0.584-1.988-1.38-2.605-2.386-0.617-1.023-0.925-2.183-0.925-3.482 0-1.315 0.3-2.475 0.901-3.482 0.617-1.023 1.453-1.818 2.508-2.386 1.055-0.584 2.248-0.877 3.579-0.877 1.282 0 2.435 0.276 3.457 0.828 1.039 0.536 1.859 1.315 2.459 2.337 0.6 1.006 0.901 2.216 0.901 3.628 0 0.146-0.008 0.317-0.024 0.511-0.016 0.179-0.033 0.349-0.049 0.511h-10.64v-2.216h8.643l-1.461 0.657c0-0.682-0.138-1.274-0.414-1.777s-0.657-0.893-1.144-1.169c-0.487-0.292-1.055-0.438-1.704-0.438s-1.226 0.146-1.729 0.438c-0.487 0.276-0.868 0.674-1.144 1.193-0.276 0.503-0.414 1.104-0.414 1.802v0.584c0 0.714 0.154 1.347 0.463 1.899 0.325 0.536 0.771 0.95 1.339 1.242 0.584 0.276 1.266 0.414 2.045 0.414 0.698 0 1.307-0.106 1.826-0.317 0.536-0.211 1.023-0.527 1.461-0.95l2.021 2.191c-0.6 0.682-1.355 1.209-2.264 1.583-0.909 0.357-1.956 0.536-3.141 0.536zM80.859 25.934c-1.542 0-2.743-0.39-3.603-1.169-0.861-0.795-1.29-1.972-1.29-3.53v-11.492h3.798v11.443c0 0.552 0.146 0.982 0.438 1.29 0.292 0.292 0.69 0.438 1.193 0.438 0.6 0 1.112-0.162 1.534-0.487l1.023 2.678c-0.39 0.276-0.861 0.487-1.412 0.633-0.536 0.13-1.096 0.195-1.68 0.195zM73.944 15.854v-2.922h9.082v2.922h-9.082zM91.155 25.934c-1.542 0-2.743-0.39-3.603-1.169-0.861-0.795-1.29-1.972-1.29-3.53v-11.492h3.798v11.443c0 0.552 0.146 0.982 0.438 1.29 0.292 0.292 0.69 0.438 1.193 0.438 0.6 0 1.112-0.162 1.534-0.487l1.023 2.678c-0.39 0.276-0.861 0.487-1.412 0.633-0.536 0.13-1.096 0.195-1.68 0.195zM84.24 15.854v-2.922h9.082v2.922h-9.082zM97.797 30.657c-0.682 0-1.355-0.106-2.021-0.317s-1.209-0.503-1.631-0.877l1.388-2.703c0.292 0.26 0.625 0.463 0.998 0.609 0.39 0.146 0.771 0.219 1.144 0.219 0.536 0 0.958-0.13 1.266-0.39 0.325-0.243 0.617-0.657 0.877-1.242l0.682-1.607 0.292-0.414 4.699-11.297h3.652l-5.917 13.903c-0.422 1.055-0.909 1.883-1.461 2.483-0.536 0.601-1.136 1.023-1.802 1.266-0.649 0.243-1.372 0.365-2.167 0.365zM100.037 26.25l-5.843-13.61h3.92l4.529 10.957-2.605 2.654zM136.561 25.739v-2.557l-0.243-0.56v-4.577c0-0.812-0.252-1.445-0.755-1.899-0.487-0.454-1.242-0.682-2.264-0.682-0.698 0-1.388 0.114-2.070 0.341-0.666 0.211-1.233 0.503-1.704 0.877l-1.363-2.654c0.714-0.503 1.574-0.893 2.581-1.169s2.029-0.414 3.068-0.414c1.997 0 3.546 0.471 4.65 1.412s1.656 2.41 1.656 4.407v7.475h-3.555zM132.568 25.934c-1.023 0-1.899-0.17-2.63-0.511-0.73-0.357-1.29-0.836-1.68-1.437s-0.584-1.274-0.584-2.021c0-0.779 0.186-1.461 0.56-2.045 0.39-0.584 0.998-1.039 1.826-1.363 0.828-0.341 1.907-0.511 3.238-0.511h3.482v2.216h-3.068c-0.893 0-1.51 0.146-1.85 0.438-0.325 0.292-0.487 0.657-0.487 1.096 0 0.487 0.186 0.877 0.56 1.169 0.39 0.276 0.917 0.414 1.583 0.414 0.633 0 1.201-0.146 1.704-0.438 0.503-0.308 0.868-0.755 1.096-1.339l0.584 1.753c-0.276 0.844-0.779 1.485-1.51 1.923s-1.672 0.657-2.824 0.657zM146.31 25.739l-4.723-13.099h3.579l3.92 11.273h-1.704l4.090-11.273h3.214l3.969 11.273h-1.704l4.042-11.273h3.36l-4.748 13.099h-3.677l-3.482-9.666h1.12l-3.603 9.666h-3.652zM170.334 25.934c-1.12 0-2.199-0.13-3.238-0.39-1.023-0.276-1.834-0.617-2.435-1.023l1.266-2.727c0.601 0.373 1.307 0.682 2.118 0.925 0.828 0.227 1.64 0.341 2.435 0.341 0.877 0 1.494-0.106 1.85-0.317 0.374-0.211 0.56-0.503 0.56-0.877 0-0.308-0.146-0.536-0.438-0.682-0.275-0.162-0.649-0.284-1.12-0.365s-0.99-0.162-1.558-0.243c-0.552-0.081-1.112-0.187-1.68-0.317-0.568-0.146-1.087-0.357-1.558-0.633s-0.852-0.649-1.144-1.12c-0.275-0.471-0.414-1.079-0.414-1.826 0-0.828 0.236-1.558 0.706-2.191 0.487-0.633 1.185-1.128 2.094-1.485 0.909-0.373 1.997-0.56 3.263-0.56 0.893 0 1.802 0.097 2.727 0.292s1.697 0.479 2.313 0.852l-1.266 2.703c-0.633-0.373-1.274-0.625-1.923-0.755-0.633-0.146-1.249-0.219-1.85-0.219-0.844 0-1.461 0.114-1.85 0.341s-0.584 0.519-0.584 0.877c0 0.325 0.138 0.568 0.414 0.73 0.292 0.162 0.674 0.292 1.144 0.39s0.982 0.187 1.534 0.268c0.568 0.065 1.137 0.17 1.704 0.317s1.080 0.357 1.534 0.633c0.471 0.26 0.852 0.625 1.144 1.096 0.292 0.454 0.438 1.055 0.438 1.802 0 0.812-0.243 1.534-0.73 2.167-0.487 0.617-1.193 1.104-2.118 1.461-0.909 0.357-2.021 0.536-3.336 0.536z"></path>
<path fill="#e7a973" style="fill: var(--color19, #e7a973)" d="M110.961 25.739v-17.043h7.377c1.526 0 2.84 0.252 3.944 0.755 1.104 0.487 1.956 1.193 2.557 2.118s0.901 2.029 0.901 3.311c0 1.266-0.301 2.362-0.901 3.287s-1.453 1.639-2.557 2.143c-1.104 0.487-2.419 0.73-3.944 0.73h-5.186l1.753-1.777v6.477h-3.944zM114.905 19.701l-1.753-1.875h4.967c1.217 0 2.127-0.26 2.727-0.779s0.901-1.242 0.901-2.167c0-0.941-0.301-1.672-0.901-2.191s-1.51-0.779-2.727-0.779h-4.967l1.753-1.875v9.666z"></path>
</symbol>
<symbol id="eye-off" viewBox="0 0 32 32">
<path fill="#6c6c6c" style="fill: var(--color4, #6c6c6c)" d="M27 28c-0.131 0-0.261-0.026-0.383-0.076s-0.231-0.124-0.324-0.217l-22-22c-0.18-0.189-0.278-0.441-0.275-0.702s0.108-0.51 0.293-0.694c0.184-0.184 0.434-0.289 0.694-0.293s0.513 0.095 0.702 0.275l22 22c0.14 0.14 0.235 0.318 0.273 0.512s0.019 0.395-0.057 0.578c-0.076 0.183-0.204 0.339-0.368 0.449s-0.358 0.169-0.555 0.169zM15.979 24c-2.593 0-5.094-0.767-7.432-2.281-2.129-1.375-4.046-3.344-5.544-5.688v-0.005c1.246-1.786 2.611-3.296 4.077-4.513 0.013-0.011 0.024-0.025 0.032-0.040s0.012-0.032 0.013-0.050c0.001-0.017-0.002-0.035-0.008-0.051s-0.016-0.031-0.028-0.043l-1.245-1.243c-0.022-0.022-0.052-0.035-0.083-0.037s-0.062 0.009-0.086 0.029c-1.558 1.313-3.003 2.922-4.317 4.808-0.226 0.325-0.351 0.709-0.358 1.105s0.103 0.784 0.318 1.117c1.651 2.583 3.775 4.759 6.143 6.291 2.666 1.727 5.534 2.602 8.519 2.602 1.611-0.005 3.211-0.271 4.737-0.786 0.020-0.007 0.038-0.019 0.053-0.034s0.024-0.035 0.029-0.056c0.005-0.021 0.004-0.042-0.001-0.063s-0.017-0.039-0.032-0.054l-1.349-1.349c-0.031-0.030-0.069-0.052-0.111-0.063s-0.086-0.011-0.128 0c-1.045 0.269-2.119 0.405-3.197 0.404zM30.677 14.913c-1.654-2.558-3.799-4.73-6.204-6.283-2.661-1.72-5.598-2.629-8.494-2.629-1.594 0.003-3.176 0.274-4.681 0.802-0.020 0.007-0.038 0.019-0.052 0.035s-0.024 0.035-0.029 0.056c-0.005 0.021-0.004 0.042 0.002 0.063s0.017 0.039 0.032 0.054l1.347 1.347c0.031 0.031 0.070 0.053 0.113 0.064s0.087 0.011 0.13-0.001c1.023-0.277 2.078-0.417 3.138-0.418 2.543 0 5.036 0.777 7.409 2.313 2.169 1.4 4.109 3.367 5.61 5.688 0.001 0.001 0.002 0.003 0.002 0.005s-0.001 0.004-0.002 0.005c-1.090 1.716-2.442 3.249-4.008 4.546-0.013 0.011-0.024 0.025-0.032 0.040s-0.012 0.033-0.013 0.050c-0.001 0.017 0.002 0.035 0.008 0.051s0.016 0.031 0.028 0.043l1.244 1.243c0.022 0.022 0.052 0.035 0.083 0.037s0.062-0.009 0.086-0.029c1.671-1.407 3.118-3.061 4.29-4.905 0.207-0.325 0.317-0.703 0.316-1.088s-0.113-0.762-0.322-1.086z"></path>
<path fill="#6c6c6c" style="fill: var(--color4, #6c6c6c)" d="M16 10c-0.449-0-0.897 0.050-1.336 0.15-0.022 0.005-0.043 0.015-0.059 0.030s-0.029 0.035-0.035 0.057-0.007 0.045-0.001 0.067c0.006 0.022 0.017 0.042 0.033 0.058l7.037 7.035c0.016 0.016 0.036 0.027 0.058 0.033s0.045 0.005 0.067-0.001c0.022-0.007 0.041-0.019 0.057-0.035s0.026-0.037 0.030-0.059c0.2-0.879 0.2-1.791-0.001-2.67s-0.597-1.701-1.159-2.405c-0.562-0.705-1.275-1.273-2.088-1.664s-1.702-0.594-2.603-0.594zM10.361 14.604c-0.016-0.016-0.036-0.027-0.058-0.033s-0.045-0.005-0.067 0.001c-0.022 0.006-0.041 0.019-0.057 0.035s-0.026 0.037-0.030 0.059c-0.227 0.99-0.198 2.022 0.083 2.998s0.805 1.865 1.523 2.583c0.718 0.718 1.607 1.243 2.583 1.523s2.008 0.309 2.998 0.083c0.022-0.005 0.043-0.015 0.059-0.030s0.029-0.035 0.035-0.057c0.006-0.022 0.007-0.045 0.001-0.067s-0.017-0.042-0.033-0.058l-7.039-7.039z"></path>
</symbol>
<symbol id="arrow" viewBox="0 0 32 32">
<path fill="#fff" style="fill: var(--color6, #fff)" d="M21.267 14.625c0.364 0.365 0.569 0.86 0.569 1.375s-0.205 1.010-0.569 1.375l-7.338 7.34c-0.181 0.181-0.395 0.324-0.631 0.422s-0.489 0.148-0.745 0.148c-0.256-0-0.509-0.050-0.745-0.148s-0.451-0.241-0.631-0.422-0.324-0.395-0.422-0.632c-0.098-0.236-0.148-0.489-0.148-0.745s0.050-0.509 0.148-0.745c0.098-0.236 0.241-0.451 0.422-0.631l5.962-5.962-5.962-5.962c-0.186-0.179-0.334-0.394-0.436-0.631s-0.156-0.493-0.158-0.751c-0.002-0.258 0.047-0.515 0.144-0.754s0.242-0.457 0.425-0.639c0.183-0.183 0.4-0.327 0.639-0.425s0.495-0.147 0.754-0.145c0.258 0.002 0.514 0.056 0.751 0.158s0.452 0.25 0.632 0.436l7.339 7.34z"></path>
</symbol>
<symbol id="arrow-blue" viewBox="0 0 32 32">
<path fill="#005a9a" style="fill: var(--color2, #005a9a)" d="M20 25.333c-0.4 0-0.667-0.133-0.933-0.4l-8-8c-0.533-0.533-0.533-1.333 0-1.867l8-8c0.533-0.533 1.333-0.533 1.867 0s0.533 1.333 0 1.867l-7.067 7.067 7.067 7.067c0.533 0.533 0.533 1.333 0 1.867-0.267 0.267-0.533 0.4-0.933 0.4z"></path>
</symbol>
<symbol id="arrow-down" viewBox="0 0 32 32">
<path d="M16 21.333c-0.4 0-0.667-0.133-0.933-0.4l-8-8c-0.533-0.533-0.533-1.333 0-1.867s1.333-0.533 1.867 0l7.067 7.067 7.067-7.067c0.533-0.533 1.333-0.533 1.867 0s0.533 1.333 0 1.867l-8 8c-0.267 0.267-0.533 0.4-0.933 0.4z"></path>
</symbol>
<symbol id="discount" viewBox="0 0 32 32">
<path fill="#e7a973" style="fill: var(--color1, #e7a973)" d="M16 31.68c-0.64 0-1.28-0.16-1.76-0.32-0.64-0.32-1.12-0.64-1.44-1.12l-1.12-1.28c-0.16-0.16-0.48-0.32-0.8-0.48s-0.64-0.16-0.8-0.16l-1.6 0.16c-0.64 0-1.28 0-1.76-0.32-0.64-0.16-1.12-0.48-1.6-0.96s-0.8-0.96-0.96-1.6c-0.16-0.64-0.32-1.12-0.32-1.76l0.16-1.6c0-0.32 0-0.64-0.16-0.8-0.16-0.32-0.32-0.48-0.48-0.8l-1.28-1.12c-0.48-0.48-0.8-0.96-1.12-1.44-0.32-0.64-0.32-1.12-0.32-1.76s0.16-1.28 0.32-1.76c0-0.96 0.48-1.44 0.96-1.76l1.28-1.12c0.16-0.32 0.32-0.48 0.48-0.8s0.16-0.64 0.16-0.8l-0.16-1.76c0-0.64 0-1.28 0.32-1.76 0.16-0.64 0.48-1.12 0.96-1.6s0.96-0.8 1.6-0.96c0.64-0.16 1.12-0.32 1.76-0.32l1.6 0.16c0.32 0 0.64 0 0.8-0.16s0.48-0.32 0.8-0.48l1.28-1.28c0.48-0.48 0.96-0.8 1.44-1.12 1.12-0.48 2.4-0.48 3.52 0 0.64 0.32 1.12 0.64 1.44 1.12l1.12 1.28c0.16 0.16 0.48 0.48 0.8 0.48 0.32 0.16 0.64 0.16 0.8 0.16l1.76-0.16c0.64 0 1.28 0 1.76 0.32 0.64 0.16 1.12 0.48 1.6 0.96s0.8 0.96 0.96 1.6c0.16 0.64 0.32 1.12 0.32 1.76l-0.16 1.6c0 0.32 0 0.64 0.16 0.8 0.16 0.32 0.32 0.48 0.48 0.8l1.28 1.28c0.48 0.48 0.8 0.96 1.12 1.44 0.32 0.64 0.32 1.12 0.32 1.76s-0.16 1.28-0.32 1.76c-0.32 0.64-0.64 1.12-1.12 1.44l-1.28 1.12c-0.16 0.16-0.32 0.48-0.48 0.8s-0.16 0.64-0.16 0.8l0.16 1.6c0 0.64 0 1.28-0.32 1.76-0.16 0.64-0.64 1.12-0.96 1.6-0.48 0.48-0.96 0.8-1.6 0.96s-1.12 0.32-1.76 0.32l-1.6-0.16c-0.32 0-0.64 0-0.8 0.16-0.32 0.16-0.48 0.32-0.8 0.48l-1.28 1.44c-0.48 0.48-0.96 0.8-1.44 1.12s-1.12 0.48-1.76 0.48zM10.080 25.76c0.64 0 1.12 0.16 1.76 0.32 0.64 0.32 1.12 0.64 1.6 1.12l1.12 1.28c0.16 0.16 0.48 0.32 0.64 0.48 0.48 0.16 1.12 0.16 1.6 0 0.32-0.16 0.48-0.32 0.64-0.48l1.12-1.28c0.48-0.48 0.96-0.8 1.6-1.12s1.28-0.32 1.92-0.32l1.6 0.16c0.32 0 0.64 0 0.8-0.16 0.32-0.16 0.48-0.32 0.64-0.48s0.32-0.48 0.48-0.64c0.16-0.32 0.16-0.48 0.16-0.8l-0.16-1.76c0-0.64 0-1.28 0.32-1.92s0.64-1.12 1.12-1.6l1.28-1.12c0.16-0.16 0.32-0.48 0.48-0.64 0.16-0.32 0.16-0.48 0.16-0.8s0-0.64-0.16-0.8c-0.16-0.32-0.32-0.48-0.48-0.64l-1.28-1.12c-0.48-0.48-0.96-0.96-1.12-1.6-0.32-0.64-0.32-1.28-0.32-1.92l0.16-1.6c0-0.32 0-0.64-0.16-0.8-0.16-0.32-0.32-0.48-0.48-0.64s-0.48-0.32-0.64-0.48c-0.32-0.16-0.48-0.16-0.8-0.16l-1.6 0.16c-0.64 0-1.28 0-1.92-0.32s-1.12-0.64-1.6-1.12l-1.12-1.28c-0.16-0.16-0.48-0.32-0.64-0.48-0.48-0.16-1.12-0.16-1.6 0-0.32-0.16-0.48 0-0.64 0.32l-1.12 1.12c-0.48 0.48-0.96 0.8-1.6 1.12s-1.28 0.48-1.92 0.48l-1.6-0.16c-0.32 0-0.64 0-0.8 0.16-0.48 0-0.64 0.16-0.8 0.48-0.32 0.16-0.48 0.32-0.48 0.64-0.16 0.32-0.16 0.48-0.16 0.8l0.16 1.6c0 0.64 0 1.28-0.32 1.92s-0.64 1.12-1.12 1.6l-1.28 1.28c-0.32 0.16-0.48 0.32-0.48 0.64-0.16 0.32-0.32 0.48-0.32 0.8s0 0.48 0.16 0.8c0.16 0.32 0.32 0.48 0.48 0.64l1.28 1.12c0.48 0.48 0.8 0.96 1.12 1.6s0.32 1.28 0.32 1.92l-0.16 1.6c0 0.32 0 0.48 0.16 0.8s0.32 0.48 0.48 0.64c0.16 0.16 0.48 0.32 0.64 0.48 0.32 0.16 0.48 0.16 0.8 0.16l1.6-0.16c0.32 0.16 0.48 0.16 0.48 0.16z"></path>
<path fill="#e7a973" style="fill: var(--color1, #e7a973)" d="M12 12v0 0 0 0zM20 20v0 0 0 0z"></path>
<path fill="#e7a973" style="fill: var(--color1, #e7a973)" d="M20 21.76c-0.96 0-1.76-0.8-1.76-1.76s0.8-1.76 1.76-1.76v0c0.96 0 1.76 0.8 1.76 1.76s-0.8 1.76-1.76 1.76zM12 13.76c-0.96 0-1.76-0.8-1.76-1.76s0.8-1.76 1.76-1.76v0c0.96 0 1.76 0.8 1.76 1.76s-0.8 1.76-1.76 1.76z"></path>
<path fill="#e7a973" style="fill: var(--color1, #e7a973)" d="M11.2 22.080c-0.32 0-0.64-0.16-0.8-0.32-0.48-0.48-0.48-1.28 0-1.76l9.6-9.6c0.48-0.48 1.28-0.48 1.76 0s0.48 1.28 0 1.76l-9.6 9.6c-0.32 0.16-0.64 0.32-0.96 0.32z"></path>
</symbol>
<symbol id="delete" viewBox="0 0 32 32">
<path fill="#6c6c6c" style="fill: var(--color1, #6c6c6c)" d="M9.333 28c-0.733 0-1.361-0.261-1.884-0.784s-0.784-1.15-0.783-1.883v-17.333h-1.333v-2.667h6.667v-1.333h8v1.333h6.667v2.667h-1.333v17.333c0 0.733-0.261 1.361-0.784 1.884s-1.15 0.784-1.883 0.783h-13.333zM22.667 8h-13.333v17.333h13.333v-17.333zM12 22.667h2.667v-12h-2.667v12zM17.333 22.667h2.667v-12h-2.667v12z"></path>
</symbol>
<symbol id="login" viewBox="0 0 28 32">
<path fill="#53c5bd" style="fill: var(--color1, #53c5bd)" d="M19.656 0.244c0.108 0.094 0.195 0.21 0.254 0.341s0.090 0.272 0.090 0.415v1h1c0.796 0 1.559 0.316 2.121 0.879s0.879 1.326 0.879 2.121v25h3c0.265 0 0.52 0.105 0.707 0.293s0.293 0.442 0.293 0.707c0 0.265-0.105 0.52-0.293 0.707s-0.442 0.293-0.707 0.293h-26c-0.265 0-0.52-0.105-0.707-0.293s-0.293-0.442-0.293-0.707 0.105-0.52 0.293-0.707c0.188-0.188 0.442-0.293 0.707-0.293h3v-27c0-0.241 0.087-0.474 0.245-0.656s0.376-0.301 0.615-0.334l14-2c0.142-0.020 0.286-0.010 0.423 0.031s0.264 0.11 0.373 0.203zM21 4h-1v26h2v-25c0-0.265-0.105-0.52-0.293-0.707s-0.442-0.293-0.707-0.293zM6 3.868v26.132h12v-27.846l-12 1.714z"></path>
</symbol>

<symbol id="logout" viewBox="0 0 33 32">
<path fill="#53c5bd" style="fill: var(--color1, #53c5bd)" d="M15.703 0c0.453 0.001 0.889 0.174 1.219 0.485s0.528 0.736 0.554 1.189c0.027 0.452-0.121 0.898-0.412 1.245s-0.703 0.571-1.153 0.624l-0.208 0.012h-9.778v24.889h17.778v-11.556c0-0.453 0.174-0.889 0.485-1.219s0.736-0.528 1.189-0.554 0.898 0.121 1.245 0.412c0.347 0.291 0.571 0.703 0.624 1.153l0.012 0.208v11.556h3.556c0.453 0 0.889 0.174 1.219 0.485s0.528 0.736 0.554 1.189-0.121 0.898-0.411 1.245c-0.291 0.348-0.703 0.571-1.153 0.624l-0.208 0.012h-28.444c-0.453-0-0.889-0.174-1.218-0.485s-0.528-0.736-0.554-1.189 0.121-0.898 0.411-1.245c0.291-0.348 0.703-0.571 1.153-0.624l0.208-0.012v-24.889c-0-0.897 0.338-1.761 0.948-2.419s1.446-1.061 2.34-1.128l0.267-0.009h9.778zM19.259 14.222c0.35 0 0.697 0.069 1.020 0.203s0.618 0.33 0.865 0.578 0.444 0.542 0.578 0.865c0.134 0.323 0.203 0.67 0.203 1.020s-0.069 0.697-0.203 1.020c-0.134 0.324-0.33 0.618-0.578 0.865s-0.542 0.444-0.865 0.578c-0.323 0.134-0.67 0.203-1.020 0.203-0.707 0-1.385-0.281-1.886-0.781s-0.781-1.178-0.781-1.886 0.281-1.385 0.781-1.886c0.5-0.5 1.178-0.781 1.886-0.781zM28.303 2.084l3.769 3.769c0.333 0.333 0.52 0.785 0.52 1.256s-0.187 0.923-0.52 1.256l-3.769 3.774c-0.335 0.324-0.784 0.504-1.25 0.5s-0.912-0.19-1.242-0.52c-0.33-0.329-0.517-0.775-0.521-1.241s0.175-0.915 0.498-1.251l0.74-0.741h-5.703c-0.471 0-0.924-0.187-1.257-0.521s-0.521-0.786-0.521-1.257c0-0.471 0.187-0.924 0.521-1.257s0.786-0.521 1.257-0.521h5.698l-0.732-0.732c-0.324-0.335-0.503-0.784-0.499-1.25s0.191-0.912 0.521-1.242c0.33-0.33 0.775-0.517 1.242-0.521s0.915 0.175 1.25 0.499z"></path>
</symbol>
<symbol id="check" viewBox="0 0 32 32">
<path fill="#fff" style="fill: var(--color1, #fff)" d="M13.333 21.867l-5.333-5.333 1.867-1.867 3.467 3.467 8.8-8.8 1.867 1.867-10.667 10.667z"></path>
</symbol>
<symbol id="arrow-gray" viewBox="0 0 32 32">
<path fill="#6c6c6c" style="fill: var(--color1, #6c6c6c)" d="M12 25.333c-0.4 0-0.667-0.133-0.933-0.4-0.533-0.533-0.533-1.333 0-1.867l7.067-7.067-7.067-7.067c-0.533-0.533-0.533-1.333 0-1.867s1.333-0.533 1.867 0l8 8c0.533 0.533 0.533 1.333 0 1.867l-8 8c-0.267 0.267-0.533 0.4-0.933 0.4z"></path>
</symbol>
<symbol id="arrow-black" viewBox="0 0 32 32">
<path fill="#111" style="fill: var(--color6, #111)" d="M21.267 14.625c0.364 0.365 0.569 0.86 0.569 1.375s-0.205 1.010-0.569 1.375l-7.338 7.34c-0.181 0.181-0.395 0.324-0.631 0.422s-0.489 0.148-0.745 0.148c-0.256-0-0.509-0.050-0.745-0.148s-0.451-0.241-0.631-0.422-0.324-0.395-0.422-0.632c-0.098-0.236-0.148-0.489-0.148-0.745s0.050-0.509 0.148-0.745c0.098-0.236 0.241-0.451 0.422-0.631l5.962-5.962-5.962-5.962c-0.186-0.179-0.334-0.394-0.436-0.631s-0.156-0.493-0.158-0.751c-0.002-0.258 0.047-0.515 0.144-0.754s0.242-0.457 0.425-0.639c0.183-0.183 0.4-0.327 0.639-0.425s0.495-0.147 0.754-0.145c0.258 0.002 0.514 0.056 0.751 0.158s0.452 0.25 0.632 0.436l7.339 7.34z"></path>
</symbol>
<symbol id="filter" viewBox="0 0 32 32">
<path stroke-linejoin="miter" stroke-linecap="butt" stroke-miterlimit="4" stroke-width="1.3333" d="M26.747 10.195l-0 0-7.414 7.414v10.175c0 0.136-0.035 0.27-0.101 0.39s-0.162 0.219-0.278 0.291c-0.116 0.072-0.249 0.113-0.385 0.119s-0.272-0.023-0.394-0.084v0l-4.956-2.477c0 0-0 0-0 0-0.166-0.083-0.306-0.211-0.403-0.369s-0.149-0.34-0.149-0.526c0 0 0 0 0 0v-7.519l-7.414-7.414c-0.375-0.375-0.586-0.884-0.586-1.414 0-0 0-0 0-0v-2.781c0-0.354 0.14-0.693 0.391-0.943s0.589-0.391 0.943-0.391h20c0.354 0 0.693 0.14 0.943 0.391s0.391 0.589 0.391 0.943v2.781c0 0 0 0 0 0-0 0.53-0.211 1.039-0.586 1.414zM6.667 6h-0.667v3.057l7.609 7.609c0.124 0.124 0.222 0.271 0.289 0.433s0.102 0.335 0.102 0.51c0 0 0 0 0 0v7.312l4 2v-9.312c0-0.354 0.141-0.693 0.39-0.94l7.61-7.613v-3.056h-19.333z"></path>
</symbol>
<symbol id="eye" viewBox="0 0 47 32">
<path fill="#6c6c6c" style="fill: var(--color1, #6c6c6c)" d="M46.027 15.011c-0.064-0.146-1.624-3.606-5.108-7.089-3.232-3.229-8.786-7.080-16.92-7.080s-13.688 3.851-16.92 7.080c-3.484 3.484-5.044 6.938-5.107 7.089-0.064 0.144-0.097 0.3-0.097 0.457s0.033 0.313 0.097 0.457c0.064 0.144 1.624 3.604 5.107 7.088 3.232 3.229 8.786 7.078 16.92 7.078s13.687-3.849 16.92-7.078c3.484-3.484 5.044-6.938 5.108-7.088 0.064-0.144 0.097-0.3 0.097-0.457s-0.033-0.313-0.097-0.457zM24 27.842c-5.884 0-11.021-2.141-15.272-6.362-1.782-1.771-3.29-3.798-4.474-6.013 1.184-2.215 2.692-4.241 4.474-6.011 4.251-4.223 9.388-6.364 15.272-6.364s11.021 2.141 15.272 6.364c1.782 1.77 3.29 3.796 4.474 6.011-1.194 2.289-7.183 12.375-19.745 12.375zM24 6.842c-1.706 0-3.373 0.506-4.792 1.454s-2.524 2.295-3.177 3.871c-0.653 1.576-0.824 3.31-0.491 4.983s1.154 3.21 2.36 4.416c1.206 1.206 2.743 2.028 4.416 2.361s3.407 0.162 4.983-0.491c1.576-0.653 2.923-1.758 3.871-3.177s1.453-3.086 1.453-4.792c-0.003-2.287-0.913-4.479-2.529-6.096s-3.809-2.527-6.095-2.53zM24 21.842c-1.261 0-2.493-0.374-3.542-1.074s-1.865-1.696-2.348-2.861-0.609-2.447-0.363-3.683c0.246-1.237 0.853-2.373 1.745-3.264s2.027-1.499 3.264-1.745c1.237-0.246 2.518-0.12 3.683 0.363s2.161 1.3 2.861 2.348c0.701 1.048 1.075 2.281 1.075 3.542 0 1.691-0.672 3.312-1.867 4.508s-2.817 1.867-4.508 1.867z"></path>
</symbol>
<symbol viewBox="0 0 24 24" id="watch">
	<path fill="currentColor" d="M12 2C6.5 2 2 6.5 2 12s4.5 10 10 10s10-4.5 10-10S17.5 2 12 2zm0 18c-4.41 0-8-3.59-8-8s3.59-8 8-8s8 3.59 8 8s-3.59 8-8 8zm.5-13H11v6l5.2 3.2l.8-1.3l-4.5-2.7V7z"></path>
</symbol>
<symbol viewBox="0 0 24 24" id="watch-gray">
	<path fill="#6c6c6c" d="M12 2C6.5 2 2 6.5 2 12s4.5 10 10 10s10-4.5 10-10S17.5 2 12 2zm0 18c-4.41 0-8-3.59-8-8s3.59-8 8-8s8 3.59 8 8s-3.59 8-8 8zm.5-13H11v6l5.2 3.2l.8-1.3l-4.5-2.7V7z"></path>
</symbol>

</defs>
</svg>
